<svg id="Livello_1" data-name="Livello 1" xmlns="http://www.w3.org/2000/svg" xmlns:xlink="http://www.w3.org/1999/xlink" viewBox="0 0 30 30"><defs><style>.cls-1{fill:none;}.cls-2{clip-path:url(#clip-path);}.cls-3{clip-path:url(#clip-path-2);}.cls-4{clip-path:url(#clip-path-3);}.cls-5{fill:#e3e4e3;}.cls-6{fill:#99d5ea;}.cls-7{fill:#fff;}.cls-8{fill:#ef88b6;}.cls-9{fill:#fbd760;}.cls-10{clip-path:url(#clip-path-4);}.cls-11{fill:#d1d1d1;}.cls-12{fill:#ffefbf;}</style><clipPath id="clip-path"><circle class="cls-1" cx="65" cy="15" r="12.5" transform="translate(-1.7 13.82) rotate(-11.98)"/></clipPath><clipPath id="clip-path-2"><rect class="cls-1" x="43.4" y="-6.98" width="40.28" height="40.28"/></clipPath><clipPath id="clip-path-3"><rect class="cls-1" x="25.18" y="-23.79" width="39.89" height="39.71"/></clipPath><clipPath id="clip-path-4"><rect class="cls-1" x="25.18" y="15.92" width="39.89" height="39.71"/></clipPath></defs><g class="cls-2"><g class="cls-3"><g class="cls-4"><path class="cls-5" d="M31.07,2.51a.88.88,0,0,1,.1-.55.14.14,0,0,0,0-.06.59.59,0,0,0-1.12-.36s-.24.37.22,1c0,0,.24.26.1.5s-.72,1-.72,1l.33.1s.49-.86,1-1.05C31.14,3,31.11,2.77,31.07,2.51Z"/><path class="cls-6" d="M29.52,4.09a.34.34,0,0,1,.15,0l.33.1a.43.43,0,0,1,0,.17.1.1,0,0,1-.12.06l-.34-.11A.1.1,0,0,1,29.52,4.09Z"/><path class="cls-6" d="M27.61,3.58a.37.37,0,0,1,.15,0l.34.1a.56.56,0,0,1,0,.17.1.1,0,0,1-.12.06l-.34-.11A.1.1,0,0,1,27.61,3.58Z"/><path class="cls-5" d="M29.17,1.22h0a.08.08,0,0,0,0,0,.58.58,0,0,0-1.1-.36.4.4,0,0,0,0,.15h0a9,9,0,0,1,.12,1.22,3.42,3.42,0,0,1-.42,1.35l.34.1Z"/><path class="cls-7" d="M32.07,2a.94.94,0,0,0-.25-1A1,1,0,0,0,31,.71c-1,0-1.17-.44-1.17-.44l-.93-1.7-.68.63a1.12,1.12,0,0,1,0,1.13,1.18,1.18,0,0,0-.18.84c.15,1,2.39,1.61,3.23,1.46A.94.94,0,0,0,32.07,2Z"/><path class="cls-6" d="M30,4.63a.37.37,0,0,1,.15,0l.34.11a.49.49,0,0,1,0,.16.09.09,0,0,1-.12.06L30,4.81A.1.1,0,0,1,30,4.63Z"/><path class="cls-6" d="M27.94,4.08a.46.46,0,0,1,.15,0l.33.11a.39.39,0,0,1,0,.16.1.1,0,0,1-.12.07L28,4.26A.1.1,0,0,1,27.94,4.08Z"/><path class="cls-7" d="M29.5,1.72h0l0-.05a.58.58,0,0,0-1.1-.35.4.4,0,0,0,0,.15h0a10.78,10.78,0,0,1,.12,1.22A3.53,3.53,0,0,1,28.09,4l.33.11Z"/><path class="cls-6" d="M29.3.16a1.08,1.08,0,0,0,.14.56.73.73,0,0,0,.48.32.58.58,0,0,1-.19-.45,1.2,1.2,0,0,1,.16-.47L30-.08a.66.66,0,0,0,0-.55.52.52,0,0,0-.45-.3A5.83,5.83,0,0,0,29.3.16Z"/><path class="cls-8" d="M29.26-1.1a.23.23,0,0,1,0,.24.66.66,0,0,1-.15.19,1.32,1.32,0,0,0-.16.25,1.17,1.17,0,0,0-.09.24,1.15,1.15,0,0,0,0,.37.63.63,0,0,0,.25.37.6.6,0,0,0,.43.11A.61.61,0,0,1,29.39.2a1.2,1.2,0,0,1,.16-.47c.06-.12.13-.23.18-.35A.6.6,0,0,0,29.79-1a.58.58,0,0,0-.25-.36.52.52,0,0,0-.2-.09.31.31,0,0,0-.21.05Z"/><path class="cls-9" d="M28.55-1.6a.41.41,0,0,1,.28.11.35.35,0,0,1,.05.3,1.39,1.39,0,0,1-.22.46,1.14,1.14,0,0,0-.1.19.56.56,0,0,0,0,.42A.68.68,0,0,0,29,.23.58.58,0,0,1,28.93,0a.29.29,0,0,1,0-.16,1.26,1.26,0,0,1,.26-.5,1.54,1.54,0,0,0,.17-.19.6.6,0,0,0-.07-.64.64.64,0,0,0-.44-.29.26.26,0,0,0-.24.08Z"/><path class="cls-5" d="M27.23,11.65a.94.94,0,0,0,.47-.34l0-.05a.61.61,0,0,1,.85.88s-.25.39-1.08.27a.51.51,0,0,0-.52.14c-.16.24-.55,1.1-.55,1.1l-.25-.26A3,3,0,0,0,26.73,12C26.71,11.83,27,11.73,27.23,11.65Z"/><path class="cls-6" d="M26.47,13.81a.52.52,0,0,0,0-.16l-.25-.26a.54.54,0,0,0-.15.08.1.1,0,0,0,0,.14l.25.27A.11.11,0,0,0,26.47,13.81Z"/><path class="cls-6" d="M27.81,15.35a.45.45,0,0,0,0-.16l-.25-.26a.35.35,0,0,0-.15.08.1.1,0,0,0,0,.14l.25.26A.1.1,0,0,0,27.81,15.35Z"/><path class="cls-5" d="M29.29,12.83h0l0,0a.6.6,0,0,1,.85,0,.59.59,0,0,1,0,.84l-.12.1h0a8.57,8.57,0,0,0-1.18.44,3.61,3.61,0,0,0-1.06,1l-.25-.26Z"/><path class="cls-6" d="M27.56,9.43a.54.54,0,0,0-.43.33c-.13.3-.46.87-1,.71s-.45-1-.35-1.33h0l0,.33a1,1,0,0,0,.08.46.46.46,0,0,0,.35.28.56.56,0,0,0,.48-.28A5,5,0,0,1,27,9.44a.75.75,0,0,1,.58-.26.9.9,0,0,1,.59.29,1,1,0,0,1,.25.44,1.34,1.34,0,0,1,0,.4C28.32,10.06,28.05,9.38,27.56,9.43Z"/><path class="cls-8" d="M26.13,10.47c.54.16.87-.41,1-.71a.54.54,0,0,1,.43-.33c.49,0,.76.63.84.88h0l-.1,0c0-.09-.18-.65-.58-.58a.41.41,0,0,0-.31.23c-.13.24-.44.76-.84.86A1.15,1.15,0,0,1,25.14,10a1.08,1.08,0,0,1,.3-.53l.34-.34C25.68,9.49,25.51,10.26,26.13,10.47Z"/><path class="cls-9" d="M26.57,10.85c.4-.1.71-.62.84-.86a.41.41,0,0,1,.31-.23c.4-.07.56.49.58.58h0a.7.7,0,0,0-.12-.28.43.43,0,0,0-.26-.16.39.39,0,0,0-.32.11,1.14,1.14,0,0,0-.21.28,2.77,2.77,0,0,1-.42.68,1.06,1.06,0,0,1-1,.28,1.05,1.05,0,0,1-.75-.76,1.15,1.15,0,0,1,0-.49A1.15,1.15,0,0,0,26.57,10.85Z"/><path class="cls-7" d="M27.26,10.48a1,1,0,0,1,1-.22,1.1,1.1,0,0,1,.63.63c.44.89.94.88.94.88l2,.09-.28.92a1.15,1.15,0,0,0-1.06.5,1.11,1.11,0,0,1-.69.54c-1,.33-2.59-1.48-2.83-2.33A1,1,0,0,1,27.26,10.48Z"/><path class="cls-7" d="M26.51,11.46a.88.88,0,0,0,.46-.34l.05,0a.61.61,0,0,1,.85.88s-.25.39-1.08.27a.51.51,0,0,0-.52.14c-.16.24-.55,1.1-.55,1.1l-.25-.26A3,3,0,0,0,26,11.82C26,11.63,26.24,11.54,26.51,11.46Z"/><path class="cls-6" d="M25.75,13.62a.45.45,0,0,0,0-.16l-.25-.26a.35.35,0,0,0-.15.08.1.1,0,0,0,0,.14l.25.26A.1.1,0,0,0,25.75,13.62Z"/><path class="cls-6" d="M27.2,15.27a.52.52,0,0,0,0-.16l-.25-.26a.54.54,0,0,0-.15.08.1.1,0,0,0,0,.14l.25.27A.11.11,0,0,0,27.2,15.27Z"/><path class="cls-7" d="M28.68,12.75h0l0,0a.6.6,0,0,1,.85,0,.59.59,0,0,1,0,.84l-.13.1h0a10.15,10.15,0,0,0-1.18.44,3.61,3.61,0,0,0-1.06,1l-.25-.26Z"/><path class="cls-6" d="M30.22,12.23a1.1,1.1,0,0,1-.59.12.73.73,0,0,1-.51-.3.55.55,0,0,0,.5,0,1.13,1.13,0,0,0,.36-.36,1.43,1.43,0,0,1,.14-.2.67.67,0,0,1,.5-.26.52.52,0,0,1,.48.28A6.94,6.94,0,0,1,30.22,12.23Z"/><path class="cls-8" d="M31.4,11.69a.22.22,0,0,0-.21.11,1,1,0,0,0-.11.23,1.2,1.2,0,0,1-.16.27l-.19.19a.87.87,0,0,1-.33.17.65.65,0,0,1-.76-.41.64.64,0,0,0,.5-.09,1.37,1.37,0,0,0,.36-.36,4,4,0,0,1,.24-.33.69.69,0,0,1,.34-.23.6.6,0,0,1,.45.07.39.39,0,0,1,.17.14.28.28,0,0,1,.05.22Z"/><path class="cls-6" d="M24.94,3.08A1.42,1.42,0,0,1,25.64,5l.28.13a1.73,1.73,0,1,0-3.14-1.45l.28.13A1.41,1.41,0,0,1,24.94,3.08Z"/><path class="cls-8" d="M24.94,3.08a1.41,1.41,0,0,0-1.88.69l.28.13a1.11,1.11,0,0,1,2,.93l.28.13A1.42,1.42,0,0,0,24.94,3.08Z"/><path class="cls-9" d="M24.81,3.36a1.11,1.11,0,0,0-1.47.54l.29.13a.79.79,0,1,1,1.44.67l.29.13A1.11,1.11,0,0,0,24.81,3.36Z"/><path class="cls-7" d="M24.32,5.05a.51.51,0,0,0,.29.25,1.08,1.08,0,0,0,.47.07.24.24,0,0,0,.1.23.49.49,0,0,0,.26.1.32.32,0,0,0,.17,0,.14.14,0,0,0,.1-.13.48.48,0,0,0,.48,0,.46.46,0,0,0,.19-.42.51.51,0,0,0-.31-.39.65.65,0,0,0-.51,0,.26.26,0,0,0-.12-.3.41.41,0,0,0-.34,0,.33.33,0,0,0-.42-.16.29.29,0,0,0-.1.42S24.17,4.74,24.32,5.05Z"/><path class="cls-5" d="M25.36,5.47l-.1-.09a.34.34,0,0,1-.07-.19s0,0,0,0h0a1.3,1.3,0,0,1-.44,0L24.56,5a.36.36,0,0,1-.15-.31.22.22,0,0,0-.09.32.51.51,0,0,0,.29.25,1.08,1.08,0,0,0,.47.07.24.24,0,0,0,.1.23.49.49,0,0,0,.26.1.32.32,0,0,0,.17,0,.18.18,0,0,0,.08-.07A.87.87,0,0,1,25.36,5.47Z"/><path class="cls-9" d="M27.66,6.14a.6.6,0,0,1-.49,1,.58.58,0,0,1-.19,0,.6.6,0,1,0,.68-.92Z"/></g><g class="cls-10"><path class="cls-5" d="M31.07,22.36a.84.84,0,0,1,.1-.54.14.14,0,0,0,0-.06.59.59,0,1,0-1.12-.36s-.24.37.22,1a.48.48,0,0,1,.1.51,11.64,11.64,0,0,1-.72.95L30,24s.49-.87,1-1.06C31.14,22.89,31.11,22.63,31.07,22.36Z"/><path class="cls-6" d="M29.52,24a.46.46,0,0,1,.15-.05L30,24a.39.39,0,0,1,0,.16.09.09,0,0,1-.12.06l-.34-.11A.09.09,0,0,1,29.52,24Z"/><path class="cls-6" d="M27.61,23.44a.55.55,0,0,1,.15-.05l.34.11a.49.49,0,0,1,0,.16.1.1,0,0,1-.12.07l-.34-.11A.1.1,0,0,1,27.61,23.44Z"/><path class="cls-5" d="M29.17,21.08h0s0,0,0,0a.58.58,0,0,0-1.1-.35.4.4,0,0,0,0,.15h0a8.68,8.68,0,0,1,.12,1.22,3.34,3.34,0,0,1-.42,1.34l.34.11Z"/><path class="cls-7" d="M27.1,18.91l.09-.05a3,3,0,0,0,.61-.38.69.69,0,0,0,.11-.13h0a.57.57,0,0,1,1,.6.55.55,0,0,1-.79.19h0a.3.3,0,0,0-.13,0l-.25.08a1,1,0,0,1-.23.08.2.2,0,0,1-.21-.07c0-.07,0-.17-.12-.21l0,0A.08.08,0,0,1,27.1,18.91Z"/><path class="cls-8" d="M28,18.62l0,0h0s0,0,0,0h.11l0,0,0,0h0a.07.07,0,0,0,.09,0s0,0,0,0h0s0,0,0,0h0a0,0,0,0,0,0,0,.12.12,0,0,0,.06,0h-.09s0,0,0,0h0a.11.11,0,0,0,0,.07h-.06c0,.05,0,.08,0,.08h-.08s0,0,0,0H28v0h0v0h0Z"/><path class="cls-8" d="M27.27,18.93h0s0,0,0,0h0s0,0,0,0V19h0v0h.07Z"/><path class="cls-8" d="M28.41,18.59s0,0,0,0a0,0,0,0,1,0,0s0,0,0,0,0,0,0,0l0,0h0S28.4,18.6,28.41,18.59Z"/><path class="cls-8" d="M28.44,18.72s0,0,0,0a0,0,0,0,1,0,0h0s0,0,0,.06l-.07,0h0S28.43,18.74,28.44,18.72Z"/><path class="cls-7" d="M32.07,21.83a1,1,0,0,0-.25-1,1,1,0,0,0-.81-.27c-1,0-1.17-.45-1.17-.45l-.93-1.7-.68.64a1.12,1.12,0,0,1,0,1.13,1.18,1.18,0,0,0-.18.84c.15,1,2.39,1.61,3.23,1.46A1,1,0,0,0,32.07,21.83Z"/><path class="cls-6" d="M30,24.49a.37.37,0,0,1,.15,0l.34.1a.56.56,0,0,1,0,.17.1.1,0,0,1-.12.06L30,24.67A.1.1,0,0,1,30,24.49Z"/><path class="cls-6" d="M27.94,23.93a.34.34,0,0,1,.15,0l.33.11a.37.37,0,0,1,0,.16.09.09,0,0,1-.12.06L28,24.11A.1.1,0,0,1,27.94,23.93Z"/><path class="cls-7" d="M29.5,21.58h0l0,0a.58.58,0,0,0-.38-.73.57.57,0,0,0-.72.38.4.4,0,0,0,0,.15h0a10.55,10.55,0,0,1,.12,1.21,3.53,3.53,0,0,1-.42,1.35l.33.11Z"/><path class="cls-9" d="M28.13,18.23l-.25-.93a0,0,0,1,1,.06,0l.44.88A.24.24,0,0,1,28.13,18.23Z"/><path class="cls-6" d="M29.3,20a1.11,1.11,0,0,0,.14.56.69.69,0,0,0,.48.31.56.56,0,0,1-.19-.44,1.1,1.1,0,0,1,.16-.47l.12-.2a.66.66,0,0,0,0-.55.52.52,0,0,0-.45-.3A5.83,5.83,0,0,0,29.3,20Z"/><path class="cls-8" d="M29.26,18.76a.21.21,0,0,1,0,.23.7.7,0,0,1-.15.2,1.15,1.15,0,0,0-.25.49,1.1,1.1,0,0,0,0,.36.66.66,0,0,0,.25.38.71.71,0,0,0,.43.11.62.62,0,0,1-.13-.47,1.1,1.1,0,0,1,.16-.47c.06-.12.13-.23.18-.36a.59.59,0,0,0,.06-.39.64.64,0,0,0-.25-.36.5.5,0,0,0-.2-.08.27.27,0,0,0-.21.05Z"/><path class="cls-9" d="M28.55,18.26a.37.37,0,0,1,.28.11.33.33,0,0,1,.05.29,1.3,1.3,0,0,1-.22.46,1.74,1.74,0,0,0-.1.19.58.58,0,0,0,0,.43.65.65,0,0,0,.47.34.53.53,0,0,1-.11-.24.3.3,0,0,1,0-.16,1.29,1.29,0,0,1,.26-.49,1.54,1.54,0,0,0,.17-.19.6.6,0,0,0-.07-.64.68.68,0,0,0-.44-.3.24.24,0,0,0-.24.09Z"/><path class="cls-6" d="M28.44,18.18a.26.26,0,0,0-.08-.26.26.26,0,0,0-.28,0,.4.4,0,0,0-.18.22c0,.09,0,.18-.09.27a.56.56,0,0,1-.11.2s-.07.08-.12.07a.56.56,0,0,0,.54-.32C28.27,18,28.44,18.18,28.44,18.18Z"/><path class="cls-7" d="M28.56,18.34s.27-.12.19-.56a.46.46,0,0,0-.35.51Z"/><path class="cls-8" d="M28.58,18.31a.46.46,0,0,0,.1-.38s-.19,0-.27.32c0,0,0,0,0,0h0a0,0,0,0,1,0,0h0a0,0,0,0,0,0,0h0s0,0,0,0h0S28.57,18.32,28.58,18.31Z"/><path class="cls-6" d="M27.56,29.29a.54.54,0,0,0-.43.33c-.13.3-.46.87-1,.7s-.45-1-.35-1.32h0l0,.33a1.09,1.09,0,0,0,.08.47.43.43,0,0,0,.35.27.57.57,0,0,0,.48-.27A5,5,0,0,1,27,29.3a.73.73,0,0,1,.58-.27.91.91,0,0,1,.59.3.92.92,0,0,1,.25.44,1.35,1.35,0,0,1,0,.4C28.32,29.91,28.05,29.24,27.56,29.29Z"/><path class="cls-8" d="M26.13,30.32c.54.17.87-.4,1-.7a.54.54,0,0,1,.43-.33c.49-.05.76.62.84.88h0l-.1,0c0-.1-.18-.65-.58-.58a.41.41,0,0,0-.31.23c-.13.24-.44.76-.84.86a1.16,1.16,0,0,1-1.43-.84,1.16,1.16,0,0,1,.3-.54l.34-.33C25.68,29.34,25.51,30.12,26.13,30.32Z"/><path class="cls-9" d="M26.57,30.71c.4-.1.71-.62.84-.86a.41.41,0,0,1,.31-.23c.4-.07.56.48.58.58h0a.7.7,0,0,0-.12-.28.38.38,0,0,0-.58-.05,1.14,1.14,0,0,0-.21.28,3,3,0,0,1-.42.68,1.06,1.06,0,0,1-1,.28,1.08,1.08,0,0,1-.75-.76,1.16,1.16,0,0,1,0-.49A1.16,1.16,0,0,0,26.57,30.71Z"/><path class="cls-6" d="M24.94,22.93a1.42,1.42,0,0,1,.7,1.88l.28.13a1.73,1.73,0,0,0-3.14-1.44l.28.13A1.43,1.43,0,0,1,24.94,22.93Z"/><path class="cls-8" d="M24.94,22.93a1.43,1.43,0,0,0-1.88.7l.28.13a1.11,1.11,0,0,1,2,.92l.28.13A1.42,1.42,0,0,0,24.94,22.93Z"/><path class="cls-9" d="M24.81,23.22a1.1,1.1,0,0,0-1.47.54l.29.13a.79.79,0,1,1,1.44.66l.29.13A1.1,1.1,0,0,0,24.81,23.22Z"/><path class="cls-7" d="M24.32,24.91a.5.5,0,0,0,.29.24,1.09,1.09,0,0,0,.47.08.25.25,0,0,0,.1.23.59.59,0,0,0,.26.1.33.33,0,0,0,.17,0,.14.14,0,0,0,.1-.12.51.51,0,0,0,.48,0,.47.47,0,0,0,.19-.43.53.53,0,0,0-.31-.39.65.65,0,0,0-.51,0,.28.28,0,0,0-.12-.31.45.45,0,0,0-.34,0,.31.31,0,0,0-.42-.16.28.28,0,0,0-.1.41S24.17,24.59,24.32,24.91Z"/><path class="cls-5" d="M25.36,25.32a.28.28,0,0,1-.1-.09.31.31,0,0,1-.07-.18,0,0,0,0,0,0,0h0a1.61,1.61,0,0,1-.44-.05.53.53,0,0,1-.17-.08.34.34,0,0,1-.15-.3.22.22,0,0,0-.09.32.5.5,0,0,0,.29.24,1.09,1.09,0,0,0,.47.08.25.25,0,0,0,.1.23.59.59,0,0,0,.26.1.33.33,0,0,0,.17,0,.16.16,0,0,0,.08-.06A1.06,1.06,0,0,1,25.36,25.32Z"/><path class="cls-9" d="M27.66,26a.58.58,0,0,1,.11.34.6.6,0,0,1-.6.61.58.58,0,0,1-.19,0,.62.62,0,0,0,.5.26.6.6,0,0,0,.6-.61A.59.59,0,0,0,27.66,26Z"/><path class="cls-8" d="M25.57,18.81a.24.24,0,1,1-.23-.24A.23.23,0,0,1,25.57,18.81Z"/></g></g></g><path class="cls-11" d="M15,2.5A12.5,12.5,0,1,1,2.5,15,12.5,12.5,0,0,1,15,2.5M15,1A14,14,0,1,0,29,15,14,14,0,0,0,15,1Z"/><path d="M6.16,23.84A12.5,12.5,0,0,1,23.84,6.16Z"/><path class="cls-12" d="M6.16,23.84A12.5,12.5,0,0,0,23.84,6.16Z"/></svg>