<?xml version="1.0" encoding="UTF-8"?>
<svg id="Livello_1" data-name="Livello 1" xmlns="http://www.w3.org/2000/svg" xmlns:xlink="http://www.w3.org/1999/xlink" viewBox="0 0 30 30">
  <defs>
    <style>
      .cls-1 {
        clip-path: url(#clippath);
      }

      .cls-2 {
        fill: none;
      }

      .cls-2, .cls-3, .cls-4, .cls-5, .cls-6, .cls-7 {
        stroke-width: 0px;
      }

      .cls-8 {
        clip-path: url(#clippath-1);
      }

      .cls-4 {
        fill: #292d3e;
      }

      .cls-5 {
        fill: #384476;
      }

      .cls-6 {
        fill: #d1d1d1;
      }

      .cls-7 {
        fill: #fff;
      }
    </style>
    <clipPath id="clippath">
      <polygon class="cls-2" points="3.72 20.39 21 3 27 9 9 27 3 22 3.72 20.39"/>
    </clipPath>
    <clipPath id="clippath-1">
      <circle class="cls-2" cx="15" cy="15" r="12.5"/>
    </clipPath>
  </defs>
  <g class="cls-1">
    <g>
      <path class="cls-7" d="M8.27,3h1.27c.05.66.09,1.32.14,1.97.03.46.1.91.21,1.36.23.9.46,1.8.69,2.69.12.48.27.95.33,1.45.05.37.09.75.04,1.12-.04.28-.09.56-.15.84-.09.47-.21.94-.37,1.39-.22.6-.48,1.17-.79,1.72-.48.84-.96,1.69-1.52,2.49-.37.53-.72,1.07-1.07,1.61-.34.53-.66,1.07-.99,1.6-.59.94-.99,1.95-1.25,3.02-.21.88-.4,1.76-.6,2.64,0,.02,0,.04,0,.07.18.02,1.77.01,1.86,0,0-.04.02-.08.03-.11.13-.58.19-1.18.24-1.77.04-.54.12-1.08.23-1.61.12-.59.26-1.19.39-1.78.08-.39.22-.75.43-1.09.27-.45.55-.9.82-1.35.25-.43.53-.84.84-1.23.02-.03.04-.05.07-.08,0,0,.02,0,.02,0,0,.06-.01.13-.02.19-.03.26-.07.52-.08.79-.02.4,0,.8-.02,1.2,0,.27-.02.54-.04.8-.04.39-.09.79-.13,1.18-.05.42-.11.84-.24,1.25-.25.76-.43,1.54-.59,2.32-.07.34-.13.67-.2,1.01,0,.02-.02.05-.04.08-.02-.05-.03-.07-.03-.1-.05-.29-.08-.59-.06-.88.02-.32.04-.64.06-.96.03-.4.03-.81.11-1.2.07-.33.11-.67.16-1.01.05-.33.1-.66.14-1,.02-.12,0-.26-.03-.34-.02.06-.04.1-.06.15-.43,1.3-.8,2.62-1.03,3.98-.08.5-.11.99-.1,1.49,0,.02,0,.05,0,.07h2.75s.01-.04.01-.05c.09-.52.19-1.03.28-1.55.09-.53.14-1.07.12-1.61-.01-.52-.09-1.03-.15-1.54-.04-.37-.09-.75-.08-1.12.01-.5.01-.99.03-1.49,0-.34.02-.67.08-1,.11-.61.22-1.23.32-1.84.07-.44.2-.87.41-1.27.42-.81.83-1.62,1.25-2.43.28-.54.56-1.08.81-1.63.42-.93.82-1.87,1.23-2.8.28-.63.54-1.26.73-1.92.19-.66.42-1.31.57-1.98.09-.37.18-.75.21-1.13.02-.2.04-.4.06-.6h.84c-.01.23-.04.46-.04.69,0,.46,0,.91-.01,1.37,0,.28-.03.57-.12.84-.13.41-.22.83-.27,1.25-.04.42-.08.84-.12,1.25-.06.67-.11,1.34-.17,2.01-.03.3-.08.59-.18.87-.09.24-.16.48-.25.71-.22.6-.44,1.19-.67,1.78-.23.56-.53,1.07-.82,1.6-.44.8-.69,1.66-.73,2.58-.03.72,0,1.45.07,2.17.09.82.23,1.63.43,2.43.12.47.27.92.49,1.35.46.9.8,1.85.94,2.86.01.07.03.15.04.21h1c.03-.14.04-.28.02-.41-.04-.32-.09-.63-.14-.95-.06-.39-.13-.77-.13-1.17,0-.28,0-.55.03-.83.03-.44.1-.88.22-1.31.29-.96.58-1.93.87-2.89.19-.63.33-1.28.4-1.93.03-.29.06-.58.08-.87.04-.43.08-.85.11-1.28.02-.25.04-.49.04-.74,0-.35,0-.7-.03-1.05-.04-.5-.15-.98-.27-1.46-.16-.66-.3-1.32-.31-2-.01-.52-.04-1.03-.07-1.55-.02-.36,0-.73.07-1.09.08-.41.12-.83.11-1.25,0-.34-.04-.68-.07-1.02-.07-.72-.12-1.45-.11-2.18h1.08c-.03.18-.05.36-.08.55-.11.64-.12,1.29-.08,1.94.06.86.19,1.71.37,2.55.12.57.27,1.13.4,1.69.07.28.14.55.16.83.05.67.01,1.33-.03,2-.05.68-.1,1.36-.13,2.03-.03.69-.04,1.38-.06,2.07-.01.37-.02.74-.05,1.11-.02.23-.07.45-.1.68-.03.23-.04.47-.08.7-.08.47-.21.92-.34,1.37-.13.42-.31.8-.57,1.15-.41.55-.61,1.19-.66,1.87-.03.4-.02.8,0,1.2.03.46.08.91.2,1.36,0,.03.02.06.04.11.01-.05.02-.07.02-.09,0-.08,0-.17,0-.25-.02-.32-.05-.64-.06-.96-.02-.62.05-1.23.22-1.83.15-.52.4-.97.8-1.34.37-.34.66-.74.85-1.21.26-.62.51-1.23.77-1.85.03-.08.05-.16.07-.24.09-.44.18-.89.27-1.33.09-.46.17-.93.34-1.37.14-.37.22-.75.28-1.14.05-.28.07-.56.14-.83.12-.49.25-.98.38-1.46.17-.62.31-1.24.4-1.87.08-.52.16-1.03.26-1.55.14-.71.37-1.39.74-2.02.17-.29.32-.59.44-.91.16-.43.34-.86.5-1.3.21-.56.42-1.13.62-1.7h.82s-.02.05-.02.08c-.21.72-.36,1.45-.5,2.18-.04.22-.07.44-.16.64-.19.46-.41.92-.63,1.37-.2.41-.39.82-.53,1.25-.14.45-.26.91-.28,1.38-.02.45-.03.89-.05,1.34,0,.06,0,.11.02.19.06-.05.06-.11.06-.15.06-.4.11-.8.17-1.2.09-.55.26-1.08.54-1.57.52-.92,1.09-1.82,1.69-2.69.44-.63.8-1.3,1.04-2.03.09-.27.17-.53.26-.8h.84c-.02.05-.04.1-.06.15-.12.2-.24.4-.36.6-.59.97-1.13,1.96-1.58,3-.24.56-.48,1.12-.66,1.7-.19.6-.3,1.22-.39,1.85-.09.69-.16,1.38-.15,2.08,0,.48.01.96.01,1.44,0,.61-.06,1.22-.19,1.82-.11.52-.24,1.04-.35,1.56-.09.45-.17.9-.24,1.34-.03.2-.03.42-.07.62-.11.56-.28,1.1-.54,1.61-.48.96-.97,1.91-1.46,2.86-.19.37-.39.74-.52,1.14-.08.25-.15.51-.22.76-.1.36-.21.72-.31,1.08-.03.11-.04.23-.06.35.14.03.65.02.74,0,.02-.11.04-.22.05-.33.05-.35.15-.69.31-1,.2-.39.47-.74.77-1.05.39-.42.77-.84,1.11-1.31.42-.57.78-1.17.99-1.85.14-.43.24-.87.37-1.3.33-1.15.52-2.32.6-3.51.03-.36.06-.72.09-1.08.02-.27.04-.54.05-.81.01-.37-.02-.74-.06-1.11-.04-.38-.07-.76-.11-1.15-.04-.34-.05-.67,0-1,.06-.43.13-.86.22-1.29.11-.5.26-.99.39-1.48.28-1.01.59-2.02,1.01-2.98.02-.05.05-.1.07-.15,0,0,.02,0,.02,0-.01.04-.02.09-.04.13-.07.24-.15.49-.22.73-.09.32-.19.64-.23.97-.06.46-.05.92-.06,1.38-.02.54-.02,1.07-.03,1.61,0,.48.03.96.11,1.43.07.44.19.87.31,1.3.12.4.18.8.15,1.22-.03.39-.09.78-.18,1.16-.13.57-.32,1.12-.52,1.67-.1.28-.18.56-.21.86-.03.25-.05.51-.06.76-.02.36-.03.71,0,1.07.03.27.06.55.08.82.02.43.04.86.04,1.29,0,.45.06.9.11,1.35.04.38.07.76.04,1.15-.02.2-.01.41-.02.61,0,.18,0,.35-.02.53-.05.41-.08.81-.08,1.22,0,.05,0,.1,0,.15h.66c.01-.05.02-.1.03-.15.05-.24.08-.47.14-.71.19-.71.49-1.37,1-1.91.34-.36.62-.77.87-1.2.31-.55.52-1.13.65-1.75.06-.28.03-.56,0-.85-.02-.18-.04-.37-.04-.55,0-.49-.03-.98-.11-1.47-.1-.62-.21-1.24-.32-1.87-.08-.46-.19-.91-.38-1.33-.16-.36-.3-.74-.42-1.12-.19-.61-.36-1.23-.43-1.87-.06-.53-.15-1.06-.25-1.59-.08-.41-.13-.82-.15-1.24,0-.24,0-.47-.01-.71,0-.22,0-.45,0-.67,0-.48.07-.96.15-1.43.12-.75.33-1.47.57-2.19.16-.48.36-.94.6-1.38h1.37c-.19.38-.39.76-.57,1.15-.31.65-.54,1.33-.73,2.03-.1.36-.17.72-.19,1.1-.02.51,0,1.02.04,1.52.04.66.15,1.3.29,1.94.26,1.14.52,2.27.78,3.41.12.54.24,1.08.43,1.6.11.3.21.6.27.92.04.2.07.41.12.61.18.89.3,1.78.26,2.69-.02.4-.05.81-.1,1.21-.05.45-.14.9-.2,1.35-.09.6-.25,1.19-.5,1.75-.15.34-.31.67-.47,1.01-.24.51-.48,1.02-.65,1.56-.01.04-.03.09-.04.14h.16c.02-.06.04-.11.06-.16.14-.32.26-.65.41-.97.18-.38.38-.75.57-1.12.35-.72.65-1.47.86-2.25.13-.47.21-.95.29-1.43.1-.54.15-1.09.15-1.65,0-.17,0-.34,0-.52,0-.39.02-.77.02-1.16,0-.46-.05-.91-.13-1.36-.15-.85-.32-1.69-.48-2.54-.09-.5-.16-.99-.23-1.49-.05-.39-.09-.79-.13-1.18-.06-.58-.1-1.16-.11-1.75,0-.56,0-1.11.02-1.67,0-.22.02-.45.04-.67.05-.53.15-1.06.25-1.59.17-.85.42-1.68.79-2.47h1.32s-.02.08-.04.13c-.08.22-.17.43-.23.66-.13.47-.24.95-.36,1.43-.13.5-.23,1.01-.29,1.53-.05.44-.12.87-.19,1.31-.05.33-.12.65-.16.98-.06.48-.1.97-.16,1.45-.06.49-.03.96.07,1.44.18.85.3,1.7.37,2.56.04.57.09,1.13.13,1.7.04.68.09,1.36.11,2.05.03.83,0,1.66-.08,2.49-.1.86-.25,1.71-.47,2.54-.33,1.25-.82,2.44-1.26,3.65,0,.02-.01.04-.02.06.02,0,.03,0,.04,0,.59,0,1.18,0,1.78,0,.07,0,.1-.03.13-.08.23-.36.39-.74.51-1.14.18-.59.25-1.2.31-1.82.05-.42.08-.84.15-1.25.12-.7.27-1.4.41-2.09.06-.32.13-.63.18-.95.04-.23.05-.47.08-.7.06-.5.17-.98.28-1.47.11-.48.25-.95.49-1.38.2-.36.4-.71.6-1.07.13-.24.23-.49.3-.75.11-.41.12-.82.14-1.24.02-.48.03-.96.05-1.44.02-.48.02-.96-.04-1.44-.03-.23-.03-.46-.02-.69,0-.32.04-.63.06-.95.03-.41.06-.83.1-1.24.05-.51.1-1.01.16-1.51.07-.55.15-1.09.24-1.64.07-.38.17-.75.26-1.12h.82c-.1.52-.19,1.04-.24,1.56-.05.61-.1,1.21-.15,1.82-.06.76-.09,1.52-.09,2.29,0,.57.03,1.14.05,1.71.01.34.06.69.06,1.03,0,.53-.03,1.05-.05,1.58,0,.05-.01.1-.03.15-.18.68-.39,1.35-.68,2-.16.36-.34.71-.51,1.07-.25.53-.44,1.08-.63,1.63-.15.44-.28.88-.39,1.34-.17.75-.22,1.51-.31,2.27-.03.29-.08.59-.12.88-.04.3-.1.6-.12.9-.04.56-.13,1.11-.3,1.65-.21.67-.43,1.34-.65,2.01,0,.03-.01.06-.02.09h1.72s.02-.06.03-.08c.2-.67.4-1.34.6-2.01.15-.51.24-1.03.25-1.56,0-.19,0-.38,0-.58.02-.66.12-1.3.25-1.95.09-.46.17-.91.25-1.37.06-.32.09-.64.16-.96.13-.67.31-1.33.5-1.99.19-.66.4-1.31.5-2,.07-.49.13-.99.14-1.49,0-.78-.1-1.55-.18-2.33-.04-.35-.07-.7-.08-1.05-.02-.62-.01-1.23-.02-1.85,0-.18,0-.35-.01-.53-.01-.35-.03-.7-.04-1.05,0-.45,0-.9.06-1.35.04-.29.09-.58.14-.88,0-.02.02-.03.04-.07.02.41.04.8.05,1.19,0,.5.06.99.2,1.47.12.44.25.88.38,1.31.18.62.36,1.25.46,1.9.12.7.24,1.39.35,2.09.03.15.06.31.08.46.04.27.01.53-.07.78-.18.53-.23,1.08-.26,1.64-.02.5-.05,1-.08,1.5-.01.22-.05.44-.11.66-.24.88-.48,1.76-.71,2.64-.19.7-.4,1.38-.67,2.05-.11.29-.23.57-.33.86-.12.39-.18.79-.23,1.2-.05.4-.12.81-.17,1.21-.03.28-.05.56-.04.84,0,.31.05.63.08.94.01.11.03.23.04.34.16.02,1.85.02,1.95-.01.02-.28.05-.57.06-.85.01-.62-.08-1.24-.18-1.85-.06-.35-.11-.7-.12-1.05-.03-.69.04-1.37.21-2.05.13-.53.28-1.05.43-1.57.08-.28.14-.56.23-.83.04-.14.06-.28.06-.42,0-4.08,0-8.17,0-12.25,0-.11-.02-.2-.05-.3-.14-.41-.28-.81-.4-1.22-.15-.51-.26-1.02-.21-1.56h.7c0,8,0,16,0,24H-4.02v-.93s.02-.03.02-.05c.07-.22.12-.45.2-.67.19-.5.4-1,.61-1.5.56-1.34,1.29-2.58,2.02-3.82.16-.27.31-.54.43-.83.48-1.11,1.01-2.19,1.67-3.21.08-.12.14-.24.19-.37.4-.86.75-1.74,1.03-2.65.35-1.12.71-2.23.97-3.37,0-.02.02-.04.03-.06.04.09.06.18.08.28.06.31.13.63.18.94.07.5.02,1-.08,1.49-.11.53-.24,1.05-.38,1.57-.11.45-.27.89-.49,1.3-.85,1.52-1.75,3.01-2.67,4.48-.37.6-.73,1.2-1.03,1.84-.33.71-.62,1.43-.78,2.2-.09.44-.17.88-.25,1.32-.05.27-.11.55-.14.83-.03.36-.02.73-.03,1.09,0,.03,0,.06,0,.09.16.02,1.91.02,2,0,0-.2,0-.41.01-.62,0-.35.01-.71.09-1.05.14-.6.27-1.21.44-1.81.17-.59.36-1.18.56-1.76.25-.75.52-1.49.85-2.21.55-1.2,1.06-2.41,1.56-3.64.22-.55.42-1.1.54-1.69.1-.5.19-1,.3-1.5.11-.53.15-1.06.12-1.6-.02-.34-.05-.68-.12-1.01-.12-.52-.3-1.02-.53-1.5-.46-.98-.88-1.98-1.25-3-.25-.68-.48-1.37-.62-2.09-.03-.16-.06-.32-.08-.48h.58s.02.04.03.07c.23.87.59,1.69,1.08,2.45.29.44.56.9.81,1.36.28.52.54,1.05.8,1.58.14.28.25.56.32.86.03.13.06.26.09.38.16.59.23,1.18.24,1.79.01.39-.01.78-.07,1.17-.08.55-.17,1.11-.3,1.65-.21.84-.52,1.65-.89,2.43-.36.74-.73,1.47-1.09,2.2-.53,1.06-1.01,2.15-1.43,3.26-.38,1.01-.74,2.02-1.03,3.06-.14.51-.25,1.02-.27,1.56,0,.05,0,.11,0,.16h1.88s0-.05.01-.08c.03-.2.04-.4.09-.59.14-.62.29-1.24.45-1.85.34-1.28.76-2.54,1.17-3.8.17-.51.32-1.02.56-1.5.06-.12.12-.24.17-.36.17-.42.33-.85.49-1.28.25-.66.5-1.33.68-2.02.18-.72.37-1.43.5-2.16.08-.46.14-.92.22-1.39.11-.64.17-1.28.17-1.92,0-.49,0-.98-.02-1.48-.01-.53-.03-1.06-.05-1.59-.02-.37-.04-.74-.08-1.11-.04-.41-.1-.81-.15-1.21-.07-.55-.19-1.09-.34-1.63h.89c-.01.1-.03.21-.04.31-.03.25-.06.49-.04.74.02.24.03.49.06.73.04.36.09.71.16,1.07.07.37.18.74.27,1.11.19.81.38,1.63.58,2.44.15.63.31,1.27.36,1.92.06.7.03,1.39-.09,2.08-.1.55-.27,1.08-.51,1.58-.43.92-.86,1.83-1.3,2.74-.65,1.34-1.29,2.69-1.89,4.05-.2.47-.42.93-.61,1.41-.25.63-.39,1.28-.55,1.94-.14.56-.23,1.14-.34,1.7-.01.05-.02.11-.02.16h.24s.02-.07.02-.1c.04-.19.08-.38.13-.57.11-.38.24-.75.35-1.13.36-1.19.79-2.36,1.31-3.49.25-.55.53-1.07.8-1.61.39-.78.82-1.54,1.29-2.29.4-.64.8-1.29,1.18-1.93.29-.48.54-.98.75-1.5.26-.65.42-1.32.55-2,.07-.38.14-.76.14-1.15,0-.28-.01-.56-.03-.84-.02-.38-.06-.76-.13-1.13-.1-.52-.24-1.03-.38-1.53-.19-.68-.39-1.36-.57-2.04-.17-.65-.28-1.31-.34-1.97-.02-.23-.02-.45-.03-.68ZM14.73,9.08s-.03.08-.04.12c-.14.44-.28.88-.41,1.33-.14.46-.29.92-.53,1.35-.13.22-.24.45-.36.68-.28.56-.58,1.1-.93,1.62-.23.35-.43.72-.6,1.1-.31.7-.52,1.44-.58,2.2-.04.54-.06,1.08-.08,1.62-.01.39-.02.78-.02,1.16,0,.54.03,1.08.04,1.62,0,.26,0,.52.02.78,0,.24.04.49.03.73,0,.52-.03,1.05-.04,1.57-.01.52,0,1.03.05,1.55.02.15.04.31.06.46h2.09s0-.05,0-.06c-.02-.22-.03-.44-.06-.66-.05-.34-.1-.68-.16-1.02-.07-.41-.11-.83-.26-1.23-.02-.04-.02-.09-.03-.14-.03-.23-.06-.45-.1-.68-.1-.52-.21-1.04-.31-1.56-.12-.57-.24-1.13-.35-1.7-.08-.4-.13-.8-.2-1.21-.05-.31-.06-.61,0-.92.15-.83.37-1.64.68-2.42.25-.62.56-1.21.87-1.8.33-.62.62-1.26.82-1.94.14-.48.24-.97.33-1.46.06-.36.1-.73.07-1.1ZM18.86,26.97c.02-.09.03-.18.04-.27.08-.48.15-.96.24-1.43.12-.62.34-1.21.66-1.76.26-.44.5-.89.74-1.33.32-.59.61-1.2.81-1.84.11-.36.22-.71.37-1.05.34-.82.55-1.67.6-2.56.05-.83.09-1.67.13-2.5.03-.56.03-1.13,0-1.69,0-.04,0-.08,0-.12-.01,0-.02,0-.03,0-.01.1-.02.21-.04.31-.05.39-.09.78-.14,1.17-.04.26-.09.53-.13.79-.03.2-.04.4-.08.59-.09.47-.18.93-.28,1.4-.11.51-.23,1.02-.47,1.49-.25.5-.52.99-.83,1.46-.26.4-.58.77-.89,1.13-.47.56-.94,1.11-1.45,1.63-.32.32-.48.73-.52,1.19-.03.3.02.6.1.89.11.39.17.78.18,1.18,0,.33-.02.66-.03.99,0,.1,0,.2,0,.31h1ZM24.54,26.98s.02-.02.02-.03c.14-.52.29-1.03.41-1.55.13-.53.16-1.07.14-1.62-.01-.28-.03-.57-.03-.85,0-.27,0-.54,0-.82,0-.02,0-.05,0-.07,0,0-.02,0-.02,0-.01.04-.03.09-.03.13-.09.43-.18.87-.27,1.3-.06.3-.14.6-.27.88-.15.33-.36.62-.6.9-.2.23-.39.48-.55.74-.19.3-.31.64-.44.97,0,0,0,.01.01.02h1.65ZM38.61,20.8s-.02,0-.03,0c-.03.08-.07.15-.09.23-.23.71-.28,1.45-.21,2.19.04.43.12.86.21,1.29.03.17.07.33.11.49,0,0,.01,0,.02,0v-4.19Z"/>
      <path class="cls-3" d="M28.41,3c-.24.44-.44.91-.6,1.38-.24.72-.45,1.44-.57,2.19-.08.47-.14.95-.15,1.43,0,.22,0,.45,0,.67,0,.24,0,.47.01.71.02.42.07.83.15,1.24.11.53.19,1.05.25,1.59.07.64.24,1.25.43,1.87.12.38.26.76.42,1.12.19.43.3.87.38,1.33.11.62.22,1.24.32,1.87.08.49.11.98.11,1.47,0,.18.02.37.04.55.03.28.06.57,0,.85-.13.61-.33,1.2-.65,1.75-.25.43-.53.84-.87,1.2-.52.54-.81,1.2-1,1.91-.06.23-.09.47-.14.71,0,.05-.02.09-.03.15h-.66s0-.1,0-.15c0-.41.03-.81.08-1.22.02-.17.02-.35.02-.53,0-.2,0-.41.02-.61.04-.39,0-.77-.04-1.15-.05-.45-.1-.9-.11-1.35,0-.43-.02-.86-.04-1.29-.01-.28-.05-.55-.08-.82-.03-.36-.03-.71,0-1.07.01-.26.03-.51.06-.76.03-.3.11-.58.21-.86.2-.55.39-1.1.52-1.67.09-.38.15-.77.18-1.16.03-.42-.03-.82-.15-1.22-.12-.43-.24-.86-.31-1.3-.08-.47-.12-.95-.11-1.43.01-.54.01-1.07.03-1.61.01-.46,0-.92.06-1.38.04-.33.13-.65.23-.97.07-.25.15-.49.22-.73.01-.04.02-.09.04-.13,0,0-.02,0-.02,0-.02.05-.05.1-.07.15-.42.97-.73,1.97-1.01,2.98-.14.49-.28.98-.39,1.48-.1.42-.16.86-.22,1.29-.05.33-.03.67,0,1,.04.38.07.76.11,1.15.04.37.08.74.06,1.11,0,.27-.03.54-.05.81-.03.36-.06.72-.09,1.08-.08,1.19-.27,2.36-.6,3.51-.13.43-.23.87-.37,1.3-.22.68-.58,1.28-.99,1.85-.34.46-.72.89-1.11,1.31-.3.32-.57.66-.77,1.05-.16.32-.26.65-.31,1-.01.11-.03.22-.05.33-.09.03-.6.03-.74,0,.02-.12.03-.24.06-.35.1-.36.2-.72.31-1.08.07-.25.14-.51.22-.76.13-.4.33-.77.52-1.14.49-.95.98-1.91,1.46-2.86.26-.51.43-1.05.54-1.61.04-.2.04-.41.07-.62.07-.45.15-.9.24-1.34.11-.52.24-1.03.35-1.56.12-.6.19-1.21.19-1.82,0-.48,0-.96-.01-1.44,0-.7.05-1.39.15-2.08.09-.63.2-1.25.39-1.85.19-.58.42-1.14.66-1.7.45-1.04.99-2.03,1.58-3,.12-.2.24-.4.36-.6.03-.05.04-.1.06-.15h1.2ZM26.94,15.5s-.02,0-.03,0c-.02.11-.05.22-.06.33-.05.47-.13.93-.24,1.38-.19.76-.34,1.52-.38,2.3-.02.45,0,.9.05,1.35.04.32.09.65.13.97.04.28.07.56.12.83.08.43.15.85.14,1.28,0,.02,0,.03.02.07.02-.04.04-.06.05-.08.09-.15.18-.31.28-.46.1-.16.22-.31.33-.46.31-.42.55-.86.64-1.38.04-.23.1-.46.07-.69-.03-.32-.08-.63-.12-.95-.07-.51-.14-1.01-.2-1.52-.06-.5-.15-.99-.34-1.46-.14-.37-.26-.75-.35-1.13-.03-.14-.07-.27-.11-.4Z"/>
      <path class="cls-3" d="M15.59,3c-.02.2-.05.4-.06.6-.03.38-.12.76-.21,1.13-.16.67-.38,1.32-.57,1.98-.19.66-.46,1.3-.73,1.92-.41.93-.81,1.87-1.23,2.8-.25.55-.54,1.09-.81,1.63-.41.81-.83,1.62-1.25,2.43-.21.4-.33.83-.41,1.27-.1.61-.22,1.23-.32,1.84-.06.33-.07.67-.08,1-.01.5-.02.99-.03,1.49,0,.38.04.75.08,1.12.06.51.14,1.02.15,1.54.01.54-.04,1.08-.12,1.61-.08.52-.18,1.03-.28,1.55,0,.02,0,.03-.01.05h-2.75s0-.05,0-.07c0-.5.02-1,.1-1.49.22-1.36.59-2.67,1.03-3.98.02-.05.04-.1.06-.15.03.08.05.22.03.34-.04.33-.09.67-.14,1-.05.34-.09.67-.16,1.01-.08.4-.09.8-.11,1.2-.02.32-.04.64-.06.96-.02.3.01.59.06.88,0,.03.02.05.03.1.02-.04.03-.06.04-.08.07-.34.14-.67.2-1.01.15-.79.34-1.56.59-2.32.13-.41.19-.82.24-1.25.04-.39.09-.79.13-1.18.02-.27.04-.53.04-.8.01-.4,0-.8.02-1.2.01-.26.05-.52.08-.79,0-.06.01-.13.02-.19,0,0-.02,0-.02,0-.02.03-.04.05-.07.08-.31.39-.59.8-.84,1.23-.27.45-.55.9-.82,1.35-.21.34-.34.7-.43,1.09-.13.59-.26,1.19-.39,1.78-.11.53-.19,1.07-.23,1.61-.05.59-.1,1.19-.24,1.77,0,.04-.02.08-.03.11-.09.02-1.68.03-1.86,0,0-.02,0-.05,0-.07.2-.88.38-1.76.6-2.64.26-1.07.66-2.08,1.25-3.02.33-.53.65-1.07.99-1.6.35-.54.7-1.08,1.07-1.61.55-.8,1.04-1.64,1.52-2.49.31-.55.58-1.12.79-1.72.16-.45.28-.92.37-1.39.05-.28.11-.56.15-.84.05-.38.01-.75-.04-1.12-.07-.49-.21-.97-.33-1.45-.23-.9-.46-1.8-.69-2.69-.11-.45-.18-.9-.21-1.36-.05-.66-.09-1.32-.14-1.97h2.06c0,.07,0,.14.01.2.01.12.02.24.04.36.04.38.09.76.14,1.14.04.32.09.64.08.97-.02.7-.05,1.39-.06,2.09,0,.48.02.97.04,1.45,0,.16.02.32,0,.48-.02.28-.04.57-.07.85-.04.34-.08.68-.13,1.01-.09.58-.23,1.16-.39,1.73,0,.03-.02.07-.02.1,0,0,.02,0,.03,0,.02-.04.03-.07.05-.11.12-.31.24-.61.36-.92.2-.53.4-1.05.6-1.58.2-.54.32-1.1.45-1.65.19-.81.36-1.63.59-2.44.3-1.07.48-2.15.49-3.26,0-.14.02-.29.02-.43h1.78Z"/>
      <path class="cls-3" d="M1.43,3c.03.16.05.32.08.48.14.72.37,1.41.62,2.09.37,1.02.79,2.02,1.25,3,.22.48.41.98.53,1.5.07.33.1.67.12,1.01.03.54-.01,1.07-.12,1.6-.1.5-.2,1-.3,1.5-.11.58-.31,1.14-.54,1.69-.5,1.22-1.01,2.44-1.56,3.64-.33.72-.6,1.46-.85,2.21-.19.58-.39,1.17-.56,1.76-.17.6-.3,1.2-.44,1.81-.08.34-.08.7-.09,1.05,0,.21,0,.41-.01.62-.09.03-1.84.03-2,0,0-.03,0-.06,0-.09,0-.36,0-.73.03-1.09.02-.28.09-.55.14-.83.08-.44.16-.88.25-1.32.16-.77.45-1.49.78-2.2.3-.64.66-1.24,1.03-1.84.92-1.48,1.82-2.97,2.67-4.48.23-.41.38-.85.49-1.3.13-.52.26-1.05.38-1.57.11-.49.15-.99.08-1.49-.04-.32-.12-.63-.18-.94-.02-.09-.04-.18-.08-.28,0,.02-.02.04-.03.06-.27,1.14-.62,2.26-.97,3.37-.28.91-.63,1.78-1.03,2.65-.06.13-.12.25-.19.37-.66,1.02-1.19,2.1-1.67,3.21-.12.29-.27.56-.43.83-.74,1.24-1.47,2.49-2.02,3.82-.21.5-.41,1-.61,1.5-.08.22-.13.44-.2.67,0,.02-.02.03-.02.05v-4.51s.02-.02.02-.03c.12-.36.23-.72.36-1.07.41-1.04.96-1.98,1.78-2.76.18-.17.33-.37.46-.58.34-.59.7-1.17,1.02-1.76.43-.78.87-1.55,1.39-2.28.51-.71.91-1.47,1.22-2.29.19-.5.3-1.02.3-1.56,0-.3-.04-.6-.08-.89-.03-.2-.04-.41-.08-.61-.09-.48-.3-.92-.52-1.35-.29-.56-.59-1.12-.88-1.69-.28-.54-.48-1.1-.59-1.69h1.06Z"/>
      <path class="cls-3" d="M36.04,3c-.09.37-.19.74-.26,1.12-.1.54-.17,1.09-.24,1.64-.06.5-.11,1.01-.16,1.51-.04.41-.07.83-.1,1.24-.02.31-.05.63-.06.95,0,.23,0,.47.02.69.06.48.07.96.04,1.44-.02.48-.03.96-.05,1.44-.02.41-.04.83-.14,1.24-.07.26-.17.52-.3.75-.2.36-.4.71-.6,1.07-.24.43-.38.9-.49,1.38-.11.49-.22.98-.28,1.47-.03.23-.04.47-.08.7-.05.32-.12.64-.18.95-.14.7-.29,1.39-.41,2.09-.07.41-.11.83-.15,1.25-.07.61-.13,1.22-.31,1.82-.12.4-.29.79-.51,1.14-.03.05-.06.08-.13.08-.59,0-1.18,0-1.78,0-.01,0-.02,0-.04,0,0-.02,0-.04.02-.06.44-1.21.93-2.4,1.26-3.65.22-.84.38-1.68.47-2.54.09-.83.11-1.66.08-2.49-.02-.68-.07-1.37-.11-2.05-.04-.57-.08-1.13-.13-1.7-.07-.86-.19-1.72-.37-2.56-.1-.48-.13-.96-.07-1.44.06-.48.1-.97.16-1.45.04-.33.11-.65.16-.98.07-.43.13-.87.19-1.31.06-.52.17-1.02.29-1.53.12-.48.23-.96.36-1.43.06-.22.15-.44.23-.66.01-.04.03-.08.04-.13h.24c-.03.13-.05.26-.08.39-.12.53-.23,1.05-.27,1.59-.04.51-.09,1.02-.13,1.53-.05.63-.06,1.26-.07,1.89,0,.75.09,1.49.11,2.24,0,.22.05.44.09.65.09.55.17,1.1.28,1.64.12.57.27,1.13.4,1.69.07.3.14.59.12.9,0,.2-.03.39-.04.59,0,.02,0,.05,0,.08.02-.02.02-.02.03-.03.01-.03.02-.05.03-.08.19-.5.42-.98.7-1.43.09-.14.17-.29.24-.44.31-.66.39-1.37.35-2.08-.02-.48-.07-.96-.11-1.43-.03-.34-.06-.68-.09-1.03-.03-.37-.06-.74-.07-1.11-.03-.81.01-1.61.06-2.42.04-.76.13-1.51.3-2.24.07-.3.16-.59.24-.89h1.32Z"/>
      <path class="cls-3" d="M16.84,3c0,.73.04,1.45.11,2.18.03.34.06.68.07,1.02.01.42-.03.84-.11,1.25-.07.36-.08.72-.07,1.09.03.51.06,1.03.07,1.55.02.68.15,1.34.31,2,.12.48.23.97.27,1.46.03.35.03.7.03,1.05,0,.25-.02.5-.04.74-.03.43-.07.85-.11,1.28-.03.29-.05.58-.08.87-.07.66-.21,1.3-.4,1.93-.29.96-.58,1.93-.87,2.89-.13.43-.2.86-.22,1.31-.02.28-.02.55-.03.83,0,.39.07.78.13,1.17.05.32.1.63.14.95.02.13,0,.27-.02.41h-1c-.01-.07-.03-.14-.04-.21-.15-1.01-.48-1.95-.94-2.86-.22-.43-.38-.88-.49-1.35-.2-.8-.35-1.61-.43-2.43-.08-.72-.1-1.44-.07-2.17.03-.92.28-1.78.73-2.58.29-.53.6-1.04.82-1.6.24-.59.45-1.19.67-1.78.09-.24.16-.48.25-.71.11-.28.16-.57.18-.87.06-.67.11-1.34.17-2.01.04-.42.08-.84.12-1.25.04-.43.13-.84.27-1.25.09-.27.11-.56.12-.84,0-.46,0-.91.01-1.37,0-.23.03-.46.04-.69h.41ZM16,12.11s-.02,0-.02,0c-.01.11-.02.22-.04.33-.07.47-.13.94-.21,1.41-.08.53-.17,1.07-.27,1.59-.15.79-.38,1.55-.6,2.32-.22.79-.46,1.57-.62,2.38-.08.42-.15.84-.14,1.27,0,.39.07.78.14,1.16.15.77.42,1.51.72,2.23,0,.02.02.03.05.08,0-.07,0-.11,0-.14,0-.18,0-.36,0-.54.01-.26.03-.51.06-.76.06-.4.13-.79.2-1.18.16-.81.32-1.62.49-2.43.09-.43.19-.87.22-1.31.03-.51.05-1.01.06-1.52.02-.44.02-.89.04-1.33.02-.48.05-.97.06-1.45.02-.61-.03-1.22-.12-1.83-.01-.09-.03-.19-.04-.28Z"/>
      <path class="cls-3" d="M6.06,3c.15.54.27,1.08.34,1.63.05.4.11.81.15,1.21.04.37.06.74.08,1.11.02.53.04,1.06.05,1.59.01.49.02.98.02,1.48,0,.64-.06,1.28-.17,1.92-.08.46-.14.92-.22,1.39-.13.73-.32,1.44-.5,2.16-.17.69-.42,1.36-.68,2.02-.16.43-.32.85-.49,1.28-.05.12-.11.24-.17.36-.25.48-.4.99-.56,1.5-.41,1.26-.84,2.52-1.17,3.8-.16.61-.31,1.23-.45,1.85-.05.19-.06.4-.09.59,0,.02,0,.05-.01.08H.31c0-.05,0-.11,0-.16.01-.53.13-1.04.27-1.56.28-1.04.65-2.05,1.03-3.06.42-1.11.89-2.2,1.43-3.26.37-.73.74-1.46,1.09-2.2.38-.78.68-1.59.89-2.43.14-.54.23-1.09.3-1.65.05-.39.08-.78.07-1.17-.02-.61-.09-1.2-.24-1.79-.03-.13-.07-.26-.09-.38-.07-.3-.18-.59-.32-.86-.27-.53-.52-1.06-.8-1.58-.25-.46-.52-.92-.81-1.36-.49-.76-.85-1.57-1.08-2.45,0-.02-.02-.04-.03-.07h.82c.2.57.5,1.1.86,1.58.31.42.62.84.88,1.29.29.51.57,1.02.86,1.52.19.34.33.7.41,1.08,0,.04.02.07.04.14,0-.04.01-.06.02-.07.01-.56,0-1.13-.09-1.69-.11-.72-.25-1.43-.42-2.14-.14-.58-.31-1.16-.53-1.72h1.22Z"/>
      <path class="cls-3" d="M23.94,3c-.21.57-.41,1.13-.62,1.7-.16.43-.33.86-.5,1.3-.12.31-.27.62-.44.91-.37.63-.6,1.31-.74,2.02-.1.51-.18,1.03-.26,1.55-.09.63-.23,1.26-.4,1.87-.13.49-.26.97-.38,1.46-.06.27-.09.55-.14.83-.06.39-.15.77-.28,1.14-.16.44-.25.91-.34,1.37-.09.44-.18.89-.27,1.33-.02.08-.04.16-.07.24-.25.62-.51,1.23-.77,1.85-.19.47-.48.87-.85,1.21-.41.37-.66.82-.8,1.34-.17.6-.24,1.21-.22,1.83.01.32.04.64.06.96,0,.08,0,.17,0,.25,0,.02-.01.04-.02.09-.02-.06-.04-.08-.04-.11-.11-.45-.17-.9-.2-1.36-.02-.4-.03-.8,0-1.2.04-.69.25-1.32.66-1.87.26-.35.44-.74.57-1.15.14-.45.27-.91.34-1.37.04-.23.05-.47.08-.7.03-.23.08-.45.1-.68.03-.37.04-.74.05-1.11.02-.69.02-1.38.06-2.07.03-.68.09-1.36.13-2.03.04-.67.08-1.33.03-2-.02-.28-.09-.56-.16-.83-.13-.56-.28-1.12-.4-1.69-.18-.84-.32-1.69-.37-2.55-.04-.65-.03-1.29.08-1.94.03-.18.05-.36.08-.55h2.06c-.12.41-.25.82-.37,1.23-.29.94-.53,1.88-.57,2.87-.01.33-.01.66.04.98.09.56.18,1.12.24,1.69.07.65.09,1.29.03,1.94-.05.61-.13,1.22-.19,1.84-.05.45-.06.89-.02,1.34.03.36.06.73.09,1.09,0,.1.02.21.03.34.03-.05.05-.07.06-.09.04-.09.07-.18.1-.27.15-.43.24-.87.32-1.31.13-.64.24-1.29.27-1.95.02-.64.11-1.28.22-1.92.07-.4.12-.8.11-1.2-.01-.34-.04-.69-.07-1.03-.03-.38-.01-.75.04-1.12.11-.75.33-1.47.63-2.17.31-.7.63-1.38.94-2.07.03-.06.05-.12.07-.18h1.99Z"/>
      <path class="cls-3" d="M8.27,3c0,.23,0,.46.03.68.07.66.17,1.32.34,1.97.18.68.38,1.36.57,2.04.14.51.29,1.01.38,1.53.07.37.11.75.13,1.13.01.28.03.56.03.84,0,.39-.07.77-.14,1.15-.13.68-.29,1.35-.55,2-.21.52-.46,1.02-.75,1.5-.39.65-.78,1.29-1.18,1.93-.46.74-.9,1.5-1.29,2.29-.27.54-.55,1.07-.8,1.61-.51,1.13-.95,2.3-1.31,3.49-.12.38-.24.75-.35,1.13-.05.19-.09.38-.13.57,0,.03-.01.06-.02.1h-.24c0-.06.01-.11.02-.16.11-.57.2-1.14.34-1.7.16-.65.3-1.31.55-1.94.19-.48.4-.94.61-1.41.6-1.37,1.24-2.71,1.89-4.05.44-.91.87-1.82,1.3-2.74.24-.5.41-1.03.51-1.58.12-.69.15-1.38.09-2.08-.05-.65-.21-1.28-.36-1.92-.2-.81-.38-1.63-.58-2.44-.09-.37-.19-.73-.27-1.11-.07-.35-.12-.71-.16-1.07-.03-.24-.04-.49-.06-.73-.02-.25,0-.5.04-.74.01-.1.03-.21.04-.31h1.32Z"/>
      <path class="cls-3" d="M31.07,3c-.37.79-.62,1.62-.79,2.47-.1.53-.2,1.05-.25,1.59-.02.22-.03.45-.04.67,0,.56-.02,1.11-.02,1.67,0,.58.04,1.17.11,1.75.04.39.07.79.13,1.18.07.5.14,1,.23,1.49.15.85.32,1.69.48,2.54.08.45.14.9.13,1.36,0,.39-.01.77-.02,1.16,0,.17,0,.34,0,.52,0,.55-.05,1.1-.15,1.65-.08.48-.16.96-.29,1.43-.21.78-.51,1.52-.86,2.25-.18.38-.39.74-.57,1.12-.15.32-.28.65-.41.97-.02.05-.04.1-.06.16h-.16s.03-.09.04-.14c.17-.54.4-1.05.65-1.56.16-.33.32-.67.47-1.01.25-.56.41-1.14.5-1.75.06-.45.15-.9.2-1.35.05-.4.08-.8.1-1.21.04-.91-.08-1.8-.26-2.69-.04-.2-.08-.41-.12-.61-.06-.31-.16-.62-.27-.92-.19-.52-.31-1.06-.43-1.6-.26-1.14-.52-2.27-.78-3.41-.15-.64-.25-1.29-.29-1.94-.03-.51-.06-1.01-.04-1.52.02-.37.1-.74.19-1.1.19-.7.42-1.38.73-2.03.18-.39.38-.76.57-1.15h1.3Z"/>
      <path class="cls-7" d="M.38,3c.11.59.32,1.16.59,1.69.29.57.59,1.12.88,1.69.22.43.43.87.52,1.35.04.2.05.4.08.61.04.3.09.59.08.89,0,.54-.12,1.05-.3,1.56-.3.82-.71,1.58-1.22,2.29-.52.73-.96,1.5-1.39,2.28-.33.59-.68,1.18-1.02,1.76-.13.22-.28.41-.46.58-.82.77-1.38,1.72-1.78,2.76-.14.35-.24.71-.36,1.07,0,.01-.01.02-.02.03v-1.3c.13-.25.26-.49.38-.75.66-1.42,1.2-2.88,1.66-4.37.07-.23.16-.46.29-.67.15-.24.29-.49.43-.73.43-.77.8-1.57,1.17-2.36.09-.19.19-.36.34-.5.09-.09.17-.18.25-.28.29-.36.49-.77.68-1.18.23-.51.28-1.03.2-1.57-.1-.62-.28-1.22-.55-1.79-.15-.31-.31-.62-.47-.93-.27-.56-.52-1.12-.71-1.71-.04-.13-.06-.27-.09-.41H.38Z"/>
      <path class="cls-3" d="M-.44,3c.03.14.04.28.09.41.19.59.44,1.16.71,1.71.15.31.32.62.47.93.27.57.45,1.17.55,1.79.08.54.03,1.06-.2,1.57-.19.42-.39.82-.68,1.18-.08.1-.16.19-.25.28-.15.14-.25.32-.34.5-.37.8-.75,1.59-1.17,2.36-.14.25-.28.49-.43.73-.13.21-.22.43-.29.67-.46,1.49-1,2.95-1.66,4.37-.12.25-.25.5-.38.75v-.96s.03-.03.04-.05c.5-.84.87-1.73,1.07-2.69.11-.56.21-1.13.31-1.7.14-.72.32-1.43.64-2.1.28-.6.51-1.22.69-1.86.11-.38.22-.77.24-1.17.02-.24.04-.49.06-.73.02-.28,0-.55-.07-.82-.04-.16-.06-.33-.08-.5-.05-.46,0-.93,0-1.39.01-.42,0-.84-.07-1.25-.07-.38-.17-.76-.27-1.14-.08-.3-.18-.6-.27-.89H-.44ZM.17,9.83s.02.02.03.02c.01-.02.02-.04.03-.06.09-.15.19-.3.28-.46.11-.21.17-.43.16-.67-.02-.43-.05-.87-.07-1.3-.01-.23-.07-.45-.2-.64-.01-.02-.03-.04-.06-.06,0,.06-.02.09-.02.13-.02.47-.05.94-.07,1.41-.02.45-.03.9-.05,1.35,0,.09-.01.19-.02.28Z"/>
      <path class="cls-7" d="M21.95,3c-.02.06-.04.12-.07.18-.31.69-.64,1.38-.94,2.07-.3.69-.52,1.42-.63,2.17-.06.37-.07.75-.04,1.12.02.34.06.69.07,1.03.01.4-.04.81-.11,1.2-.11.63-.2,1.27-.22,1.92-.03.66-.14,1.3-.27,1.95-.09.44-.17.89-.32,1.31-.03.09-.07.18-.1.27,0,.02-.03.04-.06.09-.01-.13-.02-.24-.03-.34-.03-.36-.06-.72-.09-1.09-.03-.45-.02-.89.02-1.34.07-.61.14-1.22.19-1.84.05-.65.04-1.29-.03-1.94-.06-.56-.15-1.13-.24-1.69-.05-.32-.06-.65-.04-.98.04-.99.29-1.93.57-2.87.12-.41.25-.82.37-1.23h1.97Z"/>
      <path class="cls-7" d="M13.82,3c0,.14-.02.29-.02.43-.02,1.11-.2,2.2-.49,3.26-.22.81-.4,1.62-.59,2.44-.13.56-.24,1.12-.45,1.65-.2.53-.4,1.05-.6,1.58-.12.31-.24.61-.36.92-.01.04-.03.07-.05.11,0,0-.02,0-.03,0,0-.03.02-.07.02-.1.16-.57.29-1.15.39-1.73.05-.34.09-.67.13-1.01.03-.28.06-.56.07-.85,0-.16,0-.32,0-.48-.01-.48-.04-.97-.04-1.45,0-.7.04-1.39.06-2.09.01-.33-.03-.65-.08-.97-.05-.38-.09-.76-.14-1.14-.01-.12-.03-.24-.04-.36,0-.07,0-.14-.01-.2h2.21Z"/>
      <path class="cls-3" d="M26.37,3c-.09.27-.17.53-.26.8-.24.73-.6,1.4-1.04,2.03-.61.87-1.17,1.76-1.69,2.69-.28.49-.45,1.01-.54,1.57-.06.4-.11.8-.17,1.2,0,.05,0,.1-.06.15,0-.08-.02-.13-.02-.19.01-.45.03-.89.05-1.34.02-.47.14-.93.28-1.38.14-.43.33-.84.53-1.25.22-.45.44-.91.63-1.37.08-.2.11-.42.16-.64.14-.73.29-1.47.5-2.18,0-.03.02-.05.02-.08h1.61Z"/>
      <path class="cls-7" d="M4.84,3c.22.56.39,1.13.53,1.72.17.71.31,1.42.42,2.14.09.56.1,1.12.09,1.69,0,.02,0,.03-.02.07-.02-.06-.03-.1-.04-.14-.08-.38-.21-.74-.41-1.08-.29-.51-.57-1.02-.86-1.52-.26-.45-.57-.87-.88-1.29-.36-.49-.66-1.01-.86-1.58h2.02Z"/>
      <path class="cls-3" d="M14.73,9.08c.03.37,0,.74-.07,1.1-.09.49-.18.98-.33,1.46-.2.68-.49,1.32-.82,1.94-.31.59-.63,1.18-.87,1.8-.31.78-.54,1.59-.68,2.42-.05.31-.05.61,0,.92.07.4.12.81.2,1.21.11.57.24,1.13.35,1.7.11.52.21,1.04.31,1.56.04.22.07.45.1.68,0,.05.02.1.03.14.15.4.19.82.26,1.23.06.34.11.68.16,1.02.03.22.04.44.06.66,0,.02,0,.04,0,.06h-2.09c-.02-.16-.05-.31-.06-.46-.05-.51-.06-1.03-.05-1.55.01-.52.04-1.05.04-1.57,0-.24-.02-.49-.03-.73,0-.26-.01-.52-.02-.78-.01-.54-.03-1.08-.04-1.62,0-.39,0-.78.02-1.16.02-.54.04-1.08.08-1.62.06-.77.26-1.5.58-2.2.17-.38.37-.75.6-1.1.34-.52.65-1.07.93-1.62.11-.23.23-.46.36-.68.24-.42.39-.88.53-1.35.13-.44.27-.89.41-1.33.01-.04.03-.08.04-.12Z"/>
      <path class="cls-3" d="M18.86,26.97h-1c0-.11,0-.21,0-.31,0-.33.03-.66.03-.99,0-.4-.07-.8-.18-1.18-.08-.29-.13-.59-.1-.89.04-.45.2-.87.52-1.19.51-.52.98-1.08,1.45-1.63.31-.37.62-.73.89-1.13.31-.47.58-.96.83-1.46.23-.47.36-.98.47-1.49.1-.47.19-.93.28-1.4.04-.2.05-.4.08-.59.04-.26.1-.53.13-.79.05-.39.09-.78.14-1.17.01-.1.02-.21.04-.31.01,0,.02,0,.03,0,0,.04,0,.08,0,.12.03.56.03,1.13,0,1.69-.04.83-.07,1.67-.13,2.5-.06.88-.26,1.74-.6,2.56-.14.34-.26.7-.37,1.05-.2.64-.48,1.25-.81,1.84-.24.45-.49.89-.74,1.33-.32.55-.54,1.14-.66,1.76-.09.47-.16.95-.24,1.43-.02.09-.03.18-.04.27Z"/>
      <path class="cls-3" d="M24.54,26.98h-1.65s-.01-.02-.01-.02c.14-.33.25-.66.44-.97.17-.26.35-.5.55-.74.24-.27.45-.56.6-.9.13-.28.2-.58.27-.88.09-.43.18-.87.27-1.3,0-.05.02-.09.03-.13,0,0,.02,0,.02,0,0,.02,0,.05,0,.07,0,.27,0,.54,0,.82,0,.28.02.57.03.85.02.55-.01,1.09-.14,1.62-.13.52-.27,1.03-.41,1.55,0,0,0,.01-.02.03Z"/>
      <path class="cls-7" d="M26.94,15.5c.04.13.07.27.11.4.1.38.21.76.35,1.13.18.47.27.96.34,1.46.07.51.14,1.01.2,1.52.04.32.09.63.12.95.03.23-.03.46-.07.69-.09.52-.34.96-.64,1.38-.11.15-.23.3-.33.46-.1.15-.18.31-.28.46-.01.02-.02.04-.05.08,0-.04-.02-.05-.02-.07.01-.43-.06-.86-.14-1.28-.05-.27-.08-.55-.12-.83-.04-.32-.09-.65-.13-.97-.06-.45-.07-.9-.05-1.35.03-.78.19-1.54.38-2.3.11-.45.2-.91.24-1.38.01-.11.04-.22.06-.33,0,0,.02,0,.03,0Z"/>
      <path class="cls-7" d="M16,12.11c.01.09.03.18.04.28.09.61.14,1.22.12,1.83-.01.48-.04.97-.06,1.45-.02.44-.02.89-.04,1.33-.02.51-.03,1.01-.06,1.52-.03.44-.13.88-.22,1.31-.17.81-.33,1.62-.49,2.43-.08.39-.15.79-.2,1.18-.04.25-.05.51-.06.76,0,.18,0,.36,0,.54,0,.04,0,.08,0,.14-.03-.04-.04-.06-.05-.08-.3-.72-.57-1.46-.72-2.23-.07-.38-.14-.77-.14-1.16-.01-.43.06-.85.14-1.27.16-.8.4-1.59.62-2.38.22-.77.45-1.53.6-2.32.1-.53.19-1.06.27-1.59.07-.47.14-.94.21-1.41.02-.11.03-.22.04-.33,0,0,.02,0,.02,0Z"/>
      <path class="cls-7" d="M.17,9.83c0-.09.02-.19.02-.28.02-.45.03-.9.05-1.35.02-.47.05-.94.07-1.41,0-.04.01-.08.02-.13.03.03.05.04.06.06.13.19.19.41.2.64.03.43.05.87.07,1.3.01.24-.05.46-.16.67-.08.16-.19.31-.28.46-.01.02-.02.04-.03.06,0,0-.02-.02-.03-.02Z"/>
    </g>
  </g>
  <g class="cls-8">
    <g>
      <path class="cls-4" d="M23.84.27L.27,23.84l-5.89-5.89L17.95-5.62,23.84.27Z"/>
      <path class="cls-5" d="M35.62,12.05l-23.57,23.57-5.89-5.89L29.73,6.16l5.89,5.89Z"/>
    </g>
  </g>
  <path class="cls-6" d="M15,2.5c6.9,0,12.5,5.6,12.5,12.5s-5.6,12.5-12.5,12.5S2.5,21.9,2.5,15,8.1,2.5,15,2.5M15,1C7.28,1,1,7.28,1,15s6.28,14,14,14,14-6.28,14-14S22.72,1,15,1h0Z"/>
</svg>