<svg id="Livello_1" data-name="Livello 1" xmlns="http://www.w3.org/2000/svg" xmlns:xlink="http://www.w3.org/1999/xlink" viewBox="0 0 30 30"><defs><style>.cls-1{fill:none;}.cls-2{fill:#d1d1d1;}.cls-3{clip-path:url(#clip-path);}.cls-4{fill:#4373a9;}.cls-5{fill:#254368;}.cls-6{fill:#3a659c;}.cls-7{fill:#d6e9f6;}.cls-8{fill:#284a79;}.cls-9{fill:#accfe7;}.cls-10{fill:#bad9ed;}.cls-11{fill:#c9e3f2;}.cls-12{fill:#2f588b;}.cls-13{fill:#6f91bc;}.cls-14{fill:#1e2126;}.cls-15{fill:#95bcdc;}.cls-16{fill:#e2e1dc;}.cls-17{fill:#595752;}.cls-18{clip-path:url(#clip-path-2);}.cls-19{fill:#ece5d3;}</style><clipPath id="clip-path"><circle class="cls-1" cx="15" cy="15" r="12.5"/></clipPath><clipPath id="clip-path-2"><circle class="cls-1" cx="165" cy="15" r="12.5"/></clipPath></defs><path class="cls-2" d="M15,2.5A12.5,12.5,0,1,1,2.5,15,12.5,12.5,0,0,1,15,2.5M15,1A14,14,0,1,0,29,15,14,14,0,0,0,15,1Z"/><g class="cls-3"><g id="Y9Jclw.tif"><path class="cls-4" d="M-19.51,6.7l.05-.15,1.17-.62c.05,0,.08-.12.12-.18a16.66,16.66,0,0,1,1.09-1.83A1.11,1.11,0,0,0-16.89,3c0-.22-.05-.43-.07-.63.6-.23.65-.33.67-.76s.11-.82.13-1.24a3,3,0,0,0-.05-.79c0-.08-.21-.12-.32-.18l-.25-.13L-16.12-2l.29.38L-15.66-3l-.16,0-.16.68-.12,0v-.92a1.33,1.33,0,0,0,.36-.89,3.08,3.08,0,0,1,.4-1.09l.52-.23.13.45h.19c.08-.61.17-1.22.24-1.83a2.33,2.33,0,0,0-.07-.53c0-.24-.13-.35-.35-.16,0-.27-.11-.58.27-.65.22,0,.51,0,.39-.3,0-.1-.37-.1-.56-.15l.33-.72a.77.77,0,0,0,.34-1,1.71,1.71,0,0,1,0-.39,9.27,9.27,0,0,0,.31-1.86c0-.41.08-.55.43-.61.09.08.23.26.27.24.32-.15.81-.16.74-.84l-.75.27h-.52c.09-.6.19-1.2.26-1.79a1.07,1.07,0,0,0-.07-.39c.16-.65.33-1.3.46-2,0-.14-.11-.32-.17-.48.07-.51,0-1.06.45-1.46l.64-.35v2a2.24,2.24,0,0,0,.59-2.33l-.52.05.19-.93.51-.7h.82s0,0,0,.09l-.33,1.2.81.11c0,.17,0,.33,0,.53.69-.36.76-.54.43-1l.88-1.61h.2a2.54,2.54,0,0,1,.14.75c0,.13-.25.24-.39.34l-.49.34L-9-21l.38.07c-.28.94-.49,1.89-.83,2.79a3.66,3.66,0,0,0-.16,2.24c.44-.34.8-.8,1.26-.92.79-.22.73-.78.81-1.35A3.51,3.51,0,0,1-7.18-19l.16,0,.2,1a7.39,7.39,0,0,0,1-.8,3.92,3.92,0,0,0,.66-1.09,9.59,9.59,0,0,0,.37-1.31.84.84,0,0,1-.08,1,.81.81,0,0,0,0,.65,3.37,3.37,0,0,0,.55.61c.48-.29.13-.82.22-1.25.43,0,.73-.12.68-.68s.06-1.29,0-1.93a12.79,12.79,0,0,0-.35-1.58h-.18l-.28.68-.51-1c.53.22.84.15.87-.33A14.64,14.64,0,0,0-4-26.69,5.69,5.69,0,0,1-4-27.52a2.64,2.64,0,0,1,.55.15,3,3,0,0,1,.52.36,1.08,1.08,0,0,0,1.55-.1c.33.81-.24,1.49-.25,2.24.42,0,.68.1.57.58-.62.16-1.15.42-1.15,1.2h.51c-.49.43-1.06.78-1,1.62L.15-22a3.42,3.42,0,0,0,.23-1.08,3.41,3.41,0,0,0-.49-1l-.21-.07-.15.49-.18-.1a1.13,1.13,0,0,1,0-.37c.12-.38.27-.75.42-1.11A4.31,4.31,0,0,1,0-25.76a5.83,5.83,0,0,1,.43-.73c.11-.15.33-.37.44-.33.48.13.76-.13,1-.42l.32.84-1.3,1c.1.09.22.21.36.32l.42.25A4.23,4.23,0,0,0,2-25.2c.08-.25.14-.5.18-.66L3-26l.43.26c.06-.15.2-.32.16-.44s-.12-.48-.44-.25l-.4.28a2.84,2.84,0,0,1,.82-1.57.24.24,0,0,1,.2,0c.17.19.32.4.48.6h0l0,0a.24.24,0,0,0,0,.08c0,.11,0,.21,0,.32s-.05.49.06.59.4.07.6,0a1,1,0,0,0,.44-.21c.39-.31.32-.72-.17-.94l-.28,0,0,0-.15-.4c.12-.38.32-.66.27-.89s-.36-.42-.56-.64l.49-.35a1.18,1.18,0,0,0,1.7,0c.15-.15.28-.32.42-.48l-.55-.26h0c.19-.39.43-.13.61,0A1.35,1.35,0,0,0,8.31-30a2.2,2.2,0,0,1,0,.36c0,1-.08,1.95-.13,2.92,0,.78-.05,1.55-.07,2.33l-.79-.24a9.79,9.79,0,0,0,.54-1,.58.58,0,0,0-.1-.54.71.71,0,0,0-.56.06,10.45,10.45,0,0,0-.87.61c0-.05,0-.11,0-.15a3.27,3.27,0,0,0-.25-.57c0-.05-.19,0-.29,0l.09.53a.88.88,0,0,0,0,.16c-.22,0-.61.06-.63.15-.08.38-.34.29-.57.31l-.14-.54-.16-.13H4.27a.11.11,0,0,0-.09.06h0v0l-.2.56a2.87,2.87,0,0,0-.79.27,6.64,6.64,0,0,0-.79.8l-.63.68c.68.12,1.32.08,1.46.8.53-.22.57-1,1.25-.84.34.67.51.68.94.06.2-.27.39-.56.5-.71.23.05.43.14.47.1a1.7,1.7,0,0,0,.14-.49L7-24.56c-.2.27-.4.53-.58.81-.09.13-.21.38-.15.45s.38.29.47.24c.36-.21.88-.12,1.09-.6,0-.1.2-.15.3-.23.06.32.13.64.19,1l-.37.75.42.19.39,2.42-.63,1c-.15.29-.2.6-.37.68a9.74,9.74,0,0,1-1.33.4.48.48,0,0,1,.18-.23,1.74,1.74,0,0,0,.26-.19c.22-.23.13-.58-.1-.51s-.34.33-.55.55l-.12-.28h0l.21-.46a.07.07,0,0,0,0-.06l.09-.16L7.13-20a1.86,1.86,0,0,0,.13.23,3.17,3.17,0,0,0,.29.32l.27-1.45-.6.3a9.75,9.75,0,0,1-.44-.94c-.16-.46-.36-.35-.64-.12s-.72.54-1.09.81a1.14,1.14,0,0,0,.19-1.33.91.91,0,0,0-.52-.4c-.09,0-.36.24-.37.38,0,.55,0,1.1,0,1.77l.73-.43L4.7-17.58a1.53,1.53,0,0,1-.15-.72,4.48,4.48,0,0,0-.72-2.55c-.15-.33-.4-.29-.54.06s-.21.62-.36.91a1,1,0,0,0,0,1.13H3c-.61.17-.44.71-.4,1.08a3.37,3.37,0,0,0,.47,1.09s.17,0,.25,0a5,5,0,0,1,1.11.37c.35.2.58.31.78-.13.09-.18.21-.35.31-.52L5.57-17l0-.11.22,0-.23.87c.14,0,.38.08.41,0a1.63,1.63,0,0,0,.12-.58c.36-.19.81-.42,1.27-.64,0,0,.14.13.22.2a7.76,7.76,0,0,1-.47,1c-.34.5-.69,1-.23,1.56-1,.3-1.4,1-1,1.64L3.77-11.76l-.11-.1.73-1.37a1.81,1.81,0,0,0-1.6,1.3c.13.1.28.17.34.28s-.17.19-.21.31c-.18.44-.42-.14-.6.05h0l.25-.51-1.08-.26-.05.15.51.44c-.24.08-.44.2-.58.16-.29-.08-.54-.3-.82-.38a7.46,7.46,0,0,0-1.4-.24,4,4,0,0,0-.91.1l-.09-.11.72-.82a1.34,1.34,0,0,0-2,.46,5.83,5.83,0,0,0-.39.62c0,.1.07.36.13.36a7.2,7.2,0,0,0,1,0c.38.79,1.06.19,1.68.22a1.62,1.62,0,0,1-.64.42c-.3.1-.64.12-.94.24-1.06.42-2.11.86-3.16,1.32a10.69,10.69,0,0,0-1.27.73,3.89,3.89,0,0,0-.48.43,2.64,2.64,0,0,0,2.41-.48A6,6,0,0,1-4-8.95a.32.32,0,0,1,.29.08.37.37,0,0,1,0,.29C-3.9-8.27-4-8-4.53-8c-.2,0-.44.23-.59.41s.11.3.19.49a6.7,6.7,0,0,0-.69,1,.92.92,0,0,0,.09.7c0,.09.39,0,.59,0a2,2,0,0,0,.46-.18l.09-.06,0,0,.23.17.22.21,0,.11-.36.42a3.28,3.28,0,0,0-.7.27c-.25.18-.4.46-.11.74a.88.88,0,0,0,1.35,0C-3-4.35-2.33-5-1.62-5.71L-1.3-6l.15.13c-.83.64-.83,2-2,2.31-.21.06-.31.47-.45.71l.7,0,.11,0c.34.34-.64.65,0,1a1.1,1.1,0,0,0,1.27-.33l.42.48a4.7,4.7,0,0,0,.38-.5,5.21,5.21,0,0,0,.28-.52.72.72,0,0,1-.3,1c-.34.17-.71.27-1,.43a.86.86,0,0,1-1-.21.69.69,0,0,0-.91-.06c-.23.14-.47.63-.38.81.19.37,0,.58-.12.83a9.91,9.91,0,0,0-.57,1.06c-.16.41,0,.55.43.47A.43.43,0,0,1-4,1.82c.16.55.45.74,1,.41.69,1,.72,1,1.55.21L-.61,3l1.07.59L.89,4.72c-.42,0-.66,0-.89,0-.62-.07-.68,0-.64.58.05.76.05.76-.73.75a1.69,1.69,0,0,0-1.49-.7c-.18,0-.46.24-.46.37A.79.79,0,0,0-3,6.25c.42.27.89.48,1.34.72l-.77.17c.16.34.45.66.38.87a3.37,3.37,0,0,1-.76,1.27c-.27.29-.35.52-.17.85a1.59,1.59,0,0,0-.21.15l-.51.47.49.41c0,.41-.25.44-.49.35-.63-.25-.87.05-1,.61a2.74,2.74,0,0,0,0,.64c0,.34-.07.49-.38.3s-.75-.53-1.12-.79a2.51,2.51,0,0,0,1.36-1.22,13.57,13.57,0,0,0-2,.17c-.72.16-1.4.5-2.12.69-.51.14-1,.24-1.1.95-.22-.93-.89.08-1.12-.25a6.41,6.41,0,0,0,.42-.69c.14-.33.25-.68.36-1a1,1,0,0,0,0-.3c-.12,0-.27-.06-.35,0s-.18.25-.29.37a2.91,2.91,0,0,1-.47.52c-.67.5-1.36,1-2.05,1.47l-.1.11-.43.77-.22-.11a.83.83,0,0,1,.08-.12l0,0-.05.15-.55-.22.13-.32.42-.12c.34-.26.82-.4.81-1a.76.76,0,0,0-.4.23,4.27,4.27,0,0,0-.29.41c.06-.45,0-.78-.42-.82l.09-.8-.16,0-.54,1.12-.16-.05.11.36-1.22.54h0l-.11-.1-.24-.67.22-.54.57-1.53c.25-.53.51-1.06.77-1.59l.4-.72c.24.39.59.73.44,1.25a1.74,1.74,0,0,0,0,.46s.17.06.19,0a1.8,1.8,0,0,0,.29-.43c.12-.29.2-.59.32-.88a4.62,4.62,0,0,1,.28-.48l.42-.73.2.12A4.88,4.88,0,0,0-13,7.9a1.89,1.89,0,0,0,0,.53,1.26,1.26,0,0,0,.46-.17c.56-.57,1.1-1.17,1.65-1.75a.43.43,0,0,1,.13-.09l.3.4c.16-.07.33-.1.41-.2a8.52,8.52,0,0,0,.53-.8A8.7,8.7,0,0,0-9.35,7c0,.12.28.2.44.25s.19-.09.23-.17c.2-.42-.38-1.25-.84-1.21l.06-1.35c.21.16.27.75.79.35.18.73.39.87.91.7.08-.24.13-.42.2-.6a2,2,0,0,0,.25-.66,1.24,1.24,0,0,0-1.45-1,1.9,1.9,0,0,1-.34,0l.15-.39A2.05,2.05,0,0,0-8.37,3c.19,0,.45-.27.52-.21.51.41.91.19,1.42,0a5.46,5.46,0,0,1,1.61-.24,9.51,9.51,0,0,1-.3-.94c-.13-.74-.3-.93-1-1,.62-.59.72-1.32,0-1.68a6.23,6.23,0,0,0,.6-.41A3,3,0,0,0-5-2.19a.57.57,0,0,0,0-.49c0-.07-.35-.06-.44,0a10.63,10.63,0,0,0-.77.87c-.33.4-.23,1.09-.88,1.26l-.31,0-.06-.17-.08-.06C-8-.66-8.65-.79-9-.2l-.22,0h0l-.11-.2-.33-.34L-9.77-1l-.07-.14.43-.28,0,0,.07-.08a3.44,3.44,0,0,0,.1-.63c0-.13-.1-.25-.15-.38l-.39.21-.08.12v0l-.33-.15a.22.22,0,0,1,0-.08l-.42-.57c.26-.57.53-1.13.79-1.69.16-.37.23-.93.51-1.07.55-.28.56-.7.59-1.17.17-.17.33-.34.49-.53a1.34,1.34,0,0,1-.13-.15L-8.8-7a.11.11,0,0,0,0,0l-.32.61c-.31-.41-.47-1.12-1.11-.81-.4.19-.65.69-1,1.09a2.81,2.81,0,0,0,0-.5.61.61,0,0,0-.16-.29,4.52,4.52,0,0,0-.89.33c-.09.06-.1.26-.15.4-.16.4-.33.8-.52,1.26l-.33-.73a2.81,2.81,0,0,0-.59.48c-.62.88-.4,1.91-.58,3l.6-.45a2.42,2.42,0,0,0,2.33-.71l.11.5H-11l.25.56-.94,2.07-.93.34c.37-.53.76-1,1.11-1.59a2.73,2.73,0,0,0,.19-.73c-.36.12-.57.27-.73.23-.41-.1-.55.14-.69.44l-.2-.22-.7-.45a1.38,1.38,0,0,0-.27.37C-14-1.16-14.15-.6-14.31,0s-.36,1.06.47,1.21c.08,0,.14.15.26.3l.64-.6c.22.44,0,1-.53,1.54l-.41.26L-14,2.59l.28-.61a3.12,3.12,0,0,0-.66,0,.75.75,0,0,0-.43.2c-.28.34-.52.73-.81,1.07a.85.85,0,0,1-.5.22c-.23,0-.9.8-.83,1s.17.1.25.15l0,0a.7.7,0,0,1-.41.78c-.31.16-.57.47,0,.91a2.77,2.77,0,0,0-.59-.07c-.35,0-.62.28-.42.57s0,.5,0,.75,0,.41,0,.62l.24.09,1.21-1.1a.39.39,0,0,0-.2.36,1.91,1.91,0,0,0,.19.5,1.71,1.71,0,0,0,.36-.35,2.82,2.82,0,0,0,.22-.56c.35.21.62.58.82-.06,0-.05.27,0,.4,0-.1.29-.22.57-.32.86L-16,10.22l-.77,1.44c-.12-.3-.33-.26-.55-.13l.51-.85-.06-.1-.84.55-.06-.27-.65.34.4-1-.21-.1a6.73,6.73,0,0,0-.44.78c0,.07.17.23.26.35l-.32.56.53-.1a2.06,2.06,0,0,0,0,.58c0,.11.19.18.29.27v1l.18.23L-18,14l-.31,0h0l-.13-.09c-.05,0-.12-.06-.13-.1,0-.57-.73-1-.32-1.69.05-.07,0-.23-.07-.34l-.38-.73-.91.12A3,3,0,0,0-19,9.1l-.44.14-.05-.05L-19,8l-.45,0,.34-1.19Zm20-20.63C.4-14,.36-14.08.3-14.14a4.12,4.12,0,0,0-.4-.33s-.14.11-.14.12a4.71,4.71,0,0,0,.29.48s.13,0,.2.06c-.34.31-.21,1-.82,1.09,0,.11.09.31.15.31.47,0,.89.49,1.42.09.2-.15.55-.09.82-.14.06,0,.16-.09.16-.14,0-.49.34-.64.75-.77.18-.05.31-.28.43-.46a6.66,6.66,0,0,0,.52-.89,2.2,2.2,0,0,0,.11-.64l-.53.25s-.07,0-.1,0c.23-.71.23-.71-.61-1L1.9-14.69Zm-8.83.38-.69.12c-.21-.13-.47-.35-.52-.31a1.59,1.59,0,0,0-.38.55c0,.07,0,.18,0,.27,0,.65,0,.63-.68.51a.77.77,0,0,0-.6.32,1.81,1.81,0,0,0-.05.71h.58c0,.42-.48.88.07,1.32a.78.78,0,0,1,.24.66c-.13.61.24,1,.51,1.49l.37-.44,0,.6A3,3,0,0,0-9-8.2c.43-.6.8-1.25,1.24-1.84a14.28,14.28,0,0,1,1.08-1.12c.06-.21.43-.73.71-.73h1l0-.17-.76-.64c.08-.3.08-.78.31-1a1,1,0,0,0,.28-1.16,2.7,2.7,0,0,1,0-.48l.51.08c-.48-.45-.16-.86,0-1.27.09-.24.19-.47.29-.71a.48.48,0,0,0-.57-.68c-.19,0-.37.08-.56.12l.18-.48-.25-.22a3.75,3.75,0,0,1-.21.5.72.72,0,0,1-.31.29c-.28.13-.59.21-.9.32l-.11-.33-.55,1.09a.67.67,0,0,0-.89.55c-.06.21-.05.47-.18.6-.33.34-.06.49.15.74l.32-.55.15.06c-.07.33-.16.67-.21,1a4.15,4.15,0,0,0,0,.61Zm6.07-2.24a.55.55,0,0,1,.8.17c.08.12.3.15.45.21a2.21,2.21,0,0,0,.08-.4c-.44-.18-.31-.56-.36-.89a8.49,8.49,0,0,0-.24-1.22c0-.12-.22-.19-.33-.28a1.36,1.36,0,0,0-.13.42,1.48,1.48,0,0,0,.12.41l-.08,0-1-1.1-.2.08v.95c0,.62.19.77.89.6C-2.9-16.42-2.46-16.14-2.3-15.79ZM7-28c.13.19.21.41.37.48a.49.49,0,0,0,.44-.21,3.35,3.35,0,0,0,.11-1.09.59.59,0,0,0-.37-.4c-.11,0-.28.16-.44.26-.42-.63-.78-.08-1.09.15a.71.71,0,0,0-.18.68C6.11-27.62,6.59-27.88,7-28ZM-7.17,5.57a1.71,1.71,0,0,0,1.74-1,.54.54,0,0,0-.52-.78A1.67,1.67,0,0,0-7.17,5.57Zm4.69-18.88-.21-.78c-1.12-.07-1.89.22-2.05.78ZM-3.09,3.36c-.25-.23-.5-.5-.52-.49-.3.26-.58.55-.86.83.22.14.5.45.63.39S-3.39,3.67-3.09,3.36Zm-7.58-19.07.77-.19v-1.63l-.17,0ZM-8.61,7.71c-.37.45-1,.76-.83,1.5C-8.62,8.9-8.19,8.15-8.61,7.71Zm6.84-3.56-.09-.21c-.49.2-1,.39-1.46.61a2,2,0,0,0,.1.52C-2.82,4.46-2,4.81-1.77,4.15ZM-4.86-10.18v-.21c-.2-.08-.42-.26-.58-.22s-.32.3-.47.46c.14.13.31.38.42.35A2.12,2.12,0,0,0-4.86-10.18ZM-9.24,10.68l.43.5a2.24,2.24,0,0,0,.45-.6c0-.1-.23-.3-.35-.45ZM-11-16.06l.22,0,0-1.11-.23-.07-.51.76.5.17Zm11.35-3H.54c0-.39,0-.77,0-1.15,0-.09-.15-.17-.24-.25-.07.11-.22.22-.21.32A10.64,10.64,0,0,0,.32-19.1Zm-1.46,2.23,1-.91c-.26,0-.49-.17-.62-.11A.94.94,0,0,0-1.14-16.87Zm6.74,3L5.41-14c-.55.18-.71.54-.35,1.19ZM-5.89-10.39a4.4,4.4,0,0,0-.69-.42c-.06,0-.21.12-.32.19a7,7,0,0,0,.58.51S-6.11-10.24-5.89-10.39ZM-9.73,9.22C-10,9.1-10.14,9-10.25,9s-.25.19-.37.3c.12.08.24.23.35.22S-10,9.37-9.73,9.22Z"/><path class="cls-5" d="M56.16,27.32l-1.11.35a16.79,16.79,0,0,0-1.72.32c-.16,0-.25.33-.37.51l-1.32.71v-.62c-.1,0-.23,0-.27-.08-.27-.39-.59-.14-.85,0a9.54,9.54,0,0,1-1,.56A3.68,3.68,0,0,0,47.44,31a10.84,10.84,0,0,0-.71,2.15c-.39.33-.8.64-1.18,1-.1.1-.09.3-.14.45h0l-.11.1h0a7.16,7.16,0,0,0-.78.4c-.35.22-.67.49-1,.73-.18,0-.42,0-.53.06-.64.57-1.27,1.16-1.88,1.77-.07.06,0,.23-.06.35l-.16.22c-.16,0-.38-.11-.47,0-.77.65-1.52,1.34-2.27,2a1.83,1.83,0,0,0,.15.24l.05.21,0,0c-.52-.06-.8.26-1,.67a.08.08,0,0,0,0,.08l-.09.06,0,0,0,0-.14.1a.09.09,0,0,1-.07.06l-.31-.11-.16-.16-.23,0h0l0-.12a.11.11,0,0,0,0-.08l.43-1.05a1,1,0,0,0-1.28.74L35,40.39l-1.08,1.39c0,.06-.08.15-.13.17-.69.17-.7,1-1.21,1.29-.09.06-.11.23-.17.34l-.33.67-.69-.53.49-.56L30.68,43l-.29.35-.3-.24c-.14-.09-.29-.16-.41-.25s-.29-.26-.51-.45h.71c-.05-.16-.09-.32-.14-.48-.15-.48-.3-1-.46-1.45l.36-.17c-.06-.11-.11-.3-.19-.3a2.51,2.51,0,0,0-.61,0v.13l.44.3c-.28.12-1-.37-.73.43l-.61.79a7.89,7.89,0,0,0-.11-.84,1.68,1.68,0,0,0-.32-.69c-.21-.24-.47-.1-.54.24a5.88,5.88,0,0,1-.2.59l-.64-.37L26,40.7h0l-1.42-.57.19-.13-.08-1.06a3.94,3.94,0,0,1,.87-.39c.67-.1,1.07-.77,1.76-.81,0,.25,0,.5,0,.81a4.28,4.28,0,0,0,.57-.29,2.77,2.77,0,0,0,.36-.4c-.24-.09-.47-.2-.72-.27-.07,0-.17.1-.26.16-.06-.68-.64-.11-.84-.36a2.89,2.89,0,0,0-.14-.47c-.17-.32-.37-.62-.55-.94.38,0,.77.1,1-.32-.34.12-.81-.22-1,.33l-.67.33c0-.33-.16-.48-.46-.44-.07,0-.18.22-.15.27.14.25.35.36.62.16a.94.94,0,0,0,.66.89c.26.1.57.22.39.65a1,1,0,0,0-.3,0,9.59,9.59,0,0,1-2.14.66c-.58,0-.7.09-.47.6l-.9-.3L20.85,38l-1.2-.88L20,36c.33-.17.19-.38.06-.61s-.24-.51-.38-.75-.23-.39-.39-.45-.35.12-.56.21l.4.58-.24.7-.21.44L18.51,36l-.3-.5-.08-.12v-.1l.46.21c.07-.53.07-.53-.51-.54l-.34.09a6.06,6.06,0,0,0-.76-.48.46.46,0,0,0-.41,0c-.41.36-.62.06-.9-.2s-.76-.54-1.11-.84-.55-.54-.83-.81l.67-.39.17,0v.35l.17-.05H15l.32.23.16.31-.21.23.34.06h0l.11.15L16,34l.18-.09.09-.79c.57.52.92.44,1.21-.13a.6.6,0,0,1,.47-.18c.43,0,.64-.08.52-.55a.56.56,0,0,1,0-.23A1.59,1.59,0,0,0,20,31.74l0-.31.21-.47v-.8h0l1.1.23c-.08.34-.2.67-.26,1a1.51,1.51,0,0,0,0,.67c0,.07.3,0,.46.07l.53.7c.14-.15.57.54.73-.07.56,0,.64.9,1.44.66a3.81,3.81,0,0,0-.35-.24L23.56,33v-.14a2.46,2.46,0,0,1,.53-.06c.25,0,.49.13.74.17.6.11.81-.09.8-.72l.24-.29-.45-.18-.54-.59a1.55,1.55,0,0,0-.23-.27,5.79,5.79,0,0,0-.57-.25l.09-.19c0-.08.05-.18,0-.24s-.18-.34-.27-.51l.63.1.12.16.1-.32.08-.09.88-.31.25.13.12.42-.22.21a.86.86,0,0,0-.32,0,1.85,1.85,0,0,0-.33.24l.32.31,0,0c.18.38.34.39.64.06s1.05-.21.74-1l.25-.45.21,0a1.37,1.37,0,0,1,.17.37,3.15,3.15,0,0,1,0,.81,6.73,6.73,0,0,1-.21.86c-.08.06-.15.16-.25.19-.74.25-.91.52-.79,1.29a1.2,1.2,0,0,1,0,.53c-.13.44-.22.77.34,1a14.17,14.17,0,0,1,1.7,1.06c-.07.33.24.35.57.26a1.4,1.4,0,0,0,.61-.33.77.77,0,0,0,.1-.51c0-.35-.15-.75,0-1a4.78,4.78,0,0,1,.76-1,2.92,2.92,0,0,0,.25-.5c.14-.62.57-.09.83-.21l0,.26c-.11.22.29.81.54.94a9.43,9.43,0,0,1,1.22.74,3.21,3.21,0,0,1,.44.46c0,.36.24.75-.16,1.08-.08.07,0,.34,0,.52l.13,0,.28-.33.74.79a1.88,1.88,0,0,1,.69-.26,1.36,1.36,0,0,0,1.51-1,6.74,6.74,0,0,0,.16-.78l.52,1-.45,1,.2.11.81-1h.11l-.14.7,1-.42.08.45,1.14.06s0,.08,0,.13a1.27,1.27,0,0,0,.09.2c.82-1,2-1.63,2.42-2.89l-.12-.14-.92.7-.1-.1.88-1.22-.21-.23c.11-.11.28-.21.32-.34.15-.56.27-1.13.41-1.75a1.1,1.1,0,0,0,1.6-.44l-.46-.11.85-1.15.15.4.05-.19.83-.25-.38.79.3.64.72-.28a.4.4,0,0,0,.42.07,2.2,2.2,0,0,0,.68-1.88,1.5,1.5,0,0,0,1.22.15c1-.25,1.29-.47,1.27-1.46l.59-.22c0,.12,0,.3,0,.35-.4.31-.24.6,0,.93l.63-.29c.46.45,1.18.32,1.79-.41l-1.14.09a.14.14,0,0,0,0-.09.81.81,0,0,0,.51-.93c.11,0,.3,0,.33-.1.16-.4.44-.35.79-.35s1.09.36,1.32-.42c0,0,.06-.07.08-.06l1.27.22-.64,1.11Zm-17.62,10-.08-.09s0-.14,0-.15a.7.7,0,0,0-1.1.33c-.23.48-.51,1-.77,1.41l-.42-.37a6.79,6.79,0,0,1,.29-.78c.37-.67-.25-.68-.56-.74s-.48.24-.61.45,0,.47-.08.7a5,5,0,0,1-.24.63l-.19-.44-.17.06.29.79-.48.09.56.84c.22-.27.41-.54.62-.78s.42-.53.77-.21l-.21.58C38,39.49,38.67,38,39.68,37l-.07-.12Zm-9.72.54c.17.3.28.75.48.8s.62-.18.9-.34c.06,0,.05-.32,0-.42C29.84,37.53,29.42,37.62,28.82,37.89Zm1.93,2.69c-.42.25-.32.47.17,1.22l.59-.93ZM25.92,39.3l-.12-.17-.84,0-.08.19.55.54Zm-5.5-5.88-.16.2c.25.21.49.42.75.6.06,0,.24,0,.31-.13a.27.27,0,0,0-.05-.27C21,33.67,20.71,33.55,20.42,33.42Zm11.29,8.45.72.47.3-.56C32.36,41.93,31.93,41.31,31.71,41.87Zm-5-2.51-.28-.18-.42.44.44.4Zm5.9-.24.49-.86-1,.16Zm-4.31.53-.45.37c.1.1.22.29.32.28s.27-.15.41-.24Z"/><path class="cls-6" d="M-1.41,25.13-1.72,25l-.72-.37.24-.2.74-.2-.38-.74a7.13,7.13,0,0,0,1.09.32A1.2,1.2,0,0,0,0,23.64c.07-.05,0-.4-.09-.61a2.83,2.83,0,0,0-.07-.28c1.2,0,.39-.75.4-1.13l.52-.31a3.8,3.8,0,0,0-.42-.47,2.66,2.66,0,0,0-.45-.2c-.61-.31-1.49-.19-1.78-1.07,0,0-.09-.05-.13-.09-.54-.41-1-.25-1.51.22.41.35,0,.44-.24.64l.22.32-.48.52a3.18,3.18,0,0,0-.51.6,4.53,4.53,0,0,0-.27.81l-.17,0,.29.37a2.74,2.74,0,0,1-2.47-.67l0-.14,1.1.24.08-.13-1.17-1.11L-7,21c.29.16.57.33.87.47s.64.3.93-.19l-1.24-.91.1-.14a7.47,7.47,0,0,0,.87.39,1.44,1.44,0,0,0,.54,0c-.07-.14-.14-.29-.22-.43s-.06-.08,0,0l.14-.69h.26l.45.08.14-.15a4.94,4.94,0,0,0-.91-1.1,4.36,4.36,0,0,0-1.28-.4h0l-.14-.08-.16,0-.94-.32h-.16l-.28-.1a0,0,0,0,0-.06,0l-.36-.12h0v-.29l3.15.33a8,8,0,0,0,1.09.07c.19,0,.37-.18.55-.27-.1-.18-.16-.45-.31-.52-.5-.24-1-.42-1.55-.62l-.11-.44.66-.89h-.61l.23-.48a2.54,2.54,0,0,0-.94-1.54c-.07-.05-.08-.16-.11-.24l.32,0c.37.26.73.56,1.12.79s.43,0,.38-.3a2.74,2.74,0,0,1,0-.64c.08-.56.32-.86,1-.61.24.09.54.06.49-.35l.75.35c.16.08.36.24.48.2A10.31,10.31,0,0,0-.33,11c.13-.06.13-.37.19-.57a3.48,3.48,0,0,0-.56.12c-.29.11-.57.26-.85.39l-.07-.16A4.45,4.45,0,0,0-1,10.45,1.78,1.78,0,0,0-.71,10a2.17,2.17,0,0,0-.56-.22A3.25,3.25,0,0,0-2,9.89l.09-.38-.15,0,0,.39-.87.25c-.18-.33-.1-.56.17-.85A3.37,3.37,0,0,0-2,8c.07-.21-.22-.53-.38-.87L-1.62,7l.2-.16.12-.11c0-.11,0-.23,0-.34l-.06-.31c.78,0,.78,0,.73-.75,0-.61,0-.65.64-.58.23,0,.47,0,.89,0L.46,3.54c.5-.16,1-.28,1.51-.49a3.74,3.74,0,0,0,.75-.59,6.28,6.28,0,0,0-.49-.54,1,1,0,0,0-.35-.15c.09-.15.15-.38.28-.42.58-.17.66-.63.71-1.12h0A1.64,1.64,0,0,0,3.37,0c.41-.37.78-.79,1.42-.67l.37.24L6.91-.59l.77.4L8-.06C7.93,0,7.83.1,7.73.11a1,1,0,0,0-1,1.12c0,.07-.09.14-.15.21A2.05,2.05,0,0,0,6.34,1a4.11,4.11,0,0,0-.5-.42,1.43,1.43,0,0,0-.21.56A5.36,5.36,0,0,0,6.1,3.24a.53.53,0,0,0,.78.23c.13-.06.18-.35.23-.55a3.56,3.56,0,0,0,0-.57c.14,0,.38,0,.39.12a6.66,6.66,0,0,1,.12,1c-.12,0-.29,0-.35.12A.75.75,0,0,0,7.9,4.82l.21.36-.7.44-.24-.51a2,2,0,0,0-1.59.74,1.24,1.24,0,0,0-.2,1.72L4.94,8l0,.13.62,0,.25-.54c.2.19.4.39.62.57s.39.14.46-.17c.12-.57-.06-.76-.77-.82V6.21h0a.23.23,0,0,1,.07.07c.33.47.71.82,1.35.54.06,0,.19.09.29.15-.21.1-.42.18-.62.3a.48.48,0,0,0-.24.25,1.2,1.2,0,0,0,.87,1.18l-.57.62c-.14-.57-.7-.6-1.09-.68A9.9,9.9,0,0,0,4,8.44c-.19,0-.48.4-.52.65s.25.48.6.48c.11,0,.23.07.35.09.57.08,1.13.19,1.7.22a5,5,0,0,0,1-.13l.48.69-.92-.09a11.69,11.69,0,0,0-1.32-.08,1.16,1.16,0,0,0-.8.28c-.13.15,0,.52,0,.78a1.42,1.42,0,0,0,.24.39l-.42,0c-.13-.26-.2-.58-.4-.74s-.39-.43-.23-.78a.49.49,0,0,0,0-.43c-.1-.09-.39-.16-.44-.1a1.74,1.74,0,0,0-.47.8c0,.16.28.39.47.55a1.85,1.85,0,0,0,.47.2l-.37.63.12.17.9-.31A1.72,1.72,0,0,0,5.11,13a12.44,12.44,0,0,1,1.54,1.26,1.47,1.47,0,0,1,.36,1c0,.3,0,.46.24.62.61.35.75,1,1,1.59-.2,0-.48-.3-.61.12H7.15a1.94,1.94,0,0,0-.76-1.49A1.18,1.18,0,0,1,6,15.2c0-.49-.19-.77-.62-.77s-.42.4-.48.73c-.11.57.44.82.54,1.26a3,3,0,0,0,1,1.55L6.08,18l.07.53a3.82,3.82,0,0,0-.91,0,4.62,4.62,0,0,0-.78.43c-.46-.24-.94-.46-1.4-.73a.85.85,0,0,1-.32-.42c-.15-.39-.42-.66-.81-.59-.23,0-.42.33-.64.52l-.9.05.29.74a3.78,3.78,0,0,0-.73,0,3,3,0,0,0-.71.25c.11.25.15.6.34.75.4.3.89.49,1.32.75.88.54,1.74,1.11,2.61,1.66l-.15.11.34.09.14,0c0,.87-.28,1.31-1,1.36L3,24.1c-.37.27-.25.52,0,.76a9.74,9.74,0,0,1,.89.8,1.77,1.77,0,0,1,.21.6,2.54,2.54,0,0,1-.57-.19c-.33-.22-.62-.52-1-.71-.15-.08-.39,0-.59,0a2.8,2.8,0,0,0,.09.58c0,.12.16.21.25.33-.73.37-.72.35-1.29,0C.23,25.92-.6,25.54-1.41,25.13ZM.18,17.76c-.59-.24-1.12-.47-1.66-.67a1.08,1.08,0,0,0-.59,0,2.45,2.45,0,0,0-.58.34c.15.16.29.46.46.47.72.07,1.46.06,2.19.07C0,17.94.07,17.87.18,17.76ZM4.59.9c-.07.08-.12.11-.13.16a1.38,1.38,0,0,0,0,1.31c.18.32.26.69.45,1,0,.09.31,0,.47.07a3.59,3.59,0,0,0,0-.47c0-.24-.22-.49-.18-.71C5.26,1.66,4.88,1.33,4.59.9ZM-.32,7.67c.33,0,.53.06.72.11A1.13,1.13,0,0,1,.88,8c.17.18.31.5.59.26a2.45,2.45,0,0,0,.41-.77c-.2-.09-.4-.2-.6-.28s-.22,0-.31,0C.44,6.92.13,7.22-.32,7.67ZM-1.45,18.88l.13-.2a1.58,1.58,0,0,1-.42-.24.66.66,0,0,0-1-.07.44.44,0,0,0,0,.37A2,2,0,0,0-1.45,18.88ZM.62,10.81l0,.23a.61.61,0,0,0,.81.28c.08,0,.07-.28.1-.43Zm-2.27,1.61a5.32,5.32,0,0,0-.63-.55s-.19.14-.29.23a4.85,4.85,0,0,0,.49.52S-1.87,12.53-1.65,12.42Z"/><path class="cls-7" d="M1.88,1.77a1,1,0,0,1,.35.15,6.28,6.28,0,0,1,.49.54A3.74,3.74,0,0,1,2,3.05c-.49.21-1,.33-1.51.49L-.61,3l-.85-.51c-.83.76-.86.75-1.55-.21-.5.33-.79.14-1-.41a.43.43,0,0,0-.38-.19c-.42.08-.59-.06-.43-.47A9.91,9.91,0,0,1-4.2.1c.14-.25.31-.46.12-.83-.09-.18.15-.67.38-.81a.69.69,0,0,1,.91.06.86.86,0,0,0,1,.21c.34-.16.71-.26,1.05-.43a.72.72,0,0,0,.3-1,5.21,5.21,0,0,1-.28.52,4.7,4.7,0,0,1-.38.5l-.42-.48a1.1,1.1,0,0,1-1.27.33c-.65-.3.33-.61,0-.95l-.11,0-.7,0c.14-.24.24-.65.45-.71C-2-3.92-2-5.23-1.15-5.87L-1.3-6l-.32.29C-2.33-5-3-4.35-3.75-3.69a.88.88,0,0,1-1.35,0c-.29-.28-.14-.56.11-.74a3.28,3.28,0,0,1,.7-.27l.36-.42s0-.07,0-.11A4.72,4.72,0,0,0-2.2-6.95a6.19,6.19,0,0,1,.8-.73h0l.1.12.13.17.42.16v.11l-.37.39.08.1.55-.14.16.18.11.34,0,.11-.29.47.21.12L0-6.15v-.21H0L.2-6.48H.36c0,.11,0,.32.08.33.57.16.43.61.46,1A1,1,0,0,0,1-4.83l.19.13h0l0,.12a.94.94,0,0,1-.61,1v1.3a.82.82,0,0,0,.31-.52c.1-.7.39-.91,1-.75.12,0,.26-.05.39-.09l.14-.26h.19c0,.33-.09.58-.49.58-.08,0-.16.15-.25.23L2.22-3a1.18,1.18,0,0,0,.21,0v.47l-.11.21.06.1.16.12a2.08,2.08,0,0,0,.15.4c.38.59.28.85-.34,1.15A3.84,3.84,0,0,0,1.66,0L1.22.2l.63.44-.6,1Zm-4-4.72.16.09.88-1.5-.23-.13ZM.57,1.47c.51,0,.65-.36.39-.95Z"/><path class="cls-8" d="M44.3,30.27l.46.11a1.1,1.1,0,0,1-1.6.44c-.14.62-.26,1.19-.41,1.75,0,.13-.21.23-.32.34-.21-.41-.43-.16-.64,0s-.4.35-.6.52l-.09-.11a4.65,4.65,0,0,0,.13-.9c0-.07-.38-.18-.57-.16a2.62,2.62,0,0,0-2,2l.26,0-.61,1.39h-.11c-.11-.42-.33-.27-.56-.11l-.52-1A2.37,2.37,0,0,0,36,32.12l-1.07,1.25c-.45-.13-1,.05-1.11.39a4.28,4.28,0,0,0-.07.81,3.21,3.21,0,0,0-.44-.46,9.43,9.43,0,0,0-1.22-.74c-.25-.13-.65-.72-.54-.94a3,3,0,0,0,1.08.15,15.07,15.07,0,0,0,1.94-.72c.11-.05.27-.21.27-.31a.76.76,0,0,0-.22-.41c-.41.16-.6-.19-.73-.41a1.42,1.42,0,0,0-1-.73c-.1,0-.17-.19-.25-.28a1.43,1.43,0,0,1,.53,0,1.06,1.06,0,0,0,.35-.15c-.06-.09-.12-.27-.19-.28a15,15,0,0,1-2.39-.42.32.32,0,0,0-.29.16.53.53,0,0,0,.11.38.82.82,0,0,0,.33.19.67.67,0,0,1,.43.95c-.07.2.15.53.28.77s.25.19.45.33l-.67.55c-.26.12-.69-.41-.83.21-.14-.05-.37-.06-.43-.17a1.38,1.38,0,0,0-1.36-.83c-.5,0-1,0-1.5,0a6.73,6.73,0,0,0,.21-.86,3.15,3.15,0,0,0,0-.81,1.37,1.37,0,0,0-.17-.37c.22-.19.45-.38.73-.6v.63c.1,0,.17,0,.23,0a2.54,2.54,0,0,0,1.43-2.94.81.81,0,0,0-1.15-.57l-.49.19.15-.62.13-.16.09-.09c.41-.4.39-.75,0-1.06a6.33,6.33,0,0,1-.59-.69l-.35.33h0l-.21.16-.94.12L25.61,24a5.65,5.65,0,0,1,.76-.41.76.76,0,0,0,.43-1c-.16-.43-.52-.33-.87-.26a2.05,2.05,0,0,0-1.31.91c-.19.26-.46.45-.66.7a7.23,7.23,0,0,0-.44.64l.73.31h0v.34l-.07.22.07.24.09.09h.25l.15.12c-.39.39,0,.75.05,1.12,0,0,0,.05,0,.06l.21.25.28.11.5.42L26,28l-.46.54.23.76-.88.31a5.4,5.4,0,0,0-.18-.57c-.09-.21-.28-.4-.3-.62-.05-.46-.27-.5-.63-.34l-.55.23a3.49,3.49,0,0,1-1.7,0A14,14,0,0,1,23,27.92c.64-.15.93-.36.78-1,0-.19,0-.4,0-.6a.61.61,0,0,0-.19-.39c-.05,0-.24.07-.36.13s-.33.21-.49.31c-.55.35-1.12.67-1.65,1.05-.15.11-.19.37-.3.61l.61.12A1.12,1.12,0,0,0,21.3,30v.37h0l-1.1-.23a4,4,0,0,0,0-.49c0-.17-.17-.33-.17-.49,0-.47,0-.86-.64-.53a.24.24,0,0,1-.19,0c-.28-.5-.7-.23-1-.31l-.39-.17-.07-.06-.07-.75-.68.24s0,.06-.08.08l-1,.79-.15-.05-.82-.49-.13.75c-.11-.09-.26-.16-.31-.27s-.15-.54-.28-.79a.4.4,0,0,0-.36-.15.59.59,0,0,0-.28.35,1.34,1.34,0,0,0,0,.48l-1,.18-.15.7a5,5,0,0,0,2.58,1l0,0c-.12,0-.26.14-.37.12-.76-.15-1.18.2-1.08,1a1.28,1.28,0,0,1-.05.27c.48.19.76-.5,1.22-.21a.23.23,0,0,0,.07.07l-.16.89-.17,0-.06-.5c-.29.34-.76.38-.61.89.28.27.53.57.83.81s.77.53,1.11.84.49.56.9.2a.46.46,0,0,1,.41,0,6.06,6.06,0,0,1,.76.48c0,.37-.17.5-.54.45a5.61,5.61,0,0,1-1-.23,7.75,7.75,0,0,1-1.75-1l-.09-.11c-.08-.29-.24-.26-.43-.11h-.15l-1.29-.76-1.21-.78L9.57,31.37v-.31a8.7,8.7,0,0,0,.89-.15.53.53,0,0,0,0-.43.69.69,0,0,0-1.1.45l-.58.13A.85.85,0,0,1,9,29.76l-.94-1.54c.14,0,.2,0,.24,0a2.34,2.34,0,0,0,2.1.25c.33-.08.42-.32.18-.56a1.08,1.08,0,0,0-.57-.27c-.68-.09-1.37-.15-1.87-.2l-.28-.66,0-.31.45.06.33-.11h.08l-.1.54h.56c.61.51,1.36.36,2.06.41.15,0,.32-.14.49-.22l-.35-.42,0-.11c.07-.12.13-.24.19-.37l.59.12a3.24,3.24,0,0,0,.49-.45c.07-.1.14-.31.09-.38a1.94,1.94,0,0,0-.45-.35c-.13-.58-.22-.62-.71-.36l-.1.74-.38.11a.43.43,0,0,1,0,0,.3.3,0,0,0,0-.1c.11-.41.12-.79-.32-1l-.32-.19c-.31-.74-1.27-.61-1.68-1.23,0-.07-.27,0-.41-.05a.91.91,0,0,0-.7-.88l-.58.63L7,22.64,7,22l1.25-1.24.4.17.55.16h.17l.18.27,0,.21c-.2.3,0,.33.24.33.57.38.65.37,1-.17L11,21.4l.22-.4.77.5.62.57L14,24.93l-1.22-.27a1.33,1.33,0,0,0,1.07,1.08c.12.27.17.62.3.65.38.1.9.24,1.16.05.57-.4,1,.17,1.54,0,.23,0,.39,0,.52-.26.22-.42.49-.81.69-1.14a5.08,5.08,0,0,0,.72.57,8.76,8.76,0,0,0,.91-1c.45.21.44-.15.43-.45.11,0,.25.1.34.07A1.85,1.85,0,0,0,21,22.85a2,2,0,0,0-.3-.46c-.09-.12-.19-.28-.31-.31s-.24.1-.35.17-.3.24-.44.35a1.09,1.09,0,0,0,.08-.31,5,5,0,0,0-.08-.54,2.41,2.41,0,0,0-.54.16,2.54,2.54,0,0,0-.44.37l-.25-.61c-.37.21-.36.55-.31.92l.44,0-.22.48,1.21-.22c-.11.26.15.71-.42.77.12-.51-.25-.5-.5-.39a3,3,0,0,0-.8.66,3.22,3.22,0,0,0-.41.56l-.18-.09c0-.14,0-.34.05-.42a2.29,2.29,0,0,0,.48-2.05,6.32,6.32,0,0,0-.24-.85h-.2a2.51,2.51,0,0,1,.33-.4c.36-.31.27-.52-.07-.78-.15-.12-.17-.39-.26-.58s-.17-.42-.3-.45a1.21,1.21,0,0,0-1.42,1.13c0,.34,0,.67,0,1-.17,0-.24,0-.27,0a.62.62,0,0,0-1,0c-.07.08-.23.08-.35.11v-.42c.13-.1.38-.19.38-.3a13.59,13.59,0,0,0,0-2.3,1.67,1.67,0,0,0-1-1.43c-.54-.23-.83.11-1.12.46l-.3-.49-.26.38-.2,0a1.51,1.51,0,0,0-.24-.36c-.51-.42-.55-.66-.18-1.2a2.19,2.19,0,0,0,.13-.19c-.2-.27-.47-.47-.46-.66,0-.62.61,0,.87-.42L11,13.88c.18-.15.52-.35.5-.43-.17-.56.28-.78.46-1.16a2.81,2.81,0,0,1,1.52-1.17,2.43,2.43,0,0,0,1.23-1.34A6.65,6.65,0,0,0,14.93,9l.66.16.28.56L16,9.7V9.19a.07.07,0,0,1,.07-.06l.34.28-.68.73-.18-.1c.07.35.16.69.2,1,0,.1-.11.22-.17.34l-.05,0,0,0v.12l-.59.35-.26.09.15.22-.71,1.38.58.27c.13.07.33.14.37.25.13.4.63.71.36,1.23,0,.06,0,.17.09.25a3.4,3.4,0,0,0,2.47,1.92c.46.06.88.23.92-.48,0-.12.18-.22.25-.34s.25-.34.22-.46a1,1,0,0,1,.4-1c.24-.22.43-.49,0-.76l-.23-.06-.22.09-.23-.24c0-.31-.12-.69.29-.91,0,0,0-.29-.05-.42a6.79,6.79,0,0,1-.35-.95c-.11-.72-.41-1-1.14-1a3.07,3.07,0,0,1-.58-.1,2.29,2.29,0,0,0-.37,0c-.54,0-.67-.1-.56-.62,0-.14.05-.28.07-.41l.83-.24.05-.16c-.17-.12-.35-.21-.51-.34a2.24,2.24,0,0,1-.27-.34H17l.57.24c.05.23,0,.54.16.68s1.2.08,1.52-.3L18.64,9l-.22-.59.33-1L18,7l.1-.32.22-.31.13-.11h0c.53-.29.62-.61.32-1.14h0c-.18-.14.47-.49-.13-.53a.1.1,0,0,0-.09,0V4.4h.05l0,0,.45-.21-.4-.77.64-.55a4.52,4.52,0,0,0-.58-.5,8.84,8.84,0,0,1-.93-.44,3.25,3.25,0,0,0-2.24-.71c-.1,0-.2-.11-.29-.1-.57,0-.63-.3-.58-.72s.15-.64.16-1c0-.67.4-.85,1-.87l.52-.42-.43-.2-.19-.3-.37.28c0-.13-.06-.26-.1-.4l.77-.47a.43.43,0,0,0,.18-.23c0-.36.47-.71.06-1.1l.2-.22L17.81-3c-.24.28-.52.55-.33,1a2.55,2.55,0,0,0,1.89,1.5,2.34,2.34,0,0,1,.71.21c.41.27.66.2.82-.25l.43.27a3.34,3.34,0,0,0-.1.62c0,.42.95,1.34,1.36,1.35.06,0,.12-.09.19-.14.14.37.32.63.72.27a6.1,6.1,0,0,0,.82.79,1.62,1.62,0,0,0,.68.12,3.15,3.15,0,0,0,.5.68c.4.3.84.54,1.27.81-.44.37.11.64.1,1h0l-.37.25.06.14-.94.06-.19.48c-.78-.15-.85-.07-.69.66a2.09,2.09,0,0,1-.08.59,1.36,1.36,0,0,0,0,.35l-.8-.13c-.13-.48-.25-1-.38-1.44,0,0-.09,0-.13-.08v-.2h0l.08-.12a1.11,1.11,0,0,0-.9-.77c-.81-.23-1.62-.51-2.44-.75a.57.57,0,0,0-.45,0c-.07.07-.06.3,0,.43.09.35.22.69.33,1l.07.4L20.2,6l.62.14-.08.36-.76,0-.12,0-.12.33,0,.6c0,.27-.21.64-.09.81s.58.23.93,0A1.89,1.89,0,0,1,21.43,8C22,8,22.65,8,23.27,8l-.36.65c-.34-.42-.34-.42-1,.06l.26.41c-.31.13-.59.23-.86.37-.67.36-1.77.33-1.49,1.59,0,0-.05.07-.05.09,0,.19,0,.46.11.54a.73.73,0,0,0,.61.09c.38-.14.73-.38,1.1-.56a1.67,1.67,0,0,1,.49,0l-.6.68c.8,0,.69-.9,1.25-1.14.06.09.12.18.17.27l.8-.43c-.46-.4,0-.56.18-.78a4.72,4.72,0,0,0,.24.56c.17.27.36.52.54.78l-.2.52c-.12.46.21.78,1.06,1.08L26,12.4l.15.53a3.06,3.06,0,0,0,.36-.35c.19-.35.36-.71.53-1.07l.66-.16.36.46c-.12.48-.23.95-.34,1.44,0,0-.17,0-.21.07s0,.32,0,.34.27,0,.41,0c0,.24.05.48.08.86.83-.68,1.27-.08,1.79.43l.38-1.46,1.64,1.34c.19-.12.44-.39.67-.38a8.61,8.61,0,0,1,1.41.29l-.17.58-.56,0,.43,1.05.49-.25,2.3-.42V14.08c-.35,0-.51.25-.57.61a.48.48,0,0,1-.33.32c-.15,0-.32-.08-.49-.14a3.68,3.68,0,0,0,.21-.45,4.68,4.68,0,0,0,.1-.54c-.63,0-.42-.55-.55-.89l-.36-.06L36,12.62a1.65,1.65,0,0,0,.47-.08A2.31,2.31,0,0,1,37.87,12c.12,0,.32-.18.38-.33.3-.72.56-1.45.86-2.24l.39.49.17-.1c-.07-.17-.14-.35-.22-.52s-.12-.16-.16-.25c-.16-.33-.31-.67-.47-1,.06-.06.1-.16.17-.17.35-.06.68.14,1,.16a12.68,12.68,0,0,0,1.68-.14V7.24l.22-.12.54,0a5.82,5.82,0,0,0,1.16.18c.1,0,.18-.42.27-.64l.83-.24A1.5,1.5,0,0,0,45.83,8l-.67-1.65.17-.17a2.31,2.31,0,0,0,.59,0c.14,0,.24-.18.36-.27a.1.1,0,0,0,0,0s0,0,.06,0l.57-.2.27-.08.49.29a2.87,2.87,0,0,0-.66.27.75.75,0,0,0-.1.44c.54.16,1.09.31,1.67.46a1.5,1.5,0,0,0-.18.38,1.37,1.37,0,0,0-.06.69c0,.08.37.05.54.12s.42.21.43.33a5.12,5.12,0,0,1-.11.94L49,8.81l-.14,0a1,1,0,0,0-.07.44c.13.44.33.87.47,1.32a3.39,3.39,0,0,1,.06.64c0,.13.06.25.09.37.1-.1.26-.17.3-.29s-.07-.4,0-.51a2.08,2.08,0,0,0,.54-1.19c0-.17.26-.35.4-.52l.14.09-.33,1.11-.11.44.11.09.32-.39.54-.65,0,.46.17,0-.09-.58,1-1.21.52.53c-.1.17-.36.53-.3.6a2.43,2.43,0,0,0,.76.45c-.27.16-.43.31-.11.61.13.11.08.43.11.65l-.2.12L53,10.9c-.59.68-.7.67-1.13.08a1.72,1.72,0,0,0-.34-.24l-.1.11.3.48c-.55.2-.55.21-.23,1.17a1.39,1.39,0,0,0,.22-.15c.36-.49.9-.42,1.4-.44a6.8,6.8,0,0,1,.9.06l-.08.64-1,.29v.15l.35.2-.54.57-.07-.75-.54.2-.31-.19-.06.08.18.21a5,5,0,0,0-1,.8c-.47.67-.83,1.42-1.26,2.12a2.36,2.36,0,0,1-.49.45l-.11-.12.19-.53L49.22,16l-.67.85-.18.12-.24,0c0-.08,0-.16,0-.24s0-.27,0-.41a2.69,2.69,0,0,0-.27.32c0,.05,0,.14,0,.21l-1.3.46,0,.13,1.15.35,0,.18-3.36,1.14.12-.64-1.75.28-.06-.1.62-.66c-.31-.16-.64-.31-1-.48a2.14,2.14,0,0,1-.32-.28l.5-.38.11.46,1.37-1-.68-.05a2.26,2.26,0,0,1,.75-.24c.83.07.82.1,1.11-.7,0-.15.19-.26.26-.4a4.76,4.76,0,0,0,.19-.53c.67,0,.43-.51.43-.87,0-.18,0-.37,0-.55s0-.26,0-.39h-.44l-.13,0h-.24l-.19-.09c-.25-.39-.06-.65.25-.87s.65-.4.95-.63a1.25,1.25,0,0,0-.13-2v.88c-.82.49-.85,1.77-1.94,2l-.6-.11a2,2,0,0,0-.1.63c.15.71.06,1.49.66,2.07.12.13.12.38.18.57l-.16.07c-.24-.37-.47-.74-.72-1.11A1.31,1.31,0,0,0,42,13.37c-.21.11-.46.13-.68.22s-.49.22-.49.33a7.91,7.91,0,0,0,.2,1.2l-.62.21c.41.72.5.71,1-.05.19.06.43.24.55.18.55-.26.86.16,1.25.35h0l-.22.33.33.1-1.06.48c-.45-.13,0-.94-.81-.81l.33.68c-.68.09-1.29.15-1.9.26a3.29,3.29,0,0,0-.68.26c-.08,0-.16.13-.23.12-.89-.18-1.4.45-2,.94-.27.22-.28.43,0,.62l.85-.22c-.38,1-.38,1,.15,1.07,0,.18,0,.35,0,.56.44,0,.83.13,1.18-.27s.61-.24,1,0L39.1,21.3l.11.13.54-.21a1,1,0,0,0,1.59.82,10.71,10.71,0,0,1,1.25-.32c-.26.39-.37.76-.93.59a.62.62,0,0,0-.57.21,11.39,11.39,0,0,0-.5,1.55l1.15-.8c.16.84.3.88,1,.35.39-.31.84-.54,1.2-.87.55-.5,1-1,1.56-1.57,0,0,0-.16,0-.29l-.45.23c0-.73.29-1.21.71-1.32a2.49,2.49,0,0,0,0,.82c0,.09.49.15.62.05a8,8,0,0,0,1.17-1.16c.23-.28.42-.53.88-.47l-.46,3.3h.66c-.11.22-.16.46-.28.51-.72.3-.79,1.06-1.17,1.6l-.1.24-.1.14-.59,1.08.17.1c.28-.26.68-.45.53-1l.38-.12v2.44l.56-.18-.17,1a3.42,3.42,0,0,0-.64,0,1.06,1.06,0,0,0-.6.21,3.12,3.12,0,0,0-.41.74l-.83.25-.05.19-.15-.4c.13-.39.25-.79.39-1.23a2.25,2.25,0,0,0-1.49,2.22C44.06,30.17,44.22,30.21,44.3,30.27ZM39.6,10.76l-.37-.23-.16.73.19.05.34-.56a1.38,1.38,0,0,0,2,1,.48.48,0,0,0,.21-.4,13.61,13.61,0,0,0-.57-1.81c-.06-.16-.4-.19-.61-.28,0,.23,0,.45,0,.68s.06.49.09.74L40,10.57ZM36.4,24.25l-.11-.12c.12-.46.25-.92.34-1.39a1.73,1.73,0,0,0-.06-.49,1.9,1.9,0,0,1,.67,0,10.19,10.19,0,0,1,1.13.59l-.44.18a.7.7,0,0,0,.5.18c.36,0,.71,0,1.06,0A1.32,1.32,0,0,0,39.9,23c-.11-.09-.22-.19-.34-.27s-.41-.23-.39-.3c.11-.51-.26-.69-.62-.89l.29-.47-.08-.18-1.51.41-.08-.19c.26-.14.53-.21.66-.39a.56.56,0,0,0-.14-.54,1.57,1.57,0,0,0-.66.09l-.32.06c-.5.07-.65.28-.57.84l.43-.14.12.11c-.22.32-.33.83-.76.88s-.46.3-.55.62l.51.15c-.15.44-.26.88-.92,1,0-.26.09-.44.11-.62,0-.36.21-.81.06-1.05A1.48,1.48,0,0,1,35,20.73c0-.14-.14-.41-.28-.52s-.34.12-.48.24-.16.24-.26.34-.21.18-.25.16a.43.43,0,0,1-.21-.27,5.4,5.4,0,0,0-.1-.92.8.8,0,0,0-.49-.45.62.62,0,0,0-.48.39A6.47,6.47,0,0,0,32.59,21a1.32,1.32,0,0,0-.89,1.36c0,.08-.15.16-.19.25a2.09,2.09,0,0,0-.13.49c0,.12.07.3,0,.36a2.22,2.22,0,0,0-.77,1.87c0,.08-.1.16-.13.24s-.07.26-.11.39l.55.08a2.22,2.22,0,0,0-.29.69c0,.1.23.3.37.32a2,2,0,0,0,.92-.08,2.87,2.87,0,0,1,1.67,0,2.19,2.19,0,0,0,1.7-.22c.18-.12.37-.21.5-.29l.37.5c.12-.13.25-.25.36-.39s.2-.34.34-.57l.45,2.28.71-.9c.06.31.07.53.13.73s.14.25.23.26a.35.35,0,0,0,.29-.18,2.7,2.7,0,0,0,.08-.57c0-.14,0-.38,0-.4.45-.18.37-.55.4-.91a4.78,4.78,0,0,1,.17-.82c.11-.43.25-.85.35-1.29,0-.06-.16-.16-.18-.18,0-.21.06-.45,0-.51a.76.76,0,0,0-.5,0,6.08,6.08,0,0,1-1.29.32A1.58,1.58,0,0,0,36.4,24.25ZM25.52,18.41c0,.42.35.25.58.37.51.25.62,0,.8-.37a1.22,1.22,0,0,1,.46-.44,7.48,7.48,0,0,1,.8-.39l.4,1.14A1.22,1.22,0,0,0,28.34,17c-.14-.13-.14-.41-.23-.61s-.23-.45-.34-.68c-.19.17-.37.35-.56.51a4.87,4.87,0,0,1-.43.33l.06-1a6.53,6.53,0,0,0-1,1c-.43.47-.94.88-1,1.58a5.44,5.44,0,0,0,0,.57ZM23.6,15.8a.79.79,0,0,0,0-.22c-.06-.25-.14-.5-.21-.74-.25.12-.51.23-.75.36-.08.05-.11.15-.18.21A6.27,6.27,0,0,0,21.18,18a2.46,2.46,0,0,0,0,.72,2.43,2.43,0,0,0,.77-.08C23.15,18.08,23.4,17,23.6,15.8Zm-3.08,5.94c.62.49,1.08.76,1.48,0,0,0,.09,0,.15-.06a1.69,1.69,0,0,0,1.18-1.66A.9.9,0,0,0,22,19.19a1.48,1.48,0,0,0-.64.57C21,20.41,20.79,21.1,20.52,21.74Zm25.27,2.45c-.44-.18-.7-.4-.91-.36a4.11,4.11,0,0,0-2.3,1.53,2.59,2.59,0,0,0-.41.77.44.44,0,0,0,0,.39,1.35,1.35,0,0,0,1.33-.1ZM26,20l-.37,1.18.16.09c.5-.52,1-1,1.47-1.55a4.38,4.38,0,0,0,.45-.75.57.57,0,0,0-.21-.87l-.9,1.33L26.13,19a6.39,6.39,0,0,0-.58.67c-.07.11,0,.29,0,.44Zm20.68-4.82a2.11,2.11,0,0,0-.37.15,4.06,4.06,0,0,0-.36.26,2,2,0,0,0,.34.27,3.15,3.15,0,0,0,.9.19.85.85,0,0,0,.68-.24c.11-.17,0-.5,0-.73a3,3,0,0,0-.33-.54.7.7,0,0,0-1-.3c-.2.15-.26.47-.38.72ZM41.33,25c-1.08-.09-1.54.42-1.92,2.13a3.25,3.25,0,0,0,.83-.3,3,3,0,0,0,.65-.8A8.18,8.18,0,0,0,41.33,25Zm1.33-14.41c.31,0,.51-.11.42-.53A1.4,1.4,0,0,0,42,8.93c-.12,0-.43.19-.47.34C41.42,9.71,42.17,10.56,42.66,10.57ZM40.5,12.63l-.08-.15c-.55.16-1.16,0-1.64.43a1.14,1.14,0,0,0-.31.5c0,.1.13.34.22.34a2.17,2.17,0,0,0,1.54-.64C40.37,13,40.42,12.79,40.5,12.63ZM29.77,17.45c.1-.47.74-.37.6-.91a9.39,9.39,0,0,0-.18-.95.56.56,0,0,0-.33-.38.52.52,0,0,0-.38.31A2.22,2.22,0,0,0,29.77,17.45Zm6.65.57.16.11c.15-.12.3-.23.44-.36s.43-.39.64-.59.32-.36.48-.54l-.79.07a.39.39,0,0,0-.14.08c-.21.15-.4.32-.66.08,0,0-.26,0-.26.05a.44.44,0,0,0,.06.32c0,.07.18.08.27.12ZM15.3,16.24c0,.09-.19.28-.15.35a15.14,15.14,0,0,0,1,1.26.74.74,0,0,0,.4-.27C16.62,17.21,15.8,16.26,15.3,16.24Zm28-3.34a8.43,8.43,0,0,0-.57-.84c-.14-.16-.39-.38-.53-.35-.6.16-.28.69-.33,1.07,0,.07.17.25.26.25C42.51,13,42.86,13,43.32,12.9Zm1.94-4.38a14.85,14.85,0,0,0-1.5.4c-.11,0-.17.3-.19.47s.15.21.24.23C44.22,9.72,45.13,9.06,45.26,8.52ZM36.5,16.21l.13.12a1.22,1.22,0,0,0,.94-.85c0-.17-.29-.45-.48-.71-.38.36-.45.62-.06.87ZM49,15.27l.15.06c.06-.18.12-.36.19-.54s.1-.25.15-.37l.22-.42a1.3,1.3,0,0,0-.48-.16.93.93,0,0,0-.4.16ZM19.71.53c-.07-.75-.69-1.09-1.66-1C18.43.15,19.13.14,19.71.53ZM23.48,21.3c-1,.41-1.33.77-1,1.35C22.8,22.21,23.41,22,23.48,21.3ZM47.1,8.45l1-.79L48,7.44a1.87,1.87,0,0,0-.68.11C47,7.71,46.88,8,47.1,8.45ZM41.91,29l.16.09L43,27.41l-.17-.09A2.75,2.75,0,0,0,41.91,29ZM11.49,23.66a7.44,7.44,0,0,0-.66-.46s-.26.22-.24.26a9,9,0,0,0,.46.79ZM26.76,13.44l.23.11c.21-.36.42-.71.61-1.08,0,0-.05-.16-.12-.21a.23.23,0,0,0-.19.05C27.11,12.68,26.94,13.06,26.76,13.44Zm-2,3.69c-.49,0-.54.38-.56.66a2.2,2.2,0,0,0,.21.71l.19,0Zm-.9-3.55-.36.3c.17.16.32.38.52.45s.3-.21.46-.32Zm11.79,5.65.2.24.65-.4c-.17-.07-.35-.22-.52-.2S35.79,19.1,35.68,19.23ZM20.71,9l.06.17a3.62,3.62,0,0,0,.47,0A5.29,5.29,0,0,0,21.78,9s0-.18,0-.18a2.51,2.51,0,0,0-.61,0A1.76,1.76,0,0,0,20.71,9Zm19.39-.6c-.52.46-.49.66.14,1ZM12,23.05c-.1.21-.21.36-.17.41a3.92,3.92,0,0,0,.46.45c.06-.08.19-.21.17-.25A6.48,6.48,0,0,0,12,23.05ZM35,21.5c.44.32.63.13.77-.12,0-.06-.06-.2-.1-.31Zm18.12-9.18-.1-.15-.41.32.09.11ZM15.27,11.4c-.09-.08-.14-.15-.2-.15s-.12.08-.12.12a.21.21,0,0,0,.13.13C15.13,11.51,15.19,11.45,15.27,11.4Z"/><path class="cls-9" d="M14.65,31.32c-.46-.29-.74.4-1.22.21a1.28,1.28,0,0,0,.05-.27c-.1-.76.32-1.11,1.08-1,.11,0,.25-.08.37-.12l0-.09-.05.07a5,5,0,0,1-2.58-1l.15-.7,1-.18a1.34,1.34,0,0,1,0-.48.59.59,0,0,1,.28-.35.4.4,0,0,1,.36.15c.13.25.17.53.28.79s.2.18.31.27h0c.11.14.18.34.32.42a4.83,4.83,0,0,0,.76.25l.08,0-.06-.06v-.85l1-.79s.05-.06.08-.08l.68-.24.07.75-.15.16.05.06.17-.16.39.17c.33.08.75-.19,1,.31a.24.24,0,0,0,.19,0c.65-.33.66.06.64.53,0,.16.13.32.17.49a4,4,0,0,1,0,.49h0l-.8.06,0,.15.84.59-.21.47-.36-.05,0,.1.37.26a1.59,1.59,0,0,1-1.48.27.56.56,0,0,0,0,.23c.12.47-.09.59-.52.55a.6.6,0,0,0-.47.18c-.29.57-.64.65-1.21.13l-.09.79L16,34c-.09-.13-.17-.26-.25-.4l-.11-.15h0c0-.1-.09-.2-.13-.29l-.16-.31c0-.38,0-.4-.32-.23h-.3l-.17-.19v-.11c0-.3.11-.59.16-.89l.1-.11.07-.09-.1,0ZM16,29.63,16,29.58l.07.05.12.15,0,0Z"/><path class="cls-10" d="M26.44,24l.95-.12.2-.16h0a2.09,2.09,0,0,0,.51.4.69.69,0,0,1,.43,1l-.09.09-.13.16-.15.62.49-.19a.81.81,0,0,1,1.15.57,2.54,2.54,0,0,1-1.43,2.94c-.06,0-.13,0-.23,0v-.63c-.28.22-.51.41-.73.6l-.21,0L26,29.43l-.25-.13-.23-.76c.09-.11.27-.33.46-.54l.48-.34c.42-.45,1.24-.47,1.33-1.29l-1.39,1.24-.28.06-.83-.21L25,27.35l-.21-.25s0,0,0-.06l.15-1.51-.19-.06-.16.33h-.25l-.09-.09-.07-.24.07-.22A2.12,2.12,0,0,0,24.6,25c.46-.4.84-1,1.59-.79C26.25,24.25,26.35,24.1,26.44,24Z"/><path class="cls-9" d="M21.3,30a1.12,1.12,0,0,1,.11-1.86L20.8,28c.11-.24.15-.5.3-.61.53-.38,1.1-.7,1.65-1.05.16-.1.32-.22.49-.31s.31-.17.36-.13a.61.61,0,0,1,.19.39c0,.2,0,.41,0,.6.15.63-.14.84-.78,1a14,14,0,0,0-1.51.39,3.49,3.49,0,0,0,1.7,0l.55-.23c.36-.16.58-.12.63.34,0,.22.21.41.3.62a5.4,5.4,0,0,1,.18.57l-.08.09-.22.16-.63-.1-2,.31Z"/><path class="cls-8" d="M24.89,31.22,22.72,31,23,30.5l-.09-.14-.89.23.45.35a.13.13,0,0,1,0,.09,4.45,4.45,0,0,0-.69.52,2.09,2.09,0,0,0-.24.59c-.16,0-.44,0-.46-.07a1.51,1.51,0,0,1,0-.67c.06-.34.18-.67.26-1h0c.23-.08.64.21.65-.32l2-.31c.09.17.19.33.27.51s0,.16,0,.24a8.46,8.46,0,0,0-.88-.08s-.08.2-.13.3a.84.84,0,0,0,.29.08c.21,0,.42-.07.63-.11a5.79,5.79,0,0,1,.57.25A1.55,1.55,0,0,1,24.89,31.22Z"/><path class="cls-9" d="M27,29.76c.31.75-.38.73-.74,1l-.64-.06,0,0,.33-.56.22-.21A.6.6,0,0,1,27,29.76Z"/><path class="cls-8" d="M27,29.76a.6.6,0,0,0-.85.09L26,29.43l1.22-.12Z"/><path class="cls-8" d="M24.56,29.86l.22-.16-.1.32Z"/><path class="cls-10" d="M11.4,26.66l0,.11c0,.32-.13.48-.45.44-.59-.06-1.17-.14-1.75-.21h0l-.46-.54H8.68l-.31-.24,0,.35-.44-.06c-.42-.1-.83-.22-1.25-.3a.68.68,0,0,0-.41.1s0,.24,0,.26a1.08,1.08,0,0,0,.46.18,7.34,7.34,0,0,0,.81.05l0,0,.33,0,.28.66c.5.05,1.19.11,1.87.2a1.08,1.08,0,0,1,.57.27c.24.24.15.48-.18.56a2.34,2.34,0,0,1-2.1-.25s-.1,0-.24,0L9,29.76a.85.85,0,0,0-.23,1.3c0,.31,0,.53-.43.3-.09-.06-.23,0-.34,0s-.29.13-.41.09a.82.82,0,0,1-.47-.29c-.06-.07.06-.28.11-.42l.7-.09,0-.13-1.83-1L6,30c-.61.81-.49-.25-.73-.3l-.15.64c-.49,0-1.06.11-1.3-.44l1.53-.61v-.19c-.8-.52-1.6-1-2.41-1.53-.08-.05-.32.06-.42.16a2.21,2.21,0,0,0-.26.61l-.44-.77A2.86,2.86,0,0,0,1,27.27a4.07,4.07,0,0,0-.89.16C0,27.27-.17,27.11-.32,27s-.38-.35-.57-.53l.28-.14v-.15l-1.26.16.46-1.17c.81.41,1.64.79,2.44,1.21.57.31.56.33,1.29,0-.09-.12-.22-.21-.25-.33A2.8,2.8,0,0,1,2,25.39c.2,0,.44-.11.59,0,.34.19.63.49,1,.71a2.54,2.54,0,0,0,.57.19,1.77,1.77,0,0,0-.21-.6,9.74,9.74,0,0,0-.89-.8c-.27-.24-.39-.49,0-.76h.33l0,0h.05l.76.37c.26.26.45.64.84.69l.1-.14-.73-.56a1.87,1.87,0,0,0,0-.75c-.16-.34-.61-.67.18-.81.08,0,.13-.19.2-.29l.31-.47,1.07.63.06-.51.84.37.06.18-.35.2-.1,0,.06.06L7.92,24l.2.15h0a.51.51,0,0,1-.34.75c0,.42.27.32.51.32l.27-.11,0,0,0,0,.83.23h0c.18.19.35.4.55.58a.48.48,0,0,0,.34,0,.26.26,0,0,0,.08-.22.51.51,0,0,0-.2-.26.88.88,0,0,0-.3-.07l-.06-.51h0l.89.1.34.59a.3.3,0,0,1,0,.1.43.43,0,0,0,0,0Z"/><path class="cls-11" d="M-9.41,19.75c.67.25,1.41.31,1.9.95a.6.6,0,0,0,.54.13c.11,0,.13-.32.24-.45a1.06,1.06,0,0,1,.4-.29,5.9,5.9,0,0,1,.6-.17,3,3,0,0,1-.38-.42A3.14,3.14,0,0,1-6.34,19l1.1.24h0l.18.23-.14.69c0-.05,0,0,0,0s.15.29.22.43a1.44,1.44,0,0,1-.54,0,7.47,7.47,0,0,1-.87-.39l-.1.14,1.24.91c-.29.49-.62.33-.93.19S-6.75,21.16-7,21l-.08.13,1.17,1.11-.08.13-1.1-.24,0,.14a2.74,2.74,0,0,0,2.47.67L-5,22.57l.17,0a4.53,4.53,0,0,1,.27-.81,3.18,3.18,0,0,1,.51-.6l.48-.52-.22-.32c.19-.2.65-.29.24-.64.49-.47,1-.63,1.51-.22,0,0,.12.05.13.09.29.88,1.17.76,1.78,1.07a2.66,2.66,0,0,1,.45.2,3.8,3.8,0,0,1,.42.47l-.52.31c0,.38.8,1.09-.4,1.13A2.83,2.83,0,0,1-.1,23c0,.21.16.56.09.61a1.2,1.2,0,0,1-.74.18,7.13,7.13,0,0,1-1.09-.32l.38.74-.74.2-.24.2.72.37c-.25,0-.61,0-.73-.15-.72-.92-.86-1-1.93-.55l-.29,0,.07.13-.05.3s-.13.09-.14.14c-.07.63-.51.67-1,.64a.84.84,0,0,1-.9-.75c-.07-.41-.06-.9-.64-1l0-.14,0,0,.08.12c-.06.11-.11.29-.19.31a2,2,0,0,1-2.28-.55s-.06-.1-.1-.13c-.27-.24-.72-.54-.43-.86a2.18,2.18,0,0,1,1.22-.38c.1,0,.26.29.38.47s.24.41.36.61l.16-.08-.54-1.09c.46-.08.76.8,1.27,0l-1.92-.47-.57-.11.51,0,0-.13-.65-.51a2.48,2.48,0,0,1,.27,0c.44.11.51,0,.38-.45l.88-.07C-8.82,20.06-9.51,20.44-9.41,19.75Zm3.33,4.47-.57-1.07-.14.08c.15.38.18.83.64,1.05s.87,0,1.29-.13l0-.16Z"/><path class="cls-11" d="M-.89,26.43c.19.18.39.35.57.53s.3.31.44.47c.28.41.62.07.93.08a2.46,2.46,0,0,1,.51.15,5.17,5.17,0,0,1,.07,1c0,.44.43.89,0,1.33l-.52-.31c.16-.19.41-.41.11-.61-.15-.11-.44,0-.66,0s-.15.09-.22.14l-.31,0-.66-.46a8.27,8.27,0,0,1-1.1-.47c-.39-.23-.74-.52-1.11-.78l.07-.09A2.37,2.37,0,0,1-.89,26.43Z"/><path class="cls-12" d="M4.17,24.48l-.76-.37H3l-.14-.62c.72-.05,1-.49,1-1.36l.73-.61L4.85,21c.48-.16.16-.41.07-.64L5.07,20l-.45-.85-.08-.07L4.46,19a4.62,4.62,0,0,1,.78-.43,3.82,3.82,0,0,1,.91,0L6.08,18,6.53,18l.09.07.23.16.4.13L7.58,18h0l.1-.1,0,0c.25,0,.4.65.75.14l.12-.18,1,.49a.57.57,0,0,0,0-.28c-.13-.4-.31-.78-.43-1.19-.06-.19-.14-.5,0-.61.39-.43.12-.78-.09-1.12s-.53-.73-.84-1.14a2.62,2.62,0,0,0,.51-.27A.78.78,0,0,0,9,13.26a1.42,1.42,0,0,0-.09-.57,5.23,5.23,0,0,0-.37-.7c-.07-.12-.15-.24-.23-.36l.07-.09v-.22l.1-.45-.33,0L8,10.79l0-.3-.18.08-.2-.13L7.1,9.75c.09-.14.17-.28.25-.42l.57-.62.2,0L8.31,9c.35-.23,1.06,0,.93-.75.11-.06.31-.11.31-.16s0-.42-.14-.5-.38-.1-.57-.15l.06.38c-.32-.07-.62-.18-.59-.6l0-.36L8.13,7,7.91,7c-.1-.06-.23-.18-.29-.15-.64.28-1-.07-1.35-.54a.23.23,0,0,0-.07-.07h0v.94l-.31.42-.25.54L5,8.08l0-.13.44-.38a1.24,1.24,0,0,1,.2-1.72,2,2,0,0,1,1.59-.74l.24.51.7-.44L7.9,4.82A2.11,2.11,0,0,0,8,4.09a2,2,0,0,0-.36-.62,6.66,6.66,0,0,0-.12-1c0-.07-.25-.08-.39-.12l0-.08.32-.63-.14-.1L7,1.69l-.39-.25c.06-.07.15-.14.15-.21a1,1,0,0,1,1-1.12c.1,0,.2-.11.29-.17l.33,0,.21-.12s0-.05,0-.08L9-.37c.24.44.55.42.91.15a.83.83,0,0,0,.34-1.13c-.08-.12-.34-.11-.64-.19,0,.05-.07-.08,0-.14a1.42,1.42,0,0,0,.24-1.39,4.93,4.93,0,0,1-.14-1.58L10.07-5a1.88,1.88,0,0,0-.44-.36,1.77,1.77,0,0,0-.52-.06L9-5.7l-.1,0-.24-.08L7.8-6.36l-.39-.16-.15-.06c.07-.12.12-.32.22-.35.55-.17.52-.42.07-.75.51-.51,1-1,1.47-1.44.07-.07.17-.22.15-.25-.34-.45,0-.68.28-.93a.06.06,0,0,1,.06,0L10-10.4l.33,0h.33l1.25-.26c.09.23.16.47.27.69a1.82,1.82,0,0,0,.31.31l0,0,.47,1a13.22,13.22,0,0,0-.74,1.1c-.07.12,0,.34.06.51l.45-.08c-.14.65-.26,1.3-.4,2a6.44,6.44,0,0,0-.2.72,1.76,1.76,0,0,0,.07.6c.16.64.73.91,1.21,1.21a2.22,2.22,0,0,0,2,.56l.37-.28.19.3-.09.62c-.57,0-1,.2-1,.87,0,.32-.12.64-.16,1s0,.77.58.72c.09,0,.19.07.29.1a2.74,2.74,0,0,0-.73.55c-.07.11.12.51.3.63a2.64,2.64,0,0,0,.9.29,5.14,5.14,0,0,0,.55.06v.11l-.83.22-.19.1-.25.11-.41,0-1.34-.43.29.62c-.09.11-.18.23-.28.33A.65.65,0,0,0,13.73,5a3.49,3.49,0,0,0,.44.2l.12.09.34.34,0,.23c-1.08-.3-1.71.09-1.52,1A2.94,2.94,0,0,0,14.93,9a6.65,6.65,0,0,1-.26.75,2.43,2.43,0,0,1-1.23,1.34,2.81,2.81,0,0,0-1.52,1.17c-.18.38-.63.6-.46,1.16,0,.08-.32.28-.5.43l.59.29c-.26.45-.84-.2-.87.42,0,.19.26.39.46.66a2.19,2.19,0,0,1-.13.19c-.37.54-.33.78.18,1.2a1.51,1.51,0,0,1,.24.36l-1.2-.24a2.73,2.73,0,0,1,0,.77,2,2,0,0,0-.08,1.78,1.28,1.28,0,0,1,.07.34c-.23-.08-.51-.29-.69-.23-.42.16-.62,1.24-.36,1.62l-.55-.16-.4-.17L7,22l.06.69-.84-.37-.06.51-1.07-.63-.31.47c-.07.1-.12.28-.2.29-.79.14-.34.47-.18.81a1.87,1.87,0,0,1,0,.75Zm9-24.8,0-.2.31-.22a1.5,1.5,0,0,0-.31-.35c-.19-.13-.43-.19-.62-.31-.35-.24-.67-.52-1-.75a.39.39,0,0,0-.35.07A2.15,2.15,0,0,0,10.47,0c.06.18.29.33.3.5,0,.72.57,1.08,1,1.5.14.12.53.19.62.1a1,1,0,0,0,.16-.68,2.11,2.11,0,0,0-.27-.57h0a.62.62,0,0,0,.24.1c.3,0,.7,0,.87-.13s.06-.55,0-.84C13.42-.11,13.26-.21,13.17-.32ZM8.82,11.6s0-.07,0-.09-.06,0-.09,0,0,.07,0,.1S8.78,11.58,8.82,11.6Z"/><path class="cls-11" d="M8.28,11.63c.08.12.16.24.23.36a5.23,5.23,0,0,1,.37.7,1.42,1.42,0,0,1,.09.57.78.78,0,0,1-.18.44,2.62,2.62,0,0,1-.51.27c.31.41.61.76.84,1.14s.48.69.09,1.12c-.1.11,0,.42,0,.61.12.41.3.79.43,1.19a.57.57,0,0,1,0,.28l-1-.49a1.07,1.07,0,0,1-.14-.16h0l-.22-.23h0c-.24-.59-.38-1.24-1-1.59C7,15.7,7,15.54,7,15.24a1.47,1.47,0,0,0-.36-1A12.44,12.44,0,0,0,5.11,13a1.72,1.72,0,0,1-.71-1.24h0l.42,0a1.42,1.42,0,0,1-.24-.39c0-.26-.17-.63,0-.78a1.16,1.16,0,0,1,.8-.28,11.69,11.69,0,0,1,1.32.08l.92.09.21.13.21.22.11.12c.08.13.15.27.23.41v.22Z"/><path class="cls-11" d="M4.92,20.35c.09.23.41.48-.07.64L4,20.73l.53.78-.73.61-.14,0L3.51,22C2.64,21.4,1.78,20.83.9,20.29.47,20,0,19.84-.42,19.54c-.19-.15-.23-.5-.34-.75A3,3,0,0,1,0,18.54a3.78,3.78,0,0,1,.73,0l-.29-.74.9-.05c.22-.19.41-.48.64-.52.39-.07.66.2.81.59a.85.85,0,0,0,.32.42c.46.27.94.49,1.4.73l.08.09.08.07.45.85-.48-.08,0,.11Zm-1-.7.14.08,0-.07-.16,0A3.91,3.91,0,0,0,2.5,18.39c-.33-.06-.66-.16-1-.25l-.1.44c.68.3,1.35.61,2,.9C3.61,19.55,3.79,19.59,4,19.65Z"/><path class="cls-4" d="M2.66-3.95c.19-.27.55-.5.12-.92l.24,0,0,.67c0,.25,0,.5.07.74h.14c-.15.32-.32.64-.44,1,0,.09,0,.25.11.32a.32.32,0,0,0,.3,0c.39-.46.82-.09,1.12-.12.16.61.3,1.13.43,1.66-.63-.12-1,.3-1.41.67a1.64,1.64,0,0,1-.5.23L2.82.2l.05,0c-.05.49-.13,1-.71,1.12-.13,0-.19.27-.28.42l-.63-.16.6-1L1.22.2,1.66,0A2.42,2.42,0,0,0,3.21-.88c.1-.13.21-.43.14-.5a6.91,6.91,0,0,0-.81-.7L2.37-2.2a.14.14,0,0,0-.05-.1l.11-.21c.09-.47.18-.93.26-1.4l0,0Z"/><path class="cls-11" d="M7.35,9.33c-.08.14-.16.28-.25.42a5,5,0,0,1-1,.13c-.57,0-1.13-.14-1.7-.22-.12,0-.24-.1-.35-.09-.35,0-.65-.16-.6-.48s.33-.64.52-.65a9.9,9.9,0,0,1,2.3.21C6.65,8.73,7.21,8.76,7.35,9.33Z"/><path class="cls-10" d="M6.62,18,6.53,18a3,3,0,0,1-1-1.55c-.1-.44-.65-.69-.54-1.26.06-.33,0-.74.48-.73s.64.28.62.77a1.18,1.18,0,0,0,.35.87,1.94,1.94,0,0,1,.76,1.49l.11.33v.44l-.4-.13Z"/><path class="cls-10" d="M6.59,1.44,7,1.69c.06.19.13.39.2.58l0,.08a3.56,3.56,0,0,1,0,.57c-.05.2-.1.49-.23.55a.53.53,0,0,1-.78-.23,5.36,5.36,0,0,1-.47-2.12A1.43,1.43,0,0,1,5.84.56a4.11,4.11,0,0,1,.5.42A2.05,2.05,0,0,1,6.59,1.44Z"/><path class="cls-10" d="M8.12,8.67l-.2,0a1.2,1.2,0,0,1-.87-1.18.48.48,0,0,1,.24-.25c.2-.12.41-.2.62-.3l.22,0,.18.18c0,.42.27.53.59.6h0l0,.33,0,.11-.21.22Z"/><path class="cls-10" d="M4.4,11.74l-.9.31-.12-.17.37-.63a1.85,1.85,0,0,1-.47-.2c-.19-.16-.5-.39-.47-.55a1.74,1.74,0,0,1,.47-.8c.05-.06.34,0,.44.1a.49.49,0,0,1,0,.43c-.16.35-.07.54.23.78s.27.48.4.74Z"/><path class="cls-10" d="M.18,17.76c-.11.11-.14.18-.18.18-.73,0-1.47,0-2.19-.07-.17,0-.31-.31-.46-.47a2.45,2.45,0,0,1,.58-.34,1.08,1.08,0,0,1,.59,0C-.94,17.29-.41,17.52.18,17.76Z"/><path class="cls-10" d="M4.59.9c.29.43.67.76.58,1.36,0,.22.13.47.18.71a3.59,3.59,0,0,1,0,.47c-.16,0-.42,0-.47-.07-.19-.31-.27-.68-.45-1a1.38,1.38,0,0,1,0-1.31C4.47,1,4.52,1,4.59.9Z"/><path class="cls-10" d="M-.32,7.67c.45-.45.76-.75,1.29-.5.09,0,.21,0,.31,0s.4.19.6.28a2.45,2.45,0,0,1-.41.77c-.28.24-.42-.08-.59-.26A1.13,1.13,0,0,0,.4,7.78C.21,7.73,0,7.72-.32,7.67Z"/><path class="cls-10" d="M7.66,3.47A2,2,0,0,1,8,4.09a2.11,2.11,0,0,1-.12.73.75.75,0,0,1-.59-1.23C7.37,3.51,7.54,3.51,7.66,3.47Z"/><path class="cls-10" d="M5.84,7.57l.31-.42c.71.06.89.25.77.82-.07.31-.24.35-.46.17S6,7.76,5.84,7.57Z"/><path class="cls-9" d="M.62,10.81l.87.08c0,.15,0,.39-.1.43A.61.61,0,0,1,.58,11Z"/><path class="cls-9" d="M8.48,18c-.35.51-.5-.11-.75-.14l-.1-.29c.13-.42.41-.09.61-.12h0l.22.23h0Z"/><path class="cls-12" d="M7.63,17.57l.1.29,0,0-.1.1h0l-.32-.11-.11-.33Z"/><path class="cls-12" d="M3.51,22l.19.2-.34-.09Z"/><path class="cls-11" d="M2.54-2.08a6.91,6.91,0,0,1,.81.7c.07.07,0,.37-.14.5A2.42,2.42,0,0,1,1.66,0a3.84,3.84,0,0,1,.69-.53c.62-.3.72-.56.34-1.15A2.08,2.08,0,0,1,2.54-2.08Z"/><path class="cls-13" d="M.57,1.47,1,.52C1.22,1.11,1.08,1.5.57,1.47Z"/><path class="cls-14" d="M12.48-9.63c.17-.14.34-.27.49-.42a1.3,1.3,0,0,0,.15-.34,1.62,1.62,0,0,0-.38,0,2.81,2.81,0,0,0-.48.12l-.08-.15L13-11a2.16,2.16,0,0,1-.51-.2c-.07-.06-.07-.2-.1-.31h.21l.05,0,0,0,.09-.33c.3.38.48.11.67-.11l.22.11,0,.15,0,0-.08-.12-.06-.4h-.1l-.06.28-.64-.26.1-.28L12.72-13l.13-.25c.1-.06.29-.14.29-.18-.08-.39-.18-.77-.28-1.15V-15l.21-.11h0l.55-.42c.07.42.13.78.21,1.14s.18.73.29,1.19l-.6.37.86.14,0,.05,0-.06v-.42l.47.22.63,1.3h0c-.09.31-.07.56.31.69v-.69l.57,1-.11.11-.15,0,0,0,.11-.09.11-.11.24-.19.19.29.26.14.19,0c0,.15.08.3.11.45.53.6.53.6.88.28l.25.08-.16.52L19-9c0,.18-.18.43-.12.51.45.54.82,1.15,1.6,1.34.23,0,.4.43.57.68s.13.38.25.42.34-.05.62-.11l-.27.69.78-.11-.24.71.46-.33c.46.41.93.81,1.37,1.23.21.21.35.5.67.14,0,0,.21.06.44.13l-.49.19v.15l.74.16L25.18-3a2.4,2.4,0,0,0,.38.23c.12,0,.3,0,.38.07a5.66,5.66,0,0,0,2.24,1.21.71.71,0,0,1,.18.12,9.32,9.32,0,0,0,1.13,1,4,4,0,0,0,3,.74c.47-.06.39,0,.28.39a1.62,1.62,0,0,0,.12.73,1.23,1.23,0,0,0,.27,0c-.09-.61.14-1.27-.57-1.56l.33-.43,0,0L33.1,0l.23-.19.51-1.37.19,0-.25.92.62-.42.47.69L35-.44c.07-.3.15-.59.22-.88l-.17-.74c.05-.07.61.15.35-.35l.22,0c.13.17.28.32.4.5s.38.48.32.6a2.16,2.16,0,0,0-.27,1.1c0,.5-.14.5.33.54l0,.76c-.56,0-.35.37-.44.58l-.73.69.13.19L36,2.21c0,.43.35.48.75.32l.08.28L37,2.63a.17.17,0,0,1,0-.1h.13l.78.13.45.56.5-.64.06.67h.17V2.55l.22,0c0,.58.37.7.93.39a.38.38,0,0,1,.33,0,2,2,0,0,1,.36.47l-.08-.88.23.11c.05.47.06,1,.75.92,0,.3,0,.51.38.34.13-.06.33,0,.5.08h0l-.2,0c0,.47-.07.94-.1,1.41l-.11.45-.15-.25-.27-.39-.46.06a.36.36,0,0,0,0-.1L41.94,5a1.12,1.12,0,0,0-.46-.26s0-.19,0-.19l.6,0,.07-.11c-.14-.07-.28-.13-.41-.21s-.29-.22-.39-.3l-.54.48.32.16-.34.54-.16-.43-.5,0L40,5.1l-.13,0V4.6L39.15,5l-.07-.63H38.9l-.2,1.15-.18,0-.1-1.89-.08,0-.19.5H38l-.2-1L37.49,5l.61-.59.16.1c-.32.5,0,1.22-.67,1.67-.29-.6-1.24,0-1.35-.72l-1-.07h0l-.14-.09-.92.22-1.67-.36a.21.21,0,0,1-.13-.08c-.18-.65-.67-.45-1.1-.42h-.39a1,1,0,0,0-1.05-.21l-.36,0L27.86,4l-.09,0L25.1,2.19,21.33-.3,20.9-.57c-.68-.6-1.35-1.21-2-1.78a8.54,8.54,0,0,0-1-.64L16.49-4.5c-.4-.59-.79-1.19-1.2-1.78,0,0-.16,0-.24-.06l-.35-.32-.22-.13h0l-1-1.44L13.69-9,13-9c.11-.45,0-.72-.49-.61Zm.76-3.32,0,0a.08.08,0,0,0,0-.05h0s0,0,.17.07h-.12l0,.33h.07A.35.35,0,0,0,13.24-12.95Zm.81,1-.16-.54-.21.12.37.42-.32.78.61-.33ZM36-1.41c-.55.11-.86.87-.75,1.62l.14.06Zm-1,1.93-.31,1.6A1.25,1.25,0,0,0,35.07.52Zm-20.56-13a1.16,1.16,0,0,0-.18.22s.07.07.09.12c.14.3.32.5.68.46Zm23.21,18c-.06,0-.1-.09-.14-.09a.23.23,0,0,0-.12.06s.07.09.12.11S37.65,5.54,37.72,5.5Zm-.62-1h.08l0-.27-.1,0Zm2-.43h.1l0-.26h-.07Zm-1.82-.17-.09,0s0,.07,0,.09.06,0,.09,0Zm-.15-.48.08,0-.06-.2-.09,0Zm2,0c-.06,0-.09-.06-.11,0s0,0-.06.07Zm.74.55a.06.06,0,0,1,0,0h0V4Zm.91-.21h0a.09.09,0,0,0,0,.05l.06,0ZM35.58-1.69H35.5s0,0,0,0Z"/><path class="cls-10" d="M14,21.06c.12,0,.28,0,.35-.11a.62.62,0,0,1,1,0s.1,0,.27,0c0-.34,0-.67,0-1A1.21,1.21,0,0,1,17,18.79c.13,0,.21.29.3.45s.11.46.26.58c.34.26.43.47.07.78a2.51,2.51,0,0,0-.33.4h.2a6.32,6.32,0,0,1,.24.85,2.29,2.29,0,0,1-.48,2.05c-.08.08,0,.28-.05.42l.18.09a3.22,3.22,0,0,1,.41-.56,3,3,0,0,1,.8-.66c.25-.11.62-.12.5.39.57-.06.31-.51.42-.77h0l.12-.23h0c.14-.11.28-.24.44-.35s.25-.2.35-.17.22.19.31.31a2,2,0,0,1,.3.46,1.85,1.85,0,0,1-.59,1.44c-.09,0-.23-.05-.34-.07,0,.3,0,.66-.43.45a8.76,8.76,0,0,1-.91,1,5.08,5.08,0,0,1-.72-.57c-.2.33-.47.72-.69,1.14-.13.25-.29.21-.52.26-.53.12-1-.45-1.54,0-.26.19-.78,0-1.16-.05-.13,0-.18-.38-.3-.65a1.33,1.33,0,0,1-1.07-1.08l1.22.27-1.4-2.86.26-.67h0Zm5,2.73-.13-.07-.19.46.11.05Z"/><path class="cls-5" d="M34.43,12.93l.36.06c.13.34-.08.87.55.89a4.68,4.68,0,0,1-.1.54,3.68,3.68,0,0,1-.21.45c.17.06.34.17.49.14a.48.48,0,0,0,.33-.32c.06-.36.22-.58.57-.61v1.66l-2.3.42-.36-.84.17-.58a8.61,8.61,0,0,0-1.41-.29c-.23,0-.48.26-.67.38l-1.64-1.34,0-.2.11-.06-.09-.08.11-.42,0-.65-.51-.95a1.11,1.11,0,0,1-1.65.19l-.14.37.06.12-.36-.46-.66.16c.16-.34,0-.58-.33-.47-.19.06-.35.35-.46.56a5.31,5.31,0,0,0-.25.8l-.46.28c-.85-.3-1.18-.62-1.06-1.08l.61-.2.36.24.14-.16-.32-.3.07-.44-.39.17-.27.17c-.18-.26-.37-.51-.54-.78a4.72,4.72,0,0,1-.24-.56,1.84,1.84,0,0,0-.4-.43c-.3-.14-.63-.22-1-.34l.38-.37L23.27,8l.61-.39.8.13.12.09.65.35L25,8.79h.79l-.28.51,1.61-.16c.1.18.23.53.29.51a1.61,1.61,0,0,1,1.4.35s.07,0,.1,0l.83-.3.2.59.46-.84a.63.63,0,0,1,1.09.06c.33.51.74.44,1.2.38v.33l-.4.38c-.07.57-.37,1.13,0,1.7a1,1,0,0,0,.58,1,4.3,4.3,0,0,0,1.53-.16s0-.16.08-.24Z"/><path class="cls-9" d="M30.36,9.44l-.46.84-.2-.59-.83.3s-.08,0-.1,0a1.61,1.61,0,0,0-1.4-.35c-.06,0-.19-.33-.29-.51l-1.61.16.28-.51H25l.49-.66.35-.32-.07-.11-.93.08-.12-.09a1.36,1.36,0,0,1,0-.35,2.09,2.09,0,0,0,.08-.59c-.16-.73-.09-.81.69-.66l.19-.48.94-.06-.06-.14.37-.25s.08.06,0,0h0c0-.33-.54-.6-.1-1l.76.21.48.52,1,.44.11.25.11.48.38-.5.14,0,.3-.17c.35.1.79.07.82.6l-.76.69c.25,0,.36,0,.47-.08a4.76,4.76,0,0,1,.82-.23c.7,0,.5.52.55.93H30.68A9.61,9.61,0,0,1,31,8.53c0,.05-.32.17-.54.28Z"/><path class="cls-10" d="M17.36,10.88a3.07,3.07,0,0,0,.58.1c.73,0,1,.27,1.14,1a6.79,6.79,0,0,0,.35.95c0,.13.09.39.05.42-.41.22-.24.6-.29.91-.33.75-.65,1.5-1,2.24l.23.12c.1-.18.22-.36.31-.55.23-.52.44-1,.67-1.57l.22-.09.23.06c.4.27.21.54,0,.76a1,1,0,0,0-.4,1c0,.12-.13.31-.22.46S19,16.9,19,17c0,.71-.46.54-.92.48a3.4,3.4,0,0,1-2.47-1.92c0-.08-.11-.19-.09-.25.27-.52-.23-.83-.36-1.23,0-.11-.24-.18-.37-.25l-.58-.27.71-1.38c0-.1.07-.21.11-.31l.59-.35Z"/><path class="cls-10" d="M10.21,19.65a1.28,1.28,0,0,0-.07-.34,2,2,0,0,1,.08-1.78,2.73,2.73,0,0,0,0-.77l1.2.24.2,0,.56.11c.29-.35.58-.69,1.12-.46a1.67,1.67,0,0,1,1,1.43,13.59,13.59,0,0,1,0,2.3c0,.11-.25.2-.38.3a1.44,1.44,0,0,0-1.11.76h0l-.88.1L11.2,21l-.77-1.14h0l-.23-.23Z"/><path class="cls-10" d="M14.17,5.15a3.49,3.49,0,0,1-.44-.2.65.65,0,0,1-.14-1.11c.1-.1.19-.22.28-.33l1.05-.19.41,0,.25-.11.19-.1c.69.08,1.39.13,2.08.25s1,.54.8,1.07l0,0h-.05l-.18.08.18.13a.1.1,0,0,1,.09,0l.13.53h0c-.1.38-.21.76-.32,1.14h0l-.13.11-.22.31a4.45,4.45,0,0,1-1-.14c-.84-.3-1.66-.65-2.49-1-.12-.11-.24-.22-.35-.34Z"/><path class="cls-10" d="M14.93,9a2.94,2.94,0,0,1-1.86-2.22c-.19-.91.44-1.3,1.52-1a1.25,1.25,0,0,0,.23.23c1,.65,2.14.6,3.19,1l.74.44-.33,1L17,8.77H16.6l-.71-.32.19.68a.07.07,0,0,0-.07.06h-.42Z"/><path class="cls-9" d="M22.91,8.6,22.53,9c.34.12.67.2,1,.34a1.84,1.84,0,0,1,.4.43c-.2.22-.64.38-.18.78l-.8.43c-.05-.09-.11-.18-.17-.27-.56.24-.45,1.13-1.25,1.14l.6-.68a1.67,1.67,0,0,0-.49,0c-.37.18-.72.42-1.1.56a.73.73,0,0,1-.61-.09c-.11-.08-.08-.35-.11-.54,0,0,.05-.06.05-.09-.28-1.26.82-1.23,1.49-1.59.27-.14.55-.24.86-.37l-.26-.41C22.57,8.18,22.57,8.18,22.91,8.6Z"/><path class="cls-9" d="M25.52,18.41l-.62.22a5.44,5.44,0,0,1,0-.57c0-.7.55-1.11,1-1.58a6.53,6.53,0,0,1,1-1l-.06,1a4.87,4.87,0,0,0,.43-.33c.19-.16.37-.34.56-.51.11.23.24.45.34.68s.09.48.23.61a1.22,1.22,0,0,1,.22,1.73l-.4-1.14a7.48,7.48,0,0,0-.8.39,1.22,1.22,0,0,0-.46.44c-.18.36-.29.62-.8.37C25.87,18.66,25.5,18.83,25.52,18.41Z"/><path class="cls-15" d="M28.14,11.32a1.11,1.11,0,0,0,1.65-.19l.51.95,0,.65c0,.14-.07.28-.1.42l0,.14,0,.2L29.83,15c-.52-.51-1-1.11-1.79-.43,0-.38-.06-.62-.08-.86-.14,0-.3.05-.41,0s-.08-.25,0-.34.2-.07.21-.07c.11-.49.22-1,.34-1.44L28,11.69Z"/><path class="cls-10" d="M23.88,7.56,23.27,8C22.65,8,22,8,21.43,8a1.89,1.89,0,0,0-.83.21c-.35.2-.71.28-.93,0s0-.54.08-.81,0-.4,0-.6l.12-.33.12,0,.76,0a2.5,2.5,0,0,0,.72,0c.64-.13,1.27-.3,1.91-.45,0,0,.12,0,.13.08C23.63,6.6,23.75,7.08,23.88,7.56Z"/><path class="cls-9" d="M18.65,4.39c.16-.53-.12-.95-.8-1.07s-1.39-.17-2.08-.25l.83-.22V2.74a5.14,5.14,0,0,1-.55-.06,2.64,2.64,0,0,1-.9-.29c-.18-.12-.37-.52-.3-.63a2.74,2.74,0,0,1,.73-.55,3.25,3.25,0,0,1,2.24.71,8.84,8.84,0,0,0,.93.44,4.52,4.52,0,0,1,.58.5l-.64.55.4.77Z"/><path class="cls-9" d="M23.6,15.8c-.2,1.15-.45,2.28-1.67,2.82a2.43,2.43,0,0,1-.77.08,2.46,2.46,0,0,1,0-.72,6.27,6.27,0,0,1,1.27-2.57c.07-.06.1-.16.18-.21.24-.13.5-.24.75-.36.07.24.15.49.21.74A.79.79,0,0,1,23.6,15.8Z"/><path class="cls-9" d="M20.52,21.74c.27-.64.52-1.33.85-2a1.48,1.48,0,0,1,.64-.57.9.9,0,0,1,1.32.86,1.69,1.69,0,0,1-1.18,1.66c-.06,0-.13,0-.15.06C21.6,22.5,21.14,22.23,20.52,21.74Z"/><path class="cls-9" d="M26.44,24c-.09.07-.19.22-.25.21-.75-.16-1.13.39-1.59.79a2.12,2.12,0,0,1-.36.21V24.9h.18l0-.05-.15.07-.73-.31A7.23,7.23,0,0,1,24,24c.2-.25.47-.44.66-.7a2.05,2.05,0,0,1,1.31-.91c.35-.07.71-.17.87.26a.76.76,0,0,1-.43,1,5.65,5.65,0,0,0-.76.41Z"/><path class="cls-10" d="M20,5.69c-.11-.34-.24-.68-.33-1,0-.13-.05-.36,0-.43a.57.57,0,0,1,.45,0c.82.24,1.63.52,2.44.75a1.11,1.11,0,0,1,.9.77l-.08.12h0l-2.56.26L20.2,6Z"/><path class="cls-15" d="M21.33-.3,25.1,2.19v.18L25,2.65a0,0,0,0,0,0,.06,1.62,1.62,0,0,1-.68-.12,6.1,6.1,0,0,1-.82-.79c-.4.36-.58.1-.72-.27-.07.05-.13.14-.19.14-.41,0-1.36-.93-1.36-1.35A3.34,3.34,0,0,1,21.33-.3Z"/><path class="cls-9" d="M9.16,21c-.26-.38-.06-1.46.36-1.62.18-.06.46.15.69.23h0l.23.23h0c-.14.63.31,1.05.55,1.54l-.18.27c-.37.54-.45.55-1,.17l-.24-.33,0-.21L9.33,21Z"/><path class="cls-12" d="M8.62,25.11l0,0,0,0-.27.11c-.24,0-.53.1-.51-.32h.67l.1-.15-.43-.6h0L7.92,24l-1.23-.93,0,0,.35-.2.58-.63a.91.91,0,0,1,.7.88c-.24.23-.22.46,0,.63.51.34,1,.65,1.56,1l-.1.2h0c-.18.11,0,.58-.41.45h0C9.22,25.11,9,24.87,8.62,25.11Z"/><path class="cls-9" d="M26,20l-.51.06c0-.15-.05-.33,0-.44a6.39,6.39,0,0,1,.58-.67l.51.48.9-1.33a.57.57,0,0,1,.21.87,4.38,4.38,0,0,1-.45.75c-.47.53-1,1-1.47,1.55l-.16-.09Zm.3-.4-.07.06s0,0,0,0l.09,0Z"/><path class="cls-5" d="M25.11,2.37V2.19l2.67,1.73-.24.49-.76-.21c-.43-.27-.87-.51-1.27-.81a3.15,3.15,0,0,1-.5-.68,0,0,0,0,1,0-.06Z"/><path class="cls-12" d="M16.08,9.13l-.19-.68.71.32a2.24,2.24,0,0,0,.27.34c.16.13.34.22.51.34l-.05.16-.83.24c0,.13,0,.27-.07.41-.11.52,0,.66.56.62a2.29,2.29,0,0,1,.37,0l-1.77.66v-.12h0c.06-.12.18-.24.17-.34,0-.35-.13-.69-.2-1l.18.1.68-.73Z"/><path class="cls-9" d="M9.86,24.88l.1-.2c-.53-.33-1.05-.64-1.56-1-.26-.17-.28-.4,0-.63.14,0,.36,0,.41.05.41.62,1.37.49,1.68,1.23l-.12.37.1.1.34-.28c.44.24.43.62.32,1L10.75,25Z"/><path class="cls-9" d="M29.77,17.45a2.22,2.22,0,0,1-.29-1.93.52.52,0,0,1,.38-.31.56.56,0,0,1,.33.38,9.39,9.39,0,0,1,.18.95C30.51,17.08,29.87,17,29.77,17.45Z"/><path class="cls-9" d="M15.3,16.24c.5,0,1.32,1,1.23,1.34a.74.74,0,0,1-.4.27,15.14,15.14,0,0,1-1-1.26C15.11,16.52,15.26,16.33,15.3,16.24Z"/><path class="cls-9" d="M11.4,26.66l-.28-.94.38-.11.1-.74.05.05c.07.26.12.52.21.77,0,.09.18.13.27.19a.76.76,0,0,0,.16-.25,2.29,2.29,0,0,0,0-.37l0,0a1.94,1.94,0,0,1,.45.35c.05.07,0,.28-.09.38a3.24,3.24,0,0,1-.49.45l-.59-.12C11.53,26.42,11.47,26.54,11.4,26.66Z"/><path class="cls-9" d="M18.64,9l.59.35c-.32.38-1.24.58-1.52.3s-.11-.45-.16-.68C17.93,8.62,18.28,8.84,18.64,9Z"/><path class="cls-9" d="M19.53,22.82,18.32,23l.22-.48h0l.11-.29h0a2.54,2.54,0,0,1,.44-.37,2.41,2.41,0,0,1,.54-.16,5,5,0,0,1,.08.54,1.09,1.09,0,0,1-.08.31h0l-.12.23Z"/><path class="cls-15" d="M26,12.4a5.31,5.31,0,0,1,.25-.8c.11-.21.27-.5.46-.56.37-.11.49.13.33.47s-.34.72-.53,1.07a3.06,3.06,0,0,1-.36.35Z"/><path class="cls-13" d="M18,7c-1.05-.38-2.23-.33-3.19-1a1.25,1.25,0,0,1-.23-.23l0-.23c.84.33,1.66.68,2.5,1a4.45,4.45,0,0,0,1,.14Z"/><path class="cls-4" d="M20.82,6.1l2.56-.26V6c-.64.15-1.27.32-1.91.45a2.5,2.5,0,0,1-.72,0Z"/><path class="cls-6" d="M7.88,26.81l-.33,0,0,0a7.34,7.34,0,0,1-.81-.05,1.08,1.08,0,0,1-.46-.18s0-.24,0-.26a.68.68,0,0,1,.41-.1c.42.08.83.2,1.25.3Z"/><path class="cls-15" d="M19.71.53c-.58-.39-1.28-.38-1.66-1C19-.56,19.64-.22,19.71.53Z"/><path class="cls-9" d="M14.72,28.65l.13-.75.82.49c-.05.19-.1.37-.17.6l-.79-.35Z"/><path class="cls-15" d="M23.48,21.3c-.07.71-.68.91-1,1.35C22.15,22.07,22.44,21.71,23.48,21.3Z"/><path class="cls-15" d="M11.49,23.66l-.44.59a9,9,0,0,1-.46-.79s.21-.27.24-.26A7.44,7.44,0,0,1,11.49,23.66Z"/><path class="cls-4" d="M19.42,14.49c-.23.52-.44,1-.67,1.57-.09.19-.21.37-.31.55l-.23-.12c.33-.74.65-1.49,1-2.24Z"/><path class="cls-9" d="M9.22,27c.58.07,1.16.15,1.75.21.32,0,.47-.12.45-.44l.35.42c-.17.08-.34.23-.49.22C10.58,27.36,9.83,27.51,9.22,27Z"/><path class="cls-9" d="M28.54,25.16a.69.69,0,0,0-.43-1,2.09,2.09,0,0,1-.51-.4l.35-.33a6.33,6.33,0,0,0,.59.69C28.93,24.41,29,24.76,28.54,25.16Z"/><path class="cls-15" d="M26.76,13.44c.18-.38.35-.76.53-1.13a.23.23,0,0,1,.19-.05c.07.05.14.17.12.21-.19.37-.4.72-.61,1.08Z"/><path class="cls-15" d="M24.79,17.13l-.16,1.33-.19,0a2.2,2.2,0,0,1-.21-.71C24.25,17.51,24.3,17.15,24.79,17.13Z"/><path class="cls-15" d="M25.09,11.4l-.61.2.2-.52.27-.17.39-.17c0,.15-.05.29-.07.44Z"/><path class="cls-15" d="M23.89,13.58l.62.43c-.16.11-.36.36-.46.32s-.35-.29-.52-.45Z"/><path class="cls-12" d="M18.64,9c-.36-.2-.71-.42-1.09,0L17,8.77l1.44-.32Z"/><path class="cls-12" d="M11,21.4c-.24-.49-.69-.91-.55-1.54L11.2,21Z"/><path class="cls-15" d="M18.55,22.56h0l-.44,0c-.05-.37-.06-.71.31-.92l.25.61h0Z"/><path class="cls-4" d="M14.71,28.64l.79.35c.07-.23.12-.41.17-.6l.15.05v.85l0,0a4.83,4.83,0,0,1-.76-.25C14.89,29,14.82,28.78,14.71,28.64Z"/><path class="cls-15" d="M20.71,9a1.76,1.76,0,0,1,.44-.21,2.51,2.51,0,0,1,.61,0s0,.18,0,.18a5.29,5.29,0,0,1-.54.13,3.62,3.62,0,0,1-.47,0Z"/><path class="cls-9" d="M24.58,25.8l.16-.33.19.06L24.78,27c0-.37-.44-.73-.05-1.12Z"/><path class="cls-15" d="M12,23.05a6.48,6.48,0,0,1,.46.61s-.11.17-.17.25a3.92,3.92,0,0,1-.46-.45C11.74,23.41,11.85,23.26,12,23.05Z"/><path class="cls-12" d="M12.84,21.4A1.44,1.44,0,0,1,14,20.64v.42Z"/><path class="cls-12" d="M12,21.5l.88-.1-.26.67Z"/><path class="cls-9" d="M18.46,6.29c.11-.38.22-.76.32-1.14C19.08,5.68,19,6,18.46,6.29Z"/><path class="cls-12" d="M12.19,17.07,11.63,17l.26-.38Z"/><path class="cls-9" d="M11.6,24.87c.49-.26.58-.22.71.36l0,0-.63-.34Z"/><path class="cls-9" d="M8.76,26.46l.46.54H8.66Z"/><path class="cls-12" d="M15.59,9.19H16V9.7l-.14.05Z"/><path class="cls-9" d="M25.28,27.46l.83.21-.33.21Z"/><path class="cls-12" d="M10.77,24.54l-.34.28-.1-.1.12-.37Z"/><path class="cls-4" d="M25.78,27.88l.33-.21.28-.06.06.05L26,28Z"/><path class="cls-4" d="M19.74,6.81c0,.2,0,.4,0,.6C19.75,7.21,19.74,7,19.74,6.81Z"/><path class="cls-12" d="M15.27,11.4c-.08,0-.14.11-.19.1a.21.21,0,0,1-.13-.13s.09-.13.12-.12S15.18,11.32,15.27,11.4Z"/><path class="cls-9" d="M18.78,5.16l-.13-.53C19.25,4.67,18.6,5,18.78,5.16Z"/><path class="cls-12" d="M9.33,21l.18.27Z"/><path class="cls-12" d="M9.54,21.51l.24.33C9.54,21.84,9.34,21.81,9.54,21.51Z"/><path class="cls-6" d="M8.35,26.56l0-.35.31.24Z"/><path class="cls-12" d="M15,11.89c0,.1-.07.21-.11.31L14.74,12Z"/><path class="cls-4" d="M20,5.69,20.2,6l-.14.13Z"/><path class="cls-9" d="M18.56,4.61l-.18-.13.18-.08Z"/><path class="cls-9" d="M24.79,27.1l.21.25Z"/><path class="cls-4" d="M19.87,14.46l-.23-.06Z"/><path class="cls-9" d="M27.59,23.75l-.2.16Z"/><path class="cls-9" d="M24.17,25.46l.07.24Z"/><path class="cls-9" d="M24.33,25.79h0Z"/><path class="cls-4" d="M23.39,5.83l.08-.12Z"/><path class="cls-9" d="M18.33,6.39l.13-.11Z"/><path class="cls-4" d="M20,6.44l-.12,0Z"/><path class="cls-12" d="M15.58,11.42l0,0,.05,0Z"/><path class="cls-9" d="M28.32,25.41l.13-.16Z"/><path class="cls-4" d="M16,29.63l.16.11,0,0L16,29.63Z"/><path class="cls-8" d="M17.72,28.14l-.17.16-.05-.06.15-.16Z"/><path class="cls-4" d="M15.81,29.29l.06.06-.08,0Z"/><path class="cls-4" d="M16,29.63,16,29.58l.07.05Z"/><path class="cls-4" d="M26.39,27.61l1.39-1.24c-.09.82-.91.84-1.33,1.29Z"/><path class="cls-16" d="M.58,30H.67a.3.3,0,0,1,0,.1Z"/><path class="cls-12" d="M3.39,30.94,1.62,30c.44-.44,0-.89,0-1.33a5.17,5.17,0,0,0-.07-1l.2-.11.44.77a2.21,2.21,0,0,1,.26-.61c.1-.1.34-.21.42-.16.81.49,1.61,1,2.41,1.53v.19l-1.53.61c.24.55.81.4,1.3.44l.21.36-.84-.08C4,30.56,3.64,30.52,3.39,30.94Zm-.66-1.59H2.39c-.09.17-.29.43-.25.49a1.23,1.23,0,0,0,.56.31c.07,0,.27-.2.26-.29A1.84,1.84,0,0,0,2.73,29.35Z"/><path class="cls-8" d="M5.28,30.68l-.21-.36.15-.64c.24.05.12,1.11.73.3a1.32,1.32,0,0,1,1.3.74c0,.14-.17.35-.11.42a.82.82,0,0,0,.47.29c.12,0,.27-.06.41-.09l-.08.55.88-.18-.06.76a2.21,2.21,0,0,1-.46-.1c-.49-.21-1-.44-1.45-.66-.08-.18-.13-.46-.27-.53A11.27,11.27,0,0,0,5.28,30.68Z"/><path class="cls-13" d="M7.25,30.72A1.32,1.32,0,0,0,6,30l.19-.48L8,30.5l0,.13Z"/><path class="cls-9" d="M9.45,25.34c.45.13.23-.34.41-.45,0,.16,0,.32.06.51a.88.88,0,0,1,.3.07.51.51,0,0,1,.2.26.26.26,0,0,1-.08.22.48.48,0,0,1-.34,0C9.8,25.74,9.63,25.53,9.45,25.34Z"/><path class="cls-13" d="M1.76,27.55l-.2.11a2.46,2.46,0,0,0-.51-.15c-.31,0-.65.33-.93-.08A4.07,4.07,0,0,1,1,27.27,2.86,2.86,0,0,1,1.76,27.55Z"/><path class="cls-6" d="M4.17,24.48h.21l.73.56-.1.14C4.62,25.12,4.43,24.74,4.17,24.48Z"/><path class="cls-9" d="M8.13,24.15l.43.6-.1.15H7.79A.51.51,0,0,0,8.13,24.15Z"/><path class="cls-9" d="M8.62,25.11c.37-.24.6,0,.83.23Z"/><path class="cls-9" d="M7.92,24l.2.15Z"/><path class="cls-9" d="M8.3,25.22l.27-.11Z"/><path class="cls-12" d="M6.69,23.06,6.63,23l.1,0Z"/><path class="cls-6" d="M3.31,24.1h0Z"/><path class="cls-4" d="M1.1,29.64l-.77-.47C.4,29.12.47,29,.55,29s.51-.11.66,0C1.51,29.23,1.26,29.45,1.1,29.64Z"/><path class="cls-10" d="M12.29.89a2.11,2.11,0,0,1,.27.57,1,1,0,0,1-.16.68c-.09.09-.48,0-.62-.1-.44-.42-1-.78-1-1.5,0-.17-.24-.32-.3-.5a2.15,2.15,0,0,1,.73-2.12.39.39,0,0,1,.35-.07c.35.23.67.51,1,.75.19.12.43.18.62.31a1.5,1.5,0,0,1,.31.35l-.31.22-.57-.24-.21-.11L12.3-1,12.24-1l0,.06.11.1.23.11.54.44c.09.11.25.21.26.33,0,.29.13.7,0,.84s-.57.11-.87.13a.62.62,0,0,1-.24-.1l0-.07,0,0Zm-.47-2.3-.08.13.28.16.06-.1Z"/><path class="cls-10" d="M8.9,7.8l-.06-.38c.19,0,.43,0,.57.15s.13.32.14.5-.2.1-.31.16l-.13-.11-.22-.33Z"/><path class="cls-6" d="M9.11,8.12l.13.11c.13.77-.58.52-.93.75l-.19-.31.56-.22h.26l0-.22,0-.11Z"/><path class="cls-9" d="M14.92,3.32l-1.05.19c-.08-.15-.15-.31-.29-.62Z"/><path class="cls-6" d="M4.57,21.51,4,20.73l.81.26Z"/><path class="cls-6" d="M7.18,2.27C7.11,2.08,7,1.88,7,1.69l.38-.15.14.1Z"/><path class="cls-6" d="M8.34,11.32c-.08-.14-.15-.28-.23-.41l.33,0Z"/><path class="cls-6" d="M4.92,20.35l-.38-.3,0-.11.48.08Z"/><path class="cls-6" d="M7.26,17.89l.32.11-.33.33Z"/><path class="cls-6" d="M8.31,7.2,8.13,7l.2-.18Z"/><path class="cls-6" d="M8,10.79l-.21-.22L8,10.49Z"/><path class="cls-6" d="M8.82,11.6s-.08,0-.09,0,0-.06,0-.1.08,0,.09,0S8.83,11.57,8.82,11.6Z"/><path class="cls-6" d="M8.48,18l0-.34a1.07,1.07,0,0,0,.14.16Z"/><path class="cls-9" d="M15.58,3.17l-.25.11Z"/><path class="cls-6" d="M6.62,18l.23.16Z"/><path class="cls-13" d="M14.17,5.15l.12.09Z"/><path class="cls-6" d="M7.59,18l.1-.1Z"/><path class="cls-6" d="M4.62,19.17l-.08-.07Z"/><path class="cls-6" d="M8.28,11.63l.07-.09Z"/><path class="cls-6" d="M8.46,17.67l-.22-.23Z"/><path class="cls-6" d="M4,19.65c-.17-.06-.35-.1-.51-.17-.68-.29-1.35-.6-2-.9l.1-.44c.32.09.65.19,1,.25A3.91,3.91,0,0,1,4,19.63Z"/><path class="cls-6" d="M4,19.63l.16,0,0,.07L4,19.65Z"/><path class="cls-6" d="M2.87.23,2.82.2l.05,0Z"/><path class="cls-12" d="M8.89,8.23l0,.22H8.68Z"/><path class="cls-12" d="M9.11,8.12h-.2l0-.33Z"/><path class="cls-17" d="M32.9-.55l-.33.43c.71.29.48,1,.57,1.56a1.23,1.23,0,0,1-.27,0,1.62,1.62,0,0,1-.12-.73c.11-.34.19-.45-.28-.39a4,4,0,0,1-3-.74,9.32,9.32,0,0,1-1.13-.95.71.71,0,0,0-.18-.12,5.66,5.66,0,0,1-2.24-1.21c-.08-.07-.26,0-.38-.07A2.4,2.4,0,0,1,25.18-3l.18-.23-.74-.16v-.15l.49-.19c-.23-.07-.41-.17-.44-.13-.32.36-.46.07-.67-.14-.44-.42-.91-.82-1.37-1.23l-.46.33.24-.71-.78.11.27-.69c-.28.06-.48.16-.62.11s-.15-.29-.25-.42-.34-.63-.57-.68c-.78-.19-1.15-.8-1.6-1.34-.06-.08.08-.33.12-.51s.05-.2.1-.23l1.24-.49h.09v.14l-.05.31.62.94c.49,0,.27-.38.29-.61l.27.35.37-.21c0,.57,0,.57.37.35.1.13.27.26.29.41.07.45.36.46.69.41,0,0-.11.07-.11.11a1,1,0,0,0,0,.45s.23,0,.35,0a1.89,1.89,0,0,0,0-.42c0-.08-.16-.12-.25-.17-.07-.35.14-.28.34-.23l.42.59.28.82.41-.5H25l0,.49h-.45l.23.51c.68-.75.75.15,1.07.39l.74-.71.32.17.44.64.17.66h.17l.25-.42-.6-.23.11-.75-.55.1.24-.44h.54a4.18,4.18,0,0,0,0,.61.6.6,0,0,0,.29.08,2.72,2.72,0,0,0,.19-.47.42.42,0,0,0,.71-.1l.1-.06.29,0a1.31,1.31,0,0,1-.34.29c-.52.21-.54.27-.22.74a3.37,3.37,0,0,1,.18.56l.37.15.15,0-.2.32-.35-.23c-.06.12-.12.27-.2.41a.64.64,0,0,1-.15,0,2.7,2.7,0,0,0,.08-.41,1.61,1.61,0,0,0,0-.31c-.38.29-1,.1-1,.79l0,0,0,0,.32.21h0c-.2.23-.08.32.16.42s.7.3,1.07.47l.15-.42.38.8-.26.12.07.18A5.52,5.52,0,0,1,30-2.64a1.21,1.21,0,0,1,.41.05c-.21.35-.1.55.3.59l-.31.7.42.7c.12-.11.18-.18.25-.23s.18-.14.27-.14l2-.07,0-.19-.92-.18,0-.4,0-.17h.42c.35.2.65.24.82-.23h.19c.64.07.42.61.52.93l.82-.06L35-.44l-.16.06-.47-.69-.62.42L34-1.57l-.19,0L33.33-.24,33.1,0l-.18-.48.38-.28-.16-.13ZM28.14-3.13l.1.06.13-.23-.11-.06Zm-8.53-5.2s0-.07-.06-.08-.06,0-.09,0l.08.1Zm7.83,4.94,0,.06s.06.07.08.06a.31.31,0,0,0,.12,0Zm1.11.78h.07l0-.22h-.06Z"/><path class="cls-5" d="M29,5.37l-1-.44a.73.73,0,0,0-.15-1l1.58.47c-.28.22-.5.45-.33.85C29.12,5.29,29,5.34,29,5.37Z"/><path class="cls-13" d="M29,5.37c.05,0,.15-.08.14-.09-.17-.4.05-.63.33-.85l.36,0c.37.42-.12.77-.09,1.17l-.14,0-.49,0Z"/><path class="cls-5" d="M29.71,5.62c0-.4.46-.75.09-1.17a1,1,0,0,1,1.05.21L30,5.45Z"/><path class="cls-13" d="M27.86,4a.73.73,0,0,1,.15,1l-.48-.52.24-.49Z"/><path class="cls-8" d="M19,23.79l-.21.44-.11-.05.19-.46Z"/><path class="cls-8" d="M19.53,22.83l.12-.23Z"/><path class="cls-8" d="M24.8,7.78l.93-.08.07.11-.35.32Z"/><path class="cls-8" d="M25.09,11.4l.18-.22.32.3-.14.16Z"/><path class="cls-8" d="M28.14,11.32l-.14.37Z"/><path class="cls-5" d="M29.08,5.62l.49,0-.38.5Z"/><path class="cls-8" d="M26.87,5.17h0c.07,0,0,0,0,0Z"/><path class="cls-12" d="M10.44,19.87l-.23-.23Z"/><path class="cls-8" d="M24.25,24.91l.15-.07,0,.05h-.17Z"/><path class="cls-8" d="M25.11,2.37,25,2.65Z"/><path class="cls-8" d="M26.34,19.64l.05.06-.09,0s0,0,0,0Z"/><path class="cls-10" d="M11.65,24.92l.63.34a2.29,2.29,0,0,1,0,.37.76.76,0,0,1-.16.25c-.09-.06-.23-.1-.27-.19C11.77,25.44,11.72,25.18,11.65,24.92Z"/><path class="cls-8" d="M18.55,22.56l.11-.29Z"/><path class="cls-9" d="M2.73,29.35a1.84,1.84,0,0,1,.23.52c0,.09-.19.3-.26.29a1.23,1.23,0,0,1-.56-.31c0-.06.16-.32.25-.49Z"/><path class="cls-12" d="M12.29.89l-.08,0,0,0,0,.07Z"/></g></g><g class="cls-18"><rect class="cls-19" x="-538.08" y="-557.96" width="1500" height="1000"/></g></svg>