<?xml version="1.0" encoding="UTF-8"?><svg id="Livello_1" xmlns="http://www.w3.org/2000/svg" xmlns:xlink="http://www.w3.org/1999/xlink" viewBox="0 0 30 30"><defs><style>.cls-1{fill:none;}.cls-2{clip-path:url(#clippath);}.cls-3{fill:#fff;}.cls-4{fill:#ece5d3;}.cls-5{fill:#d43189;}.cls-6{fill:#d1d1d1;}</style><clipPath id="clippath"><circle class="cls-1" cx="465" cy="15" r="12.5"/></clipPath></defs><g><path class="cls-6" d="M15,2.5c6.9,0,12.5,5.6,12.5,12.5s-5.6,12.5-12.5,12.5S2.5,21.9,2.5,15,8.1,2.5,15,2.5m0-1.5C7.28,1,1,7.28,1,15s6.28,14,14,14,14-6.28,14-14S22.72,1,15,1h0Z"/><path class="cls-3" d="M6.16,23.84C1.28,18.96,1.28,11.04,6.16,6.16c4.88-4.88,12.8-4.88,17.68,0L6.16,23.84Z"/><path class="cls-5" d="M6.16,23.84c4.88,4.88,12.8,4.88,17.68,0s4.88-12.8,0-17.68L6.16,23.84Z"/></g><g class="cls-2"><rect class="cls-4" x="-238.08" y="-557.96" width="1500" height="1000"/></g></svg>