<svg xmlns="http://www.w3.org/2000/svg" xmlns:xlink="http://www.w3.org/1999/xlink" viewBox="0 0 30 30"><defs><style>.cls-1{fill:none;}.cls-2{isolation:isolate;}.cls-3{clip-path:url(#clip-path);}.cls-4{fill:#ece5d3;}.cls-5{clip-path:url(#clip-path-2);}.cls-6{fill:#e0ad6e;}.cls-7{mix-blend-mode:multiply;opacity:0.35;}.cls-8{fill:#d7ac81;}.cls-9{fill:#f5ce94;}.cls-10{fill:#221e20;}.cls-11{fill:#334882;}.cls-12{fill:#d1d1d1;}</style><clipPath id="clip-path"><circle class="cls-1" cx="-285" cy="15" r="12.5"/></clipPath><clipPath id="clip-path-2"><circle class="cls-1" cx="-35" cy="15" r="12.5"/></clipPath></defs><g class="cls-2"><g id="Livello_1" data-name="Livello 1"><g class="cls-3"><rect class="cls-4" x="-988.08" y="-557.96" width="1500" height="1000"/></g><g class="cls-5"><rect class="cls-6" x="-75.98" y="-7.65" width="92.23" height="61.49"/><g class="cls-7"><path class="cls-8" d="M2.1,3.28C.46,1.51,1-1,.8-3.17A7.69,7.69,0,0,0-1-7.65H-9.15l.54.18A8.69,8.69,0,0,1-2.66-.78,21.55,21.55,0,0,0,0,6.4C1,7.86,2.75,8.06,4.07,9.09c1.64,1.28,2.38,4.07,2.61,6,.25,2.21,0,4.39,1.54,6.22,2.28,2.68,4.17,0,4.56-2.54A12.47,12.47,0,0,0,9.35,8.6C7.25,6.4,4.13,5.47,2.1,3.28Z"/><path class="cls-8" d="M-6.14,5C-7.78,3.27-7.26.79-7.44-1.41A7.54,7.54,0,0,0-9.56-6.18a9,9,0,0,0-2.08-1.47H-22.23c1.78.68,3.58,1.35,5.38,1.94A8.67,8.67,0,0,1-10.9,1,21.68,21.68,0,0,0-8.26,8.17c1,1.45,2.77,1.65,4.09,2.68,1.65,1.28,2.38,4.07,2.61,6,.26,2.21,0,4.38,1.54,6.21,2.29,2.69,4.18,0,4.56-2.54a12.44,12.44,0,0,0-3.43-10.2C-1,8.16-4.11,7.24-6.14,5Z"/><path class="cls-8" d="M7.81-2.52C6.49-3.94,6.57-5.82,6.56-7.65H2.75a8.84,8.84,0,0,1,.3,1.07A21.55,21.55,0,0,0,5.69.6c1,1.46,2.77,1.66,4.09,2.69,1.65,1.28,2.38,4.07,2.61,6,.25,2.21,0,4.39,1.54,6.22.85,1,1.64,1.25,2.32,1.05V4.25A11.92,11.92,0,0,0,15.06,2.8C13,.6,9.84-.33,7.81-2.52Z"/></g><g class="cls-7"><path class="cls-8" d="M16.25,39.16A9.61,9.61,0,0,1,15,38.07c-1.64-1.77-1.12-4.26-1.3-6.46a7.54,7.54,0,0,0-2.12-4.77c-1.79-1.71-4.21-2.43-6.6-3a26.42,26.42,0,0,1-3.38-.63c-1.23-.48-2.31-1.25-3.52-1.79s-3.46-1-2.92,1c.4,1.53,1.93,2.29,3.27,2.8,1.94.73,3.9,1.47,5.86,2.12A8.67,8.67,0,0,1,10.28,34a21.77,21.77,0,0,0,2.64,7.18c.83,1.19,2.15,1.55,3.33,2.2Z"/><path class="cls-8" d="M-9.76,27c1.93.73,3.89,1.48,5.85,2.12a8.67,8.67,0,0,1,6,6.69A21.9,21.9,0,0,0,4.68,43c1,1.45,2.77,1.65,4.1,2.68,1.64,1.28,2.37,4.07,2.6,6,.09.73.11,1.46.17,2.17h4.7V48.27a12.89,12.89,0,0,0-2.19-3.12C12,43,8.83,42,6.8,39.83c-1.64-1.77-1.11-4.25-1.3-6.45a7.49,7.49,0,0,0-2.12-4.77c-1.79-1.72-4.21-2.44-6.59-3.05a25.79,25.79,0,0,1-3.38-.63c-1.23-.47-2.32-1.25-3.52-1.79s-3.46-1-2.93,1C-12.64,25.7-11.11,26.45-9.76,27Z"/><path class="cls-8" d="M-20.38,27c1.93.73,3.89,1.48,5.86,2.12a8.68,8.68,0,0,1,5.94,6.69A22.13,22.13,0,0,0-5.94,43c1,1.45,2.77,1.65,4.1,2.68,1.64,1.28,2.37,4.07,2.6,6,.09.73.12,1.46.17,2.17H7a12.7,12.7,0,0,0-3.54-8.69C1.33,43-1.79,42-3.82,39.83c-1.64-1.77-1.11-4.25-1.3-6.45a7.44,7.44,0,0,0-2.12-4.77c-1.79-1.72-4.21-2.44-6.59-3.05a25.79,25.79,0,0,1-3.38-.63c-1.23-.47-2.32-1.25-3.52-1.79s-3.46-1-2.93,1C-23.26,25.7-21.73,26.45-20.38,27Z"/><path class="cls-8" d="M16.25,20.17A17,17,0,0,0,10.73,18a26,26,0,0,1-3.37-.63C6.12,16.89,5,16.12,3.83,15.58s-3.46-1-2.92,1c.4,1.53,1.93,2.28,3.28,2.8,1.93.73,3.89,1.47,5.85,2.12a8.66,8.66,0,0,1,6,6.68c.08.36.17.73.26,1.12Z"/></g><path class="cls-9" d="M6.09,20.76c.2,0,.24-.07.2-.16s.09-.13.2-.09.27.07.22-.05.3,0,.24,0,.19.1.23,0,.09.13.23.06c.09.09.15,0,.27.12-.09,0,.12.08.21.13s-.08.12.15.17.12.09.09.21-.11.13,0,.25.06.27,0,.3-.27.14-.14.31c0,.19-.1.11-.22.24.15-.11-.23.19-.28.15s-.14.13-.31.07-.21-.06-.32,0-.26,0-.29-.13-.15-.12-.22-.18a.7.7,0,0,1-.2-.25c-.18-.08-.08-.1-.15-.29s-.06-.15-.07-.3.11-.21,0-.3S5.94,20.89,6.09,20.76Z"/><path class="cls-9" d="M.82,19c.21,0,.24-.07.2-.15s.09-.13.2-.1.27.07.22-.05.31,0,.24,0,.19.1.23,0,.1.13.23.06c.1.09.16,0,.27.12-.09,0,.13.08.22.14s-.09.12.15.16.11.1.08.21-.1.13,0,.25,0,.27-.05.31-.27.13-.13.3c0,.19-.11.11-.22.24.14-.11-.24.2-.28.15s-.15.13-.31.07-.22-.06-.32,0-.27,0-.3-.13-.15-.12-.22-.19a.84.84,0,0,1-.2-.25c-.17-.08-.07-.1-.14-.29s-.07-.15-.08-.3c.14-.17.12-.21,0-.3S.68,19.18.82,19Z"/><path class="cls-9" d="M.45,3c0-.06,0,0-.15-.11S.21,2.79.08,2.74a.56.56,0,0,0-.23,0c-.13-.06-.19,0-.26,0s-.21,0-.25.07A1.5,1.5,0,0,0-1,3c.05,0-.1.17-.12.23s-.13-.13-.18-.11c-.24,0-.1-.08-.31-.05s-.18,0-.24,0l-.25.05c.06-.08-.17.08-.23.08s-.11,0-.21.12c-.13-.11-.12.11-.17.16a.27.27,0,0,0-.12.22c-.15,0,0,.3-.08.21s0,.15-.07.22,0,.1-.07.22,0,.24-.07.22,0,.18-.06.22-.09.15-.07.21-.12.55-.1.41c-.17.21,0,.15.07.4s.24.15,0,.38c-.11,0-.06.28-.19.34s-.11.32,0,.38c0,.26,0,.12.17.28a.67.67,0,0,1,.21.26c.2.23.14.37.27.33s.15.16.21.12,0-.13.23.08c0-.07.14.12.24.05s.21,0,.25,0h.25c-.07-.07.17-.09.23,0A.29.29,0,0,0-1.1,8a.3.3,0,0,1,.23-.22c.13-.11.19-.16.18-.27s.12-.22.15-.29.09-.11.1-.21.06-.25.11-.19.11-.11.21-.15S0,6.52.1,6.51s.19,0,.23-.14.2-.06.21-.14.24-.06.19-.16S.9,6,.93,5.88s.09-.14.16-.24.08-.13,0-.2a.21.21,0,0,0-.06-.2C1,5,1,5.13.92,5s0-.24.19-.29a.17.17,0,0,0,.22-.13c.11.07.11-.08.16-.19s0-.11,0-.24c-.1.06-.15-.14-.13-.21s-.19-.12-.18-.36C1.06,3.52,1,3.51,1,3.38s-.12,0-.18-.15,0,0-.2-.13A.32.32,0,0,1,.45,3Z"/><path class="cls-9" d="M3.21.1c-.1-.24-.15-.31-.16-.3,0-.16-.13-.07-.12-.32,0-.08-.05-.16,0-.22s0,0-.08-.22-.08-.11-.18-.13a.2.2,0,0,0-.22-.06c-.21,0-.06-.06-.24,0s-.2.07-.22,0-.1,0-.29,0-.25.12-.3.06c0,.22-.16.18-.29.1S.89-.73.84-.83c0,.08-.11.07-.25.17s-.14.12-.22.2a.35.35,0,0,0-.1.27C.26-.1.51.08.4.1.4.27.61.3.53.37s0,.32.12.26C.48.68.82.77.75.9c.09.2.19.17.07.28a.43.43,0,0,0,.12.42c.13.13.11.22.33.26,0,.07.21,0,.22,0s0,0,.23,0c0,.1.19-.17.23,0a.3.3,0,0,1,.22,0c.22.18.14,0,.29.08S2.58,2,2.75,2,2.9,2,3,1.81s.27-.15.22-.21a1.84,1.84,0,0,0,.19-.25c.08-.09.14-.14.12-.26a.48.48,0,0,1,0-.26c.06-.09,0-.15-.07-.25S3.25.3,3.33.33C3.42.18,3.18.24,3.21.1Z"/><path class="cls-9" d="M3.45,11.42c0-.05.28-.15.14-.24a.58.58,0,0,0,.07-.26s-.05-.11,0-.29a2.84,2.84,0,0,0-.06-.29c-.08-.05-.07-.29-.1-.29a1.13,1.13,0,0,0-.15-.26c0-.16,0-.12-.18-.22A1.82,1.82,0,0,0,3,9.39c0-.11-.3-.08-.26-.14-.11-.06-.11,0-.29-.08.06,0-.19-.12-.31,0s-.14,0-.31,0-.09.09-.33.06c0,0-.18,0-.3,0a.53.53,0,0,0-.29.08c-.09,0-.15.11-.27.08a.33.33,0,0,0-.28.22c0,.06-.13.25-.06.37s0,.22-.07.3a.33.33,0,0,1-.09.28,1.8,1.8,0,0,1-.11.28c0,.17-.1.15-.1.29s0,.35,0,.43A.75.75,0,0,0,0,12a.54.54,0,0,1,.11.39,1.15,1.15,0,0,0,.14.39c0,.05,0,.2.15.21s.11.09.2.2.2.23.22.17a.19.19,0,0,0,.21.14,1.58,1.58,0,0,0,.26.06c.06-.12.06-.05.2-.1,0-.09.17-.13.18-.19s.14-.11.17-.22.12-.2.19-.22.14-.11.2-.21a1.23,1.23,0,0,1,.2-.2s.18-.07.21-.2.14-.13.2-.2.11-.16.21-.2.18-.15.2-.2A1.29,1.29,0,0,1,3.45,11.42Z"/><path class="cls-9" d="M8.7,8.25c0-.2-.09-.18,0-.36s-.14-.21-.13-.31-.21-.36-.23-.26c-.15-.11-.25-.22-.28-.2C7.87,7,7.77,6.87,7.7,7s-.27-.1-.35,0S7.2,7.05,7,7c0,.09-.19.09-.31.08a.62.62,0,0,0-.3.12s-.22,0-.29.14a.2.2,0,0,1-.29.16.4.4,0,0,1-.27.15c-.09.21-.27.17-.27.27s0,.24,0,.41c0,0-.1.29,0,.31s.1.17,0,.31,0,.18,0,.31a.54.54,0,0,1,0,.31s-.07.23,0,.29.08.23.16.22.13,0,.23.1.11.12.27,0,.18.09.32,0,.06.06.32,0a.34.34,0,0,0,.33,0c.1,0,.2-.14.31-.07s.13,0,.28-.08.22-.08.22-.1c.15-.17.12-.08.23-.18s.15-.14.2-.25.08-.27.18-.3,0-.29.14-.32a1.67,1.67,0,0,1,.09-.31A1.29,1.29,0,0,0,8.7,8.25Z"/><path class="cls-9" d="M5.48,5c.21-.13.15-.25.19-.34s.06-.18-.11-.25-.17-.08-.32-.18c-.2.14-.19,0-.4-.11s-.28,0-.4-.06,0,0-.3,0c-.17.2-.23,0-.33,0s-.23.19-.35.06c-.18.07-.08,0-.33.12,0,0-.37.08-.29.18-.1.06-.11.26-.22.26-.09.18-.18.11-.12.33s.06.18,0,.22-.08.25,0,.25,0,.29.13.41.23.15.21.1.19.11.28.07a.41.41,0,0,1,.32,0c.13,0,.19-.11.32,0S3.85,6,4,6s.24-.1.23-.07.15-.05.22-.12.07-.15.23-.14c0,0,.13-.18.23-.17a.87.87,0,0,0,.22-.17,1.2,1.2,0,0,0,.2-.18S5.41,5.12,5.48,5Z"/><path class="cls-9" d="M8.38-.67c0-.06-.11-.15-.06-.24s-.07,0-.08-.24.07-.23-.1-.22A.22.22,0,0,0,8-1.58c0-.06,0-.1-.15-.19,0,0-.19-.13-.19-.17a.31.31,0,0,1-.27-.16c0-.15-.28,0-.25-.08s-.16,0-.25,0-.14-.07-.25,0,0,.16-.27.09c-.22.15-.19-.09-.29.07s-.36.11-.36.09C5.38-2,5.45-2,5.38-1.75s-.07.13-.12.15c-.08.24-.19,0-.1.22-.14.07.09.12-.07.25s-.16,0,0,.27c.14,0,0,.09,0,.24s-.06.19,0,.2,0,0,.11.26c.08,0,.15.1.16.21s.09,0,.22.17.19.13.26.12.21.16.25.09c.26,0,.29.08.27.07.2,0,.19.06.28.05s.06,0,.28,0c0,.17.19.24.28,0,0,.06.21,0,.28,0s.27,0,.26-.08c.16,0,.17,0,.25-.13s.17,0,.21-.19.08-.33.13-.23c.05-.15.08-.13.07-.28S8.34-.52,8.38-.67Z"/><path class="cls-9" d="M13.9.28c0-.05-.07-.13,0-.22s-.23,0-.08-.21c-.07-.18-.1-.05-.12-.21-.13.06-.13-.13-.13-.19s-.13-.3-.15-.18,0-.22-.15-.15-.08-.24-.27-.21-.12-.07-.26-.14-.07-.13-.26-.07-.2.06-.27,0c-.23,0-.13-.13-.31,0-.16-.09-.34,0-.31.06-.14,0-.25,0-.24.07s-.24.06-.29.09-.15,0-.29.12a.36.36,0,0,1-.26.16s-.17.05-.22.19-.15.12-.14.23-.16.17-.06.26a.2.2,0,0,0,0,.3c.05,0-.07.17,0,.32.05,0-.09.22.05.31a.18.18,0,0,1,.07.3s.05.16.08.26.1.29.18.28.06.15.23.16a.41.41,0,0,0,.27.07s.13.05.3,0,.34.07.32-.06c.17,0,.23-.13.3-.09s.07-.09.27-.08a2.61,2.61,0,0,0,.32-.1c.07-.08.28,0,.35-.13s.35-.07.35-.16.23-.21.31-.2A1.16,1.16,0,0,1,13.7.84c.07,0,.14-.09.16-.26A.19.19,0,0,0,13.9.28Z"/><path class="cls-9" d="M11.6,7.3c.06,0,.29.12.3,0s.25,0,.3-.07.26-.1.29-.13.12-.15.25-.19c-.07-.17.14-.1.22-.23s.06-.1.16-.24.15-.15.13-.32-.08-.22,0-.31,0-.39-.06-.3-.16-.17-.11-.28c-.12-.12-.2-.2-.19-.27a1.45,1.45,0,0,1-.24-.26c-.06,0-.12-.19-.25-.2s0-.2-.28-.16c-.11-.07-.14,0-.31-.1s-.4.08-.3,0c-.11,0-.12,0-.27.1s-.28,0-.22.26c0,0,0,.2-.1.28a.94.94,0,0,0-.06.28c-.19.06,0,.2-.05.26.12.11-.06.24-.07.25s.05.18-.14.23c0,0-.1.29-.24.2s-.21,0-.19.12-.18,0-.17.17,0,.19-.08.2c.09.13,0,.16.07.22a.43.43,0,0,0,.36.18s.34,0,.41.06.41.22.41.11C11.45,7.37,11.4,7.35,11.6,7.3Z"/><path class="cls-9" d="M16,3.36c-.11,0,0-.31.13-.37s.14-.19-.11-.3c0,0-.16.08-.2,0s0,0-.22.13c0,0-.12.15-.22.15s0,.11-.16.14a.52.52,0,0,0-.39.2c-.25.12-.31.16-.34.27s-.16.18,0,.34c0,.17.17.09.35.22.09,0,.33.21.25.17.08,0,.07.09.28.2s.16.11.28.09.26,0,.2-.16,0-.32.07-.25c-.05-.09,0-.29,0-.28s.07-.29,0-.27C16.09,3.48,15.79,3.49,16,3.36Z"/><path class="cls-9" d="M14.6,12.11s-.12-.1,0-.3a1.16,1.16,0,0,1-.06-.32c-.06-.11,0-.11-.13-.33a1.94,1.94,0,0,1-.2-.34c-.05-.13-.26-.23-.25-.32s-.27-.23-.29-.3-.23-.08-.32-.26c-.14,0-.15-.17-.34-.22s-.29,0-.34-.15-.34,0-.35-.07-.16.09-.33,0-.16-.06-.3.11-.25.07-.26.2a.75.75,0,0,1-.2.27c.06.1-.11.12-.14.3s0,.09-.09.31-.07.13,0,.31c0,0-.06.14.05.27s0,.27.1.27c0,.19,0,.3.14.25a.49.49,0,0,1,.16.24c0,.05.12.21.15.25s.19.14.21.3.38.2.22.23a1.08,1.08,0,0,0,.23.14c0,.15.2,0,.27.06a.16.16,0,0,0,.31,0c.08.05.27-.06.34-.12s0,0,.24-.09.15-.07.29-.08c0,0,.19-.24.29-.09a.49.49,0,0,0,.26-.12c.14,0,.11-.11.21-.17S14.51,12.23,14.6,12.11Z"/><path class="cls-9" d="M10.48,14.53c0-.09-.13-.17-.07-.26s-.09-.07-.12-.29a2.05,2.05,0,0,1-.16-.3c-.09,0,0-.1-.19-.29,0,0-.08-.26-.22-.26s-.24-.23-.24-.21-.23-.16-.26-.14-.12.06-.29-.06a.41.41,0,0,0-.3,0c-.15-.13-.24,0-.33.1S8.1,13,8,13s-.34.15-.31.19l-.25.23c-.06.06-.14.24-.18.25-.1.21-.12.1-.07.33.13,0-.27.16,0,.34-.07.16,0,.07-.06.25s-.13.13-.13.23c-.19.14-.06.12-.11.23,0-.06-.11.06,0,.23s.25.16.16.17c.07.14.16.22.25.13,0,.07.22.13.31.08a.43.43,0,0,0,.34,0c.23,0,.24.11.35,0a1.29,1.29,0,0,1,.34,0c.2,0,.2,0,.29,0,.24-.06.19-.09.23,0a.83.83,0,0,1,.36,0c.24-.06.17-.1.34-.09a.67.67,0,0,1,.28-.14c.05,0,0-.09.21-.22.07-.12.15-.18.11-.3C10.35,15,10.58,14.71,10.48,14.53Z"/><path class="cls-9" d="M16.25,6.85a0,0,0,0,0,0,0c0-.07-.28,0-.22,0s-.17-.07-.25.08,0,0-.18.11,0,.19-.16.16,0,.14-.15.19c0,0-.21.08-.2.23-.22.19-.18.1-.21.21s-.23.13-.16.24c-.09.08.11.18,0,.29a1.54,1.54,0,0,1,.14.3.27.27,0,0,1,.11.31.52.52,0,0,0,.11.32c.2.13.05.37.15.29a.17.17,0,0,0,.22.1s.33-.07.21-.09.16.09.18-.22c.13-.15.08-.24.15-.28s.17-.23.11-.28.07-.18.07-.2,0-.21.05-.24a.56.56,0,0,1,.06-.25c0-.06,0-.1.05-.14Z"/><path class="cls-9" d="M15.23,17.29c-.08,0-.09-.19-.13-.26s-.09-.23-.17-.28-.12-.28-.22-.28a.42.42,0,0,1-.25-.26c-.06,0-.28-.2-.28-.22s-.26-.11-.29-.16-.35,0-.3-.08-.15,0-.31,0-.07.19-.29.12-.19.16-.28.26-.12,0-.17.27c-.12.07-.15.05-.13.28s-.05.1-.08.32c-.19.09-.09.2,0,.32s-.11.15,0,.31.11.2.09.29,0,.18.17.3.1.21.21.29.21.17.23.26.1.14.25.25.22.21.26.24.17.21.25.24a1.69,1.69,0,0,0,.26.22.6.6,0,0,0,.55.07,1,1,0,0,0,.3-.19.23.23,0,0,0,.21-.23c0-.14.18-.21.16-.27s.15-.23.1-.29c0-.21.09-.21.05-.31s0-.23,0-.31.07-.2,0-.32a1.67,1.67,0,0,1-.07-.3A1.25,1.25,0,0,1,15.23,17.29Z"/><path class="cls-9" d="M10.51,18.77c-.07,0-.08-.15-.11-.2s-.08-.17-.15-.21-.09-.21-.18-.2A.36.36,0,0,1,9.86,18s-.23-.15-.23-.17-.21-.08-.24-.12-.29,0-.25-.06-.13,0-.25,0-.07.14-.25.09-.15.12-.23.19-.1,0-.14.2-.13,0-.11.21,0,.07-.07.24-.07.15,0,.24-.08.11,0,.23.1.14.08.22,0,.13.14.22.08.15.17.21.18.13.2.2.08.1.2.18a.38.38,0,0,0,.22.18c.06,0,.14.16.2.18a1.06,1.06,0,0,0,.23.16.55.55,0,0,0,.45.06,1.08,1.08,0,0,0,.25-.14.19.19,0,0,0,.18-.18c0-.1.15-.15.13-.2s.12-.17.08-.21.08-.16,0-.23,0-.17,0-.24.06-.14,0-.23a.94.94,0,0,1-.06-.23C10.54,18.86,10.53,18.89,10.51,18.77Z"/><path class="cls-9" d="M5.26,16.51c0-.08.08-.27.1-.42s0,0,0-.25c-.21-.22.07-.15,0-.24s-.09-.07-.07-.41C5.31,15,5.21,15.12,5,15c-.09,0-.18-.06-.22,0s-.14-.05-.25,0a.36.36,0,0,0-.22,0c-.08.08,0,0-.21,0a.92.92,0,0,1-.24,0s-.22.13-.22,0a1.07,1.07,0,0,0-.41.09c-.16,0-.22.1-.16.13a.5.5,0,0,0-.14.22s-.09.06-.11.23,0,.1-.12.2-.1.07-.13.19c-.23,0-.17.17-.17.18-.14.38-.13.11-.27.29a.27.27,0,0,0,0,.37c0,.16.1.23.18.24s.17.11.28.16.16.09.32.11.26,0,.35.07.26,0,.33.06.15.08.29.07.2.08.42.13c.06,0,.26,0,.42-.05,0,0,.2-.07.18-.13,0-.22.08-.09.14-.19s0-.1.1-.21c0-.1,0-.2.07-.24a.22.22,0,0,1,.05-.23C5.25,16.63,5.18,16.64,5.26,16.51Z"/><path class="cls-10" d="M1.11,9.45a.33.33,0,0,0,.16,0,4,4,0,0,0,.48-.08A.37.37,0,0,0,2,9.4a.69.69,0,0,1,.29.16l.06,0h0a.45.45,0,0,0,.27.17h.08a.65.65,0,0,0,.39-.1l.07-.06a.67.67,0,0,0,.19-.25.82.82,0,0,0-.06-.83.45.45,0,0,0-.38-.17h0a2.43,2.43,0,0,0-.36,0H2.44c-.15-.05-.17-.08-.27-.05L2,8.3s-.09-.05-.13,0h0a2.3,2.3,0,0,0-.26,0H1.56a.49.49,0,0,0-.21,0l-.16.06A.52.52,0,0,0,1,8.47a.75.75,0,0,0-.21.32A.47.47,0,0,0,.78,9a.18.18,0,0,0,0,.23A.42.42,0,0,0,1.11,9.45Z"/><path class="cls-10" d="M3.47,15.85c.06-.09,0-.17,0-.22v0h0a.08.08,0,0,0,0-.09l0-.16c0-.07,0-.09-.06-.18l0-.05h0A.36.36,0,0,0,3.16,15h0a.5.5,0,0,0-.22,0,.24.24,0,0,0-.09,0,.36.36,0,0,0-.15.1c-.13,0-.25.09-.15.22l-.19.19a.8.8,0,0,1-.23.1c-.12-.05-.19,0-.25.06h0c-.06-.09-.14,0-.2,0H1.57l-.11,0a.37.37,0,0,0-.14.07h0a.46.46,0,0,0-.17.17h0c-.09,0-.06.09-.06.19s0,.06,0,.1-.06.14.06.27h0a.62.62,0,0,0,.15.21h0a1,1,0,0,0,.24.17h0a1.79,1.79,0,0,0,.24.12h.08l.15,0,.09,0h.27a1.11,1.11,0,0,0,1.08-1.11C3.46,16,3.47,15.93,3.47,15.85Z"/><path class="cls-10" d="M5.14-1.23s0,0-.11,0H5l-.15.08a.1.1,0,0,0,0,0l-.25.19h0a1.21,1.21,0,0,0-.24.21l0,0a.76.76,0,0,0-.09.18.57.57,0,0,0,0,.18.07.07,0,0,0,0,.05.3.3,0,0,0,0,.1.27.27,0,0,0,0,.13h0a.55.55,0,0,0,.15.2.61.61,0,0,0,.26.15s0,0,0,0A2.8,2.8,0,0,1,5,.44l.08,0c.06.05.12.14.21.12l0,0a.86.86,0,0,0,.24.11.65.65,0,0,0,.24,0c.05,0,.09,0,.1,0h0A.23.23,0,0,0,6.16.45.82.82,0,0,0,6.1-.34s0-.08-.09-.12L5.78-.83h0A.91.91,0,0,0,5.6-1h0a.72.72,0,0,0-.24-.14c0-.08,0,0-.09,0A.21.21,0,0,0,5.14-1.23Z"/><path class="cls-10" d="M6.17,5.06l0,0a.75.75,0,0,0,.15-.16h0a1.12,1.12,0,0,0,.13-.24h0s.12-.17.06-.29a.27.27,0,0,0,0-.21l0-.14h0a1,1,0,0,0-.14-.3h0a.56.56,0,0,0,0-.08c-.05-.09-.09-.22-.16-.19h0L6,3.31a.2.2,0,0,0-.16-.1h0A2.53,2.53,0,0,0,5.54,3h0A.3.3,0,0,0,5.29,3l-.1,0H5.14c-.13,0-.39-.13-.33,0H4.45c0-.21-.18,0-.28,0H4.11L4,3A.15.15,0,0,0,3.8,3a.61.61,0,0,0-.26.13l-.2.14-.06,0,0,.05h0A1.18,1.18,0,0,0,3,3.64a.77.77,0,0,0-.07.16.39.39,0,0,0,.13.44.72.72,0,0,0,.64,0l.05,0a1.13,1.13,0,0,1,.84.07l.06,0h0a1.45,1.45,0,0,1,.24.38l0,.08A1,1,0,0,0,5.07,5v0h0a.56.56,0,0,0,.27.16.08.08,0,0,0,.08,0,.69.69,0,0,0,.2,0h0c.21,0,.36,0,.28,0a.47.47,0,0,0,.21-.11Z"/><path class="cls-10" d="M5.66,8a.32.32,0,0,0,0-.13.22.22,0,0,0-.1-.09c0-.07-.07-.11-.17,0a.43.43,0,0,0-.19,0s-.08,0-.06,0c-.1-.1-.18,0-.23.16a2.23,2.23,0,0,0-.19.24.44.44,0,0,0-.12.27,1,1,0,0,0,0,.29h0v.12a.27.27,0,0,0,0,.15c0,.11,0,.29.13.24a.52.52,0,0,0,.22.16c0,.08.12.06.27,0h0s0,0,.09,0a.67.67,0,0,0,.19,0h0a.35.35,0,0,0,.14-.06.26.26,0,0,0,.11-.07h0l.06,0c.09-.07.17-.06.12-.16S6,9.07,5.93,9A.5.5,0,0,0,6,8.9H6a.41.41,0,0,0-.07-.23c0-.06-.1-.11-.15-.17h0c0-.2,0-.05-.11-.2s0,0,0-.25Z"/><path class="cls-10" d="M-1,3.48l.05,0c.12.13.17.12.33.13h0c.17.07.21,0,.25,0H-.3c.15.14.11,0,.41.1h0a.27.27,0,0,1,.08.07.33.33,0,0,0,.17.27.25.25,0,0,0,.09.2l0,.07h0a.55.55,0,0,0,.18.16s0,0,.06,0l.07,0a.47.47,0,0,0,.24,0h0a.63.63,0,0,0,.27-.16h0s0,0,0,0a1,1,0,0,0,.16-.24c.14-.09.14-.29.09-.31a2.44,2.44,0,0,0,0-.27h0s0-.06,0-.1a.75.75,0,0,0-.05-.16h0s0-.06,0-.09l-.08-.15h0c0-.13-.1-.18-.15-.2s-.05-.19-.19-.17a1.35,1.35,0,0,0-.26-.15c-.06-.08-.15,0-.27-.11s-.4-.07-.31-.05a1.51,1.51,0,0,0-.3,0h0l-.11,0-.18,0s-.12,0-.17.05l-.07,0a.92.92,0,0,0-.21.13h0l-.06.06c-.07,0-.15.08-.11.12h0L-1.07,3s0,0,0,.06,0,.16,0,.26A.28.28,0,0,0-1,3.48Z"/><path class="cls-10" d="M12.25,13.28c.07.05.14.12.25.07h.06a.49.49,0,0,0,.17-.06h0a.46.46,0,0,0,.17-.17h0c.08,0,.06-.06,0-.1a.17.17,0,0,0,0-.1h0c.09-.08,0-.27-.13-.2s-.17-.08-.26-.1l-.1,0s-.06-.06-.18-.06a.9.9,0,0,1-.27-.21.59.59,0,0,0,0-.08,1.28,1.28,0,0,1-.07-.39.42.42,0,0,0-.11-.26.8.8,0,0,0-.17-.15l-.06,0a.66.66,0,0,0-.2-.06h-.08a.52.52,0,0,0-.41.23h0a.61.61,0,0,0-.07.14.14.14,0,0,0,0,.07.6.6,0,0,0,0,.26.45.45,0,0,0,0,.28.32.32,0,0,0,.12.25.57.57,0,0,0,.18.2h0a.68.68,0,0,0,.26.11c.12,0,.25,0,.37,0l.14.07a1,1,0,0,1,.17.13S12.11,13.34,12.25,13.28Z"/><path class="cls-10" d="M12.27,9.55v0s0,0,0-.08a.2.2,0,0,0,0-.08.33.33,0,0,0-.06-.1c0-.15-.07-.12-.16-.15A.72.72,0,0,0,11.73,9h-.32a1.32,1.32,0,0,0-.3.09s0,0-.09.05a1.09,1.09,0,0,0-.17.13h0a.62.62,0,0,0-.2.25v0c-.05.06-.16,0-.09.19h0s0,.08,0,.12a.11.11,0,0,0,0,.11s-.08.23,0,.24h0c-.1,0,0,.06,0,.23a.82.82,0,0,0,.13.37c0,.12.05.23.29.25a.36.36,0,0,0,.22,0,.25.25,0,0,0,.18-.08.12.12,0,0,0,.06-.08.36.36,0,0,0,.07-.17.26.26,0,0,0,0-.29.55.55,0,0,1,.09-.28l0,0a1,1,0,0,1,.29-.17A.47.47,0,0,0,12,9.94l.07,0h0a.33.33,0,0,0,.13-.13s0,0,0,0A.32.32,0,0,0,12.27,9.55Z"/><path class="cls-10" d="M13.86,5.53l0,0a.51.51,0,0,0-.09-.18h0a3.87,3.87,0,0,0-.27-.43h0a1.62,1.62,0,0,0-.18-.2c0-.06-.13-.18-.18-.16a.43.43,0,0,0-.3-.16.32.32,0,0,0-.2,0h-.13a.26.26,0,0,0-.24.18.22.22,0,0,0-.06.2v.1a2.21,2.21,0,0,1,.06.34.42.42,0,0,1,0,.16s-.1.09-.08.15,0,0,0,0a.76.76,0,0,0-.11.26.36.36,0,0,0,.07.33.3.3,0,0,0,.23.16h0a.64.64,0,0,0,.29.13.86.86,0,0,0,.28.15s.08.07.14.13l.05.06h0a1,1,0,0,0,.43.31h.06a.33.33,0,0,0,.25-.12c.1-.06.09,0,.15-.25a1.49,1.49,0,0,0,0-.56.07.07,0,0,0,0-.05h0A.3.3,0,0,0,14,5.78l-.09-.25Z"/><path class="cls-10" d="M16.25-.53,16-.43h0l-.14.08c-.07,0-.13,0-.11.08-.13,0-.15.15-.18.2V0h0a.34.34,0,0,0-.15.41h0a1.3,1.3,0,0,0,0,.44c-.07.11,0,.14.05.23a.84.84,0,0,0,.12.23h0l.06.06h0l0,0,0,0,0,0,.06,0h0c.11,0,.23.1.23,0l0,0a.53.53,0,0,0,.14-.12Z"/><path class="cls-10" d="M16.25,12.46h0l-.17.14-.17.17h0l-.11.12-.06.06c-.16,0-.2.19-.14.2a.94.94,0,0,0-.12.22h0c-.09,0-.06.11-.08.18v0h0c-.1.16-.09.16-.07.24a2,2,0,0,0,0,.26h0a2.44,2.44,0,0,0,0,.27h0c-.08.11,0,.13,0,.19s0,.07,0,.1,0,.1.06.26h0a1.12,1.12,0,0,1,.05.13c0,.06,0,.11.06.12v0a.36.36,0,0,0,.07.1.76.76,0,0,0,.08.11,1.64,1.64,0,0,0,.24.21h0a.51.51,0,0,0,.31.11h.08Z"/><path class="cls-10" d="M.69,20.26a0,0,0,0,0,0,0,.49.49,0,0,0,0,.17c0,.05,0,.14.07.17s.05.1.16.14.17.11.15.08,0,0,.08,0h.07c0,.05.13.11.17,0h.16l.14,0h0l.16,0L2,20.75H2l.11,0,.06,0c.12,0,.19-.07.15-.09l.14-.12h0c.07,0,.07-.05.11-.1v0h0c.11-.09.1-.09.11-.14s.07-.11.11-.17h0l.08-.18h0c.08,0,0-.08,0-.14a.14.14,0,0,0,0-.07s0-.06,0-.19H3v-.1s0-.08,0-.1H3a.24.24,0,0,0,0-.09A.32.32,0,0,0,3,19a.58.58,0,0,0-.1-.21v0a.4.4,0,0,0-.18-.16c-.12,0-.29-.07-.37.05a.82.82,0,0,0-.11.44,1.13,1.13,0,0,1-.07.52.4.4,0,0,1-.27.25c-.34.08-.79-.15-1.06.17a.21.21,0,0,0,0,.06.24.24,0,0,0-.06.11Z"/><path class="cls-10" d="M6.92,2.66a.5.5,0,0,0,.1-.4H7a.78.78,0,0,0-.21-.36l-.23-.19c-.07-.11-.17-.12-.25-.17h0l-.13-.07A.65.65,0,0,0,6,1.38H6a1.09,1.09,0,0,0-.24-.07h0a.3.3,0,0,0-.12,0,1.31,1.31,0,0,0-.28,0H5.21a.46.46,0,0,0-.36.19.73.73,0,0,0-.15.41.51.51,0,0,0,.16.4A.6.6,0,0,0,5,2.38l0,0,.08,0h0a1.23,1.23,0,0,0,.27,0h0a1.65,1.65,0,0,0,.32,0h0a1.21,1.21,0,0,1,.29.1l0,0s.11.1.16.1a.76.76,0,0,0,.22.11h0A.38.38,0,0,0,6.92,2.66Z"/><path class="cls-10" d="M13.26,22.27a.47.47,0,0,0,.1-.39h0a.7.7,0,0,0-.21-.36l-.22-.19c-.08-.11-.18-.12-.26-.17h0l-.13-.07a.44.44,0,0,0-.17-.08s0,0,0,0l-.24-.06H12a.3.3,0,0,0-.12,0h-.36a.44.44,0,0,0-.36.19.73.73,0,0,0-.15.41.51.51,0,0,0,.16.4l.15.09.05,0,.08,0h0a.82.82,0,0,0,.27,0h.05a1.53,1.53,0,0,0,.31,0h0a1.21,1.21,0,0,1,.29.1l0,0c.05,0,.11.1.16.1a.76.76,0,0,0,.22.11h0A.37.37,0,0,0,13.26,22.27Z"/><path class="cls-10" d="M-.66,11.24a.31.31,0,0,0,.05.1h0a.3.3,0,0,0,.09.1l.09.07,0,0a.48.48,0,0,0,.18.06.21.21,0,0,0,.22,0l.13,0a.52.52,0,0,0,.19-.11.13.13,0,0,0,.08-.08c.2-.12.13-.1.15-.29a.49.49,0,0,0,0-.12c0-.09,0-.14,0-.2h0a1.91,1.91,0,0,1-.06-.33.69.69,0,0,1,.09-.31c.07,0,.12-.16.14-.29a.36.36,0,0,0,0-.1V9.67a.29.29,0,0,0-.11-.19.6.6,0,0,0-.36-.12,1,1,0,0,0-.88.41,1.32,1.32,0,0,0-.24.76v.07h0a1.47,1.47,0,0,0,0,.29.12.12,0,0,0,0,.09.5.5,0,0,0,.05.13C-.78,11.19-.72,11.19-.66,11.24Z"/><path class="cls-10" d="M1.92,14A1.09,1.09,0,0,0,2,13.84H2a.88.88,0,0,0,0-.23.68.68,0,0,0-.41-.52A2.5,2.5,0,0,0,1,13H.91c-.08,0-.12-.14-.15,0l0,0a.5.5,0,0,1-.13-.22c0-.1,0-.08-.07-.11l-.07-.11h0c-.09-.27-.2-.2-.2-.18s-.24-.07-.27,0-.11,0-.23.15-.25.24-.16.31a.83.83,0,0,0,0,.27s0,.05,0,.08a.62.62,0,0,0,.22.35c0,.06.21.21.27.28l0,0,.06.09c0,.11,0,.19.08.13l.14.22h0l0,.07a.21.21,0,0,0,.12.14c.1.15.08.17.18.16h0a.58.58,0,0,0,.17.06l.06,0H1a.21.21,0,0,0,.2,0,.72.72,0,0,0,.2-.09h0l.08,0c.05,0,.1,0,.12-.09s.14-.07.16-.16h0a1.74,1.74,0,0,0,.11-.18s0,0,0,0S1.92,14,1.92,14Z"/><path class="cls-10" d="M2.71,13.49c.2.15.07,0,.24,0H3l.26-.08h0a1.7,1.7,0,0,0,.44-.24l.05,0a.84.84,0,0,0,.18-.2h0L4,12.74a.14.14,0,0,0,0-.07.62.62,0,0,0,0-.38c0-.14,0-.22,0-.36a.88.88,0,0,1,.25-.26h0l0,0a.47.47,0,0,0,.16-.25.49.49,0,0,0,0-.12l0-.11h0s0,0,0-.05h0a.08.08,0,0,0,0,0h0l0-.05h0l0,0h0s0-.13-.17-.17h0c0-.11-.15-.16-.16-.15a.62.62,0,0,0-.25-.31h0a.46.46,0,0,0-.24-.19l-.09,0H3.21a.68.68,0,0,0-.21.1H3a.71.71,0,0,0-.15.15h0l0,0a.57.57,0,0,0-.08.13h0a.26.26,0,0,0-.1.21,1.7,1.7,0,0,0,0,.22.61.61,0,0,0,0,.14v.09h0s0,.07,0,.11,0,.08,0,.13h0a2,2,0,0,1,0,.23.2.2,0,0,0,0,.07.41.41,0,0,1,0,.16l0,.07c0,.09-.14.11-.15.18h0l-.07.07c-.07,0-.14.07-.15.14a.61.61,0,0,0-.14.17.15.15,0,0,0-.05.08H2c-.08.18-.14.22,0,.3,0,.26,0,.11.16.28h0a1,1,0,0,0,.2.16l.06,0,.14.05A.36.36,0,0,0,2.71,13.49Z"/><path class="cls-10" d="M14.05,19.34a.38.38,0,0,0,0-.1,1.65,1.65,0,0,0-.37-.72,2,2,0,0,0-.25-.25.15.15,0,0,0-.12-.11.46.46,0,0,0-.19-.18h0s0-.19-.16-.2c0-.19-.08-.2-.21-.37a2.14,2.14,0,0,0-.13-.19.23.23,0,0,0-.14-.13.3.3,0,0,0-.29,0l0,0-.1.09a1,1,0,0,0-.17.64,2.22,2.22,0,0,0,.08.68,1.55,1.55,0,0,0,.13.36A2,2,0,0,0,13.27,20h.46A.59.59,0,0,0,14,19.7h0l0-.07a.17.17,0,0,0,0-.15C14.09,19.43,14.07,19.39,14.05,19.34Z"/><path class="cls-10" d="M14.38,16.77h.1l.12,0,.17-.1h0a1.07,1.07,0,0,0,.14-.16.18.18,0,0,0,.06-.1.19.19,0,0,0,0-.18A.74.74,0,0,0,15,16a1.16,1.16,0,0,0,0-.18.2.2,0,0,0-.06-.13.69.69,0,0,0-.16-.21.86.86,0,0,1-.13-.14l0-.06c-.07-.13-.11-.28-.17-.42a.15.15,0,0,0-.05-.12,1,1,0,0,0,0-.1h0a.37.37,0,0,0-.13-.15.34.34,0,0,0-.22-.12l-.1,0a.32.32,0,0,0-.16,0h0c0-.15,0,0,0-.25s-.07,0,0-.15c-.14-.11-.12-.23-.27-.13s-.29-.09-.25.06c-.1-.11-.18.05-.23.16s-.13.16-.18.24a.38.38,0,0,0-.13.27c0,.07,0,.13,0,.22a.14.14,0,0,0,0,.15h0a.64.64,0,0,0-.26.29h0l-.05.07c-.07.05-.2.12-.15.23a.11.11,0,0,0,0,.08.65.65,0,0,0-.08.22,1.18,1.18,0,0,0-.05.42.32.32,0,0,0,.11.4c0,.1,0,.25.28.28s.21.08.33,0a.67.67,0,0,0,.14-.09s.08-.05.12-.12.22-.13.25-.21h0c.13,0,.2.05.32-.08a.28.28,0,0,0,.24.09h0a.74.74,0,0,1,.19.16.47.47,0,0,0,.18.16.35.35,0,0,0,.14.06S14.32,16.78,14.38,16.77Z"/><path class="cls-10" d="M16.25,18.28,16,18.22h0a.6.6,0,0,1-.21-.11s0,0,0,0c-.17-.26-.09-.54-.18-.81s0-.12-.14-.26h0a.69.69,0,0,0-.22-.16h0c0-.08-.22-.07-.25,0-.06-.15-.08,0-.17.09a.46.46,0,0,0-.07.07.54.54,0,0,0-.1.2h0s0,0,0,.06-.06,0,0,.16h0s0,.09,0,.13,0,.07,0,.11h0a1.6,1.6,0,0,0,.05.21.2.2,0,0,0,0,.16.19.19,0,0,0,0,.07,1.18,1.18,0,0,1,0,.25c0,.19-.19.19,0,.24a1.48,1.48,0,0,1-.17.33s-.06.06-.06.09h0a2.43,2.43,0,0,0-.14.2h0c-.14.05-.09.12-.08.17s0,0,0,0h0c-.05.07,0,.08,0,.16v.08a.67.67,0,0,0,.24.51.41.41,0,0,0,.19.08h0a.21.21,0,0,0,.14,0l.16,0,.15-.13c.12-.14.2-.34.37-.43a2.34,2.34,0,0,1,.66-.09Z"/><path class="cls-10" d="M5.78,14.85h0a1.55,1.55,0,0,0,0-.31.57.57,0,0,0-.13-.37c0-.05-.07-.1-.07-.06a.63.63,0,0,0-.2-.13c0-.09-.1-.1-.25-.05a.61.61,0,0,0-.3.08h0c-.19,0-.24.05-.29.14a1.72,1.72,0,0,1-.39.1.35.35,0,0,0-.22.08l-.08.06c-.08.06-.14.1-.15.2h0c-.09.06-.07.2,0,.33a.72.72,0,0,0,.13.25l.08.09h0c.14.2.05.14.36.2s.2.09.29.08l.08,0,.2.06h0a.49.49,0,0,0,.28,0c.1,0,.33,0,.29-.05l.08,0,0,0v0c.08,0,.17.06.12-.16h0a.13.13,0,0,0,0-.08c0-.05,0-.1,0-.15S5.93,15,5.78,14.85Z"/><path class="cls-10" d="M5.53,15.55h0S5.53,15.56,5.53,15.55Z"/><path class="cls-10" d="M6.26,16.7a.89.89,0,0,0-.07-.28,1,1,0,0,0-.14-.28A.33.33,0,0,0,5.79,16c-.15,0-.21-.05-.21.07s-.07.06-.09.12,0,.11-.08.17-.11.1-.07.16h0c0,.09-.19.1-.13.19a.93.93,0,0,1-.37.15l-.22.06-.14,0a1.32,1.32,0,0,0-.24,0h0a.33.33,0,0,0-.15,0L4,17l-.22.08h0l-.18.12,0,0c-.07,0-.07,0-.09.1a.75.75,0,0,0-.07.12h0s0,0,0,0a.62.62,0,0,0,0,.23h0c0,.08-.08.23,0,.26a.46.46,0,0,0,.12.24h0a.75.75,0,0,0,.15.16s0,0,0,0c.06.15.08.09.23.13l.13,0a.16.16,0,0,0,.18,0H4.6l.15,0h.1L5,18.5H5l0,0h0l.07,0h0l.07,0h0l0,0h0l.06,0h0l.06,0h0l0,0h0l.11-.09h0l0,0h0L5.76,18l0-.05h0l0,0h0l0-.05h0l0-.05v0l0,0v0l0-.05H6a.1.1,0,0,0,0-.05v0l0,0h0c0-.09.08-.19.11-.28a.65.65,0,0,0,0-.19s0-.06,0-.09h0c0-.09.08-.21,0-.3Z"/><path class="cls-10" d="M7.73-.22A4.86,4.86,0,0,1,7-.1H7L7-.08H6.89L6.78,0h0A.15.15,0,0,0,6.68,0a.28.28,0,0,0-.09.1h0A.35.35,0,0,0,6.5.42a.66.66,0,0,0,0,.2.08.08,0,0,0,0,.07h0a.74.74,0,0,0,.14.22h0a1.66,1.66,0,0,0,.19.18h0c.21.21.13.17.26.15h0l0,0c.09,0,.15.1.24.08h0l.21,0h0c.16,0,.21,0,.3,0h.15l0,0h.08l0,0h0l0,0h0l0,0h0l0,0h0l0,0v0l0,0h0L8.67,1h0s0,0,0,0h0L8.77.76h0L8.8.7h0s0-.09,0-.13V.47s0,0,0-.07v0h0v0h0a.34.34,0,0,0,0-.1h0V.15h0V0h0V0h0a1.18,1.18,0,0,0,0-.26.29.29,0,0,0-.07-.23h0A.37.37,0,0,0,8.68-.7h0a.34.34,0,0,0-.23-.05.51.51,0,0,0-.25.1C8.05-.54,8-.5,8-.43a1,1,0,0,1-.2.16Z"/><path class="cls-10" d="M3.61,6.91a.81.81,0,0,1,.3-.13l.1,0c.12,0,.28,0,.28-.07.18,0,.2.06.32-.16h0l.11-.08s.07,0,.13-.17A.79.79,0,0,0,4.93,6h0a1.09,1.09,0,0,0,0-.18s0-.09,0-.1a.52.52,0,0,0-.14-.21s0,0,0,0a.52.52,0,0,0-.23,0H4.35a.1.1,0,0,0-.11,0L4,5.56l-.11.05s-.06-.07-.09,0h0a.57.57,0,0,1-.23,0,.43.43,0,0,0-.23-.07L3.11,5.5l0,0a.74.74,0,0,0-.25-.05h0a.51.51,0,0,0-.26.07.9.9,0,0,0-.19.15v0l0,0-.06.1,0,.08s-.08.16-.08.25h0a1.24,1.24,0,0,0,0,.27c0,.24,0,.11,0,.18a.5.5,0,0,0,0,.12c-.09.15,0,.33.09.29s.18.2.23.21h0c0,.07.17.1.26.11h.14a.22.22,0,0,0,.15,0,1,1,0,0,0,.28-.15l.29-.23Z"/><path class="cls-10" d="M7.76,7.61a.19.19,0,0,0,.16-.14h0a.92.92,0,0,0,.17-.25s.06-.08,0-.12a.31.31,0,0,0,0-.23c0-.06,0-.05,0,0L8,6.77a.21.21,0,0,0-.13-.11h0l0,0c-.08,0-.13-.13-.22-.1s-.16-.13-.28-.08h-.1a.49.49,0,0,0-.21,0,.81.81,0,0,0-.32,0h0c-.1,0-.25,0-.31.07a.72.72,0,0,0-.29.12h0l-.24.16,0,.05s-.09,0-.12.22-.13.14,0,.3.32.24.35.2a.27.27,0,0,0,.13,0h.29c0,.11.28.13.24,0l.14,0s.09.08.12,0H7s0,0,.1,0l.16,0h0c0,.06.35.07.25,0s0,0,0,0a.56.56,0,0,0,.17-.09Z"/><path class="cls-10" d="M7.58,10.48a.68.68,0,0,0-.12-.3s0-.07-.08-.1A1,1,0,0,0,7.1,9.9a.2.2,0,0,0-.21,0,3,3,0,0,0-.41.08H6.37a.43.43,0,0,1-.22-.1C6.07,9.68,6,9.73,5.9,9.7a.45.45,0,0,0-.32.05h0a.21.21,0,0,0-.08.06.85.85,0,0,0-.17.16s-.17.16-.15.32-.07.11,0,.36c-.1.21,0,.19.11.26l0,0h0s0,0,0,0a.57.57,0,0,0,.22.19.28.28,0,0,0,.28.07h0c.13.06.14,0,.32-.1.08,0,.14,0,.19-.12s.1,0,.16,0l.06,0a2.2,2.2,0,0,1,.26.15l.12.07s0,0,.08,0,0,0,.1,0l.12,0a.49.49,0,0,0,.25-.17h0l0,0c0-.07.12-.17.09-.25S7.62,10.55,7.58,10.48Z"/><path class="cls-10" d="M8,10.24l.17,0h0a1.06,1.06,0,0,0,.25,0c.05,0,.24.08.3,0l.32,0h0c.09,0,.13,0,.22-.07l.1,0A1.16,1.16,0,0,0,9.62,10l.07-.06,0,0,0-.06h0l.06-.07v0a.43.43,0,0,0,0-.07.25.25,0,0,0,0-.07v0s0-.11.05-.16v0l0-.17v-.2h0a.47.47,0,0,0,0-.17v0a.26.26,0,0,0-.09-.24l0-.05a.48.48,0,0,0-.07-.15l0,0c0-.06,0-.1-.08-.15a.56.56,0,0,1-.05-.08h0a.43.43,0,0,0-.14-.19l-.18-.18,0,0h0A.92.92,0,0,0,9,7.58H9a.71.71,0,0,0-.25-.06.29.29,0,0,0-.22,0,.35.35,0,0,0-.12.22.28.28,0,0,0,0,.09c0,.06,0,.12.05.16s0,.26,0,.31h0a.88.88,0,0,1,0,.16.47.47,0,0,0,0,.14h0c-.07.14-.16.14-.16.28a1.21,1.21,0,0,1-.21.24c-.06,0-.11.07-.19.17a.72.72,0,0,0-.22.47s0,0,0,0,0,0,0,.17a.46.46,0,0,0,.19.2S8,10.24,8,10.24Z"/><path class="cls-10" d="M16.25,9.77l0,0a.17.17,0,0,0-.06-.06c0-.05,0-.13-.14-.21,0,0,0,0-.06-.08l-.09-.14h0c0-.1-.07-.16-.15-.21h0a.48.48,0,0,0-.2-.15l-.11-.05-.11,0h0a.83.83,0,0,0-.22,0,.76.76,0,0,0-.41.13.28.28,0,0,0-.14.18s0,.15,0,.27h0v0a2.25,2.25,0,0,0,.08.24.48.48,0,0,0,.15.25h0l.2.24h0l0,0a2.55,2.55,0,0,0,.47.34h0a1.39,1.39,0,0,0,.28.12h0s.13.06.29.06l.21,0Z"/><path class="cls-10" d="M16.25,6.05A1.17,1.17,0,0,0,16,5.9a.05.05,0,0,0,0,0h0a.49.49,0,0,0-.28-.08.76.76,0,0,0-.26,0h-.08a.19.19,0,0,0-.16.06c-.06-.13-.14,0-.22.13a1.54,1.54,0,0,0-.19.17h0l-.09.13s-.07,0-.06.08h0a2.56,2.56,0,0,0-.11.24.66.66,0,0,0-.08.24c-.1.1-.19.21-.07.27a.25.25,0,0,0,0,.23,1.31,1.31,0,0,0,0,.28v0c-.09.07-.1.08.06.25h0a1.09,1.09,0,0,0,.14.23.3.3,0,0,0,.19.12.36.36,0,0,0,.17,0,.12.12,0,0,0,.07,0s0,0,0-.05A.51.51,0,0,0,15.06,8a1,1,0,0,1,.18-.26c.11,0,.08,0,.27-.18h0a1.4,1.4,0,0,1,.31-.09h.43Z"/><path class="cls-10" d="M9.93-.58h0a.69.69,0,0,0-.23.16c0-.06-.06,0-.1.12a.44.44,0,0,0-.08.11h0a1.34,1.34,0,0,0-.13.27c0,.12-.13.24-.05.29h0a.86.86,0,0,0,0,.28.76.76,0,0,0,.13.23A.15.15,0,0,0,9.56,1a.49.49,0,0,0,.16.1A.67.67,0,0,0,10,1.1h0a1.37,1.37,0,0,0,.28-.05A.38.38,0,0,0,10.45,1l.06,0h0a.75.75,0,0,0,.15-.16s.06,0,0,0a.18.18,0,0,0,.07-.23.39.39,0,0,0-.07-.23c-.12-.25-.16-.19-.15-.18a.52.52,0,0,1-.11-.19.31.31,0,0,0,0-.13.5.5,0,0,0,0-.12s.1-.12,0-.15-.16-.23-.27-.14S10-.66,9.93-.58Z"/><path class="cls-10" d="M10,2.06a1.11,1.11,0,0,0,0,.17,1.07,1.07,0,0,0,.13.31h0a.6.6,0,0,0,.23.2h0a.41.41,0,0,0,.28.07h0c.07,0,.13,0,.21,0L11,2.71a.75.75,0,0,1,.2-.11s.1-.06.21,0a2.2,2.2,0,0,1,.26.15c.11.1.18.12.2.1h0c.08,0,.21,0,.22,0s.06,0,.1,0a.57.57,0,0,0,.26-.42h0a.86.86,0,0,0,0-.32h0c0-.05,0-.09,0-.13a.45.45,0,0,0-.06-.12l0,0a1,1,0,0,0-.18-.18h0l-.07,0h0a.48.48,0,0,0-.32-.08.79.79,0,0,0-.41.08c-.12-.08-.19,0-.28-.07l0,0s0-.05-.1-.08a.35.35,0,0,0-.14-.06h0c-.14-.09-.21,0-.32.05s-.21,0-.25.22a1,1,0,0,0-.1.18.17.17,0,0,0,0,.14A.65.65,0,0,0,10,2.06Z"/><path class="cls-10" d="M14.17,1.72l.06,0a.67.67,0,0,0,.2-.12.81.81,0,0,0,.16-.16s0,0,0,0l0,0h0a.43.43,0,0,1,0-.07h0a.25.25,0,0,0,0-.07v0s0-.09,0-.14V1l0-.17v0a1,1,0,0,0,0-.17v0a.28.28,0,0,0,0-.09h0a.19.19,0,0,0,0-.08v0a.19.19,0,0,1,0-.08h0l0-.08v0l0-.08c-.22-.45-.55-1-1.1-1.07a.35.35,0,0,0-.22,0,.35.35,0,0,0-.12.22.54.54,0,0,0,.06.25c0,.07,0,.13,0,.18a.49.49,0,0,1,0,.12h0a.8.8,0,0,1-.06.3c-.12.17-.11.08-.16.29h0c-.13.09-.28.07-.21.23-.08-.07-.16.1-.22.2L12.64,1c-.05,0-.07.08-.08.15a.54.54,0,0,0-.05.22.45.45,0,0,0,.07.24.24.24,0,0,0,.08.09h0l0,0,.06,0h0l.16.07c.06,0,.1,0,.08,0a.71.71,0,0,0,.2,0h.06a3.91,3.91,0,0,0,.46,0,.17.17,0,0,0,.16,0S14.09,1.82,14.17,1.72Z"/><path class="cls-10" d="M7.07,14.26l.11,0h0a.32.32,0,0,0,.22-.16c.06,0,.08-.08.1-.14a1.55,1.55,0,0,0,.12-.22s0,0,0-.1.14-.09.13-.21l0,0L8,13.23a1.1,1.1,0,0,0,.27,0h0s.05,0,.09,0a.52.52,0,0,1,.16.06h0l.22.1,0,0h0c.05.07.18.08.24.1s.09,0,.14,0a.85.85,0,0,0,.39,0h0c.1,0,.23-.05.22-.13h0a.6.6,0,0,0,.08-.08c.05-.06.1-.1.07-.15a.29.29,0,0,0,.12-.16c0-.08,0-.15-.06-.23s.08-.22-.1-.33a.18.18,0,0,0-.06-.1,1.29,1.29,0,0,0-.16-.17h0A1.43,1.43,0,0,0,9.43,12l-.07,0h0c-.07-.08-.13-.08-.27-.12l-.1,0c-.05-.09-.24-.1-.39-.08H8.31c-.05,0-.09,0-.1,0s0,0-.11,0a1.55,1.55,0,0,0-.23.06.87.87,0,0,0-.24.1.62.62,0,0,0-.12.08h0c-.16.08-.24.11-.29.28-.1,0-.1.09-.12.15L7,12.47s-.11.08-.15.13l-.08.05-.24.13-.1.07a1,1,0,0,0-.19.27.4.4,0,0,0-.06.33.43.43,0,0,0,0,.16,1.09,1.09,0,0,0,0,.17h0a.08.08,0,0,0,0,.05.69.69,0,0,0,.13.2l0,0a.54.54,0,0,0,.22.16l.1,0a.43.43,0,0,0,.17,0C7,14.31,7,14.28,7.07,14.26Z"/><path class="cls-10" d="M7.24,16.59h0l0,0a.42.42,0,0,0,.14.09l.17.05s.06,0,.1,0h.12a.16.16,0,0,0,.12,0H8l.15,0h.07l.23,0h0l.14,0h.09c.23,0,.46,0,.69,0,0,0,.08,0,.16,0a.2.2,0,0,0,.17,0h.11s.06,0,.13,0l.18,0,.08,0,.13-.05h0l.11,0s.09,0,.13-.08h0a2,2,0,0,0,.57-.58,1.34,1.34,0,0,0,.12-.22h0l0-.05a1.54,1.54,0,0,0,.08-.19h0a1.89,1.89,0,0,0,.12-.51h0c0-.06,0-.08,0-.26h0a.35.35,0,0,0,0-.14.15.15,0,0,0,0-.1,1.06,1.06,0,0,0-.11-.21h0a1.35,1.35,0,0,0-.16-.19h0c0-.06-.08-.09-.13-.12a.93.93,0,0,0-.4-.17h0a.56.56,0,0,0-.35.09s-.19.12-.2.2-.08.12-.1.26,0,.12,0,.2a.31.31,0,0,0,0,.1h0c0,.19,0,.23,0,.3s-.17.25-.11.28c-.15,0-.18,0-.21.22l-.09,0a.76.76,0,0,1-.21,0h0a1.28,1.28,0,0,0-.3,0c-.15-.05-.19-.13-.31-.07h0l-.14-.05c-.06,0-.12-.07-.16-.06a1.31,1.31,0,0,0-.76,0h0l-.21.08a.91.91,0,0,0-.21.18h0l0,0c0,.06-.1.06-.13.21s-.11.19-.06.25a.7.7,0,0,0,0,.25H7a.83.83,0,0,0,.08.22s0,0,0,0l0,.05A.23.23,0,0,0,7.24,16.59Z"/><path class="cls-10" d="M-.07,6.67a.55.55,0,0,0,.2.17l0,0c.16,0,.19.13.32,0h0a.48.48,0,0,0,.2-.07.18.18,0,0,0,.09-.07,1.2,1.2,0,0,0,.13-.21A.5.5,0,0,0,1,6.42l0,0c.08-.11.21-.06.17-.16a.29.29,0,0,0,.24-.13c.12,0,.29-.06.23-.13a.41.41,0,0,0,.16-.22s0,0,0,0a.43.43,0,0,0,0-.16h0l-.05-.1-.07-.1-.17-.16s-.08-.07-.13-.09A1.92,1.92,0,0,0,1.1,4.9a1.85,1.85,0,0,0-.4-.12l-.13,0a1.08,1.08,0,0,0-.31,0A.34.34,0,0,0,0,4.9.23.23,0,0,0-.07,5l0,0s0,0,0,.07,0,.23,0,.23,0,.14.06.24,0,.18,0,.21-.06.19-.09.29h0a1.37,1.37,0,0,0-.07.29.33.33,0,0,0,.09.31Z"/><path class="cls-10" d="M15.4,11.73a.62.62,0,0,0-.06-.21c0-.12,0-.14-.06-.15a.14.14,0,0,0,0-.06h0v0h0c0-.08-.07-.23-.11-.18h0c0-.11-.07-.11-.14-.16s0-.06-.1-.08l-.08,0h0c0-.07-.12-.06-.21-.07a.54.54,0,0,0-.22,0,.11.11,0,0,0-.11,0l-.12,0A.35.35,0,0,0,14,11a.31.31,0,0,0,0,.22.67.67,0,0,0,.1.23c0,.07.09.09.16.14s.08.15.19.18l.07.12a.1.1,0,0,0,0,.07.28.28,0,0,1,0,.09.17.17,0,0,1-.07.14l-.15.06h-.07l-.24,0h0c-.05,0-.21,0-.32,0a.21.21,0,0,0-.23.09.77.77,0,0,0-.19.21.46.46,0,0,0-.09.21.62.62,0,0,0,0,.27v0l0,.09a.76.76,0,0,0,.09.18.84.84,0,0,0,.75.32,2.12,2.12,0,0,0,.41-.08,1.64,1.64,0,0,0,.3-.14h0a1.43,1.43,0,0,0,.44-.4.23.23,0,0,0,.07-.11,1.42,1.42,0,0,0,.08-.18h0a1.67,1.67,0,0,0,.08-.3h0a.65.65,0,0,0,0-.31h0a.76.76,0,0,0,0-.15C15.44,11.81,15.48,11.77,15.4,11.73Z"/><path class="cls-10" d="M12.38,10.19a.46.46,0,0,0,.07.16.28.28,0,0,0,.2.1c.1,0,.21,0,.32,0h.17a2.45,2.45,0,0,0,.45.17h.13l.11,0,.07,0a.3.3,0,0,0,.11-.14.41.41,0,0,0,.05-.19.13.13,0,0,0,0-.06A.18.18,0,0,0,14,9.93l0-.06-.09-.08c-.06-.06-.13-.14-.17-.12s-.1-.26-.22-.36A.43.43,0,0,0,13.26,9a.23.23,0,0,0-.11,0s0,0-.06,0L13,9c-.11,0-.19,0-.22.17s-.19.19-.25.32l0,0c0,.1-.15.22-.1.27a1.29,1.29,0,0,0,0,.19.25.25,0,0,0,0,.15S12.36,10.16,12.38,10.19Z"/><path class="cls-10" d="M10.08,5.91a1,1,0,0,0,.33.12s.27.06.28,0h0A1,1,0,0,0,10.94,6h0a1.49,1.49,0,0,0,.31-.2.18.18,0,0,0,.1-.09h0l.06-.07c.05,0,.1-.08.11-.13h0a1,1,0,0,0,.08-.11h0a.75.75,0,0,0,.07-.12L11.83,5h0l0-.09L12,4.73a.1.1,0,0,0,0-.08l.06-.2h0a.89.89,0,0,0,0-.28c0-.31,0-.15-.09-.29l0,0c.05-.22-.07-.17-.16-.19l-.07-.05,0,0h0l0,0h0a.48.48,0,0,0-.27,0h0a.77.77,0,0,0-.25.14.21.21,0,0,0-.08.06c-.15,0-.17.19-.24.25h0a.56.56,0,0,1-.32.14,1,1,0,0,0-.38,0,.52.52,0,0,0-.36.12.28.28,0,0,0-.12.14.7.7,0,0,0-.14.36.32.32,0,0,0,0,.19l0,.16a.14.14,0,0,0,0,.11l.06.13c0,.06,0,.12.09.14a2.2,2.2,0,0,0,.2.23C9.85,5.89,10,5.84,10.08,5.91Z"/><path class="cls-10" d="M12.41,8.11a.47.47,0,0,0,.3-.1.86.86,0,0,0,.2-.26h0A.94.94,0,0,0,13,7.43a.2.2,0,0,0,0-.15.47.47,0,0,0,0-.17h0s0,0,0-.07a.62.62,0,0,0-.15-.21.79.79,0,0,0-.35-.19h0l-.39-.06h-.26l-.08,0a2.07,2.07,0,0,1-.32-.19.81.81,0,0,0-.29-.12h0a.84.84,0,0,0-.31,0c-.23-.11-.19.07-.36.18a1,1,0,0,0-.27.26s0,0,0,0l-.11.19h0c0,.1-.22.14-.08.22-.07.1,0,.13,0,.16a.7.7,0,0,0,0,.29h0c0,.15,0,.16.09.2a.41.41,0,0,0,.18.15.58.58,0,0,0,.17.06h.16l.1,0h.11l.26-.11,0,0a1.07,1.07,0,0,1,.38-.1h.08a.59.59,0,0,1,.19.11L12,8a.15.15,0,0,0,.14.07l0,0A.36.36,0,0,0,12.41,8.11Z"/><path class="cls-10" d="M16.25,3.35V2.19a.1.1,0,0,0,0,0h0l0,0h0l0,0h0l0,0h0l0,0h0a.05.05,0,0,1,0,0H15.8a.64.64,0,0,0-.28.07.3.3,0,0,0-.17.1.94.94,0,0,0-.1.1s0,0,0,0h0l-.12.09a.14.14,0,0,0-.09,0h0a1.06,1.06,0,0,1-.25.09,2.11,2.11,0,0,0-.36.09h0c-.11,0-.13,0-.18.07l-.15.1c-.06-.07-.22.19-.25.31h0c-.05.06-.2.37-.13.33h0c0,.08,0,.14,0,.35h0a.49.49,0,0,0,0,.24l0,.1h0a1.41,1.41,0,0,0,.17.32h0a1.07,1.07,0,0,0,.23.29h0a.57.57,0,0,0,.2.18l.09.06h0a.39.39,0,0,0,.33.18.45.45,0,0,0,.29.09h0a.82.82,0,0,0,.31,0h0a.55.55,0,0,0,.22-.06s0,0,.05,0h0c.15,0,.23-.16.22-.23a.19.19,0,0,0,0-.1.67.67,0,0,0-.07-.62l0,0-.05,0c.06-.21,0-.1-.15-.12l-.1,0-.26-.08a.28.28,0,0,0-.11,0h0a.3.3,0,0,1-.19-.22.2.2,0,0,1,0-.07.63.63,0,0,1,.25-.17h0a1.79,1.79,0,0,1,.35.09l.07,0c.06,0,.1.12.2.05.21.17.32,0,.28,0S16.2,3.43,16.25,3.35Z"/><path class="cls-10" d="M9.46,18.08h0s0,0,0,0,.07,0,0-.17c.08-.18-.07-.23-.15-.23h0c-.05-.19-.06-.08-.18-.14l0,0h0a.38.38,0,0,0-.25-.11h0c-.14-.07-.09-.21-.27,0H8.34c-.08,0-.14,0-.08,0h0l-.27,0a.92.92,0,0,0-.23.09h0l-.2.14h0a.55.55,0,0,0-.18.19h0c-.08,0-.19.18-.12.22h0a.73.73,0,0,0-.07.24h0a.76.76,0,0,0,0,.26.37.37,0,0,0,.07.26.62.62,0,0,0,.15.25.24.24,0,0,0,.2.13h0a.23.23,0,0,0,.11,0h0l0,0,0,0A1.12,1.12,0,0,0,8,18.79c.06-.07.14-.1.18-.24a1.38,1.38,0,0,1,.17-.15l.1-.06c.09,0,.23,0,.17-.08H9a1.09,1.09,0,0,0,.31,0C9.38,18.24,9.39,18.19,9.46,18.08Z"/><path class="cls-10" d="M11.45,18.83a.21.21,0,0,0,0-.22.83.83,0,0,0-.16-.17h0a1.28,1.28,0,0,0-.28-.29h0a.49.49,0,0,0-.3-.18l0,0a.22.22,0,0,0-.38-.07.64.64,0,0,0-.36.17c-.25.2-.09.17-.08.25h0a.45.45,0,0,0,.12.24.81.81,0,0,0,.16.16h0l.17.14c.06.16.16.22.18.33v.06a.55.55,0,0,1-.22.34,2.64,2.64,0,0,1-.35.21,1.33,1.33,0,0,0-.24.1c-.14,0-.22.16-.29.3a.32.32,0,0,0,0,.34,1,1,0,0,0,1.09.28,1.47,1.47,0,0,0,.4-.19.18.18,0,0,1,.07-.05v0a.52.52,0,0,0,.11-.1h0a1.19,1.19,0,0,0,.15-.18h0l.1-.18v0a.36.36,0,0,0,0-.11.4.4,0,0,0,0-.12h0a1.16,1.16,0,0,0,0-.18.11.11,0,0,0,0-.06s0,0,0,0a1.79,1.79,0,0,0,0-.23,1,1,0,0,0,0-.24h0C11.54,19,11.53,18.87,11.45,18.83Z"/><path class="cls-10" d="M7.6,20.5h0Z"/><path class="cls-10" d="M6.2,21.6c.12,0,.15,0,.19,0a.79.79,0,0,0,.22-.05c.15,0,.33,0,.34-.19s.18-.21.22-.35a1.13,1.13,0,0,0,0-.38h0a.28.28,0,0,1,0-.09c-.06-.44-.16-.92-.64-1.05a1.5,1.5,0,0,0-.42-.06l-.13,0c-.06-.05-.09-.12-.17-.09,0-.12,0-.07-.1-.08a1.11,1.11,0,0,0-.39-.2.41.41,0,0,0-.2,0c-.06,0-.1,0-.07.05a.16.16,0,0,0-.06.08.27.27,0,0,0-.08.19,1.06,1.06,0,0,0,0,.33h0c0,.1,0,.2,0,.27s0,.11,0,.17a.9.9,0,0,0,0,.15,2.5,2.5,0,0,0,.07.26.31.31,0,0,0,0,.08h0a1.77,1.77,0,0,0,.15.31c0,.22.21.32.19.27,0,.31.2.22.37.28h0a.22.22,0,0,0,.12.05,1.08,1.08,0,0,0,.31.07Zm-.88-1.18Z"/><path class="cls-10" d="M9.12,4.26h0a1,1,0,0,0,0-.24.32.32,0,0,0,0-.21A1.72,1.72,0,0,0,9,3.6H9a.21.21,0,0,0-.11-.21,1.71,1.71,0,0,0-.11-.14A1.08,1.08,0,0,0,8.52,3h0a.59.59,0,0,0-.35-.14.57.57,0,0,0-.29,0,.31.31,0,0,0-.1,0c-.15,0-.15.1-.12.23s0,.07,0,.13a.69.69,0,0,0,0,.13.75.75,0,0,0,.07.12.17.17,0,0,0,.06.07A1.34,1.34,0,0,1,8,3.76l0,0c0,.13.11.21.1.41,0,0,0,0,0,.06s-.14.1-.26.24a1.12,1.12,0,0,1-.39.13l-.09,0-.16,0-.11,0a.41.41,0,0,0-.23.2.3.3,0,0,0,0,.34c0,.1,0,.11.1.15a.85.85,0,0,0,.28.22l.05,0h0a.78.78,0,0,0,.25.07.22.22,0,0,0,.3,0h0l.17,0H8a1,1,0,0,0,.21-.08c.08,0,.09,0,.1,0l.11-.07h0l.08-.06s.1,0,.1-.1h0l.09-.1s.09,0,.07-.08a.26.26,0,0,0,.07-.12l0-.09h0A.18.18,0,0,0,9,4.74H9l0,0s.12-.1.05-.2a.5.5,0,0,0,0-.12S9.15,4.29,9.12,4.26Z"/><path class="cls-10" d="M.65-.2.58-.27C.46-.41.39-.46.26-.44a.19.19,0,0,0-.13,0,.31.31,0,0,0-.2.11c-.12.08-.07.18-.07.26A.69.69,0,0,1-.24.3s0,0,0,0h0A.47.47,0,0,0-.39.48h0A.75.75,0,0,0-.56.58l0,.06h0l0,0v0h0a.29.29,0,0,0,0,.16A.37.37,0,0,0-.61,1l.06.1a1.12,1.12,0,0,0,.42.32l.07,0a.76.76,0,0,0,.18.06h0l.14,0,.15,0h0a1.41,1.41,0,0,0,.29,0H.78A.79.79,0,0,0,1,1.49H1a.38.38,0,0,0,.21-.1l0,0h0a.26.26,0,0,0,.09-.09l0,0h0l0,0v0l0,0a.4.4,0,0,0,0-.3c0-.06-.06-.12-.14-.17l-.08,0L1,.55S1,.5.91.47A.7.7,0,0,1,.85.38C.82.3.8.21.77.12S.73-.12.65-.2Z"/><path class="cls-10" d="M.75-1.46v0a.54.54,0,0,0-.1.16h0A.41.41,0,0,0,.6-1l0,.09c0,.09.09.19.15.11h0c.07.07.12.07.28,0a1.55,1.55,0,0,0,.31-.07.49.49,0,0,0,.24,0h0c.06,0,.16,0,.24,0h0l.1,0a.6.6,0,0,0,.14,0,.48.48,0,0,1,.2.14,1.11,1.11,0,0,1,.1.27h0a.38.38,0,0,1,0,.1.68.68,0,0,0,0,.19h0a.59.59,0,0,0,.1.56l0,0a.43.43,0,0,0,.26.11h0c.07,0,.18.09.27,0a.69.69,0,0,0,.3-.15l0,0A.85.85,0,0,0,3.59.2.38.38,0,0,0,3.76,0h0c.12-.08.07-.17.09-.27v0h0a.18.18,0,0,0,0-.31.43.43,0,0,0-.1-.28h0s.06-.1-.13-.19c0-.07-.06-.08-.1-.1l-.06-.06h0a.2.2,0,0,0-.07-.06l-.12-.08h0a.36.36,0,0,0-.2-.12h0l-.22-.1h0l-.22-.08a.68.68,0,0,0-.2-.06h0l-.22-.05h0a.41.41,0,0,0-.15,0l-.26,0h0a.3.3,0,0,0-.16,0l-.15,0a.21.21,0,0,0-.13,0,1.49,1.49,0,0,0-.45.26A.53.53,0,0,0,.75-1.46Z"/><path class="cls-10" d="M1.64,2.18c-.06,0,0,.17,0,.24v0h0a.76.76,0,0,0,.08.2.7.7,0,0,0,.15.19A.1.1,0,0,0,2,2.91l.1.06s.06,0,.11,0l.11,0h0s.18,0,.23,0a1.14,1.14,0,0,0,.26-.09c.09,0,.09,0,.1-.06l.12-.09c.14-.06.26-.13.2-.2h0l.11-.13s0,0,.06-.08l0,0s.13-.08.11-.18h0c.08-.09.05-.07.12-.24s.13-.21.08-.25a.82.82,0,0,0,0-.22s0,0,0,0a.08.08,0,0,0,0-.07l0-.15h0A.29.29,0,0,0,3.68,1,.59.59,0,0,0,3.55.78l0,0A.36.36,0,0,0,3.35.69a.2.2,0,0,0-.19.08h0a.13.13,0,0,0,0,.06A.88.88,0,0,0,3.07,1c0,.16,0,.25,0,.25a1.12,1.12,0,0,1,0,.24.38.38,0,0,0,0,.14H3c-.08.17-.16.07-.26.28a.37.37,0,0,1-.31,0,.15.15,0,0,0-.12-.06h0a.44.44,0,0,0-.44-.05c-.11,0-.16.09-.16.17h0a.69.69,0,0,0,0,.25Z"/><path class="cls-9" d="M5.94,30.59c-.05.14-.12.11-.15.25s0,.14-.17.24-.13.08-.2.22-.24.13-.21.19-.11.15-.24.15-.17,0-.26.08-.25-.06-.27,0c-.13-.14-.28-.05-.29-.09-.21,0-.16-.05-.28-.17s-.14-.1-.16-.2a.44.44,0,0,1-.07-.22,1.07,1.07,0,0,0,0-.25c0-.06-.07-.2,0-.27s0-.23-.05-.29,0-.23-.09-.33a.6.6,0,0,1-.06-.31.81.81,0,0,1,0-.31,2,2,0,0,0,.1-.33,1.79,1.79,0,0,1,.12-.21s.07-.2.15-.19.07,0,.17-.18.08-.12.19-.16.21-.09.18-.15.11-.22.19-.15c0-.09.06-.06.2-.15s.18-.08.2-.11.3-.17.42-.1c.16-.15.13,0,.22,0s.32.05.24.1c.09.21.08.1.23.14s.19,0,.2.19.12.26.15.24c0,.15.09.08.05.26s0,.17,0,.29c.12.08,0,0-.07.27a.38.38,0,0,1,0,.28c-.14.17-.09.26,0,.29s0,.23,0,.25c0,.29,0,.15-.06.23s0,.12-.09.22C5.94,30.27,6,30.51,5.94,30.59Z"/><path class="cls-9" d="M8.93,25.49c0-.12.16-.25.16-.34a2.25,2.25,0,0,0,.18-.29c0-.07.23-.1.2-.25s.16-.1.24-.24a.8.8,0,0,1,.25-.23,1.6,1.6,0,0,1,.28-.22c.19,0,.15-.11.24-.15s.18,0,.27-.08.21,0,.28,0,.19,0,.29,0,.15.07.29,0,.16,0,.27,0,.24,0,.36.05a3,3,0,0,0,.36.08c.17.08.34.1.34.13s.19.05.31.18.18.13.25.26.15.21.17.33,0,.21.06.29-.07.1,0,.24-.1.18-.05.24,0,.19-.09.23-.15.15-.11.23-.09.35-.12.22c0,.15-.07.08-.12.21s-.09.18-.16.24a.38.38,0,0,1-.17.12,1.32,1.32,0,0,1-.49,0,1.08,1.08,0,0,0-.61.12c-.13.06-.23.21-.39.24-.32.06-.59-.3-.9-.1-.14.09-.18.28-.34.35a.79.79,0,0,1-.74-.11,1.37,1.37,0,0,1-.3-.22,2.69,2.69,0,0,1-.2-.27c-.05-.06-.16-.18-.1-.3a1.66,1.66,0,0,1,0-.33c0-.16-.06-.17.05-.34S8.81,25.57,8.93,25.49Z"/><path class="cls-9" d="M8.5,30.34c.21.07.12-.14.11-.23s.11-.07.15-.18.21-.09.19-.15.14-.14.23-.09a.41.41,0,0,1,.25,0,.31.31,0,0,1,.26,0,.36.36,0,0,0,.23,0,.4.4,0,0,1,.25.06l.27.07a.41.41,0,0,0,.26.09.69.69,0,0,1,.23.1.46.46,0,0,1,.17.12,1,1,0,0,1,.2.25,1.49,1.49,0,0,0,.14.29c0,.07,0,.19.06.32a.37.37,0,0,0,0,.3c-.07.13-.24.22-.08.31s-.22.13-.06.33a1.25,1.25,0,0,0-.08.32c.06,0-.14.14-.1.29a.28.28,0,0,1-.16.25.31.31,0,0,1-.22.17s-.13.05-.25.12-.2.07-.29.07a.4.4,0,0,0-.29,0c-.18.08-.16.06-.3,0a.49.49,0,0,0-.35.07c-.06,0-.13.06-.28.11s-.19.12-.25.14-.23.09-.3.16-.28.13-.36.08a1.15,1.15,0,0,0-.26-.1c-.13-.11-.14-.06-.18-.24a1.23,1.23,0,0,1-.11-.33c0-.11-.12-.12-.07-.38a3.26,3.26,0,0,0,0-.38,1.12,1.12,0,0,1,0-.35c.12-.21-.09-.2,0-.25,0-.21,0-.3,0-.43s0-.16.13-.14a.84.84,0,0,0,.24-.14c.09,0,.12,0,.26-.14s0,0,.19-.14a1.78,1.78,0,0,0,.12-.18C8.24,30.49,8.44,30.49,8.5,30.34Z"/><path class="cls-9" d="M6.41,23.07c-.1-.14-.17-.28,0-.35s0-.28.13-.25.26-.07.26-.16.26-.1.34-.07.18.09.37,0c.19.21.2.1.35.12s.25.26.29.21c.22.19.08.1.19.31,0,0,.13.18.1.26s.19.24.11.3,0,.19,0,.28c0,.25,0,.1-.16.22s-.14.16-.21.05c0,.06-.26,0-.23,0-.13,0-.16,0-.23,0s-.12.05-.22,0a.44.44,0,0,1-.23.1c-.11.09-.21.14-.23,0-.22-.13-.12-.14-.23-.3s-.25-.42-.15-.36.13-.13-.13-.21C6.51,23.23,6.37,23.24,6.41,23.07Z"/><path class="cls-9" d="M16.25,27.63a.43.43,0,0,0,0-.05c0-.08-.11-.06-.27-.11a.42.42,0,0,1-.29,0,.41.41,0,0,0-.29,0c-.16-.1-.21,0-.29.07s-.1,0-.27.11-.16.2-.23.13-.12.19-.25.11-.12.15-.24.13-.12.17-.23.13-.18.21-.25.23,0,.15,0,.16.13,0,.22.15a.85.85,0,0,1,.29.17c.13.18.17.05.26.18s.33.27.32.2c.14.22.13.34.34.21s.2.09.35.17a.89.89,0,0,0,.35.13c.12,0,.23,0,.34.05h.11Z"/><path class="cls-9" d="M-1,30.49c.08-.16.15-.17.19-.31s.11-.24.16-.31,0-.23.06-.26c-.15-.06.07-.31.1-.24.1-.12.09-.08.24-.1s.16.17.29.08c-.1.08.23.13.3.15s.07.08.24.13.24.21.29.11.17,0,.31.11A2.45,2.45,0,0,0,1.5,30c0-.09.17.16.25.19.15.23.12.36.11.37a.57.57,0,0,1-.19.39s.07.15-.09.24,0,.17-.05.35,0,.18,0,.37-.11.27-.17.37c-.21,0-.09.07-.37.18-.09.09-.22.2-.25.15-.13.2-.3,0-.24.13s-.27.13-.27,0c-.19,0-.23-.08-.21-.21s-.25-.26-.17-.27-.07-.09-.11-.25-.08-.19-.12-.25-.07-.26-.11-.2,0-.09-.15-.16c.09-.08-.19-.07-.22-.15s-.26-.22-.23-.31S-1.08,30.66-1,30.49Z"/><path class="cls-9" d="M2.93,23.64c-.17,0-.18-.23-.25-.28s.07-.25-.09-.33,0-.19.09-.29c-.09-.14-.1-.11.07-.31s0-.26,0-.31a.38.38,0,0,1,.13-.24.32.32,0,0,1,.21-.12.61.61,0,0,1,.32,0A1.4,1.4,0,0,1,3.8,22c.13.09.16.31.27.33s0,.11.08.27-.05.19.09.27.21.15.15.17a.31.31,0,0,1,.21.13.73.73,0,0,1,.25.08c.09-.1.11,0,.26.06,0,.05.21.24.26,0a1.12,1.12,0,0,0,.22,0c.18-.12.21,0,.35.06s.26,0,.26.11c0-.07.09,0,.18.16s.12,0,.14.21c.06,0,.08.28.09.28.13.2,0,.18.07.33,0,0,0,.16,0,.25s0,.1,0,.23-.14.21-.07.2c-.1.09-.18.14-.18.17-.07.24-.12.08-.21.1s-.14.13-.23.08-.14.07-.25.06c0,.17-.1.06-.25.06.09-.08,0,0-.26,0,0,0-.28.07-.22.05-.17.1-.23,0-.3,0s-.21,0-.28,0a.27.27,0,0,1-.25-.09A.48.48,0,0,1,4,25.56c-.18-.09-.14-.08-.2-.2s-.06-.21-.19-.25,0-.19-.13-.23-.19-.21-.1-.26c-.09.08-.05-.09-.1-.26s-.09-.27-.09-.26c.07-.15,0-.18-.12-.24A1.7,1.7,0,0,0,2.93,23.64Z"/><path class="cls-9" d="M.76,27.5c0-.19-.14-.23-.11-.24s-.1-.12,0-.25.12-.09.17-.23.11,0,.23-.16c.28-.09.31-.05.29-.09.13-.12.25,0,.3,0s.21.1.26.13c.28.12.18.07.21.29,0-.14.18,0,.09.21.18.27.09.22.11.29s.11.21.06.28-.09.1,0,.22c-.12.16-.09.19-.38.08a.64.64,0,0,1-.35-.24c0,.05-.13,0-.17-.21s-.28-.19-.18-.19c-.1,0-.25-.12-.27,0S.91,27.56.76,27.5Z"/><path class="cls-10" d="M16.25,28.84c0,.1,0,.19-.06.29h0l0,.14a.28.28,0,0,0,0,.16s0,.06,0,.1a.29.29,0,0,0,.08.19Z"/><path class="cls-10" d="M16.25,27a1.32,1.32,0,0,0-.93.09.39.39,0,0,0-.19.42.74.74,0,0,0,.48.43l.05,0c.26.14.53.32.59.58Z"/><path class="cls-10" d="M12.08,23.21s0,0,0,.05a1.2,1.2,0,0,1,.13.21s0,.08,0,.13a.65.65,0,0,1-.06.43l0,0a.75.75,0,0,1-.28.25h0a.89.89,0,0,1-.35.11.22.22,0,0,1-.14,0,.93.93,0,0,1-.2-.07c-.05,0-.22-.05-.22-.13a.85.85,0,0,0-.24-.09.47.47,0,0,1-.12,0l-.15,0h0c-.25.09-.08.09-.25.1l0,0c-.07.07-.2.3-.25.21-.12.11-.14.22-.3.2h0a.32.32,0,0,1-.27,0s-.22-.18-.18-.2a.58.58,0,0,1,0-.43.18.18,0,0,1,.06-.14,0,0,0,0,1,0,0,.66.66,0,0,1,.24-.2h0c0-.08.21-.18.31-.14s.11,0,.22-.06l.06,0c.08,0,.11-.11.15-.09a.19.19,0,0,1,.16-.17l0,0,.12-.13L10.6,23a.31.31,0,0,1,.14-.09s0,0,.09,0l.12,0h0l.15,0h.08a.91.91,0,0,1,.23,0h0l.22.08h0l.07,0,.14.08A1.21,1.21,0,0,1,12.08,23.21Z"/><path class="cls-10" d="M14.42,24.57a.27.27,0,0,1,.1.17,1.28,1.28,0,0,1,.13.5v.08a1.31,1.31,0,0,1-.08.43v0a2.22,2.22,0,0,1-.11.25c0,.14-.1.14-.17.2a.35.35,0,0,1-.27.18.12.12,0,0,1-.1,0,.8.8,0,0,1-.53,0h0l-.11-.07c-.07,0-.15-.05-.13-.14-.18,0-.15-.06-.06-.29h0a.94.94,0,0,1,.06-.29,1,1,0,0,1,0-.12.51.51,0,0,0,0-.3c-.11-.11-.09-.16-.24-.34s-.23-.2-.27-.24h0a.53.53,0,0,1-.17-.31.26.26,0,0,1,.05-.26.21.21,0,0,0,0-.06c.06-.07.09-.13.16-.13a.13.13,0,0,1,.16-.07l.06,0h0c.06,0,.14-.07.2,0s.16,0,.24,0h0s.19,0,.23.1a.76.76,0,0,1,.18.09L14,24c.09,0,.22.2.22.21s.23,0,.19.24h0A.41.41,0,0,1,14.42,24.57Z"/><path class="cls-10" d="M5.52,22.6h0v0h0l0,.1h0l0,0h0l-.06.09h0l0,0h0l0,0h0l0,0h0l0,0h0l-.09.06h0a1.27,1.27,0,0,1-.4.18H4.43a.54.54,0,0,1-.2-.1s0,0-.05,0a.45.45,0,0,1-.1-.13.21.21,0,0,1,0-.11H4a2.66,2.66,0,0,1,0-.28,2.33,2.33,0,0,0,0-.36H4l0,0a.46.46,0,0,0-.22-.13H3.67c-.1.05-.07.24-.16.27h0a.64.64,0,0,1,0,.2c0,.07,0,.14,0,.19a.33.33,0,0,1,0,.14.55.55,0,0,1-.1.26c0,.08,0,.14-.1.12h0c0,.09-.11.1-.18.11l-.07,0a.37.37,0,0,1-.29,0,.27.27,0,0,1-.16,0,.66.66,0,0,1-.34-.34.32.32,0,0,1-.08-.25h0a.22.22,0,0,1,0-.17v-.14a.27.27,0,0,1,0-.37s0-.37.12-.36,0-.06.07-.14a1.76,1.76,0,0,1,.33-.43l0,0h0c0-.1.13-.18.28-.2a1.16,1.16,0,0,1,.33-.11,1,1,0,0,1,.35,0h0A.5.5,0,0,1,4.1,21a1.3,1.3,0,0,1,.5.54.27.27,0,0,0,.07.08c.06.06.14.07.11.12h0a1.1,1.1,0,0,0,.21.14l0,0c.12,0,.25,0,.28.17l.07.07a.56.56,0,0,1,.11.2.14.14,0,0,1,0,.06h0a.06.06,0,0,1,0,0h0a.33.33,0,0,1,0,.1Z"/><path class="cls-10" d="M7.31,23.25h0a.38.38,0,0,1,.09.13.36.36,0,0,1,.08.13s0,0,0,.07a1.72,1.72,0,0,1,.07.21h0a.44.44,0,0,1,.06.29h0a1.21,1.21,0,0,1,0,.19.17.17,0,0,1,0,.1.87.87,0,0,1-.09.31.56.56,0,0,1-.2.25h0c0,.05-.07.07-.13.1l-.14.05a.27.27,0,0,1-.31,0,.28.28,0,0,1-.26-.19h0a.84.84,0,0,1-.13-.29,2.91,2.91,0,0,0-.1-.4,1,1,0,0,0-.12-.15A.47.47,0,0,0,6,24l-.33-.08c-.16,0-.16-.05-.2-.1a.35.35,0,0,1-.12-.19.18.18,0,0,1,0-.1c0-.06,0-.1.07-.26h0a.31.31,0,0,1,.09-.11s0-.07.09-.08.06-.11.19-.13,0-.19.27-.13H6c0-.08.12-.06.2,0l.09,0h0a.33.33,0,0,1,.17,0l.12,0h0a.48.48,0,0,1,.28.1c.06,0,.16,0,.24.17h0a2.09,2.09,0,0,1,.2.22Z"/><path class="cls-10" d="M8,29.84s0,0,0,0H8a.8.8,0,0,1,.2-.21h0a1,1,0,0,1,.24-.16.22.22,0,0,1,.27-.11,1,1,0,0,1,.5,0h0l.14.05a.26.26,0,0,1,.1,0,.18.18,0,0,1,.2.14l.1.12c.08.07.15.14.1.21a.31.31,0,0,1-.16.33.37.37,0,0,1-.17.08.84.84,0,0,0-.39.22c-.07.12,0,.2-.16.29L8.9,31a.24.24,0,0,1-.09.08s-.18.17-.3.12h0a.61.61,0,0,1-.33,0c-.17,0-.22-.11-.29-.19s0,0,0,0a.59.59,0,0,1-.1-.41h0c0-.22,0-.24,0-.24v0c0-.13,0-.11.07-.18v0C7.84,30,8,29.9,8,29.84Z"/><path class="cls-10" d="M10.85,29.39a.77.77,0,0,1,.37.07.31.31,0,0,1,.24.16h0l.08.07c.05,0,.1,0,.1.12h0a.12.12,0,0,1,.09.11.83.83,0,0,0,.08.12c.08,0,.09.11.14.18l0,0a1.68,1.68,0,0,0,.21.18c.06,0,.12.05.13.09a.46.46,0,0,1,.17.38.8.8,0,0,1-.49.67.67.67,0,0,1-.76-.11.1.1,0,0,1,0-.05.82.82,0,0,1-.11-.31h0a.69.69,0,0,1,0-.22.56.56,0,0,0-.09-.17.5.5,0,0,0-.17-.15,1.51,1.51,0,0,1-.17-.1h0a.33.33,0,0,1-.18-.1.49.49,0,0,1-.16-.16c-.3-.24-.18-.25-.06-.39a.59.59,0,0,1,.1-.17c0-.08.08-.15.16-.14a.53.53,0,0,1,.36-.11Z"/><path class="cls-10" d="M2.65,29.67a1.68,1.68,0,0,1,.07-.24l0,0h0a2.72,2.72,0,0,1,.11-.25,1.85,1.85,0,0,1,.21-.33s0-.07.07-.1a3.07,3.07,0,0,1,.25-.26.67.67,0,0,1,.15-.13l.12-.08.26-.14h0l.07,0h.13a.44.44,0,0,1,.3.13.45.45,0,0,1,.06.15s0,0,0,.05a.36.36,0,0,1-.09.35c0,.14-.11.27-.16.4a1.14,1.14,0,0,0-.06.25h0c0,.05,0,.09,0,.13a.15.15,0,0,1,0,.13s0,.12,0,.19v.08h0l0,.23v0a.09.09,0,0,1,0,.05,1.5,1.5,0,0,1-.11.34c0,.12,0,.28-.21.34a.55.55,0,0,1-.18.16h0a.52.52,0,0,1-.2.09h0a.56.56,0,0,1-.34,0,.06.06,0,0,1-.06,0H3A.71.71,0,0,1,2.83,31h0c-.09.07-.22-.14-.14-.21a.58.58,0,0,1,0-.14.46.46,0,0,1,0-.09s0,0,0-.06a.07.07,0,0,1,0-.05,1.49,1.49,0,0,1,0-.21h0a2.44,2.44,0,0,1,0-.27v0c-.07-.2,0-.15.05-.29Z"/><path class="cls-10" d="M7.05,27.23l.1.06c.08,0,.16.07.19.15a.45.45,0,0,1,.2.27h0v0a.78.78,0,0,1,.06.31s0,.22,0,.22h0s0,0,0,0a1.4,1.4,0,0,1-.09.17h0l-.12.19h0l-.06.12,0,.08a1.1,1.1,0,0,0-.06.26h0c0,.24,0,.2,0,.2s0,0,0,.05c0,.25-.06.29-.18.28,0,.18-.15.2-.34.2a.69.69,0,0,1-.32,0h0c-.21-.05-.21-.06-.27-.14l0,0-.09-.12a.05.05,0,0,0,0,0,.53.53,0,0,1,0-.39,1.13,1.13,0,0,0,0-.26c0-.08,0-.14-.08-.23a.18.18,0,0,1-.06-.08.56.56,0,0,0-.2-.12h0a.74.74,0,0,0-.32-.07H5.11a.43.43,0,0,1-.26-.07c-.22-.12-.27-.14-.23-.24a.62.62,0,0,1,0-.38c0-.14.1-.21.24-.34a.93.93,0,0,1,.36-.23A1.26,1.26,0,0,1,5.57,27h0a1.37,1.37,0,0,1,.36,0,2.56,2.56,0,0,1,.77.11A1.51,1.51,0,0,1,7.05,27.23Z"/><path class="cls-10" d="M15.23,29.2h0a.43.43,0,0,1,.22.14.25.25,0,0,1,.14.23.49.49,0,0,1,0,.12.17.17,0,0,1,0,.14s0,.05-.05.09a.69.69,0,0,1-.11.13h0a.52.52,0,0,1-.17.13.09.09,0,0,1-.06,0c0,.09-.2.08-.35,0h-.08a.72.72,0,0,1-.26-.08L14.26,30a.45.45,0,0,1-.12-.06,1,1,0,0,0-.32-.1h0a1.61,1.61,0,0,1-.37,0c-.14.09-.15.09-.3-.07l-.08,0c-.06,0-.12,0-.15-.13h0c-.12-.13-.14-.16-.14-.26a.47.47,0,0,1,0-.31v0a1.34,1.34,0,0,1,.09-.26c-.07-.12.09-.18.15-.23l0,0a.81.81,0,0,1,.19-.18h0a.91.91,0,0,1,.23-.15c.08-.1.1-.07.25-.08a.57.57,0,0,1,.26,0H14a.55.55,0,0,1,.15.08l0,0,0,0a.85.85,0,0,1,.14.19,1.08,1.08,0,0,1,.14.24h0a1.48,1.48,0,0,0,.13.21s0,0,.05.05l.14.08a.26.26,0,0,1,.2.07l.13,0A.13.13,0,0,1,15.23,29.2Z"/><path class="cls-10" d="M9.23,23.48a.2.2,0,0,1-.15.14.73.73,0,0,1-.25,0,.17.17,0,0,1-.22,0h0l-.18-.05c-.1,0-.17-.1-.2-.14S8,23.29,8,23.26H8a.18.18,0,0,1-.16-.21h0c-.16.05-.17-.1-.16-.19s-.11-.09-.21-.2a.88.88,0,0,1-.18-.25c-.07-.1-.08-.1,0-.23s0-.07,0-.11a.4.4,0,0,1,.14-.15c0-.05.26-.14.3-.09s.31-.12.29,0c.13-.05.19,0,.3.1h0l.27.14c.1,0,.18.11.23.17l0,0h0c.1,0,.11.09.15.14l.06.08h0s0,0,0,.06a1.74,1.74,0,0,1,.11.18c.08,0,.07.07.07.13a1.17,1.17,0,0,1,.07.25c0,.05.05.1,0,.15S9.25,23.47,9.23,23.48Z"/><path class="cls-10" d="M9.38,27.05h.16A.41.41,0,0,1,9.86,27c.17-.12.14-.1.27-.07a1.09,1.09,0,0,1,.3.07.09.09,0,0,1,.11.07.28.28,0,0,1,.1.12h0c.09.06.06.19,0,.28s0,.05,0,.08,0,.18-.08.2a1.06,1.06,0,0,1-.17.23l0,0h0l0,0h0l0,0h0l-.06,0h0l-.18.08-.07,0a.25.25,0,0,1-.22,0H9.64c-.1,0-.07,0-.29,0h0a1.4,1.4,0,0,1-.28-.06h0a1.84,1.84,0,0,1-.25-.09l-.2-.1,0,0h0l-.08,0c-.13-.07-.19,0-.14-.1h0l-.13-.11c-.07,0-.07,0-.07-.06h0c-.12,0-.09-.07-.11-.12L8,27.44H8a.27.27,0,0,1-.07-.08l-.08-.14h0A.26.26,0,0,1,7.71,27a.89.89,0,0,1-.08-.29h0a1.55,1.55,0,0,1,0-.31h0a.43.43,0,0,1,0-.33.39.39,0,0,1,.09-.32h0a1.69,1.69,0,0,1,.13-.31A.47.47,0,0,1,8,25.16.89.89,0,0,1,8.24,25c.07-.11.1-.09.26-.14a.37.37,0,0,1,.3,0c.1-.06.21,0,.28.05l.05,0c.09-.07.12,0,.2.11h0a1.06,1.06,0,0,1,.15.15h0l.07.11s.06.06,0,.09.15.16.06.21,0,.16,0,.22,0,.15-.06.22l0,.06c-.05.11,0,.18-.2.26h0a2.42,2.42,0,0,0-.25.31c-.07.12,0,.22,0,.25s0,.09.18.18C9.25,27,9.31,27,9.38,27.05Z"/><path class="cls-10" d="M13.29,27.78l-.08.06c0,.05-.2.11-.26.07l-.13,0a.22.22,0,0,1-.13,0h0a.53.53,0,0,1-.21-.06h-.05a.78.78,0,0,1-.27,0,1.76,1.76,0,0,1-.39.12c-.15,0-.26,0-.31-.07s-.24-.18-.22-.24-.06-.12-.06-.21,0-.05,0-.07v0h0c0-.08,0-.29.13-.29L11.4,27a.33.33,0,0,1,.15-.11.31.31,0,0,1,.26-.15,1.47,1.47,0,0,0,.1-.13.08.08,0,0,1,0-.06h0a2.15,2.15,0,0,1,.19-.37l0,0a.34.34,0,0,1,.2-.09h.05c.07,0,.2,0,.24.08l.06,0a1.6,1.6,0,0,1,.27.25l.07.09c.08.09.16.17.15.27a1.6,1.6,0,0,1,.1.23c0,.05,0,.1,0,.15s.06.06,0,.1a.36.36,0,0,1,0,.11s.07.09,0,.12,0,.08,0,.14l0,.1S13.37,27.72,13.29,27.78Z"/><path class="cls-9" d="M-1,24.12c-.07-.13-.1-.1-.27-.14s-.12.09-.3-.07c0,.12-.1-.08-.28,0,0,0-.2-.16-.25-.11.2-.12-.14-.26-.09-.28s.07-.11-.11-.29c-.18,0-.12-.18-.27-.26s-.21-.12-.19-.26-.09-.32-.07-.3.14-.16.12-.35.35-.37.16-.21c-.08-.17.11-.14.17-.2.15-.27.28,0,.22-.17s.12-.09.21-.13,0-.13.24-.11.28-.1.24-.11c.25.08,0-.07.28-.06-.05-.08.19-.21.25,0,.13,0,0,0,.26,0a1.2,1.2,0,0,1,.25.13.57.57,0,0,1,.2.23c0,.08,0,.21.18.25s0,.05.26.16.25.14.28.12c.29.13.34.17.42.21s.21.17.29.35.08.16,0,.47a1.08,1.08,0,0,0-.1.47c-.16.1-.14.25-.15.38-.09-.17-.21.51-.26.33-.12.23-.27,0-.4,0s-.31,0-.37.19c-.21.16-.14.19-.34.13s-.23-.08-.3-.16S-1,24.21-1,24.12Z"/><path class="cls-10" d="M-2.71,23.83c-.07-.11-.13-.21,0-.22l.06-.11s0,0,0,0a.43.43,0,0,1,.09-.1l0,0a1.22,1.22,0,0,1,.73-.15c.06-.12.19,0,.31,0h.09c.07,0,.17-.06.23,0h0l.23,0,.08,0h0a.6.6,0,0,1,.26.14.22.22,0,0,1,.07.06l.14.15h0c.17,0,.12.17.16.24a1.82,1.82,0,0,1,.19.57c0,.15.1.25,0,.39a.17.17,0,0,1,0,.12.38.38,0,0,1-.16.22h0a.28.28,0,0,1-.4,0A1.18,1.18,0,0,1-.77,25s0,0,0,0S-1,24.84-1,24.8l-.17-.19h0a.87.87,0,0,1-.16-.14l-.05,0,0,0c-.18-.08-.38,0-.42-.11h0c-.1.07-.39,0-.47-.09A.67.67,0,0,1-2.71,23.83Z"/><path class="cls-10" d="M1.6,23.53h0c0,.18,0,.16-.1.37.06.18-.06.2-.11.29v0a.68.68,0,0,1-.32.37.4.4,0,0,1-.46,0l-.07,0c-.07,0-.15-.06-.16-.15a.35.35,0,0,1-.06-.14s0-.09,0-.11a.61.61,0,0,1,0-.26.65.65,0,0,1,0-.13.1.1,0,0,1,0-.15,3,3,0,0,1,0-.32,2.4,2.4,0,0,0-.14-.4c-.09-.19-.15-.38-.1-.34h0a.6.6,0,0,1,0-.37A.53.53,0,0,1,.48,22l.11-.05a.58.58,0,0,1,.5,0c.19.05.33.13.35.33a.74.74,0,0,1,.1.22l0,0c.11,0,.05,0,.05.27a1.5,1.5,0,0,1,0,.37h0a2.11,2.11,0,0,1,0,.26C1.65,23.47,1.68,23.5,1.6,23.53Z"/><path class="cls-10" d="M-2.83,22.12h0a.18.18,0,0,1,0-.06,1.16,1.16,0,0,1,.13-.37s0-.08.06-.1a1.34,1.34,0,0,1,.11-.14.89.89,0,0,1,.24-.2c.08-.15.18-.14.28-.17l.11,0h0l.4-.18A1.47,1.47,0,0,1-1,20.71a.58.58,0,0,1,.34,0l.13,0a1.84,1.84,0,0,1,.43.3h0a.91.91,0,0,1,.19.26c.05.06.11.11.06.18a.58.58,0,0,1,0,.23s0,.08,0,.06h0a.15.15,0,0,1,0,.07,1,1,0,0,1-.21.48c0,.07-.13.13-.21.17h0l0,0a.63.63,0,0,1-.27,0c-.24.05-.16,0-.25-.07l-.05,0a.88.88,0,0,1-.24-.1h0a.53.53,0,0,1-.32,0c-.28.05-.61.43-.9.45h0a.35.35,0,0,1-.28-.17.24.24,0,0,1-.09-.16l0-.1S-2.95,22.17-2.83,22.12Z"/><path class="cls-9" d="M-1.32,18.67c-.06-.12-.09-.09-.24-.12s-.1.07-.26-.07c0,.11-.08-.06-.24,0,0,0-.17-.14-.21-.1.18-.1-.12-.22-.08-.24s.06-.09-.1-.25c-.14,0-.1-.15-.22-.23s-.19-.09-.17-.22-.07-.27-.06-.26.12-.13.11-.3.29-.32.13-.18c-.07-.15.1-.12.15-.17.13-.24.24,0,.18-.15s.11-.07.19-.11,0-.11.2-.09.25-.09.22-.1c.21.06,0-.06.23-.06,0-.07.17-.18.22,0,.11,0,0,0,.22,0a.65.65,0,0,1,.22.11c.09.05.11.1.17.2s0,.18.16.22,0,0,.22.13.22.12.24.1c.26.12.3.16.37.18s.18.15.25.31.07.13,0,.41a.8.8,0,0,0-.09.4c-.14.08-.12.22-.13.33-.07-.15-.18.44-.22.28-.1.2-.24,0-.35,0s-.26,0-.31.17-.13.16-.3.11-.19-.07-.26-.14S-1.29,18.74-1.32,18.67Z"/><path class="cls-10" d="M.91,18.15h0c0,.16,0,.14-.08.32s-.06.18-.1.26v0a.54.54,0,0,1-.27.31.35.35,0,0,1-.4,0l-.06,0c-.06,0-.13-.05-.14-.13a.61.61,0,0,1-.05-.12s0-.07,0-.1,0-.16,0-.21l0-.12s0-.08,0-.13a1.69,1.69,0,0,1,0-.28,2.24,2.24,0,0,0-.11-.34c-.08-.17-.13-.33-.09-.3h0a.56.56,0,0,1,0-.31A.49.49,0,0,1,0,16.79l.1,0a.47.47,0,0,1,.43,0c.16,0,.28.11.3.28a1.11,1.11,0,0,1,.09.19s0,0,0,0,0,0,0,.23a1.12,1.12,0,0,1,0,.32H1a1.79,1.79,0,0,1,0,.23C1,18.1,1,18.13.91,18.15Z"/><path class="cls-10" d="M.2,28.58h0c.22,0,.19.12.29.25a.51.51,0,0,0,.33.1.67.67,0,0,1,.35,0h.17a.15.15,0,0,1,.2.05h0a.19.19,0,0,1,.15.1.31.31,0,0,1,.11.16q.09.09,0,.33h0a.45.45,0,0,1-.09.25.25.25,0,0,1,0,.07s-.05.26-.19.2h0c0,.08-.09.08-.24.16h0l0,0c-.07,0-.12.11-.24.1l-.26.1a.85.85,0,0,1-.27.09.4.4,0,0,1-.27,0c-.08.05-.1,0-.14,0H-.06s-.11,0-.16,0l-.09,0h0l-.09,0-.13-.07h0a.91.91,0,0,1-.21-.18.94.94,0,0,1-.17-.31A1.18,1.18,0,0,1-1,29.65a.29.29,0,0,1,0-.16.76.76,0,0,1,0-.15h0c0-.1,0-.13,0-.16a.5.5,0,0,1,0-.13h0c0-.1,0-.22.12-.26s.14-.28.28-.25a.21.21,0,0,1,.12-.05.7.7,0,0,1,.25,0,.51.51,0,0,1,.22,0A.34.34,0,0,1,.2,28.58Z"/><path class="cls-10" d="M5.27,25.36l.33-.15.06,0,.22-.09h0c.07-.12.23,0,.3,0a.29.29,0,0,1,.21.16s0,.09.06.18a.19.19,0,0,1,0,.08.35.35,0,0,1-.08.32v0a2.51,2.51,0,0,1-.19.24.23.23,0,0,1-.08.07l-.13.1H6c-.12.14-.11.12-.24.13h0l-.17.07-.09,0h0l-.27.05h0s-.07,0-.11,0H4.91l-.26,0a2.1,2.1,0,0,1-.24-.06h0l-.22-.08h0s0,0,0,0a3,3,0,0,1-.39-.22h0c-.18-.13-.18,0-.2-.15h0l-.18-.16h0a.14.14,0,0,1-.15-.15c-.16-.11-.19-.05-.13-.18h0L3,25.29H3s0,0,0-.08a.65.65,0,0,1,0-.13h0c-.09-.19-.1-.16,0-.22h0v0c0-.06-.1-.17,0-.18a.71.71,0,0,1,.06-.22s0-.06,0-.06a.71.71,0,0,1,.1-.14s0-.06.07-.06h0l0,0,0,0a.55.55,0,0,1,.31-.07.41.41,0,0,1,.16,0l.06,0h0l0,0h0l0,0h0l0,0h0c.06.05.15.12.16.18H4a1.55,1.55,0,0,1,.12.22h0a2.44,2.44,0,0,1,.1.24.16.16,0,0,1,.06.15,1.69,1.69,0,0,0,.17.29.83.83,0,0,0,.16.12l0,0c.11-.16.19,0,.26,0s.27-.07.33-.07Z"/><path class="cls-9" d="M16.25,21.86a.5.5,0,0,0-.2,0c-.16.07-.15-.12-.25,0a1.38,1.38,0,0,0-.26,0c.05,0-.27-.05-.25,0s-.11,0-.28.09-.2.13-.18.14a2.46,2.46,0,0,1-.09.4c0,.11.06.2.06.24a2.44,2.44,0,0,0,.1.24c0,.09.11.16.16.27s.07.21.18.23.21.25.23.22a3.1,3.1,0,0,1,.25.21c.08,0,.18.13.28.16s.15.24.25.15Z"/><path class="cls-10" d="M16.25,21.9c0,.16,0,.33,0,.32Z"/><path class="cls-10" d="M14.19,22c-.11-.17,0-.12,0-.26s.05-.18.07-.22.16-.22.18-.25h0a1.2,1.2,0,0,1,.21-.19h0s.06,0,.11-.06L14.9,21h0s.19-.12.27,0h0a.74.74,0,0,1,.28.06.34.34,0,0,1,.26.15,1,1,0,0,1,.23.29h0a.4.4,0,0,1,0,.35.07.07,0,0,1,0,.06.25.25,0,0,1-.12.11c-.06.06-.19.06-.25.07s-.17.2-.21.34,0,0,0,.07v0c.05.11.05.15-.14.25s-.14.1-.23.09h-.14s-.06,0-.13,0a.66.66,0,0,1-.22-.12h0a.55.55,0,0,1-.16-.18h0a.19.19,0,0,1-.09-.22h0C14.17,22.17,14.05,22.05,14.19,22Z"/><path class="cls-10" d="M15.57,23.17c0-.05,0,0,0,0Z"/><path class="cls-10" d="M16.25,23.68s-.08,0-.08,0-.19-.21-.3-.3-.17-.16-.3-.2h0a.3.3,0,0,0-.39,0h0s-.05-.06-.14.05l-.06,0c-.13.08-.24.18-.19.24s0,.1-.05.15-.07.1,0,.18c-.17.06,0,.24.06.3h0a1.2,1.2,0,0,0,.16.27h0l0,0,0,0c.05.07,0,.11.19.17a.37.37,0,0,0,.15.1l.13.07h0a1.88,1.88,0,0,0,.3.12l.26.05h0l.26,0h0Z"/><path class="cls-10" d="M2.2,25.76a.33.33,0,0,1,.24.08.75.75,0,0,1,.2.1h0s.06,0,.08,0a.52.52,0,0,1,.11.1h0c.12.06.2.12.18.18l.08.09a.44.44,0,0,1,.08.11h0a.88.88,0,0,1,.12.21h0c.07.17.21.2.09.24a.12.12,0,0,1,0,0,1.7,1.7,0,0,1,.06.31h0a.54.54,0,0,1,0,.19l0,.15a.93.93,0,0,1-.18.32.71.71,0,0,1-.3.21.82.82,0,0,1-.84-.1l0,0h0a.66.66,0,0,1-.17-.24v0a1,1,0,0,1,0-.17.6.6,0,0,1,0-.2h0c-.06-.1,0-.22,0-.33v0a.22.22,0,0,0-.08-.14l-.06,0a.27.27,0,0,0-.23,0h0A1,1,0,0,0,1.2,27a1.06,1.06,0,0,0-.17.26c0,.06-.09.23-.13.22a.2.2,0,0,1-.13.11l-.11.05a.35.35,0,0,1-.22,0h0a.59.59,0,0,1-.2-.16h0a1,1,0,0,1-.12-.25h0c0-.05,0-.1,0-.16A.38.38,0,0,1,0,27a.19.19,0,0,1,0-.19.19.19,0,0,1,0-.07h0a.33.33,0,0,1,.1-.24s0-.06.06-.07a1.47,1.47,0,0,1,.3-.31h0l.06,0c0-.05.07-.14.17-.11h0l.08,0A.21.21,0,0,1,1,25.87a2.34,2.34,0,0,1,.24-.09h0l.24-.05h0c.08-.06.1-.09.25,0h0a1,1,0,0,1,.24,0H2l.24,0Z"/></g><circle class="cls-11" cx="15" cy="15" r="12.5"/><path class="cls-12" d="M15,2.5A12.5,12.5,0,1,1,2.5,15,12.5,12.5,0,0,1,15,2.5M15,1A14,14,0,1,0,29,15,14,14,0,0,0,15,1Z"/></g></g></svg>