<svg id="Livello_1" data-name="Livello 1" xmlns="http://www.w3.org/2000/svg" viewBox="0 0 30 30"><defs><style>.cls-1{fill:#d1d1d1;}.cls-2{fill:#005f6a;}</style></defs><path class="cls-1" d="M15,2.5A12.5,12.5,0,1,1,2.5,15,12.5,12.5,0,0,1,15,2.5M15,1A14,14,0,1,0,29,15,14,14,0,0,0,15,1Z"/><path class="cls-2" d="M6.16,23.84A12.5,12.5,0,0,1,23.84,6.16Z"/><path d="M15,27.32a12.23,12.23,0,0,1-8.59-3.48L23.84,6.41A12.33,12.33,0,0,1,15,27.32Z"/><path d="M23.84,6.66A12.15,12.15,0,0,1,6.66,23.84L23.84,6.66m0-.5L6.16,23.84A12.5,12.5,0,0,0,23.84,6.16Z"/></svg>