<svg id="Livello_1" data-name="Livello 1" xmlns="http://www.w3.org/2000/svg" xmlns:xlink="http://www.w3.org/1999/xlink" viewBox="0 0 30 30"><defs><style>.cls-1{fill:none;}.cls-2{clip-path:url(#clip-path);}.cls-3{clip-path:url(#clip-path-2);}.cls-4{clip-path:url(#clip-path-3);}.cls-5{fill:#e3e4e3;}.cls-6{fill:#99d5ea;}.cls-7{fill:#ef88b6;}.cls-8{fill:#fbd760;}.cls-9{fill:#fff;}.cls-10{fill:#d1d1d1;}.cls-11{fill:#f7c2d0;}</style><clipPath id="clip-path"><circle class="cls-1" cx="65" cy="-35" r="12.5" transform="translate(8.68 12.73) rotate(-11.98)"/></clipPath><clipPath id="clip-path-2"><rect class="cls-1" x="43.4" y="-56.98" width="40.28" height="40.28"/></clipPath><clipPath id="clip-path-3"><rect class="cls-1" x="25.18" y="-34.08" width="39.89" height="39.71"/></clipPath></defs><g class="cls-2"><g class="cls-3"><g class="cls-4"><path class="cls-5" d="M27.23,1.36A.92.92,0,0,0,27.7,1a.1.1,0,0,1,0-.05.6.6,0,0,1,.86,0,.63.63,0,0,1,0,.87s-.25.38-1.08.27c0,0-.35-.11-.52.13s-.55,1.11-.55,1.11l-.25-.26a3,3,0,0,0,.54-1.39C26.71,1.54,27,1.45,27.23,1.36Z"/><path class="cls-6" d="M26.47,3.53a.45.45,0,0,0,0-.16l-.25-.26a.41.41,0,0,0-.15.07.1.1,0,0,0,0,.14l.25.27A.11.11,0,0,0,26.47,3.53Z"/><path class="cls-6" d="M27.81,5.06a.52.52,0,0,0,0-.16l-.25-.26a.54.54,0,0,0-.15.08.1.1,0,0,0,0,.14l.25.27A.11.11,0,0,0,27.81,5.06Z"/><path class="cls-5" d="M29.29,2.54h0l0,0a.6.6,0,1,1,.83.87L30,3.46h0a10.15,10.15,0,0,0-1.18.44,3.61,3.61,0,0,0-1.06,1l-.25-.26Z"/><path class="cls-6" d="M27.56-.85a.53.53,0,0,0-.43.32c-.13.3-.46.87-1,.71s-.45-1-.35-1.32h0l0,.33a1,1,0,0,0,.08.46.44.44,0,0,0,.35.28.56.56,0,0,0,.48-.28A4.9,4.9,0,0,1,27-.84a.73.73,0,0,1,.58-.27.91.91,0,0,1,.59.3.94.94,0,0,1,.25.43,1.33,1.33,0,0,1,0,.4C28.32-.23,28.05-.9,27.56-.85Z"/><path class="cls-7" d="M26.13.18c.54.16.87-.41,1-.71a.53.53,0,0,1,.43-.32c.49-.05.76.62.84.87h0l-.1,0c0-.09-.18-.65-.58-.58a.44.44,0,0,0-.31.23c-.13.25-.44.76-.84.87a1.17,1.17,0,0,1-1.43-.84,1.07,1.07,0,0,1,.3-.54l.34-.33C25.68-.8,25.51,0,26.13.18Z"/><path class="cls-8" d="M26.57.57c.4-.11.71-.62.84-.87a.44.44,0,0,1,.31-.23c.4-.07.56.49.58.58h0a.7.7,0,0,0-.12-.28.48.48,0,0,0-.26-.16.46.46,0,0,0-.32.11,1,1,0,0,0-.21.29,3.2,3.2,0,0,1-.42.68,1.11,1.11,0,0,1-1,.28,1.08,1.08,0,0,1-.75-.76,1.16,1.16,0,0,1,0-.49A1.17,1.17,0,0,0,26.57.57Z"/><path class="cls-9" d="M27.26.19a1,1,0,0,1,1-.21c.21.05.42.22.63.62.44.89.94.89.94.89l2,.08-.28.92a1.15,1.15,0,0,0-1.06.5,1.18,1.18,0,0,1-.69.55c-1,.33-2.59-1.48-2.83-2.34A1,1,0,0,1,27.26.19Z"/><path class="cls-9" d="M26.51,1.17A.83.83,0,0,0,27,.83l.05,0a.6.6,0,0,1,.86,0,.61.61,0,0,1,0,.86s-.25.39-1.08.27a.51.51,0,0,0-.52.14c-.16.24-.55,1.1-.55,1.1l-.25-.26A3,3,0,0,0,26,1.53C26,1.35,26.24,1.26,26.51,1.17Z"/><path class="cls-6" d="M25.75,3.33a.52.52,0,0,0,0-.16l-.25-.26a.54.54,0,0,0-.15.08.1.1,0,0,0,0,.14l.25.27A.11.11,0,0,0,25.75,3.33Z"/><path class="cls-6" d="M27.2,5a.45.45,0,0,0,0-.16l-.25-.26a.41.41,0,0,0-.15.07.1.1,0,0,0,0,.14l.25.27A.11.11,0,0,0,27.2,5Z"/><path class="cls-9" d="M28.68,2.46h0l0,0a.6.6,0,1,1,.83.86.38.38,0,0,1-.13.09h0a12.45,12.45,0,0,0-1.18.44,3.57,3.57,0,0,0-1.06,1l-.25-.26Z"/><path class="cls-6" d="M30.22,1.94a1.1,1.1,0,0,1-.59.12.72.72,0,0,1-.51-.29.59.59,0,0,0,.5,0A1,1,0,0,0,30,1.37l.14-.2a.71.71,0,0,1,.5-.26.54.54,0,0,1,.48.28A6.94,6.94,0,0,1,30.22,1.94Z"/><path class="cls-7" d="M31.4,1.4a.24.24,0,0,0-.21.11,1.2,1.2,0,0,0-.11.23,1.2,1.2,0,0,1-.16.27l-.19.19a.89.89,0,0,1-.33.18.72.72,0,0,1-.46-.06.68.68,0,0,1-.3-.35.73.73,0,0,0,.5-.09,1.41,1.41,0,0,0,.36-.37,4,4,0,0,1,.24-.33A.76.76,0,0,1,31.08,1a.6.6,0,0,1,.45.07.41.41,0,0,1,.17.15.27.27,0,0,1,.05.21Z"/></g></g></g><path class="cls-10" d="M15,2.5A12.5,12.5,0,1,1,2.5,15,12.5,12.5,0,0,1,15,2.5M15,1A14,14,0,1,0,29,15,14,14,0,0,0,15,1Z"/><path class="cls-11" d="M6.16,23.84A12.5,12.5,0,0,1,23.84,6.16Z"/><path d="M6.16,23.84A12.5,12.5,0,0,0,23.84,6.16Z"/></svg>