<svg id="Livello_1" data-name="Livello 1" xmlns="http://www.w3.org/2000/svg" xmlns:xlink="http://www.w3.org/1999/xlink" viewBox="0 0 30 30"><defs><style>.cls-1{fill:none;}.cls-2{clip-path:url(#clip-path);}.cls-3{fill:#254368;}.cls-4{fill:#bad9ed;}.cls-5{fill:#accfe7;}.cls-6{fill:#2f588b;}.cls-7{fill:#71706a;}.cls-8{fill:#4373a9;}.cls-9{fill:#a19f99;}.cls-10{fill:#c9e3f2;}.cls-11{fill:#284a79;}.cls-12{fill:#3a659c;}.cls-13{fill:#bebcb3;}.cls-14{fill:#e2e1dc;}.cls-15{fill:#383838;}.cls-16{fill:#595752;}.cls-17{fill:#95bcdc;}.cls-18{fill:#6f91bc;}.cls-19{fill:#67655f;}.cls-20{fill:#1e2126;}.cls-21{fill:#454441;}.cls-22{fill:#7d7a74;}.cls-23{fill:#d1d1d1;}.cls-24{fill:#cccdc7;}.cls-25{fill:#c2b7ef;}.cls-26{clip-path:url(#clip-path-2);}.cls-27{clip-path:url(#clip-path-3);}.cls-28{fill:#009ee2;}.cls-29{fill:#fffdfc;}.cls-30{clip-path:url(#clip-path-4);}.cls-31{fill:#ece5d3;}</style><clipPath id="clip-path"><circle class="cls-1" cx="-35" cy="15" r="12.5"/></clipPath><clipPath id="clip-path-2"><circle class="cls-1" cx="65" cy="15" r="12.5"/></clipPath><clipPath id="clip-path-3"><rect class="cls-1" x="30.85" y="-9.07" width="54.49" height="51.62"/></clipPath><clipPath id="clip-path-4"><circle class="cls-1" cx="115" cy="15" r="12.5"/></clipPath></defs><g class="cls-2"><g id="Y9Jclw.tif"><path class="cls-3" d="M6.16,27.32l-1.11.35A16.79,16.79,0,0,0,3.33,28c-.16,0-.25.33-.37.51l-1.32.71v-.62c-.1,0-.23,0-.27-.08-.27-.39-.59-.14-.85,0a9.54,9.54,0,0,1-1,.56A3.68,3.68,0,0,0-2.56,31a10.84,10.84,0,0,0-.71,2.15c-.39.33-.8.64-1.18,1-.1.1-.09.3-.14.45h0l-.11.1h0a7.16,7.16,0,0,0-.78.4c-.35.22-.67.49-1,.73-.18,0-.42,0-.53.06-.64.57-1.27,1.16-1.88,1.77-.07.06,0,.23-.06.35l-.16.22c-.16,0-.38-.11-.47,0-.77.65-1.52,1.34-2.27,2a1.83,1.83,0,0,0,.15.24l.05.21,0,0c-.52-.06-.8.26-1,.67a.08.08,0,0,0,0,.08l-.09.06,0,0,0,0-.14.1a.09.09,0,0,1-.07.06l-.31-.11-.16-.16-.23,0h0l0-.12a.11.11,0,0,0,0-.08l.43-1.05a1,1,0,0,0-1.28.74l-.34-.57-1.08,1.39c-.05.06-.08.15-.13.17-.69.17-.7,1-1.21,1.29-.09.06-.11.23-.17.34l-.33.67-.69-.53.49-.56L-19.32,43l-.29.35-.3-.24c-.14-.09-.29-.16-.41-.25s-.29-.26-.51-.45h.71c-.05-.16-.09-.32-.14-.48-.15-.48-.3-1-.46-1.45l.36-.17c-.06-.11-.11-.3-.19-.3a2.51,2.51,0,0,0-.61,0v.13l.44.3c-.28.12-1-.37-.73.43l-.61.79a7.89,7.89,0,0,0-.11-.84,1.68,1.68,0,0,0-.32-.69c-.21-.24-.47-.1-.54.24a5.88,5.88,0,0,1-.2.59l-.64-.37-.14.06h0l-1.42-.57.19-.13-.08-1.06a3.94,3.94,0,0,1,.87-.39c.67-.1,1.07-.77,1.76-.81,0,.25,0,.5,0,.81a4.28,4.28,0,0,0,.57-.29,2.77,2.77,0,0,0,.36-.4c-.24-.09-.47-.2-.72-.27-.07,0-.17.1-.26.16-.06-.68-.64-.11-.84-.36a2.89,2.89,0,0,0-.14-.47c-.17-.32-.37-.62-.55-.94.38,0,.77.1,1-.32-.34.12-.81-.22-1,.33l-.67.33c0-.33-.16-.48-.46-.44-.07,0-.18.22-.15.27.14.25.35.36.62.16a.94.94,0,0,0,.66.89c.26.1.57.22.39.65a1,1,0,0,0-.3,0,9.59,9.59,0,0,1-2.14.66c-.58,0-.7.09-.47.6l-.9-.3L-29.15,38l-1.2-.88L-30,36c.33-.17.19-.38.06-.61s-.24-.51-.38-.75-.23-.39-.39-.45-.35.12-.56.21l.4.58-.24.7-.21.44-.15-.15-.3-.5-.08-.12v-.1l.46.21c.07-.53.07-.53-.51-.54l-.34.09a6.06,6.06,0,0,0-.76-.48.46.46,0,0,0-.41,0c-.41.36-.62.06-.9-.2s-.76-.54-1.11-.84-.55-.54-.83-.81l.67-.39.17,0v.35l.17-.05h.3l.32.23.16.31-.21.23.34.06h0l.11.15.25.4.18-.09.09-.79c.57.52.92.44,1.21-.13a.6.6,0,0,1,.47-.18c.43,0,.64-.08.52-.55a.56.56,0,0,1,0-.23A1.59,1.59,0,0,0-30,31.74l0-.31.21-.47v-.8h0l1.1.23c-.08.34-.2.67-.26,1a1.51,1.51,0,0,0,0,.67c0,.07.3,0,.46.07l.53.7c.14-.15.57.54.73-.07.56,0,.64.9,1.44.66a3.81,3.81,0,0,0-.35-.24l-.31-.16v-.14a2.46,2.46,0,0,1,.53-.06c.25,0,.49.13.74.17.6.11.81-.09.8-.72l.24-.29-.45-.18-.54-.59a1.55,1.55,0,0,0-.23-.27,5.79,5.79,0,0,0-.57-.25l.09-.19c0-.08.05-.18,0-.24s-.18-.34-.27-.51l.63.1.12.16.1-.32.08-.09.88-.31.25.13.12.42-.22.21a.86.86,0,0,0-.32,0,1.85,1.85,0,0,0-.33.24l.32.31,0,0c.18.38.34.39.64.06s1.05-.21.74-1l.25-.45.21,0a1.37,1.37,0,0,1,.17.37,3.15,3.15,0,0,1,0,.81,6.73,6.73,0,0,1-.21.86c-.08.06-.15.16-.25.19-.74.25-.91.52-.79,1.29a1.2,1.2,0,0,1,0,.53c-.13.44-.22.77.34,1a14.17,14.17,0,0,1,1.7,1.06c-.07.33.24.35.57.26a1.4,1.4,0,0,0,.61-.33.77.77,0,0,0,.1-.51c0-.35-.15-.75,0-1a4.78,4.78,0,0,1,.76-1,2.92,2.92,0,0,0,.25-.5c.14-.62.57-.09.83-.21l0,.26c-.11.22.29.81.54.94a9.43,9.43,0,0,1,1.22.74,3.21,3.21,0,0,1,.44.46c0,.36.24.75-.16,1.08-.08.07,0,.34,0,.52l.13,0,.28-.33.74.79a1.88,1.88,0,0,1,.69-.26,1.36,1.36,0,0,0,1.51-1,6.74,6.74,0,0,0,.16-.78l.52,1-.45,1,.2.11.81-1h.11l-.14.7,1-.42.08.45,1.14.06s0,.08,0,.13a1.27,1.27,0,0,0,.09.2c.82-1,2-1.63,2.42-2.89l-.12-.14-.92.7-.1-.1.88-1.22-.21-.23c.11-.11.28-.21.32-.34.15-.56.27-1.13.41-1.75a1.1,1.1,0,0,0,1.6-.44l-.46-.11.85-1.15.15.4,0-.19.83-.25-.38.79.3.64.72-.28a.4.4,0,0,0,.42.07,2.2,2.2,0,0,0,.68-1.88,1.5,1.5,0,0,0,1.22.15c1-.25,1.29-.47,1.27-1.46L1,26.89c0,.12,0,.3-.05.35-.4.31-.24.6,0,.93l.63-.29c.46.45,1.18.32,1.79-.41l-1.14.09a.14.14,0,0,0,0-.09.81.81,0,0,0,.51-.93c.11,0,.3,0,.33-.1.16-.4.44-.35.79-.35s1.09.36,1.32-.42c0,0,.06-.07.08-.06l1.27.22-.64,1.11Zm-17.62,10-.08-.09s0-.14,0-.15a.7.7,0,0,0-1.1.33c-.23.48-.51,1-.77,1.41l-.42-.37a6.79,6.79,0,0,1,.29-.78c.37-.67-.25-.68-.56-.74s-.48.24-.61.45,0,.47-.08.7a5,5,0,0,1-.24.63l-.19-.44-.17.06.29.79-.48.09.56.84c.22-.27.41-.54.62-.78s.42-.53.77-.21l-.21.58C-12,39.49-11.33,38-10.32,37l-.07-.12Zm-9.72.54c.17.3.28.75.48.8s.62-.18.9-.34c.06,0,.05-.32,0-.42C-20.16,37.53-20.58,37.62-21.18,37.89Zm1.93,2.69c-.42.25-.32.47.17,1.22l.59-.93Zm-4.83-1.28-.12-.17-.84,0-.08.19.55.54Zm-5.5-5.88-.16.2c.25.21.49.42.75.6.06,0,.24,0,.31-.13a.27.27,0,0,0-.05-.27C-29,33.67-29.29,33.55-29.58,33.42Zm11.29,8.45.72.47.3-.56C-17.64,41.93-18.07,41.31-18.29,41.87Zm-5-2.51-.28-.18-.42.44.44.4Zm5.9-.24.49-.86-1,.16Zm-4.31.53-.45.37c.1.1.22.29.32.28s.27-.15.41-.24Z"/><path class="cls-4" d="M6.16,27.32l-.3-.38.64-1.11a3,3,0,0,1,.47.55c.19.36.27.39.63.11a2.23,2.23,0,0,0-.26-.27c-.41-.32-.21-.59.09-.77a.72.72,0,0,0,.41-.63c0-.17.24-.32.37-.48.11.12.23.24.34.37l.2.22.19,0a2.29,2.29,0,0,0-.06-.75.69.69,0,0,1,.18-1c.53-.15.53.38.78.67-.09-1.44.37-1.81,1.17-2.67.45.61,1.26,1,1,1.95l.34.18.91-.72h0l.09.4-.22.23,0,.08h.11l.19-.25.62-.44a1.35,1.35,0,0,1-.62,1,10,10,0,0,1-1.08.89,3.63,3.63,0,0,1-1.07.22,1.23,1.23,0,0,0,0-.2,3.4,3.4,0,0,0-.78,0,2,2,0,0,0-.55.3l.86.11c-.21.27,0,.24.16.24a1.77,1.77,0,0,1,.4.08c-.88.41-1.75.86-2.65,1.22S7,27,6.16,27.32Zm4.33-2.17,0,0,0,0,0,0Z"/><path class="cls-4" d="M19.09,19.26a9.07,9.07,0,0,1-.83.92c-1.17,1-2.36,2-3.56,3a2.35,2.35,0,0,1-.46.28c0-.28,0-.56,0-.83.06-.09.12-.25.18-.26.68,0,.66-.6.76-1,.14-.61.19-1.24.29-1.87L16,19c.39,0,.72,0,.7-.56h0l.11-.12h0l.5.17c.38-.84.31-2,1.5-2.44-.06.36-.2.65-.11.84.18.4,0,.64-.2.93a1.7,1.7,0,0,0-.12.61c-.09.24-.19.49-.28.74l-.42.78-.1.23-.06.07.06-.07.16-.18.65-.44,0-.12-.08.06-.19-.3.77-.74h0l.19.09,0,.15,0-.15.27-.09-.16.64h0Z"/><path class="cls-5" d="M-3.27,33.14A10.84,10.84,0,0,1-2.56,31,3.68,3.68,0,0,1-.44,29a9.54,9.54,0,0,0,1-.56c.26-.11.58-.36.85,0,0,.06.17,0,.27.08v.62C.21,30.47-1.23,31.74-2.67,33a1.29,1.29,0,0,1-.33.17Z"/><path class="cls-6" d="M22.73,15.16,21.18,17l-.13-.24.74-1.38-.18-.16-.54.28,0-.28a4.36,4.36,0,0,0,.61-.68c.35-.6.66-1.22,1-1.83.9,0,.46-.76.69-1.15.23.32.4.15.56,0l.37-.42-1.05,2-.16-.41-.42,1.39.88-.3a.44.44,0,0,1-.17.29C23.06,14.4,22.64,14.63,22.73,15.16Z"/><path class="cls-4" d="M22.73,15.16c-.09-.53.33-.76.61-1.07a.44.44,0,0,0,.17-.29l-.88.3.42-1.39.16.41,1.05-2h0l.21-.31a1.28,1.28,0,0,0,.33,0,1.77,1.77,0,0,0,.32-.21l-.22,1.76h0l-.12.12h0l-.19-.16-.09.35-.15.28v.19Zm.89-1.48,0,0v0Z"/><path class="cls-7" d="M14.25,22.65c0,.27,0,.55,0,.83l-2.93,1.75a1.77,1.77,0,0,0-.4-.08c-.18,0-.37,0-.16-.24l.5-.2a3.63,3.63,0,0,0,1.07-.22,10,10,0,0,0,1.08-.89,1.35,1.35,0,0,0,.62-1Z"/><path class="cls-5" d="M3,28.5c.12-.18.21-.47.37-.51a16.79,16.79,0,0,1,1.72-.32Z"/><path class="cls-8" d="M19.09,18.55l-.19-.09.5-.23.07,0,0-.06.39-.54c.06.18-.49.35,0,.53l.18.14h0l-.35.37h0l-.13.15-.31.22.16-.64-.27.09Z"/><path class="cls-9" d="M20,18.34l-.18-.14,1.23-1.44.13.24Z"/><path class="cls-9" d="M19.64,18.72l.35-.37Z"/><path class="cls-9" d="M19.51,18.88l.13-.15Z"/><path class="cls-8" d="M19.09,19.26l.11-.16Z"/><path class="cls-6" d="M33.26-2.87c-.12.46-.24.91-.37,1.36l-.36-.19L32.9-2l-.52-.29L31.84-.55l-.2,0c.25-.68-.12-1-.58-1.22a1.67,1.67,0,0,1-.51.23C29.39-1.39,29-.46,28.55.4c-.15.26-.18.66-.56.6a4,4,0,0,1-1-.44c.36-.16.66-.21.74-.36a2.84,2.84,0,0,0,.13-.84h-.45a1,1,0,0,1,0-.36c.28-.58.58-1.14.9-1.75l-.71-.32-.05-.43c.19,0,.48.17.54.09s.4-.38.07-.64c-.06,0,0-.24,0-.39-.26.07-.43,0-.32-.34s.12-.49.18-.74l.14-.17.11-.22-.2-.76-.46.54-.11-.5-.14,0L27-5.47l-.23-.15c.15-1,.34-1.92.44-2.89a6.58,6.58,0,0,0-.1-1.32V-10l.22-.11.28,1.57c.49-.35.77-.17.9.26s.41.32.69.25c-.31,1.07-.61,2.14-.94,3.31.89-.43,1.8-2.9,1.48-3.73l-.42.22L29.61-9,30-9.29l.26.53c.35-.6.69-1.09.93-1.61.38-.84-.05-1.6-.32-2.37l.35-.08,1,1.88,1-.7a1.32,1.32,0,0,1,.09.42c-.11.9-.25,1.79-.36,2.69s-.16,1.65-.24,2.47L32-5.33l-.1-.08c-.07-.24.52-.52,0-.72a1.23,1.23,0,0,1,.08-.33c.13-.27.28-.53.43-.79l-.18-.09c-.53.23-.36.86-.79,1.27l.46-.06c-.23.61-.74,1.12-.75,2l.41-.44c0,.2.05.34.05.48a1.25,1.25,0,0,1-.07.26l-.32-.22-.08.6.14-.1.57.54.67-.33.14.32c.62-.07.16-.59.35-.84C33.37-3.43,33.37-3.43,33.26-2.87Zm-1.1-6.64c-.77.64-.88,1.73.19,2C32.75-8.19,32.3-8.79,32.16-9.51ZM28.87-4.12a2.65,2.65,0,0,0,1.26-2.42C29.61-5.78,28.91-5.21,28.87-4.12ZM29.49-3l-.42.85.17.08C29.43-2.37,29.86-2.49,29.49-3ZM27.82-8.3v0l0,0s0,0,0,0Z"/><path class="cls-10" d="M27.42-.65h.46a2.84,2.84,0,0,1-.13.84c-.08.15-.38.2-.74.36A4,4,0,0,0,28,1c.38.06.41-.34.56-.6.45-.86.84-1.79,2-1.92a1.67,1.67,0,0,0,.51-.23c.46.23.83.54.58,1.22l.2,0,.54-1.74L32.9-2l-.37.3.36.19c0,.2-.09.39-.13.59l-.31-.22a1.13,1.13,0,0,0-.07.15c-.2.69-.39,1.38-.58,2.08-.06.22-.12.4-.39.19l0-.38.08-.13.33-1c-1,1-1,2.36-1.82,3.38-.67.8-1,1.84-2,2.41a2.45,2.45,0,0,1-.16-2s.06-.07.07-.07c.34.1.27-.14.25-.31L27.9,1.28h-.53l-.76,2.57-.07-.55L26,4l-.16-.41L25.4,4l-.08-.48-.78.63a2.34,2.34,0,0,1,.25-1.86s0-.06,0-.1l-.42.29a6.8,6.8,0,0,1,0-1.36A4.16,4.16,0,0,1,24.89,0a7.91,7.91,0,0,1,.75-.88c-.05-.12-.15-.24-.15-.36s.07-.37.1-.56l.49.2.47.16.34-1c.39-.2.35-.54.32-.89h0l.12-.12h0l.2-.06a.11.11,0,0,0,.09,0l.05.43.71.32c-.32.61-.62,1.17-.9,1.75a1,1,0,0,0,0,.36h-.08l0,.06Z"/><path class="cls-6" d="M30.1,4.72h-.05v0l-.23.49h0l-.12.11h0l-.12.22h-.21l0,0c.4-.73.8-1.46,1.19-2.2.18-.33.36-.66.53-1h0L31,3.06s0,0,.05,0H30.9l0,.16-.06.15c-.09,0-.22.08-.26.16C30.42,3.93,30.27,4.33,30.1,4.72Z"/><path class="cls-11" d="M-5.7,30.27l.46.11a1.1,1.1,0,0,1-1.6.44c-.14.62-.26,1.19-.41,1.75,0,.13-.21.23-.32.34-.21-.41-.43-.16-.64,0s-.4.35-.6.52l-.09-.11a4.65,4.65,0,0,0,.13-.9c0-.07-.38-.18-.57-.16a2.62,2.62,0,0,0-2,2l.26,0-.61,1.39h-.11c-.11-.42-.33-.27-.56-.11l-.52-1A2.37,2.37,0,0,0-14,32.12l-1.07,1.25c-.45-.13-1,.05-1.11.39a4.28,4.28,0,0,0-.07.81,3.21,3.21,0,0,0-.44-.46,9.43,9.43,0,0,0-1.22-.74c-.25-.13-.65-.72-.54-.94a3,3,0,0,0,1.08.15,15.07,15.07,0,0,0,1.94-.72c.11-.05.27-.21.27-.31a.76.76,0,0,0-.22-.41c-.41.16-.6-.19-.73-.41a1.42,1.42,0,0,0-1-.73c-.1,0-.17-.19-.25-.28a1.43,1.43,0,0,1,.53,0,1.06,1.06,0,0,0,.35-.15c-.06-.09-.12-.27-.19-.28a15,15,0,0,1-2.39-.42.32.32,0,0,0-.29.16.53.53,0,0,0,.11.38.82.82,0,0,0,.33.19.67.67,0,0,1,.43.95c-.07.2.15.53.28.77s.25.19.45.33l-.67.55c-.26.12-.69-.41-.83.21-.14-.05-.37-.06-.43-.17a1.38,1.38,0,0,0-1.36-.83c-.5,0-1,0-1.5,0a6.73,6.73,0,0,0,.21-.86,3.15,3.15,0,0,0,0-.81,1.37,1.37,0,0,0-.17-.37c.22-.19.45-.38.73-.6v.63c.1,0,.17,0,.23,0a2.54,2.54,0,0,0,1.43-2.94.81.81,0,0,0-1.15-.57l-.49.19.15-.62.13-.16.09-.09c.41-.4.39-.75,0-1.06a6.33,6.33,0,0,1-.59-.69l-.35.33h0l-.21.16-.94.12-.83-.05a5.65,5.65,0,0,1,.76-.41.76.76,0,0,0,.43-1c-.16-.43-.52-.33-.87-.26a2.05,2.05,0,0,0-1.31.91c-.19.26-.46.45-.66.7a7.23,7.23,0,0,0-.44.64l.73.31h0v.34l-.07.22.07.24.09.09h.25l.15.12c-.39.39,0,.75.05,1.12,0,0,0,.05,0,.06l.21.25.28.11.5.42L-24,28l-.46.54.23.76-.88.31a5.4,5.4,0,0,0-.18-.57c-.09-.21-.28-.4-.3-.62-.05-.46-.27-.5-.63-.34l-.55.23a3.49,3.49,0,0,1-1.7,0A14,14,0,0,1-27,27.92c.64-.15.93-.36.78-1,0-.19,0-.4,0-.6a.61.61,0,0,0-.19-.39c-.05,0-.24.07-.36.13s-.33.21-.49.31c-.55.35-1.12.67-1.65,1.05-.15.11-.19.37-.3.61l.61.12A1.12,1.12,0,0,0-28.7,30v.37h0l-1.1-.23a4,4,0,0,0,0-.49c0-.17-.17-.33-.17-.49,0-.47,0-.86-.64-.53a.24.24,0,0,1-.19,0c-.28-.5-.7-.23-1-.31l-.39-.17-.07-.06-.07-.75-.68.24s0,.06-.08.08l-1,.79-.15-.05-.82-.49-.13.75c-.11-.09-.26-.16-.31-.27s-.15-.54-.28-.79a.4.4,0,0,0-.36-.15.59.59,0,0,0-.28.35,1.34,1.34,0,0,0,0,.48l-1,.18-.15.7a5,5,0,0,0,2.58,1l0,0c-.12,0-.26.14-.37.12-.76-.15-1.18.2-1.08,1a1.28,1.28,0,0,1,0,.27c.48.19.76-.5,1.22-.21a.23.23,0,0,0,.07.07l-.16.89-.17,0-.06-.5c-.29.34-.76.38-.61.89.28.27.53.57.83.81s.77.53,1.11.84.49.56.9.2a.46.46,0,0,1,.41,0,6.06,6.06,0,0,1,.76.48c0,.37-.17.5-.54.45a5.61,5.61,0,0,1-1-.23,7.75,7.75,0,0,1-1.75-1l-.09-.11c-.08-.29-.24-.26-.43-.11h-.15l-1.29-.76-1.21-.78-1.74-1.11v-.31a8.7,8.7,0,0,0,.89-.15.53.53,0,0,0,0-.43.69.69,0,0,0-1.1.45l-.58.13a.85.85,0,0,1,.23-1.3l-.94-1.54c.14,0,.2,0,.24,0a2.34,2.34,0,0,0,2.1.25c.33-.08.42-.32.18-.56a1.08,1.08,0,0,0-.57-.27c-.68-.09-1.37-.15-1.87-.2l-.28-.66,0-.31.45.06.33-.11h.08l-.1.54h.56c.61.51,1.36.36,2.06.41.15,0,.32-.14.49-.22l-.35-.42,0-.11c.07-.12.13-.24.19-.37l.59.12a3.24,3.24,0,0,0,.49-.45c.07-.1.14-.31.09-.38a1.94,1.94,0,0,0-.45-.35c-.13-.58-.22-.62-.71-.36l-.1.74-.38.11a.43.43,0,0,1,0,0,.3.3,0,0,0,0-.1c.11-.41.12-.79-.32-1l-.32-.19c-.31-.74-1.27-.61-1.68-1.23-.05-.07-.27,0-.41-.05a.91.91,0,0,0-.7-.88l-.58.63-.06-.18L-43,22l1.25-1.24.4.17.55.16h.17l.18.27,0,.21c-.2.3,0,.33.24.33.57.38.65.37,1-.17l.18-.27.22-.4.77.5.62.57,1.4,2.86-1.22-.27a1.33,1.33,0,0,0,1.07,1.08c.12.27.17.62.3.65.38.1.9.24,1.16.05.57-.4,1,.17,1.54,0,.23,0,.39,0,.52-.26.22-.42.49-.81.69-1.14a5.08,5.08,0,0,0,.72.57,8.76,8.76,0,0,0,.91-1c.45.21.44-.15.43-.45.11,0,.25.1.34.07A1.85,1.85,0,0,0-29,22.85a2,2,0,0,0-.3-.46c-.09-.12-.19-.28-.31-.31s-.24.1-.35.17-.3.24-.44.35a1.09,1.09,0,0,0,.08-.31,5,5,0,0,0-.08-.54,2.41,2.41,0,0,0-.54.16,2.54,2.54,0,0,0-.44.37l-.25-.61c-.37.21-.36.55-.31.92l.44,0-.22.48,1.21-.22c-.11.26.15.71-.42.77.12-.51-.25-.5-.5-.39a3,3,0,0,0-.8.66,3.22,3.22,0,0,0-.41.56l-.18-.09c0-.14,0-.34.05-.42a2.29,2.29,0,0,0,.48-2.05,6.32,6.32,0,0,0-.24-.85h-.2a2.51,2.51,0,0,1,.33-.4c.36-.31.27-.52-.07-.78-.15-.12-.17-.39-.26-.58s-.17-.42-.3-.45a1.21,1.21,0,0,0-1.42,1.13c0,.34,0,.67,0,1-.17,0-.24,0-.27,0a.62.62,0,0,0-1,0c-.07.08-.23.08-.35.11v-.42c.13-.1.38-.19.38-.3a13.59,13.59,0,0,0,0-2.3,1.67,1.67,0,0,0-1-1.43c-.54-.23-.83.11-1.12.46l-.3-.49-.26.38-.2,0a1.51,1.51,0,0,0-.24-.36c-.51-.42-.55-.66-.18-1.2a2.19,2.19,0,0,0,.13-.19c-.2-.27-.47-.47-.46-.66,0-.62.61,0,.87-.42l-.59-.29c.18-.15.52-.35.5-.43-.17-.56.28-.78.46-1.16a2.81,2.81,0,0,1,1.52-1.17,2.43,2.43,0,0,0,1.23-1.34A6.65,6.65,0,0,0-35.07,9l.66.16.28.56L-34,9.7V9.19a.07.07,0,0,1,.07-.06l.34.28-.68.73-.18-.1c.07.35.16.69.2,1,0,.1-.11.22-.17.34l-.05,0,0,0v.12l-.59.35-.26.09.15.22-.71,1.38.58.27c.13.07.33.14.37.25.13.4.63.71.36,1.23,0,.06,0,.17.09.25a3.4,3.4,0,0,0,2.47,1.92c.46.06.88.23.92-.48,0-.12.18-.22.25-.34s.25-.34.22-.46a1,1,0,0,1,.4-1c.24-.22.43-.49,0-.76l-.23-.06-.22.09-.23-.24c0-.31-.12-.69.29-.91,0,0,0-.29-.05-.42a6.79,6.79,0,0,1-.35-.95c-.11-.72-.41-1-1.14-1a3.07,3.07,0,0,1-.58-.1,2.29,2.29,0,0,0-.37,0c-.54,0-.67-.1-.56-.62,0-.14,0-.28.07-.41l.83-.24.05-.16c-.17-.12-.35-.21-.51-.34a2.24,2.24,0,0,1-.27-.34H-33l.57.24c.05.23,0,.54.16.68s1.2.08,1.52-.3L-31.36,9l-.22-.59.33-1L-32,7l.1-.32.22-.31.13-.11h0c.53-.29.62-.61.32-1.14h0c-.18-.14.47-.49-.13-.53a.1.1,0,0,0-.09,0V4.4h.05l0,0,.45-.21-.4-.77.64-.55a4.52,4.52,0,0,0-.58-.5,8.84,8.84,0,0,1-.93-.44,3.25,3.25,0,0,0-2.24-.71c-.1,0-.2-.11-.29-.1-.57,0-.63-.3-.58-.72s.15-.64.16-1c0-.67.4-.85,1-.87l.52-.42-.43-.2-.19-.3-.37.28c0-.13-.06-.26-.1-.4l.77-.47a.43.43,0,0,0,.18-.23c0-.36.47-.71.06-1.1l.2-.22L-32.19-3c-.24.28-.52.55-.33,1a2.55,2.55,0,0,0,1.89,1.5,2.34,2.34,0,0,1,.71.21c.41.27.66.2.82-.25l.43.27a3.34,3.34,0,0,0-.1.62c0,.42.95,1.34,1.36,1.35.06,0,.12-.09.19-.14.14.37.32.63.72.27a6.1,6.1,0,0,0,.82.79,1.62,1.62,0,0,0,.68.12,3.15,3.15,0,0,0,.5.68c.4.3.84.54,1.27.81-.44.37.11.64.1,1h0l-.37.25.06.14-.94.06-.19.48c-.78-.15-.85-.07-.69.66a2.09,2.09,0,0,1-.08.59,1.36,1.36,0,0,0,0,.35l-.8-.13c-.13-.48-.25-1-.38-1.44,0,0-.09,0-.13-.08v-.2h0l.08-.12a1.11,1.11,0,0,0-.9-.77c-.81-.23-1.62-.51-2.44-.75a.57.57,0,0,0-.45,0c-.07.07-.06.3,0,.43.09.35.22.69.33,1l.07.4L-29.8,6l.62.14-.08.36-.76,0-.12,0-.12.33,0,.6c0,.27-.21.64-.09.81s.58.23.93,0A1.89,1.89,0,0,1-28.57,8C-28,8-27.35,8-26.73,8l-.36.65c-.34-.42-.34-.42-1,.06l.26.41c-.31.13-.59.23-.86.37-.67.36-1.77.33-1.49,1.59,0,0-.05.07-.05.09,0,.19,0,.46.11.54a.73.73,0,0,0,.61.09c.38-.14.73-.38,1.1-.56a1.67,1.67,0,0,1,.49,0l-.6.68c.8,0,.69-.9,1.25-1.14.06.09.12.18.17.27l.8-.43c-.46-.4,0-.56.18-.78a4.72,4.72,0,0,0,.24.56c.17.27.36.52.54.78l-.2.52c-.12.46.21.78,1.06,1.08l.46-.28.15.53a3.06,3.06,0,0,0,.36-.35c.19-.35.36-.71.53-1.07l.66-.16.36.46c-.12.48-.23.95-.34,1.44,0,0-.17,0-.21.07s0,.32,0,.34.27,0,.41,0c0,.24.05.48.08.86.83-.68,1.27-.08,1.79.43l.38-1.46,1.64,1.34c.19-.12.44-.39.67-.38a8.61,8.61,0,0,1,1.41.29l-.17.58-.56,0,.43,1.05.49-.25,2.3-.42V14.08c-.35,0-.51.25-.57.61a.48.48,0,0,1-.33.32c-.15,0-.32-.08-.49-.14a3.68,3.68,0,0,0,.21-.45,4.68,4.68,0,0,0,.1-.54c-.63,0-.42-.55-.55-.89l-.36-.06,1.53-.31a1.65,1.65,0,0,0,.47-.08A2.31,2.31,0,0,1-12.13,12c.12,0,.32-.18.38-.33.3-.72.56-1.45.86-2.24l.39.49.17-.1c-.07-.17-.14-.35-.22-.52s-.12-.16-.16-.25c-.16-.33-.31-.67-.47-1,.06-.06.1-.16.17-.17.35-.06.68.14,1,.16a12.68,12.68,0,0,0,1.68-.14V7.24l.22-.12.54,0a5.82,5.82,0,0,0,1.16.18c.1,0,.18-.42.27-.64l.83-.24A1.5,1.5,0,0,0-4.17,8l-.67-1.65.17-.17a2.31,2.31,0,0,0,.59,0c.14,0,.24-.18.36-.27a.1.1,0,0,0,.05,0s0,0,.06,0l.57-.2.27-.08.49.29a2.87,2.87,0,0,0-.66.27A.75.75,0,0,0-3,6.5c.54.16,1.09.31,1.67.46a1.5,1.5,0,0,0-.18.38A1.37,1.37,0,0,0-1.61,8c0,.08.37.05.54.12s.42.21.43.33a5.12,5.12,0,0,1-.11.94L-1,8.81l-.14,0a1,1,0,0,0-.07.44c.13.44.33.87.47,1.32a3.39,3.39,0,0,1,.06.64c0,.13.06.25.09.37.1-.1.26-.17.3-.29s-.07-.4,0-.51A2.08,2.08,0,0,0,.25,9.61c0-.17.26-.35.4-.52l.14.09L.46,10.29l-.11.44.11.09.32-.39.54-.65,0,.46.17,0-.09-.58,1-1.21L2.91,9c-.1.17-.36.53-.3.6a2.43,2.43,0,0,0,.76.45c-.27.16-.43.31-.11.61.13.11.08.43.11.65l-.2.12L3,10.9c-.59.68-.7.67-1.13.08a1.72,1.72,0,0,0-.34-.24l-.1.11.3.48c-.55.2-.55.21-.23,1.17a1.39,1.39,0,0,0,.22-.15c.36-.49.9-.42,1.4-.44a6.8,6.8,0,0,1,.9.06L4,12.61,3,12.9v.15l.35.2-.54.57-.07-.75-.54.2-.31-.19-.06.08.18.21a5,5,0,0,0-1,.8c-.47.67-.83,1.42-1.26,2.12a2.36,2.36,0,0,1-.49.45l-.11-.12.19-.53L-.78,16l-.67.85-.18.12-.24,0c0-.08,0-.16,0-.24s0-.27,0-.41a2.69,2.69,0,0,0-.27.32c0,.05,0,.14,0,.21l-1.3.46,0,.13,1.15.35,0,.18-3.36,1.14.12-.64-1.75.28-.06-.1.62-.66c-.31-.16-.64-.31-1-.48A2.14,2.14,0,0,1-8,17.24l.5-.38.11.46,1.37-1-.68-.05A2.26,2.26,0,0,1-5.94,16c.83.07.82.1,1.11-.7,0-.15.19-.26.26-.4a4.76,4.76,0,0,0,.19-.53c.67,0,.43-.51.43-.87,0-.18,0-.37,0-.55s0-.26,0-.39h-.44l-.13,0h-.24l-.19-.09c-.25-.39-.06-.65.25-.87s.65-.4,1-.63a1.25,1.25,0,0,0-.13-2v.88c-.82.49-.85,1.77-1.94,2l-.6-.11a2,2,0,0,0-.1.63c.15.71.06,1.49.66,2.07.12.13.12.38.18.57l-.16.07c-.24-.37-.47-.74-.72-1.11A1.31,1.31,0,0,0-8,13.37c-.21.11-.46.13-.68.22s-.49.22-.49.33a7.91,7.91,0,0,0,.2,1.2l-.62.21c.41.72.5.71,1-.05.19.06.43.24.55.18.55-.26.86.16,1.25.35h0l-.22.33.33.1-1.06.48c-.45-.13,0-.94-.81-.81l.33.68c-.68.09-1.29.15-1.9.26a3.29,3.29,0,0,0-.68.26c-.08,0-.16.13-.23.12-.89-.18-1.4.45-2,.94-.27.22-.28.43,0,.62l.85-.22c-.38,1-.38,1,.15,1.07,0,.18,0,.35.05.56.44,0,.83.13,1.18-.27s.61-.24,1,0L-10.9,21.3l.11.13.54-.21A1,1,0,0,0-8.66,22a10.71,10.71,0,0,1,1.25-.32c-.26.39-.37.76-.93.59a.62.62,0,0,0-.57.21,11.39,11.39,0,0,0-.5,1.55l1.15-.8c.16.84.3.88,1,.35.39-.31.84-.54,1.2-.87.55-.5,1-1,1.56-1.57,0,0,0-.16,0-.29l-.45.23c0-.73.29-1.21.71-1.32a2.49,2.49,0,0,0,0,.82c0,.09.49.15.62.05a8,8,0,0,0,1.17-1.16c.23-.28.42-.53.88-.47l-.46,3.3h.66c-.11.22-.16.46-.28.51-.72.3-.79,1.06-1.17,1.6l-.1.24-.1.14-.59,1.08.17.1c.28-.26.68-.45.53-1l.38-.12v2.44l.56-.18-.17,1a3.42,3.42,0,0,0-.64,0,1.06,1.06,0,0,0-.6.21,3.12,3.12,0,0,0-.41.74l-.83.25,0,.19-.15-.4c.13-.39.25-.79.39-1.23a2.25,2.25,0,0,0-1.49,2.22C-5.94,30.17-5.78,30.21-5.7,30.27Zm-4.7-19.51-.37-.23-.16.73.19.05.34-.56a1.38,1.38,0,0,0,2,1,.48.48,0,0,0,.21-.4,13.61,13.61,0,0,0-.57-1.81c-.06-.16-.4-.19-.61-.28,0,.23,0,.45,0,.68s.06.49.09.74l-.69-.15Zm-3.2,13.49-.11-.12c.12-.46.25-.92.34-1.39a1.73,1.73,0,0,0-.06-.49,1.9,1.9,0,0,1,.67,0,10.19,10.19,0,0,1,1.13.59l-.44.18a.7.7,0,0,0,.5.18c.36,0,.71,0,1.06,0A1.32,1.32,0,0,0-10.1,23c-.11-.09-.22-.19-.34-.27s-.41-.23-.39-.3c.11-.51-.26-.69-.62-.89l.29-.47-.08-.18-1.51.41-.08-.19c.26-.14.53-.21.66-.39a.56.56,0,0,0-.14-.54,1.57,1.57,0,0,0-.66.09l-.32.06c-.5.07-.65.28-.57.84l.43-.14.12.11c-.22.32-.33.83-.76.88s-.46.3-.55.62l.51.15c-.15.44-.26.88-.92,1,0-.26.09-.44.11-.62,0-.36.21-.81.06-1.05A1.48,1.48,0,0,1-15,20.73c0-.14-.14-.41-.28-.52s-.34.12-.48.24-.16.24-.26.34-.21.18-.25.16a.43.43,0,0,1-.21-.27,5.4,5.4,0,0,0-.1-.92.8.8,0,0,0-.49-.45.62.62,0,0,0-.48.39A6.47,6.47,0,0,0-17.41,21a1.32,1.32,0,0,0-.89,1.36c0,.08-.15.16-.19.25a2.09,2.09,0,0,0-.13.49c0,.12.07.3,0,.36a2.22,2.22,0,0,0-.77,1.87c0,.08-.1.16-.13.24s-.07.26-.11.39l.55.08a2.22,2.22,0,0,0-.29.69c0,.1.23.3.37.32a2,2,0,0,0,.92-.08,2.87,2.87,0,0,1,1.67,0,2.19,2.19,0,0,0,1.7-.22c.18-.12.37-.21.5-.29l.37.5c.12-.13.25-.25.36-.39s.2-.34.34-.57l.45,2.28.71-.9c.06.31.07.53.13.73s.14.25.23.26a.35.35,0,0,0,.29-.18,2.7,2.7,0,0,0,.08-.57c0-.14,0-.38,0-.4.45-.18.37-.55.4-.91a4.78,4.78,0,0,1,.17-.82c.11-.43.25-.85.35-1.29,0-.06-.16-.16-.18-.18,0-.21.06-.45,0-.51a.76.76,0,0,0-.5,0,6.08,6.08,0,0,1-1.29.32A1.58,1.58,0,0,0-13.6,24.25Zm-10.88-5.84c0,.42.35.25.58.37.51.25.62,0,.8-.37a1.22,1.22,0,0,1,.46-.44,7.48,7.48,0,0,1,.8-.39l.4,1.14A1.22,1.22,0,0,0-21.66,17c-.14-.13-.14-.41-.23-.61s-.23-.45-.34-.68c-.19.17-.37.35-.56.51a4.87,4.87,0,0,1-.43.33l.06-1a6.53,6.53,0,0,0-1,1c-.43.47-.94.88-1,1.58a5.44,5.44,0,0,0,0,.57ZM-26.4,15.8a.79.79,0,0,0,0-.22c-.06-.25-.14-.5-.21-.74-.25.12-.51.23-.75.36-.08.05-.11.15-.18.21A6.27,6.27,0,0,0-28.82,18a2.46,2.46,0,0,0,0,.72,2.43,2.43,0,0,0,.77-.08C-26.85,18.08-26.6,17-26.4,15.8Zm-3.08,5.94c.62.49,1.08.76,1.48,0,0,0,.09,0,.15-.06a1.69,1.69,0,0,0,1.18-1.66A.9.9,0,0,0-28,19.19a1.48,1.48,0,0,0-.64.57C-29,20.41-29.21,21.1-29.48,21.74Zm25.27,2.45c-.44-.18-.7-.4-.91-.36a4.11,4.11,0,0,0-2.3,1.53,2.59,2.59,0,0,0-.41.77.44.44,0,0,0,0,.39,1.35,1.35,0,0,0,1.33-.1ZM-24,20l-.37,1.18.16.09c.5-.52,1-1,1.47-1.55a4.38,4.38,0,0,0,.45-.75.57.57,0,0,0-.21-.87l-.9,1.33-.51-.48a6.39,6.39,0,0,0-.58.67c-.07.11,0,.29,0,.44Zm20.68-4.82a2.11,2.11,0,0,0-.37.15,4.06,4.06,0,0,0-.36.26,2,2,0,0,0,.34.27,3.15,3.15,0,0,0,.9.19.85.85,0,0,0,.68-.24c.11-.17,0-.5,0-.73a3,3,0,0,0-.33-.54.7.7,0,0,0-1-.3c-.2.15-.26.47-.38.72ZM-8.67,25c-1.08-.09-1.54.42-1.92,2.13a3.25,3.25,0,0,0,.83-.3,3,3,0,0,0,.65-.8A8.18,8.18,0,0,0-8.67,25Zm1.33-14.41c.31,0,.51-.11.42-.53A1.4,1.4,0,0,0-8,8.93c-.12,0-.43.19-.47.34C-8.58,9.71-7.83,10.56-7.34,10.57ZM-9.5,12.63l-.08-.15c-.55.16-1.16,0-1.64.43a1.14,1.14,0,0,0-.31.5c0,.1.13.34.22.34a2.17,2.17,0,0,0,1.54-.64C-9.63,13-9.58,12.79-9.5,12.63Zm-10.73,4.82c.1-.47.74-.37.6-.91a9.39,9.39,0,0,0-.18-.95.56.56,0,0,0-.33-.38.52.52,0,0,0-.38.31A2.22,2.22,0,0,0-20.23,17.45Zm6.65.57.16.11c.15-.12.3-.23.44-.36s.43-.39.64-.59.32-.36.48-.54l-.79.07a.39.39,0,0,0-.14.08c-.21.15-.4.32-.66.08,0,0-.26,0-.26.05a.44.44,0,0,0,.06.32c.05.07.18.08.27.12ZM-34.7,16.24c0,.09-.19.28-.15.35a15.14,15.14,0,0,0,1,1.26.74.74,0,0,0,.4-.27C-33.38,17.21-34.2,16.26-34.7,16.24Zm28-3.34a8.43,8.43,0,0,0-.57-.84c-.14-.16-.39-.38-.53-.35-.6.16-.28.69-.33,1.07,0,.07.17.25.26.25C-7.49,13-7.14,13-6.68,12.9Zm1.94-4.38a14.85,14.85,0,0,0-1.5.4c-.11,0-.17.3-.19.47s.15.21.24.23C-5.78,9.72-4.87,9.06-4.74,8.52Zm-8.76,7.69.13.12a1.22,1.22,0,0,0,.94-.85c0-.17-.29-.45-.48-.71-.38.36-.45.62-.06.87ZM-1,15.27l.15.06c.06-.18.12-.36.19-.54s.1-.25.15-.37L-.25,14a1.3,1.3,0,0,0-.48-.16.93.93,0,0,0-.4.16ZM-30.29.53c-.07-.75-.69-1.09-1.66-1C-31.57.15-30.87.14-30.29.53Zm3.77,20.77c-1,.41-1.33.77-1,1.35C-27.2,22.21-26.59,22-26.52,21.3ZM-2.9,8.45l1-.79L-2,7.44a1.87,1.87,0,0,0-.68.11C-3,7.71-3.12,8-2.9,8.45ZM-8.09,29l.16.09L-7,27.41l-.17-.09A2.75,2.75,0,0,0-8.09,29Zm-30.42-5.33a7.44,7.44,0,0,0-.66-.46s-.26.22-.24.26a9,9,0,0,0,.46.79Zm15.27-10.22.23.11c.21-.36.42-.71.61-1.08,0,0-.05-.16-.12-.21a.23.23,0,0,0-.19.05C-22.89,12.68-23.06,13.06-23.24,13.44Zm-2,3.69c-.49,0-.54.38-.56.66a2.2,2.2,0,0,0,.21.71l.19,0Zm-.9-3.55-.36.3c.17.16.32.38.52.45s.3-.21.46-.32Zm11.79,5.65.2.24.65-.4c-.17-.07-.35-.22-.52-.2S-14.21,19.1-14.32,19.23ZM-29.29,9l.06.17a3.62,3.62,0,0,0,.47,0A5.29,5.29,0,0,0-28.22,9s0-.18,0-.18a2.51,2.51,0,0,0-.61,0A1.76,1.76,0,0,0-29.29,9Zm19.39-.6c-.52.46-.49.66.14,1ZM-38,23.05c-.1.21-.21.36-.17.41a3.92,3.92,0,0,0,.46.45c.06-.08.19-.21.17-.25A6.48,6.48,0,0,0-38,23.05ZM-15,21.5c.44.32.63.13.77-.12,0-.06-.06-.2-.1-.31ZM3.16,12.32l-.1-.15-.41.32.09.11Zm-37.89-.92c-.09-.08-.14-.15-.2-.15s-.12.08-.12.12a.21.21,0,0,0,.13.13C-34.87,11.51-34.81,11.45-34.73,11.4Z"/><path class="cls-4" d="M-2.17,28.14l.17-1-.56.18V24.9l-.38.12L-3,24.83l.1-.14.1-.24c.38-.54.45-1.3,1.17-1.6.12-.05.17-.29.28-.51h-.66L-1.6,19c-.46-.06-.65.19-.88.47a8,8,0,0,1-1.17,1.16c-.13.1-.59,0-.62-.05a2.49,2.49,0,0,1,0-.82c-.42.11-.7.59-.71,1.32l.45-.23c0,.13.07.25,0,.29-.51.53-1,1.07-1.56,1.57-.36.33-.81.56-1.2.87-.68.53-.82.49-1-.35l-1.15.8a11.39,11.39,0,0,1,.5-1.55.62.62,0,0,1,.57-.21c.56.17.67-.2.93-.59A10.71,10.71,0,0,0-8.66,22a1,1,0,0,1-1.59-.82l-.54.21-.11-.13L-9.84,20c-.37-.27-.73-.31-1,0s-.74.27-1.18.27c0-.21,0-.38-.05-.56-.53-.09-.53-.09-.15-1.07l-.85.22c-.24-.19-.23-.4,0-.62.58-.49,1.09-1.12,2-.94.07,0,.15-.08.23-.12a3.29,3.29,0,0,1,.68-.26c.61-.11,1.22-.17,1.9-.26l-.33-.68c.76-.13.36.68.81.81l1.06-.47h0l.68.05-1.37,1-.11-.46-.5.38a2.14,2.14,0,0,0,.32.28c.32.17.65.32,1,.48l-.62.66.06.1,1.75-.28-.12.64L-2.28,18l0-.18-1.15-.35,0-.13,1.3-.46.32.12.24,0a1,1,0,0,0-.23.81c0,.21-.28.48-.49.8a.94.94,0,0,0,.73-.69,2.29,2.29,0,0,1,.51-.64l1.35.27v.22L-.31,18l.28.18c-.23.78-.8-.17-1.11.25.46.57.75.54,1.21,0,.18-.21.54-.26.82-.39a2.5,2.5,0,0,1,.49,1.75.7.7,0,0,1-.41.37,3.28,3.28,0,0,1-1,0c-.25,0-.58,0-.49.28a1.61,1.61,0,0,1-.12,1.29c-.06.13,0,.35.06.52l.21,1.05.15.86.19.07.38-.65.18.09c0,.21-.08.46,0,.63.2.42.19.68-.53.7l1,.75a2.56,2.56,0,0,1-.1-.72,3.62,3.62,0,0,1,.33-.65c.09.17.27.35.25.51-.06.49-.19,1-.29,1.48h0L.57,26c-.43.23-.24.68-.16,1.1,0,1-.31,1.21-1.27,1.46a1.5,1.5,0,0,1-1.22-.15h0l-.11-.29Zm-.2-3.42.28-.4-.13-.09c-.09.13-.17.27-.25.41l0,.16Zm-4-2.91-.64.61.2.16c.16-.25.33-.49.49-.73l.44-.39L-6,21.35Zm-1.68-4.19-.08-.17c-.29.19-.72-.25-1,.27l.51.41Zm1,5,0,0v0Z"/><path class="cls-11" d="M.24,17.78v-.22l.09-.11a1.62,1.62,0,0,1,1.35.17.67.67,0,0,0,1-.05A3.2,3.2,0,0,0,3,17l.15,0L3,17.88,3.3,18l-.58.8.68.4-.06.11-.78-.26-.32.83.39.65,0,.11,0,.21c-.29-.2-.56-.5-1.09-.1.76.19,1.28.5.86,1.3l-.23.27c0-.16-.14-.37-.07-.46.24-.3,0-.46-.19-.45a7.82,7.82,0,0,0-1.16.2l0,.14.69.15-.6.19c.13.28.26.57.42.84,0,0,.34-.05.35-.1a3.33,3.33,0,0,0-.11-.67l.88.79.79.22c.21-.08.43-.25.6-.21.54.15.46-.11.35-.43l.93.13c-.13.2-.27.39-.41.58l.11.08-.4.11a3.52,3.52,0,0,0,0,.47,1.4,1.4,0,0,0,.09.62,3.15,3.15,0,0,0,.5.55l.72-.38v.2L5.45,25l.15.13.12-.25c.62-.15.7-.26.54-.76l.25-.34.41-.31.33,0,.19.19.11-.46a.1.1,0,0,1,0-.07L7.67,23l.1-.54.15.44.76-.28.38.56a.69.69,0,0,0-.18,1,2.29,2.29,0,0,1,.06.75l-.19,0-.2-.22c-.11-.13-.23-.25-.34-.37-.13.16-.36.31-.37.48a.72.72,0,0,1-.41.63c-.3.18-.5.45-.09.77a2.23,2.23,0,0,1,.26.27c-.36.28-.44.25-.63-.11a3,3,0,0,0-.47-.55l-1.27-.22s-.07,0-.08.06c-.23.78-.87.41-1.32.42S3.2,26,3,26.44c0,.07-.22.07-.33.1L2.36,26,2.2,26v1.43a.14.14,0,0,1,0,.09H1.64a.89.89,0,0,0-.42-1.11c.1-.49.23-1,.29-1.48,0-.16-.16-.34-.25-.51a3.62,3.62,0,0,0-.33.65,2.56,2.56,0,0,0,.1.72l-1-.75c.72,0,.73-.28.53-.7-.09-.17,0-.42,0-.63l-.18-.09L0,24.31l-.19-.07-.15-.86-.21-1.05c0-.17-.12-.39-.06-.52a1.61,1.61,0,0,0,.12-1.29c-.09-.32.24-.3.49-.28a3.28,3.28,0,0,0,1,0,.7.7,0,0,0,.41-.37,2.5,2.5,0,0,0-.49-1.75C1,17.42.5,17.8.24,17.78ZM1.55,23l-.15.11a5.2,5.2,0,0,0,.59.46c.07,0,.21,0,.32-.05s0-.33-.1-.36A3.53,3.53,0,0,0,1.55,23Zm1-5.11H1.22C1.78,18.56,2.18,18.55,2.58,17.93ZM.5,23.25a.78.78,0,0,0,.27-.85c0-.07-.17-.08-.26-.12,0,.24-.07.48-.09.72A1.12,1.12,0,0,0,.5,23.25Z"/><path class="cls-5" d="M1.22,26.45a.89.89,0,0,1,.42,1.11H2.2l1.14-.09c-.61.73-1.33.86-1.79.41l-.63.29c-.21-.33-.37-.62,0-.93.07,0,0-.23.05-.35l.22-.45Z"/><path class="cls-5" d="M2.2,27.47V26L2.36,26l.35.56A.81.81,0,0,1,2.2,27.47Z"/><path class="cls-11" d="M1.22,26.44,1,26.89l-.59.22c-.08-.42-.27-.87.16-1.1Z"/><path class="cls-6" d="M9.06,23.19l-.38-.56-.76.28-.15-.44v0L8,22.35c.08-.21.15-.42.23-.64s0-.3.13-.39c.45-.5.44-.57-.19-.79-.26-.08-.66-.06-.54-.55,0,0-.46-.28-.57-.21a2,2,0,0,0-.47.65c-.23.37-.43.76-.66,1.12a5.18,5.18,0,0,1-.47.58l-.38.54-.93-.13L3.76,22l.08-.12a2.25,2.25,0,0,0,.44.14c.2,0,.41,0,.61,0-.06-.16-.12-.33-.19-.48s-.16-.29-.24-.43a2,2,0,0,1,.59.14c.1,0,.32-.05.34-.12.1-.34.14-.7.21-1.05l0,0,.46,0c.13-.76,0-1-.64-1.13s-1.12-.34-1.69-.51a5.53,5.53,0,0,1,1.6-.34,8.66,8.66,0,0,0,1.14,0c.23,0,.43-.29.65-.45-.2-.21-.37-.52-.61-.59A5.48,5.48,0,0,0,5.46,17c-.4-.05-.78-.15-1.17-.23H6.06a1.26,1.26,0,0,0-1.34-.65l.21-.54-.54-.08c-.11,0-.23,0-.34,0l-.53,0h0l-.12-.69c.22-.14.43-.26.62-.39s.61-.56,1-.61a3,3,0,0,0,1.83-1,2.43,2.43,0,0,0,0,.27c0,.12,0,.23,0,.34a2.32,2.32,0,0,0,.36-.16c.07,0,.11-.12.07-.07l.74,0a4.71,4.71,0,0,1-.33-.45,3.8,3.8,0,0,1-.18-.47L8.17,12c0,.18,0,.27,0,.31s.34.36.51.53L9,12.51c.15,0,.39,0,.43.07a1.35,1.35,0,0,0,1.26.7c.73.09.77.09,1-.67,0-.11.17-.2.26-.3.09.09.27.19.26.27-.05.58.44.81.71,1.18a5.25,5.25,0,0,0-.11,2.52,3.7,3.7,0,0,0,.45,1,2,2,0,0,0,.17-.33c0-.42-.07-.92.49-1.13,0,0,0-.26,0-.39l-.09-.82c.11.19.28.36.3.55.07.61-.07,1.28.71,1.65,0-.19,0-.36,0-.53a3.85,3.85,0,0,1,.1-1.33,2.43,2.43,0,0,0,0-1.89c0-.17.11-.4.17-.61.06.35.12.7.19,1.05s.14.75.22,1.12l-.1,0,.23.47c-.24,0-.51,0-.33.38a.48.48,0,0,1,0,.35,3.94,3.94,0,0,0-.5,2.23c-.22-.36-.4-.3-.56.05a4.35,4.35,0,0,1-.29.52,2,2,0,0,0,.24,1.82,7.67,7.67,0,0,0,.49-1.16,7.24,7.24,0,0,0,.11-1.24,7.76,7.76,0,0,0,.13.82c.09.31.12.73.65.57-.1.63-.15,1.26-.29,1.87-.1.42-.08,1-.76,1-.06,0-.12.17-.18.26l-.23,0-.62.44,0,0-.09-.4,0-.59-.35.35-.4-.71c-.18,0-.35.18-.18.53a.67.67,0,0,0,.91.41l-.91.72L12,23.14c.24-.94-.57-1.34-1-1.95-.8.86-1.26,1.23-1.17,2.67C9.59,23.57,9.59,23,9.06,23.19ZM9.33,18A1,1,0,0,0,8,17.67c-.13.1-.15.32-.22.48.15.06.32.19.46.17.38-.08.75-.22,1.13-.33l.19.53a1.78,1.78,0,0,0-.55.13c-.19.11-.46.27-.48.44a1,1,0,0,0,.25.72c.48.48,1,.9,1.54,1.35.27-.28.89-.48.44-1.17.68.12.79,0,.62-.57,0-.07,0-.15,0-.22.36,0,.46-.23.33-.5a10.52,10.52,0,0,0-.74-1.25,1.46,1.46,0,0,0-.41-.32,2.66,2.66,0,0,0-.33.56c0,.13.06.31.1.47l.1-.11a2,2,0,0,1,.51.33,4.32,4.32,0,0,1,.34.72L10,18.48v-.65ZM7.21,19.08l.09.19.88-.1-.29-.67Zm-2.1-4.62.1.31c.24-.08.48-.14.71-.24a2.21,2.21,0,0,0-.09-.36Z"/><path class="cls-11" d="M11.25,24.71l-.5.2-.86-.11a2,2,0,0,1,.55-.3,3.4,3.4,0,0,1,.78,0A1.23,1.23,0,0,1,11.25,24.71Z"/><path class="cls-6" d="M13.14,23.24a2.39,2.39,0,0,0,.22-.23l0,0-.19.25Z"/><path class="cls-6" d="M13.21,23.31H13.1l0-.08Z"/><path class="cls-7" d="M10.49,25.15l0,0,0,0,0,0Z"/><path class="cls-12" d="M15.57,15.16l-.23-.47.1,0c-.08-.37-.15-.74-.22-1.12s-.13-.7-.19-1.05a2.19,2.19,0,0,0,.2-.63,12.94,12.94,0,0,0-.13-1.77c0-.28-.26-.77-.38-.76a8.55,8.55,0,0,0-1.57.31.18.18,0,0,0-.09.14c0,.31,0,.63-.07,1a2.3,2.3,0,0,1-.16.46c0-.6-.55-1.11-.21-1.75,0,0-.1-.19-.14-.19a.4.4,0,0,0-.27.14.89.89,0,0,0,.29,1.41l-.3.64.11.11.53-.37a5.85,5.85,0,0,0,.35,1.17c.38.73,1.08,1.36.54,2.3l.09.82-.25.33-.17,0c0-.57,0-1.14,0-1.72,0-.35-.23-.36-.49-.3-.27-.37-.76-.6-.71-1.18,0-.08-.17-.18-.26-.27-.09.1-.23.19-.26.3-.18.76-.22.76-1,.67a1.35,1.35,0,0,1-1.26-.7c0-.07-.28-.05-.43-.07H9v-.22h.05l.26-.23h0c.12.08.3.15.34.25.11.37.34.34.68.25l-.58-.82c.17-.34.56-.61.36-1.12l-.29.21-.09-.11c.06-.22.25-.6-.21-.48a2.18,2.18,0,0,0-1.71,1.42c-.5-.57.3-.92.25-1.42,0-.07.23-.17.35-.24L7.83,8.63l.66-.55V9.22a6.68,6.68,0,0,0,.7-.45c.35-.3.68-.33.87,0a4.4,4.4,0,0,0,.6.8c.11.1.38,0,.57,0-.05-.15-.06-.34-.16-.43a1.54,1.54,0,0,1-.54-1.24l.25-.2.3.57h.19L11.58,7a5.1,5.1,0,0,1-.62.06.63.63,0,0,0-.64.79H9.81l0-.18,1.09-1.27.83.19c.13-.24.18-.47.32-.55.43-.23.22-.37,0-.58s-.66-.26-.3-.74l-.78.39L10.87,5l.56-.34,0-.2c-.17,0-.42-.07-.49,0A.7.7,0,0,0,11,5.59l-.62-.14-.16.37-.16-.33-.19.06.2.79-.92-.75.39-.23-.65-.21.47-.54L10,4.23l.37.61.14-1c.2,0,.49-.17.7-.09.43.14.49-.07.49-.38a7.4,7.4,0,0,0-.08-.81l.6-1-.73-.35s-.05,0-.14-.11A8.22,8.22,0,0,0,11.69.2c0-.11-.11-.27-.17-.41l0-.37A3.33,3.33,0,0,0,12-1.06c.38-.55,1-1.1.58-1.83-.22-.41-.64-.7-.4-1.26,0,0-.18-.16-.31-.27l.32-.19.32-.71.13.61-.11.44v.56l.87-.24A2.38,2.38,0,0,0,13.73-2l1.18-.6c.44.5.49.5.92,0,.17-.19.37-.35.55-.52l.34.4V-4.25l-.28.14A13.1,13.1,0,0,0,16.51-6c-.06-.64.19-1.37-.38-1.91L16.68-8c-.13-.17-.26-.33-.4-.49s-.1,0-.15,0l-1.49-1.1a8.51,8.51,0,0,1-.76,1.21.92.92,0,0,0-.09,1.09c.24.62.52,1.25-.2,1.77a.54.54,0,0,0-.1.2L12.87-5l.07-1.54.25.73c.34-.56,0-.89-.15-1.38l-.1.4-.57-.13c-.55.52-.7,1.23-.16,1.48l-.2.52-.6-.64-.09-.23c0-.39,0-.78,0-1.17,0-.11-.12-.22-.19-.33l-.7-.23c.2-.34.42-.66.59-1s.22-.68.33-1c.06.2.13.39.19.58l.18.73h.18a9.31,9.31,0,0,0,.5-.93c.14-.33.22-.68.33-1l.14,0a7.55,7.55,0,0,0,.19.79.46.46,0,0,0,.77.26,1.43,1.43,0,0,0,.39-1.25c-.1-.31-.33-.65-.28-.94.17-.93.44-1.84.68-2.75a1.08,1.08,0,0,0-.35-1.26,1.68,1.68,0,0,0,0-1.78l0-.43h0l.18-.05a7.16,7.16,0,0,0,.19.8A6.52,6.52,0,0,1,15-16c0,.37.16.43.53.35a6.91,6.91,0,0,1,1.21-.07v.18a1.19,1.19,0,0,1-.23.07c-.38,0-.76,0-1.13,0-.12,0-.35.17-.34.22.08.34.12.78.36,1s.65.1,1,0a9.24,9.24,0,0,0,1.14-.56.66.66,0,0,0,.39-1c-.06-.14-.13-.28-.25-.53,1.06.07,1-.64,1-1.29,0-.41.09-.81.13-1.17a7.05,7.05,0,0,0,.72,1.52,9,9,0,0,0,1.41,1.19l.31-.07.32,1c.73-.65,0-1.21.1-1.76.64,0,.66,0,.59-.69l0,0c.11-.16.34-.32.32-.46-.09-.7-.24-1.39-.4-2.08a.54.54,0,0,0-.33-.33c-.41-.11-.51-.35-.5-.76s-.25-.63-.7-.4a1,1,0,0,0-.41.4c-.27.49-.51,1-.76,1.51l-.14,0,.07-.78L19.3-21l-.07-.15.06-.3,0-.11.45.61.09-.09v-1.3l-.54.67,0-.33,0-.22a2.7,2.7,0,0,0,0-2.07c-.05.28-.07.45-.11.62a3.88,3.88,0,0,1-.14.45l-.13,0c.06-.39.28-.82-.21-1.12-.37.35-.28.77-.24,1.18a.7.7,0,0,1-.13.42,2.94,2.94,0,0,0-.51,2c0,.08.06.23.1.23.6,0,.28.38.21.67a1.69,1.69,0,0,1-.48-.59c-.32-.72-.76-.95-1.35-.68.14-.33.26-.68.42-1,.28-.58.57-1.15.86-1.72l.13-.2c.32-.54-.17-.56-.46-.71h0l-1.69-.34v0c-.24-.34-.72-.74-.66-1,.14-.54-.1-1-.08-1.49,0-.24.11-.46.11-.69,0-1.11,0-2.21,0-3.32.52.11.78-.29,1.1-.58.1-.09.35-.19.41-.13s.26.34.21.44a1.72,1.72,0,0,1-.49.52c-.14.11-.39.13-.48.26a1.75,1.75,0,0,0,.19,2.29l.18-.57c.5,0,.84.16.84.72a5.1,5.1,0,0,0-.3.73c0,.12.09.28.14.42.11-.07.27-.12.32-.22a7.69,7.69,0,0,0,.28-.85c.2.14.42.28.61.43a2.24,2.24,0,0,1,.27.34L18.07-26h.13l.47-.62.22.66L19-26V-27l-.29.21a2.37,2.37,0,0,1,0-.41c.57-.08.3-.64.54-.9.18-.1.36-.2.55-.29a.58.58,0,0,1,.33-.07.35.35,0,0,1,.17.28c-.1.7.25.28.47.19a0,0,0,0,1,0,.05l.64.19.09-.24.13-.1.2-.13h.13c.15.43,0,1,.56,1.24a.08.08,0,0,0,.07.07v.22s0,0,0,0a.25.25,0,0,0,0,.07c.19.62.35,1.25.57,1.85.07.19.29.33.43.49l.17.08v.33l0,.33,1.46,1.85.18-.07v-1.76a3,3,0,0,1,.44.89c.12.32.2.66.33,1a.52.52,0,0,0,.34.28c.08,0,.29-.16.29-.26,0-.47,0-.94,0-1.42a2.62,2.62,0,0,1,0-.28c0-.17.05-.38,0-.51s-.31-.4-.48-.41a4.87,4.87,0,0,0-1,.17c.23-1.62-.65-3.09-.81-4.7a1.26,1.26,0,0,1,.31.53c.44,1.09.53,2.31,1.37,3.24.53.58.6.59,1.08,0,.78.25,1,.06.84-.76a11.59,11.59,0,0,1-.08-1.34l.47-.14c.18.76.38,1.51.53,2.27,0,.13-.08.41-.16.42-.88.17-.18.48-.1.68-.1.38-.2.71-.26,1s.25.54.65.55c-.63.55-.66.74-.3,1.11.18-.22.32-.56.56-.66.75-.32.76-.29.6-1.1l-.09-.48h0c.5-.14.35-.56.3-.84a13.14,13.14,0,0,0-.46-1.47,1.87,1.87,0,0,1,0-.5l.57.39c-.08-.33-.12-.51-.17-.67l-.75-2.07c.43-.2.15-.44,0-.63s-.26-.08-.4-.11l.18.52c-.36,0-.4.11-.34.49s-.21.7-.33,1c-.18-.79,0-1.71-.88-2.38l-.14,1.23L27-29l-.17.32-1.15-1.24c0-.09,0-.19.09-.29s.09-.23.14-.35a3.5,3.5,0,0,1,.24.3c.07.11.12.24.26.53.16-.33.38-.56.33-.7a3.38,3.38,0,0,0-.57-.77c.08-.1.19-.26.32-.4s.3-.3.45-.45l.44-.45.2.93c.78-.58.71-1.13-.7-1.54-.27-.82-.47-1.65-1.49-2.06.06.26,0,.57.15.62.35.16.36.5.5.76s.17.24.25.36c.19.27.37.54.65,1l-2.12,1,.2.87-.92-.6-.37.53.12-.16L23-31.54l-.22.32c-.11-.16-.18-.39-.29-.41-.94-.17-.5-.88-.58-1.4l.16-.09h.11l.49.35.18-.13-.35-.65L22.6-35l.13-.57,0,0-.05-.07c-.13-.35-.26-.7-.41-1s-.22-.47-.34-.7l-.13.08-.12.23-.38.28.29.33-.37.07-.18.1-.26.23.09.12-.47,0a.14.14,0,0,1,0-.09h-.21l-.09.41c-.28.11-.51.44-.87.23L19-35.8l-.33-.06L18.54-36l-.1-.1h-.23l-.11-.09h0L18-36.4V-37A.06.06,0,0,1,18-37l-.21,0-.12.22h-.3l-.34-.1-.24-.22-.11-.19-.31-.93h.44l0,0,0,0,0,0-.13-.21h0l-.17-.34,0-.18-.11-.15-.1-.1.16-.52-.3,0-.32-.86.35-.57c.3-.31.33-.58-.1-.8l-.22-.5h0l-.38-.29a2.68,2.68,0,0,1,.31-.73,1.44,1.44,0,0,1,.55-.31L16-44.4l.26-.77.76-.22.19.93-.11-.06c-.14.22-.39.43-.4.65,0,.38.34.34.61.33l.14.27-.1.41.13-.09.62.86h-.77l.6.64,0,.23,0,.33.3.3.05.69-.09.21-.05.22v.18l.19.1.22-.18h.25l.1.13h0l.36.23.09.51-.08.09.1-.08,0,0,0,0a.12.12,0,0,0,0,.09l.4.79.18,0-.07-.37a.17.17,0,0,1,0-.1l.14-.14h.5c.07.11.14.22.2.33l.14-.13-.33-.2.12-.42.11-.46.34,0,1.39.17V-39h-.78v-1h0l.23-.05,0,0,.19-.11.22.46.48-.27c.11.31.19.63.33.93a.72.72,0,0,0,.39.31c.08,0,.21-.1.31-.14l.61.88.16-.12-.4-.69.09-.1.88.28c.21-.62.2-.72-.23-2.07L25-41h0l.46-.15-.54-.35.3-.16c.17,0,.38,0,.51,0,.51-.32.34-.75.15-1.18l.34-.42.16-.45.29.65.09-.1A5,5,0,0,0,27-46.87c-.08-.37-.24-.67-.79-.35A3.54,3.54,0,0,0,26-50.3l-.35.56L24.78-50a1.22,1.22,0,0,0,.47-1.7c-.06-.12-.5,0-.76-.06.1-.12.19-.34.29-.34.4,0,.35-.34.44-.55a5.74,5.74,0,0,0,.19-.64l-.52-.06a6.47,6.47,0,0,0,.76-3.26h.22L26-56l.13,0v-1.37h0l.42.2c.12-.25.35-.51.32-.73a7,7,0,0,0-.44-1.24c0-.08.11-.17.1-.24-.05-.33-.13-.65-.19-1a7.23,7.23,0,0,0-.38-4.08l-.38.47-.43-.31-.69-1.68.37-.64c.2.25.29.44.44.51s.27-.1.33-.13l.12.38h.09v-1.53h0c.08-.22.22-.31.45-.22h0c0,.22.05.43.1.64.18.74.37,1.48.56,2.22h0l-.18.06A20.71,20.71,0,0,0,27.34-62c.08.24.64.46.94.42a1.36,1.36,0,0,0,1.25-.72.28.28,0,0,1,.21-.1c.49,0,.48-.26.49-.64a13.46,13.46,0,0,1,.23-1.53c.09-.58.17-1.16.25-1.75.22-.28.55-.54.64-.86a3.13,3.13,0,0,0-.11-1.1l-.31-.11c.37,0,.74.05,1.12.06.06,0,.12-.12.19-.18l.12.34v3.44l-.29-.71-.24,0L32-63.88l-.11,0-.3-.35-.26.4-.3-.4-.13,0v.93l.25-.15.94.84c0,.48,0,1-.07,1.43v-.72a3.61,3.61,0,0,0-.91.38,1.43,1.43,0,0,0-.37.71c-.07.25,0,.43.35.44.52,0,.54-.51.88-.68a5.32,5.32,0,0,1,.14.78c0,1.24,0,2.48,0,3.72a3,3,0,0,1-.92.52,1.54,1.54,0,0,0-.62,1.71l.51-.14c0,.47-.5,1,.25,1.21,0,0,0,.13,0,.2-.05.54.28.54.66.47v.88l-1,.19-.07-.19.14.06c.11-.19.3-.38.28-.56s-.2-.54-.32-.54c-.62,0-.87.34-.8.9l.38.23a9.19,9.19,0,0,0-.52.85c-.09.2-.25.5-.17.64.31.5.32.73-.27,1.26.28-1.5-.25-2.78-.26-4.13h-.22l-.42.8c-.37-.66.07-1.51-.61-2.08a1.36,1.36,0,0,0-.08,1.4c.07.14.11.43.05.48-.46.31-.34.76-.35,1.19s-.07,1-.13,1.54c-.08.78-.19,1.57-.28,2.36,0,.09.06.19.09.29s.13.33.09.47c-.13.62.15.93.74.78a.39.39,0,0,1,.28,0c.27.13.51.31.78.43.55.24.88-.12,1.18-.51l.26.7.12,0,.24-1.05.5,2.51.13,0,.29-.61.3.25c-.07.09-.19.17-.19.25q0,1.38,0,2.76c0,.08.13.16.2.24v.35l-.08.79.18,1.41-.32.34c-.27-.4-.55-.79-.86-1.23a4.81,4.81,0,0,1-.13.66c-.07.24-.19.46-.3.73-.34-.2-.45,0-.45.31,0,.51.05,1,.08,1.52,0,.31,0,.63.05.94s-.08.85.56.85c.07,0,.14.23.21.35l-.07.07.14,0a0,0,0,0,1,0,.06c-.15.59-.23,1.17.44,1.59l-.89.33h0l-.64.17-.5-.17v.75l.82-.1h0l-.27.36.59.95c-.08.17-.23.35-.19.44s.26.21.39.31l-.2.14-.33,0,0,.09.31-.12.57.12-.8.45c-.09.1-.27.23-.25.28.17.46.38.89.57,1.34.25.09.28.18.17.46a8.2,8.2,0,0,0-.29,1.41H31l.11-.12.14.23s0,.06,0,.09l-.33.1c-.15.76-.28,1.44-.43,2.21l1,.33a4.22,4.22,0,0,0-.28.61.89.89,0,0,0,.06.51c.05.08.25.07.52.13a6.2,6.2,0,0,0-.11.83c0,.25-.31.59.13.77l.16.41-.06.06a.11.11,0,0,1-.08,0c-.07.05-.17.08-.19.15-.11.31-.11.71-.32.93a2,2,0,0,0-.44,1.83c.13.89.28,1.78.41,2.68,0,.07-.07.15-.1.23l-.35.08c-.22.5-.45,1-.65,1.5s-.36.92-.53,1.38l-.13.46.1.42-.31.78h0L29.18-8l0,0,0,0c-.28.07-.56.17-.69-.25s-.41-.61-.9-.26l-.28-1.57a10.23,10.23,0,0,0,.49-1.51c.17-1,.25-2.05.39-3.07,0-.21.22-.41.22-.62,0-.79,0-1.58,0-2.38,0-.43-.21-.87.22-1.29l.36.78a1.85,1.85,0,0,0-.76-2.95c-.65-.24-.94,0-.86.66.12,1.18.26,2.36.43,3.53a1.92,1.92,0,0,0,.31.74,1.07,1.07,0,0,1-.37,1.43,5,5,0,0,0-.18-.58,3.88,3.88,0,0,0-.23-.33l.4-.72a1.79,1.79,0,0,1-.19-.4c-.12-.5-.18-1-.34-1.49a1.76,1.76,0,0,0-.53-.78c-.35-.28-.67-.11-.64.33a7.15,7.15,0,0,0,.36,2c.16.42.62.73.94,1.09l-.76,1.29-.28-.51c-.92.69-.95,2.29-.21,4.54l1,.39v.14c-.2,0-.56,0-.57,0a6.77,6.77,0,0,0-.27,1.48,9,9,0,0,0,.19,1.14c0,.37,0,.74,0,1.1,0,.16.2.31.3.47l.23.15.17.42.55-.44.38,0c-.06.25-.1.5-.18.74s.06.41.32.34c0,.15-.05.34,0,.39.33.26.07.49-.07.64s-.35,0-.54-.09a.11.11,0,0,1-.09,0l-.11-.13-.09.19h0l-.12.12h0L27-3.17h0l-.39.24.3.43-.34,1-.47-.16-.49-.2c0,.19-.09.38-.1.56s.1.24.15.36a7.91,7.91,0,0,0-.75.88,4.16,4.16,0,0,0-.53,1.18,6.8,6.8,0,0,0,0,1.36l.42-.29s0,.08,0,.1a2.34,2.34,0,0,0-.25,1.86h-.2l-.05.16a7.93,7.93,0,0,0,.89.32,7.31,7.31,0,0,0,1,.15l0,.2a3.82,3.82,0,0,0-.36.34c-.08.11-.13.25-.2.37l-.05.31-.4.1.06-.25s0-.05,0-.06-.39.19-.42.32c-.12.62-.19,1.26-.28,1.9l.23.07c-.13.49.4.56.55.88.07,0,.19,0,.2,0,.22-.43.44-.25.67,0L26,9.34a2.85,2.85,0,0,0-.38.31,3.83,3.83,0,0,0-.33.46h-.17l-.12.11c-.1.08-.19.23-.29.23-.47,0-.49.31-.46.66h0l-.37.42c-.16.19-.33.36-.56,0-.23.39.21,1.18-.69,1.15.11-.61.23-1.22.34-1.83-.23,0-.36.1-.4.21C22,12.4,21.44,13.71,20.89,15c0,0,.1.13.15.19l0,.28-1.25,2.17-.39.54,0,0-.5.23h0l-.53,0a1.7,1.7,0,0,1,.12-.61c.17-.29.38-.53.2-.93-.09-.19,0-.48.11-.84-1.19.47-1.12,1.6-1.5,2.44l-.5-.17.6-2.31c.11-.2.32-.41.3-.58A12.18,12.18,0,0,0,17.29,14c-.35.26-.74.4-.83.65-.18.49-.52.48-.89.51Zm2.2-52.88,0,.14.05,0-.09-.12-.48-.57-.21.08.07,1Zm5.16.43.38,0c0-.14,0-.3-.06-.41a1.19,1.19,0,0,0-.37-.37,1.13,1.13,0,0,0-.32-.13l0,.38,0,.63ZM18.56-11.42h0a2.24,2.24,0,0,1,0-.51c.05-.35.13-.7.2-1.05a2.22,2.22,0,0,0-.79,1.8c0,.07.18.15.28.23s-.05.36-.05.54c0,1.1-.42,2.18-.17,3.3a2.19,2.19,0,0,0,1.28,1.3c.39.06.52-.12.42-.47a1.73,1.73,0,0,0-1.07-1.3v-3.7Zm4.36,5.91a3.34,3.34,0,0,0-1-2.07.94.94,0,0,0-.65-.14,3.57,3.57,0,0,0-.41,1.35,1.26,1.26,0,0,0,.78,1.22,5.1,5.1,0,0,0,.83.17l.42-.54c0,.19.1.43,0,.58-.27.57,0,1,.33,1.39s.48.44.79.2l.5.68a1.06,1.06,0,0,0-.06-1.55,5.2,5.2,0,0,1-.73-1C23.61-5.52,23.16-5.7,22.92-5.51Zm0,9.7c0,.09-.15.22-.12.29.18.44-.12.7-.36,1a2.86,2.86,0,0,0-1,2.06,4.25,4.25,0,0,1-.07.8l.2,0,.85-1.13.11.08L22.26,8l.13.06c.32-.63.41-1.39,1.06-1.83.13-.09,0-.48.12-.71.23-.67.24-.67-.48-.86l.22-.5c.34,0,.32-.18.2-.41l-.19-.29c.78-.61.54-1.44.48-2.23,0-.05-.14-.09-.21-.14h0c.36-.58.28-.79-.37-.92C22.8.11,22.39.06,21.9,0a2.52,2.52,0,0,0-.08.55c0,.32.09.65.12,1s.26.56.65.32l.51-.32.14.2c-.36.24-.73.46-1.06.72a1.07,1.07,0,0,0-.37.53,7.62,7.62,0,0,0-.17,1.18,2.71,2.71,0,0,0,.05.56l1.23-.87Zm-5-6.28c.35.29.59.07.63-.24a7.12,7.12,0,0,0,0-1.31c0-.25.12-.56,0-.69a8.24,8.24,0,0,0-1-.92c-.91,1.33-.74,3.9.34,4.74.09-.18.24-.36.23-.53a7.32,7.32,0,0,0-.19-1ZM20.28,3.4c.43.1.71,0,.8-.48a2.86,2.86,0,0,1,.2-.44,3.62,3.62,0,0,0,0-1.79,1.68,1.68,0,0,0,.27-.62c0-.64-.7-.58-1-.91A1.2,1.2,0,0,1,21-.73c.32.17.47.06.62-.26s.18-.52-.16-.72a7.08,7.08,0,0,1-.79-.56.75.75,0,0,0-1,0,1,1,0,0,0-.32,1.18c.17.39.46.33.77.21,0,0,.09,0,.21.09-.61.3-.82,1.23-1.67.79a4.4,4.4,0,0,1-.11.88c-.17.48-.41.92.11,1.33s.74.65,1.12,1c.06,0,.18,0,.26,0a1.17,1.17,0,0,1,.26.17c-.38-.07-.81.19-1.17-.22s-.71-.3-.87.16a2.87,2.87,0,0,0,.39,2.7c.16.21.56.25.85.37.05-.23.09-.46.13-.69l0-.07.4.12a1.92,1.92,0,0,1,.49-.36c.63-.24.56-.85.63-1.32,0-.15-.48-.37-.73-.57Zm.4,7.78a5.83,5.83,0,0,0,.14-3.41L20.43,8c-.1,0-.2.08-.28.13a6.53,6.53,0,0,0-2,3.07.32.32,0,0,0,.07.28c.56.18.5.72.41,1a3.08,3.08,0,0,0,.19,1.76c.06.18.43.3.68.36a.49.49,0,0,0,.45-.17c.39-.95.76-1.91,1.12-2.87a.87.87,0,0,0,0-.36Zm5.43-49.36a2.34,2.34,0,0,0,.79,1.88,5.67,5.67,0,0,1,.73,1c.16.34.37.26.47.08a1.14,1.14,0,0,0,.19-.79,3.83,3.83,0,0,1,0-2.67.54.54,0,0,0,.05-.37c-.21-.4-.44-.79-.67-1.18a1.16,1.16,0,0,0-1.45-.26c-.43.32-.34.77-.31,1.19S26.06-38.46,26.11-38.18Zm-.68,26.37c0-.3,0-.6,0-.91a12.11,12.11,0,0,0-.91-3.92c-.25-.64-.39-1.32-.63-2-.05-.12-.34-.21-.51-.21a.45.45,0,0,0-.31.33,1.53,1.53,0,0,0,.15.83,5.36,5.36,0,0,1,.85,2.83A4,4,0,0,0,25.43-11.81Zm2.44-31.75-.2.12c.11.26.24.52.34.78s.28.76.41,1.15.26.77.35,1.17a7,7,0,0,1,.07.79c0,.21,0,.49.12.61a.7.7,0,0,0,.6.08,2.82,2.82,0,0,0,.83-.62.57.57,0,0,0,0-.87,5,5,0,0,1-.47-.44c-.28-.36-.55-.74-.81-1.11a2.31,2.31,0,0,1-.18-.45l.49.21a.7.7,0,0,0-.53-.82,5.75,5.75,0,0,1-.65-.34A3.3,3.3,0,0,1,27.87-43.56ZM22.08-23a4.46,4.46,0,0,0,1.14,2.73c.1.11.31.27.36.24a.59.59,0,0,0,.3-.4,4.93,4.93,0,0,0-.74-2.86,1.07,1.07,0,0,0-.76-.3C22.29-23.56,22.18-23.17,22.08-23ZM13.53,9.12a6.46,6.46,0,0,0,1-.62c.29-.24.11-.61-.21-.81-.56-.37-1,0-1.55.12-.32.08-.53.88-.3,1A3.59,3.59,0,0,0,13.53,9.12Zm7.15-24.73a2.63,2.63,0,0,0-.68-.48,1,1,0,0,0-.82.05,1.09,1.09,0,0,0-.34.88.94.94,0,0,0,.71.54C20.35-14.54,20.41-14.64,20.68-15.61Zm2.24,5a4,4,0,0,0-.74-3.6C21.91-13.38,22.42-10.9,22.92-10.59ZM14.27,2.08c.58-.21.62-.27.58-.72a4.72,4.72,0,0,0,0-.65c-.15-.6-.34-1.2-.54-1.91-.2.23-.27.38-.38.42-.34.12-.2.33-.13.54A4.81,4.81,0,0,1,14,.57C14.14,1.06,14.19,1.57,14.27,2.08Zm.38,4.31a4.79,4.79,0,0,0,.14.7c0,.1.14.23.22.24.29,0,.78-.68.66-1a8.9,8.9,0,0,0-.47-.82c-.28.23-.42.6-.91.53-.27,0-.43.29-.22.61l.37.51Zm-1.05-4a3.67,3.67,0,0,0-.29-2.76A4,4,0,0,0,13.6,2.43Zm16.23-59.1L30.25-55c.31-.51.6-1,.86-1.46.05-.08,0-.27-.13-.37s-.23,0-.32.08a4,4,0,0,0-.4.42Zm-.91,39.42a1.68,1.68,0,0,0,.81-2.31Zm.44-14.22c0-.25,0-.45-.1-.56s-.39-.53-.57-.52c-.39,0-.29.37-.22.64a2,2,0,0,0,.18.5,1.78,1.78,0,0,0,.42.35ZM19.06-11.11c0,.72.55.61.84.77.11.06.28,0,.42,0-.05-.16-.06-.41-.17-.45A8.55,8.55,0,0,0,19.06-11.11Zm1.4,17.68c.49.07.8-.13.86-.56,0-.11-.42-.44-.54-.4C20.34,5.78,20.38,6.18,20.46,6.57ZM30-58l.07,0-.19.82c.77-.6.76-1-.07-1.72ZM18.41,15.39a1.12,1.12,0,0,0-.14-1.56C17.92,14.38,18.14,14.85,18.41,15.39ZM15.19,1.8h-.27c0,.39,0,.77,0,1.16,0,.07.16.17.27.19s.17-.15.16-.23C15.3,2.55,15.24,2.18,15.19,1.8Zm13.6-17.66v1.57A1,1,0,0,0,28.79-15.86Zm-.52-41.36.24-.07c0-.54,0-1.09-.48-1.46l-.19.06ZM21.09-5c.1.64.51.72.92.84C22.2-5,21.51-4.71,21.09-5ZM27.27-29.6l.17-.09a5.54,5.54,0,0,0-.11-.56,2.19,2.19,0,0,0-.29-.41c0,.18-.15.38-.11.54A1.66,1.66,0,0,0,27.27-29.6ZM16.58-25.68l-.3-.41a2.64,2.64,0,0,0-.34.55c0,.08.13.23.2.34Zm4.6.06-.22.06.17.76c.09,0,.22-.06.26-.13C21.55-25.23,21.51-25.48,21.18-25.62ZM31.67-65.55l-.15-.85-.23.05C31.05-66,31.17-65.75,31.67-65.55ZM29.4-15.74l.23,0-.08-1.15-.27,0ZM28.64-28.8c.11-.25.23-.38.2-.47a2,2,0,0,0-.29-.45c-.09.08-.27.19-.25.25A4.18,4.18,0,0,0,28.64-28.8ZM23.77,7.07l.23.09L24.42,6l-.17-.07Zm-12.55,3.8-.2-.16-.43.43.32.24ZM30-54.31c-.2.51-.15.78.51.58ZM18.66-37c.1-.19.21-.31.19-.38s-.17-.19-.27-.28c-.07.08-.22.18-.21.25S18.51-37.25,18.66-37Zm-1.17-2.38h.15l0-.57h-.31Zm12.37,6.34-.1.12.49.62.14-.14Zm-2.74,29,.1.24.5-.21-.09-.22Zm-10.58-25-.21.08c.06.13.12.27.19.4a.9.9,0,0,0,.18-.06Zm-8,38.81.15-.11-.21-.3-.13.09Zm20.2-26.09h.14v-.46l-.17,0Zm2-16c.08-.1.14-.15.15-.2s-.09-.13-.12-.12a.21.21,0,0,0-.13.13S30.68-32.53,30.73-32.44Zm-11.09,5.6c0,.05-.09.08-.09.12a.35.35,0,0,0,.05.13s.1-.07.12-.12S19.68-26.78,19.64-26.84ZM19-37.59l0,.08.18-.09,0-.08ZM30.1-32c.06,0,.09.06.11.05s0-.05.06-.07ZM25.86-52.72v0H26v0ZM30.21-32.2c.06,0,.09.06.11.06s0,0,.06-.08Zm.64-1h0v.06h0ZM25.7-52.27l-.05,0v0l0,0S25.69-52.26,25.7-52.27Zm.26-.2.05,0s0,0,0,0h0S26-52.48,26-52.47Zm.6,9.62h0s0,0,0,0h0S26.57-42.84,26.56-42.85Z"/><path class="cls-10" d="M17.38,16l-.6,2.31h0l-.11.12h0L16,19l-.49.51c-.53.16-.56-.26-.65-.57a7.76,7.76,0,0,1-.13-.82h0a3.94,3.94,0,0,1,.5-2.23.48.48,0,0,0,0-.35c-.18-.4.09-.37.33-.38h0a.7.7,0,0,0,1-.17,2.22,2.22,0,0,1,.51-.39,2,2,0,0,1,.34.56A3.62,3.62,0,0,1,17.38,16Z"/><path class="cls-8" d="M18.35,18.44l.53,0-.77.74,0,0Z"/><path class="cls-8" d="M18.36,19.57l-.65.44L17.65,20l.42-.78,0,0,.19.3Z"/><path class="cls-12" d="M16,19l.7-.56C16.69,18.94,16.36,19,16,19Z"/><path class="cls-8" d="M19.09,18.55l0,.15,0-.15Z"/><path class="cls-8" d="M17.55,20.19l.1-.23.06.05-.16.18Z"/><path class="cls-12" d="M16.67,18.44l.11-.12Z"/><path class="cls-8" d="M18.3,19.51l.08-.06,0,.12Z"/><path class="cls-8" d="M17.55,20.19l-.06.07.06-.07Z"/><path class="cls-10" d="M21,15.22c-.05-.06-.17-.15-.15-.19.55-1.32,1.11-2.63,1.69-3.94,0-.11.17-.17.4-.21-.11.61-.23,1.22-.34,1.83-.33.61-.64,1.23-1,1.83A4.36,4.36,0,0,1,21,15.22Z"/><path class="cls-4" d="M19.82,17.67l1.25-2.17.54-.28.18.16-.74,1.38L19.82,18.2C19.33,18,19.88,17.85,19.82,17.67Z"/><path class="cls-3" d="M25.29,10.11a3.83,3.83,0,0,1,.33-.46A2.85,2.85,0,0,1,26,9.34h0c-.17.51-.35,1-.51,1.53,0,0,.07.11.11.16l.08.07-.79,1.2.22-1.76Z"/><path class="cls-6" d="M25.29,10.11l-.18.43a1.77,1.77,0,0,1-.32.21,1.28,1.28,0,0,1-.33,0l-.21.31c0-.35,0-.65.46-.66.1,0,.19-.15.29-.23l.12.21V10.1Z"/><path class="cls-3" d="M24.79,12.4l0,.18h-.25l.09-.35Z"/><path class="cls-13" d="M24.51,12.59h.16l-.31.28Z"/><path class="cls-3" d="M24.9,12.29l-.12.12Z"/><polygon class="cls-6" points="23.62 13.68 23.65 13.66 23.65 13.7 23.62 13.68"/><path class="cls-12" d="M19.43,18.21l0,.06-.07,0Z"/><path class="cls-6" d="M25.68,5.74c.07-.12.12-.26.2-.37A3.82,3.82,0,0,1,26.24,5l0-.2a7.31,7.31,0,0,1-1-.15,7.93,7.93,0,0,1-.89-.32l.05-.16h.2l.78-.63L25.4,4l.45-.41L26,4l.53-.74.07.55.76-2.57h.53l.24,1.91c0,.17.09.41-.25.31,0,0-.05,0-.07.07a2.45,2.45,0,0,0,.16,2c0,.2,0,.48-.08.59a2.47,2.47,0,0,0-1,1.71s-.1.07-.21.14V6.82l-.07-1.76h-.14L26,5.89Zm0-1.63a.5.5,0,0,0-.1.16s.06.05.1.08.05-.06.05-.08A.41.41,0,0,0,25.7,4.11Z"/><path class="cls-3" d="M26.73,6.82V8c.11-.07.21-.1.21-.14a2.47,2.47,0,0,1,1-1.71C28,6.08,28,5.8,28,5.6,28.93,5,29.29,4,30,3.19c.85-1,.87-2.41,1.82-3.38l-.33,1L31.37.9l0,.38c-.11.36-.21.73-.32,1.09s-.35.66-.53,1c-.39.74-.79,1.47-1.19,2.2-.14,0-.34,0-.4.09a8.36,8.36,0,0,0-.46.83l0,0,0,0a1.33,1.33,0,0,1,0,.4,1.81,1.81,0,0,1-.18.37l-.1.1a1.15,1.15,0,0,0-.91,1.06L26,10.72l-.08-.09c.11-.37.23-.74.33-1.11,0,0-.13-.12-.2-.18h0L26.21,9Z"/><path class="cls-14" d="M29.82,5.27l.23-.49v.39Z"/><path class="cls-6" d="M28.32,7.25a1.81,1.81,0,0,0,.18-.37,1.33,1.33,0,0,0,0-.4h0A8.36,8.36,0,0,1,29,5.65c.06-.08.26-.06.4-.09l0,0V6ZM29,6s.07,0,.08-.06,0-.06,0-.09S29,5.92,29,6,29,6,29,6Z"/><path class="cls-6" d="M27.31,8.41a1.15,1.15,0,0,1,.91-1.06L28,7.68l-.11.12h0l-.12.09Z"/><path class="cls-3" d="M26,10.72l-.27.38L25.6,11l.27-.4Z"/><path class="cls-14" d="M29.38,6V5.6h.22Z"/><path class="cls-14" d="M29.6,5.6l.12-.22Z"/><path class="cls-14" d="M29.71,5.38l.12-.11Z"/><path class="cls-3" d="M27.86,7.8,28,7.68Z"/><path class="cls-3" d="M27.74,7.89l.12-.09Z"/><path class="cls-15" d="M11.31-9.57c-.11.34-.19.7-.33,1s-.39.67-.59,1c-.62.35-.69,1-.78,1.58a2.39,2.39,0,0,1-.13.21l-.33.54c-.16.3-.25.69-.5.87a4.2,4.2,0,0,0-1.14,1.6,3.83,3.83,0,0,0-.83.66C6.28-1.56,6-1,5.6-.42c-.44,0-.3.29-.32.52l-.11,0H5.06L4.94,0l0,0,.14,0V.23L5,.34,4.72.55h0l-.1.11-.2.15L4.13.24l-.39,1L3.45.61,3.09.88,2.83.4l-.21,0c0,.25-.07.5-.07.75s.06.46.09.69H2l-.13-.26-.11.1L2,1.88,1,2.31C.61,2.47,0,2.36.06,3c0,0-.17.1-.26.15l-.11,0-.3-.38-.25.3-.31.07v.09l.29.06h0L-1,3.78c-.17-.17-.33-.32-.49-.46,0,0-.16.1-.15.12.09.2.2.39.29.56l-1.21.94,0-.18-.94-.19c.64.7.67.76.53,1l-.57.2h-.05v.05a.1.1,0,0,1-.05,0L-4.53,6l-.08-.43-.76-.26c.11,0,.27,0,.32,0A.91.91,0,0,1-4,4.93s.11-.13.11-.13l-.86-.55.87-1.09L-4,3.06l-.51.46c-.12-.56.22-.82.58-.77s.19.52.13.82l.86-.17.21-.65h0l1.18-.42a1.28,1.28,0,0,0,.11.2A1.41,1.41,0,0,1-.26,2.35l.05-.15V2C-.11,2,0,1.91.08,2c.3.21.25,0,.26-.19h0l.83-.08L.83,1.16c.44-.07.47-.31.29-.66A1.71,1.71,0,0,1,1,0h.41L1.25.36c.48.23.11.62.13,1A.81.81,0,0,0,1.44,0V-.42l.13-.65.32.26a16.25,16.25,0,0,0,1.4-.94,3.68,3.68,0,0,0,.57-.76C3.57-3,4-2.91,4.21-3h.17l.34-.38L5-3.32,4.88-3.5A1.59,1.59,0,0,1,5.7-4.78C6-4.91,6-5,6-5.26c0-.46.12-.91.18-1.31l.47.21c0-.15,0-.3,0-.44a4.34,4.34,0,0,0-.15-.51l.41.36-.29-.34L7.3-7.4a.52.52,0,0,0-.37,0s-.14,0-.15,0a1.26,1.26,0,0,1-.13-.26l.27,0,.18-.09-.16,0L6.72-8l.52-.17.12,0,.23.16.12-.06-.24-.45v-.3L8-9.06h.25l-.1-.54.53.31.11-.1c-.09-.19-.18-.37-.28-.55-.18-.35-.07-.78.21-.86.58-.19.37-.5.26-.84.38.06.38-.11.23-.38l0,0c.29-.42.72-.81.25-1.36v-.17l.51.33v-1a6.12,6.12,0,0,0,.31-.56,1.63,1.63,0,0,0,0-.39l.1-.55,0-.67h.23c.27-.1.48-.13.55.25s.16.66.27,1.08l.47-.56h0l.54.11c.05.34,0,.63-.47.56.37.38.32.56-.12.71s-.46.26-.07.48l0,0,.13.72c-.34.22-.66.49-.08.89,0,0,0,.24-.05.33s-.26.25-.38.38a.86.86,0,0,0-.08,1.18ZM-1.91,4.09-1.77,4l-.3-.43-.15.11Zm5.2-4L3.13.21s.06.11.08.1A.26.26,0,0,0,3.35.22S3.31.14,3.29.09Zm2-.93s0,.06,0,.08a.2.2,0,0,0,.08,0s0-.06,0-.08S5.29-.83,5.26-.84ZM-3.9,3.81s0,0,0,0h0v.06Zm2.23-1v0l-.06,0s0,0,0,0S-1.68,2.78-1.67,2.78Z"/><path class="cls-4" d="M2.39,8.43l-1,1.21-.11.14-.54.65-.32-.14L.79,9.18.65,9.09c-.14.17-.4.35-.4.52A2.08,2.08,0,0,1-.29,10.8c-.08.11,0,.35,0,.51s-.2.19-.3.29c0-.12-.07-.24-.09-.37a3.39,3.39,0,0,0-.06-.64c-.14-.45-.34-.88-.47-1.32a1,1,0,0,1,.07-.44l.14,0,.26.61a5.12,5.12,0,0,0,.11-.94c0-.12-.26-.26-.43-.33s-.52,0-.54-.12a1.37,1.37,0,0,1,.06-.69A1.5,1.5,0,0,1-1.37,7C-1.95,6.81-2.5,6.66-3,6.5a.75.75,0,0,1,.1-.44,2.87,2.87,0,0,1,.66-.27l-.49-.29A9.34,9.34,0,0,0,0,3.42,4.26,4.26,0,0,0,.61,2.8a.72.72,0,0,1,.79-.39c.46,0,1,.27,1.37-.19h0l.73-.35.26-.3a.08.08,0,0,0,.08,0L4,1.87c-.16.43-.33.86-.49,1.3l0,.11.06-.08L6.21,1.89,5.6,2V1.21A3.1,3.1,0,0,0,6.17.46a4.74,4.74,0,0,1,1.19-2.2c0,.2.12.46,0,.61-.24.44-.55.84-.8,1.21.51.62.13,1.13-.12,1.62L7,1.89l.2.91.12.09h0c.17.43-.24.57-.42.83v0A1.61,1.61,0,0,1,6.54,4c-.31.14-.63.26-1,.39l0,.17-.48-.15-1,.31-.07-.12-.17.58c.63-.4,1.09-.23,1.36.19a1.57,1.57,0,0,1,.07,1,3.39,3.39,0,0,1-.41.85c-.59.19-.5-.45-.67-.83L4,6.77l-.48-.64V7.52c0,.05-.05.1-.07.14L2.85,8.77l-.29-.46-.17.14Z"/><path class="cls-6" d="M3.56,7.52V6.13L4,6.77l.21-.46c.17.38.08,1,.67.83a3.39,3.39,0,0,0,.41-.85,1.57,1.57,0,0,0-.07-1C5,4.9,4.53,4.73,3.9,5.13l.17-.58.07.12,1-.31.48.15,0-.17c.32-.13.64-.25,1-.39a1.61,1.61,0,0,0,.36-.24c.08.61.48.46.86.37,0,.29,0,.59-.08.88l.23,1.11c-.14.3-.14.3.32.41,0,.69.76.56,1.06,1,.48-.94.27-1.42-.67-1.59l-.07-.39.34-.31.65.21-.39.23.92.75-.2-.79.19-.06.16.33.16-.37.62.14a.7.7,0,0,1-.09-1.15c.07-.09.32,0,.49,0l0,.2L10.87,5l.07.17.78-.39c-.36.48.09.55.3.74s.44.35,0,.58c-.14.08-.19.31-.32.55l-.83-.19L9.79,7.69l0,.18h.72a1.54,1.54,0,0,0,.54,1.24c.1.09.11.28.16.43-.19,0-.46.07-.57,0a4.4,4.4,0,0,1-.6-.8c-.19-.28-.52-.25-.87,0a6.68,6.68,0,0,1-.7.45V8.08l-.66.55L8.41,10c-.12.07-.36.17-.35.24,0,.5-.75.85-.25,1.42a.06.06,0,0,1,0,.06c-.39.07-.54.4-.74.68-.11-.06-.23-.21-.3-.18a16.27,16.27,0,0,0-1.55.64c-.32.16-.59.45-.92.58-.5.2-.92.43-1,1.08a2.12,2.12,0,0,1-.22-.25l-.87.06.56-.51.54-.57L3,13.05V12.9l1-.29c.16,0,.42,0,.45-.09a2.22,2.22,0,0,0,.05-.64L4.06,12a6.8,6.8,0,0,0-.9-.06c-.5,0-1-.05-1.4.44a1.39,1.39,0,0,1-.22.15c-.32-1-.32-1,.23-1.17l-.3-.48.1-.11a1.72,1.72,0,0,1,.34.24c.43.59.54.6,1.13-.08l.13.49.2-.12c0-.22,0-.54-.11-.65-.32-.3-.16-.45.11-.61a2.43,2.43,0,0,1-.76-.45c-.06-.07.2-.43.3-.6l-.52-.53v0l.17-.14.29.46.64-1.11.09.08c-.07.76.07,1,.63,1.14C4.47,8.39,4.15,8,4,7.6c0,0-.21,0-.33,0Zm2-.48A1.89,1.89,0,0,0,6.87,5.51a.83.83,0,0,0-.19-.46s-.22,0-.28,0A2.19,2.19,0,0,0,5.52,7ZM3.61,10.88l.15.06c.68-.64.85-1.06.56-1.6Zm3.69.59.17-1.83A1.19,1.19,0,0,0,7.3,11.47Zm4-5.86-.14.14L11.5,6l.14-.14Z"/><path class="cls-4" d="M2.78,13.82l-.56.51.87-.06a2.12,2.12,0,0,0,.22.25c.07-.65.49-.88,1-1.08.33-.13.6-.42.92-.58a16.27,16.27,0,0,1,1.55-.64c.07,0,.19.12.3.18l-.16.27-.11.17v0a3,3,0,0,1-1.83,1c-.34.05-.63.4-1,.61s-.4.25-.62.39c0,.18.08.43.12.69l-.31.06.07.14.25-.19.53,0c.11,0,.23,0,.34,0l.54.08-.21.54h0l-.12.12h0l-.17.12h0l-.41-.22c-.2.52-.18.58.24.67h0c.39.08.77.18,1.17.23a5.48,5.48,0,0,1,1.08.05c.24.07.41.38.61.59-.22.16-.42.41-.65.45a8.66,8.66,0,0,1-1.14,0,5.53,5.53,0,0,0-1.6.34c.57.17,1.12.35,1.69.51s.77.37.64,1.13l-.46,0a1.48,1.48,0,0,0-1.21-.58l-.07.18,1.25.43c-.07.35-.11.71-.21,1.05,0,.07-.24.15-.34.12a2,2,0,0,0-.59-.14c.08.14.17.28.24.43s.13.32.19.48c-.2,0-.41,0-.61,0a2.25,2.25,0,0,1-.44-.14L3.76,22l.4.53c.11.32.19.58-.35.43-.17,0-.39.13-.6.21L2.42,23l.34-.63H2.18l.23-.27a.69.69,0,0,1,.76-.44c.12,0,.25-.16.38-.25l-.11-.15L3,21.33l-.32-.48,0-.21s0,0,0,0l-.05-.07-.39-.65.32-.83.78.26.06-.11-.68-.4L3.3,18,3,17.88l.09-.82L3,17a3.2,3.2,0,0,1-.32.54.67.67,0,0,1-1,.05,1.62,1.62,0,0,0-1.35-.17c-.27-.11-.54-.24-.82-.33s-.64-.15-1-.23L-.78,16l.09.05-.19.53.11.12a2.36,2.36,0,0,0,.49-.45c.43-.7.79-1.45,1.26-2.12a5,5,0,0,1,1-.8l.19-.1.54-.2Z"/><path class="cls-16" d="M0,3.42A9.34,9.34,0,0,1-2.77,5.5L-3,5.58c.14-.25.11-.31-.53-1l.94.19,0,.18L-1.4,4c-.09-.17-.2-.36-.29-.56,0,0,.14-.13.15-.12.16.14.32.29.49.46l.18-.47.22.22.05,0,0,0,.33-.36.11,0Z"/><path class="cls-12" d="M-1.45,16.89c.32.08.65.14,1,.23s.55.22.82.33l-.09.11-1.35-.27a2.29,2.29,0,0,0-.51.64.94.94,0,0,1-.73.69c.21-.32.53-.59.49-.8A1,1,0,0,1-1.63,17Z"/><path class="cls-5" d="M4.06,12l.42-.09a2.22,2.22,0,0,1-.05.64c0,.08-.29.07-.45.09Z"/><path class="cls-6" d="M.46,10.29l.32.14-.32.39-.11-.09Z"/><path class="cls-6" d="M3.16,12.32l-.42.28-.09-.11.41-.32Z"/><path class="cls-6" d="M1.32,9.78l.11-.14.09.58-.17,0Z"/><path class="cls-6" d="M2.17,13.27l-.19.1-.18-.21.06-.08Z"/><path class="cls-12" d="M.24,17.78c.26,0,.71-.36.65.31-.28.13-.64.18-.82.39-.46.5-.75.53-1.21,0C-.83,18-.26,19,0,18.19L-.31,18Z"/><path class="cls-4" d="M5.47,22.12a5.18,5.18,0,0,0,.47-.58c.23-.36.43-.75.66-1.12a2,2,0,0,1,.47-.65c.11-.07.58.18.57.21-.12.49.28.47.54.55.63.22.64.29.19.79-.09.09-.09.26-.13.39s-.15.43-.23.64l-.23.14v0c0,.18-.07.36-.1.54l-.08.14a.1.1,0,0,0,0,.07l-.3.27-.33,0-1.21-.7Zm1.07-.95-.07.1.26.13,0-.07Z"/><path class="cls-5" d="M5.47,22.12l.24.69-.24-.07a3,3,0,0,0,.62.57,3.57,3.57,0,0,1,.42.51l-.25.34-.42.08-.13.45L5,25.07a3.15,3.15,0,0,1-.5-.55,1.4,1.4,0,0,1-.09-.62,3.52,3.52,0,0,1,0-.47l.4-.11-.11-.08c.14-.19.28-.38.41-.58ZM4.63,24c.21.59.4.66.86.35Z"/><path class="cls-17" d="M2.18,22.32h.58L2.42,23l-.88-.79a3.33,3.33,0,0,1,.11.67c0,.05-.33.13-.35.1-.16-.27-.29-.56-.42-.84l.6-.19-.69-.15,0-.14a7.82,7.82,0,0,1,1.16-.2c.18,0,.43.15.19.45C2,22,2.15,22.16,2.18,22.32Z"/><path class="cls-18" d="M2.64,20.85l.32.48.48-.12.11.15c-.13.09-.26.26-.38.25a.69.69,0,0,0-.76.44c.42-.8-.1-1.11-.86-1.3C2.08,20.35,2.35,20.65,2.64,20.85Z"/><path class="cls-4" d="M2.58,17.93c-.4.62-.8.63-1.36,0Z"/><path class="cls-6" d="M6.51,23.82a3.57,3.57,0,0,0-.42-.51,3,3,0,0,1-.62-.57l.24.07,1.21.7Z"/><path class="cls-5" d="M1.55,23a3.53,3.53,0,0,1,.66.16c.07,0,.07.24.1.36s-.25.09-.32.05a5.2,5.2,0,0,1-.59-.46Z"/><path class="cls-6" d="M5.71,24.69l.13-.45.42-.08c.16.5.08.61-.54.76l0,0Z"/><path class="cls-5" d="M.5,23.25A1.12,1.12,0,0,1,.42,23c0-.24.06-.48.09-.72.09,0,.22,0,.26.12A.78.78,0,0,1,.5,23.25Z"/><path class="cls-6" d="M7.25,23.49l.3-.27-.11.46Z"/><path class="cls-6" d="M5.72,24.92l-.12.25L5.45,25l.25-.15Z"/><path class="cls-18" d="M2.63,20.53l.05.07s0,0,0,0Z"/><path class="cls-17" d="M1.55,23l-.15.11Z"/><path class="cls-6" d="M7.59,23.15,7.67,23Z"/><path class="cls-10" d="M12.83,11.2a2.3,2.3,0,0,0,.16-.46c0-.32,0-.64.07-1a.18.18,0,0,1,.09-.14,8.55,8.55,0,0,1,1.57-.31c.12,0,.34.48.38.76a12.94,12.94,0,0,1,.13,1.77,2.19,2.19,0,0,1-.2.63c-.06.21-.22.44-.17.61a2.43,2.43,0,0,1,0,1.89,3.85,3.85,0,0,0-.1,1.33c0,.17,0,.34,0,.53-.78-.37-.64-1-.71-1.65,0-.19-.19-.36-.3-.55.54-.94-.16-1.57-.54-2.3a5.85,5.85,0,0,1-.35-1.17Z"/><path class="cls-4" d="M11.3,19.2c0,.07,0,.15,0,.22.17.56.06.69-.62.57.45.69-.17.89-.44,1.17-.52-.45-1.06-.87-1.54-1.35a1,1,0,0,1-.25-.72c0-.17.29-.33.48-.44a1.78,1.78,0,0,1,.55-.13L9.34,18h0l.62-.17v.65l1.25.62h0l.12.12Z"/><path class="cls-4" d="M12.87,13.76c.26-.06.48,0,.49.3,0,.58,0,1.15,0,1.72l.17,0,.25-.33c0,.13.08.38,0,.39-.56.21-.44.71-.49,1.13a2,2,0,0,1-.17.33,3.7,3.7,0,0,1-.45-1A5.25,5.25,0,0,1,12.87,13.76Z"/><path class="cls-10" d="M14.7,18.11a7.24,7.24,0,0,1-.11,1.24,7.67,7.67,0,0,1-.49,1.16,2,2,0,0,1-.24-1.82,4.35,4.35,0,0,0,.29-.52c.16-.35.34-.41.56-.05Z"/><path class="cls-12" d="M6.91,12.67l.16-.27c.2-.28.35-.61.74-.68a3.26,3.26,0,0,1,.44.15,1.85,1.85,0,0,1,.32.25l.43.39H9l-.31.33c-.17-.17-.35-.34-.51-.53s0-.13,0-.31l-.69.24a3.8,3.8,0,0,0,.18.47,4.71,4.71,0,0,0,.33.45l-.74,0s0,0-.07.07a2.32,2.32,0,0,1-.36.16c0-.11,0-.22,0-.34a2.43,2.43,0,0,1,0-.27v0Z"/><path class="cls-5" d="M11.2,19.1a4.32,4.32,0,0,0-.34-.72,2,2,0,0,0-.51-.33l-.1.11c0-.16-.14-.34-.1-.47a2.66,2.66,0,0,1,.33-.56,1.46,1.46,0,0,1,.41.32,10.52,10.52,0,0,1,.74,1.25c.13.27,0,.49-.33.5h0l-.12-.12Z"/><path class="cls-4" d="M9.34,18c-.38.11-.75.25-1.13.33-.14,0-.31-.11-.46-.17.07-.16.09-.38.22-.48A1,1,0,0,1,9.33,18Z"/><path class="cls-5" d="M4.46,16.35h0l.17-.12h0l.12-.12h0a1.26,1.26,0,0,1,1.34.65H4.29Z"/><path class="cls-5" d="M13.28,22.6a.67.67,0,0,1-.91-.41c-.17-.35,0-.57.18-.53l.4.71L13.3,22l0,.59Z"/><path class="cls-5" d="M7.21,19.08l.68-.58.29.67-.88.1Z"/><path class="cls-5" d="M5.11,14.46l.72-.29a2.21,2.21,0,0,1,.09.36c-.23.1-.47.16-.71.24Z"/><path class="cls-11" d="M7.78,22.49,8,22.35Z"/><path class="cls-10" d="M9.61-6c.09-.61.16-1.23.78-1.58l.7.23c0,.23.07.46.1.68s.09.55.13.82l.09.23a5.39,5.39,0,0,0-.28,2.46c0-.31,0-.64.1-.94A5.72,5.72,0,0,1,11.64-5l.54.39-.32.19c.13.11.33.24.31.27-.24.56.18.85.4,1.26.39.73-.2,1.28-.58,1.83a3.33,3.33,0,0,1-.51.48,2.67,2.67,0,0,0-.4,1.76A3,3,0,0,0,11.3.35c0-.19.15-.37.22-.56.06.14.19.3.17.41a8.22,8.22,0,0,1-.33.87c.09.07.11.1.14.11l.73.35-.6,1A2.49,2.49,0,0,0,11,3c-.2.27-.33.37-.63.15a5.93,5.93,0,0,0-.78-.43l.14.2L9,3.42a.18.18,0,0,0-.1,0h0c0-.12-.09-.23-.13-.35-.1-.33-.21-.2-.33,0l-.31,0L8,2.44l-.62.24L7.89.88C8,.66,8.13.41,8.08.22a1.18,1.18,0,0,1,.7-1.48c.29.45.67.29,1.24-.49L9.7-2.19a2.79,2.79,0,0,1-.36.47,1.44,1.44,0,0,1-.48.17c0-.16,0-.32,0-.49s.06-.28.09-.47l-.49.24-.14-.1c.14-.29.26-.6.42-.88s.35-.34.42-.55c.25-.68.45-1.38.66-2.08,0-.11.08-.21.11-.32s.05-.19.07-.28l-.07,0-.06.24-.12.32a.15.15,0,0,0-.09,0S9.63-5.95,9.61-6Zm1-1.16-.11.41.1,0v-.43l.1-.23-.08,0ZM9.44-2.84l.68-1.9-.25-.07c-.15.66-.29,1.31-.43,2l0,0h0Zm1-.12-.17,0-.2,1,.15,0Z"/><path class="cls-10" d="M20.29,3.41A1.17,1.17,0,0,0,20,3.24c-.08,0-.2,0-.26,0-.38-.32-.74-.66-1.12-1s-.28-.85-.11-1.33A4.4,4.4,0,0,0,18.65,0c.85.44,1.06-.49,1.67-.79-.12,0-.18-.1-.21-.09-.31.12-.6.18-.77-.21a1,1,0,0,1,.32-1.18.75.75,0,0,1,1,0,7.08,7.08,0,0,0,.79.56c.34.2.31.4.16.72s-.3.43-.62.26a1.2,1.2,0,0,0-.46-.11c.33.33,1,.27,1,.91a1.68,1.68,0,0,1-.27.62,3.62,3.62,0,0,1,0,1.79,2.86,2.86,0,0,0-.2.44c-.09.47-.37.58-.8.48Z"/><path class="cls-10" d="M20.68,11.18h.39a.87.87,0,0,1,0,.36c-.36,1-.73,1.92-1.12,2.87a.49.49,0,0,1-.45.17c-.25-.06-.62-.18-.68-.36a3.08,3.08,0,0,1-.19-1.76c.09-.31.15-.85-.41-1a.32.32,0,0,1-.07-.28,6.53,6.53,0,0,1,2-3.07c.08-.05.18-.08.28-.13l.39-.18A5.83,5.83,0,0,1,20.68,11.18Zm-.88,2.37.17,0,.61-1.85-.12-.05Zm.88-2.23,0,0,0,0,0,0S20.69,11.33,20.68,11.32Z"/><path class="cls-10" d="M20.28,3.4l.17.13c.25.2.75.42.73.57-.07.47,0,1.08-.63,1.32a1.92,1.92,0,0,0-.49.36l-.4-.12,0,.07c0,.23-.08.46-.13.69-.29-.12-.69-.16-.85-.37a2.87,2.87,0,0,1-.39-2.7c.16-.46.55-.53.87-.16s.79.15,1.17.22Z"/><path class="cls-10" d="M23.59,1.11c.07,0,.21.09.21.14.06.79.3,1.62-.48,2.23l-.29.2-.11.17v0l-1.23.87a2.71,2.71,0,0,1-.05-.56A7.62,7.62,0,0,1,21.81,3a1.07,1.07,0,0,1,.37-.53c.33-.26.7-.48,1.06-.72l-.14-.2-.51.32c-.39.24-.6.14-.65-.32s-.1-.65-.12-1A2.52,2.52,0,0,1,21.9,0c.49.07.9.12,1.31.2.65.13.73.34.37.92l-.36.37.13.1Z"/><path class="cls-10" d="M23.31,4.18l-.22.5c.72.19.71.19.48.86-.08.23,0,.62-.12.71-.65.44-.74,1.2-1.06,1.83L22.26,8l.31-.72-.11-.08-.85,1.13-.2,0a4.25,4.25,0,0,0,.07-.8,2.86,2.86,0,0,1,1-2.06c.24-.27.54-.53.36-1,0-.07.08-.2.12-.29Z"/><path class="cls-6" d="M9,3.42,9.71,3l-.14-.2a5.93,5.93,0,0,1,.78.43c.3.22.43.12.63-.15a2.49,2.49,0,0,1,.65-.48,7.4,7.4,0,0,1,.08.81c0,.31-.06.52-.49.38-.21-.08-.5.06-.7.09l-.14,1L10,4.23l-.65.38c-.1,0-.22-.13-.29-.1a2.4,2.4,0,0,0-.38.27L8.26,4.6c.07-.35.26-.72-.11-1l0-.5.31,0c0,.34.17.42.46.37h0Z"/><path class="cls-4" d="M26.73,6.82,26.21,9c-.23-.24-.45-.42-.67,0,0,0-.13,0-.2,0a3.56,3.56,0,0,1-.1-.79c0-.5.14-1,.22-1.5h0l.17-.66.05-.31.35.15.49-.82h.14Z"/><path class="cls-4" d="M8.57,12.12a1.85,1.85,0,0,0-.32-.25,3.26,3.26,0,0,0-.44-.15.06.06,0,0,0,0-.06,2.18,2.18,0,0,1,1.71-1.42c.46-.12.27.26.21.48l0,.17.13-.06.29-.21c.2.51-.19.78-.36,1.12l-.44.32h0l-.26.23H9Zm.57-.8.14.15.46-.4-.16-.16Z"/><path class="cls-10" d="M13.53,9.12a3.59,3.59,0,0,1-1-.27c-.23-.16,0-1,.3-1,.5-.13,1-.49,1.55-.12.32.2.5.57.21.81A6.46,6.46,0,0,1,13.53,9.12Z"/><path class="cls-4" d="M14.27,2.08c-.08-.51-.13-1-.23-1.51a4.81,4.81,0,0,0-.27-.81c-.07-.21-.21-.42.13-.54.11,0,.18-.19.38-.42.2.71.39,1.31.54,1.91a4.72,4.72,0,0,1,0,.65C14.89,1.81,14.85,1.87,14.27,2.08Z"/><path class="cls-4" d="M14.65,6.39l-.21.82-.37-.51c-.21-.32-.05-.65.22-.61.49.07.63-.3.91-.53a8.9,8.9,0,0,1,.47.82c.12.27-.37,1-.66,1-.08,0-.19-.14-.22-.24A4.79,4.79,0,0,1,14.65,6.39Z"/><path class="cls-6" d="M25.63,6.05c-.06.22-.12.44-.17.66l-.14-.18,0,0,.17.15c-.08.5-.18,1-.22,1.5a3.56,3.56,0,0,0,.1.79c-.15-.32-.68-.39-.55-.88l.11.06.32-.6-.13-.07-.3.61-.23-.07a2.14,2.14,0,0,0,.28-.48c.15-.47.27-1,.39-1.43Z"/><path class="cls-4" d="M13.6,2.43a4,4,0,0,1-.29-2.76A3.67,3.67,0,0,1,13.6,2.43Z"/><path class="cls-4" d="M12.84,11.19l-.53.37-.11-.11.3-.64a.89.89,0,0,1-.29-1.41.4.4,0,0,1,.27-.14s.15.15.14.19c-.34.64.23,1.15.21,1.75Z"/><path class="cls-4" d="M10.53,7.88h-.21A.63.63,0,0,1,11,7.08,5.1,5.1,0,0,0,11.58,7l-.31,1.23h-.19l-.3-.57Z"/><path class="cls-6" d="M17.38,16a3.62,3.62,0,0,0,0-.87,2,2,0,0,0-.34-.56,2.22,2.22,0,0,0-.51.39.7.7,0,0,1-1,.17c.37,0,.71,0,.89-.51.09-.25.48-.39.83-.65a12.18,12.18,0,0,1,.39,1.45C17.7,15.61,17.49,15.82,17.38,16Z"/><path class="cls-4" d="M20.46,6.57c-.08-.39-.12-.79.32-1,.12,0,.55.29.54.4C21.26,6.44,21,6.64,20.46,6.57Z"/><path class="cls-4" d="M18.41,15.39c-.27-.54-.49-1-.14-1.56A1.12,1.12,0,0,1,18.41,15.39Z"/><path class="cls-5" d="M15.19,1.8c.05.38.11.75.14,1.13,0,.08-.12.24-.16.23S14.9,3,14.9,3c0-.39,0-.77,0-1.16Z"/><path class="cls-4" d="M25.23,6.15c-.12.47-.24,1-.39,1.43a2.14,2.14,0,0,1-.28.48c.09-.64.16-1.28.28-1.9,0-.13.28-.22.42-.32s0,0,0,.06Z"/><path class="cls-5" d="M8.69,4.78a2.4,2.4,0,0,1,.38-.27c.07,0,.19.06.29.1l-.47.54-.34.31c-.06-.07-.19-.17-.17-.2A3.56,3.56,0,0,1,8.69,4.78Z"/><path class="cls-6" d="M9.31,12.06l.44-.32.58.82c-.34.09-.57.12-.68-.25C9.61,12.21,9.43,12.14,9.31,12.06Z"/><path class="cls-18" d="M11.52-.21c-.07.19-.17.37-.22.56a3,3,0,0,1-.22.83,2.67,2.67,0,0,1,.4-1.76C11.49-.46,11.51-.33,11.52-.21Z"/><path class="cls-18" d="M23.31,4.18h-.38V3.85L23,3.68l.29-.2.19.29C23.63,4,23.65,4.18,23.31,4.18Z"/><path class="cls-5" d="M23.77,7.07l.48-1.14.17.07L24,7.16Z"/><path class="cls-5" d="M11.22,10.87l-.31.51-.32-.24.43-.43Z"/><path class="cls-6" d="M8.52,9.66l-.19-.32.13-.09.21.3Z"/><path class="cls-6" d="M8.57,12.12l.43.17v.22Z"/><path class="cls-6" d="M9.06,12.29l.26-.23Z"/><path class="cls-3" d="M25.12,10.1v.32L25,10.21Z"/><path class="cls-6" d="M25.29,5.9s0,0,0-.06S25.31,5.87,25.29,5.9Z"/><path class="cls-5" d="M25.87,10.63l-.27.4s-.12-.12-.11-.16c.16-.51.34-1,.51-1.53.07.06.21.14.2.18C26.1,9.89,26,10.26,25.87,10.63Z"/><path class="cls-12" d="M25.7,4.11a.41.41,0,0,1,.05.16s0,.05-.05.08-.1-.06-.1-.08A.5.5,0,0,1,25.7,4.11Z"/><path class="cls-6" d="M28.52,6.48l0,0,0,0Z"/><path class="cls-3" d="M29,6S29,6,29,6s.06,0,.09-.06,0,.07,0,.09S29.07,6,29,6Z"/><path class="cls-19" d="M.57-5.48.9-5.82h.26L1-6.36H1L.88-6.78h0a4.61,4.61,0,0,1,.44.55,8,8,0,0,1,.34.77l.28-.62.6,1.17L2.15-3.85l-.54-.74-.39.21s0,0,0,0h0l.05,0L1.4-3.14h.08l.15-.71.43.21-.19.37,0,0,0,0,.48.15-.65.38c.66.31.77.57.5.88l-.06,0,0,.07v.55L2-1.36l-.36-.81L2-2l-.16-.51-.73.45c-.06.46.56.57.43,1l-.13.65L1.29-.57,1.08,0H1L.82-.26.77,0H.43a.29.29,0,0,1,0-.09c.29-.3.29-.34,0-.53v-.44C.19-1.38.3-2-.33-2c.07-.23.36-.55-.21-.53L-.49-3-.64-3l-.1.4-.52-.58.08-.09.34.13a1,1,0,0,0-.89-1.11c0-.1,0-.25,0-.3.29-.27.17-.38-.13-.46A.89.89,0,0,0-2-6.14c.67,0,.81-.43.43-1.2l.72-.09.16.53c-.42.13-.24.3,0,.47L-.55-6-.37-6l-.25-.44,0-.41.2.37.13-.12v-.47h0c.58,0,.22.41.23.65h0c0,.12-.16.28-.12.34C.12-5.6.5-5.11.86-4.6l.24-.26L.78-5,.55-5.47Zm1.17,2s0,0,0,0l0,0,0,.06Z"/><path class="cls-20" d="M.77,0l0-.26L1,0a1.71,1.71,0,0,0,.1.51c.18.35.15.59-.29.66l.34.52-.83.08L.25,1.45,0,1.56l.3.2c0,.17,0,.4-.26.19C0,1.91-.11,2-.2,2V2.2l-.05.15a1.41,1.41,0,0,0-1.18.18,1.28,1.28,0,0,1-.11-.2l-1.18.42c0-.23.06-.45-.37-.19l.37.19-.21.65-.86.17c.06-.3.35-.74-.13-.82s-.7.21-.58.77L-4,3.06l.13.1-.87,1.09.86.55S-4,4.94-4,4.93A.91.91,0,0,0-5,5.25c0,.06-.21,0-.32,0l-.21-.09.15-.73-.63.28L-6.13,4l-1.38-.33c-.25-.06-.56-.06-.46-.47,0,0-.13-.08-.18-.14s-.19-.27-.28-.4l.33,0L-8,2.9l.46-.24.34-.11.1,0,.06.08,0,.22.13-.2.46-.2h.06l.09.31L-6,2.51l.73-.14.47-.12h.3l.09.26.1,0V2.16l0-.15H-4l.23,0,.43.21,0,0,0,0,.11-.34.63-.34h.14L-2,1.11l.2,0L-1.19.9h.11c.24,0,.6.38.66-.2L-.3.34h.1L-.1.4,0,1.06l.12,0L.39.21.6.49ZM-2.18,2l-.17.14,0,0L-2.18,2l.14,0,0,0Zm1.86-.66-.29.09.06.11.24-.19,0-.05Zm-1.47.22.08.14.3-.2-.09-.13ZM-6.21,3a.75.75,0,0,0-.22-.07s-.1.07-.09.09.07.13.12.14S-6.31,3.05-6.21,3Zm.65,1-.12-.17s-.09,0-.09.09a.14.14,0,0,0,0,.13S-5.64,4-5.56,4Zm3.92-2-.15-.1s-.05.06,0,.09.05.07.08.11ZM-5.29,3c-.07,0-.1-.1-.14-.12s-.06,0-.09,0,0,.1.06.11S-5.37,3-5.29,3Zm-1.2.62a1.88,1.88,0,0,0,.12-.15s0-.06,0-.1-.1,0-.12.06S-6.5,3.54-6.49,3.64ZM-7.15,3l0,.09s.06,0,.08,0,0-.05,0-.08ZM-5,3s0-.07,0-.08,0,0-.08,0L-5,3ZM-.8,1.74s-.06-.05-.09,0,0,.06,0,.09.07,0,.09,0S-.81,1.77-.8,1.74ZM.63.82l0-.09L.53.78s0,0,0,.08Zm-3.75,2.1s-.07,0-.09,0,0,.05,0,.08.06,0,.08,0S-3.14,3-3.12,2.92Zm-2.1,1.33s0,0,0,0h0v.06Zm-.89-.81h0s0,0,0,0h.05S-6.11,3.45-6.11,3.44Zm-.63-.19-.08,0,0,0Zm1.41-.57h0v0h0S-5.34,2.7-5.33,2.68Z"/><path class="cls-11" d="M7.36-1.74A4.74,4.74,0,0,0,6.17.46a3.1,3.1,0,0,1-.57.75H5.47C5.37,1.13,5.22,1,5.19,1c-.41.27-.9.46-1,1L4,1.87l-.15-.32c.19-.24.39-.48.58-.73l.2-.15.1-.11h0L5,.34l.1-.11.11-.1.11,0L5.6-.42C6-1,6.28-1.56,6.68-2.08a3.83,3.83,0,0,1,.83-.66h.61a2.36,2.36,0,0,1-.57.44C7.21-2.18,7.12-2,7.36-1.74Z"/><path class="cls-21" d="M0,3.42-.2,3.19c.09,0,.26-.11.26-.15,0-.68.55-.57.91-.73l1-.43h.66l.13.34c-.4.46-.91.24-1.37.19a.72.72,0,0,0-.79.39A4.26,4.26,0,0,1,0,3.42Z"/><path class="cls-21" d="M2.64,1.87c0-.23-.08-.46-.09-.69s.05-.5.07-.75l.21,0,.26.48L3.45.61l.29.6H3.12l-.48.66Z"/><path class="cls-21" d="M4.42.82c-.19.25-.39.49-.58.73a.08.08,0,0,1-.08,0l0-.35h0l.39-1Z"/><path class="cls-20" d="M1.44,0a.81.81,0,0,1-.06,1.3c0-.33.35-.72-.13-.95L1.43,0Z"/><path class="cls-20" d="M1.08,0l.21-.57.14.15V0H1.08Z"/><path class="cls-21" d="M5.6-.42,5.28.1C5.3-.13,5.16-.46,5.6-.42Z"/><path class="cls-21" d="M3.29.09c0,.05.08.11.06.13a.26.26,0,0,1-.14.09S3.15.25,3.13.21Z"/><path class="cls-21" d="M2,1.88l-.23-.17.11-.1L2,1.87Z"/><path class="cls-21" d="M5,.34,4.72.55Z"/><path class="cls-21" d="M5.05.12l-.14,0,0,0,.12.08Z"/><path class="cls-21" d="M5.17.13l-.11.1V.12h.12Z"/><path class="cls-21" d="M4.72.56l-.1.11Z"/><path class="cls-6" d="M9.55-5.69l.1-.23a.15.15,0,0,1,.09,0l.07.06c-.21.7-.41,1.4-.66,2.08-.07.21-.31.36-.42.55s-.28.59-.42.88l.14.1.49-.24c0,.19-.08.33-.09.47s0,.33,0,.49a1.44,1.44,0,0,0,.48-.17,2.79,2.79,0,0,0,.36-.47l.32.44c-.57.78-.95.94-1.24.49A1.18,1.18,0,0,0,8.08.22c.05.19-.12.44-.19.66L7.67.47c-.3-.08-.41,0-.43.38a7.75,7.75,0,0,1-.23,1L6.48,1.7c.25-.49.63-1,.12-1.62.25-.37.56-.77.8-1.21.08-.15,0-.41,0-.61-.24-.3-.15-.44.19-.57a2.36,2.36,0,0,0,.57-.44l1.1-2.4Z"/><path class="cls-12" d="M7,1.89a7.75,7.75,0,0,0,.23-1c0-.34.13-.46.43-.38l.22.41-.55,1.8L8,2.44l.17.63c0,.17,0,.33,0,.5l-.39.51c-.38.09-.78.24-.86-.37v0l.65.12.13-.53.12-.39-.48,0h0V2.5l-.12.3Z"/><path class="cls-8" d="M4,1.87,4.17,2l-.09.7A2.15,2.15,0,0,0,5.47,1.22H5.6V2l.61-.06L3.53,3.2l0,0Z"/><path class="cls-15" d="M3.74,1.22l0,.35-.26.3-.2-.21,0,0,0,0-.53.57h0l-.13-.34.48-.66Z"/><path class="cls-6" d="M7.32,2.9l.48,0-.12.39-.13.53L6.9,3.73C7.08,3.47,7.49,3.33,7.32,2.9Z"/><path class="cls-21" d="M2.77,2.22l.53-.57h0l.2.21Z"/><path class="cls-6" d="M7.21,2.8l.12-.3v.39Z"/><path class="cls-11" d="M2.56,8.31l-.17.14Z"/><path class="cls-8" d="M3.53,3.2l-.06.08,0-.11Z"/><path class="cls-6" d="M3.49,7.66s0-.09.07-.14l.08.07-.06.15Z"/><path class="cls-4" d="M5.52,7a2.19,2.19,0,0,1,.88-2c.06,0,.26-.07.28,0a.83.83,0,0,1,.19.46A1.89,1.89,0,0,1,5.52,7Z"/><path class="cls-4" d="M8.62,5.85c.94.17,1.15.65.67,1.59-.3-.4-1-.27-1.06-1L8.61,6V5.85Z"/><path class="cls-12" d="M8.61,6l-.38.52c-.46-.11-.46-.11-.32-.41L7.68,5l.58-.36.43.18a3.56,3.56,0,0,0-.31.48s.11.13.17.2l.07.39h0l-.07,0Z"/><path class="cls-5" d="M3.58,7.74l.06-.15c.12,0,.32,0,.33,0,.18.4.5.79.24,1.28C3.65,8.77,3.51,8.5,3.58,7.74Z"/><path class="cls-4" d="M8.26,4.6,7.68,5c0-.29.05-.59.08-.88l.39-.51C8.52,3.88,8.33,4.25,8.26,4.6Z"/><path class="cls-5" d="M3.61,10.88l.71-1.54c.29.54.12,1-.56,1.6Z"/><path class="cls-12" d="M7.3,11.47a1.19,1.19,0,0,1,.17-1.83Z"/><path class="cls-12" d="M11.33,5.61l.31.29L11.5,6l-.31-.29Z"/><path class="cls-6" d="M5.6,20.09l-1.25-.43.07-.18a1.48,1.48,0,0,1,1.21.58Z"/><path class="cls-6" d="M4.46,16.35l-.17.45c-.42-.09-.44-.15-.24-.67Z"/><path class="cls-6" d="M3.52,15.48l-.25.19-.07-.14.31-.06Z"/><path class="cls-6" d="M6.91,12.67l-.11.17Z"/><path class="cls-6" d="M4.73,16.13l-.12.12Z"/><path class="cls-6" d="M4.62,16.24l-.17.12Z"/><path class="cls-6" d="M6.54,21.17l.23.16,0,.07-.26-.13Z"/><path class="cls-6" d="M4.63,24l.86.35C5,24.63,4.84,24.56,4.63,24Z"/><path class="cls-6" d="M11.19,19.09l.12.12Z"/><path class="cls-12" d="M8.9,3.4c-.29.05-.48,0-.46-.37.12-.18.23-.31.33,0C8.81,3.17,8.86,3.28,8.9,3.4Z"/><path class="cls-12" d="M9,3.42l-.1,0A.18.18,0,0,1,9,3.42Z"/><path class="cls-18" d="M19.8,13.55l.66-1.85.12.05L20,13.6Z"/><path class="cls-12" d="M20.68,11.32s0,0,0,0l0,0,0,0Z"/><path class="cls-12" d="M23.59,1.11l-.24.47-.13-.1.36-.37Z"/><path class="cls-12" d="M23,3.68l-.11.17Z"/><path class="cls-12" d="M9.14,11.32l.44-.41.16.16-.46.4Z"/><path class="cls-12" d="M9.82,10.83l-.13.06,0-.17Z"/><path class="cls-12" d="M24.79,8.13l.3-.61.13.07-.32.6Z"/><path class="cls-12" d="M25.46,6.72l-.17-.15,0,0,.14.18Z"/><path class="cls-22" d="M-.3.34-.42.7l-.45,0L-1.31-.49l-.32.72C-2.09,0-2,.35-2.06.6a2,2,0,0,0,.1.51l-.55.43-.07-.15-.07.14-.63.34c-.15-.1-.56.16-.44-.32.06-.08.1-.23.18-.25.48-.13.22-.56.35-.82C-3.6.29-3.42-.1-3.49-.4l.2-.25,0,.33c0,.3,0,.61.45.65s.49-.18.28-.56a3.85,3.85,0,0,1-.28-.85L-3.1-1l-.21,0-.23-.53-.18.19L-4-1.42l0-.25-.08,0,.09.23c-.08.23,0,.39.24.42h0L-4-.78l.27.85c-.56-.08-.56-.44-.55-.73a.67.67,0,0,0-.45-.76h0c.42-.3.1-.54-.17-.84l.49-.14,0,.52c.28-.38.27-.41,0-.53.6-.66.34.51.7.33l.29-.34a1.94,1.94,0,0,1,.13.2l.09.25a1.48,1.48,0,0,0,.1-.27,4.87,4.87,0,0,0,0-.54l.47.14c.29-.19.36-.38.07-.65a1.62,1.62,0,0,1-.23-.41c0-.89-.56-.11-.72-.14l-.34.24.22-1.1.85.29.33,0h0l.21.54h0l.66,1h0c-.3.49.22.65.4,1l-.18.36.1.14c.17-.1.35-.19.51-.3A2.47,2.47,0,0,0-.41-2h0l0,.25h.06V-2h0c.63,0,.52.6.77.91C-.16-.94-.24-.51-.18,0a.14.14,0,0,1,0,.09Z"/><path class="cls-15" d="M.77,0,.6.49.39.21.11,1.1,0,1.06-.1.4.43,0Z"/><path class="cls-13" d="M.43,0-.1.4-.2.34V.09A.14.14,0,0,0-.18,0L.34-.54.45-.1A.29.29,0,0,0,.43,0Z"/><path class="cls-15" d="M.34,1.76,0,1.56l.21-.11.09.31Z"/><path class="cls-15" d="M.63.82.55.86s0-.07,0-.08L.61.73Z"/><path class="cls-4" d="M5.47,1.22A2.15,2.15,0,0,1,4.08,2.69L4.17,2c.12-.56.61-.75,1-1C5.22,1,5.37,1.13,5.47,1.22Z"/><path class="cls-21" d="M3.3,1.65l0,0,0,0Z"/><path class="cls-6" d="M8.61,6l-.08-.08.07,0S8.61,5.92,8.61,6Z"/></g></g><path class="cls-23" d="M15,2.5A12.5,12.5,0,1,1,2.5,15,12.5,12.5,0,0,1,15,2.5M15,1A14,14,0,1,0,29,15,14,14,0,0,0,15,1Z"/><path class="cls-24" d="M6.16,23.84A12.5,12.5,0,0,1,23.84,6.16Z"/><path class="cls-25" d="M6.16,23.84A12.5,12.5,0,0,0,23.84,6.16Z"/><g class="cls-26"><g class="cls-27"><rect class="cls-28" x="18.08" y="-9.07" width="27.24" height="27.24"/><path class="cls-29" d="M35.14,2.6l-5.38-.14a.33.33,0,0,1,.1-.35.35.35,0,0,1,.38,0,6.52,6.52,0,0,1,.16-1,1.88,1.88,0,0,1,.53-.82A1.16,1.16,0,0,1,31.85,0a1.25,1.25,0,0,1,.85.72A3.72,3.72,0,0,1,33,1.82a.85.85,0,0,1,.39-.48.58.58,0,0,1,.61,0,.69.69,0,0,1,.22.34,1.4,1.4,0,0,1,0,.41.59.59,0,0,1,.37-.27.39.39,0,0,1,.38.25A1.28,1.28,0,0,1,35.14,2.6Z"/><path class="cls-29" d="M35.85,8.94,28,8.87a.95.95,0,0,1,1.11-1.32,4.38,4.38,0,0,1,.16-1,1.51,1.51,0,0,1,.5-.78,1.49,1.49,0,0,1,1.56-.08,2.62,2.62,0,0,1,1.09,1.21,1,1,0,0,1,1.77.74.51.51,0,0,1,.62-.11.61.61,0,0,1,.32.54.5.5,0,0,1,.43,0,.71.71,0,0,1,.26.35A1.68,1.68,0,0,1,35.85,8.94Z"/><path class="cls-29" d="M34.89,14.69l-6.37-.23A.52.52,0,0,1,28.8,14a.51.51,0,0,1,.53,0,2.91,2.91,0,0,1,.34-1.13,1.42,1.42,0,0,1,.91-.72,1.11,1.11,0,0,1,.87.16,1.16,1.16,0,0,1,.5.73.8.8,0,0,1,.75-.1.76.76,0,0,1,.46.58,1,1,0,0,1,1.13,0A1.34,1.34,0,0,1,34.89,14.69Z"/><path class="cls-29" d="M26.26,2.63c-.86.24-7.33.14-7.33.14a.36.36,0,0,1,.15-.33.4.4,0,0,1,.38,0,.66.66,0,0,1,.33-.53.69.69,0,0,1,.64,0A.8.8,0,0,1,21.61,1,1.56,1.56,0,0,1,23.14-.21,1.58,1.58,0,0,1,24.6,1.12a.86.86,0,0,1,.64.21.79.79,0,0,1,.25.6.67.67,0,0,1,.52.2A.69.69,0,0,1,26.26,2.63Z"/><path class="cls-29" d="M25.23,8.73l-5.3-.07a.46.46,0,0,1,.19-.49.5.5,0,0,1,.56,0,3,3,0,0,1,.24-1.56,1.57,1.57,0,0,1,1.25-.89,1.61,1.61,0,0,1,1.23.58A3.3,3.3,0,0,1,24,7.56a.62.62,0,0,1,.75-.34.84.84,0,0,1,.52.64A2.54,2.54,0,0,1,25.23,8.73Z"/><path class="cls-29" d="M25.69,15.17H19.51a1.45,1.45,0,0,1,.39-1.29,1.06,1.06,0,0,1,1.31-.11,4.37,4.37,0,0,1,.49-1.32,1.39,1.39,0,0,1,2.5.09,4,4,0,0,1,.43,1.6A.61.61,0,0,1,25,14a.57.57,0,0,1,.4.15.75.75,0,0,1,.23.45A3.9,3.9,0,0,1,25.69,15.17Z"/></g></g><g class="cls-30"><rect class="cls-31" x="-588.08" y="-557.96" width="1500" height="1000"/></g></svg>