<?xml version="1.0" encoding="UTF-8"?>
<svg id="Livello_1" data-name="Livello 1" xmlns="http://www.w3.org/2000/svg" xmlns:xlink="http://www.w3.org/1999/xlink" viewBox="0 0 30 30">
  <defs>
    <style>
      .cls-1 {
        clip-path: url(#clippath);
      }

      .cls-2 {
        fill: none;
      }

      .cls-2, .cls-3, .cls-4, .cls-5, .cls-6 {
        stroke-width: 0px;
      }

      .cls-4 {
        fill: #d1d1d1;
      }

      .cls-5 {
        fill: #fff;
      }

      .cls-6 {
        fill: #ebe6dc;
      }
    </style>
    <clipPath id="clippath">
      <path class="cls-2" d="m6.16,23.84c4.88,4.88,12.8,4.88,17.68,0s4.88-12.8,0-17.68L6.16,23.84Z"/>
    </clipPath>
  </defs>
  <path class="cls-4" d="m15,2.5c6.9,0,12.5,5.6,12.5,12.5s-5.6,12.5-12.5,12.5S2.5,21.9,2.5,15,8.1,2.5,15,2.5m0-1.5C7.28,1,1,7.28,1,15s6.28,14,14,14,14-6.28,14-14S22.72,1,15,1h0Z"/>
  <path class="cls-6" d="m6.16,23.84C1.28,18.96,1.28,11.04,6.16,6.16c4.88-4.88,12.8-4.88,17.68,0L6.16,23.84Z"/>
  <g class="cls-1">
    <g>
      <path class="cls-5" d="m24.23,27.92h-1.16c-.04-.6-.08-1.2-.13-1.8-.03-.42-.09-.83-.19-1.24-.21-.82-.42-1.63-.63-2.45-.11-.44-.24-.87-.3-1.32-.05-.34-.08-.68-.04-1.02.03-.26.09-.51.13-.76.08-.43.19-.85.34-1.26.2-.54.44-1.06.72-1.56.44-.77.88-1.53,1.38-2.26.33-.48.66-.97.97-1.46.31-.48.6-.97.9-1.46.53-.85.9-1.78,1.14-2.75.19-.8.36-1.6.54-2.4,0-.02,0-.04,0-.06-.16-.02-1.61-.01-1.69,0,0,.03-.02.07-.03.1-.12.53-.17,1.07-.22,1.61-.04.49-.11.98-.21,1.47-.11.54-.23,1.08-.35,1.62-.08.35-.2.68-.39.99-.25.41-.5.82-.75,1.23-.23.39-.48.76-.76,1.12-.02.02-.04.05-.06.07,0,0-.01,0-.02,0,0-.06.01-.12.02-.18.03-.24.06-.48.07-.72.02-.36,0-.73.02-1.09,0-.24.02-.49.04-.73.03-.36.08-.72.12-1.07.04-.38.1-.76.22-1.13.23-.69.39-1.4.53-2.11.06-.31.12-.61.18-.92,0-.02.02-.04.03-.08.01.04.03.07.03.09.04.27.07.53.06.8-.02.29-.03.58-.05.87-.02.37-.03.73-.1,1.1-.06.3-.1.61-.15.91-.05.3-.09.6-.13.91-.01.11,0,.24.03.31.02-.05.04-.09.05-.14.4-1.18.73-2.38.93-3.62.07-.45.1-.9.09-1.36,0-.02,0-.04,0-.07h-2.5s0,.03-.01.05c-.08.47-.18.94-.25,1.41-.08.49-.12.97-.11,1.47.01.47.08.93.14,1.4.04.34.08.68.08,1.02-.01.45-.01.9-.02,1.35,0,.31-.02.61-.07.91-.1.56-.2,1.12-.29,1.68-.07.4-.18.79-.37,1.16-.38.74-.76,1.47-1.13,2.21-.25.49-.51.98-.74,1.48-.38.84-.75,1.7-1.12,2.55-.25.57-.49,1.15-.67,1.75-.17.6-.38,1.19-.52,1.8-.08.34-.16.68-.19,1.03-.02.18-.04.36-.06.54h-.76c.01-.21.03-.42.04-.63,0-.41,0-.83,0-1.24,0-.26.02-.51.11-.76.12-.37.2-.75.24-1.14.04-.38.08-.76.11-1.14.05-.61.1-1.22.15-1.83.02-.27.07-.53.17-.79.08-.21.15-.43.23-.65.2-.54.4-1.09.61-1.62.2-.51.48-.98.75-1.45.4-.73.63-1.51.66-2.35.02-.66,0-1.32-.07-1.97-.08-.75-.21-1.48-.39-2.21-.11-.42-.25-.83-.45-1.23-.42-.82-.72-1.68-.86-2.6,0-.07-.03-.13-.04-.19h-.91c-.03.13-.03.25-.02.37.04.29.08.58.13.86.06.35.12.7.12,1.06,0,.25,0,.5-.02.75-.02.4-.09.8-.2,1.19-.26.88-.53,1.75-.79,2.63-.17.58-.3,1.16-.36,1.76-.03.26-.05.53-.07.79-.03.39-.07.78-.1,1.16-.02.22-.03.45-.03.68,0,.32,0,.64.03.96.03.45.14.89.24,1.33.15.6.27,1.2.28,1.82.01.47.04.94.06,1.41.02.33,0,.66-.06.99-.07.38-.11.76-.1,1.14,0,.31.04.62.06.92.06.66.11,1.32.1,1.98h-.98c.02-.17.05-.33.07-.5.1-.58.11-1.17.07-1.76-.05-.78-.18-1.55-.34-2.32-.11-.52-.24-1.03-.36-1.54-.06-.25-.13-.5-.15-.76-.04-.61,0-1.21.03-1.82.04-.62.09-1.23.12-1.85.03-.63.03-1.26.05-1.89,0-.34.02-.68.04-1.01.02-.21.06-.41.09-.61.03-.21.04-.43.08-.64.07-.42.19-.84.31-1.25.12-.38.28-.73.52-1.05.37-.5.56-1.08.6-1.7.02-.36.02-.73,0-1.09-.02-.42-.08-.83-.18-1.24,0-.03-.02-.05-.04-.1-.01.04-.02.06-.02.08,0,.08,0,.15,0,.23.02.29.05.58.06.87.02.56-.05,1.12-.2,1.66-.13.47-.36.88-.73,1.22-.34.31-.6.67-.77,1.1-.23.56-.47,1.12-.7,1.68-.03.07-.05.14-.06.22-.08.4-.16.81-.24,1.21-.08.42-.16.84-.31,1.25-.12.34-.2.68-.26,1.04-.04.25-.07.51-.13.75-.1.45-.22.89-.35,1.33-.15.56-.28,1.13-.37,1.7-.07.47-.14.94-.24,1.41-.13.65-.34,1.26-.67,1.83-.15.26-.29.54-.4.82-.15.39-.31.79-.45,1.18-.19.51-.38,1.03-.57,1.55h-.74s.01-.05.02-.07c.2-.65.33-1.32.46-1.99.04-.2.07-.4.14-.58.18-.42.37-.84.57-1.25.18-.37.35-.74.48-1.13.13-.41.24-.82.26-1.26.02-.41.03-.81.04-1.22,0-.05,0-.1-.01-.17-.06.05-.05.1-.06.14-.05.36-.1.73-.16,1.09-.08.5-.24.98-.49,1.43-.47.84-.99,1.66-1.54,2.45-.4.57-.73,1.18-.95,1.85-.08.24-.16.48-.23.73h-.76s.03-.1.06-.14c.11-.18.22-.36.33-.54.54-.88,1.03-1.78,1.44-2.73.22-.51.43-1.02.6-1.54.18-.55.28-1.11.36-1.68.09-.63.14-1.26.14-1.89,0-.44-.01-.87-.01-1.31,0-.56.06-1.11.17-1.66.1-.47.22-.94.32-1.41.08-.41.15-.81.22-1.22.03-.19.03-.38.07-.56.1-.51.26-1,.49-1.46.44-.87.88-1.74,1.33-2.6.17-.34.36-.68.48-1.04.08-.23.13-.46.2-.69.09-.33.19-.66.28-.99.03-.1.04-.21.06-.32-.13-.02-.59-.02-.68,0-.02.1-.03.2-.05.3-.04.32-.13.62-.28.91-.18.36-.43.67-.7.96-.36.38-.7.77-1.01,1.19-.38.52-.71,1.07-.9,1.68-.12.39-.22.79-.34,1.18-.3,1.05-.47,2.11-.55,3.2-.02.33-.05.65-.08.98-.02.25-.04.49-.05.74-.01.34.02.68.06,1.01.04.35.06.7.1,1.04.04.31.05.61,0,.91-.06.39-.12.78-.2,1.17-.1.45-.23.9-.36,1.35-.26.92-.54,1.84-.92,2.71-.02.05-.04.09-.06.13,0,0-.01,0-.02,0,.01-.04.02-.08.03-.12.07-.22.14-.44.2-.67.08-.29.17-.58.21-.88.05-.42.04-.83.06-1.25.02-.49.01-.97.02-1.46,0-.44-.03-.87-.1-1.3-.07-.4-.17-.8-.28-1.19-.1-.36-.17-.73-.14-1.11.03-.36.08-.71.16-1.06.12-.52.29-1.02.47-1.52.09-.25.17-.51.19-.78.02-.23.04-.46.05-.7.02-.32.02-.65,0-.97-.02-.25-.06-.5-.07-.75-.02-.39-.03-.78-.04-1.18,0-.41-.06-.82-.1-1.23-.04-.35-.07-.69-.03-1.04.02-.18.01-.37.02-.56,0-.16,0-.32.02-.48.05-.37.08-.74.07-1.11,0-.05,0-.09,0-.14h-.6s-.02.09-.03.13c-.04.21-.07.43-.13.64-.17.65-.44,1.24-.91,1.74-.31.33-.57.7-.79,1.09-.28.5-.47,1.03-.59,1.59-.05.26-.02.51,0,.77.02.17.04.33.03.5,0,.45.03.89.1,1.34.1.57.2,1.13.29,1.7.07.42.17.83.35,1.21.15.33.28.67.38,1.02.17.56.32,1.12.39,1.7.06.48.13.96.23,1.44.07.37.12.75.14,1.13,0,.21,0,.43,0,.64,0,.2,0,.41,0,.61,0,.44-.07.87-.14,1.3-.11.68-.3,1.34-.52,1.99-.14.44-.33.86-.54,1.26h-1.24c.17-.35.36-.69.52-1.04.28-.59.49-1.21.66-1.85.09-.33.16-.66.17-1,.02-.46,0-.92-.03-1.38-.04-.6-.14-1.18-.27-1.77-.23-1.03-.47-2.07-.71-3.1-.11-.49-.22-.98-.39-1.45-.1-.27-.19-.55-.25-.83-.04-.19-.07-.37-.11-.56-.17-.81-.27-1.62-.24-2.45.01-.37.04-.73.09-1.1.05-.41.12-.82.18-1.23.08-.55.22-1.08.45-1.59.14-.31.28-.61.43-.92.22-.46.43-.93.59-1.42.01-.04.02-.08.04-.13h-.14c-.02.05-.03.1-.05.15-.12.29-.24.59-.38.88-.16.35-.35.68-.52,1.02-.32.66-.59,1.34-.78,2.04-.12.43-.19.87-.26,1.3-.09.5-.14.99-.13,1.5,0,.16,0,.31,0,.47,0,.35-.02.7-.02,1.06,0,.42.05.83.12,1.24.14.77.3,1.54.43,2.31.08.45.15.9.21,1.36.05.36.08.72.12,1.07.06.53.09,1.06.1,1.59,0,.51,0,1.01-.01,1.52,0,.2-.01.41-.03.61-.04.49-.14.96-.23,1.44-.16.78-.38,1.53-.72,2.25h-1.2s.02-.08.03-.11c.07-.2.15-.39.21-.6.12-.43.22-.87.33-1.3.11-.46.21-.92.27-1.39.05-.4.11-.79.17-1.19.05-.3.11-.59.15-.89.06-.44.09-.88.15-1.32.05-.44.03-.88-.07-1.31-.16-.77-.27-1.55-.33-2.33-.04-.51-.08-1.03-.12-1.54-.04-.62-.08-1.24-.1-1.86-.02-.76,0-1.51.08-2.27.09-.78.23-1.55.43-2.31.3-1.13.74-2.22,1.15-3.32,0-.02,0-.04.02-.06-.02,0-.03,0-.04,0-.54,0-1.08,0-1.62,0-.06,0-.09.03-.12.07-.21.32-.36.67-.47,1.04-.16.54-.22,1.1-.28,1.65-.04.38-.07.76-.14,1.14-.11.64-.25,1.27-.37,1.9-.06.29-.12.58-.17.87-.04.21-.05.43-.08.64-.06.45-.15.9-.25,1.34-.1.44-.23.86-.45,1.26-.18.32-.36.65-.54.97-.12.22-.21.45-.27.69-.1.37-.11.75-.13,1.13-.02.44-.03.87-.05,1.31-.02.44-.02.87.04,1.31.03.21.02.42.02.63,0,.29-.03.57-.05.86-.03.38-.06.75-.09,1.13-.04.46-.09.92-.15,1.38-.06.5-.14.99-.22,1.49-.06.34-.16.68-.23,1.02h-.74c.09-.47.17-.94.21-1.42.05-.55.09-1.1.14-1.65.06-.69.08-1.39.08-2.08,0-.52-.02-1.04-.04-1.56-.01-.31-.05-.62-.05-.94,0-.48.03-.96.04-1.44,0-.05.01-.09.02-.14.17-.62.36-1.23.62-1.82.15-.33.31-.65.47-.97.23-.48.4-.98.57-1.49.14-.4.26-.8.35-1.21.15-.68.2-1.37.28-2.06.03-.27.07-.53.11-.8.04-.27.09-.55.11-.82.04-.51.12-1.01.28-1.5.19-.61.39-1.22.59-1.83,0-.03.01-.05.02-.08H.45s-.02.05-.03.08c-.18.61-.37,1.22-.54,1.83-.14.46-.22.94-.23,1.42,0,.17,0,.35,0,.52-.02.6-.11,1.19-.23,1.77-.08.41-.16.83-.23,1.24-.05.29-.09.58-.14.87-.12.61-.29,1.21-.46,1.81-.17.6-.37,1.2-.46,1.82-.07.45-.12.9-.12,1.36,0,.71.09,1.41.17,2.12.03.32.06.64.07.96.02.56.01,1.12.02,1.68,0,.16,0,.32,0,.48.01.32.03.64.03.96,0,.41,0,.82-.06,1.23-.03.27-.08.53-.13.8,0,.02-.02.03-.04.06-.02-.38-.04-.73-.04-1.08,0-.45-.06-.9-.18-1.34-.11-.4-.23-.8-.34-1.19-.17-.57-.33-1.14-.42-1.73-.1-.63-.21-1.27-.32-1.9-.02-.14-.05-.28-.07-.42-.03-.24-.01-.48.07-.71.16-.48.21-.99.24-1.49.02-.45.04-.91.07-1.36.01-.2.04-.4.1-.6.22-.8.43-1.6.65-2.4.17-.63.36-1.26.61-1.87.1-.26.21-.52.3-.78.11-.35.17-.72.21-1.09.04-.37.11-.73.15-1.1.03-.25.04-.51.04-.76,0-.29-.04-.57-.07-.86,0-.1-.03-.21-.04-.31-.14-.02-1.68-.02-1.77,0-.02.26-.05.52-.05.78-.01.57.07,1.12.16,1.68.05.32.1.63.11.95.03.63-.03,1.25-.19,1.86-.12.48-.26.95-.39,1.43-.07.25-.13.51-.21.76-.04.13-.05.25-.05.38,0,3.72,0,7.43,0,11.15,0,.1.02.19.05.28.12.37.25.74.36,1.11.14.46.24.93.19,1.42h-.63c0-7.28,0-14.55,0-21.83h38.82v.85s-.02.03-.02.05c-.06.2-.11.41-.18.61-.18.46-.36.91-.55,1.36-.51,1.21-1.17,2.35-1.84,3.48-.14.24-.28.49-.39.75-.43,1.01-.92,1.99-1.52,2.92-.07.11-.12.22-.18.34-.36.78-.68,1.58-.94,2.41-.32,1.02-.64,2.03-.88,3.07,0,.02-.02.04-.02.05-.04-.08-.06-.17-.07-.25-.05-.29-.12-.57-.16-.86-.06-.46-.02-.91.07-1.36.1-.48.22-.96.34-1.43.1-.41.24-.81.45-1.18.77-1.38,1.59-2.74,2.43-4.08.34-.54.67-1.09.94-1.67.3-.64.57-1.3.71-2,.08-.4.16-.8.23-1.2.05-.25.1-.5.13-.75.03-.33.02-.66.03-.99,0-.03,0-.06,0-.08-.15-.02-1.73-.02-1.82,0,0,.19,0,.37-.01.56,0,.32-.01.64-.08.95-.12.55-.25,1.1-.4,1.64-.15.54-.33,1.07-.51,1.6-.23.68-.48,1.36-.78,2.01-.5,1.09-.97,2.2-1.42,3.31-.2.5-.38,1-.49,1.54-.09.46-.18.91-.27,1.37-.1.48-.14.96-.11,1.45.02.31.04.62.11.92.1.47.28.93.48,1.37.42.89.8,1.8,1.14,2.73.23.62.44,1.25.57,1.9.03.15.05.29.08.44h-.52s-.02-.04-.02-.06c-.21-.79-.53-1.54-.98-2.22-.26-.4-.51-.81-.74-1.24-.26-.47-.49-.96-.73-1.44-.13-.25-.23-.51-.29-.79-.03-.12-.06-.23-.09-.35-.14-.53-.21-1.08-.22-1.63-.01-.36.01-.71.06-1.07.07-.5.15-1.01.28-1.5.19-.76.47-1.5.81-2.21.32-.67.66-1.34,1-2,.49-.97.92-1.95,1.3-2.97.34-.92.68-1.83.93-2.78.13-.46.23-.93.24-1.41,0-.05,0-.1,0-.15h-1.71s0,.05-.01.07c-.03.18-.04.36-.08.54-.13.56-.27,1.12-.41,1.68-.31,1.17-.69,2.31-1.07,3.46-.15.46-.29.93-.51,1.37-.05.11-.11.21-.15.33-.15.39-.3.77-.45,1.16-.23.6-.46,1.21-.62,1.84-.16.65-.34,1.3-.45,1.97-.07.42-.13.84-.2,1.26-.1.58-.15,1.16-.16,1.75,0,.45,0,.89.02,1.34.01.48.02.97.05,1.45.02.34.04.68.07,1.01.04.37.09.74.14,1.1.06.5.17,1,.31,1.48h-.81c.01-.09.03-.19.04-.28.03-.22.05-.45.03-.67-.02-.22-.02-.44-.05-.66-.04-.32-.08-.65-.15-.97-.07-.34-.16-.67-.24-1.01-.18-.74-.35-1.48-.53-2.22-.14-.58-.28-1.15-.33-1.74-.05-.63-.02-1.26.08-1.89.09-.5.25-.98.46-1.44.39-.83.78-1.67,1.18-2.49.59-1.22,1.18-2.44,1.72-3.69.19-.43.38-.85.55-1.28.22-.57.36-1.17.5-1.76.12-.51.21-1.03.31-1.55,0-.05.01-.1.02-.15h-.22s-.01.06-.02.09c-.04.17-.07.35-.12.52-.1.35-.22.69-.32,1.03-.33,1.08-.72,2.14-1.19,3.17-.23.5-.48.98-.73,1.47-.35.71-.75,1.4-1.17,2.08-.36.58-.72,1.17-1.08,1.76-.26.44-.49.89-.68,1.36-.23.59-.38,1.2-.5,1.82-.07.35-.13.7-.13,1.05,0,.25.01.51.03.76.02.35.06.69.12,1.03.09.47.22.93.35,1.4.18.62.36,1.24.52,1.86.16.59.25,1.19.31,1.79.02.21.02.41.03.62Zm-5.87-5.53s.03-.07.04-.11c.12-.4.25-.81.37-1.21.13-.42.26-.84.48-1.22.12-.2.22-.41.32-.62.26-.51.53-1,.84-1.48.21-.32.39-.65.55-1,.29-.64.47-1.31.52-2.01.04-.49.06-.98.07-1.47.01-.35.02-.71.02-1.06,0-.49-.02-.98-.04-1.47,0-.24,0-.47-.02-.71,0-.22-.03-.44-.03-.66,0-.48.03-.95.04-1.43.01-.47,0-.94-.05-1.41-.01-.14-.04-.28-.06-.42h-1.9s0,.04,0,.06c.02.2.03.4.06.6.04.31.09.62.14.93.06.38.1.76.24,1.12.01.04.02.08.03.13.03.2.06.41.09.61.09.47.19.95.28,1.42.11.52.22,1.03.32,1.55.07.36.12.73.18,1.1.05.28.05.56,0,.84-.13.75-.34,1.49-.62,2.2-.22.57-.51,1.1-.79,1.64-.3.57-.57,1.15-.75,1.76-.13.44-.22.88-.3,1.33-.06.33-.09.66-.06,1Zm-3.76-16.28c-.01.08-.03.16-.04.25-.07.43-.14.87-.22,1.3-.11.57-.31,1.1-.6,1.61-.23.4-.45.81-.67,1.21-.29.54-.55,1.09-.73,1.68-.1.32-.2.64-.33.96-.31.74-.5,1.52-.55,2.32-.05.76-.08,1.52-.12,2.28-.02.51-.03,1.03,0,1.54,0,.04,0,.07,0,.11,0,0,.02,0,.03,0,.01-.1.02-.19.03-.29.04-.35.08-.71.13-1.06.03-.24.09-.48.12-.72.03-.18.04-.36.07-.54.08-.43.17-.85.25-1.27.1-.47.21-.93.43-1.36.23-.46.47-.9.75-1.33.24-.37.52-.7.81-1.03.43-.51.85-1.01,1.32-1.49.29-.29.43-.67.47-1.08.02-.28-.02-.54-.09-.81-.1-.35-.16-.71-.16-1.08,0-.3.02-.6.02-.9,0-.09,0-.19,0-.29h-.91Zm-5.17,0s-.02.02-.02.03c-.13.47-.26.94-.37,1.41-.12.48-.15.98-.13,1.47,0,.26.02.52.03.77,0,.25,0,.49,0,.74,0,.02,0,.04,0,.07,0,0,.01,0,.02,0,.01-.04.02-.08.03-.12.08-.39.16-.79.25-1.18.06-.27.13-.55.24-.8.14-.3.32-.57.54-.81.19-.21.35-.43.5-.67.17-.28.28-.58.4-.88,0,0,0-.01,0-.02h-1.51ZM-3.37,11.72s.02,0,.03,0c.03-.07.06-.14.08-.21.21-.65.25-1.32.19-1.99-.04-.39-.11-.78-.19-1.17-.03-.15-.06-.3-.1-.45,0,0-.01,0-.02,0v3.81Z"/>
      <path class="cls-3" d="m5.91,27.92c.22-.4.4-.82.54-1.26.22-.65.41-1.31.52-1.99.07-.43.13-.86.14-1.3,0-.2,0-.41,0-.61,0-.21,0-.43,0-.64-.01-.38-.06-.75-.14-1.13-.1-.48-.17-.96-.23-1.44-.07-.58-.22-1.14-.39-1.7-.11-.35-.23-.69-.38-1.02-.18-.39-.28-.8-.35-1.21-.1-.57-.2-1.13-.29-1.7-.07-.44-.1-.89-.1-1.34,0-.17-.02-.33-.03-.5-.03-.26-.06-.51,0-.77.12-.56.3-1.09.59-1.59.23-.39.48-.77.79-1.09.47-.49.74-1.09.91-1.74.06-.21.08-.43.13-.64,0-.04.02-.08.03-.13h.6s0,.09,0,.14c0,.37-.03.74-.07,1.11-.02.16-.02.32-.02.48,0,.19,0,.37-.02.56-.03.35,0,.7.03,1.04.05.41.09.82.1,1.23,0,.39.02.79.04,1.18.01.25.05.5.07.75.03.32.02.65,0,.97-.01.23-.03.46-.05.7-.03.27-.1.53-.19.78-.18.5-.35,1-.47,1.52-.08.35-.13.7-.16,1.06-.03.38.03.75.14,1.11.11.39.22.78.28,1.19.07.43.11.87.1,1.3,0,.49,0,.97-.02,1.46-.01.42,0,.84-.06,1.25-.04.3-.12.59-.21.88-.07.22-.13.45-.2.67-.01.04-.02.08-.03.12,0,0,.01,0,.02,0,.02-.04.04-.09.06-.13.38-.88.66-1.79.92-2.71.13-.45.26-.9.36-1.35.09-.39.15-.78.2-1.17.04-.3.03-.61,0-.91-.04-.35-.06-.7-.1-1.04-.04-.34-.07-.67-.06-1.01,0-.25.03-.49.05-.74.02-.33.06-.65.08-.98.08-1.08.25-2.15.55-3.2.11-.39.21-.79.34-1.18.2-.62.52-1.16.9-1.68.31-.42.65-.81,1.01-1.19.27-.29.52-.6.7-.96.15-.29.24-.59.28-.91.01-.1.03-.2.05-.3.08-.02.55-.03.68,0-.02.11-.03.21-.06.32-.09.33-.19.66-.28.99-.07.23-.12.46-.2.69-.12.36-.3.7-.48,1.04-.44.87-.89,1.73-1.33,2.6-.23.46-.39.95-.49,1.46-.04.19-.04.38-.07.56-.07.41-.14.82-.22,1.22-.1.47-.22.94-.32,1.41-.11.55-.17,1.1-.17,1.66,0,.44,0,.87.01,1.31,0,.63-.05,1.26-.14,1.89-.08.57-.18,1.13-.36,1.68-.17.53-.38,1.04-.6,1.54-.41.95-.9,1.85-1.44,2.73-.11.18-.22.36-.33.54-.02.04-.04.09-.06.14h-1.09Zm1.33-11.37s.02,0,.03,0c.02-.1.04-.2.05-.3.04-.42.12-.84.22-1.26.17-.69.31-1.38.34-2.09.02-.41,0-.82-.05-1.23-.04-.3-.08-.59-.12-.89-.03-.25-.06-.51-.11-.76-.07-.39-.14-.77-.13-1.17,0-.02,0-.03-.01-.07-.02.03-.03.05-.04.07-.08.14-.16.28-.25.42-.09.14-.2.28-.3.42-.28.38-.5.78-.58,1.25-.04.21-.09.42-.06.63.03.29.07.58.11.87.06.46.13.92.19,1.38.06.45.14.9.31,1.32.13.34.23.68.32,1.03.03.12.06.25.1.37Z"/>
      <path class="cls-3" d="m17.57,27.92c.02-.18.04-.36.06-.54.03-.35.11-.69.19-1.03.14-.61.35-1.2.52-1.8.17-.6.42-1.18.67-1.75.37-.85.74-1.7,1.12-2.55.23-.5.49-.99.74-1.48.38-.74.76-1.48,1.13-2.21.19-.37.3-.75.37-1.16.09-.56.2-1.12.29-1.68.05-.3.07-.61.07-.91.01-.45.01-.9.02-1.35,0-.34-.04-.68-.08-1.02-.06-.47-.13-.93-.14-1.4-.01-.49.03-.98.11-1.47.08-.47.17-.94.25-1.41,0-.01,0-.03.01-.05h2.5s0,.05,0,.07c0,.46-.02.91-.09,1.36-.2,1.23-.54,2.43-.93,3.62-.01.04-.03.09-.05.14-.03-.07-.04-.2-.03-.31.04-.3.08-.61.13-.91.05-.31.08-.61.15-.91.08-.36.08-.73.1-1.1.02-.29.04-.58.05-.87.02-.27-.01-.54-.06-.8,0-.02-.02-.05-.03-.09-.02.04-.03.05-.03.08-.06.31-.12.61-.18.92-.14.71-.31,1.42-.53,2.11-.12.37-.18.75-.22,1.13-.04.36-.08.72-.12,1.07-.02.24-.03.49-.04.73,0,.36,0,.73-.02,1.09-.01.24-.05.48-.07.72,0,.06-.01.12-.02.18,0,0,.01,0,.02,0,.02-.02.04-.05.06-.07.29-.35.53-.73.76-1.12.25-.41.5-.82.75-1.23.19-.31.31-.64.39-.99.12-.54.24-1.08.35-1.62.1-.48.17-.97.21-1.47.04-.54.1-1.08.22-1.61,0-.04.02-.07.03-.1.08-.02,1.53-.03,1.69,0,0,.02,0,.04,0,.06-.18.8-.35,1.61-.54,2.4-.24.97-.6,1.9-1.14,2.75-.3.48-.59.98-.9,1.46-.32.49-.64.98-.97,1.46-.5.73-.94,1.5-1.38,2.26-.29.5-.53,1.02-.72,1.56-.15.41-.26.83-.34,1.26-.05.25-.1.51-.13.76-.05.34-.01.68.04,1.02.06.45.19.88.3,1.32.21.82.42,1.63.63,2.45.1.41.16.82.19,1.24.04.6.09,1.2.13,1.8h-1.88c0-.06,0-.12,0-.18,0-.11-.02-.22-.03-.33-.04-.35-.08-.69-.12-1.04-.04-.29-.08-.58-.07-.88.02-.63.05-1.26.06-1.9,0-.44-.02-.88-.03-1.32,0-.15-.02-.29,0-.44.02-.26.04-.51.07-.77.03-.31.07-.61.12-.92.09-.53.21-1.05.35-1.57,0-.03.01-.06.02-.09,0,0-.02,0-.02,0-.01.03-.03.06-.04.1-.11.28-.22.55-.33.83-.18.48-.37.96-.55,1.44-.18.49-.29,1-.41,1.5-.17.74-.33,1.48-.53,2.22-.27.97-.44,1.96-.45,2.97,0,.13-.01.26-.02.39h-1.62Z"/>
      <path class="cls-3" d="m30.45,27.92c-.03-.15-.05-.29-.08-.44-.13-.65-.34-1.28-.57-1.9-.34-.93-.72-1.83-1.14-2.73-.2-.44-.38-.89-.48-1.37-.07-.3-.09-.61-.11-.92-.03-.49.01-.97.11-1.45.1-.46.18-.91.27-1.37.1-.53.28-1.04.49-1.54.45-1.11.92-2.22,1.42-3.31.3-.66.55-1.33.78-2.01.18-.53.36-1.06.51-1.6.15-.54.27-1.09.4-1.64.07-.31.08-.63.08-.95,0-.19,0-.38.01-.56.09-.02,1.67-.03,1.82,0,0,.03,0,.05,0,.08,0,.33,0,.66-.03.99-.02.25-.08.5-.13.75-.07.4-.15.8-.23,1.2-.14.7-.41,1.36-.71,2-.27.58-.6,1.13-.94,1.67-.84,1.34-1.65,2.7-2.43,4.08-.21.37-.35.77-.45,1.18-.12.48-.24.95-.34,1.43-.1.45-.14.9-.07,1.36.04.29.1.57.16.86.02.08.04.17.07.25,0-.02.02-.04.02-.05.24-1.04.57-2.05.88-3.07.26-.82.58-1.62.94-2.41.05-.12.11-.23.18-.34.6-.92,1.09-1.91,1.52-2.92.11-.26.25-.51.39-.75.67-1.13,1.33-2.26,1.84-3.48.19-.45.38-.91.55-1.36.08-.2.12-.4.18-.61,0-.02.01-.03.02-.05v4.11s-.02.02-.02.03c-.11.32-.2.65-.33.97-.37.95-.87,1.8-1.62,2.51-.16.15-.3.34-.42.53-.31.53-.63,1.06-.93,1.6-.39.71-.79,1.41-1.26,2.08-.46.64-.83,1.34-1.11,2.09-.17.46-.27.93-.28,1.42,0,.27.04.54.08.81.02.18.04.37.07.55.09.44.28.83.48,1.23.26.51.54,1.02.8,1.54.25.49.44,1,.54,1.54h-.96Z"/>
      <path class="cls-3" d="m-2.78,27.92c.05-.49-.05-.96-.19-1.42-.11-.37-.24-.74-.36-1.11-.03-.09-.05-.18-.05-.28,0-3.72,0-7.43,0-11.15,0-.13.01-.26.05-.38.08-.25.14-.5.21-.76.13-.48.27-.95.39-1.43.15-.61.21-1.23.19-1.86-.01-.32-.06-.64-.11-.95-.09-.56-.17-1.12-.16-1.68,0-.26.04-.52.05-.78.09-.02,1.63-.03,1.77,0,.01.1.03.2.04.31.03.29.06.57.07.86,0,.25,0,.51-.04.76-.04.37-.11.73-.15,1.1-.04.37-.09.74-.21,1.09-.09.27-.19.53-.3.78-.24.61-.44,1.23-.61,1.87-.21.8-.43,1.6-.65,2.4-.05.2-.08.4-.1.6-.03.45-.05.91-.07,1.36-.02.51-.07,1.01-.24,1.49-.08.23-.1.47-.07.71.02.14.05.28.07.42.11.63.22,1.27.32,1.9.1.59.25,1.16.42,1.73.12.4.23.8.34,1.19.12.44.18.88.18,1.34,0,.35.03.7.04,1.08.02-.03.04-.05.04-.06.04-.27.09-.53.13-.8.05-.41.06-.82.06-1.23,0-.32-.02-.64-.03-.96,0-.16,0-.32,0-.48,0-.56,0-1.12-.02-1.68,0-.32-.04-.64-.07-.96-.08-.71-.17-1.41-.17-2.12,0-.46.06-.91.12-1.36.09-.62.29-1.22.46-1.82.17-.6.34-1.2.46-1.81.06-.29.09-.58.14-.87.07-.42.15-.83.23-1.24.11-.59.21-1.17.23-1.77,0-.17,0-.35,0-.52.02-.48.09-.95.23-1.42.18-.61.36-1.22.54-1.83,0-.02.02-.05.03-.08h1.57s-.01.05-.02.08c-.2.61-.4,1.22-.59,1.83-.15.49-.24.99-.28,1.5-.02.27-.07.55-.11.82-.04.27-.08.53-.11.8-.08.69-.13,1.38-.28,2.06-.09.41-.21.82-.35,1.21-.17.5-.34,1.01-.57,1.49-.15.32-.32.65-.47.97-.26.59-.45,1.2-.62,1.82-.01.05-.02.09-.02.14-.02.48-.04.96-.04,1.44,0,.31.04.62.05.94.02.52.04,1.04.04,1.56,0,.69-.02,1.39-.08,2.08-.04.55-.09,1.1-.14,1.65-.04.48-.13.95-.21,1.42h-1Z"/>
      <path class="cls-3" d="m-1.03,27.92c.08-.34.17-.68.23-1.02.09-.49.16-.99.22-1.49.06-.46.1-.92.15-1.38.04-.38.07-.75.09-1.13.02-.29.05-.57.05-.86,0-.21,0-.42-.02-.63-.05-.44-.06-.87-.04-1.31.02-.44.03-.87.05-1.31.02-.38.03-.76.13-1.13.06-.24.15-.47.27-.69.18-.32.36-.65.54-.97.22-.39.35-.82.45-1.26.1-.44.2-.89.25-1.34.03-.21.04-.43.08-.64.05-.29.11-.58.17-.87.12-.63.26-1.27.37-1.9.07-.38.1-.76.14-1.14.06-.56.12-1.11.28-1.65.11-.37.26-.72.47-1.04.03-.05.06-.07.12-.07.54,0,1.08,0,1.62,0,.01,0,.02,0,.04,0,0,.02,0,.04-.02.06-.4,1.1-.85,2.18-1.15,3.32-.2.76-.34,1.53-.43,2.31-.08.75-.1,1.51-.08,2.27.02.62.06,1.24.1,1.86.03.52.08,1.03.12,1.54.06.78.17,1.56.33,2.33.09.43.12.87.07,1.31-.05.44-.09.88-.15,1.32-.04.3-.1.59-.15.89-.06.4-.12.79-.17,1.19-.06.47-.15.93-.27,1.39-.11.43-.21.87-.33,1.3-.05.2-.14.4-.21.6-.01.04-.02.08-.03.11h-.22c.03-.12.05-.23.08-.35.11-.48.21-.96.25-1.45.04-.46.08-.93.12-1.39.05-.57.06-1.15.06-1.72,0-.68-.08-1.36-.1-2.04,0-.2-.05-.4-.08-.59-.08-.5-.16-1-.26-1.49-.11-.52-.24-1.03-.37-1.54-.07-.27-.12-.54-.11-.82,0-.18.02-.36.04-.53,0-.02,0-.04,0-.07-.01.01-.02.02-.02.02-.01.02-.02.05-.03.07-.17.45-.38.89-.64,1.3-.08.13-.15.27-.22.4-.28.6-.35,1.24-.32,1.9.02.44.07.87.1,1.3.03.31.06.62.08.93.03.34.05.67.07,1.01.03.73-.01,1.47-.05,2.2-.04.69-.11,1.37-.27,2.04-.06.27-.14.54-.22.81h-1.2Z"/>
      <path class="cls-3" d="m16.44,27.92c0-.66-.04-1.32-.1-1.98-.03-.31-.06-.62-.06-.92,0-.38.03-.76.1-1.14.06-.33.08-.66.06-.99-.02-.47-.05-.94-.06-1.41-.02-.62-.14-1.22-.28-1.82-.11-.44-.21-.88-.24-1.33-.02-.32-.03-.64-.03-.96,0-.23.02-.45.03-.68.03-.39.06-.78.1-1.16.02-.26.05-.53.07-.79.06-.6.19-1.18.36-1.76.26-.88.52-1.76.79-2.63.12-.39.18-.79.2-1.19.02-.25.02-.5.02-.75,0-.36-.06-.71-.12-1.06-.05-.29-.09-.57-.13-.86-.02-.12,0-.25.02-.37h.91c.01.06.03.13.04.19.13.92.44,1.78.86,2.6.2.39.34.8.45,1.23.18.73.31,1.46.39,2.21.07.66.09,1.31.07,1.97-.03.84-.26,1.62-.66,2.35-.26.48-.54.95-.75,1.45-.22.54-.41,1.08-.61,1.62-.08.21-.15.43-.23.65-.1.25-.14.52-.17.79-.05.61-.1,1.22-.15,1.83-.03.38-.07.76-.11,1.14-.04.39-.12.77-.24,1.14-.08.25-.1.51-.11.76,0,.41,0,.83,0,1.24,0,.21-.03.42-.04.63h-.37Zm.76-8.29s.01,0,.02,0c.01-.1.02-.2.04-.3.06-.43.12-.86.19-1.28.08-.48.16-.97.25-1.45.14-.71.35-1.41.54-2.11.2-.72.42-1.43.57-2.16.08-.38.14-.77.13-1.16,0-.36-.06-.71-.13-1.06-.14-.7-.38-1.37-.66-2.03,0-.02-.02-.03-.05-.07,0,.06,0,.1,0,.13,0,.16,0,.33,0,.49-.01.23-.02.47-.06.7-.05.36-.12.72-.19,1.07-.15.74-.3,1.48-.45,2.21-.08.4-.17.79-.2,1.19-.03.46-.04.92-.06,1.38-.01.4-.02.81-.04,1.21-.02.44-.05.88-.06,1.32-.01.56.03,1.11.11,1.66.01.08.03.17.04.25Z"/>
      <path class="cls-3" d="m26.24,27.92c-.13-.49-.25-.98-.31-1.48-.04-.37-.1-.74-.14-1.1-.03-.34-.06-.67-.07-1.01-.02-.48-.03-.97-.05-1.45-.01-.45-.02-.89-.02-1.34,0-.59.06-1.17.16-1.75.07-.42.13-.84.2-1.26.11-.66.29-1.31.45-1.97.16-.63.38-1.23.62-1.84.15-.39.29-.77.45-1.16.04-.11.1-.22.15-.33.22-.44.36-.9.51-1.37.38-1.15.76-2.29,1.07-3.46.15-.56.28-1.12.41-1.68.04-.18.05-.36.08-.54,0-.02,0-.04.01-.07h1.71s0,.1,0,.15c-.01.48-.12.95-.24,1.41-.26.95-.59,1.86-.93,2.78-.38,1.01-.81,2-1.3,2.97-.34.67-.67,1.33-1,2-.34.71-.62,1.44-.81,2.21-.12.49-.21,1-.28,1.5-.05.35-.07.71-.06,1.07.02.55.08,1.09.22,1.63.03.12.06.23.09.35.06.27.16.53.29.79.24.48.47.97.73,1.44.23.42.48.83.74,1.24.45.69.77,1.43.98,2.22,0,.02.02.04.02.06h-.74c-.19-.52-.45-1-.79-1.44-.28-.38-.56-.76-.8-1.17-.26-.46-.52-.92-.78-1.39-.17-.31-.3-.64-.37-.99,0-.03-.02-.07-.03-.12,0,.04-.01.05-.01.07-.01.51,0,1.03.08,1.53.1.65.23,1.3.39,1.95.13.53.28,1.05.48,1.56h-1.11Z"/>
      <path class="cls-3" d="m9.97,27.92c.19-.52.38-1.03.57-1.55.15-.39.3-.79.45-1.18.11-.29.24-.56.4-.82.33-.57.55-1.19.67-1.83.09-.47.17-.94.24-1.41.08-.58.21-1.14.37-1.7.12-.44.24-.88.35-1.33.06-.25.09-.5.13-.75.06-.35.13-.7.26-1.04.15-.4.22-.83.31-1.25.08-.4.16-.81.24-1.21.02-.07.04-.15.06-.22.23-.56.46-1.12.7-1.68.18-.42.43-.79.77-1.1.37-.33.6-.75.73-1.22.16-.54.22-1.1.2-1.66-.01-.29-.04-.58-.06-.87,0-.08,0-.15,0-.23,0-.02,0-.04.02-.08.02.05.03.07.04.1.1.41.16.82.18,1.24.02.36.03.73,0,1.09-.04.62-.22,1.2-.6,1.7-.24.32-.4.67-.52,1.05-.13.41-.24.82-.31,1.25-.04.21-.05.43-.08.64-.03.21-.07.41-.09.61-.02.34-.03.68-.04,1.01-.02.63-.02,1.26-.05,1.89-.03.62-.08,1.23-.12,1.85-.04.61-.08,1.21-.03,1.82.02.26.09.51.15.76.12.51.25,1.02.36,1.54.16.76.29,1.54.34,2.32.04.59.02,1.18-.07,1.76-.03.16-.05.33-.07.5h-1.88c.11-.37.23-.74.34-1.12.26-.85.49-1.71.52-2.61.01-.3,0-.6-.04-.89-.08-.51-.16-1.02-.22-1.53-.06-.59-.08-1.18-.03-1.76.05-.56.12-1.11.18-1.67.04-.41.05-.81.02-1.22-.02-.33-.05-.66-.08-.99,0-.1-.02-.19-.03-.31-.03.04-.04.06-.05.08-.03.08-.06.16-.09.24-.14.39-.22.79-.3,1.19-.11.59-.22,1.17-.24,1.77-.02.59-.1,1.17-.2,1.74-.06.36-.11.73-.1,1.1.01.31.04.62.06.94.02.34.01.68-.04,1.02-.1.68-.3,1.34-.58,1.97-.28.63-.57,1.26-.86,1.89-.02.05-.04.11-.06.16h-1.81Z"/>
      <path class="cls-3" d="m24.23,27.92c0-.21,0-.41-.03-.62-.06-.6-.16-1.2-.31-1.79-.17-.62-.35-1.24-.52-1.86-.13-.46-.26-.92-.35-1.4-.06-.34-.1-.68-.12-1.03-.01-.25-.03-.51-.03-.76,0-.35.06-.7.13-1.05.12-.62.27-1.23.5-1.82.19-.47.42-.93.68-1.36.35-.59.71-1.18,1.08-1.76.42-.68.82-1.37,1.17-2.08.24-.49.5-.97.73-1.47.47-1.03.86-2.09,1.19-3.17.1-.34.22-.69.32-1.03.05-.17.08-.35.12-.52,0-.03.01-.06.02-.09h.22c0,.05-.01.1-.02.15-.1.52-.18,1.04-.31,1.55-.14.59-.27,1.19-.5,1.76-.17.43-.37.86-.55,1.28-.54,1.24-1.13,2.47-1.72,3.69-.4.83-.8,1.66-1.18,2.49-.21.46-.37.94-.46,1.44-.11.63-.14,1.26-.08,1.89.05.59.19,1.17.33,1.74.18.74.35,1.48.53,2.22.08.34.18.67.24,1.01.06.32.11.65.15.97.03.22.03.44.05.66.02.23,0,.45-.03.67-.01.09-.02.19-.04.28h-1.2Z"/>
      <path class="cls-3" d="m3.49,27.92c.34-.72.57-1.47.72-2.25.1-.48.19-.96.23-1.44.02-.2.03-.41.03-.61,0-.51.02-1.01.01-1.52,0-.53-.04-1.06-.1-1.59-.04-.36-.07-.72-.12-1.07-.06-.45-.13-.91-.21-1.36-.14-.77-.3-1.54-.43-2.31-.07-.41-.12-.82-.12-1.24,0-.35.01-.7.02-1.06,0-.16,0-.31,0-.47,0-.5.05-1,.13-1.5.08-.44.15-.87.26-1.3.19-.71.46-1.39.78-2.04.17-.34.35-.68.52-1.02.14-.29.25-.59.38-.88.02-.05.04-.09.05-.15h.14s-.02.09-.04.13c-.16.49-.37.96-.59,1.42-.15.3-.29.61-.43.92-.23.51-.37,1.04-.45,1.59-.06.41-.13.82-.18,1.23-.04.36-.07.73-.09,1.1-.03.83.07,1.64.24,2.45.04.19.07.37.11.56.06.29.15.56.25.83.17.47.28.96.39,1.45.24,1.03.48,2.07.71,3.1.13.58.23,1.17.27,1.77.03.46.05.92.03,1.38-.02.34-.09.67-.17,1-.17.63-.38,1.25-.66,1.85-.17.35-.35.7-.52,1.04h-1.18Z"/>
      <path class="cls-5" d="m31.41,27.92c-.1-.54-.29-1.05-.54-1.54-.26-.51-.54-1.02-.8-1.54-.2-.39-.39-.79-.48-1.23-.04-.18-.05-.37-.07-.55-.04-.27-.08-.54-.08-.81,0-.49.11-.96.28-1.42.28-.74.65-1.44,1.11-2.09.47-.66.87-1.37,1.26-2.08.3-.54.62-1.07.93-1.6.11-.2.25-.38.42-.53.75-.7,1.25-1.56,1.62-2.51.12-.32.22-.65.33-.97,0,0,.01-.02.02-.03v1.18c-.12.23-.24.45-.35.68-.6,1.29-1.09,2.62-1.51,3.97-.07.21-.15.42-.26.61-.14.22-.27.44-.39.67-.39.7-.73,1.43-1.07,2.15-.08.17-.17.33-.31.46-.08.08-.15.17-.22.25-.26.33-.44.7-.61,1.08-.21.46-.26.93-.18,1.43.09.57.25,1.11.5,1.63.14.29.29.56.43.85.25.51.47,1.02.65,1.56.04.12.05.25.08.37h-.74Z"/>
      <path class="cls-5" d="m.17,27.92c.07-.27.15-.54.22-.81.16-.67.24-1.35.27-2.04.04-.73.08-1.47.05-2.2-.01-.34-.04-.68-.07-1.01-.02-.31-.05-.62-.08-.93-.04-.43-.08-.87-.1-1.3-.03-.65.04-1.29.32-1.9.06-.14.14-.27.22-.4.26-.41.46-.85.64-1.3,0-.02.02-.05.03-.07,0,0,0-.01.02-.02,0,.03,0,.05,0,.07-.01.18-.03.36-.04.53-.01.28.05.55.11.82.12.51.26,1.02.37,1.54.1.49.18.99.26,1.49.03.2.07.4.08.59.02.68.11,1.36.1,2.04,0,.57-.01,1.15-.06,1.72-.04.46-.08.93-.12,1.39-.04.49-.14.97-.25,1.45-.03.12-.05.23-.08.35h-.59s0-.03,0-.04c.15-.45.25-.92.33-1.39.07-.39.13-.79.14-1.19.01-.57-.05-1.14-.14-1.7-.06-.38-.1-.76-.15-1.13-.02-.16-.02-.33-.05-.49-.08-.46-.12-.91-.15-1.38-.02-.28-.05-.56-.08-.85,0-.04,0-.08-.05-.12,0,.05-.01.09-.02.13-.01.29-.03.58-.04.87,0,.48.01.97.01,1.45,0,.27,0,.55-.01.82,0,.27-.02.54-.04.81-.02.28-.05.55-.08.82-.03.29-.05.57-.11.85-.16.68-.31,1.35-.46,2.03-.04.17-.06.33-.1.5H.17Z"/>
      <path class="cls-5" d="m11.79,27.92c.02-.05.04-.11.06-.16.29-.63.58-1.25.86-1.89.28-.63.47-1.29.58-1.97.05-.34.07-.68.04-1.02-.02-.31-.05-.62-.06-.94-.01-.37.04-.73.1-1.1.1-.58.18-1.16.2-1.74.02-.6.13-1.18.24-1.77.08-.4.16-.81.3-1.19.03-.08.06-.16.09-.24,0-.02.02-.04.05-.08.01.12.02.22.03.31.03.33.06.66.08.99.03.41.02.81-.02,1.22-.06.56-.13,1.11-.18,1.67-.05.59-.04,1.18.03,1.76.06.51.13,1.02.22,1.53.05.29.05.59.04.89-.04.9-.26,1.76-.52,2.61-.11.37-.23.74-.34,1.12h-1.79Z"/>
      <path class="cls-5" d="m19.19,27.92c0-.13.02-.26.02-.39.01-1.01.18-2,.45-2.97.2-.73.36-1.48.53-2.22.12-.51.22-1.02.41-1.5.18-.48.37-.96.55-1.44.11-.28.22-.56.33-.83.01-.03.03-.06.04-.1,0,0,.02,0,.02,0,0,.03-.01.06-.02.09-.14.52-.27,1.04-.35,1.57-.05.3-.09.61-.12.92-.03.26-.05.51-.07.77,0,.14,0,.29,0,.44.01.44.04.88.03,1.32,0,.63-.04,1.26-.06,1.9,0,.3.03.59.07.88.04.35.08.69.12,1.04.01.11.02.22.03.33,0,.06,0,.12,0,.18h-2.01Z"/>
      <path class="cls-3" d="m7.77,27.92c.08-.24.15-.48.23-.73.22-.67.54-1.27.95-1.85.55-.79,1.07-1.6,1.54-2.45.25-.45.41-.92.49-1.43.06-.36.1-.73.16-1.09,0-.04,0-.09.06-.14,0,.07.02.12.01.17-.01.41-.02.81-.04,1.22-.02.43-.13.85-.26,1.26-.12.39-.3.76-.48,1.13-.2.41-.4.83-.57,1.25-.08.18-.1.39-.14.58-.13.67-.26,1.33-.46,1.99,0,.02-.01.05-.02.07h-1.46Z"/>
      <path class="cls-5" d="m27.35,27.92c-.2-.51-.35-1.03-.48-1.56-.16-.64-.28-1.29-.39-1.95-.08-.51-.09-1.02-.08-1.53,0-.01,0-.03.01-.07.02.06.03.09.03.12.07.35.19.68.37.99.26.46.52.93.78,1.39.24.41.52.79.8,1.17.33.44.6.92.79,1.44h-1.83Z"/>
      <path class="cls-3" d="m.5,27.92c.03-.17.06-.34.1-.5.15-.68.3-1.35.46-2.03.06-.28.09-.57.11-.85.02-.28.06-.55.08-.82.02-.27.03-.54.04-.81,0-.27.02-.55.01-.82,0-.48-.02-.97-.01-1.45,0-.29.02-.58.04-.87,0-.04,0-.08.02-.13.05.04.05.08.05.12.03.28.07.56.08.85.03.46.06.92.15,1.38.03.16.03.33.05.49.05.38.09.76.15,1.13.09.57.15,1.13.14,1.7-.01.4-.06.8-.14,1.19-.09.47-.19.93-.33,1.39,0,.01,0,.03,0,.04H.5Z"/>
      <path class="cls-3" d="m18.36,22.38c-.03-.34,0-.67.06-1,.08-.45.17-.89.3-1.33.18-.62.45-1.2.75-1.76.29-.54.57-1.07.79-1.64.28-.71.49-1.45.62-2.2.05-.28.04-.56,0-.84-.06-.37-.11-.73-.18-1.1-.1-.52-.22-1.03-.32-1.55-.1-.47-.19-.95-.28-1.42-.04-.2-.06-.41-.09-.61,0-.04-.01-.09-.03-.13-.13-.36-.17-.74-.24-1.12-.05-.31-.1-.62-.14-.93-.03-.2-.04-.4-.06-.6,0-.02,0-.03,0-.06h1.9c.02.14.04.28.06.42.05.47.06.94.05,1.41-.01.48-.03.95-.04,1.43,0,.22.02.44.03.66,0,.24,0,.47.02.71.01.49.03.98.04,1.47,0,.35,0,.71-.02,1.06-.02.49-.04.98-.07,1.47-.05.7-.24,1.37-.52,2.01-.16.35-.34.69-.55,1-.31.47-.59.97-.84,1.48-.1.21-.21.42-.32.62-.22.39-.36.8-.48,1.22-.12.4-.25.81-.37,1.21-.01.04-.03.07-.04.11Z"/>
      <path class="cls-3" d="m14.6,6.11h.91c0,.1,0,.19,0,.29,0,.3-.03.6-.02.9,0,.36.06.72.16,1.08.07.26.12.53.09.81-.04.41-.18.79-.47,1.08-.47.47-.89.98-1.32,1.49-.28.33-.57.66-.81,1.03-.28.43-.53.87-.75,1.33-.21.43-.33.89-.43,1.36-.09.42-.17.85-.25,1.27-.03.18-.04.36-.07.54-.04.24-.09.48-.12.72-.05.35-.09.71-.13,1.06-.01.1-.02.19-.03.29,0,0-.02,0-.03,0,0-.04,0-.07,0-.11-.03-.51-.02-1.03,0-1.54.04-.76.07-1.52.12-2.28.05-.8.24-1.58.55-2.32.13-.31.23-.63.33-.96.18-.59.44-1.14.73-1.68.22-.41.44-.81.67-1.21.29-.5.49-1.04.6-1.61.09-.43.15-.87.22-1.3.01-.08.03-.16.04-.25Z"/>
      <path class="cls-3" d="m9.44,6.11h1.51s.01.02,0,.02c-.12.3-.23.6-.4.88-.15.24-.32.46-.5.67-.22.25-.41.51-.54.81-.12.26-.18.53-.24.8-.09.39-.16.79-.25,1.18,0,.04-.02.08-.03.12,0,0-.01,0-.02,0,0-.02,0-.04,0-.07,0-.25,0-.49,0-.74,0-.26-.02-.52-.03-.77-.02-.5.01-.99.13-1.47.11-.47.25-.94.37-1.41,0,0,0-.01.02-.03Z"/>
      <path class="cls-5" d="m7.25,16.55c-.03-.12-.06-.25-.1-.37-.09-.35-.19-.69-.32-1.03-.16-.43-.25-.87-.31-1.32-.06-.46-.12-.92-.19-1.38-.04-.29-.08-.58-.11-.87-.02-.21.03-.42.06-.63.08-.47.31-.88.58-1.25.1-.14.21-.27.3-.42.09-.14.17-.28.25-.42.01-.02.02-.03.04-.07,0,.03.01.05.01.07,0,.4.06.78.13,1.17.05.25.07.5.11.76.04.3.08.59.12.89.05.41.06.82.05,1.23-.03.71-.17,1.41-.34,2.09-.1.41-.18.83-.22,1.26,0,.1-.03.2-.05.3,0,0-.02,0-.03,0Z"/>
      <path class="cls-5" d="m17.2,19.63c-.01-.08-.03-.17-.04-.25-.08-.55-.12-1.11-.11-1.66.01-.44.04-.88.06-1.32.02-.4.02-.81.04-1.21.02-.46.03-.92.06-1.38.02-.4.12-.8.2-1.19.15-.74.3-1.47.45-2.21.07-.36.13-.71.19-1.07.03-.23.04-.46.06-.7,0-.16,0-.33,0-.49,0-.03,0-.07,0-.13.03.04.04.05.05.07.28.66.52,1.33.66,2.03.07.35.12.7.13,1.06,0,.39-.05.78-.13,1.16-.15.73-.37,1.44-.57,2.16-.2.7-.41,1.4-.54,2.11-.09.48-.17.97-.25,1.45-.07.43-.13.86-.19,1.28-.01.1-.02.2-.04.3,0,0-.01,0-.02,0Z"/>
    </g>
  </g>
</svg>