<svg id="Livello_1" data-name="Livello 1" xmlns="http://www.w3.org/2000/svg" xmlns:xlink="http://www.w3.org/1999/xlink" viewBox="0 0 30 30"><defs><style>.cls-1,.cls-3{fill:none;}.cls-2{fill:#29272b;}.cls-3{stroke:#d43189;stroke-miterlimit:10;}.cls-4{fill:#d1d1d1;}.cls-5{clip-path:url(#clip-path);}.cls-6{fill:#4373a9;}.cls-7{fill:#d6e9f6;}.cls-8{fill:#6f91bc;}.cls-9{clip-path:url(#clip-path-2);}.cls-10{fill:#ece5d3;}</style><clipPath id="clip-path"><circle class="cls-1" cx="65" cy="15" r="12.5"/></clipPath><clipPath id="clip-path-2"><circle class="cls-1" cx="215" cy="15" r="12.5"/></clipPath></defs><circle class="cls-2" cx="15" cy="15" r="12.5"/><line class="cls-3" x1="2.33" y1="17.31" x2="17.82" y2="1.82"/><line class="cls-3" x1="3.36" y1="21.36" x2="21.36" y2="3.36"/><path class="cls-4" d="M15,2.5A12.5,12.5,0,1,1,2.5,15,12.5,12.5,0,0,1,15,2.5M15,1A14,14,0,1,0,29,15,14,14,0,0,0,15,1Z"/><g class="cls-5"><g id="Y9Jclw.tif"><path class="cls-6" d="M30.49,6.7l.05-.15,1.17-.62c.05,0,.08-.12.12-.18a16.66,16.66,0,0,1,1.09-1.83A1.11,1.11,0,0,0,33.11,3c0-.22,0-.43-.07-.63.6-.23.65-.33.67-.76s.11-.82.13-1.24a3,3,0,0,0-.05-.79c0-.08-.21-.12-.32-.18l-.25-.13L33.88-2l.29.38L34.34-3l-.16,0L34-2.35l-.12,0v-.92a1.33,1.33,0,0,0,.36-.89,3.08,3.08,0,0,1,.4-1.09l.52-.23.13.45h.19c.08-.61.17-1.22.24-1.83a2.33,2.33,0,0,0-.07-.53c0-.24-.13-.35-.35-.16,0-.27-.11-.58.27-.65.22,0,.51,0,.39-.3,0-.1-.37-.1-.56-.15l.33-.72a.77.77,0,0,0,.34-1,1.71,1.71,0,0,1,0-.39,9.27,9.27,0,0,0,.31-1.86c0-.41.08-.55.43-.61.09.08.23.26.27.24.32-.15.81-.16.74-.84l-.75.27h-.52c.09-.6.19-1.2.26-1.79a1.07,1.07,0,0,0-.07-.39c.16-.65.33-1.3.46-2,0-.14-.11-.32-.17-.48.07-.51,0-1.06.45-1.46l.64-.35v2a2.24,2.24,0,0,0,.59-2.33l-.52.05.19-.93.51-.7h.82s0,0,0,.09l-.33,1.2.81.11c0,.17,0,.33,0,.53.69-.36.76-.54.43-1l.88-1.61h.2a2.54,2.54,0,0,1,.14.75c0,.13-.25.24-.39.34l-.49.34L41-21l.38.07c-.28.94-.49,1.89-.83,2.79a3.66,3.66,0,0,0-.16,2.24c.44-.34.8-.8,1.26-.92.79-.22.73-.78.81-1.35a3.51,3.51,0,0,1,.33-.78l.16,0,.2,1a7.39,7.39,0,0,0,1-.8,3.92,3.92,0,0,0,.66-1.09,9.59,9.59,0,0,0,.37-1.31.84.84,0,0,1-.08,1,.81.81,0,0,0,0,.65,3.37,3.37,0,0,0,.55.61c.48-.29.13-.82.22-1.25.43,0,.73-.12.68-.68s.06-1.29,0-1.93a12.79,12.79,0,0,0-.35-1.58h-.18l-.28.68-.51-1c.53.22.84.15.87-.33A14.64,14.64,0,0,0,46-26.69a5.69,5.69,0,0,1,.08-.83,2.64,2.64,0,0,1,.55.15,3,3,0,0,1,.52.36,1.08,1.08,0,0,0,1.55-.1c.33.81-.24,1.49-.25,2.24.42,0,.68.1.57.58-.62.16-1.15.42-1.15,1.2h.51c-.49.43-1.06.78-1,1.62L50.15-22a3.42,3.42,0,0,0,.23-1.08,3.41,3.41,0,0,0-.49-1l-.21-.07-.15.49-.18-.1a1.13,1.13,0,0,1,0-.37c.12-.38.27-.75.42-1.11a4.31,4.31,0,0,1,.26-.47,5.83,5.83,0,0,1,.43-.73c.11-.15.33-.37.44-.33.48.13.76-.13,1.05-.42l.32.84-1.3,1c.1.09.22.21.36.32l.42.25A4.23,4.23,0,0,0,52-25.2c.08-.25.14-.5.18-.66L53-26l.43.26c.06-.15.2-.32.16-.44s-.12-.48-.44-.25l-.4.28a2.84,2.84,0,0,1,.82-1.57.24.24,0,0,1,.2,0c.17.19.32.4.48.6h0l0,0a.24.24,0,0,0,0,.08c0,.11,0,.21,0,.32s0,.49.06.59.4.07.6,0a1,1,0,0,0,.44-.21c.39-.31.32-.72-.17-.94l-.28,0,0,0-.15-.4c.12-.38.32-.66.27-.89s-.36-.42-.56-.64l.49-.35a1.18,1.18,0,0,0,1.7,0c.15-.15.28-.32.42-.48l-.55-.26h0c.19-.39.43-.13.61,0a1.35,1.35,0,0,0,1.33.15,2.2,2.2,0,0,1,0,.36c0,1-.08,1.95-.13,2.92,0,.78,0,1.55-.07,2.33l-.79-.24a9.79,9.79,0,0,0,.54-1,.58.58,0,0,0-.1-.54.71.71,0,0,0-.56.06,10.45,10.45,0,0,0-.87.61c0-.05,0-.11,0-.15a3.27,3.27,0,0,0-.25-.57c0-.05-.19,0-.29,0l.09.53a.88.88,0,0,0,0,.16c-.22,0-.61.06-.63.15-.08.38-.34.29-.57.31l-.14-.54-.16-.13h-.19a.11.11,0,0,0-.09.06h0v0l-.2.56a2.87,2.87,0,0,0-.79.27,6.64,6.64,0,0,0-.79.8l-.63.68c.68.12,1.32.08,1.46.8.53-.22.57-1,1.25-.84.34.67.51.68.94.06.2-.27.39-.56.5-.71.23.05.43.14.47.1a1.7,1.7,0,0,0,.14-.49l.48-.12c-.2.27-.4.53-.58.81-.09.13-.21.38-.15.45s.38.29.47.24c.36-.21.88-.12,1.09-.6.05-.1.2-.15.3-.23.06.32.13.64.19,1l-.37.75.42.19.39,2.42-.63,1c-.15.29-.2.6-.37.68a9.74,9.74,0,0,1-1.33.4.48.48,0,0,1,.18-.23,1.74,1.74,0,0,0,.26-.19c.22-.23.13-.58-.1-.51s-.34.33-.55.55l-.12-.28h0l.21-.46a.07.07,0,0,0,0-.06l.09-.16L57.13-20a1.86,1.86,0,0,0,.13.23,3.17,3.17,0,0,0,.29.32l.27-1.45-.6.3a9.75,9.75,0,0,1-.44-.94c-.16-.46-.36-.35-.64-.12s-.72.54-1.09.81a1.14,1.14,0,0,0,.19-1.33.91.91,0,0,0-.52-.4c-.09,0-.36.24-.37.38-.05.55,0,1.1,0,1.77l.73-.43-.36,3.26a1.53,1.53,0,0,1-.15-.72,4.48,4.48,0,0,0-.72-2.55c-.15-.33-.4-.29-.54.06s-.21.62-.36.91a1,1,0,0,0,0,1.13h0c-.61.17-.44.71-.4,1.08a3.37,3.37,0,0,0,.47,1.09s.17,0,.25,0a5,5,0,0,1,1.11.37c.35.2.58.31.78-.13.09-.18.21-.35.31-.52l.07-.11,0-.11.22,0-.23.87c.14,0,.38.08.41,0a1.63,1.63,0,0,0,.12-.58c.36-.19.81-.42,1.27-.64,0,0,.14.13.22.2a7.76,7.76,0,0,1-.47,1c-.34.5-.69,1-.23,1.56-1,.3-1.4,1-1,1.64l-2.16,1.28-.11-.1.73-1.37a1.81,1.81,0,0,0-1.6,1.3c.13.1.28.17.34.28s-.17.19-.21.31c-.18.44-.42-.14-.6.05h0l.25-.51-1.08-.26-.05.15.51.44c-.24.08-.44.2-.58.16s-.54-.3-.82-.38a7.46,7.46,0,0,0-1.4-.24,4,4,0,0,0-.91.1l-.09-.11.72-.82a1.34,1.34,0,0,0-2,.46,5.83,5.83,0,0,0-.39.62c0,.1.07.36.13.36a7.2,7.2,0,0,0,.95,0c.38.79,1.06.19,1.68.22a1.62,1.62,0,0,1-.64.42c-.3.1-.64.12-.94.24-1.06.42-2.11.86-3.16,1.32a10.69,10.69,0,0,0-1.27.73,3.89,3.89,0,0,0-.48.43,2.64,2.64,0,0,0,2.41-.48A6,6,0,0,1,46-8.95a.32.32,0,0,1,.29.08.37.37,0,0,1,0,.29c-.19.31-.34.62-.82.6-.2,0-.44.23-.59.41s.11.3.19.49a6.7,6.7,0,0,0-.69,1,.92.92,0,0,0,.09.7c.05.09.39,0,.59,0a2,2,0,0,0,.46-.18l.09-.06a.12.12,0,0,0,0,0l.23.17.22.21,0,.11-.36.42a3.28,3.28,0,0,0-.7.27c-.25.18-.4.46-.11.74a.88.88,0,0,0,1.35,0c.72-.66,1.42-1.35,2.13-2L48.7-6l.15.13c-.83.64-.83,2-2,2.31-.21.06-.31.47-.45.71l.7,0,.11,0c.34.34-.64.65,0,1a1.1,1.1,0,0,0,1.27-.33l.42.48a4.7,4.7,0,0,0,.38-.5,5.21,5.21,0,0,0,.28-.52.72.72,0,0,1-.3,1c-.34.17-.71.27-1,.43a.86.86,0,0,1-1-.21.69.69,0,0,0-.91-.06c-.23.14-.47.63-.38.81.19.37,0,.58-.12.83a9.91,9.91,0,0,0-.57,1.06c-.16.41,0,.55.43.47a.43.43,0,0,1,.38.19c.16.55.45.74,1,.41.69,1,.72,1,1.55.21l.85.51,1.07.59.43,1.18c-.42,0-.66,0-.89,0-.62-.07-.68,0-.64.58,0,.76,0,.76-.73.75a1.69,1.69,0,0,0-1.49-.7c-.18,0-.46.24-.46.37a.79.79,0,0,0,.36.53c.42.27.89.48,1.34.72l-.77.17c.16.34.45.66.38.87a3.37,3.37,0,0,1-.76,1.27c-.27.29-.35.52-.17.85a1.59,1.59,0,0,0-.21.15l-.51.47.49.41c.05.41-.25.44-.49.35-.63-.25-.87.05-1,.61a2.74,2.74,0,0,0,0,.64c.05.34-.07.49-.38.3s-.75-.53-1.12-.79a2.51,2.51,0,0,0,1.36-1.22,13.57,13.57,0,0,0-2,.17c-.72.16-1.4.5-2.12.69-.51.14-1,.24-1.1.95-.22-.93-.89.08-1.12-.25a6.41,6.41,0,0,0,.42-.69c.14-.33.25-.68.36-1a1,1,0,0,0,0-.3c-.12,0-.27-.06-.35,0s-.18.25-.29.37a2.91,2.91,0,0,1-.47.52c-.67.5-1.36,1-2,1.47l-.1.11-.43.77-.22-.11a.83.83,0,0,1,.08-.12l0,0-.05.15-.55-.22.13-.32.42-.12c.34-.26.82-.4.81-1a.76.76,0,0,0-.4.23,4.27,4.27,0,0,0-.29.41c.06-.45,0-.78-.42-.82l.09-.8-.16,0-.54,1.12-.16-.05.11.36-1.22.54h0l-.11-.1-.24-.67.22-.54L34,10.21c.25-.53.51-1.06.77-1.59l.4-.72c.24.39.59.73.44,1.25a1.74,1.74,0,0,0,0,.46s.17.06.19,0a1.8,1.8,0,0,0,.29-.43c.12-.29.2-.59.32-.88a4.62,4.62,0,0,1,.28-.48l.42-.73.2.12A4.88,4.88,0,0,0,37,7.9a1.89,1.89,0,0,0,0,.53,1.26,1.26,0,0,0,.46-.17c.56-.57,1.1-1.17,1.65-1.75a.43.43,0,0,1,.13-.09l.3.4c.16-.07.33-.1.41-.2a8.52,8.52,0,0,0,.53-.8A8.7,8.7,0,0,0,40.65,7c0,.12.28.2.44.25s.19-.09.23-.17c.2-.42-.38-1.25-.84-1.21l.06-1.35c.21.16.27.75.79.35.18.73.39.87.91.7.08-.24.13-.42.2-.6a2,2,0,0,0,.25-.66,1.24,1.24,0,0,0-1.45-1,1.9,1.9,0,0,1-.34,0l.15-.39a2.05,2.05,0,0,0,.58.13c.19,0,.45-.27.52-.21.51.41.91.19,1.42,0a5.46,5.46,0,0,1,1.61-.24,9.51,9.51,0,0,1-.3-.94c-.13-.74-.3-.93-1-1,.62-.59.72-1.32,0-1.68a6.23,6.23,0,0,0,.6-.41A3,3,0,0,0,45-2.19a.57.57,0,0,0,0-.49c0-.07-.35-.06-.44,0a10.63,10.63,0,0,0-.77.87c-.33.4-.23,1.09-.88,1.26l-.31,0-.06-.17-.08-.06c-.5.12-1.1,0-1.41.58l-.22,0h0l-.11-.2-.33-.34L40.23-1l-.07-.14.43-.28,0,0,.07-.08a3.44,3.44,0,0,0,.1-.63c0-.13-.1-.25-.15-.38l-.39.21-.08.12v0l-.33-.15a.22.22,0,0,1-.05-.08l-.42-.57c.26-.57.53-1.13.79-1.69.16-.37.23-.93.51-1.07.55-.28.56-.7.59-1.17.17-.17.33-.34.49-.53a1.34,1.34,0,0,1-.13-.15L41.2-7a.11.11,0,0,0,0,0l-.32.61c-.31-.41-.47-1.12-1.11-.81-.4.19-.65.69-1,1.09a2.81,2.81,0,0,0,0-.5.61.61,0,0,0-.16-.29,4.52,4.52,0,0,0-.89.33c-.09.06-.1.26-.15.4-.16.4-.33.8-.52,1.26l-.33-.73a2.81,2.81,0,0,0-.59.48c-.62.88-.4,1.91-.58,3l.6-.45a2.42,2.42,0,0,0,2.33-.71l.11.5H39l.25.56L38.34-.11l-.93.34c.37-.53.76-1,1.11-1.59a2.73,2.73,0,0,0,.19-.73c-.36.12-.57.27-.73.23-.41-.1-.55.14-.69.44l-.2-.22-.7-.45a1.38,1.38,0,0,0-.27.37C36-1.16,35.85-.6,35.69,0s-.36,1.06.47,1.21c.08,0,.14.15.26.3l.64-.6c.22.44,0,1-.53,1.54l-.41.26L36,2.59,36.32,2a3.12,3.12,0,0,0-.66,0,.75.75,0,0,0-.43.2c-.28.34-.52.73-.81,1.07a.85.85,0,0,1-.5.22c-.23,0-.9.8-.83,1s.17.1.25.15l0,0a.7.7,0,0,1-.41.78c-.31.16-.57.47,0,.91a2.77,2.77,0,0,0-.59-.07c-.35,0-.62.28-.42.57s0,.5,0,.75,0,.41,0,.62l.24.09,1.21-1.1a.39.39,0,0,0-.2.36,1.91,1.91,0,0,0,.19.5,1.71,1.71,0,0,0,.36-.35,2.82,2.82,0,0,0,.22-.56c.35.21.62.58.82-.06,0-.05.27,0,.4,0-.1.29-.22.57-.32.86L34,10.22l-.77,1.44c-.12-.3-.33-.26-.55-.13l.51-.85-.06-.1-.84.55-.06-.27-.65.34.4-1-.21-.1a6.73,6.73,0,0,0-.44.78c0,.07.17.23.26.35l-.32.56.53-.1a2.06,2.06,0,0,0,0,.58c0,.11.19.18.29.27v1l.18.23L32,14l-.31,0h0l-.13-.09c-.05,0-.12-.06-.13-.1,0-.57-.73-1-.32-1.69.05-.07,0-.23-.07-.34l-.38-.73-.91.12A3,3,0,0,0,31,9.1l-.44.14-.05-.05L31,8l-.45,0,.34-1.19Zm20-20.63c-.06-.07-.1-.15-.16-.21a4.12,4.12,0,0,0-.4-.33s-.14.11-.14.12a4.71,4.71,0,0,0,.29.48s.13,0,.2.06c-.34.31-.21,1-.82,1.09,0,.11.09.31.15.31.47,0,.89.49,1.42.09.2-.15.55-.09.82-.14.06,0,.16-.09.16-.14,0-.49.34-.64.75-.77.18-.05.31-.28.43-.46a6.66,6.66,0,0,0,.52-.89,2.2,2.2,0,0,0,.11-.64l-.53.25s-.07,0-.1,0c.23-.71.23-.71-.61-1l-.65,1.45Zm-8.83.38-.69.12c-.21-.13-.47-.35-.52-.31a1.59,1.59,0,0,0-.38.55c0,.07,0,.18,0,.27,0,.65,0,.63-.68.51a.77.77,0,0,0-.6.32,1.81,1.81,0,0,0,0,.71h.58c0,.42-.48.88.07,1.32a.78.78,0,0,1,.24.66c-.13.61.24,1,.51,1.49l.37-.44,0,.6A3,3,0,0,0,41-8.2c.43-.6.8-1.25,1.24-1.84a14.28,14.28,0,0,1,1.08-1.12c.06-.21.43-.73.71-.73h1l0-.17-.76-.64c.08-.3.08-.78.31-1a1,1,0,0,0,.28-1.16,2.7,2.7,0,0,1,0-.48l.51.08c-.48-.45-.16-.86,0-1.27.09-.24.19-.47.29-.71a.48.48,0,0,0-.57-.68c-.19,0-.37.08-.56.12l.18-.48-.25-.22a3.75,3.75,0,0,1-.21.5.72.72,0,0,1-.31.29c-.28.13-.59.21-.9.32l-.11-.33-.55,1.09a.67.67,0,0,0-.89.55c-.06.21,0,.47-.18.6-.33.34-.06.49.15.74l.32-.55.15.06c-.07.33-.16.67-.21,1a4.15,4.15,0,0,0,0,.61A.17.17,0,0,1,41.63-13.55Zm6.07-2.24a.55.55,0,0,1,.8.17c.08.12.3.15.45.21a2.21,2.21,0,0,0,.08-.4c-.44-.18-.31-.56-.36-.89a8.49,8.49,0,0,0-.24-1.22c0-.12-.22-.19-.33-.28a1.36,1.36,0,0,0-.13.42,1.48,1.48,0,0,0,.12.41l-.08,0-1-1.1-.2.08v.95c0,.62.19.77.89.6C47.1-16.42,47.54-16.14,47.7-15.79ZM57-28c.13.19.21.41.37.48a.49.49,0,0,0,.44-.21,3.35,3.35,0,0,0,.11-1.09.59.59,0,0,0-.37-.4c-.11,0-.28.16-.44.26-.42-.63-.78-.08-1.09.15a.71.71,0,0,0-.18.68C56.11-27.62,56.59-27.88,57-28ZM42.83,5.57a1.71,1.71,0,0,0,1.74-1,.54.54,0,0,0-.52-.78A1.67,1.67,0,0,0,42.83,5.57Zm4.69-18.88-.21-.78c-1.12-.07-1.89.22-2.05.78ZM46.91,3.36c-.25-.23-.5-.5-.52-.49-.3.26-.58.55-.86.83.22.14.5.45.63.39S46.61,3.67,46.91,3.36ZM39.33-15.71l.77-.19v-1.63l-.17,0ZM41.39,7.71c-.37.45-1,.76-.83,1.5C41.38,8.9,41.81,8.15,41.39,7.71Zm6.84-3.56-.09-.21c-.49.2-1,.39-1.46.61a2,2,0,0,0,.1.52C47.18,4.46,48,4.81,48.23,4.15ZM45.14-10.18v-.21c-.2-.08-.42-.26-.58-.22s-.32.3-.47.46c.14.13.31.38.42.35A2.12,2.12,0,0,0,45.14-10.18ZM40.76,10.68l.43.5a2.24,2.24,0,0,0,.45-.6c0-.1-.23-.3-.35-.45ZM39-16.06l.22,0,0-1.11-.23-.07-.51.76.5.17Zm11.35-3h.22c0-.39,0-.77,0-1.15,0-.09-.15-.17-.24-.25-.07.11-.22.22-.21.32A10.64,10.64,0,0,0,50.32-19.1Zm-1.46,2.23,1-.91c-.26,0-.49-.17-.62-.11A.94.94,0,0,0,48.86-16.87Zm6.74,3-.19-.1c-.55.18-.71.54-.35,1.19ZM44.11-10.39a4.4,4.4,0,0,0-.69-.42c-.06,0-.21.12-.32.19a7,7,0,0,0,.58.51S43.89-10.24,44.11-10.39ZM40.27,9.22C40,9.1,39.86,9,39.75,9s-.25.19-.37.3c.12.08.24.23.35.22S40,9.37,40.27,9.22Z"/><path class="cls-7" d="M30.49,6.7l.44.09L30.59,8,31,8l-.57,1.16-.15.21.07,0,.13-.21L31,9.1a3,3,0,0,1-1.17,2.1l.91-.12.38.73c0,.11.12.27.07.34-.41.67.29,1.12.32,1.69,0,0,.08.07.13.1l.13.09h0v.51s0,0,0,.06l-.08.13h0l-.68.56-.1.09c-.69.25-.86.46-.81,1l.64-.68.07.47h0l-.13.43a.38.38,0,0,1,0,.1l.14.1.6.08L33,16.22,33,16.08l-1.34-.28.15-.3,1.17-.34,1,.13-.29.62.11.13.68-.3c.15-.08.3-.18.45-.27h0c.09.07.17.2.27.2.31,0,.62,0,.93,0h0c.52.57-.32.35-.27.62s0,.32,0,.33a3.49,3.49,0,0,1-.65,0,4.46,4.46,0,0,1-.51-.07c.63.63.93.6,1.44.07a1,1,0,0,1,1.14-.24c.35.13.61.32.44.77,0,.06.11.17.16.26.14.26.4.53.4.79s-.4.42-.72.39-.87-.1-1.31-.16-.66-.21-.78.28l-.19.45c-.49-.23-1.09-.31-1.1-1.06a1.51,1.51,0,0,0-.24-.66c-.05-.11-.24-.25-.29-.23A1.54,1.54,0,0,1,32,17.15l-.38.94-.18,0-.2-.73-.72.56c.12.11.33.21.42.37a2.44,2.44,0,0,1,.17.67l-.19.1-.5-.57-.86.24.05.46c-.38-.07-.75-.15-1.13-.2a4.12,4.12,0,0,0-.61,0c-.41-.15-1-.12-.87-.77l-.75-.11c-.36-.8.55-.7.68-1.15l-.58-.33a9.78,9.78,0,0,0,.68-.75,3.13,3.13,0,0,0,.32-.6l.37-.18c.3-.27.61-.53.92-.79l-.18-.17L27.6,15l-.17,0c.4-1.16.8-2.33,1.22-3.48.55-1.55,1.12-3.09,1.69-4.62A1.14,1.14,0,0,1,30.49,6.7Zm-.29,3,.05-.12-.1.07-.1.12-.51.58-.12-.07-.33.63a1.56,1.56,0,0,0,1-1.09Zm-3,6.58a1.53,1.53,0,0,0,1.64-.45,2.91,2.91,0,0,0,.13-.82Z"/><path class="cls-8" d="M26.31,16.6l.58.33c-.13.45-1,.35-.68,1.15l.75.11c-.11.65.46.62.87.77l-.88,0c-.05-.16-.09-.32-.13-.48h-.15l-.1.44-1,.46-.26-.47c.23-.68.45-1.37.69-2C26.07,16.74,26.21,16.68,26.31,16.6Z"/><path class="cls-8" d="M27.68,15.07l-.37.18a.11.11,0,0,0,0-.08l.09-.14h0l.17,0Z"/><path class="cls-7" d="M27.42,15l-.09.14Z"/><path class="cls-8" d="M38.72,23.36h-.07L38.17,23l.25-.53H37.25c.07-.18.17-.21.21-.28s.34-.39.35-.59-.25-.49-.6-.46a.85.85,0,0,1-.31-.06,2.72,2.72,0,0,0-.89-.34c-.78,0-1.55.12-2.33.19l-4.11-1.77c0-.18,0-.35-.05-.46l.86-.24.5.57.19-.1a2.44,2.44,0,0,0-.17-.67c-.09-.16-.3-.26-.42-.37l.72-.56.2.73.18,0,.38-.94a1.54,1.54,0,0,0,1.63.12s.24.12.29.23a1.51,1.51,0,0,1,.24.66c0,.75.61.83,1.1,1.06l.84,0,.07-.19-.72-.3c.12-.49.47-.33.78-.28s.87.12,1.31.16.71,0,.72-.39-.26-.53-.4-.79l.15-.83.43.07c0,.18,0,.43.09.47a5.27,5.27,0,0,0,.82.28l0-.15L39.09,17l.37-.77,0-.23.08,0,.1-.11.06-.18.07-.13h.24l.17.84.43.17a2.51,2.51,0,0,0-.45.29,2.47,2.47,0,0,0-.31.46l1.12.51L41,18l-.55-.09-.16-.09h0c-.4-.28-.45-.28-.57,0l0,.33c-.31.14-.26.3,0,.47l.8,1,.08.13a.11.11,0,0,0,0,.08c-.1.69.59.31.87.61l-.88.07c.13.48.06.56-.38.45a2.48,2.48,0,0,0-.27,0,.34.34,0,0,0-.1,0l.28-.68c-.5-.07-1-.14-1.47-.19,0,0-.08.13-.11.2l.1.46c0,.13.07.31.15.36.41.19.83.35,1.25.52l.57.11,1.92.47c-.51.81-.81-.07-1.27,0l.54,1.09-.16.08c-.12-.2-.23-.42-.36-.61s-.28-.48-.38-.47a2.18,2.18,0,0,0-1.22.38c-.29.32.16.62.43.86,0,0,.06.09.1.13a2,2,0,0,0,2.28.55c.08,0,.13-.2.19-.31h0c.58.1.57.59.64,1a.84.84,0,0,0,.9.75c.49,0,.93,0,1-.64,0-.05.09-.09.14-.14.06.66.63.72,1.08.93a3.28,3.28,0,0,0,.17.38c.31-.11.62-.24.91-.36l-.14-.51a1.75,1.75,0,0,0-.38-.34c-.44-.2-.91-.38-1.37-.57,1.07-.43,1.21-.37,1.93.55.12.15.48.11.73.15l.31.12-.46,1.17,1.26-.16v.15l-.28.14a2.37,2.37,0,0,0-1.89,1l-.07.08-1.06-.31-.12,0c-.06-.08-.11-.2-.19-.24l-4.52-2.14-2.08-1.08Zm.33-1.3-.28.65.7-.3-.41-.36a2.31,2.31,0,0,0-.12-.47.49.49,0,0,0-.27-.26c-.08,0-.26.08-.29.16s0,.34.06.39A2.9,2.9,0,0,0,39.05,22.06Zm-2.43-2.83c-.13.05-.32.07-.39.16s0,.36.09.38a2.74,2.74,0,0,0,2,.32L37,19.52l.14-.12-.31-.46-.2.25Zm-3.73-.29c.51-.11.51-.11,1.28.47-.2-.39.06-.95-.61-.91S32.84,18.56,32.89,18.94Zm6.16.09-.09.3,1.29.38.08-.24Z"/><path class="cls-7" d="M26.57,18.89l.1-.44h.15c0,.16.08.32.13.48Z"/><path class="cls-6" d="M27.17,16.27,28.94,15a2.91,2.91,0,0,1-.13.82A1.53,1.53,0,0,1,27.17,16.27Z"/><path class="cls-6" d="M30.1,9.82a1.57,1.57,0,0,1-1,1.08l.33-.63.12.07.51-.58Z"/><path class="cls-8" d="M27.6,15l.82-.87.18.17c-.31.26-.62.52-.92.79Z"/></g></g><g class="cls-9"><rect class="cls-10" x="-488.08" y="-557.96" width="1500" height="1000"/></g></svg>