<svg id="Livello_1" data-name="Livello 1" xmlns="http://www.w3.org/2000/svg" xmlns:xlink="http://www.w3.org/1999/xlink" viewBox="0 0 30 30"><defs><style>.cls-1,.cls-5,.cls-6,.cls-7{fill:none;}.cls-2{clip-path:url(#clip-path);}.cls-3{fill:#3e2f2f;}.cls-4{fill:#12655c;}.cls-5{stroke:#24191f;}.cls-11,.cls-12,.cls-5,.cls-6,.cls-7{stroke-miterlimit:10;}.cls-5,.cls-6{stroke-width:0.22px;}.cls-11,.cls-6{stroke:#be7e4b;}.cls-7{stroke:#000;stroke-width:0.44px;}.cls-8{fill:#f1e8dc;}.cls-11,.cls-9{fill:#be7e4b;}.cls-10{fill:#fff;}.cls-11,.cls-12{stroke-width:0.88px;}.cls-12,.cls-13{fill:#43bfca;}.cls-12{stroke:#43bfca;}.cls-14{fill:#1a181d;}.cls-15{fill:#d1d1d1;}</style><clipPath id="clip-path"><circle class="cls-1" cx="15" cy="15" r="12.5"/></clipPath></defs><g class="cls-2"><circle class="cls-3" cx="15" cy="15" r="12.5"/><rect class="cls-4" x="11.76" y="2.11" width="3.81" height="25.77"/><line class="cls-5" x1="15" y1="2.11" x2="15" y2="27.89"/><line class="cls-6" x1="15.57" y1="2.11" x2="15.57" y2="27.89"/><rect x="8.15" y="2.85" width="2.83" height="1.76"/><line class="cls-7" x1="7.38" y1="2.85" x2="11.76" y2="2.85"/><line class="cls-7" x1="7.38" y1="4.6" x2="11.76" y2="4.6"/><rect class="cls-8" x="9.2" y="2.66" width="0.73" height="0.45"/><rect class="cls-8" x="9.2" y="4.38" width="0.73" height="0.45"/><polygon class="cls-9" points="9.21 7.04 9.21 6.46 7.38 6.46 7.38 5.73 9.21 5.73 9.21 4.84 9.93 4.84 9.93 5.73 11.76 5.73 11.76 6.46 9.93 6.46 9.93 7.04 9.21 7.04"/><rect x="8.15" y="7.23" width="2.83" height="1.76"/><line class="cls-7" x1="7.38" y1="7.23" x2="11.76" y2="7.23"/><line class="cls-7" x1="7.38" y1="8.99" x2="11.76" y2="8.99"/><rect x="9.2" y="5.73" width="0.73" height="0.73"/><rect class="cls-8" x="9.2" y="7.04" width="0.73" height="0.45"/><rect class="cls-8" x="9.2" y="8.76" width="0.73" height="0.45"/><polygon class="cls-9" points="9.21 11.42 9.21 10.84 7.38 10.84 7.38 10.11 9.21 10.11 9.21 9.22 9.93 9.22 9.93 10.11 11.76 10.11 11.76 10.84 9.93 10.84 9.93 11.42 9.21 11.42"/><rect x="8.15" y="11.61" width="2.83" height="1.76"/><line class="cls-7" x1="7.38" y1="11.61" x2="11.76" y2="11.61"/><line class="cls-7" x1="7.38" y1="13.37" x2="11.76" y2="13.37"/><rect x="9.2" y="10.11" width="0.73" height="0.73"/><rect class="cls-8" x="9.2" y="11.42" width="0.73" height="0.45"/><rect class="cls-8" x="9.2" y="13.14" width="0.73" height="0.45"/><polygon class="cls-9" points="9.21 15.8 9.21 15.22 7.38 15.22 7.38 14.49 9.21 14.49 9.21 13.61 9.93 13.61 9.93 14.49 11.76 14.49 11.76 15.22 9.93 15.22 9.93 15.8 9.21 15.8"/><rect x="8.15" y="15.99" width="2.83" height="1.76"/><line class="cls-7" x1="7.38" y1="15.99" x2="11.76" y2="15.99"/><line class="cls-7" x1="7.38" y1="17.75" x2="11.76" y2="17.75"/><rect x="9.2" y="14.49" width="0.73" height="0.73"/><rect class="cls-8" x="9.2" y="15.8" width="0.73" height="0.45"/><rect class="cls-8" x="9.2" y="17.53" width="0.73" height="0.45"/><polygon class="cls-9" points="9.21 20.18 9.21 19.6 7.38 19.6 7.38 18.87 9.21 18.87 9.21 17.99 9.93 17.99 9.93 18.87 11.76 18.87 11.76 19.6 9.93 19.6 9.93 20.18 9.21 20.18"/><rect x="8.15" y="20.37" width="2.83" height="1.76"/><line class="cls-7" x1="7.38" y1="20.37" x2="11.76" y2="20.37"/><line class="cls-7" x1="7.38" y1="22.13" x2="11.76" y2="22.13"/><rect x="9.2" y="18.87" width="0.73" height="0.73"/><rect class="cls-8" x="9.2" y="20.18" width="0.73" height="0.45"/><rect class="cls-8" x="9.2" y="21.91" width="0.73" height="0.45"/><polygon class="cls-9" points="9.21 24.57 9.21 23.98 7.38 23.98 7.38 23.26 9.21 23.26 9.21 22.37 9.93 22.37 9.93 23.26 11.76 23.26 11.76 23.98 9.93 23.98 9.93 24.57 9.21 24.57"/><rect x="8.15" y="24.76" width="2.83" height="1.76"/><line class="cls-7" x1="7.38" y1="24.76" x2="11.76" y2="24.76"/><line class="cls-7" x1="7.38" y1="26.51" x2="11.76" y2="26.51"/><rect x="9.2" y="23.26" width="0.73" height="0.73"/><rect class="cls-8" x="9.2" y="24.57" width="0.73" height="0.45"/><rect class="cls-8" x="9.2" y="26.29" width="0.73" height="0.45"/><rect class="cls-4" x="16.13" y="17.64" width="0.73" height="0.45"/><rect class="cls-4" x="16.13" y="15.89" width="0.73" height="0.45"/><rect class="cls-4" x="16.13" y="21.9" width="0.73" height="0.45"/><rect class="cls-4" x="16.13" y="20.16" width="0.73" height="0.45"/><rect class="cls-4" x="16.13" y="26.5" width="0.73" height="0.45"/><rect class="cls-4" x="16.13" y="24.76" width="0.73" height="0.45"/><rect class="cls-10" x="13.86" y="17.64" width="0.73" height="0.45"/><rect class="cls-10" x="13.86" y="15.89" width="0.73" height="0.45"/><rect class="cls-10" x="13.86" y="21.9" width="0.73" height="0.45"/><rect class="cls-10" x="13.86" y="20.16" width="0.73" height="0.45"/><rect class="cls-10" x="13.86" y="26.5" width="0.73" height="0.45"/><rect class="cls-10" x="13.86" y="24.76" width="0.73" height="0.45"/><rect class="cls-4" x="16.13" y="13.38" width="0.73" height="0.45"/><rect class="cls-4" x="16.13" y="11.64" width="0.73" height="0.45"/><rect class="cls-10" x="13.86" y="13.35" width="0.73" height="0.45"/><rect class="cls-10" x="13.86" y="11.61" width="0.73" height="0.45"/><rect class="cls-4" x="16.13" y="8.75" width="0.73" height="0.45"/><rect class="cls-4" x="16.13" y="7.01" width="0.73" height="0.45"/><rect class="cls-10" x="13.86" y="8.75" width="0.73" height="0.45"/><rect class="cls-10" x="13.86" y="7.01" width="0.73" height="0.45"/><rect class="cls-4" x="16.13" y="4.37" width="0.73" height="0.45"/><rect class="cls-4" x="16.13" y="2.63" width="0.73" height="0.45"/><rect class="cls-10" x="13.86" y="4.37" width="0.73" height="0.45"/><rect class="cls-10" x="13.86" y="2.63" width="0.73" height="0.45"/><path class="cls-11" d="M11.89,8.3v.46h-.23V8.3h-.29V7.91h.29V7.45h.23v.46"/><path class="cls-11" d="M11.89,3.92v.46h-.23V3.92h-.29V3.53h.29V3.07h.23v.46"/><path class="cls-11" d="M11.89,12.68v.47h-.23v-.47h-.29V12.3h.29v-.47h.23v.47"/><path class="cls-11" d="M11.89,17.07v.46h-.23v-.46h-.29v-.39h.29v-.47h.23v.47"/><path class="cls-11" d="M11.89,21.45v.46h-.23v-.46h-.29v-.39h.29V20.6h.23v.46"/><path class="cls-11" d="M11.89,25.83v.46h-.23v-.46h-.29v-.39h.29V25h.23v.46"/><path class="cls-12" d="M13,8.33v.46h-.24V8.33h-.28V7.94h.28V7.47H13v.47"/><path class="cls-12" d="M13,3.94V4.4h-.24V3.94h-.28V3.56h.28V3.09H13v.47"/><path class="cls-12" d="M13,12.71v.46h-.24v-.46h-.28v-.39h.28v-.46H13v.46"/><path class="cls-12" d="M13,17.09v.46h-.24v-.46h-.28V16.7h.28v-.46H13v.46"/><path class="cls-12" d="M13,21.47v.46h-.24v-.46h-.28v-.39h.28v-.46H13v.46"/><path class="cls-12" d="M13,25.85v.47h-.24v-.47h-.28v-.38h.28V25H13v.47"/><path class="cls-12" d="M11.63,5.73V5.26h.24v.47h.28v.39h-.28v.46h-.24V6.12"/><path class="cls-12" d="M11.63,10.13V9.67h.24v.46h.28v.39h-.28V11h-.24v-.46"/><path class="cls-12" d="M11.66,14.51v-.46h.24v.46h.28v.39H11.9v.46h-.24V14.9"/><path class="cls-12" d="M11.63,18.87v-.46h.24v.46h.28v.39h-.28v.46h-.24v-.46"/><path class="cls-12" d="M11.63,27.61v-.46h.24v.46h.28V28h-.28v.46h-.24V28"/><path class="cls-12" d="M11.63,23.25v-.47h.24v.47h.28v.39h-.28v.46h-.24v-.46"/><rect class="cls-9" x="5.39" y="4.84" width="1.99" height="20.14"/><path class="cls-12" d="M7.77,6.14V6.6H7.53V6.14H7.25V5.75h.28V5.29h.24v.46"/><path class="cls-12" d="M7.77,10.54V11H7.53v-.46H7.25v-.39h.28V9.69h.24v.46"/><path class="cls-12" d="M7.74,14.92v.46H7.51v-.46H7.22v-.39h.29v-.46h.23v.46"/><path class="cls-12" d="M7.77,19.28v.46H7.53v-.46H7.25v-.39h.28v-.46h.24v.46"/><path class="cls-12" d="M7.77,23.66v.46H7.53v-.46H7.25v-.39h.28v-.46h.24v.46"/><rect class="cls-9" x="7.38" y="7.45" width="0.77" height="1.3"/><rect class="cls-9" x="7.38" y="11.84" width="0.77" height="1.3"/><rect class="cls-9" x="7.38" y="16.22" width="0.77" height="1.3"/><rect class="cls-9" x="7.38" y="20.6" width="0.77" height="1.3"/><rect class="cls-9" x="7.38" y="24.98" width="0.77" height="1.31"/><polygon class="cls-13" points="5.39 20 5.39 20.7 6.01 20.7 6.01 21.71 5.39 21.71 5.39 22.42 6.09 22.41 7.38 21.91 7.38 20.6 6 20 5.39 20"/><polygon class="cls-13" points="5.39 15.61 5.39 16.31 6.01 16.31 6.01 17.32 5.39 17.32 5.39 18.02 6.09 18.02 7.38 17.51 7.38 16.21 6 15.61 5.39 15.61"/><polygon class="cls-13" points="5.39 11.23 5.39 11.93 6.01 11.93 6.01 12.94 5.39 12.94 5.39 13.65 6.09 13.64 7.38 13.13 7.38 11.83 6 11.23 5.39 11.23"/><polygon class="cls-13" points="5.39 6.87 5.39 7.56 6.01 7.56 6.01 8.57 5.39 8.57 5.39 9.28 6.09 9.28 7.38 8.77 7.38 7.46 6 6.87 5.39 6.87"/><rect class="cls-4" x="5.39" y="20.01" width="0.6" height="0.7"/><rect class="cls-4" x="5.39" y="21.71" width="0.6" height="0.7"/><rect class="cls-4" x="5.39" y="15.61" width="0.6" height="0.7"/><rect class="cls-4" x="5.39" y="17.31" width="0.6" height="0.7"/><rect class="cls-4" x="5.39" y="11.24" width="0.6" height="0.7"/><rect class="cls-4" x="5.39" y="12.94" width="0.6" height="0.7"/><rect class="cls-4" x="5.39" y="6.87" width="0.6" height="0.7"/><rect class="cls-4" x="5.39" y="8.57" width="0.6" height="0.7"/><rect class="cls-13" x="4.69" y="6.87" width="0.7" height="17.7"/><rect class="cls-14" x="1.77" y="7.22" width="2.92" height="16.4"/></g><path class="cls-15" d="M15,2.5A12.5,12.5,0,1,1,2.5,15,12.5,12.5,0,0,1,15,2.5M15,1A14,14,0,1,0,29,15,14,14,0,0,0,15,1Z"/></svg>