<svg id="Livello_1" data-name="Livello 1" xmlns="http://www.w3.org/2000/svg" xmlns:xlink="http://www.w3.org/1999/xlink" viewBox="0 0 30 30"><defs><style>.cls-1,.cls-5,.cls-7{fill:none;}.cls-2{clip-path:url(#clip-path);}.cls-3{fill:#1f1d20;}.cls-10,.cls-4{fill:#43bfca;}.cls-5{stroke:#f2ead3;}.cls-10,.cls-11,.cls-5,.cls-7,.cls-9{stroke-miterlimit:10;}.cls-5,.cls-7{stroke-width:0.22px;}.cls-6,.cls-9{fill:#f1e8dc;}.cls-7,.cls-9{stroke:#f1e8dc;}.cls-11,.cls-8{fill:#1a181d;}.cls-10,.cls-11,.cls-9{stroke-width:0.88px;}.cls-10{stroke:#43bfca;}.cls-11{stroke:#1a181d;}.cls-12{fill:#f2ead3;}.cls-13{fill:#d1d1d1;}</style><clipPath id="clip-path"><circle class="cls-1" cx="15" cy="15" r="12.5"/></clipPath></defs><g class="cls-2"><circle class="cls-3" cx="15" cy="15" r="12.5"/><rect class="cls-4" x="11.96" y="2.11" width="3.61" height="25.77"/><line class="cls-5" x1="15.57" y1="2.11" x2="15.57" y2="27.89"/><rect class="cls-6" x="13.06" y="3.31" width="1.42" height="0.88"/><line class="cls-7" x1="12.68" y1="3.31" x2="14.87" y2="3.31"/><line class="cls-7" x1="12.68" y1="4.19" x2="14.87" y2="4.19"/><rect class="cls-6" x="13.59" y="2.56" width="0.37" height="0.37"/><rect class="cls-8" x="13.59" y="4.08" width="0.37" height="0.22"/><rect class="cls-8" x="13.59" y="3.2" width="0.37" height="0.22"/><path class="cls-9" d="M10,8.3v.46H9.79V8.3H9.5V7.91h.29V7.45H10v.46"/><path class="cls-9" d="M10,3.92v.46H9.79V3.92H9.5V3.53h.29V3.07H10v.46"/><path class="cls-9" d="M10,12.68v.47H9.79v-.47H9.5V12.3h.29v-.47H10v.47"/><path class="cls-9" d="M10,17.05v.47H9.79v-.47H9.5v-.38h.29V16.2H10v.47"/><path class="cls-9" d="M10,21.43v.46H9.76v-.46H9.48V21h.28v-.46H10V21"/><path class="cls-9" d="M10,25.81v.46H9.76v-.46H9.48v-.39h.28V25H10v.46"/><path class="cls-10" d="M11.12,8.33v.46h-.24V8.33H10.6V7.94h.28V7.47h.24v.47"/><path class="cls-10" d="M11.12,3.94V4.4h-.24V3.94H10.6V3.56h.28V3.09h.24v.47"/><path class="cls-10" d="M11.12,12.71v.46h-.24v-.46H10.6v-.39h.28v-.46h.24v.46"/><path class="cls-10" d="M11.12,17.08v.46h-.24v-.46H10.6v-.39h.28v-.46h.24v.46"/><path class="cls-10" d="M11.1,21.45v.46h-.24v-.46h-.29v-.38h.29V20.6h.24v.47"/><path class="cls-10" d="M11.1,25.83v.46h-.24v-.46h-.29v-.39h.29V25h.24v.46"/><path class="cls-10" d="M9.76,5.73V5.26H10v.47h.29v.39H10v.46H9.76V6.12"/><path class="cls-10" d="M9.76,10.13V9.67H10v.46h.29v.39H10V11H9.76v-.46"/><path class="cls-10" d="M9.79,14.51v-.46H10v.46h.28v.39H10v.46H9.79V14.9"/><path class="cls-10" d="M9.76,18.87v-.46H10v.46h.29v.39H10v.46H9.76v-.46"/><path class="cls-10" d="M9.76,23.25v-.47H10v.47h.29v.39H10v.46H9.76v-.46"/><rect class="cls-6" x="13.06" y="7.68" width="1.42" height="0.88"/><line class="cls-7" x1="12.68" y1="7.68" x2="14.87" y2="7.68"/><line class="cls-7" x1="12.68" y1="8.56" x2="14.87" y2="8.56"/><rect class="cls-6" x="13.59" y="6.93" width="0.37" height="0.37"/><rect class="cls-8" x="13.59" y="8.45" width="0.37" height="0.22"/><rect class="cls-8" x="13.59" y="7.57" width="0.37" height="0.22"/><rect class="cls-6" x="13.06" y="12.08" width="1.42" height="0.88"/><line class="cls-7" x1="12.68" y1="12.08" x2="14.87" y2="12.08"/><line class="cls-7" x1="12.68" y1="12.96" x2="14.87" y2="12.96"/><rect class="cls-6" x="13.59" y="11.32" width="0.37" height="0.37"/><rect class="cls-8" x="13.59" y="12.85" width="0.37" height="0.22"/><rect class="cls-8" x="13.59" y="11.97" width="0.37" height="0.22"/><rect class="cls-6" x="13.06" y="16.46" width="1.42" height="0.88"/><line class="cls-7" x1="12.68" y1="16.46" x2="14.87" y2="16.46"/><line class="cls-7" x1="12.68" y1="17.34" x2="14.87" y2="17.34"/><rect class="cls-6" x="13.59" y="15.7" width="0.37" height="0.37"/><rect class="cls-8" x="13.59" y="17.23" width="0.37" height="0.22"/><rect class="cls-8" x="13.59" y="16.35" width="0.37" height="0.22"/><rect class="cls-6" x="13.05" y="20.82" width="1.42" height="0.88"/><line class="cls-7" x1="12.66" y1="20.82" x2="14.86" y2="20.82"/><line class="cls-7" x1="12.66" y1="21.7" x2="14.86" y2="21.7"/><rect class="cls-6" x="13.58" y="20.06" width="0.37" height="0.37"/><rect class="cls-8" x="13.58" y="21.59" width="0.37" height="0.22"/><rect class="cls-8" x="13.58" y="20.71" width="0.37" height="0.22"/><rect class="cls-6" x="13.05" y="25.27" width="1.42" height="0.88"/><line class="cls-7" x1="12.66" y1="25.27" x2="14.86" y2="25.27"/><line class="cls-7" x1="12.66" y1="26.15" x2="14.86" y2="26.15"/><rect class="cls-6" x="13.58" y="24.51" width="0.37" height="0.37"/><rect class="cls-8" x="13.58" y="26.04" width="0.37" height="0.22"/><rect class="cls-8" x="13.58" y="25.16" width="0.37" height="0.22"/><line class="cls-5" x1="11.9" y1="1.82" x2="11.9" y2="27.59"/><rect class="cls-4" x="6.42" y="2.74" width="2.55" height="24"/><path class="cls-11" d="M9,8.34V8.8H8.73V8.34H8.45V8h.28V7.49H9V8"/><path class="cls-11" d="M9,4v.46H8.73V4H8.45V3.57h.28V3.1H9v.47"/><path class="cls-11" d="M9,12.72v.46H8.73v-.46H8.45v-.39h.28v-.46H9v.46"/><path class="cls-11" d="M9,17.09v.46H8.73v-.46H8.45V16.7h.28v-.46H9v.46"/><path class="cls-11" d="M8.94,21.47v.46H8.7v-.46H8.42v-.39H8.7v-.47h.24v.47"/><path class="cls-11" d="M8.94,25.84v.46H8.7v-.46H8.42v-.39H8.7V25h.24v.46"/><path class="cls-9" d="M8.72,5.75V5.29H9v.46h.29v.39H9V6.6H8.72V6.14"/><path class="cls-9" d="M8.72,10.15V9.69H9v.46h.29v.39H9V11H8.72v-.46"/><path class="cls-9" d="M8.74,14.53v-.46H9v.46h.28v.39H9v.46H8.74v-.46"/><path class="cls-9" d="M8.72,18.89v-.46H9v.46h.29v.39H9v.46H8.72v-.46"/><path class="cls-9" d="M8.72,23.27v-.46H9v.46h.29v.39H9v.46H8.72v-.46"/><path class="cls-11" d="M7.6,5.75V5.29h.24v.46h.28v.39H7.84V6.6H7.6V6.14"/><path class="cls-11" d="M7.6,10.15V9.69h.24v.46h.28v.39H7.84V11H7.6v-.46"/><path class="cls-11" d="M7.63,14.53v-.46h.23v.46h.29v.39H7.86v.46H7.63v-.46"/><path class="cls-11" d="M7.6,18.89v-.46h.24v.46h.28v.39H7.84v.46H7.6v-.46"/><path class="cls-11" d="M7.6,23.27v-.46h.24v.46h.28v.39H7.84v.46H7.6v-.46"/><line class="cls-5" x1="6.42" y1="1.73" x2="6.42" y2="27.5"/><rect class="cls-4" x="0.7" y="8.98" width="2.99" height="12.46"/><line class="cls-5" x1="3.68" y1="1.73" x2="3.68" y2="27.5"/><rect class="cls-4" x="4.38" y="7.77" width="1.36" height="0.75"/><rect class="cls-4" x="4.37" y="12.15" width="1.36" height="0.75"/><rect class="cls-4" x="4.37" y="16.5" width="1.36" height="0.75"/><rect class="cls-4" x="4.36" y="20.81" width="1.36" height="0.75"/><rect class="cls-12" x="4.86" y="7.77" width="0.37" height="0.22"/><rect class="cls-12" x="4.86" y="8.29" width="0.37" height="0.22"/><rect class="cls-12" x="4.86" y="12.15" width="0.37" height="0.22"/><rect class="cls-12" x="4.86" y="12.68" width="0.37" height="0.22"/><rect class="cls-12" x="4.86" y="16.5" width="0.37" height="0.22"/><rect class="cls-12" x="4.86" y="17.03" width="0.37" height="0.22"/><rect class="cls-12" x="4.86" y="20.81" width="0.37" height="0.22"/><rect class="cls-12" x="4.86" y="21.33" width="0.37" height="0.22"/></g><path class="cls-13" d="M15,2.5A12.5,12.5,0,1,1,2.5,15,12.5,12.5,0,0,1,15,2.5M15,1A14,14,0,1,0,29,15,14,14,0,0,0,15,1Z"/></svg>