<svg id="Livello_1" data-name="Livello 1" xmlns="http://www.w3.org/2000/svg" xmlns:xlink="http://www.w3.org/1999/xlink" viewBox="0 0 30 30"><defs><style>.cls-1,.cls-8{fill:none;}.cls-2{clip-path:url(#clip-path);}.cls-3{fill:#141716;}.cls-4{fill:#e94683;}.cls-12,.cls-5{fill:#e2dcc4;}.cls-11,.cls-6{fill:#1b70a7;}.cls-7{fill:#512852;stroke:#512852;}.cls-10,.cls-11,.cls-12,.cls-7,.cls-8{stroke-miterlimit:10;}.cls-11,.cls-12,.cls-7{stroke-width:0.88px;}.cls-8{stroke:#141716;}.cls-10,.cls-8{stroke-width:0.22px;}.cls-10,.cls-9{fill:#dcd4af;}.cls-10{stroke:#39353b;}.cls-11{stroke:#1b70a7;}.cls-12{stroke:#e2dcc4;}.cls-13{fill:#d1d1d1;}</style><clipPath id="clip-path"><circle class="cls-1" cx="15" cy="15" r="12.5"/></clipPath></defs><g class="cls-2"><circle class="cls-3" cx="15" cy="15" r="12.5"/><rect class="cls-4" x="14.57" y="2.09" width="0.43" height="25.82"/><rect class="cls-3" x="15" y="2.09" width="0.43" height="25.82"/><rect class="cls-5" x="15.43" y="2.09" width="0.43" height="25.82"/><rect class="cls-6" x="9.67" y="2.32" width="4.9" height="25.35" transform="translate(24.24 30) rotate(-180)"/><path class="cls-7" d="M10.61,17.45v.46h-.24v-.46h-.28v-.39h.28V16.6h.24v.46"/><rect class="cls-4" x="2" y="4.72" width="5.82" height="20.54" transform="translate(9.82 29.97) rotate(-180)"/><rect class="cls-3" x="12.33" y="3.55" width="1.3" height="1.11" transform="translate(25.96 8.21) rotate(-180)"/><line class="cls-8" x1="13.98" y1="3.55" x2="11.98" y2="3.55"/><line class="cls-8" x1="13.98" y1="4.66" x2="11.98" y2="4.66"/><rect class="cls-3" x="12.81" y="2.6" width="0.33" height="0.46" transform="translate(25.96 5.66) rotate(-180)"/><rect class="cls-3" x="12.33" y="7.97" width="1.3" height="1.11" transform="translate(25.96 17.04) rotate(-180)"/><line class="cls-8" x1="13.98" y1="7.97" x2="11.98" y2="7.97"/><line class="cls-8" x1="13.98" y1="9.08" x2="11.98" y2="9.08"/><rect class="cls-3" x="12.81" y="7.02" width="0.33" height="0.46" transform="translate(25.96 14.5) rotate(-180)"/><rect class="cls-3" x="12.33" y="12.38" width="1.3" height="1.11" transform="translate(25.96 25.88) rotate(-180)"/><line class="cls-8" x1="13.98" y1="12.38" x2="11.98" y2="12.38"/><line class="cls-8" x1="13.98" y1="13.49" x2="11.98" y2="13.49"/><rect class="cls-3" x="12.81" y="11.43" width="0.33" height="0.46" transform="translate(25.96 23.33) rotate(-180)"/><rect class="cls-3" x="12.33" y="16.8" width="1.3" height="1.11" transform="translate(25.96 34.71) rotate(-180)"/><line class="cls-8" x1="13.98" y1="16.8" x2="11.98" y2="16.8"/><line class="cls-8" x1="13.98" y1="17.91" x2="11.98" y2="17.91"/><rect class="cls-3" x="12.81" y="15.85" width="0.33" height="0.46" transform="translate(25.96 32.16) rotate(-180)"/><rect class="cls-3" x="12.33" y="21.22" width="1.3" height="1.11" transform="translate(25.96 43.54) rotate(-180)"/><line class="cls-8" x1="13.98" y1="21.22" x2="11.98" y2="21.22"/><line class="cls-8" x1="13.98" y1="22.33" x2="11.98" y2="22.33"/><rect class="cls-3" x="12.81" y="20.27" width="0.33" height="0.46" transform="translate(25.96 41) rotate(-180)"/><rect class="cls-3" x="12.33" y="25.63" width="1.3" height="1.11" transform="translate(25.96 52.38) rotate(-180)"/><line class="cls-8" x1="13.98" y1="25.63" x2="11.98" y2="25.63"/><line class="cls-8" x1="13.98" y1="26.75" x2="11.98" y2="26.75"/><rect class="cls-3" x="12.81" y="24.69" width="0.33" height="0.46" transform="translate(25.96 49.83) rotate(-180)"/><rect class="cls-3" x="4.25" y="3.55" width="1.3" height="1.11" transform="translate(9.8 8.21) rotate(-180)"/><line class="cls-8" x1="5.9" y1="3.55" x2="3.89" y2="3.55"/><line class="cls-8" x1="5.9" y1="4.66" x2="3.89" y2="4.66"/><rect class="cls-3" x="4.73" y="2.6" width="0.33" height="0.46" transform="translate(9.8 5.66) rotate(-180)"/><rect class="cls-3" x="4.25" y="7.97" width="1.3" height="1.11" transform="translate(9.8 17.04) rotate(-180)"/><line class="cls-8" x1="5.9" y1="7.97" x2="3.89" y2="7.97"/><line class="cls-8" x1="5.9" y1="9.08" x2="3.89" y2="9.08"/><rect class="cls-3" x="4.73" y="7.02" width="0.33" height="0.46" transform="translate(9.8 14.5) rotate(-180)"/><rect class="cls-3" x="4.25" y="12.38" width="1.3" height="1.11" transform="translate(9.8 25.88) rotate(-180)"/><line class="cls-8" x1="5.9" y1="12.38" x2="3.89" y2="12.38"/><line class="cls-8" x1="5.9" y1="13.49" x2="3.89" y2="13.49"/><rect class="cls-3" x="4.73" y="11.43" width="0.33" height="0.46" transform="translate(9.8 23.33) rotate(-180)"/><rect class="cls-3" x="4.25" y="16.8" width="1.3" height="1.11" transform="translate(9.8 34.71) rotate(-180)"/><line class="cls-8" x1="5.9" y1="16.8" x2="3.89" y2="16.8"/><line class="cls-8" x1="5.9" y1="17.91" x2="3.89" y2="17.91"/><rect class="cls-3" x="4.73" y="15.85" width="0.33" height="0.46" transform="translate(9.8 32.16) rotate(-180)"/><rect class="cls-3" x="4.25" y="21.22" width="1.3" height="1.11" transform="translate(9.8 43.54) rotate(-180)"/><line class="cls-8" x1="5.9" y1="21.22" x2="3.89" y2="21.22"/><line class="cls-8" x1="5.9" y1="22.33" x2="3.89" y2="22.33"/><rect class="cls-3" x="4.73" y="20.27" width="0.33" height="0.46" transform="translate(9.8 41) rotate(-180)"/><rect class="cls-9" x="4.25" y="25.63" width="1.3" height="1.11" transform="translate(9.8 52.38) rotate(-180)"/><line class="cls-10" x1="5.9" y1="25.63" x2="3.89" y2="25.63"/><line class="cls-10" x1="5.9" y1="26.75" x2="3.89" y2="26.75"/><rect class="cls-3" x="4.73" y="24.69" width="0.33" height="0.46" transform="translate(9.8 49.83) rotate(-180)"/><path class="cls-11" d="M8.43,4.2v.46H8.2V4.2H7.91V3.81H8.2V3.35h.23v.46"/><path class="cls-12" d="M9.54,4.2v.46H9.31V4.2H9V3.81h.29V3.35h.23v.46"/><path class="cls-7" d="M10.64,4.2v.46H10.4V4.2h-.28V3.81h.28V3.35h.24v.46"/><path class="cls-7" d="M9.08,6V5.56h.23V6H9.6v.39H9.31v.46H9.08V6.41"/><path class="cls-12" d="M8,6V5.56h.24V6h.28v.39H8.19v.46H8V6.41"/><path class="cls-7" d="M9.06,10.44V10H9.3v.46h.29v.39H9.3v.46H9.06v-.46"/><path class="cls-12" d="M8,10.43V10H8.2v.46h.29v.39H8.2v.46H8v-.46"/><path class="cls-7" d="M9.09,14.85v-.46h.23v.46h.29v.39H9.32v.47H9.09v-.47"/><path class="cls-12" d="M8,14.86V14.4h.24v.46h.28v.39H8.21v.46H8v-.46"/><path class="cls-7" d="M9.07,19.27v-.46H9.3v.46h.29v.38H9.3v.47H9.07v-.47"/><path class="cls-12" d="M7.93,19.26V18.8h.24v.46h.29v.39H8.17v.47H7.93v-.47"/><path class="cls-7" d="M9,23.69v-.46h.23v.46h.29v.39H9.27v.47H9v-.47"/><path class="cls-12" d="M7.93,23.69v-.46h.23v.46h.29v.39H8.16v.47H7.93v-.47"/><path class="cls-7" d="M10.68,8.6v.46h-.24V8.6h-.28V8.21h.28V7.75h.24v.46"/><path class="cls-12" d="M9.54,8.6v.46H9.31V8.6H9V8.21h.29V7.75h.23v.46"/><path class="cls-7" d="M10.64,13v.46H10.4V13h-.28v-.39h.28v-.46h.24v.46"/><path class="cls-7" d="M10.66,21.87v.46h-.24v-.46h-.28v-.39h.28V21h.24v.46"/><path class="cls-7" d="M10.62,26.28v.47h-.24v-.47H10.1v-.39h.28v-.46h.24v.46"/><path class="cls-11" d="M6.83,6V5.56h.24V6h.28v.39H7.07v.46H6.83V6.41"/><path class="cls-11" d="M6.84,10.44V10h.24v.46h.28v.39H7.08v.46H6.84v-.46"/><path class="cls-11" d="M6.84,14.85v-.46h.24v.46h.28v.39H7.08v.47H6.84v-.47"/><path class="cls-11" d="M6.82,19.26V18.8h.24v.46h.29v.39H7.06v.47H6.82v-.47"/><path class="cls-11" d="M6.83,23.69v-.46h.24v.46h.28v.39H7.07v.47H6.83v-.47"/><path class="cls-11" d="M8.41,8.61v.46H8.17V8.61H7.89V8.22h.28V7.76h.24v.46"/><path class="cls-11" d="M8.45,13v.47H8.21V13H7.92v-.39h.29v-.46h.24v.46"/><path class="cls-12" d="M9.53,13v.47H9.29V13H9v-.39h.28v-.46h.24v.46"/><path class="cls-11" d="M8.44,17.45v.46H8.21v-.46H7.92v-.39h.29V16.6h.23v.46"/><path class="cls-12" d="M9.52,17.45v.46H9.28v-.46H9v-.39h.29V16.6h.24v.46"/><path class="cls-11" d="M8.43,21.87v.46H8.19v-.46H7.91v-.39h.28V21h.24v.46"/><path class="cls-12" d="M9.56,21.87v.46H9.32v-.46H9v-.39h.28V21h.24v.46"/><path class="cls-11" d="M8.41,26.27v.46H8.18v-.46H7.89v-.39h.29v-.46h.23v.46"/><path class="cls-12" d="M9.52,26.27v.46H9.28v-.46H9v-.39h.28v-.46h.24v.46"/></g><path class="cls-13" d="M15,2.5A12.5,12.5,0,1,1,2.5,15,12.5,12.5,0,0,1,15,2.5M15,1A14,14,0,1,0,29,15,14,14,0,0,0,15,1Z"/></svg>