<svg id="Livello_1" data-name="Livello 1" xmlns="http://www.w3.org/2000/svg" xmlns:xlink="http://www.w3.org/1999/xlink" viewBox="0 0 30 30"><defs><style>.cls-1,.cls-5,.cls-7{fill:none;}.cls-2{clip-path:url(#clip-path);}.cls-3{fill:#201f26;}.cls-4{fill:#8b3535;}.cls-5{stroke:#e1b175;}.cls-5,.cls-7{stroke-miterlimit:10;stroke-width:0.88px;}.cls-6{fill:#798ab1;}.cls-7{stroke:#b67c49;}.cls-8{fill:#e1b175;}.cls-9{fill:#d1d1d1;}</style><clipPath id="clip-path"><circle class="cls-1" cx="15" cy="15" r="12.5"/></clipPath></defs><g class="cls-2"><circle class="cls-3" cx="15" cy="15" r="12.5"/><polygon class="cls-4" points="8.65 3.07 6.61 4.89 8.65 6.69 6.61 8.49 8.65 10.26 6.61 12.01 8.65 13.83 6.61 15.65 8.65 17.42 6.57 19.2 8.65 20.97 6.61 22.77 8.62 24.54 6.57 26.4 9.44 26.4 11.35 24.59 9.34 22.82 11.38 21.02 9.31 19.25 11.38 17.47 9.34 15.7 11.38 13.88 9.34 12.06 11.38 10.31 9.34 8.54 11.38 6.74 9.34 4.94 11.38 3.12 10.44 2.31 8.65 3.07"/><polyline class="cls-5" points="6.14 0.94 8.65 3.07 6.61 4.89 8.65 6.69 6.61 8.49 8.65 10.26 6.61 12.01 8.65 13.83 6.61 15.65 8.65 17.42 6.57 19.2 8.65 20.97 6.61 22.77 8.62 24.54 6.14 26.74"/><polygon class="cls-6" points="11.63 2.05 9.34 4.94 11.38 6.74 9.34 8.54 11.38 10.31 9.34 12.06 11.38 13.88 9.34 15.7 11.38 17.47 9.31 19.25 11.38 21.02 9.34 22.82 11.35 24.59 10.31 25.57 9.51 27.22 12.66 27.43 12.66 17.55 12.68 4.79 12.68 2.73 11.63 2.05"/><polyline class="cls-7" points="8.91 26.76 11.35 24.59 9.34 22.82 11.38 21.02 9.31 19.25 11.38 17.47 9.34 15.7 11.38 13.88 9.34 12.06 11.38 10.31 9.34 8.54 11.38 6.74 9.34 4.94 11.38 3.12 8.8 0.92"/><rect class="cls-3" x="11.38" y="22.26" width="0.67" height="1.12"/><rect class="cls-3" x="11.38" y="18.64" width="0.67" height="1.12"/><rect class="cls-3" x="11.38" y="15.06" width="0.67" height="1.12"/><rect class="cls-3" x="11.38" y="11.56" width="0.67" height="1.12"/><rect class="cls-3" x="11.38" y="7.86" width="0.67" height="1.12"/><rect class="cls-3" x="11.38" y="4.36" width="0.67" height="1.12"/><rect class="cls-3" x="11.38" y="25.97" width="0.67" height="1.12"/><circle class="cls-1" cx="15" cy="15" r="12.5"/><rect class="cls-8" x="12.57" y="2.25" width="3.11" height="25.82"/><rect class="cls-4" x="12.89" y="2.25" width="2.44" height="25.78"/><rect class="cls-6" x="12.89" y="3.08" width="2.44" height="0.82"/><rect class="cls-6" x="12.89" y="4.68" width="2.44" height="0.82"/><rect class="cls-6" x="12.89" y="6.29" width="2.44" height="0.82"/><rect class="cls-6" x="12.89" y="7.89" width="2.44" height="0.82"/><rect class="cls-6" x="12.89" y="9.49" width="2.44" height="0.82"/><rect class="cls-6" x="12.89" y="11.09" width="2.44" height="0.82"/><rect class="cls-6" x="12.89" y="12.7" width="2.44" height="0.82"/><rect class="cls-6" x="12.89" y="14.3" width="2.44" height="0.82"/><rect class="cls-6" x="12.89" y="15.9" width="2.44" height="0.82"/><rect class="cls-6" x="12.89" y="17.51" width="2.44" height="0.82"/><rect class="cls-6" x="12.89" y="19.11" width="2.44" height="0.82"/><rect class="cls-6" x="12.89" y="20.71" width="2.44" height="0.82"/><rect class="cls-6" x="12.89" y="22.31" width="2.44" height="0.82"/><rect class="cls-6" x="12.89" y="23.92" width="2.44" height="0.82"/><rect class="cls-6" x="12.89" y="25.52" width="2.44" height="0.82"/><rect class="cls-6" x="12.89" y="27.12" width="2.44" height="0.82"/><rect class="cls-6" x="1.97" y="2.24" width="3.11" height="25.82"/><rect class="cls-4" x="2.29" y="2.24" width="2.44" height="25.78"/><rect class="cls-8" x="2.29" y="3.08" width="2.44" height="0.82"/><rect class="cls-8" x="2.29" y="4.68" width="2.44" height="0.82"/><rect class="cls-8" x="2.29" y="6.28" width="2.44" height="0.82"/><rect class="cls-8" x="2.29" y="7.89" width="2.44" height="0.82"/><rect class="cls-8" x="2.29" y="9.49" width="2.44" height="0.82"/><rect class="cls-8" x="2.29" y="11.09" width="2.44" height="0.82"/><rect class="cls-8" x="2.29" y="12.69" width="2.44" height="0.82"/><rect class="cls-8" x="2.29" y="14.3" width="2.44" height="0.82"/><rect class="cls-8" x="2.29" y="15.9" width="2.44" height="0.82"/><rect class="cls-8" x="2.29" y="17.5" width="2.44" height="0.82"/><rect class="cls-8" x="2.29" y="19.1" width="2.44" height="0.82"/><rect class="cls-8" x="2.29" y="20.71" width="2.44" height="0.82"/><rect class="cls-8" x="2.29" y="22.31" width="2.44" height="0.82"/><rect class="cls-8" x="2.29" y="23.91" width="2.44" height="0.82"/><rect class="cls-8" x="2.29" y="25.51" width="2.44" height="0.82"/><rect class="cls-8" x="2.29" y="27.12" width="2.44" height="0.82"/></g><path class="cls-9" d="M15,2.5A12.5,12.5,0,1,1,2.5,15,12.5,12.5,0,0,1,15,2.5M15,1A14,14,0,1,0,29,15,14,14,0,0,0,15,1Z"/></svg>