<svg id="Livello_1" data-name="Livello 1" xmlns="http://www.w3.org/2000/svg" xmlns:xlink="http://www.w3.org/1999/xlink" viewBox="0 0 30 30"><defs><style>.cls-1,.cls-7,.cls-9{fill:none;}.cls-2{clip-path:url(#clip-path);}.cls-3{fill:#201f26;}.cls-4{fill:#dcd4af;}.cls-5{fill:#813580;}.cls-6{fill:#e34b34;}.cls-7{stroke:#201f26;}.cls-7,.cls-9{stroke-miterlimit:10;stroke-width:0.88px;}.cls-8{fill:#b67c49;}.cls-9{stroke:#e34b34;}.cls-10{fill:#d1d1d1;}</style><clipPath id="clip-path"><circle class="cls-1" cx="15" cy="15" r="12.5"/></clipPath></defs><g class="cls-2"><circle class="cls-3" cx="15" cy="15" r="12.5"/><polygon class="cls-4" points="12.6 27.45 10.47 27.25 8.19 25.76 10.2 23.99 8.15 22.19 10.23 20.42 8.15 18.64 10.2 16.87 8.15 15.05 10.2 13.23 8.15 11.48 10.2 9.71 8.15 7.91 10.2 6.11 8.15 4.29 10.38 2.6 12.76 2.73 10.91 4.3 12.95 6.12 10.91 7.92 12.95 9.72 10.91 11.49 12.95 13.24 10.91 15.06 12.95 16.88 10.91 18.65 12.99 20.43 10.91 22.2 12.95 24 10.94 25.77 12.6 27.45"/><rect class="cls-4" x="14.38" y="2.08" width="0.43" height="25.82"/><rect class="cls-5" x="14.81" y="2.08" width="0.43" height="25.82"/><rect class="cls-6" x="15.24" y="2.08" width="0.43" height="25.82"/><polyline class="cls-7" points="10.21 2.88 8.49 4.21 10.54 6.03 8.49 7.83 10.54 9.63 8.49 11.4 10.54 13.15 8.49 14.97 10.54 16.79 8.49 18.56 10.57 20.34 8.49 22.11 10.54 23.91 8.53 25.68 10.29 27.17"/><rect class="cls-4" x="7.83" y="2.01" width="0.43" height="25.82"/><rect class="cls-4" x="3.22" y="2.01" width="0.43" height="25.82"/><polygon class="cls-8" points="14.38 1.35 14.38 28.98 13.26 27.45 11.28 25.69 13.29 23.92 11.25 22.12 12.99 20.43 10.91 18.65 13.29 16.8 10.91 15.06 13.29 13.16 11.25 11.41 12.95 9.72 11.25 7.84 12.95 6.12 11.25 4.22 14.38 1.35"/><polyline class="cls-9" points="13.84 2.02 13.33 2.45 11.25 4.22 13.29 6.04 11.25 7.84 13.29 9.64 11.25 11.41 13.29 13.16 11.25 14.98 13.29 16.8 11.25 18.57 13.33 20.36 11.25 22.12 13.29 23.92 11.28 25.69 13.73 27.86"/><rect class="cls-5" x="3.65" y="4.38" width="4.17" height="21.68"/><rect class="cls-3" x="5.09" y="4.38" width="1.23" height="21.68"/><rect class="cls-8" x="4.31" y="5.5" width="2.78" height="1.05"/><rect class="cls-8" x="4.35" y="9.12" width="2.78" height="1.05"/><rect class="cls-8" x="4.34" y="12.68" width="2.78" height="1.05"/><rect class="cls-8" x="4.34" y="16.23" width="2.78" height="1.05"/><rect class="cls-8" x="4.34" y="19.75" width="2.78" height="1.05"/><rect class="cls-8" x="4.34" y="23.39" width="2.78" height="1.05"/><rect class="cls-8" x="16.49" y="5.49" width="1.1" height="1.1"/><rect class="cls-8" x="16.48" y="1.85" width="1.1" height="1.1"/><rect class="cls-8" x="16.49" y="9.14" width="1.1" height="1.1"/><rect class="cls-8" x="16.49" y="12.65" width="1.1" height="1.1"/><rect class="cls-8" x="16.49" y="16.34" width="1.1" height="1.1"/><rect class="cls-8" x="16.49" y="19.72" width="1.1" height="1.1"/><rect class="cls-8" x="16.49" y="23.36" width="1.1" height="1.1"/><rect class="cls-8" x="16.49" y="27.01" width="1.1" height="1.1"/></g><path class="cls-10" d="M15,2.5A12.5,12.5,0,1,1,2.5,15,12.5,12.5,0,0,1,15,2.5M15,1A14,14,0,1,0,29,15,14,14,0,0,0,15,1Z"/></svg>