<svg id="Livello_1" data-name="Livello 1" xmlns="http://www.w3.org/2000/svg" xmlns:xlink="http://www.w3.org/1999/xlink" viewBox="0 0 30 30"><defs><style>.cls-1,.cls-7,.cls-8{fill:none;}.cls-2{clip-path:url(#clip-path);}.cls-3{fill:#201f26;}.cls-4{fill:#dcd4af;}.cls-5{fill:#1767a2;}.cls-6{fill:#b67c49;}.cls-7{stroke:#b67c49;stroke-width:0.88px;}.cls-7,.cls-8{stroke-miterlimit:10;}.cls-8{stroke:#201f26;stroke-width:0.88px;}.cls-9{fill:#d1d1d1;}</style><clipPath id="clip-path"><circle class="cls-1" cx="15" cy="15" r="12.5"/></clipPath></defs><g class="cls-2"><circle class="cls-3" cx="15" cy="15" r="12.5"/><polygon class="cls-4" points="11.19 27.37 9.06 27.17 6.77 25.68 8.78 23.91 6.74 22.11 8.82 20.34 6.74 18.56 8.78 16.79 6.74 14.97 8.78 13.15 6.74 11.4 8.78 9.63 6.74 7.83 8.78 6.03 6.74 4.21 8.96 2.52 11.35 2.65 9.5 4.22 11.54 6.04 9.5 7.84 11.54 9.64 9.5 11.41 11.54 13.16 9.5 14.98 11.54 16.8 9.5 18.57 11.57 20.36 9.5 22.12 11.54 23.92 9.53 25.69 11.19 27.37"/><rect class="cls-4" x="14.38" y="2.08" width="0.43" height="25.82"/><rect class="cls-5" x="14.81" y="2.08" width="0.43" height="25.82"/><rect class="cls-6" x="15.24" y="2.08" width="0.43" height="25.82"/><rect class="cls-5" x="3.11" y="2.08" width="0.43" height="25.82"/><rect class="cls-4" x="3.54" y="2.08" width="0.43" height="25.82"/><rect class="cls-3" x="3.97" y="2.08" width="0.43" height="25.82"/><polygon class="cls-5" points="14.38 2.08 14.38 28.52 11.57 27.86 9.53 25.69 11.54 23.92 9.5 22.12 11.57 20.36 9.5 18.57 11.54 16.8 9.5 14.98 11.54 13.16 9.5 11.41 11.54 9.64 9.5 7.84 11.54 6.04 9.5 4.22 12.86 2.02 14.38 2.08"/><polygon class="cls-3" points="13.34 5.04 12.18 6.02 13.3 7.02 14.38 6.02 13.34 5.04"/><polygon class="cls-3" points="13.34 8.66 12.18 9.64 13.3 10.64 14.38 9.64 13.34 8.66"/><polygon class="cls-3" points="13.34 12.18 12.18 13.16 13.3 14.16 14.38 13.15 13.34 12.18"/><polygon class="cls-3" points="13.34 15.83 12.18 16.81 13.3 17.81 14.38 16.81 13.34 15.83"/><polygon class="cls-3" points="13.4 19.39 12.24 20.36 13.37 21.36 14.44 20.36 13.4 19.39"/><polygon class="cls-3" points="13.36 22.93 12.2 23.91 13.33 24.91 14.4 23.91 13.36 22.93"/><polygon class="cls-3" points="13.4 26.54 12.24 27.52 13.37 28.52 14.44 27.52 13.4 26.54"/><polygon class="cls-3" points="13.51 1.39 12.35 2.37 13.47 3.37 14.54 2.37 13.51 1.39"/><polyline class="cls-7" points="12.08 2.02 9.5 4.22 11.54 6.04 9.5 7.84 11.54 9.64 9.5 11.41 11.54 13.16 9.5 14.98 11.54 16.8 9.5 18.57 11.57 20.36 9.5 22.12 11.54 23.92 9.53 25.69 11.97 27.86"/><polygon class="cls-6" points="4.4 4.08 6.74 4.21 8.78 6.03 6.74 7.83 8.78 9.63 6.74 11.4 8.78 13.15 6.74 14.97 8.78 16.79 6.74 18.56 8.82 20.34 6.74 22.11 8.78 23.91 6.77 25.68 4.4 25.36 4.4 4.08"/><polygon class="cls-5" points="5.51 8.66 4.35 9.64 5.48 10.64 6.55 9.64 5.51 8.66"/><polygon class="cls-5" points="5.51 5.04 4.35 6.02 5.48 7.02 6.55 6.02 5.51 5.04"/><polygon class="cls-5" points="5.56 12.18 4.4 13.16 5.52 14.16 6.6 13.15 5.56 12.18"/><polygon class="cls-5" points="5.51 15.83 4.35 16.81 5.48 17.81 6.55 16.81 5.51 15.83"/><polygon class="cls-5" points="5.56 19.39 4.4 20.36 5.52 21.36 6.6 20.36 5.56 19.39"/><polygon class="cls-5" points="5.51 22.93 4.35 23.91 5.48 24.91 6.55 23.91 5.51 22.93"/><polyline class="cls-8" points="8.46 2.88 6.74 4.21 8.78 6.03 6.74 7.83 8.78 9.63 6.74 11.4 8.78 13.15 6.74 14.97 8.78 16.79 6.74 18.56 8.82 20.34 6.74 22.11 8.78 23.91 6.77 25.68 8.53 27.17"/></g><path class="cls-9" d="M15,2.5A12.5,12.5,0,1,1,2.5,15,12.5,12.5,0,0,1,15,2.5M15,1A14,14,0,1,0,29,15,14,14,0,0,0,15,1Z"/></svg>