<svg id="Livello_1" data-name="Livello 1" xmlns="http://www.w3.org/2000/svg" xmlns:xlink="http://www.w3.org/1999/xlink" viewBox="0 0 30 30"><defs><style>.cls-1,.cls-5,.cls-7,.cls-9{fill:none;}.cls-2{clip-path:url(#clip-path);}.cls-3{fill:#2e2e2f;}.cls-4{fill:#e34b34;}.cls-5{stroke:#21a0a3;}.cls-5,.cls-7,.cls-9{stroke-miterlimit:10;stroke-width:0.88px;}.cls-6{fill:#21a0a3;}.cls-7{stroke:#8e3646;}.cls-8{fill:#8e3646;}.cls-9{stroke:#2e2e2f;}.cls-10{fill:#d1d1d1;}</style><clipPath id="clip-path"><circle class="cls-1" cx="15" cy="15" r="12.5"/></clipPath></defs><g class="cls-2"><circle class="cls-3" cx="15" cy="15" r="12.5"/><polygon class="cls-4" points="12.44 27.37 10.31 27.17 8.03 25.68 10.03 23.91 7.99 22.11 10.07 20.34 7.99 18.56 10.03 16.79 7.99 14.97 10.03 13.15 7.99 11.4 10.03 9.63 7.99 7.83 10.03 6.03 7.99 4.21 10.22 2.52 12.6 2.65 10.75 4.22 12.79 6.04 10.75 7.84 12.79 9.64 10.75 11.41 12.79 13.16 10.75 14.98 12.79 16.8 10.75 18.57 12.82 20.36 10.75 22.12 12.79 23.92 10.78 25.69 12.44 27.37"/><polyline class="cls-5" points="13.33 2.02 10.75 4.22 12.79 6.04 10.75 7.84 12.79 9.64 10.75 11.41 12.79 13.16 10.75 14.98 12.79 16.8 10.75 18.57 12.82 20.36 10.75 22.12 12.79 23.92 10.78 25.69 13.23 27.86"/><polygon class="cls-6" points="2.14 4.08 6.34 4.21 10.01 6.03 6.34 7.83 10.01 9.63 6.34 11.4 10.01 13.15 6.34 14.97 10.01 16.79 6.34 18.56 10.07 20.34 6.34 22.11 10.01 23.91 6.4 25.68 2.14 25.36 2.14 4.08"/><polyline class="cls-7" points="9.71 2.88 7.99 4.21 10.03 6.03 7.99 7.83 10.03 9.63 7.99 11.4 10.03 13.15 7.99 14.97 10.03 16.79 7.99 18.56 10.07 20.34 7.99 22.11 10.03 23.91 8.03 25.68 9.79 27.17"/><rect class="cls-8" x="12.46" y="3.84" width="0.73" height="0.73" transform="translate(25.65 8.4) rotate(-180)"/><rect class="cls-8" x="12.46" y="7.47" width="0.73" height="0.73" transform="translate(25.65 15.68) rotate(-180)"/><rect class="cls-8" x="12.46" y="11.06" width="0.73" height="0.73" transform="translate(25.65 22.84) rotate(-180)"/><rect class="cls-8" x="12.46" y="14.64" width="0.73" height="0.73" transform="translate(25.65 30) rotate(-180)"/><rect class="cls-8" x="12.46" y="18.21" width="0.73" height="0.73" transform="translate(25.65 37.16) rotate(-180)"/><rect class="cls-8" x="12.46" y="21.75" width="0.73" height="0.73" transform="translate(25.65 44.23) rotate(-180)"/><rect class="cls-8" x="12.46" y="25.28" width="0.73" height="0.73" transform="translate(25.65 51.3) rotate(-180)"/><polyline class="cls-9" points="8.67 3 6.95 4.34 9 6.16 6.95 7.96 9 9.76 6.95 11.53 9 13.28 6.95 15.1 9 16.92 6.95 18.69 9.03 20.47 6.95 22.24 9 24.04 6.99 25.81 8.75 27.3"/><polyline class="cls-9" points="3.29 4.85 1.57 6.18 3.62 8 1.57 9.81 3.62 11.61 1.57 13.38 3.62 15.13 1.57 16.95 3.62 18.76 1.57 20.53 3.65 22.32 1.57 24.09 3.62 25.89 1.61 27.66 3.37 29.14"/><rect class="cls-3" x="4.94" y="5.8" width="0.73" height="0.73" transform="translate(10.6 12.34) rotate(-180)"/><rect class="cls-3" x="4.94" y="9.41" width="0.73" height="0.73" transform="translate(10.6 19.55) rotate(-180)"/><rect class="cls-3" x="4.94" y="13.05" width="0.73" height="0.73" transform="translate(10.6 26.84) rotate(-180)"/><rect class="cls-3" x="4.94" y="16.55" width="0.73" height="0.73" transform="translate(10.6 33.83) rotate(-180)"/><rect class="cls-3" x="4.94" y="20.15" width="0.73" height="0.73" transform="translate(10.6 41.02) rotate(-180)"/><rect class="cls-3" x="4.94" y="23.69" width="0.73" height="0.73" transform="translate(10.6 48.11) rotate(-180)"/></g><path class="cls-10" d="M15,2.5A12.5,12.5,0,1,1,2.5,15,12.5,12.5,0,0,1,15,2.5M15,1A14,14,0,1,0,29,15,14,14,0,0,0,15,1Z"/></svg>