<svg id="Livello_1" data-name="Livello 1" xmlns="http://www.w3.org/2000/svg" xmlns:xlink="http://www.w3.org/1999/xlink" viewBox="0 0 30 30"><defs><style>.cls-1,.cls-6,.cls-7,.cls-9{fill:none;}.cls-2{clip-path:url(#clip-path);}.cls-3{fill:#412919;}.cls-4{fill:#fff;}.cls-5{fill:#85558e;}.cls-6{stroke:#412919;}.cls-6,.cls-7,.cls-9{stroke-miterlimit:10;stroke-width:0.88px;}.cls-7{stroke:#fff;}.cls-8{fill:#c58037;}.cls-9{stroke:#85558e;}.cls-10{fill:#d1d1d1;}</style><clipPath id="clip-path"><circle class="cls-1" cx="15" cy="15" r="12.5"/></clipPath></defs><g class="cls-2"><circle class="cls-3" cx="15" cy="15" r="12.5"/><rect class="cls-4" x="19.22" y="2.08" width="0.43" height="25.82"/><rect class="cls-3" x="19.65" y="2.08" width="0.43" height="25.82"/><polygon class="cls-5" points="18.79 2.08 18.79 28.52 15.99 27.86 13.95 25.69 15.96 23.92 13.91 22.12 15.99 20.36 13.91 18.57 15.96 16.8 13.91 14.98 15.96 13.16 13.91 11.41 15.96 9.64 13.91 7.84 15.96 6.04 13.91 4.22 17.28 2.02 18.79 2.08"/><polyline class="cls-6" points="16.5 2.02 13.91 4.22 15.96 6.04 13.91 7.84 15.96 9.64 13.91 11.41 15.96 13.16 13.91 14.98 15.96 16.8 13.91 18.57 15.99 20.36 13.91 22.12 15.96 23.92 13.95 25.69 16.39 27.86"/><polyline class="cls-7" points="15.39 2.02 12.57 4.21 14.61 6.03 12.57 7.83 14.61 9.63 12.57 11.4 14.61 13.15 12.57 14.97 14.61 16.79 12.57 18.56 14.64 20.34 12.57 22.11 14.61 23.91 12.6 25.68 15.39 28.04"/><rect class="cls-8" x="18.79" y="2.08" width="0.43" height="25.82"/><rect class="cls-4" x="17.16" y="3.66" width="1.1" height="1.1"/><rect class="cls-4" x="17.16" y="7.32" width="1.1" height="1.1"/><rect class="cls-4" x="17.16" y="10.88" width="1.1" height="1.1"/><rect class="cls-4" x="17.13" y="14.44" width="1.1" height="1.1"/><rect class="cls-4" x="17.16" y="17.94" width="1.1" height="1.1"/><rect class="cls-4" x="17.16" y="21.56" width="1.1" height="1.1"/><rect class="cls-4" x="17.1" y="25.11" width="1.1" height="1.1"/><polygon class="cls-8" points="20.08 2.08 20.08 28.52 22.89 27.86 24.93 25.69 22.92 23.92 24.96 22.12 22.89 20.36 24.96 18.57 22.92 16.8 24.96 14.98 22.92 13.16 24.96 11.41 22.92 9.64 24.96 7.84 22.92 6.04 24.96 4.22 21.6 2.02 20.08 2.08"/><rect class="cls-4" x="20.61" y="3.66" width="1.1" height="1.1" transform="translate(42.32 8.43) rotate(-180)"/><rect class="cls-4" x="20.61" y="7.32" width="1.1" height="1.1" transform="translate(42.32 15.74) rotate(-180)"/><rect class="cls-4" x="20.61" y="10.88" width="1.1" height="1.1" transform="translate(42.33 22.86) rotate(-180)"/><rect class="cls-4" x="20.64" y="14.44" width="1.1" height="1.1" transform="translate(42.39 29.99) rotate(-180)"/><rect class="cls-4" x="20.61" y="17.94" width="1.1" height="1.1" transform="translate(42.32 36.98) rotate(-180)"/><rect class="cls-4" x="20.61" y="21.56" width="1.1" height="1.1" transform="translate(42.32 44.23) rotate(-180)"/><rect class="cls-4" x="20.68" y="25.11" width="1.1" height="1.1" transform="translate(42.46 51.32) rotate(-180)"/><polyline class="cls-9" points="22.38 2.02 24.96 4.22 22.92 6.04 24.96 7.84 22.92 9.64 24.96 11.41 22.92 13.16 24.96 14.98 22.92 16.8 24.96 18.57 22.89 20.36 24.96 22.12 22.92 23.92 24.93 25.69 22.49 27.86"/><polygon class="cls-5" points="26.68 3.66 24.27 6.03 26.32 7.83 24.27 9.63 26.32 11.4 24.27 13.15 26.32 14.97 24.27 16.79 26.32 18.56 24.24 20.34 26.32 22.11 24.27 23.91 26.28 25.68 29.65 25.76 31.7 23.96 29.62 22.19 31.7 20.41 29.65 18.64 31.7 16.82 29.65 15 31.7 13.25 29.65 11.48 31.7 9.68 29.65 7.88 31.7 6.06 27.97 3.66 26.68 3.66"/><rect class="cls-4" x="27.17" y="23.27" width="1.1" height="1.1" transform="translate(55.44 47.65) rotate(-180)"/><rect class="cls-4" x="27.17" y="19.8" width="1.1" height="1.1" transform="translate(55.44 40.71) rotate(-180)"/><rect class="cls-4" x="27.11" y="16.26" width="1.1" height="1.1" transform="translate(55.32 33.63) rotate(-180)"/><rect class="cls-4" x="27.11" y="12.6" width="1.1" height="1.1" transform="translate(55.32 26.31) rotate(-180)"/><rect class="cls-4" x="27.11" y="9.1" width="1.1" height="1.1" transform="translate(55.32 19.31) rotate(-180)"/><rect class="cls-4" x="27.11" y="5.53" width="1.1" height="1.1" transform="translate(55.32 12.17) rotate(-180)"/><polyline class="cls-6" points="24.59 2.88 26.32 4.21 24.27 6.03 26.32 7.83 24.27 9.63 26.32 11.4 24.27 13.15 26.32 14.97 24.27 16.79 26.32 18.56 24.24 20.34 26.32 22.11 24.27 23.91 26.28 25.68 24.52 27.17"/><polyline class="cls-6" points="29.98 4.72 31.7 6.06 29.65 7.88 31.7 9.68 29.65 11.48 31.7 13.25 29.65 15 31.7 16.82 29.65 18.64 31.7 20.41 29.62 22.19 31.7 23.96 29.65 25.76 31.66 27.53 29.9 29.01"/></g><path class="cls-10" d="M15,2.5A12.5,12.5,0,1,1,2.5,15,12.5,12.5,0,0,1,15,2.5M15,1A14,14,0,1,0,29,15,14,14,0,0,0,15,1Z"/></svg>