<svg id="Livello_1" data-name="Livello 1" xmlns="http://www.w3.org/2000/svg" xmlns:xlink="http://www.w3.org/1999/xlink" viewBox="0 0 30 30"><defs><style>.cls-1,.cls-10,.cls-9{fill:none;}.cls-2{clip-path:url(#clip-path);}.cls-3{fill:#201f26;}.cls-4{fill:#fff;}.cls-5{fill:#8f2a28;}.cls-5,.cls-6{stroke:#000;stroke-width:1.1px;}.cls-10,.cls-5,.cls-6,.cls-9{stroke-miterlimit:10;}.cls-7{fill:#6650bb;}.cls-8{fill:#89384e;}.cls-9{stroke:#6650bb;stroke-width:0.88px;}.cls-10{stroke:#201f26;stroke-width:0.04px;}.cls-11{fill:#d1d1d1;}</style><clipPath id="clip-path"><circle class="cls-1" cx="15" cy="15" r="12.5"/></clipPath></defs><g class="cls-2"><circle class="cls-3" cx="15" cy="15" r="12.5"/><path class="cls-1" d="M11.58,3a15,15,0,0,1,1.66-.36,17.07,17.07,0,0,1,3.51,0L18.42,3"/><path class="cls-4" d="M18.73,3.06l-1.41,1.1,2,1.82-2,1.8,2,1.8-2,1.77,2,1.75-2,1.82,2,1.82-2,1.77,2.08,1.78-2.08,1.77,2,1.8-2,1.77,1.49,1.31s-.89.23-1.91.39a18.92,18.92,0,0,1-4.36-.07c-.72-.16-1.51-.39-1.51-.39l1.47-1.24-2-1.77,2.05-1.8-2.08-1.77,2.08-1.78-2.05-1.77,2.05-1.82L10.52,13.1l2.05-1.75L10.52,9.58l2.05-1.8L10.52,6l2.05-1.82-1.4-1.09,1.63-.41a12.73,12.73,0,0,1,2.14-.17A11.44,11.44,0,0,1,18.73,3.06Z"/><path class="cls-5" d="M13.82,5.78h.82V5.27h.7v.51h.83v.43h-.83v.5h-.7v-.5h-.82Z"/><path class="cls-4" d="M13.38,5.7h1.13V5h1v.7h1.14v.59H15.47V7h-1V6.29H13.38Z"/><path class="cls-5" d="M13.84,9.34h.82V8.83h.7v.51h.83v.43h-.83v.5h-.7v-.5h-.82Z"/><path class="cls-4" d="M13.4,9.26h1.13v-.7h1v.7h1.14v.59H15.49v.69h-1V9.85H13.4Z"/><path class="cls-5" d="M13.84,13.11h.82V12.6h.7v.51h.83v.42h-.83V14h-.7v-.51h-.82Z"/><path class="cls-4" d="M13.38,13h1.13v-.7h1V13h1.14v.58H15.47v.7h-1v-.7H13.38Z"/><path class="cls-5" d="M13.77,16.44h.82v-.51h.7v.51h.83v.43h-.83v.5h-.7v-.5h-.82Z"/><path class="cls-4" d="M13.33,16.37h1.13v-.7h1v.7h1.14V17H15.42v.69h-1V17H13.33Z"/><path class="cls-5" d="M13.77,19.94h.82v-.51h.7v.51h.83v.43h-.83v.5h-.7v-.5h-.82Z"/><path class="cls-4" d="M13.33,19.86h1.13v-.7h1v.7h1.14v.59H15.42v.69h-1v-.69H13.33Z"/><path class="cls-5" d="M13.84,23.61h.82V23.1h.7v.51h.83V24h-.83v.51h-.7V24h-.82Z"/><path class="cls-4" d="M13.4,23.48h1.13v-.7h1v.7h1.14v.58H15.49v.69h-1v-.69H13.4Z"/><path class="cls-6" d="M13.89,27.17h.83v-.51h.69v.51h.84v.43h-.84v.5h-.69v-.5h-.83Z"/><path class="cls-4" d="M13.45,27.09h1.14v-.7h.95v.7h1.14v.59H15.54v.69h-.95v-.69H13.45Z"/><path class="cls-5" d="M13.82,2h.82V1.5h.7V2h.83v.43h-.83v.5h-.7v-.5h-.82Z"/><path class="cls-4" d="M13.4,1.94h1.13v-.7h1v.7h1.14v.58H15.49v.69h-1V2.52H13.4Z"/><polygon class="cls-7" points="19.45 1.35 17.15 4.24 19.2 6.04 17.15 7.84 19.2 9.61 17.15 11.36 19.2 13.18 17.15 15 19.2 16.77 17.12 18.55 19.2 20.32 17.15 22.12 19.16 23.89 17.36 25.63 18.84 26.94 20.48 26.73 20.48 16.85 20.49 4.08 20.49 2.02 19.45 1.35"/><polygon class="cls-7" points="10.41 1.35 12.71 4.24 10.67 6.04 12.71 7.84 10.67 9.61 12.71 11.36 10.67 13.18 12.71 15 10.67 16.77 12.74 18.55 10.67 20.32 12.71 22.12 10.7 23.89 12.51 25.63 11.02 26.94 9.39 26.73 9.39 16.85 9.37 4.08 9.37 2.02 10.41 1.35"/><polygon class="cls-8" points="9.34 2.92 7.25 4.25 9.32 5.52 11.5 4.25 9.34 2.92"/><polygon class="cls-8" points="9.34 6.54 7.25 7.87 9.32 9.14 11.5 7.87 9.34 6.54"/><polygon class="cls-8" points="9.34 9.89 7.25 11.21 9.32 12.48 11.5 11.21 9.34 9.89"/><polygon class="cls-8" points="9.34 13.71 7.25 15.03 9.32 16.3 11.5 15.03 9.34 13.71"/><polygon class="cls-8" points="9.34 17.28 7.25 18.6 9.32 19.87 11.5 18.6 9.34 17.28"/><polygon class="cls-8" points="9.34 20.82 7.24 22.15 9.32 23.41 11.5 22.15 9.34 20.82"/><polygon class="cls-8" points="9.34 24.32 7.24 25.65 9.32 26.92 11.5 25.65 9.34 24.32"/><polygon class="cls-8" points="20.45 24.4 18.36 25.72 20.44 26.99 22.62 25.72 20.45 24.4"/><polygon class="cls-8" points="20.45 20.8 18.36 22.12 20.44 23.39 22.62 22.12 20.45 20.8"/><polygon class="cls-8" points="20.51 17.25 18.41 18.58 20.49 19.85 22.67 18.58 20.51 17.25"/><polygon class="cls-8" points="20.45 13.66 18.36 14.98 20.44 16.25 22.62 14.98 20.45 13.66"/><polygon class="cls-8" points="20.45 10.04 18.36 11.37 20.43 12.64 22.61 11.37 20.45 10.04"/><polygon class="cls-8" points="20.44 6.5 18.35 7.82 20.43 9.09 22.61 7.82 20.44 6.5"/><polygon class="cls-8" points="20.44 2.9 18.35 4.23 20.42 5.5 22.6 4.23 20.44 2.9"/><polyline class="cls-9" points="26 26.07 23.56 23.9 25.57 22.13 23.53 20.33 25.6 18.56 23.53 16.78 25.57 15.01 23.53 13.19 25.57 11.37 23.53 9.62 25.57 7.85 23.53 6.05 25.57 4.25 23.53 2.43 26.11 0.23"/><polygon class="cls-4" points="3.47 6.85 6.55 9.62 4.5 11.37 6.55 13.19 4.5 15.01 6.55 16.78 4.47 18.56 6.55 20.33 4.5 22.13 2.15 21.57 2.15 6.85 3.47 6.85"/><polygon class="cls-4" points="27.27 23.12 24.19 20.35 26.23 18.6 24.19 16.78 26.23 14.96 24.19 13.2 26.27 11.41 24.19 9.64 26.23 7.84 28.59 8.4 28.59 23.12 27.27 23.12"/><polyline class="cls-9" points="4.07 26.07 6.51 23.9 4.5 22.13 6.55 20.33 4.47 18.56 6.55 16.78 4.5 15.01 6.55 13.19 4.5 11.37 6.55 9.62 4.5 7.85 6.55 6.05 4.5 4.25 6.55 2.43 3.96 0.23"/></g><circle class="cls-10" cx="15" cy="15" r="12.5"/><path class="cls-11" d="M15,2.5A12.5,12.5,0,1,1,2.5,15,12.5,12.5,0,0,1,15,2.5M15,1A14,14,0,1,0,29,15,14,14,0,0,0,15,1Z"/></svg>