<svg id="Livello_1" data-name="Livello 1" xmlns="http://www.w3.org/2000/svg" xmlns:xlink="http://www.w3.org/1999/xlink" viewBox="0 0 30 30"><defs><style>.cls-1,.cls-3,.cls-5{fill:none;}.cls-2{clip-path:url(#clip-path);}.cls-3{stroke:#5cff83;stroke-width:0.04px;}.cls-3,.cls-5{stroke-miterlimit:10;}.cls-4{fill:#a6b453;}.cls-5{stroke:#1d1e1a;stroke-width:0.89px;}.cls-6{fill:#d1d1d1;}</style><clipPath id="clip-path"><path class="cls-1" d="M14.85,2.46A12.55,12.55,0,1,1,2.44,16.78a13.07,13.07,0,0,1,0-1.77A12.55,12.55,0,0,1,14.85,2.46Z"/></clipPath></defs><g class="cls-2"><path class="cls-3" d="M11.66,3a11.81,11.81,0,0,1,1.42-.36,16.21,16.21,0,0,1,3.55,0l1.64.31"/><path class="cls-4" d="M14.85,2.46A12.55,12.55,0,1,1,2.44,16.78a13.07,13.07,0,0,1,0-1.77A12.55,12.55,0,0,1,14.85,2.46Z"/><polyline class="cls-5" points="2.57 18.86 19.29 18.86 19.29 2.15"/><polyline class="cls-5" points="19.29 18.86 19.29 24.85 16.85 24.85"/><polyline class="cls-5" points="19.51 21.83 25.49 21.83 25.49 24.27"/><polyline class="cls-5" points="19.51 17.4 25.49 17.4 25.49 19.84"/><polyline class="cls-5" points="19.51 12.97 25.49 12.97 25.49 15.4"/><polyline class="cls-5" points="19.51 8.53 25.49 8.53 25.49 10.97"/><polyline class="cls-5" points="19.51 4.1 25.49 4.1 25.49 6.54"/><polyline class="cls-5" points="14.85 18.86 14.85 24.85 12.42 24.85"/><polyline class="cls-5" points="10.42 18.86 10.42 24.85 7.98 24.85"/><polyline class="cls-5" points="5.99 18.86 5.99 24.85 3.55 24.85"/><polyline class="cls-5" points="7.32 27.82 7.32 21.83 9.53 21.83"/><polyline class="cls-5" points="11.75 27.82 11.75 21.83 13.97 21.83"/><polyline class="cls-5" points="16.18 27.82 16.18 21.83 18.45 21.83"/><polyline class="cls-5" points="28.24 20.64 22.26 20.64 22.26 18.37"/><polyline class="cls-5" points="28.24 16.2 22.26 16.2 22.26 13.94"/><polyline class="cls-5" points="28.24 11.77 22.26 11.77 22.26 9.51"/><polyline class="cls-5" points="28.24 7.29 22.26 7.29 22.26 5.08"/></g><path class="cls-6" d="M15,2.5A12.5,12.5,0,1,1,2.5,15,12.5,12.5,0,0,1,15,2.5M15,1A14,14,0,1,0,29,15,14,14,0,0,0,15,1Z"/></svg>