<svg id="Livello_1" data-name="Livello 1" xmlns="http://www.w3.org/2000/svg" xmlns:xlink="http://www.w3.org/1999/xlink" viewBox="0 0 30 30"><defs><style>.cls-1,.cls-11{fill:none;}.cls-2{clip-path:url(#clip-path);}.cls-3,.cls-8{fill:#141716;}.cls-10,.cls-4{fill:#39353b;}.cls-5,.cls-7{fill:#dcd4af;}.cls-6,.cls-9{fill:#a69e93;}.cls-7{stroke:#dcd4af;}.cls-10,.cls-11,.cls-7,.cls-8,.cls-9{stroke-miterlimit:10;}.cls-10,.cls-7,.cls-8,.cls-9{stroke-width:0.88px;}.cls-8{stroke:#141716;}.cls-9{stroke:#a69e93;}.cls-10,.cls-11{stroke:#39353b;}.cls-11{stroke-width:0.44px;}.cls-12{fill:#d1d1d1;}</style><clipPath id="clip-path"><circle class="cls-1" cx="15" cy="15" r="12.5"/></clipPath></defs><g class="cls-2"><circle class="cls-3" cx="15" cy="15" r="12.5"/><rect class="cls-4" x="15" y="2.09" width="0.43" height="25.82" transform="translate(30.43 30) rotate(180)"/><rect class="cls-3" x="14.57" y="2.09" width="0.43" height="25.82" transform="translate(29.57 30) rotate(180)"/><rect class="cls-5" x="14.14" y="2.09" width="0.43" height="25.82" transform="translate(28.71 30) rotate(180)"/><rect class="cls-6" x="15.43" y="2.32" width="4.05" height="25.35"/><rect class="cls-4" x="19.48" y="2.32" width="2.59" height="2.78"/><path class="cls-7" d="M21.57,3.81V3.35h.23v.46h.29V4.2H21.8v.46h-.23V4.2"/><path class="cls-8" d="M19.06,3.81V3.35h.24v.46h.28V4.2H19.3v.46h-.24V4.2"/><path class="cls-9" d="M20.08,6.41v.46h-.23V6.41h-.29V6h.29V5.56h.23V6"/><path class="cls-9" d="M20.08,10.82v.47h-.23v-.47h-.29v-.39h.29V10h.23v.46"/><path class="cls-9" d="M20.08,15.24v.46h-.23v-.46h-.29v-.39h.29v-.46h.23v.46"/><path class="cls-9" d="M20.08,19.66v.46h-.23v-.46h-.29v-.39h.29v-.46h.23v.46"/><path class="cls-9" d="M20.08,24.07v.47h-.23v-.47h-.29v-.38h.29v-.47h.23v.47"/><rect class="cls-4" x="19.48" y="7.31" width="2.09" height="2.21"/><path class="cls-7" d="M21.57,8.23V7.77h.23v.46h.29v.38H21.8v.47h-.23V8.61"/><path class="cls-8" d="M19.06,8.23V7.77h.24v.46h.28v.38H19.3v.47h-.24V8.61"/><rect class="cls-4" x="19.32" y="11.73" width="2.09" height="2.21"/><path class="cls-7" d="M21.57,12.64v-.46h.23v.46h.29V13H21.8v.46h-.23V13"/><path class="cls-8" d="M19.06,12.64v-.46h.24v.46h.28V13H19.3v.46h-.24V13"/><rect class="cls-4" x="19.18" y="16.15" width="2.21" height="2.21"/><path class="cls-7" d="M21.57,17.06V16.6h.23v.46h.29v.39H21.8v.46h-.23v-.46"/><path class="cls-8" d="M19.06,17.06V16.6h.24v.46h.28v.39H19.3v.46h-.24v-.46"/><rect class="cls-4" x="19.24" y="20.57" width="2.21" height="2.21"/><path class="cls-7" d="M21.57,21.48V21h.23v.46h.29v.39H21.8v.46h-.23v-.46"/><path class="cls-8" d="M19.06,21.48V21h.24v.46h.28v.39H19.3v.46h-.24v-.46"/><rect class="cls-4" x="19.48" y="24.98" width="2.09" height="2.21"/><path class="cls-7" d="M21.57,25.89v-.46h.23v.46h.29v.39H21.8v.47h-.23v-.47"/><path class="cls-8" d="M19.06,25.89v-.46h.24v.46h.28v.39H19.3v.47h-.24v-.47"/><rect class="cls-6" x="22.53" y="5.35" width="5.47" height="19.91"/><path class="cls-10" d="M22.59,6.41v.46h-.24V6.41h-.28V6h.28V5.56h.24V6"/><path class="cls-10" d="M22.59,10.82v.47h-.24v-.47h-.28v-.39h.28V10h.24v.46"/><path class="cls-10" d="M22.59,15.24v.46h-.24v-.46h-.28v-.39h.28v-.46h.24v.46"/><path class="cls-10" d="M22.59,19.66v.46h-.24v-.46h-.28v-.39h.28v-.46h.24v.46"/><path class="cls-10" d="M22.59,24.07v.47h-.24v-.47h-.28v-.38h.28v-.47h.24v.47"/><rect class="cls-4" x="16.37" y="3.29" width="1.3" height="0.81"/><line class="cls-11" x1="16.02" y1="3.29" x2="18.02" y2="3.29"/><line class="cls-11" x1="16.02" y1="4.1" x2="18.02" y2="4.1"/><rect class="cls-4" x="16.85" y="2.6" width="0.33" height="0.33"/><rect class="cls-4" x="16.37" y="6.85" width="1.3" height="0.81"/><line class="cls-11" x1="16.02" y1="6.85" x2="18.02" y2="6.85"/><line class="cls-11" x1="16.02" y1="7.66" x2="18.02" y2="7.66"/><rect class="cls-4" x="16.85" y="6.16" width="0.33" height="0.33"/><rect class="cls-4" x="16.37" y="11.23" width="1.3" height="0.81"/><line class="cls-11" x1="16.02" y1="11.23" x2="18.02" y2="11.23"/><line class="cls-11" x1="16.02" y1="12.03" x2="18.02" y2="12.03"/><rect class="cls-4" x="16.85" y="10.54" width="0.33" height="0.33"/><rect class="cls-4" x="16.37" y="15.61" width="1.3" height="0.81"/><line class="cls-11" x1="16.02" y1="15.61" x2="18.02" y2="15.61"/><line class="cls-11" x1="16.02" y1="16.41" x2="18.02" y2="16.41"/><rect class="cls-4" x="16.85" y="14.92" width="0.33" height="0.33"/><rect class="cls-4" x="16.37" y="19.98" width="1.3" height="0.81"/><line class="cls-11" x1="16.02" y1="19.98" x2="18.02" y2="19.98"/><line class="cls-11" x1="16.02" y1="20.79" x2="18.02" y2="20.79"/><rect class="cls-4" x="16.85" y="19.29" width="0.33" height="0.33"/><rect class="cls-4" x="16.37" y="24.36" width="1.3" height="0.81"/><line class="cls-11" x1="16.02" y1="24.36" x2="18.02" y2="24.36"/><line class="cls-11" x1="16.02" y1="25.17" x2="18.02" y2="25.17"/><rect class="cls-4" x="16.85" y="23.67" width="0.33" height="0.33"/></g><path class="cls-12" d="M15,2.5A12.5,12.5,0,1,1,2.5,15,12.5,12.5,0,0,1,15,2.5M15,1A14,14,0,1,0,29,15,14,14,0,0,0,15,1Z"/></svg>