<svg id="Livello_1" data-name="Livello 1" xmlns="http://www.w3.org/2000/svg" xmlns:xlink="http://www.w3.org/1999/xlink" viewBox="0 0 30 30"><defs><style>.cls-1{fill:none;}.cls-2{clip-path:url(#clip-path);}.cls-3{fill:#141716;}.cls-4,.cls-8{fill:#578070;}.cls-4{stroke:#578070;}.cls-4,.cls-9{stroke-miterlimit:10;stroke-width:0.88px;}.cls-5{fill:#ad3f2a;}.cls-6{fill:#dcd4af;}.cls-7{fill:#dbd0bc;}.cls-10,.cls-9{fill:#ba844c;}.cls-9{stroke:#ba844c;}.cls-11{fill:#d1d1d1;}</style><clipPath id="clip-path"><circle class="cls-1" cx="15" cy="15" r="12.5"/></clipPath></defs><g class="cls-2"><circle class="cls-3" cx="15" cy="15" r="12.5"/><path class="cls-4" d="M26.91,5.48V5h.24v.46h.28v.39h-.28v.46h-.24V5.87"/><path class="cls-4" d="M26.91,9.84V9.38h.24v.46h.28v.39h-.28v.46h-.24v-.46"/><path class="cls-4" d="M26.91,14.24v-.47h.24v.47h.28v.38h-.28v.46h-.24v-.46"/><path class="cls-4" d="M26.91,18.63v-.46h.24v.46h.28V19h-.28v.46h-.24V19"/><path class="cls-4" d="M26.91,23v-.46h.24V23h.28v.39h-.28v.46h-.24V23.4"/><polygon class="cls-5" points="28.01 2.38 26.47 2.4 26.47 4.57 28.01 4.57 28.01 4.09 27.74 4.08 27.74 2.85 28.01 2.85 28.01 2.38"/><polygon class="cls-5" points="28.01 6.77 26.47 6.76 26.47 8.96 28.01 8.96 28.01 8.48 27.74 8.47 27.74 7.24 28.01 7.24 28.01 6.77"/><polygon class="cls-5" points="28.02 11.13 26.48 11.13 26.48 13.33 28.02 13.33 28.02 12.84 27.75 12.83 27.74 11.61 28.02 11.6 28.02 11.13"/><polygon class="cls-5" points="28.02 15.53 26.48 15.52 26.48 17.72 28.02 17.72 28.02 17.24 27.75 17.23 27.74 16 28.02 16 28.02 15.53"/><polygon class="cls-5" points="28.02 19.92 26.48 19.91 26.48 22.11 28.02 22.11 28.02 21.63 27.75 21.62 27.74 20.39 28.02 20.39 28.02 19.92"/><polygon class="cls-5" points="28.02 24.31 26.48 24.3 26.48 26.5 28.02 26.5 28.02 26.02 27.75 26.01 27.74 24.78 28.02 24.78 28.02 24.31"/><rect class="cls-5" x="26.47" y="5.47" width="0.23" height="0.4" transform="translate(53.18 11.34) rotate(180)"/><rect class="cls-5" x="26.47" y="9.83" width="0.23" height="0.4" transform="translate(53.18 20.07) rotate(180)"/><rect class="cls-5" x="26.47" y="14.23" width="0.23" height="0.4" transform="translate(53.18 28.86) rotate(180)"/><rect class="cls-5" x="26.47" y="18.62" width="0.23" height="0.4" transform="translate(53.18 37.65) rotate(180)"/><rect class="cls-5" x="26.48" y="23.01" width="0.23" height="0.4" transform="translate(53.19 46.42) rotate(180)"/><polygon points="15.63 2.5 16.64 2.5 16.64 4.63 17.89 4.63 17.89 6.84 16.62 6.84 16.66 9.04 17.89 9.04 17.89 11.21 16.68 11.21 16.63 12.09 16.66 13.41 17.89 13.41 17.88 15.61 16.6 15.61 16.73 16.57 16.61 17.8 17.89 17.8 17.89 20 16.76 20 16.65 20.91 16.64 21.44 17.37 22.19 17.89 22.19 17.89 24.39 16.68 24.39 16.72 25.29 16.67 26.52 17.5 26.58 18.76 26.58 18.76 27.54 15.45 27.91 15.45 2.5 15.63 2.5"/><rect class="cls-6" x="17.61" y="2.42" width="2.75" height="25.12"/><rect class="cls-7" x="13.93" y="2.09" width="1.7" height="25.82"/><rect class="cls-5" x="14.1" y="2.09" width="1.34" height="25.78"/><rect class="cls-8" x="14.1" y="2.92" width="1.34" height="0.82"/><rect class="cls-8" x="14.1" y="4.52" width="1.34" height="0.82"/><rect class="cls-8" x="14.1" y="6.13" width="1.34" height="0.82"/><rect class="cls-8" x="14.1" y="7.73" width="1.34" height="0.82"/><rect class="cls-8" x="14.1" y="9.33" width="1.34" height="0.82"/><rect class="cls-8" x="14.1" y="10.93" width="1.34" height="0.82"/><rect class="cls-8" x="14.1" y="12.54" width="1.34" height="0.82"/><rect class="cls-8" x="14.1" y="14.14" width="1.34" height="0.82"/><rect class="cls-8" x="14.1" y="15.74" width="1.34" height="0.82"/><rect class="cls-8" x="14.1" y="17.35" width="1.34" height="0.82"/><rect class="cls-8" x="14.1" y="18.95" width="1.34" height="0.82"/><rect class="cls-8" x="14.1" y="20.55" width="1.34" height="0.82"/><rect class="cls-8" x="14.1" y="22.15" width="1.34" height="0.82"/><rect class="cls-8" x="14.1" y="23.76" width="1.34" height="0.82"/><rect class="cls-8" x="14.1" y="25.36" width="1.34" height="0.82"/><rect class="cls-8" x="14.1" y="26.96" width="1.34" height="0.82"/><path class="cls-9" d="M16.93,3.33V2.87h.24v.46h.28v.39h-.28v.47h-.24V3.72"/><path class="cls-9" d="M16.93,7.75V7.29h.24v.46h.28v.39h-.28V8.6h-.24V8.14"/><path class="cls-4" d="M19.13,7.75V7.29h.24v.46h.29v.39h-.29V8.6h-.24V8.14"/><path class="cls-4" d="M19.13,3.36V2.9h.24v.46h.29v.39h-.29v.46h-.24V3.75"/><path class="cls-4" d="M19.13,12.12v-.46h.24v.46h.28v.38h-.28V13h-.24V12.5"/><path class="cls-4" d="M19.13,16.51v-.46h.24v.46h.29v.39h-.29v.46h-.24V16.9"/><path class="cls-4" d="M19.13,20.9v-.46h.24v.46h.29v.39h-.29v.46h-.24v-.46"/><path class="cls-4" d="M19.13,25.29v-.46h.24v.46h.29v.39h-.29v.46h-.24v-.46"/><path class="cls-9" d="M16.93,12.12v-.46h.24v.46h.28v.38h-.28V13h-.24V12.5"/><path class="cls-9" d="M16.93,16.51v-.46h.24v.46h.28v.39h-.28v.46h-.24V16.9"/><path class="cls-9" d="M16.93,20.9v-.46h.24v.46h.28v.39h-.28v.46h-.24v-.46"/><path class="cls-9" d="M16.93,25.29v-.46h.24v.46h.28v.39h-.28v.46h-.24v-.46"/><path class="cls-9" d="M18.56,6v.46h-.24V6H18V5.56h.28V5.1h.24v.46"/><path class="cls-4" d="M20.91,6v.46h-.23V6h-.29V5.56h.29V5.1h.23v.46"/><path class="cls-4" d="M20.91,10.31v.46h-.23v-.46h-.29V9.92h.29V9.46h.23v.46"/><path class="cls-4" d="M20.91,14.71v.46h-.23v-.46h-.29v-.39h.29v-.46h.23v.46"/><path class="cls-4" d="M20.91,19.1v.46h-.23V19.1h-.29v-.39h.29v-.46h.23v.46"/><path class="cls-4" d="M20.91,23.49V24h-.23v-.46h-.29V23.1h.29v-.47h.23v.47"/><path class="cls-9" d="M18.56,10.32v.45h-.24v-.45H18V9.94h.28V9.48h.24v.46"/><path class="cls-9" d="M18.56,14.71v.46h-.24v-.46H18v-.39h.28v-.46h.24v.46"/><path class="cls-9" d="M18.56,19.1v.46h-.24V19.1H18v-.39h.28v-.46h.24v.46"/><path class="cls-9" d="M18.56,23.49V24h-.24v-.46H18V23.1h.28v-.47h.24v.47"/><polygon class="cls-5" points="19.82 2.46 21.35 2.48 21.35 4.65 19.82 4.65 19.82 4.17 20.09 4.16 20.09 2.93 19.82 2.93 19.82 2.46"/><polygon class="cls-5" points="19.82 6.85 21.35 6.84 21.35 9.04 19.82 9.04 19.82 8.56 20.09 8.55 20.09 7.32 19.82 7.32 19.82 6.85"/><polygon class="cls-5" points="19.81 11.22 21.35 11.21 21.35 13.41 19.81 13.41 19.81 12.93 20.08 12.92 20.08 11.69 19.81 11.69 19.81 11.22"/><polygon class="cls-5" points="19.81 15.61 21.35 15.61 21.35 17.8 19.81 17.8 19.81 17.32 20.08 17.31 20.08 16.08 19.81 16.08 19.81 15.61"/><polygon class="cls-5" points="19.81 20 21.35 20 21.35 22.19 19.81 22.19 19.81 21.71 20.08 21.7 20.08 20.47 19.81 20.47 19.81 20"/><polygon class="cls-5" points="19.81 24.39 21.35 24.39 21.35 26.58 19.81 26.58 19.81 26.1 20.08 26.09 20.08 24.86 19.81 24.86 19.81 24.39"/><rect class="cls-5" x="21.12" y="5.55" width="0.23" height="0.4"/><rect class="cls-5" x="21.12" y="9.91" width="0.23" height="0.4"/><rect class="cls-5" x="21.12" y="14.31" width="0.23" height="0.4"/><rect class="cls-5" x="21.12" y="18.71" width="0.23" height="0.4"/><rect class="cls-5" x="21.11" y="23.09" width="0.23" height="0.4"/><rect class="cls-6" x="21.35" y="2.29" width="0.43" height="23.68"/><rect x="21.78" y="2.29" width="4.27" height="23.68"/><rect class="cls-6" x="26.04" y="2.29" width="0.43" height="23.68"/><rect class="cls-8" x="22.48" y="2.29" width="2.87" height="1.89"/><rect class="cls-8" x="22.48" y="4.59" width="2.87" height="1.17"/><rect class="cls-8" x="22.48" y="6.17" width="2.87" height="1.89"/><rect class="cls-8" x="22.48" y="8.47" width="2.87" height="1.17"/><rect class="cls-8" x="22.48" y="10.04" width="2.87" height="1.89"/><rect class="cls-8" x="22.48" y="12.34" width="2.87" height="1.17"/><rect class="cls-8" x="22.48" y="13.92" width="2.87" height="1.89"/><rect class="cls-8" x="22.48" y="16.22" width="2.87" height="1.17"/><rect class="cls-8" x="22.48" y="17.79" width="2.87" height="1.89"/><rect class="cls-8" x="22.48" y="20.09" width="2.87" height="1.17"/><rect class="cls-8" x="22.48" y="21.67" width="2.87" height="1.89"/><rect class="cls-8" x="22.48" y="23.97" width="2.87" height="1.17"/><rect class="cls-10" x="23.32" y="2.29" width="1.17" height="0.61"/><rect class="cls-10" x="23.32" y="3.57" width="1.17" height="0.61"/><rect class="cls-10" x="23.32" y="6.17" width="1.17" height="0.61"/><rect class="cls-10" x="23.32" y="7.45" width="1.17" height="0.61"/><rect class="cls-10" x="23.32" y="10.04" width="1.17" height="0.61"/><rect class="cls-10" x="23.32" y="11.33" width="1.17" height="0.61"/><rect class="cls-10" x="23.32" y="13.92" width="1.17" height="0.61"/><rect class="cls-10" x="23.32" y="15.2" width="1.17" height="0.61"/><rect class="cls-10" x="23.32" y="17.79" width="1.17" height="0.61"/><rect class="cls-10" x="23.32" y="19.08" width="1.17" height="0.61"/><rect class="cls-10" x="23.32" y="21.67" width="1.17" height="0.61"/><rect class="cls-10" x="23.32" y="22.95" width="1.17" height="0.61"/></g><path class="cls-11" d="M15,2.5A12.5,12.5,0,1,1,2.5,15,12.5,12.5,0,0,1,15,2.5M15,1A14,14,0,1,0,29,15,14,14,0,0,0,15,1Z"/></svg>