<svg id="Livello_1" data-name="Livello 1" xmlns="http://www.w3.org/2000/svg" viewBox="0 0 30 30"><defs><style>.cls-1{fill:none;stroke:#000;stroke-miterlimit:10;stroke-width:0.5px;}.cls-2{fill:#d1d1d1;}</style></defs><circle class="cls-1" cx="15" cy="15" r="12.5"/><path d="M19.25,22H10.87V20.05l3.85-4.9a11,11,0,0,0,1.08-1.78,3.56,3.56,0,0,0,.34-1.47,2.93,2.93,0,0,0-.32-1.48,1.05,1.05,0,0,0-1-.54,1.22,1.22,0,0,0-1.07.63,3.29,3.29,0,0,0-.39,1.75H10.63a5.28,5.28,0,0,1,.55-2.39A4.06,4.06,0,0,1,12.7,8.19a4.15,4.15,0,0,1,2.22-.6,4,4,0,0,1,3,1.05,4,4,0,0,1,1.05,3,5.71,5.71,0,0,1-.59,2.44,14.7,14.7,0,0,1-2.1,3l-1.83,2.61h4.84Z"/><path class="cls-2" d="M15,2.5A12.5,12.5,0,1,1,2.5,15,12.5,12.5,0,0,1,15,2.5M15,1A14,14,0,1,0,29,15,14,14,0,0,0,15,1Z"/></svg>