<svg id="Livello_1" data-name="Livello 1" xmlns="http://www.w3.org/2000/svg" viewBox="0 0 30 30"><defs><style>.cls-1{fill:none;stroke:#000;stroke-miterlimit:10;stroke-width:0.5px;}.cls-2{fill:#d1d1d1;}</style></defs><circle class="cls-1" cx="15" cy="15" r="12.5"/><path d="M13.33,13.63h1.34a1.26,1.26,0,0,0,1.12-.53,2.6,2.6,0,0,0,.35-1.42,2.17,2.17,0,0,0-.36-1.33,1.2,1.2,0,0,0-1-.47,1.17,1.17,0,0,0-.94.45,1.76,1.76,0,0,0-.36,1.13H10.72a3.81,3.81,0,0,1,.52-2,3.68,3.68,0,0,1,1.43-1.39,4.28,4.28,0,0,1,2.05-.49,4.21,4.21,0,0,1,3.07,1.08,3.92,3.92,0,0,1,1.12,3,3.35,3.35,0,0,1-.51,1.79,3.42,3.42,0,0,1-1.32,1.27A3,3,0,0,1,18.58,16a4,4,0,0,1,.49,2,4,4,0,0,1-1.2,3A4.44,4.44,0,0,1,14.7,22.2a4.05,4.05,0,0,1-3-1.13,4,4,0,0,1-1.13-3h2.76a2,2,0,0,0,.4,1.28,1.23,1.23,0,0,0,1,.52,1.35,1.35,0,0,0,1.12-.53,2.18,2.18,0,0,0,.42-1.4c0-1.4-.55-2.11-1.63-2.11H13.33Z"/><path class="cls-2" d="M15,2.5A12.5,12.5,0,1,1,2.5,15,12.5,12.5,0,0,1,15,2.5M15,1A14,14,0,1,0,29,15,14,14,0,0,0,15,1Z"/></svg>