<svg id="Livello_1" data-name="Livello 1" xmlns="http://www.w3.org/2000/svg" viewBox="0 0 30 30"><defs><style>.cls-1{fill:none;stroke:#000;stroke-miterlimit:10;stroke-width:0.5px;}.cls-2{fill:#d1d1d1;}</style></defs><circle class="cls-1" cx="15" cy="15" r="12.5"/><path class="cls-2" d="M15,2.5A12.5,12.5,0,1,1,2.5,15,12.5,12.5,0,0,1,15,2.5M15,1A14,14,0,1,0,29,15,14,14,0,0,0,15,1Z"/><path d="M6.12,10.4v1.91H7.3V10.4h1v5h-1V13.18H6.12V15.4h-1v-5Z"/><path d="M11.8,11.23H10V12.4h1.68v.83H10v1.34h1.86v.83H9v-5h2.8Z"/><path d="M12.42,10.4h1v5h-1Z"/><path d="M16.36,11.6a.79.79,0,0,0-.1-.27.68.68,0,0,0-.17-.21.48.48,0,0,0-.27-.08.54.54,0,0,0-.52.41,3.92,3.92,0,0,0-.16,1.34c0,.3,0,.57,0,.82a3.15,3.15,0,0,0,.11.62.81.81,0,0,0,.21.39.48.48,0,0,0,.35.13.39.39,0,0,0,.2-.05.66.66,0,0,0,.2-.14.72.72,0,0,0,.16-.25,1,1,0,0,0,.06-.35v-.52h-.66V12.7h1.63v2.7h-.74v-.46h0a1.05,1.05,0,0,1-.43.41,1.46,1.46,0,0,1-.62.13,1.49,1.49,0,0,1-.75-.17,1.15,1.15,0,0,1-.46-.49,2.65,2.65,0,0,1-.21-.83,9.64,9.64,0,0,1-.06-1.15,7,7,0,0,1,.08-1.1,2,2,0,0,1,.28-.8,1.3,1.3,0,0,1,.51-.48,2,2,0,0,1,.81-.16,1.53,1.53,0,0,1,1.19.41,1.72,1.72,0,0,1,.36,1.17h-1A.9.9,0,0,0,16.36,11.6Z"/><path d="M19.08,10.4v1.91h1.17V10.4h1v5h-1V13.18H19.08V15.4h-1v-5Z"/><path d="M24.89,11.23h-1.1V15.4h-1V11.23h-1.1V10.4h3.2Z"/><path d="M11.29,18.2h-1v-.66h.09a1.44,1.44,0,0,0,.8-.19.91.91,0,0,0,.37-.61h.74v5h-1Z"/><path d="M13.5,21.7a2.45,2.45,0,0,1,.07-.62,2.06,2.06,0,0,1,.2-.54,2.83,2.83,0,0,1,.34-.51,5.55,5.55,0,0,1,.48-.5l.41-.38a3.42,3.42,0,0,0,.27-.27,1.22,1.22,0,0,0,.16-.26,1.07,1.07,0,0,0,.07-.27,3.25,3.25,0,0,0,0-.33c0-.42-.17-.62-.49-.62a.47.47,0,0,0-.47.29.94.94,0,0,0-.07.3,2.3,2.3,0,0,0,0,.38h-1v-.19a1.48,1.48,0,0,1,.37-1.07A1.64,1.64,0,0,1,15,16.74a1.57,1.57,0,0,1,1.12.35,1.34,1.34,0,0,1,.37,1,2.14,2.14,0,0,1-.05.45,1.28,1.28,0,0,1-.13.39,1.67,1.67,0,0,1-.24.37,2.93,2.93,0,0,1-.35.37l-.56.52a1.76,1.76,0,0,0-.35.39,1,1,0,0,0-.16.33h1.86v.79Z"/><path d="M18.14,16.7v.91a3.77,3.77,0,0,1,0,.51,1.17,1.17,0,0,1-.15.41.69.69,0,0,1-.28.28,1.14,1.14,0,0,1-.46.14v-.49a.41.41,0,0,0,.28-.2.74.74,0,0,0,.09-.36v-.11h-.37V16.7Zm1.36,0v.91a2.64,2.64,0,0,1,0,.51,1,1,0,0,1-.14.41.75.75,0,0,1-.28.28,1.19,1.19,0,0,1-.46.14v-.49a.4.4,0,0,0,.27-.2.74.74,0,0,0,.09-.36v-.11h-.36V16.7Z"/></svg>