<svg id="Livello_1" data-name="Livello 1" xmlns="http://www.w3.org/2000/svg" viewBox="0 0 30 30"><defs><style>.cls-1{fill:none;stroke:#000;stroke-miterlimit:10;stroke-width:0.5px;}.cls-2{fill:#d1d1d1;}</style></defs><circle class="cls-1" cx="15" cy="15" r="12.5"/><path class="cls-2" d="M15,2.5A12.5,12.5,0,1,1,2.5,15,12.5,12.5,0,0,1,15,2.5M15,1A14,14,0,1,0,29,15,14,14,0,0,0,15,1Z"/><path d="M6.12,10.4v1.91H7.3V10.4h1v5h-1V13.18H6.12V15.4h-1v-5Z"/><path d="M11.8,11.23H10V12.4h1.68v.83H10v1.34h1.86v.83H9v-5h2.8Z"/><path d="M12.42,10.4h1v5h-1Z"/><path d="M16.36,11.6a.79.79,0,0,0-.1-.27.68.68,0,0,0-.17-.21.48.48,0,0,0-.27-.08.54.54,0,0,0-.52.41,3.92,3.92,0,0,0-.16,1.34c0,.3,0,.57,0,.82a3.15,3.15,0,0,0,.11.62.81.81,0,0,0,.21.39.48.48,0,0,0,.35.13.39.39,0,0,0,.2-.05.66.66,0,0,0,.2-.14.72.72,0,0,0,.16-.25,1,1,0,0,0,.06-.35v-.52h-.66V12.7h1.63v2.7h-.74v-.46h0a1.05,1.05,0,0,1-.43.41,1.46,1.46,0,0,1-.62.13,1.49,1.49,0,0,1-.75-.17,1.15,1.15,0,0,1-.46-.49,2.65,2.65,0,0,1-.21-.83,9.64,9.64,0,0,1-.06-1.15,7,7,0,0,1,.08-1.1,2,2,0,0,1,.28-.8,1.3,1.3,0,0,1,.51-.48,2,2,0,0,1,.81-.16,1.53,1.53,0,0,1,1.19.41,1.72,1.72,0,0,1,.36,1.17h-1A.9.9,0,0,0,16.36,11.6Z"/><path d="M19.08,10.4v1.91h1.17V10.4h1v5h-1V13.18H19.08V15.4h-1v-5Z"/><path d="M24.89,11.23h-1.1V15.4h-1V11.23h-1.1V10.4h3.2Z"/><path d="M11.29,18.2h-1v-.66h.09a1.44,1.44,0,0,0,.8-.19.91.91,0,0,0,.37-.61h.74v5h-1Z"/><path d="M15.12,16.74h1v3.14h.48v.79h-.48v1h-.92v-1H13.47v-.83Zm.1,1.26-1,1.88h1V18Z"/><path d="M18.14,16.7v.91a3.77,3.77,0,0,1,0,.51,1.17,1.17,0,0,1-.15.41.69.69,0,0,1-.28.28,1.14,1.14,0,0,1-.46.14v-.49a.41.41,0,0,0,.28-.2.74.74,0,0,0,.09-.36v-.11h-.37V16.7Zm1.36,0v.91a2.64,2.64,0,0,1,0,.51,1,1,0,0,1-.14.41.75.75,0,0,1-.28.28,1.19,1.19,0,0,1-.46.14v-.49a.4.4,0,0,0,.27-.2.74.74,0,0,0,.09-.36v-.11h-.36V16.7Z"/></svg>