<svg id="Livello_1" data-name="Livello 1" xmlns="http://www.w3.org/2000/svg" viewBox="0 0 30 30"><defs><style>.cls-1{fill:none;stroke:#000;stroke-miterlimit:10;stroke-width:0.5px;}.cls-2{fill:#d1d1d1;}</style></defs><circle class="cls-1" cx="15" cy="15" r="12.5"/><path class="cls-2" d="M15,2.5A12.5,12.5,0,1,1,2.5,15,12.5,12.5,0,0,1,15,2.5M15,1A14,14,0,1,0,29,15,14,14,0,0,0,15,1Z"/><path d="M6.12,10.36v1.91H7.3V10.36h1v5h-1V13.14H6.12v2.22h-1v-5Z"/><path d="M11.8,11.19H10v1.17h1.68v.83H10v1.34h1.86v.83H9v-5h2.8Z"/><path d="M12.42,10.36h1v5h-1Z"/><path d="M16.36,11.56a.79.79,0,0,0-.1-.27.55.55,0,0,0-.17-.2.41.41,0,0,0-.27-.08.53.53,0,0,0-.52.4,4,4,0,0,0-.16,1.35c0,.29,0,.57,0,.81a3.15,3.15,0,0,0,.11.62.81.81,0,0,0,.21.39.48.48,0,0,0,.35.14.53.53,0,0,0,.2-.05,1,1,0,0,0,.2-.15.72.72,0,0,0,.16-.25,1,1,0,0,0,.06-.35v-.51h-.66v-.75h1.63v2.7h-.74V14.9h0a1.05,1.05,0,0,1-.43.41,1.32,1.32,0,0,1-.62.13,1.61,1.61,0,0,1-.75-.16,1.24,1.24,0,0,1-.46-.5,2.65,2.65,0,0,1-.21-.83,9.64,9.64,0,0,1-.06-1.15,7.08,7.08,0,0,1,.08-1.1,2,2,0,0,1,.28-.8,1.3,1.3,0,0,1,.51-.48,2,2,0,0,1,.81-.16,1.53,1.53,0,0,1,1.19.41,1.75,1.75,0,0,1,.36,1.18h-1A1,1,0,0,0,16.36,11.56Z"/><path d="M19.08,10.36v1.91h1.17V10.36h1v5h-1V13.14H19.08v2.22h-1v-5Z"/><path d="M24.89,11.19h-1.1v4.17h-1V11.19h-1.1v-.83h3.2Z"/><path d="M11.29,18.16h-1V17.5h.09a1.44,1.44,0,0,0,.8-.19.91.91,0,0,0,.37-.61h.74v5h-1Z"/><path d="M14.52,17.58l-.1,1.13h0a.85.85,0,0,1,.37-.28,1.45,1.45,0,0,1,.54-.09,1.21,1.21,0,0,1,.6.14,1.06,1.06,0,0,1,.37.36,1.63,1.63,0,0,1,.19.51,2.75,2.75,0,0,1,.05.57,3.42,3.42,0,0,1-.07.75,1.45,1.45,0,0,1-.24.58,1.12,1.12,0,0,1-.49.36,2,2,0,0,1-.78.13,2,2,0,0,1-.76-.13,1,1,0,0,1-.45-.33,1.13,1.13,0,0,1-.2-.45,1.86,1.86,0,0,1-.06-.45v-.13h1a2.35,2.35,0,0,0,0,.26.77.77,0,0,0,.07.26.45.45,0,0,0,.15.21.42.42,0,0,0,.26.08.47.47,0,0,0,.45-.24,1.57,1.57,0,0,0,.14-.73,3.68,3.68,0,0,0,0-.51.86.86,0,0,0-.1-.32.35.35,0,0,0-.17-.17A.78.78,0,0,0,15,19a.45.45,0,0,0-.34.12.7.7,0,0,0-.14.34h-.9l.18-2.7h2.58v.78Z"/><path d="M18.14,16.66v.91a4.07,4.07,0,0,1,0,.52,1.19,1.19,0,0,1-.15.4.69.69,0,0,1-.28.28,1.14,1.14,0,0,1-.46.14v-.49a.41.41,0,0,0,.28-.2.68.68,0,0,0,.09-.35v-.12h-.37V16.66Zm1.36,0v.91a2.82,2.82,0,0,1,0,.52,1,1,0,0,1-.14.4.75.75,0,0,1-.28.28,1.19,1.19,0,0,1-.46.14v-.49a.4.4,0,0,0,.27-.2.68.68,0,0,0,.09-.35v-.12h-.36V16.66Z"/></svg>