<svg id="Livello_1" data-name="Livello 1" xmlns="http://www.w3.org/2000/svg" viewBox="0 0 30 30"><defs><style>.cls-1{fill:none;stroke:#000;stroke-miterlimit:10;stroke-width:0.5px;}.cls-2{fill:#d1d1d1;}</style></defs><circle class="cls-1" cx="15" cy="15" r="12.5"/><path class="cls-2" d="M15,2.5A12.5,12.5,0,1,1,2.5,15,12.5,12.5,0,0,1,15,2.5M15,1A14,14,0,1,0,29,15,14,14,0,0,0,15,1Z"/><path d="M6.12,10.36v1.91H7.3V10.36h1v5h-1V13.14H6.12v2.22h-1v-5Z"/><path d="M11.8,11.19H10v1.17h1.68v.83H10v1.34h1.86v.83H9v-5h2.8Z"/><path d="M12.42,10.36h1v5h-1Z"/><path d="M16.36,11.56a.79.79,0,0,0-.1-.27.55.55,0,0,0-.17-.2.41.41,0,0,0-.27-.08.53.53,0,0,0-.52.4,4,4,0,0,0-.16,1.35c0,.29,0,.57,0,.81a3.15,3.15,0,0,0,.11.62.81.81,0,0,0,.21.39.48.48,0,0,0,.35.14.53.53,0,0,0,.2-.05,1,1,0,0,0,.2-.15.72.72,0,0,0,.16-.25,1,1,0,0,0,.06-.35v-.51h-.66v-.75h1.63v2.7h-.74V14.9h0a1.05,1.05,0,0,1-.43.41,1.32,1.32,0,0,1-.62.13,1.61,1.61,0,0,1-.75-.16,1.24,1.24,0,0,1-.46-.5,2.65,2.65,0,0,1-.21-.83,9.64,9.64,0,0,1-.06-1.15,7.08,7.08,0,0,1,.08-1.1,2,2,0,0,1,.28-.8,1.3,1.3,0,0,1,.51-.48,2,2,0,0,1,.81-.16,1.53,1.53,0,0,1,1.19.41,1.75,1.75,0,0,1,.36,1.18h-1A1,1,0,0,0,16.36,11.56Z"/><path d="M19.08,10.36v1.91h1.17V10.36h1v5h-1V13.14H19.08v2.22h-1v-5Z"/><path d="M24.89,11.19h-1.1v4.17h-1V11.19h-1.1v-.83h3.2Z"/><path d="M11.29,18.16h-1V17.5h.09a1.44,1.44,0,0,0,.8-.19.91.91,0,0,0,.37-.61h.74v5h-1Z"/><path d="M15.45,17.52a.37.37,0,0,0-.35-.16.47.47,0,0,0-.32.1.65.65,0,0,0-.19.26,1.83,1.83,0,0,0-.09.4c0,.15,0,.32,0,.5v.25h0a.87.87,0,0,1,.36-.32,1.35,1.35,0,0,1,.57-.11,1.36,1.36,0,0,1,.56.11,1,1,0,0,1,.37.33,1.21,1.21,0,0,1,.21.49,2.4,2.4,0,0,1,.07.62,2,2,0,0,1-.38,1.3,1.52,1.52,0,0,1-1.22.45,1.52,1.52,0,0,1-.83-.19,1.14,1.14,0,0,1-.47-.5,2.31,2.31,0,0,1-.22-.73,8.33,8.33,0,0,1,0-.88c0-.35,0-.69,0-1a2.79,2.79,0,0,1,.18-.87,1.38,1.38,0,0,1,.5-.62,2,2,0,0,1,1.46-.16,1.06,1.06,0,0,1,.44.21,1,1,0,0,1,.31.38,1.56,1.56,0,0,1,.12.6h-1A.78.78,0,0,0,15.45,17.52Zm-.9,3a1.16,1.16,0,0,0,.08.31.51.51,0,0,0,.17.21.58.58,0,0,0,.28.07.56.56,0,0,0,.29-.07.44.44,0,0,0,.17-.21.94.94,0,0,0,.07-.31c0-.12,0-.25,0-.39a1.41,1.41,0,0,0-.13-.72.51.51,0,0,0-.84,0,1.41,1.41,0,0,0-.13.72C14.53,20.26,14.54,20.39,14.55,20.51Z"/><path d="M18.14,16.66v.91a4.07,4.07,0,0,1,0,.52,1.19,1.19,0,0,1-.15.4.69.69,0,0,1-.28.28,1.14,1.14,0,0,1-.46.14v-.49a.41.41,0,0,0,.28-.2.68.68,0,0,0,.09-.35v-.12h-.37V16.66Zm1.36,0v.91a2.82,2.82,0,0,1,0,.52,1,1,0,0,1-.14.4.75.75,0,0,1-.28.28,1.19,1.19,0,0,1-.46.14v-.49a.4.4,0,0,0,.27-.2.68.68,0,0,0,.09-.35v-.12h-.36V16.66Z"/></svg>