<svg id="Livello_1" data-name="Livello 1" xmlns="http://www.w3.org/2000/svg" viewBox="0 0 30 30"><defs><style>.cls-1{fill:none;stroke:#000;stroke-miterlimit:10;stroke-width:0.5px;}.cls-2{fill:#d1d1d1;}</style></defs><circle class="cls-1" cx="15" cy="15" r="12.5"/><path class="cls-2" d="M15,2.5A12.5,12.5,0,1,1,2.5,15,12.5,12.5,0,0,1,15,2.5M15,1A14,14,0,1,0,29,15,14,14,0,0,0,15,1Z"/><path d="M6.12,10.36v1.91H7.3V10.36h1v5h-1V13.14H6.12v2.22h-1v-5Z"/><path d="M11.8,11.19H10v1.17h1.68v.83H10v1.34h1.86v.83H9v-5h2.8Z"/><path d="M12.42,10.36h1v5h-1Z"/><path d="M16.36,11.56a.79.79,0,0,0-.1-.27.55.55,0,0,0-.17-.2.41.41,0,0,0-.27-.08.53.53,0,0,0-.52.4,4,4,0,0,0-.16,1.35c0,.29,0,.57,0,.81a3.15,3.15,0,0,0,.11.62.81.81,0,0,0,.21.39.48.48,0,0,0,.35.14.53.53,0,0,0,.2-.05,1,1,0,0,0,.2-.15.72.72,0,0,0,.16-.25,1,1,0,0,0,.06-.35v-.51h-.66v-.75h1.63v2.7h-.74V14.9h0a1.05,1.05,0,0,1-.43.41,1.32,1.32,0,0,1-.62.13,1.61,1.61,0,0,1-.75-.16,1.24,1.24,0,0,1-.46-.5,2.65,2.65,0,0,1-.21-.83,9.64,9.64,0,0,1-.06-1.15,7.08,7.08,0,0,1,.08-1.1,2,2,0,0,1,.28-.8,1.3,1.3,0,0,1,.51-.48,2,2,0,0,1,.81-.16,1.53,1.53,0,0,1,1.19.41,1.75,1.75,0,0,1,.36,1.18h-1A1,1,0,0,0,16.36,11.56Z"/><path d="M19.08,10.36v1.91h1.17V10.36h1v5h-1V13.14H19.08v2.22h-1v-5Z"/><path d="M24.89,11.19h-1.1v4.17h-1V11.19h-1.1v-.83h3.2Z"/><path d="M11.29,18.16h-1V17.5h.09a1.44,1.44,0,0,0,.8-.19.91.91,0,0,0,.37-.61h.74v5h-1Z"/><path d="M14.66,20.94a.38.38,0,0,0,.35.16.48.48,0,0,0,.33-.1.55.55,0,0,0,.18-.26,1.12,1.12,0,0,0,.09-.4c0-.15,0-.32,0-.5V19.6h0a1,1,0,0,1-.36.31,1.41,1.41,0,0,1-.57.11,1.33,1.33,0,0,1-.56-.11,1,1,0,0,1-.38-.33,1.37,1.37,0,0,1-.21-.49,2.94,2.94,0,0,1-.07-.62,2,2,0,0,1,.39-1.31,1.48,1.48,0,0,1,1.22-.46,1.51,1.51,0,0,1,.82.2,1.18,1.18,0,0,1,.48.51,2.07,2.07,0,0,1,.21.74,8,8,0,0,1,.05.87c0,.36,0,.7,0,1a2.79,2.79,0,0,1-.19.87,1.33,1.33,0,0,1-.5.6,1.8,1.8,0,0,1-.95.22,2.16,2.16,0,0,1-.51-.06,1.09,1.09,0,0,1-.44-.19,1,1,0,0,1-.3-.39,1.48,1.48,0,0,1-.13-.6h1A.78.78,0,0,0,14.66,20.94Zm-.05-1.88a.43.43,0,0,0,.42.22.46.46,0,0,0,.43-.22,1.55,1.55,0,0,0,.12-.72c0-.14,0-.27,0-.39a.88.88,0,0,0-.08-.31.51.51,0,0,0-.17-.21.55.55,0,0,0-.28-.07.59.59,0,0,0-.29.07.51.51,0,0,0-.17.21,1.29,1.29,0,0,0-.07.31c0,.12,0,.25,0,.39A1.41,1.41,0,0,0,14.61,19.06Z"/><path d="M18.14,16.66v.91a4.07,4.07,0,0,1,0,.52,1.19,1.19,0,0,1-.15.4.69.69,0,0,1-.28.28,1.14,1.14,0,0,1-.46.14v-.49a.41.41,0,0,0,.28-.2.68.68,0,0,0,.09-.35v-.12h-.37V16.66Zm1.36,0v.91a2.82,2.82,0,0,1,0,.52,1,1,0,0,1-.14.4.75.75,0,0,1-.28.28,1.19,1.19,0,0,1-.46.14v-.49a.4.4,0,0,0,.27-.2.68.68,0,0,0,.09-.35v-.12h-.36V16.66Z"/></svg>