<svg id="Livello_1" data-name="Livello 1" xmlns="http://www.w3.org/2000/svg" xmlns:xlink="http://www.w3.org/1999/xlink" viewBox="0 0 30 30"><defs><style>.cls-1,.cls-3,.cls-5{fill:none;}.cls-2{clip-path:url(#clip-path);}.cls-3{stroke:#52ff78;stroke-width:0.04px;}.cls-3,.cls-5{stroke-miterlimit:10;}.cls-4{fill:#451b25;}.cls-5{stroke:#9b9785;stroke-width:0.88px;}.cls-6{fill:#d1d1d1;}</style><clipPath id="clip-path"><path class="cls-1" d="M15,2.5A12.5,12.5,0,1,1,2.62,16.77,12.94,12.94,0,0,1,2.5,15,12.5,12.5,0,0,1,15,2.5Z"/></clipPath></defs><g class="cls-2"><path class="cls-3" d="M11.58,3a15,15,0,0,1,1.66-.36,17.07,17.07,0,0,1,3.51,0L18.42,3"/><path class="cls-4" d="M15,2.5A12.5,12.5,0,1,1,2.62,16.77,12.94,12.94,0,0,1,2.5,15,12.5,12.5,0,0,1,15,2.5Z"/><polyline class="cls-5" points="2.77 18.84 19.41 18.84 19.41 2.19"/><polyline class="cls-5" points="19.41 18.84 19.41 24.8 16.97 24.8"/><polyline class="cls-5" points="19.63 21.82 25.59 21.82 25.59 24.25"/><polyline class="cls-5" points="19.63 17.4 25.59 17.4 25.59 19.83"/><polyline class="cls-5" points="19.63 12.98 25.59 12.98 25.59 15.42"/><polyline class="cls-5" points="19.63 8.57 25.59 8.57 25.59 11"/><polyline class="cls-5" points="19.63 4.15 25.59 4.15 25.59 6.58"/><polyline class="cls-5" points="14.99 18.84 14.99 24.8 12.56 24.8"/><polyline class="cls-5" points="10.57 18.84 10.57 24.8 8.14 24.8"/><polyline class="cls-5" points="6.16 18.84 6.16 24.8 3.72 24.8"/><polyline class="cls-5" points="7.51 27.78 7.51 21.82 9.72 21.82"/><polyline class="cls-5" points="11.92 27.78 11.92 21.82 14.14 21.82"/><polyline class="cls-5" points="16.34 27.78 16.34 21.82 18.55 21.82"/><polyline class="cls-5" points="28.35 20.59 22.39 20.59 22.39 18.38"/><polyline class="cls-5" points="28.35 16.17 22.39 16.17 22.39 13.96"/><polyline class="cls-5" points="28.35 11.76 22.39 11.76 22.39 9.54"/><polyline class="cls-5" points="28.35 7.34 22.39 7.34 22.39 5.12"/></g><path class="cls-6" d="M15,2.5A12.5,12.5,0,1,1,2.5,15,12.5,12.5,0,0,1,15,2.5M15,1A14,14,0,1,0,29,15,14,14,0,0,0,15,1Z"/></svg>