<?xml version="1.0" encoding="UTF-8"?>
<svg id="Livello_1" data-name="Livello 1" xmlns="http://www.w3.org/2000/svg" viewBox="0 0 30 30">
  <defs>
    <style>
      .cls-1 {
        fill: none;
      }

      .cls-1, .cls-2, .cls-3 {
        stroke-width: 0px;
      }

      .cls-3 {
        fill: #d1d1d1;
      }
    </style>
  </defs>
  <path class="cls-3" d="m15,2.5c6.9,0,12.5,5.6,12.5,12.5s-5.6,12.5-12.5,12.5S2.5,21.9,2.5,15,8.1,2.5,15,2.5m0-1.5C7.28,1,1,7.28,1,15s6.28,14,14,14,14-6.28,14-14S22.72,1,15,1h0Z"/>
  <circle class="cls-1" cx="15" cy="15" r="12.5"/>
  <path class="cls-3" d="m15,2.5c6.9,0,12.5,5.6,12.5,12.5s-5.6,12.5-12.5,12.5S2.5,21.9,2.5,15,8.1,2.5,15,2.5m0-1.5C7.28,1,1,7.28,1,15s6.28,14,14,14,14-6.28,14-14S22.72,1,15,1h0Z"/>
  <circle class="cls-1" cx="15" cy="15" r="12.5"/>
  <g>
    <path class="cls-2" d="m5.02,19.28c0-.38.04-.73.11-1.06s.19-.64.35-.94c.16-.3.35-.59.59-.87.24-.28.51-.57.82-.86l.7-.65c.19-.17.35-.32.46-.47.12-.14.21-.29.27-.43.06-.14.11-.3.13-.47.02-.17.03-.36.03-.58,0-.7-.28-1.06-.84-1.06-.22,0-.39.04-.51.13-.12.09-.22.21-.29.36-.07.15-.11.33-.13.53-.02.2-.03.41-.03.64h-1.66v-.32c0-.79.21-1.4.64-1.82.42-.42,1.09-.64,2-.64.86,0,1.5.2,1.92.6.42.4.62.97.62,1.72,0,.27-.02.53-.07.76s-.12.46-.23.68c-.1.22-.24.43-.41.63s-.37.41-.61.63l-.96.89c-.26.23-.46.46-.6.68-.14.22-.24.41-.28.57h3.2v1.34h-5.23Z"/>
    <path class="cls-2" d="m13.55,10.79h1.79v5.39h.82v1.34h-.82v1.76h-1.58v-1.76h-3.02v-1.42l2.82-5.32Zm.18,2.16l-1.66,3.23h1.68v-3.23h-.02Z"/>
    <path class="cls-2" d="m24.59,18.96c0,.83-.21,1.46-.62,1.87s-1.1.62-2.07.62c-.7,0-1.25-.15-1.63-.45-.38-.3-.57-.73-.57-1.28h1.58c0,.21.08.37.25.49.08.06.17.1.26.13.09.03.19.05.29.05.34,0,.57-.11.71-.32.14-.22.2-.48.2-.8v-.85h-.02c-.17.24-.37.43-.62.58-.24.14-.5.22-.76.22-.66,0-1.15-.25-1.48-.75s-.5-1.34-.5-2.51c0-.38.02-.76.07-1.15.04-.39.14-.75.28-1.06.14-.32.34-.57.61-.77.27-.2.63-.3,1.07-.3.23,0,.47.06.72.19s.45.36.61.7h.02v-.72h1.58v6.13Zm-3.28-2.06c.02.2.06.38.12.53.06.16.14.28.25.37.11.09.25.14.43.14s.32-.05.44-.14c.12-.09.21-.22.28-.38.07-.16.12-.35.14-.58.03-.23.04-.48.04-.75,0-.78-.06-1.34-.19-1.67-.12-.33-.35-.49-.68-.49-.18,0-.33.04-.44.12-.11.08-.2.21-.26.39-.06.18-.11.42-.13.72-.02.3-.03.67-.03,1.1,0,.22,0,.44.03.64Z"/>
  </g>
</svg>