<?xml version="1.0" encoding="UTF-8"?>
<svg id="Livello_1" data-name="Livello 1" xmlns="http://www.w3.org/2000/svg" viewBox="0 0 30 30">
  <defs>
    <style>
      .cls-1 {
        fill: none;
      }

      .cls-1, .cls-2, .cls-3 {
        stroke-width: 0px;
      }

      .cls-3 {
        fill: #d1d1d1;
      }
    </style>
  </defs>
  <path class="cls-3" d="m15,2.5c6.9,0,12.5,5.6,12.5,12.5s-5.6,12.5-12.5,12.5S2.5,21.9,2.5,15,8.1,2.5,15,2.5m0-1.5C7.28,1,1,7.28,1,15s6.28,14,14,14,14-6.28,14-14S22.72,1,15,1h0Z"/>
  <circle class="cls-1" cx="15" cy="15" r="12.5"/>
  <path class="cls-3" d="m15,2.5c6.9,0,12.5,5.6,12.5,12.5s-5.6,12.5-12.5,12.5S2.5,21.9,2.5,15,8.1,2.5,15,2.5m0-1.5C7.28,1,1,7.28,1,15s6.28,14,14,14,14-6.28,14-14S22.72,1,15,1h0Z"/>
  <circle class="cls-1" cx="15" cy="15" r="12.5"/>
  <g>
    <path class="cls-2" d="m6.89,17.93c.12.26.37.39.75.39.21,0,.37-.04.5-.11.12-.07.22-.17.29-.29s.11-.27.13-.44c.02-.17.03-.34.03-.53s-.01-.37-.04-.55-.08-.33-.16-.46-.19-.24-.34-.32c-.14-.08-.34-.12-.58-.12h-.58v-1.13h.56c.18,0,.34-.04.46-.11.12-.08.22-.18.3-.3s.13-.27.17-.43.05-.33.05-.5c0-.41-.07-.7-.2-.86-.14-.17-.34-.25-.62-.25-.18,0-.33.03-.45.1-.12.07-.21.16-.27.29-.06.12-.11.27-.13.44-.02.17-.03.35-.03.55h-1.58c0-.85.21-1.48.64-1.89s1.04-.62,1.86-.62,1.38.18,1.81.53c.43.35.64.9.64,1.66,0,.51-.11.93-.34,1.25-.23.32-.55.53-.95.62v.02c.55.09.94.31,1.17.67.23.36.34.8.34,1.34,0,.29-.04.58-.11.89-.07.3-.21.58-.42.83s-.49.45-.86.6c-.36.15-.84.23-1.43.23-.82,0-1.44-.22-1.85-.67-.41-.45-.61-1.08-.61-1.91v-.04h1.66c0,.5.07.87.2,1.13Z"/>
    <path class="cls-2" d="m12.65,17.93c.12.26.37.39.75.39.21,0,.37-.04.5-.11.12-.07.22-.17.29-.29s.11-.27.13-.44c.02-.17.03-.34.03-.53s-.01-.37-.04-.55-.08-.33-.16-.46-.19-.24-.34-.32c-.14-.08-.34-.12-.58-.12h-.58v-1.13h.56c.18,0,.34-.04.46-.11.12-.08.22-.18.3-.3s.13-.27.17-.43.05-.33.05-.5c0-.41-.07-.7-.2-.86-.14-.17-.34-.25-.62-.25-.18,0-.33.03-.45.1-.12.07-.21.16-.27.29-.06.12-.11.27-.13.44-.02.17-.03.35-.03.55h-1.58c0-.85.21-1.48.64-1.89s1.04-.62,1.86-.62,1.38.18,1.81.53c.43.35.64.9.64,1.66,0,.51-.11.93-.34,1.25-.23.32-.55.53-.95.62v.02c.55.09.94.31,1.17.67.23.36.34.8.34,1.34,0,.29-.04.58-.11.89-.07.3-.21.58-.42.83s-.49.45-.86.6c-.36.15-.84.23-1.43.23-.82,0-1.44-.22-1.85-.67-.41-.45-.61-1.08-.61-1.91v-.04h1.66c0,.5.07.87.2,1.13Z"/>
    <path class="cls-2" d="m24.59,18.96c0,.83-.21,1.46-.62,1.87s-1.1.62-2.07.62c-.7,0-1.25-.15-1.63-.45-.38-.3-.57-.73-.57-1.28h1.58c0,.21.08.37.25.49.08.06.17.1.26.13.09.03.19.05.29.05.34,0,.57-.11.71-.32.14-.22.2-.48.2-.8v-.85h-.02c-.17.24-.37.43-.62.58-.24.14-.5.22-.76.22-.66,0-1.15-.25-1.48-.75s-.5-1.34-.5-2.51c0-.38.02-.76.07-1.15.04-.39.14-.75.28-1.06.14-.32.34-.57.61-.77.27-.2.63-.3,1.07-.3.23,0,.47.06.72.19s.45.36.61.7h.02v-.72h1.58v6.13Zm-3.28-2.06c.02.2.06.38.12.53.06.16.14.28.25.37.11.09.25.14.43.14s.32-.05.44-.14c.12-.09.21-.22.28-.38.07-.16.12-.35.14-.58.03-.23.04-.48.04-.75,0-.78-.06-1.34-.19-1.67-.12-.33-.35-.49-.68-.49-.18,0-.33.04-.44.12-.11.08-.2.21-.26.39-.06.18-.11.42-.13.72-.02.3-.03.67-.03,1.1,0,.22,0,.44.03.64Z"/>
  </g>
</svg>