<svg id="Livello_1" data-name="Livello 1" xmlns="http://www.w3.org/2000/svg" xmlns:xlink="http://www.w3.org/1999/xlink" viewBox="0 0 30 30"><defs><style>.cls-1,.cls-4{fill:none;}.cls-2{clip-path:url(#clip-path);}.cls-3{fill:#8a7053;}.cls-4{stroke:#2b241f;stroke-miterlimit:10;stroke-width:0.88px;}.cls-5{fill:#b4ad94;}.cls-6{fill:#2b241f;}.cls-7{fill:#809d31;}.cls-8{fill:#d1d1d1;}</style><clipPath id="clip-path"><path class="cls-1" d="M15,2.5A12.5,12.5,0,1,1,2.62,16.77,12.94,12.94,0,0,1,2.5,15,12.5,12.5,0,0,1,15,2.5Z"/></clipPath></defs><g class="cls-2"><path class="cls-3" d="M15,2.5A12.5,12.5,0,1,1,2.62,16.77,12.94,12.94,0,0,1,2.5,15,12.5,12.5,0,0,1,15,2.5Z"/><polyline class="cls-4" points="2.77 19.63 20.31 19.63 20.31 2.19"/><rect class="cls-5" x="21.7" y="2.19" width="1.54" height="23.88"/><rect class="cls-3" x="21.7" y="19.17" width="1.03" height="0.79"/><rect class="cls-3" x="21.7" y="17.67" width="1.03" height="0.79"/><rect class="cls-3" x="21.7" y="16.16" width="1.03" height="0.79"/><rect class="cls-3" x="21.7" y="14.66" width="1.03" height="0.79"/><rect class="cls-3" x="21.7" y="13.16" width="1.03" height="0.79"/><rect class="cls-3" x="21.7" y="11.66" width="1.03" height="0.79"/><rect class="cls-3" x="21.7" y="10.15" width="1.03" height="0.79"/><rect class="cls-3" x="21.7" y="8.65" width="1.03" height="0.79"/><rect class="cls-3" x="21.7" y="7.15" width="1.03" height="0.79"/><rect class="cls-3" x="21.7" y="5.65" width="1.03" height="0.79"/><rect class="cls-3" x="21.7" y="4.14" width="1.03" height="0.79"/><polygon class="cls-6" points="22.48 24.47 20.77 24.47 20.77 20.96 22.48 20.96 22.48 21.66 22.48 24.47"/><rect class="cls-5" x="21.7" y="21.66" width="1.03" height="0.7"/><rect class="cls-5" x="21.7" y="23.07" width="0.93" height="0.69"/><rect class="cls-7" x="3.45" y="20.95" width="17.32" height="3.52"/><rect class="cls-3" x="4.29" y="21.82" width="15.53" height="1.75"/><rect class="cls-6" x="4.96" y="22.37" width="14.19" height="0.7"/><rect class="cls-5" x="4.29" y="24.46" width="17.8" height="3.78"/><rect class="cls-7" x="23.23" y="19.96" width="3.88" height="4.51"/><rect class="cls-3" x="23.23" y="15.45" width="3.88" height="4.51"/><rect class="cls-7" x="23.23" y="10.94" width="3.88" height="4.51"/><rect class="cls-3" x="23.23" y="6.43" width="3.88" height="4.51"/><rect class="cls-5" x="27.11" y="10.55" width="1.45" height="8.46"/><rect class="cls-3" x="24.23" y="21.1" width="1.89" height="2.54"/><rect class="cls-6" x="24.77" y="21.82" width="0.81" height="1.09"/><polygon class="cls-6" points="25.14 15.45 23.23 17.75 25.13 19.96 27.11 17.75 25.14 15.45"/><polygon class="cls-7" points="25.16 16.76 24.36 17.72 25.15 18.65 25.99 17.72 25.16 16.76"/><rect class="cls-6" x="23.23" y="12.04" width="1.95" height="2.24"/><rect class="cls-5" x="25.17" y="12.04" width="1.95" height="2.24"/><rect class="cls-1" x="23.23" y="12.04" width="3.88" height="2.24"/><polygon class="cls-3" points="23.23 13.6 25.18 13.6 25.18 14.28 27.11 13.16 25.18 12.04 25.18 12.81 23.23 12.79 23.23 13.6"/><polygon class="cls-6" points="25.14 6.44 23.23 8.74 25.12 10.94 27.11 8.74 25.14 6.44"/><polygon class="cls-7" points="25.16 7.74 24.36 8.71 25.15 9.64 25.99 8.71 25.16 7.74"/><rect class="cls-7" x="23.24" y="1.93" width="3.88" height="4.51"/><rect class="cls-3" x="24.23" y="3.07" width="1.89" height="2.54"/><rect class="cls-6" x="24.77" y="3.79" width="0.81" height="1.09"/></g><path class="cls-8" d="M15,2.5A12.5,12.5,0,1,1,2.5,15,12.5,12.5,0,0,1,15,2.5M15,1A14,14,0,1,0,29,15,14,14,0,0,0,15,1Z"/></svg>