<svg id="Livello_1" data-name="Livello 1" xmlns="http://www.w3.org/2000/svg" xmlns:xlink="http://www.w3.org/1999/xlink" viewBox="0 0 30 30"><defs><style>.cls-1,.cls-5,.cls-6,.cls-7,.cls-8{fill:none;}.cls-2{clip-path:url(#clip-path);}.cls-3{fill:#15171a;}.cls-4{fill:#4e5757;}.cls-5{stroke:#b4ad94;}.cls-5,.cls-6,.cls-7,.cls-8{stroke-miterlimit:10;stroke-width:0.88px;}.cls-6{stroke:#b0b6ab;}.cls-7{stroke:#4e5757;}.cls-8{stroke:#15171a;}.cls-9{fill:#d1d1d1;}</style><clipPath id="clip-path"><circle class="cls-1" cx="15" cy="15" r="12.5"/></clipPath></defs><g class="cls-2"><circle class="cls-3" cx="15" cy="15" r="12.5"/><polygon class="cls-4" points="16.93 27.37 19.06 27.17 21.35 25.68 19.34 23.91 21.38 22.11 19.3 20.34 21.38 18.56 19.34 16.79 21.38 14.97 19.34 13.15 21.38 11.4 19.34 9.63 21.38 7.83 19.34 6.03 21.38 4.21 19.16 2.52 16.78 2.65 18.63 4.22 16.58 6.04 18.63 7.84 16.58 9.64 18.63 11.41 16.58 13.16 18.63 14.98 16.58 16.8 18.63 18.57 16.55 20.36 18.63 22.12 16.58 23.92 18.59 25.69 16.93 27.37"/><polyline class="cls-5" points="16.04 2.02 18.63 4.22 16.58 6.04 18.63 7.84 16.58 9.64 18.63 11.41 16.58 13.16 18.63 14.98 16.58 16.8 18.63 18.57 16.55 20.36 18.63 22.12 16.58 23.92 18.59 25.69 16.15 27.86"/><polyline class="cls-6" points="19.66 2.88 21.38 4.21 19.34 6.03 21.38 7.83 19.34 9.63 21.38 11.4 19.34 13.15 21.38 14.97 19.34 16.79 21.38 18.56 19.3 20.34 21.38 22.11 19.34 23.91 21.35 25.68 19.59 27.17"/><polyline class="cls-7" points="20.09 2.02 22.68 4.22 20.63 6.04 22.68 7.84 20.63 9.64 22.68 11.41 20.63 13.16 22.68 14.98 20.63 16.8 22.68 18.57 20.6 20.36 22.68 22.12 20.63 23.92 22.64 25.69 20.2 27.86"/><polygon class="cls-4" points="23.79 27.37 25.92 27.17 28.2 25.68 26.19 23.91 28.24 22.11 26.16 20.34 28.24 18.56 26.19 16.79 28.24 14.97 26.19 13.15 28.24 11.4 26.19 9.63 28.24 7.83 26.19 6.03 28.24 4.21 26.01 2.52 23.63 2.65 25.48 4.22 23.44 6.04 25.48 7.84 23.44 9.64 25.48 11.41 23.44 13.16 25.48 14.98 23.44 16.8 25.48 18.57 23.4 20.36 25.48 22.12 23.44 23.93 25.45 25.69 23.79 27.37"/><polyline class="cls-5" points="22.89 2.02 25.48 4.22 23.44 6.04 25.48 7.84 23.44 9.64 25.48 11.41 23.44 13.16 25.48 14.98 23.44 16.8 25.48 18.57 23.4 20.36 25.48 22.12 23.44 23.93 25.45 25.69 23 27.86"/><polyline class="cls-6" points="26.52 2.88 28.24 4.21 26.19 6.03 28.24 7.83 26.19 9.63 28.24 11.4 26.19 13.15 28.24 14.97 26.19 16.79 28.24 18.56 26.16 20.34 28.24 22.11 26.19 23.91 28.2 25.68 26.44 27.17"/><polyline class="cls-8" points="26.94 2.02 29.53 4.22 27.49 6.04 29.53 7.84 27.49 9.64 29.53 11.41 27.49 13.16 29.53 14.98 27.49 16.8 29.53 18.57 27.45 20.36 29.53 22.12 27.49 23.93 29.5 25.69 27.05 27.86"/></g><path class="cls-9" d="M15,2.5A12.5,12.5,0,1,1,2.5,15,12.5,12.5,0,0,1,15,2.5M15,1A14,14,0,1,0,29,15,14,14,0,0,0,15,1Z"/></svg>