<svg id="Livello_1" data-name="Livello 1" xmlns="http://www.w3.org/2000/svg" xmlns:xlink="http://www.w3.org/1999/xlink" viewBox="0 0 30 30"><defs><style>.cls-1,.cls-5,.cls-8{fill:none;}.cls-2{clip-path:url(#clip-path);}.cls-3{fill:#c64c3a;}.cls-4{fill:#3e1d1f;}.cls-5{stroke:#e4d2b2;}.cls-5,.cls-6,.cls-8{stroke-miterlimit:10;}.cls-5,.cls-8{stroke-width:0.88px;}.cls-6{fill:#9b302d;stroke-width:1.1px;}.cls-6,.cls-8{stroke:#9b302d;}.cls-7{fill:#7a5540;}.cls-9{fill:#d1d1d1;}</style><clipPath id="clip-path"><circle class="cls-1" cx="15" cy="15.05" r="12.5"/></clipPath></defs><g class="cls-2"><circle class="cls-3" cx="15" cy="15.05" r="12.5"/><path class="cls-1" d="M11.82,3a10.15,10.15,0,0,1,1.42-.35,14.89,14.89,0,0,1,3.53,0L18.41,3"/><path class="cls-4" d="M18.72,3.12l-1.37,1.1,2,1.81-2,2,2,1.76-2,1.77,2,1.77-2,1.81,2,1.72-2,1.77,2.07,1.81-2.07,1.77,2,1.81-2,1.68,1.5,1.28a13.62,13.62,0,0,1-1.9.39,20.41,20.41,0,0,1-4.42,0L11,26.93l1.5-1.28-2-1.77,2-1.81L10.5,20.35l2.08-1.82-2-1.72,2-1.81-2-1.81,2-1.77-2-1.76,2-1.68-2-1.81,2-1.81L11.16,3.12l1.64-.4a13,13,0,0,1,2.16,0A10.39,10.39,0,0,1,18.72,3.12Z"/><polyline class="cls-5" points="19.11 2.85 17.39 4.22 19.42 6.03 17.39 7.84 19.42 9.66 17.39 11.38 19.42 13.15 17.39 14.96 19.42 16.81 17.39 18.58 19.47 20.34 17.39 22.11 19.42 23.92 17.43 25.69 19.16 27.15"/><polyline class="cls-5" points="10.9 2.9 12.62 4.22 10.59 6.03 12.62 7.84 10.59 9.66 12.62 11.42 10.59 13.15 12.62 15 10.59 16.81 12.62 18.58 10.54 20.34 12.62 22.11 10.59 23.92 12.58 25.69 10.81 27.19"/><path class="cls-6" d="M13.81,5.81h.84V5.33h.71v.48h.88v.45h-.88v.48h-.71V6.26h-.84Z"/><path class="cls-7" d="M13.37,5.73h1.15V5.06h1v.67H16.6v.61H15.49V7h-1V6.34H13.37Z"/><path class="cls-6" d="M13.86,9.39h.79V8.86h.71v.53h.88v.4h-.88v.53h-.71V9.79h-.79Z"/><path class="cls-7" d="M13.41,9.3h1.11V8.6h1v.7h1.15v.58H15.49v.7h-1v-.7H13.41Z"/><path class="cls-6" d="M13.86,13.15h.79v-.49h.71v.49h.88v.44h-.88v.48h-.71v-.48h-.79Z"/><path class="cls-7" d="M13.41,13.06h1.11v-.67h1v.71h1.15v.62H15.49v.66h-1v-.7H13.41Z"/><path class="cls-6" d="M13.77,16.5h.84V16h.7v.53h.93v.31h-.93v.53h-.7v-.53h-.84Z"/><path class="cls-7" d="M13.33,16.41h1.14v-.7h.93v.7h1.15v.4H15.4v.89h-.93v-.89H13.33Z"/><path class="cls-6" d="M13.77,20h.84v-.53h.7V20h.93v.4h-.93v.53h-.7v-.53h-.84Z"/><path class="cls-7" d="M13.33,19.9h1.14v-.7h.93v.7h1.15v.58H15.4v.75h-.93v-.75H13.33Z"/><path class="cls-6" d="M13.86,23.66h.79v-.53h.71v.53h.88v.4h-.88v.53h-.71v-.53h-.79Z"/><path class="cls-7" d="M13.41,23.57h1.11v-.71h1v.71h1.15v.57H15.49v.71h-1v-.71H13.41Z"/><path class="cls-6" d="M13.9,27.24h.84v-.53h.66v.53h.84v.39H15.4v.53h-.66v-.53H13.9Z"/><path class="cls-7" d="M13.46,27.15h1.15v-.71h.93v.71h1.14v.57H15.54v.71h-.93v-.71H13.46Z"/><path class="cls-6" d="M13.81,2.06h.84V1.53h.71v.53h.88V2.5h-.88V3h-.71V2.5h-.84Z"/><path class="cls-7" d="M13.37,2h1.15V1.26h1V2H16.6v.58H15.49v.7h-1v-.7H13.37Z"/><path class="cls-4" d="M9,4.05A11.77,11.77,0,0,0,5.46,7C3.79,9,4,9.3,4,9.3l.39.36-2,1.76,2,1.77L2.37,15l2,1.81-2,1.77,2.08,1.81-.53.44.71,1.86,3.48,3.4h.76l1-.44-2-1.77,2-1.77L7.81,20.35l2.07-1.82-2-1.72,2-1.81-2-1.81,2-1.77-2-1.76L9.88,8l-2-1.77L9.62,4.58l-.31-.53Z"/><polyline class="cls-8" points="4.09 2.9 2.37 4.22 4.4 6.08 2.37 7.84 4.4 9.66 2.37 11.42 4.4 13.19 2.37 15 4.4 16.81 2.37 18.58 4.45 20.39 2.37 22.16 4.4 23.92 2.42 25.69 4.18 27.19"/><polyline class="cls-8" points="8.16 2.9 9.88 4.22 7.85 6.08 9.88 7.84 7.85 9.66 9.88 11.42 7.85 13.19 9.88 15 7.85 16.81 9.88 18.58 7.8 20.39 9.88 22.16 7.85 23.92 9.84 25.69 8.07 27.19"/><polygon class="cls-4" points="20.61 3.87 20.13 4.22 22.16 6.03 20.13 7.84 22.16 9.66 20.13 11.42 22.16 13.15 20.13 15 22.16 16.81 20.13 18.58 22.2 20.34 20.13 22.11 22.16 23.92 20.17 25.69 20.7 26.18 24.1 25.34 26.49 21.18 25.52 20.39 27.59 18.58 25.56 16.81 27.59 15 25.56 13.19 27.59 11.42 25.56 9.66 27.59 7.84 21.54 3.12 20.61 3.87"/><polyline class="cls-8" points="21.85 2.9 20.13 4.22 22.16 6.03 20.13 7.84 22.16 9.66 20.13 11.42 22.16 13.15 20.13 15 22.16 16.81 20.13 18.58 22.2 20.34 20.13 22.11 22.16 23.92 20.17 25.69 21.94 27.19"/><polyline class="cls-8" points="25.87 2.9 27.59 4.22 25.56 6.08 27.59 7.84 25.56 9.66 27.59 11.42 25.56 13.19 27.59 15 25.56 16.81 27.59 18.58 25.52 20.39 27.59 22.16 25.56 23.92 27.55 25.69 25.78 27.19"/></g><path class="cls-9" d="M15,2.5A12.5,12.5,0,1,1,2.5,15,12.5,12.5,0,0,1,15,2.5M15,1A14,14,0,1,0,29,15,14,14,0,0,0,15,1Z"/><path class="cls-9" d="M15,2.5A12.5,12.5,0,1,1,2.5,15,12.5,12.5,0,0,1,15,2.5M15,1A14,14,0,1,0,29,15,14,14,0,0,0,15,1Z"/></svg>