<?xml version="1.0" encoding="UTF-8"?><svg id="Livello_1" xmlns="http://www.w3.org/2000/svg" xmlns:xlink="http://www.w3.org/1999/xlink" viewBox="0 0 30 30"><defs><style>.cls-1,.cls-2,.cls-3,.cls-4{fill:none;}.cls-5{clip-path:url(#clippath);}.cls-6{fill:#a98e73;}.cls-7{fill:#d1d1d1;}.cls-8{fill:#215164;}.cls-9{fill:#1d3767;}.cls-2{stroke:#191919;}.cls-2,.cls-3,.cls-4{stroke-miterlimit:10;stroke-width:.88px;}.cls-3{stroke:#05779a;}.cls-4{stroke:#f4e7ce;}</style><clipPath id="clippath"><circle class="cls-1" cx="15" cy="15.05" r="12.5"/></clipPath></defs><g class="cls-5"><g><circle class="cls-9" cx="15" cy="15.05" r="12.5"/><path class="cls-1" d="m11.82,3.03c.46-.15.94-.27,1.41-.35,1.17-.13,2.36-.13,3.53,0l1.63.31"/><path class="cls-6" d="m18.72,3.12l-1.37,1.1,2.03,1.81-2.03,1.94,2.03,1.77-2.03,1.77,2.03,1.77-2.03,1.81,2.03,1.72-2.03,1.77,2.08,1.81-2.08,1.77,2.03,1.81-2.03,1.68,1.5,1.28c-.62.18-1.26.31-1.9.4-1.47.16-2.95.16-4.42,0l-1.5-.4,1.5-1.28-1.99-1.77,2.03-1.81-2.08-1.72,2.08-1.81-2.03-1.72,2.03-1.81-2.03-1.81,2.03-1.77-2.03-1.77,2.03-1.68-2.03-1.81,2.03-1.81-1.41-1.24,1.63-.4c.72-.06,1.44-.06,2.16,0,1.27-.1,2.54.04,3.75.4Z"/><polyline class="cls-2" points="19.11 2.85 17.39 4.22 19.42 6.03 17.39 7.85 19.42 9.66 17.39 11.38 19.42 13.15 17.39 14.96 19.42 16.81 17.39 18.58 19.47 20.35 17.39 22.11 19.42 23.92 17.43 25.69 19.16 27.15"/><polyline class="cls-2" points="10.9 2.9 12.62 4.22 10.59 6.03 12.62 7.85 10.59 9.66 12.62 11.42 10.59 13.15 12.62 15 10.59 16.81 12.62 18.58 10.54 20.35 12.62 22.11 10.59 23.92 12.58 25.69 10.81 27.19"/><path class="cls-4" d="m13.81,5.81h.84v-.49h.71v.49h.88v.44h-.88v.49h-.71v-.49h-.84v-.44Z"/><path class="cls-8" d="m13.37,5.73h1.15v-.66h.97v.66h1.1v.62h-1.1v.66h-.97v-.66h-1.15v-.62Z"/><path class="cls-4" d="m13.86,9.39h.8v-.53h.71v.53h.88v.4h-.88v.53h-.71v-.53h-.8v-.4Z"/><path class="cls-8" d="m13.41,9.3h1.1v-.71h.97v.71h1.15v.57h-1.15v.71h-.97v-.71h-1.1v-.57Z"/><path class="cls-4" d="m13.86,13.15h.8v-.49h.71v.49h.88v.44h-.88v.49h-.71v-.49h-.8v-.44Z"/><path class="cls-8" d="m13.41,13.06h1.1v-.66h.97v.71h1.15v.62h-1.15v.66h-.97v-.71h-1.1v-.62Z"/><path class="cls-4" d="m13.77,16.5h.84v-.53h.71v.53h.93v.31h-.93v.53h-.71v-.53h-.84v-.31Z"/><path class="cls-8" d="m13.33,16.41h1.15v-.71h.93v.71h1.15v.4h-1.15v.88h-.93v-.88h-1.15v-.4Z"/><path class="cls-4" d="m13.77,19.99h.84v-.53h.71v.53h.93v.4h-.93v.53h-.71v-.53h-.84v-.4Z"/><path class="cls-8" d="m13.33,19.9h1.15v-.71h.93v.71h1.15v.57h-1.15v.75h-.93v-.75h-1.15v-.57Z"/><path class="cls-4" d="m13.86,23.66h.8v-.53h.71v.53h.88v.4h-.88v.53h-.71v-.53h-.8v-.4Z"/><path class="cls-8" d="m13.41,23.57h1.1v-.71h.97v.71h1.15v.57h-1.15v.71h-.97v-.71h-1.1v-.57Z"/><path class="cls-4" d="m13.9,27.24h.84v-.53h.66v.53h.84v.4h-.84v.53h-.66v-.53h-.84v-.4Z"/><path class="cls-8" d="m13.46,27.15h1.15v-.71h.93v.71h1.15v.57h-1.15v.71h-.93v-.71h-1.15v-.57Z"/><path class="cls-4" d="m13.81,2.06h.84v-.53h.71v.53h.88v.44h-.88v.49h-.71v-.49h-.84v-.44Z"/><path class="cls-8" d="m13.37,1.97h1.15v-.71h.97v.71h1.1v.57h-1.1v.71h-.97v-.71h-1.15v-.57Z"/><path class="cls-8" d="m8.95,4.05c-1.34.74-2.53,1.73-3.49,2.92-1.68,2.03-1.46,2.34-1.46,2.34l.4.35-2.03,1.77,2.03,1.77-2.03,1.81,2.03,1.81-2.03,1.77,2.08,1.81-.53.44.71,1.86,3.49,3.4h.75l.97-.44-1.99-1.77,2.03-1.77-2.08-1.77,2.08-1.81-2.03-1.72,2.03-1.81-2.03-1.81,2.03-1.77-2.03-1.77,2.03-1.68-2.03-1.77,1.77-1.63-.31-.53h-.35Z"/><polyline class="cls-3" points="4.1 2.9 2.37 4.22 4.4 6.08 2.37 7.85 4.4 9.66 2.37 11.42 4.4 13.19 2.37 15 4.4 16.81 2.37 18.58 4.45 20.39 2.37 22.16 4.4 23.92 2.42 25.69 4.18 27.19"/><polyline class="cls-3" points="8.16 2.9 9.88 4.22 7.85 6.08 9.88 7.85 7.85 9.66 9.88 11.42 7.85 13.19 9.88 15 7.85 16.81 9.88 18.58 7.81 20.39 9.88 22.16 7.85 23.92 9.84 25.69 8.07 27.19"/><polygon class="cls-8" points="20.61 3.87 20.13 4.22 22.16 6.03 20.13 7.85 22.16 9.66 20.13 11.42 22.16 13.15 20.13 15 22.16 16.81 20.13 18.58 22.2 20.35 20.13 22.11 22.16 23.92 20.17 25.69 20.7 26.18 24.1 25.34 26.49 21.18 25.52 20.39 27.59 18.58 25.56 16.81 27.59 15 25.56 13.19 27.59 11.42 25.56 9.66 27.59 7.85 21.54 3.12 20.61 3.87"/><polyline class="cls-3" points="21.85 2.9 20.13 4.22 22.16 6.03 20.13 7.85 22.16 9.66 20.13 11.42 22.16 13.15 20.13 15 22.16 16.81 20.13 18.58 22.2 20.35 20.13 22.11 22.16 23.92 20.17 25.69 21.94 27.19"/><polyline class="cls-3" points="25.87 2.9 27.59 4.22 25.56 6.08 27.59 7.85 25.56 9.66 27.59 11.42 25.56 13.19 27.59 15 25.56 16.81 27.59 18.58 25.52 20.39 27.59 22.16 25.56 23.92 27.55 25.69 25.78 27.19"/></g></g><path class="cls-7" d="m15,2.5c6.9,0,12.5,5.6,12.5,12.5s-5.6,12.5-12.5,12.5S2.5,21.9,2.5,15,8.1,2.5,15,2.5m0-1.5C7.28,1,1,7.28,1,15s6.28,14,14,14,14-6.28,14-14S22.72,1,15,1h0Z"/></svg>