<svg id="Livello_1" data-name="Livello 1" xmlns="http://www.w3.org/2000/svg" xmlns:xlink="http://www.w3.org/1999/xlink" viewBox="0 0 30 30"><defs><style>.cls-1,.cls-10,.cls-11{fill:none;}.cls-2{clip-path:url(#clip-path);}.cls-3,.cls-4{fill:#9b1e48;}.cls-4{stroke:#9b1e48;}.cls-10,.cls-11,.cls-4,.cls-7,.cls-8{stroke-miterlimit:10;stroke-width:0.88px;}.cls-5,.cls-8{fill:#2b2d35;}.cls-6{fill:#adb8b0;}.cls-10,.cls-7{stroke:#000;}.cls-8{stroke:#2b2d35;}.cls-9{fill:#e1dab9;}.cls-11{stroke:#adb8b0;}.cls-12{fill:#d1d1d1;}</style><clipPath id="clip-path"><circle class="cls-1" cx="14.73" cy="15.01" r="12.5"/></clipPath></defs><g class="cls-2"><circle class="cls-3" cx="14.73" cy="15.01" r="12.5"/><polygon points="17.83 2.91 20.74 3.17 20.74 27.07 17.52 27.2 18.89 25.96 16.81 24.15 18.93 22.3 16.81 20.49 18.93 18.63 16.81 16.82 18.98 14.97 16.81 13.07 18.89 11.3 16.81 9.45 18.93 7.63 16.81 5.74 18.98 3.88 17.83 2.91"/><path class="cls-4" d="M19.68,24.37v.45h0v-.45h-.53V24h.31v-.49h0V24"/><path class="cls-4" d="M19.68,20.66v.53h0v-.53h-.53v-.35h.31v-.48h0v.48"/><path class="cls-4" d="M19.68,17v.44h0V17h-.53v-.26h.31v-.62h0v.62"/><path class="cls-4" d="M19.68,13.29v.48h0v-.48h-.53v-.4h.31v-.53h0v.44"/><path class="cls-4" d="M19.68,9.67v.44h0V9.67h-.53v-.4h.31V8.83h0v.44"/><path class="cls-4" d="M19.68,6V6.4h0V6h-.53v-.4h.31V5.12h0v.44"/><rect class="cls-5" x="20.74" y="3.84" width="0.44" height="22.22"/><rect class="cls-3" x="21.18" y="3.84" width="0.44" height="22.22"/><rect class="cls-6" x="21.58" y="3.84" width="0.44" height="22.22"/><rect class="cls-5" x="25.2" y="3.88" width="0.44" height="22.22"/><rect class="cls-3" x="24.81" y="3.88" width="0.44" height="22.22"/><rect class="cls-6" x="24.36" y="3.88" width="0.44" height="22.22"/><polygon class="cls-6" points="28.56 3.53 25.64 3.79 25.64 27.69 28.87 27.82 27.54 26.58 29.58 24.77 27.5 22.96 29.58 21.11 27.5 19.25 29.58 17.44 27.46 15.59 29.58 13.73 27.54 11.92 29.58 10.06 27.46 8.25 29.58 6.4 27.41 4.5 28.56 3.53"/><path class="cls-7" d="M26.7,24.6v-.49H27v.49h.26V25H27v.62H26.7v-.44"/><path class="cls-7" d="M26.7,20.93v-.49H27v.49h.26v.26H27v.45H26.7v-.45"/><path class="cls-8" d="M26.7,17.26v-.48H27v.44h.26v.44H27v.44H26.7v-.44"/><path class="cls-8" d="M26.7,13.51v-.44H27v.44h.26v.4H27v.48H26.7v-.48"/><path class="cls-7" d="M27,9.75V9.27h0v.48h.31v.36h-.09v.48h0v-.48"/><path class="cls-7" d="M26.7,6.18V5.73H27v.45h.26v.39H27V7H26.7V6.57"/><polygon class="cls-9" points="16.81 27.82 18.89 25.96 16.81 24.15 18.93 22.3 16.81 20.49 18.93 18.63 16.81 16.82 18.98 14.97 16.81 13.07 18.89 11.3 16.81 9.45 18.93 7.63 16.81 5.74 18.98 3.88 16.81 2.07 15.13 2.51 16.9 3.88 14.82 5.78 16.9 7.63 14.82 9.49 16.9 11.3 14.82 13.11 16.9 14.97 14.82 16.82 16.9 18.63 14.78 20.49 16.9 22.3 14.82 24.15 16.9 25.96 15 27.78 16.81 27.82"/><polygon class="cls-8" points="12.66 2.6 14.29 3.88 12.17 5.78 14.29 7.63 12.17 9.49 14.29 11.3 12.17 13.11 14.29 14.97 12.17 16.82 14.29 18.63 12.13 20.49 14.29 22.3 12.17 24.15 14.25 25.96 12.57 27.38 15 27.78 16.9 25.96 14.82 24.15 16.9 22.3 14.78 20.49 16.9 18.63 14.82 16.82 16.9 14.97 14.82 13.11 16.9 11.3 14.82 9.49 16.9 7.63 14.82 5.78 16.9 3.88 14.51 2.16 12.66 2.6"/><polyline class="cls-10" points="12 2.16 14.29 3.88 12.17 5.78 14.29 7.63 12.17 9.49 14.29 11.3 12.17 13.11 14.29 14.97 12.17 16.82 14.29 18.63 12.13 20.49 14.29 22.3 12.17 24.15 14.25 25.96 12.17 27.73"/><polyline class="cls-11" points="14.69 2.16 16.9 3.88 14.82 5.78 16.9 7.63 14.82 9.49 16.9 11.3 14.82 13.11 16.9 14.97 14.82 16.82 16.9 18.63 14.78 20.49 16.9 22.3 14.82 24.15 16.9 25.96 14.78 27.73"/><path d="M22,4.85V25.17s2-.8,2-.88L24.36,23V6.8L22,4.59Z"/><rect class="cls-3" x="22.51" y="6.8" width="1.33" height="1.59"/><rect class="cls-9" x="22.86" y="7.19" width="0.71" height="0.84"/><rect class="cls-3" x="22.51" y="10.55" width="1.33" height="1.59"/><rect class="cls-9" x="22.86" y="10.9" width="0.71" height="0.84"/><rect class="cls-3" x="22.51" y="14.13" width="1.33" height="1.59"/><rect class="cls-9" x="22.86" y="14.52" width="0.71" height="0.84"/><rect class="cls-3" x="22.51" y="17.93" width="1.33" height="1.59"/><rect class="cls-9" x="22.86" y="18.28" width="0.71" height="0.84"/><rect class="cls-3" x="22.51" y="21.55" width="1.33" height="1.59"/><rect class="cls-9" x="22.86" y="21.9" width="0.71" height="0.84"/></g><path class="cls-12" d="M15,2.5A12.5,12.5,0,1,1,2.5,15,12.5,12.5,0,0,1,15,2.5M15,1A14,14,0,1,0,29,15,14,14,0,0,0,15,1Z"/></svg>