<svg id="Livello_1" data-name="Livello 1" xmlns="http://www.w3.org/2000/svg" xmlns:xlink="http://www.w3.org/1999/xlink" viewBox="0 0 30 30"><defs><style>.cls-1,.cls-10,.cls-9{fill:none;}.cls-2{clip-path:url(#clip-path);}.cls-3,.cls-5{fill:#2b2d35;}.cls-4{fill:#adb8b0;}.cls-5{stroke:#2b2d35;}.cls-10,.cls-5,.cls-8,.cls-9{stroke-miterlimit:10;stroke-width:0.88px;}.cls-6{fill:#85c751;}.cls-7{fill:#e1dab9;}.cls-8{stroke:#000;}.cls-9{stroke:#adb8b0;}.cls-10{stroke:#e1dab9;}.cls-11{fill:#d1d1d1;}</style><clipPath id="clip-path"><circle class="cls-1" cx="14.73" cy="15.02" r="12.5"/></clipPath></defs><g class="cls-2"><circle class="cls-3" cx="14.73" cy="15.02" r="12.5"/><polygon class="cls-4" points="17.83 2.91 20.74 3.18 20.74 27.07 17.52 27.21 18.89 25.97 16.81 24.16 18.93 22.3 16.81 20.49 18.93 18.64 16.81 16.83 18.98 14.97 16.81 13.07 18.89 11.31 16.81 9.45 18.93 7.64 16.81 5.74 18.98 3.89 17.83 2.91"/><path class="cls-5" d="M19.68,24.38v.44h0v-.44h-.53V24h.31V23.5h0V24"/><path class="cls-5" d="M19.68,20.67v.53h0v-.53h-.53v-.35h.31v-.49h0v.49"/><path class="cls-5" d="M19.68,17.05v.44h0v-.44h-.53v-.27h.31v-.62h0v.62"/><path class="cls-5" d="M19.68,13.29v.49h0v-.49h-.53V12.9h.31v-.53h0v.44"/><path class="cls-5" d="M19.68,9.67v.44h0V9.67h-.53v-.4h.31V8.83h0v.44"/><path class="cls-5" d="M19.68,6V6.4h0V6h-.53v-.4h.31V5.12h0v.44"/><rect class="cls-6" x="20.74" y="3.84" width="0.44" height="22.22"/><rect class="cls-7" x="21.18" y="3.84" width="0.44" height="22.22"/><rect class="cls-4" x="21.58" y="3.84" width="0.44" height="22.22"/><rect class="cls-6" x="25.2" y="3.89" width="0.44" height="22.22"/><rect class="cls-7" x="24.81" y="3.89" width="0.44" height="22.22"/><rect class="cls-4" x="24.36" y="3.89" width="0.44" height="22.22"/><polygon class="cls-4" points="28.56 3.53 25.64 3.8 25.64 27.69 28.87 27.83 27.54 26.59 29.58 24.78 27.5 22.97 29.58 21.11 27.5 19.26 29.58 17.45 27.46 15.59 29.58 13.74 27.54 11.93 29.58 10.07 27.46 8.26 29.58 6.4 27.41 4.5 28.56 3.53"/><path class="cls-8" d="M26.7,24.6v-.48H27v.48h.26V25H27v.62H26.7v-.44"/><path class="cls-8" d="M26.7,20.94v-.49H27v.49h.26v.26H27v.44H26.7V21.2"/><path class="cls-5" d="M26.7,17.27v-.49H27v.45h.26v.44H27v.44H26.7v-.44"/><path class="cls-5" d="M26.7,13.51v-.44H27v.44h.26v.4H27v.49H26.7v-.49"/><path class="cls-8" d="M27,9.76V9.27h0v.49h.31v.35h-.09v.49h0v-.49"/><path class="cls-8" d="M26.7,6.18V5.74H27v.44h.26v.4H27V7H26.7V6.58"/><rect class="cls-7" x="22.51" y="6.8" width="1.33" height="1.59"/><rect x="22.86" y="7.2" width="0.71" height="0.84"/><rect class="cls-7" x="22.51" y="10.56" width="1.33" height="1.59"/><rect x="22.86" y="10.91" width="0.71" height="0.84"/><rect class="cls-7" x="22.51" y="14.13" width="1.33" height="1.59"/><rect x="22.86" y="14.53" width="0.71" height="0.84"/><rect class="cls-7" x="22.51" y="17.93" width="1.33" height="1.59"/><rect x="22.86" y="18.29" width="0.71" height="0.84"/><rect class="cls-7" x="22.51" y="21.55" width="1.33" height="1.59"/><rect x="22.86" y="21.91" width="0.71" height="0.84"/><polygon points="16.81 27.83 18.89 25.97 16.81 24.16 18.93 22.3 16.81 20.49 18.93 18.64 16.81 16.83 18.98 14.97 16.81 13.07 18.89 11.31 16.81 9.45 18.93 7.64 16.81 5.74 18.98 3.89 16.81 2.08 15.13 2.52 16.9 3.89 14.82 5.79 16.9 7.64 14.82 9.49 16.9 11.31 14.82 13.12 16.9 14.97 14.82 16.83 16.9 18.64 14.78 20.49 16.9 22.3 14.82 24.16 16.9 25.97 15 27.78 16.81 27.83"/><polygon class="cls-6" points="12.66 2.6 14.29 3.89 12.17 5.79 14.29 7.64 12.17 9.49 14.29 11.31 12.17 13.12 14.29 14.97 12.17 16.83 14.29 18.64 12.13 20.49 14.29 22.3 12.17 24.16 14.25 25.97 12.57 27.38 15 27.78 16.9 25.97 14.82 24.16 16.9 22.3 14.78 20.49 16.9 18.64 14.82 16.83 16.9 14.97 14.82 13.12 16.9 11.31 14.82 9.49 16.9 7.64 14.82 5.79 16.9 3.89 14.51 2.16 12.66 2.6"/><polyline class="cls-9" points="12 2.16 14.29 3.89 12.17 5.79 14.29 7.64 12.17 9.49 14.29 11.31 12.17 13.12 14.29 14.97 12.17 16.83 14.29 18.64 12.13 20.49 14.29 22.3 12.17 24.16 14.25 25.97 12.17 27.74"/><polyline class="cls-10" points="14.69 2.16 16.9 3.89 14.82 5.79 16.9 7.64 14.82 9.49 16.9 11.31 14.82 13.12 16.9 14.97 14.82 16.83 16.9 18.64 14.78 20.49 16.9 22.3 14.82 24.16 16.9 25.97 14.78 27.74"/></g><path class="cls-11" d="M15,2.5A12.5,12.5,0,1,1,2.5,15,12.5,12.5,0,0,1,15,2.5M15,1A14,14,0,1,0,29,15,14,14,0,0,0,15,1Z"/></svg>