<svg id="Livello_1" data-name="Livello 1" xmlns="http://www.w3.org/2000/svg" xmlns:xlink="http://www.w3.org/1999/xlink" viewBox="0 0 30 30"><defs><style>.cls-1,.cls-8{fill:none;}.cls-2{clip-path:url(#clip-path);}.cls-3{fill:#020723;}.cls-4{fill:#e1dab9;}.cls-5{fill:#d9a44d;}.cls-6{fill:#7290b3;}.cls-7{fill:#2b3274;}.cls-8{stroke:#2b3274;stroke-miterlimit:10;stroke-width:0.88px;}.cls-9{fill:#d1d1d1;}</style><clipPath id="clip-path"><circle class="cls-1" cx="14.97" cy="14.99" r="12.5"/></clipPath></defs><g class="cls-2"><circle class="cls-3" cx="14.97" cy="14.99" r="12.5"/><rect class="cls-4" x="14.09" y="2.09" width="1.72" height="25.84"/><rect class="cls-5" x="15.15" y="2.09" width="0.44" height="25.84"/><rect class="cls-6" x="14.71" y="2.09" width="0.44" height="25.84"/><rect class="cls-7" x="14.31" y="2.09" width="0.44" height="25.84"/><polygon class="cls-6" points="18.42 27 18.6 27.09 19.66 26.56 19.66 3.15 17.4 2.71 18.6 4.21 16.52 6.11 18.6 7.96 16.52 9.82 18.6 11.63 16.52 13.44 18.6 15.3 16.52 17.15 18.6 18.96 16.48 20.82 18.6 22.63 16.52 24.48 18.55 26.29 18.42 27"/><polyline class="cls-8" points="15.86 2.04 18.6 4.21 16.52 6.11 18.6 7.96 16.52 9.82 18.6 11.63 16.52 13.44 18.6 15.3 16.52 17.15 18.6 18.96 16.48 20.82 18.6 22.63 16.52 24.48 18.55 26.29 16.52 28.06"/><polygon class="cls-6" points="24.87 27 24.69 27.09 23.63 26.56 23.63 3.15 25.88 2.71 24.69 4.21 26.81 6.11 24.69 7.96 26.81 9.82 24.69 11.63 26.81 13.44 24.69 15.3 26.81 17.15 24.69 18.96 26.81 20.82 24.69 22.63 26.81 24.48 24.73 26.29 24.87 27"/><polyline class="cls-8" points="27.43 2.04 24.69 4.21 26.81 6.11 24.69 7.96 26.81 9.82 24.69 11.63 26.81 13.44 24.69 15.3 26.81 17.15 24.69 18.96 26.81 20.82 24.69 22.63 26.81 24.48 24.73 26.29 26.77 28.06"/><rect class="cls-4" x="19.26" y="3.1" width="4.37" height="23.72"/><rect class="cls-5" x="20.45" y="3.1" width="2.03" height="23.72"/><path class="cls-8" d="M20.27,5.89h.84V5.36h.71v.53h.84v.4h-.84v.53h-.71V6.29h-.84Z"/><path class="cls-6" d="M19.83,5.8H21V5.09h1V5.8H23.1v.57H22v.71H21V6.37H19.83Z"/><path class="cls-8" d="M20.27,9.6h.84V9.11h.71V9.6h.84V10h-.84v.49h-.71V10h-.84Z"/><path class="cls-6" d="M19.83,9.51H21V8.8h1v.71H23.1v.62H22v.66H21v-.66H19.83Z"/><path class="cls-8" d="M20.27,13.22h.84v-.49h.71v.49h.84v.44h-.84v.53h-.71v-.53h-.84Z"/><path class="cls-6" d="M19.83,13.18H21v-.84h1V13H23.1v.58H22v.7H21v-.57H19.83Z"/><path class="cls-8" d="M20.27,17h.84v-.53h.71V17h.84v.4h-.84v.53h-.71v-.53h-.84Z"/><path class="cls-6" d="M19.83,16.75H21v-.57h1v.57H23.1v.58H22V18H21v-.57H19.83Z"/><path class="cls-8" d="M20.27,20.64h.84v-.53h.71v.53h.84v.53h-.84v.53h-.71v-.53h-.84Z"/><path class="cls-6" d="M19.83,20.55H21v-.7h1v.7H23.1v.62H22v.71H21v-.71H19.83Z"/><path class="cls-8" d="M20.27,24.26h.84v-.48h.71v.48h.84v.44h-.84v.49h-.71V24.7h-.84Z"/><path class="cls-6" d="M19.83,24.17H21v-.7h1v.7H23.1v.62H22v.8H21v-.8H19.83Z"/></g><path class="cls-9" d="M15,2.5A12.5,12.5,0,1,1,2.5,15,12.5,12.5,0,0,1,15,2.5M15,1A14,14,0,1,0,29,15,14,14,0,0,0,15,1Z"/></svg>