<svg id="Livello_1" data-name="Livello 1" xmlns="http://www.w3.org/2000/svg" xmlns:xlink="http://www.w3.org/1999/xlink" viewBox="0 0 30 30"><defs><style>.cls-1,.cls-7,.cls-9{fill:none;}.cls-2{clip-path:url(#clip-path);}.cls-3{fill:#151116;}.cls-4{fill:#973d3c;}.cls-5{fill:#e1dab9;}.cls-6{fill:#e6bb80;}.cls-7{stroke:#e6bb80;}.cls-7,.cls-9{stroke-miterlimit:10;stroke-width:0.88px;}.cls-8{fill:#212124;}.cls-9{stroke:#973d3c;}.cls-10{fill:#d1d1d1;}</style><clipPath id="clip-path"><circle class="cls-1" cx="14.91" cy="14.88" r="12.5"/></clipPath></defs><g class="cls-2"><circle class="cls-3" cx="14.91" cy="14.88" r="12.5"/><polygon class="cls-4" points="13.68 27.38 13.46 27.38 13.46 2.42 14.52 2.56 16.33 4.1 14.3 5.96 16.33 7.72 14.3 9.54 16.33 11.3 14.3 13.07 16.33 14.88 14.3 16.69 16.33 18.46 14.3 20.27 16.33 22.04 14.3 23.85 16.33 25.61 14.21 27.34 13.68 27.38"/><rect class="cls-3" x="11.96" y="2.03" width="1.72" height="25.84"/><rect class="cls-5" x="13.02" y="1.98" width="0.44" height="25.84"/><rect class="cls-6" x="12.57" y="1.98" width="0.44" height="25.84"/><rect class="cls-4" x="12.18" y="1.98" width="0.44" height="25.84"/><polygon class="cls-5" points="14.78 27.51 16.9 27.34 19.2 25.83 17.17 24.02 19.24 22.17 17.12 20.36 19.24 18.55 17.17 16.73 19.24 14.88 17.17 13.03 19.24 11.21 17.17 9.4 19.24 7.59 17.17 5.74 19.24 3.88 16.99 2.12 14.61 2.25 16.46 3.88 14.43 5.74 16.46 7.59 14.43 9.45 16.46 11.21 14.43 13.03 16.46 14.88 14.43 16.73 16.46 18.55 14.38 20.36 16.46 22.17 14.43 24.02 16.42 25.83 14.78 27.51"/><polyline class="cls-7" points="13.86 1.94 16.46 4.1 14.43 5.96 16.46 7.72 14.43 9.54 16.46 11.3 14.43 13.07 16.46 14.88 14.43 16.69 16.46 18.46 14.38 20.27 16.46 22.04 14.43 23.85 16.42 25.61 13.99 27.78"/><polygon class="cls-4" points="26.66 20.27 24.63 18.5 26.66 16.69 24.63 14.88 26.66 13.11 24.63 11.35 26.66 9.58 28.17 9.58 27.37 20.27 26.66 20.27"/><polygon class="cls-6" points="18.45 2.87 18.14 3.17 19.24 4.1 17.17 5.91 19.24 7.72 17.17 9.4 19.24 11.3 17.17 13.07 19.24 14.88 17.17 16.69 19.24 18.46 17.12 20.36 19.24 22.17 17.17 24.02 19.2 25.57 17.96 26.67 19.51 27.6 21.54 25.79 21.54 3.44 18.45 2.87"/><polygon class="cls-8" points="19.68 5.56 19.24 5.91 21.27 7.72 19.24 9.54 21.27 11.35 19.24 13.11 21.27 14.88 19.24 16.69 21.27 18.5 19.24 20.27 21.32 22.04 19.24 23.8 21.27 25.61 19.24 27.38 19.82 27.87 23.18 27.03 25.56 22.88 24.59 22.08 26.66 20.27 24.63 18.5 26.66 16.69 24.63 14.88 26.66 13.11 24.63 11.35 27.02 8.92 21.98 4.06 19.68 5.56"/><polyline class="cls-9" points="16.73 1.98 19.24 4.1 17.17 5.91 19.24 7.72 17.17 9.54 19.24 11.3 17.17 13.07 19.24 14.88 17.17 16.69 19.24 18.46 17.12 20.22 19.24 21.99 17.17 23.8 19.2 25.57 16.73 27.78"/><path class="cls-5" d="M21,5.65h1.1V4.94h1v.71h1.14v.62H23.09v.66h-1V6.27H21Z"/><path class="cls-5" d="M21,9.27h1.14V8.56h1v.71h1.1v.57h-1.1v.71h-1V9.84H21Z"/><path class="cls-5" d="M21,12.76h1.1v-.53h1v.71h1.14v.57H23.09v.71h-1v-.89H21Z"/><path class="cls-5" d="M21,16.29h1.14v-.7h1v.7h1.1v.58h-1.1v.7h-1v-.7H21Z"/><path class="cls-5" d="M21,20h1.14v-.71h1V20h1.1v.57h-1.1v.53h-1v-.53H21Z"/><path class="cls-5" d="M21,23.63h1.14v-.71H23v.71h1.15v.57H23v.66h-.93V24.2H21Z"/><polyline class="cls-7" points="24.94 4.59 26.66 5.91 24.63 7.77 26.66 9.58 24.63 11.35 26.66 13.11 24.63 14.88 26.66 16.69 24.63 18.5 26.66 20.27 24.59 22.08 26.66 23.85 24.63 25.66 26.66 27.42 24.9 28.88"/></g><path class="cls-10" d="M15,2.5A12.5,12.5,0,1,1,2.5,15,12.5,12.5,0,0,1,15,2.5M15,1A14,14,0,1,0,29,15,14,14,0,0,0,15,1Z"/></svg>