<svg id="Livello_1" data-name="Livello 1" xmlns="http://www.w3.org/2000/svg" xmlns:xlink="http://www.w3.org/1999/xlink" viewBox="0 0 30 30"><defs><style>.cls-1,.cls-6,.cls-8{fill:none;}.cls-2{clip-path:url(#clip-path);}.cls-3{fill:#171318;}.cls-4{fill:#bc205c;}.cls-5{fill:#205951;}.cls-6{stroke:#de4932;}.cls-6,.cls-8{stroke-miterlimit:10;stroke-width:0.88px;}.cls-7{fill:#212124;}.cls-8{stroke:#23284a;}.cls-9{fill:#e1dab9;}.cls-10{fill:#202a4e;}.cls-11{fill:#d1d1d1;}</style><clipPath id="clip-path"><circle class="cls-1" cx="14.91" cy="14.88" r="12.5"/></clipPath></defs><g class="cls-2"><circle class="cls-3" cx="14.91" cy="14.88" r="12.5"/><polygon class="cls-4" points="15.75 27.34 15.53 27.34 15.53 2.38 16.59 2.52 18.4 4.11 16.37 5.92 18.4 7.73 16.37 9.54 18.4 11.31 16.37 13.03 18.4 14.88 16.37 16.7 18.4 18.46 16.33 20.23 18.4 22 16.37 23.81 18.4 25.57 16.28 27.3 15.75 27.34"/><polygon class="cls-5" points="16.86 27.25 18.98 27.07 21.27 25.57 19.24 23.81 21.32 22 19.24 20.23 21.32 18.46 19.24 16.65 21.32 14.84 19.24 13.03 21.32 11.31 19.24 9.5 21.32 7.73 19.24 5.92 21.32 4.11 19.07 2.38 16.68 2.52 18.54 4.11 16.5 5.92 18.54 7.73 16.5 9.54 18.54 11.31 16.5 13.03 18.54 14.88 16.5 16.7 18.54 18.46 16.46 20.23 18.54 22 16.5 23.81 18.49 25.57 16.86 27.25"/><polyline class="cls-6" points="15.97 1.9 18.54 4.11 16.5 5.92 18.54 7.73 16.5 9.54 18.54 11.31 16.5 13.03 18.54 14.88 16.5 16.7 18.54 18.46 16.46 20.23 18.54 22 16.5 23.81 18.49 25.57 16.06 27.74"/><polygon class="cls-7" points="19.68 5.57 19.24 5.92 21.27 7.73 19.24 9.54 21.27 11.35 19.24 13.12 21.27 14.88 19.24 16.7 21.27 18.51 19.24 20.27 21.32 22.04 19.24 23.81 21.27 25.62 19.24 27.38 19.82 27.87 23.18 27.03 25.56 22.88 24.59 22.08 26.66 20.27 24.63 18.51 26.66 16.7 24.63 14.88 26.66 13.12 24.63 11.35 27.02 8.92 21.98 4.06 19.68 5.57"/><polyline class="cls-8" points="19.6 2.74 21.32 4.11 19.24 5.92 21.32 7.73 19.24 9.5 21.32 11.31 19.24 13.03 21.32 14.84 19.24 16.65 21.32 18.46 19.24 20.23 21.32 22 19.24 23.81 21.27 25.57 19.51 27.07"/><polygon class="cls-5" points="26.66 20.27 24.63 18.51 26.66 16.7 24.63 14.88 26.66 13.12 24.63 11.35 26.66 9.58 28.17 9.58 27.37 20.27 26.66 20.27"/><polyline class="cls-8" points="24.94 4.59 26.66 5.92 24.63 7.77 26.66 9.58 24.63 11.35 26.66 13.12 24.63 14.88 26.66 16.7 24.63 18.51 26.66 20.27 24.59 22.08 26.66 23.85 24.63 25.66 26.66 27.43 24.9 28.89"/><path class="cls-9" d="M21.36,5.65h1.11V5h1v.7h1.15v.58H23.44v.7h-1v-.7H21.36Z"/><path class="cls-9" d="M21.32,9.27h1.15v-.7h1v.7h1.1v.58h-1.1v.71h-1V9.85H21.32Z"/><path class="cls-9" d="M21.36,12.76h1.11v-.53h1v.71h1.15v.58H23.44V14h-1v-.66H21.36Z"/><path class="cls-9" d="M21.32,16.3h1.15v-.71h1v.71h1.1v.57h-1.1v.71h-1v-.71H21.32Z"/><path class="cls-9" d="M21.32,20h1.15v-.7h1V20h1.1v.58h-1.1v.53h-1v-.53H21.32Z"/><path class="cls-9" d="M21.32,23.59h1.15v-.67h.93v.67h1.14v.61H23.4v.67h-.93V24.2H21.32Z"/><rect class="cls-9" x="15.09" y="1.94" width="0.44" height="25.84"/><rect class="cls-3" x="14.65" y="1.94" width="0.44" height="25.84"/><rect class="cls-10" x="14.25" y="1.94" width="0.44" height="25.84"/></g><path class="cls-11" d="M15,2.5A12.5,12.5,0,1,1,2.5,15,12.5,12.5,0,0,1,15,2.5M15,1A14,14,0,1,0,29,15,14,14,0,0,0,15,1Z"/></svg>