<svg id="Livello_1" data-name="Livello 1" xmlns="http://www.w3.org/2000/svg" viewBox="0 0 30 30"><defs><style>.cls-1{fill:none;stroke:#000;stroke-miterlimit:10;stroke-width:0.5px;}.cls-2{fill:#d1d1d1;}</style></defs><circle class="cls-1" cx="15" cy="15" r="12.5"/><path d="M5.91,16.05h-1l-.19.73H4l1.11-3.56h.66l1.12,3.56H6.1Zm-.82-.6h.66l-.33-1.27Z"/><path d="M9.69,16.78H9L7.92,14.45v2.33H7.2V13.22h.72L9,15.56V13.22h.72Z"/><path d="M12.49,13.82h-.87v3h-.73v-3H10v-.6h2.46Z"/><path d="M14.74,15.24H13.62v.94H15v.6h-2V13.22h2v.6H13.62v.84h1.12Z"/><path d="M16.44,15.48h-.36v1.3h-.72V13.22h1.15a1.17,1.17,0,0,1,.83.28,1,1,0,0,1,.3.8,1,1,0,0,1-.52,1l.62,1.45v0H17Zm-.36-.6h.41a.39.39,0,0,0,.32-.14.63.63,0,0,0,.11-.38q0-.54-.42-.54h-.42Z"/><path d="M18.88,16.78h-.72V13.22h.72Z"/><path d="M22,15.32a1.67,1.67,0,0,1-.33,1.11,1.19,1.19,0,0,1-.94.4,1.16,1.16,0,0,1-.94-.4,1.59,1.59,0,0,1-.35-1.09v-.61a1.75,1.75,0,0,1,.34-1.15,1.28,1.28,0,0,1,1.88,0A1.69,1.69,0,0,1,22,14.71Zm-.72-.6a1.47,1.47,0,0,0-.13-.71.46.46,0,0,0-.43-.24.46.46,0,0,0-.42.23,1.37,1.37,0,0,0-.14.69v.63a1.27,1.27,0,0,0,.14.69.48.48,0,0,0,.43.22.45.45,0,0,0,.41-.22,1.19,1.19,0,0,0,.14-.67Z"/><path d="M23.58,15.48h-.36v1.3H22.5V13.22h1.15a1.19,1.19,0,0,1,.83.28,1,1,0,0,1,.29.8,1,1,0,0,1-.51,1l.62,1.45v0h-.77Zm-.36-.6h.41a.39.39,0,0,0,.32-.14.63.63,0,0,0,.11-.38q0-.54-.42-.54h-.42Z"/><path d="M26,16.78H25.3V13.22H26Z"/><path class="cls-2" d="M15,2.5A12.5,12.5,0,1,1,2.5,15,12.5,12.5,0,0,1,15,2.5M15,1A14,14,0,1,0,29,15,14,14,0,0,0,15,1Z"/></svg>