<svg id="Livello_1" data-name="Livello 1" xmlns="http://www.w3.org/2000/svg" xmlns:xlink="http://www.w3.org/1999/xlink" viewBox="0 0 30 30"><defs><style>.cls-1{fill:none;}.cls-2{clip-path:url(#clip-path);}.cls-3{fill:#006;}.cls-4,.cls-5{fill:#fff;}.cls-4{fill-rule:evenodd;}.cls-6{fill:#c8102e;}.cls-7{fill:#d1d1d1;}</style><clipPath id="clip-path"><circle class="cls-1" cx="15" cy="15" r="12.5"/></clipPath></defs><g class="cls-2"><path id="path617" class="cls-3" d="M-.47,2H34V27.81H-.47Z"/><path id="path625" class="cls-4" d="M15.68,23.1l-2.35.2.32,2.34L12,23.93l-1.62,1.71.32-2.34-2.35-.2,2-1.21-1.31-2,2.21.83L12,18.52l.73,2.24,2.2-.83-1.31,2m12.09,3.36-.57-.85,1,.36.31-1,.31,1,1-.36-.57.85.89.52-1,.09.14,1-.7-.75-.71.75.14-1-1-.08m.88-15.72-.56-.85,1,.36.31-1,.31,1,1-.36-.57.85.89.53-1,.08.14,1-.7-.74-.71.73.14-1-1-.08M20,16.23l-.56-.85.95.36.32-1,.31,1,1-.36-.57.85.89.52-1,.09.15,1-.71-.75-.7.75.13-1-1-.08m11.65-2.05-.58-.85,1,.36.31-1,.32,1,1-.36-.57.85.88.52-1,.09.14,1-.7-.75-.71.75.14-1-1-.09m-1.19,4-.55.35.15-.64-.5-.42.65-.05.25-.61.26.61.65.05-.5.42.15.64"/><path id="path969" class="cls-3" d="M-.47,2H16.77V14.88H-.47Z"/><path id="path971" class="cls-5" d="M1.55,2,8.12,6.83,14.67,2h2.1V3.63L10.3,8.45l6.47,4.79v1.64H14.61L8.15,10.06,1.72,14.88H-.47V13.27L6,8.47-.47,3.68V2Z"/><path id="path973" class="cls-6" d="M11,9.52l5.82,4.29v1.07L9.47,9.52ZM6,10.06l.16.95L1,14.88H-.47ZM16.77,2V2L10.06,7.1l.06-1.18,5.3-4ZM-.47,2,6,6.7H4.35L-.47,3.09Z"/><path id="path975" class="cls-5" d="M6,2V14.88h4.31V2ZM-.47,6.27v4.31H16.77V6.27Z"/><path id="path977" class="cls-6" d="M-.47,7.16V9.74H16.77V7.16ZM6.89,2V14.88H9.47V2Z"/></g><path class="cls-7" d="M15,2.5A12.5,12.5,0,1,1,2.5,15,12.5,12.5,0,0,1,15,2.5M15,1A14,14,0,1,0,29,15,14,14,0,0,0,15,1Z"/></svg>