<svg id="Livello_1" data-name="Livello 1" xmlns="http://www.w3.org/2000/svg" xmlns:xlink="http://www.w3.org/1999/xlink" viewBox="0 0 30 30"><defs><style>.cls-1,.cls-5{fill:none;}.cls-2{clip-path:url(#clip-path);}.cls-3{fill:#a3aeb3;}.cls-4{fill:#15171a;}.cls-5{stroke:#21a0a3;stroke-miterlimit:10;stroke-width:0.88px;}.cls-6{fill:#5494ad;}.cls-7{fill:#2d694f;}.cls-8{fill:#115c7c;}.cls-9{fill:#21a0a3;}.cls-10{fill:#d1d1d1;}</style><clipPath id="clip-path"><path class="cls-1" d="M15,2.5A12.5,12.5,0,1,1,2.62,16.77,12.94,12.94,0,0,1,2.5,15,12.5,12.5,0,0,1,15,2.5Z"/></clipPath></defs><g class="cls-2"><path class="cls-3" d="M15,2.5A12.5,12.5,0,1,1,2.62,16.77,12.94,12.94,0,0,1,2.5,15,12.5,12.5,0,0,1,15,2.5Z"/><polyline class="cls-4" points="2.13 1.94 2.13 19.63 12.65 19.63 12.65 15.8 16.48 15.8 16.48 11.97 20.31 11.97 20.31 2.19"/><polyline class="cls-5" points="20.31 2.19 20.31 11.97 16.48 11.97 16.48 15.8 12.65 15.8 12.65 19.63 2.77 19.63"/><rect class="cls-6" x="2.13" y="1.94" width="12.34" height="10.52"/><rect class="cls-3" x="16.2" y="7.9" width="1.89" height="2.54"/><rect class="cls-7" x="16.74" y="8.63" width="0.81" height="1.09"/><rect class="cls-3" x="16.2" y="4.66" width="1.89" height="2.54"/><rect class="cls-7" x="16.74" y="5.38" width="0.81" height="1.09"/><rect class="cls-3" x="16.2" y="1.41" width="1.89" height="2.54"/><rect class="cls-7" x="16.74" y="2.13" width="0.81" height="1.09"/><rect class="cls-3" x="9.65" y="13.98" width="1.89" height="2.54"/><rect class="cls-7" x="10.19" y="14.71" width="0.81" height="1.09"/><rect class="cls-3" x="6.96" y="13.98" width="1.89" height="2.54"/><rect class="cls-7" x="7.5" y="14.71" width="0.81" height="1.09"/><rect class="cls-3" x="4.29" y="13.98" width="1.89" height="2.54"/><rect class="cls-7" x="4.83" y="14.71" width="0.81" height="1.09"/><rect class="cls-3" x="1.73" y="13.98" width="1.89" height="2.54"/><rect class="cls-7" x="2.27" y="14.71" width="0.81" height="1.09"/><rect class="cls-4" x="14.51" y="21.06" width="0.97" height="1.31"/><polygon class="cls-4" points="15.86 19.63 14.14 19.63 14.14 17.32 15 17.98 15.86 17.32 15.86 19.63"/><polygon class="cls-4" points="14.14 23.8 15.86 23.8 15.86 26.11 15 25.45 14.14 26.11 14.14 23.8"/><polygon class="cls-7" points="13.57 23.22 11.22 23.22 12.39 20.87 13.57 23.22"/><polygon class="cls-7" points="9.48 23.22 7.13 23.22 8.3 20.87 9.48 23.22"/><polygon class="cls-7" points="5.38 23.22 3.03 23.22 4.2 20.87 5.38 23.22"/><polygon class="cls-8" points="11.51 25 10.94 24.72 10.3 25 9.68 24.7 9.09 25 10.3 22.37 11.51 25"/><polygon class="cls-8" points="7.46 25 6.89 24.72 6.24 25 5.62 24.7 5.03 25 6.24 22.37 7.46 25"/><rect class="cls-9" x="21.9" y="13" width="1.89" height="2.54"/><rect class="cls-4" x="22.43" y="13.73" width="0.81" height="1.09"/><polygon class="cls-7" points="21.9 0.85 26.37 0.85 24.14 13.98 21.9 0.85"/><polygon class="cls-3" points="22.89 0.85 25.38 0.85 24.14 8.14 22.89 0.85"/><polygon class="cls-4" points="23.3 0.85 24.97 0.85 24.14 5.77 23.3 0.85"/><rect class="cls-9" x="24.47" y="12.98" width="1.89" height="2.54"/><rect class="cls-4" x="25.01" y="13.71" width="0.81" height="1.09"/><polygon class="cls-8" points="25.71 12.62 24.98 12.25 24.14 12.62 23.33 12.22 22.55 12.62 24.14 9.19 25.71 12.62"/><polygon class="cls-8" points="25.71 8.8 24.98 8.44 24.14 8.8 23.33 8.41 22.55 8.8 24.14 5.38 25.71 8.8"/><polygon class="cls-7" points="9.24 0.85 13.71 0.85 11.47 11.95 9.24 0.85"/><polygon class="cls-3" points="10.23 0.85 12.71 0.85 11.47 8.31 10.23 0.85"/><polygon class="cls-7" points="2.91 0.85 7.38 0.85 5.14 11.95 2.91 0.85"/><polygon class="cls-3" points="3.9 0.85 6.38 0.85 5.14 8.31 3.9 0.85"/><rect class="cls-7" x="20.83" y="16.52" width="2.95" height="1.64"/><rect class="cls-7" x="23.06" y="16.52" width="0.72" height="3.78"/><rect class="cls-7" x="22.31" y="18.67" width="1.47" height="0.8"/><rect class="cls-7" x="20.83" y="20.18" width="2.95" height="1.64"/><rect class="cls-7" x="23.06" y="20.18" width="0.72" height="3.78"/><rect class="cls-7" x="22.31" y="22.33" width="1.47" height="0.8"/><rect class="cls-7" x="23.78" y="20.3" width="2.95" height="1.64"/><polygon class="cls-7" points="26.73 24.08 26.01 24.08 24.97 20.3 25.3 19.34 26.73 19.8 26.73 24.08"/><rect class="cls-7" x="25.26" y="22.45" width="1.47" height="0.8"/><polygon class="cls-7" points="26.45 18.07 25.3 19.34 23.58 17.8 24.65 17.6 24.73 16.52 26.45 18.07"/></g><path class="cls-10" d="M15,2.5A12.5,12.5,0,1,1,2.5,15,12.5,12.5,0,0,1,15,2.5M15,1A14,14,0,1,0,29,15,14,14,0,0,0,15,1Z"/></svg>