<svg id="Livello_1" data-name="Livello 1" xmlns="http://www.w3.org/2000/svg" xmlns:xlink="http://www.w3.org/1999/xlink" viewBox="0 0 30 30"><defs><style>.cls-1,.cls-5,.cls-7{fill:none;}.cls-2{clip-path:url(#clip-path);}.cls-3{fill:#cf2a2f;}.cls-4{fill:#b39993;}.cls-5{stroke:#b39993;}.cls-5,.cls-7{stroke-miterlimit:10;stroke-width:0.28px;}.cls-6{fill:#654b42;}.cls-7{stroke:#fff;}.cls-8{fill:#d1d1d1;}</style><clipPath id="clip-path"><circle class="cls-1" cx="15" cy="15" r="12.5"/></clipPath></defs><g class="cls-2"><rect class="cls-3" x="2.22" y="-3.88" width="29.13" height="33.88"/><path class="cls-4" d="M14.35,18.76a.83.83,0,0,0-.49.51,1.16,1.16,0,0,0,.09,1.2.4.4,0,0,0,.41.18.46.46,0,0,0,.25-.07A1.28,1.28,0,0,0,15,19.05.51.51,0,0,0,14.35,18.76Z"/><path class="cls-4" d="M16,19.51a1.33,1.33,0,0,0-.79,1,.79.79,0,0,0,0,.44.48.48,0,0,0,.23.29c.07.05.1.05.25,0a.65.65,0,0,0,.29,0,1.27,1.27,0,0,0,.71-.83.69.69,0,0,0,0-.32.59.59,0,0,0-.17-.44.7.7,0,0,0-.16-.1A.86.86,0,0,0,16,19.51Z"/><path class="cls-4" d="M12.63,19.79a1,1,0,0,0-.43,1,1,1,0,0,0,.32.69.45.45,0,0,0,.39.12.56.56,0,0,0,.34-.23,1.12,1.12,0,0,0,.2-.76,1.07,1.07,0,0,0-.3-.68A.51.51,0,0,0,12.63,19.79Z"/><path class="cls-4" d="M13.58,21.57a3.39,3.39,0,0,0-.77.46,2.89,2.89,0,0,0-.54.63.55.55,0,0,0,.24.69,1.85,1.85,0,0,0,.64.12,1.41,1.41,0,0,1,1.19.54c.32.33.45.4.69.38.39,0,.54-.46.42-1.2-.17-1.07-.51-1.56-1.15-1.68A1.74,1.74,0,0,0,13.58,21.57Z"/><path class="cls-4" d="M16.45,21.38a1.27,1.27,0,0,0-.74.62.75.75,0,0,0-.1.44.48.48,0,0,0,.54.47,1.15,1.15,0,0,0,.92-.63.65.65,0,0,0-.08-.83A.68.68,0,0,0,16.45,21.38Z"/><line class="cls-5" x1="16.28" y1="16.78" x2="15.78" y2="18.01"/><line class="cls-5" x1="16.64" y1="17.65" x2="15.41" y2="17.15"/><path class="cls-4" d="M17.64,10.57a.83.83,0,0,0-.49.51,1.16,1.16,0,0,0,.09,1.2.4.4,0,0,0,.41.18.46.46,0,0,0,.25-.07,1.28,1.28,0,0,0,.37-1.53A.51.51,0,0,0,17.64,10.57Z"/><path class="cls-4" d="M19.28,11.32a1.33,1.33,0,0,0-.79,1,.91.91,0,0,0,0,.44.54.54,0,0,0,.24.29c.07.05.1.05.25,0a.65.65,0,0,0,.29-.05,1.32,1.32,0,0,0,.71-.84.68.68,0,0,0,0-.32.59.59,0,0,0-.17-.43.47.47,0,0,0-.16-.1A.86.86,0,0,0,19.28,11.32Z"/><path class="cls-4" d="M15.92,11.6a1,1,0,0,0-.43,1,1,1,0,0,0,.32.69.42.42,0,0,0,.39.11.55.55,0,0,0,.34-.22,1.12,1.12,0,0,0,.2-.76,1,1,0,0,0-.3-.68A.51.51,0,0,0,15.92,11.6Z"/><path class="cls-4" d="M16.87,13.37a3.46,3.46,0,0,0-.77.47,2.89,2.89,0,0,0-.54.63.55.55,0,0,0,.24.69,1.85,1.85,0,0,0,.64.12,1.38,1.38,0,0,1,1.19.54c.32.33.45.4.69.38s.54-.46.42-1.2c-.17-1.07-.51-1.56-1.15-1.68A1.74,1.74,0,0,0,16.87,13.37Z"/><path class="cls-4" d="M19.74,13.19a1.2,1.2,0,0,0-.74.62.75.75,0,0,0-.1.44.48.48,0,0,0,.54.47,1.16,1.16,0,0,0,.92-.64.63.63,0,0,0-.08-.82A.64.64,0,0,0,19.74,13.19Z"/><line class="cls-5" x1="19.57" y1="8.59" x2="19.07" y2="9.82"/><line class="cls-5" x1="19.93" y1="9.46" x2="18.7" y2="8.96"/><path class="cls-4" d="M21.47,1.82a.92.92,0,0,0-.5.52,1.18,1.18,0,0,0,.09,1.19.43.43,0,0,0,.42.19.46.46,0,0,0,.25-.08,1.26,1.26,0,0,0,.36-1.53A.5.5,0,0,0,21.47,1.82Z"/><path class="cls-4" d="M23.11,2.58a1.3,1.3,0,0,0-.79,1,.76.76,0,0,0,0,.43.6.6,0,0,0,.24.3c.07,0,.1,0,.25,0a.83.83,0,0,0,.29-.06,1.3,1.3,0,0,0,.71-.83.69.69,0,0,0,0-.32.57.57,0,0,0-.17-.43.51.51,0,0,0-.16-.11A.75.75,0,0,0,23.11,2.58Z"/><path class="cls-4" d="M19.74,2.86a1,1,0,0,0-.42,1,1,1,0,0,0,.32.69.41.41,0,0,0,.38.12.52.52,0,0,0,.35-.23,1.1,1.1,0,0,0,.2-.75A1,1,0,0,0,20.26,3,.48.48,0,0,0,19.74,2.86Z"/><path class="cls-4" d="M20.7,4.63a3.12,3.12,0,0,0-.77.47,2.82,2.82,0,0,0-.54.62.55.55,0,0,0,.24.7,1.65,1.65,0,0,0,.64.11,1.4,1.4,0,0,1,1.19.55c.32.33.45.4.69.38.39,0,.54-.46.42-1.21-.17-1.07-.51-1.56-1.15-1.67A1.58,1.58,0,0,0,20.7,4.63Z"/><path class="cls-4" d="M23.57,4.44a1.27,1.27,0,0,0-.74.62.79.79,0,0,0-.1.44.48.48,0,0,0,.54.47,1.15,1.15,0,0,0,.92-.63.63.63,0,0,0-.08-.82A.64.64,0,0,0,23.57,4.44Z"/><line class="cls-5" x1="23.4" y1="-0.15" x2="22.9" y2="1.08"/><line class="cls-5" x1="23.76" y1="0.72" x2="22.53" y2="0.22"/><path class="cls-4" d="M3.4,14.91a.85.85,0,0,0-.49.51A1.18,1.18,0,0,0,3,16.62a.38.38,0,0,0,.41.18.46.46,0,0,0,.25-.07A1.28,1.28,0,0,0,4,15.2.51.51,0,0,0,3.4,14.91Z"/><path class="cls-4" d="M5,15.66a1.33,1.33,0,0,0-.79,1,.76.76,0,0,0,0,.43.48.48,0,0,0,.23.29c.07,0,.1,0,.25,0a.83.83,0,0,0,.29-.06,1.27,1.27,0,0,0,.71-.83.58.58,0,0,0,0-.32.55.55,0,0,0-.17-.43.51.51,0,0,0-.16-.11A.86.86,0,0,0,5,15.66Z"/><path class="cls-4" d="M1.68,15.94a1,1,0,0,0-.43,1,1,1,0,0,0,.33.69.4.4,0,0,0,.38.12.5.5,0,0,0,.34-.23,1.1,1.1,0,0,0,.2-.75A1,1,0,0,0,2.2,16,.51.51,0,0,0,1.68,15.94Z"/><path class="cls-4" d="M2.63,17.72a3.12,3.12,0,0,0-.77.47,2.86,2.86,0,0,0-.54.62.54.54,0,0,0,.24.69,1.85,1.85,0,0,0,.64.12,1.41,1.41,0,0,1,1.19.54c.33.33.45.4.69.38s.54-.45.42-1.2c-.17-1.07-.5-1.56-1.15-1.67A1.58,1.58,0,0,0,2.63,17.72Z"/><path class="cls-4" d="M5.5,17.53a1.27,1.27,0,0,0-.74.62.69.69,0,0,0-.09.44.46.46,0,0,0,.53.47,1.15,1.15,0,0,0,.92-.63A.63.63,0,0,0,6,17.61.64.64,0,0,0,5.5,17.53Z"/><line class="cls-5" x1="5.33" y1="12.94" x2="4.83" y2="14.16"/><line class="cls-5" x1="5.69" y1="13.81" x2="4.46" y2="13.31"/><path class="cls-4" d="M6.69,6.72a.83.83,0,0,0-.49.51,1.18,1.18,0,0,0,.09,1.2.38.38,0,0,0,.41.18A.46.46,0,0,0,7,8.54,1.28,1.28,0,0,0,7.32,7,.51.51,0,0,0,6.69,6.72Z"/><path class="cls-4" d="M8.33,7.47a1.33,1.33,0,0,0-.79,1,.79.79,0,0,0,0,.44.48.48,0,0,0,.23.29c.07.05.1.05.25.05a.83.83,0,0,0,.29-.06,1.27,1.27,0,0,0,.71-.83.58.58,0,0,0,0-.32.59.59,0,0,0-.17-.44.7.7,0,0,0-.16-.1A.86.86,0,0,0,8.33,7.47Z"/><path class="cls-4" d="M5,7.75a1,1,0,0,0-.43,1,1,1,0,0,0,.33.69.42.42,0,0,0,.38.12.56.56,0,0,0,.34-.23,1.12,1.12,0,0,0,.2-.76,1.07,1.07,0,0,0-.3-.68A.51.51,0,0,0,5,7.75Z"/><path class="cls-4" d="M5.92,9.53a3.39,3.39,0,0,0-.77.46,2.89,2.89,0,0,0-.54.63.55.55,0,0,0,.24.69,1.85,1.85,0,0,0,.64.12A1.41,1.41,0,0,1,6.68,12c.33.33.45.4.69.38s.54-.46.42-1.2c-.17-1.07-.5-1.56-1.15-1.68A1.74,1.74,0,0,0,5.92,9.53Z"/><path class="cls-4" d="M8.79,9.34a1.27,1.27,0,0,0-.74.62A.68.68,0,0,0,8,10.4a.46.46,0,0,0,.53.47,1.15,1.15,0,0,0,.92-.63.65.65,0,0,0-.08-.83A.68.68,0,0,0,8.79,9.34Z"/><line class="cls-5" x1="8.62" y1="4.74" x2="8.12" y2="5.97"/><line class="cls-5" x1="8.98" y1="5.61" x2="7.75" y2="5.12"/><path class="cls-4" d="M12.16-1.27a1.32,1.32,0,0,0-.79,1,.8.8,0,0,0,0,.44.57.57,0,0,0,.24.29.34.34,0,0,0,.25,0,.84.84,0,0,0,.29-.05,1.34,1.34,0,0,0,.71-.84.69.69,0,0,0,0-.32.59.59,0,0,0-.17-.43.47.47,0,0,0-.16-.1A.75.75,0,0,0,12.16-1.27Z"/><path class="cls-4" d="M8.79-1a1,1,0,0,0-.42,1,1,1,0,0,0,.32.7.44.44,0,0,0,.39.11A.52.52,0,0,0,9.42.54a1.08,1.08,0,0,0,.2-.75,1.08,1.08,0,0,0-.3-.69A.54.54,0,0,0,8.79-1Z"/><path class="cls-4" d="M9.75.78A3.12,3.12,0,0,0,9,1.25a3.12,3.12,0,0,0-.54.62.55.55,0,0,0,.24.7,1.8,1.8,0,0,0,.64.12,1.38,1.38,0,0,1,1.19.54c.32.33.45.4.69.38.39,0,.54-.46.42-1.2C11.45,1.33,11.11.84,10.47.73A1.58,1.58,0,0,0,9.75.78Z"/><path class="cls-4" d="M12.62.6a1.22,1.22,0,0,0-.74.61.79.79,0,0,0-.1.44.49.49,0,0,0,.54.48,1.16,1.16,0,0,0,.92-.64.63.63,0,0,0-.08-.82A.61.61,0,0,0,12.62.6Z"/><path class="cls-6" d="M7.23,20.89a.85.85,0,0,0-.49.51,1.18,1.18,0,0,0,.09,1.2.38.38,0,0,0,.41.18.44.44,0,0,0,.25-.07,1.28,1.28,0,0,0,.37-1.53A.51.51,0,0,0,7.23,20.89Z"/><path class="cls-6" d="M8.87,21.64a1.33,1.33,0,0,0-.79,1,.76.76,0,0,0,0,.43.48.48,0,0,0,.23.29c.08.05.1.05.25.05a.83.83,0,0,0,.29-.06,1.27,1.27,0,0,0,.71-.83.69.69,0,0,0,0-.32.59.59,0,0,0-.18-.43.42.42,0,0,0-.16-.11A.86.86,0,0,0,8.87,21.64Z"/><path class="cls-6" d="M5.51,21.92a1,1,0,0,0-.43,1,1,1,0,0,0,.33.69.42.42,0,0,0,.38.12.5.5,0,0,0,.34-.23,1.1,1.1,0,0,0,.2-.75A1,1,0,0,0,6,22,.51.51,0,0,0,5.51,21.92Z"/><path class="cls-6" d="M6.46,23.7a3.12,3.12,0,0,0-.77.47,2.37,2.37,0,0,0-.53.62.53.53,0,0,0,.23.69A1.85,1.85,0,0,0,6,25.6a1.41,1.41,0,0,1,1.19.54c.33.33.45.4.7.38s.53-.45.41-1.2c-.17-1.07-.5-1.56-1.15-1.67A1.58,1.58,0,0,0,6.46,23.7Z"/><path class="cls-6" d="M9.34,23.51a1.26,1.26,0,0,0-.75.62.69.69,0,0,0-.09.44A.46.46,0,0,0,9,25a1.15,1.15,0,0,0,.92-.63.65.65,0,0,0-.08-.83A.66.66,0,0,0,9.34,23.51Z"/><line class="cls-7" x1="9.16" y1="18.92" x2="8.66" y2="20.14"/><line class="cls-7" x1="9.52" y1="19.79" x2="8.3" y2="19.29"/><path class="cls-6" d="M10.52,12.7a.83.83,0,0,0-.49.51,1.18,1.18,0,0,0,.09,1.2.38.38,0,0,0,.41.18.44.44,0,0,0,.25-.07A1.28,1.28,0,0,0,11.15,13,.51.51,0,0,0,10.52,12.7Z"/><path class="cls-6" d="M12.16,13.45a1.33,1.33,0,0,0-.79,1,.79.79,0,0,0,0,.44.48.48,0,0,0,.23.29c.08,0,.1,0,.25,0a.83.83,0,0,0,.29-.06,1.27,1.27,0,0,0,.71-.83.69.69,0,0,0,0-.32.64.64,0,0,0-.18-.44.54.54,0,0,0-.16-.1A.86.86,0,0,0,12.16,13.45Z"/><path class="cls-6" d="M8.8,13.73a1,1,0,0,0-.43,1,1,1,0,0,0,.33.69.42.42,0,0,0,.38.12.54.54,0,0,0,.34-.23,1.12,1.12,0,0,0,.2-.76,1,1,0,0,0-.3-.68A.51.51,0,0,0,8.8,13.73Z"/><path class="cls-6" d="M9.75,15.51A3.39,3.39,0,0,0,9,16a2.56,2.56,0,0,0-.53.63.53.53,0,0,0,.23.69,1.85,1.85,0,0,0,.64.12,1.41,1.41,0,0,1,1.19.54c.33.33.45.4.7.38s.53-.46.41-1.2c-.17-1.07-.5-1.56-1.15-1.68A1.74,1.74,0,0,0,9.75,15.51Z"/><path class="cls-6" d="M12.63,15.32a1.26,1.26,0,0,0-.75.62.68.68,0,0,0-.09.44.46.46,0,0,0,.53.47,1.15,1.15,0,0,0,.92-.63.65.65,0,0,0-.08-.83A.66.66,0,0,0,12.63,15.32Z"/><line class="cls-7" x1="12.45" y1="10.72" x2="11.95" y2="11.95"/><line class="cls-7" x1="12.81" y1="11.59" x2="11.59" y2="11.09"/><path class="cls-6" d="M14.35,4a.87.87,0,0,0-.49.52A1.14,1.14,0,0,0,14,5.66a.4.4,0,0,0,.41.19.39.39,0,0,0,.25-.08A1.27,1.27,0,0,0,15,4.24.53.53,0,0,0,14.35,4Z"/><path class="cls-6" d="M16,4.71a1.32,1.32,0,0,0-.79,1,.8.8,0,0,0,0,.44.51.51,0,0,0,.23.29.34.34,0,0,0,.25,0A.84.84,0,0,0,16,6.39a1.32,1.32,0,0,0,.71-.84.69.69,0,0,0,0-.32.59.59,0,0,0-.17-.43.47.47,0,0,0-.16-.1A.75.75,0,0,0,16,4.71Z"/><path class="cls-6" d="M12.63,5a1,1,0,0,0-.43,1,1.09,1.09,0,0,0,.32.7.44.44,0,0,0,.39.11.52.52,0,0,0,.34-.23,1.08,1.08,0,0,0,.2-.75,1.08,1.08,0,0,0-.3-.69A.53.53,0,0,0,12.63,5Z"/><path class="cls-6" d="M13.58,6.76a2.83,2.83,0,0,0-1.31,1.09.56.56,0,0,0,.24.7,1.85,1.85,0,0,0,.64.12,1.38,1.38,0,0,1,1.19.54c.32.33.45.4.69.38.39,0,.54-.46.42-1.21-.17-1.07-.51-1.56-1.15-1.67A1.58,1.58,0,0,0,13.58,6.76Z"/><path class="cls-6" d="M16.45,6.57a1.27,1.27,0,0,0-.74.62.79.79,0,0,0-.1.44.49.49,0,0,0,.54.48,1.16,1.16,0,0,0,.92-.64A.63.63,0,0,0,17,6.65.64.64,0,0,0,16.45,6.57Z"/><line class="cls-7" x1="16.28" y1="1.98" x2="15.78" y2="3.21"/><line class="cls-7" x1="16.64" y1="2.85" x2="15.41" y2="2.35"/><path class="cls-6" d="M18.12,25.26a.87.87,0,0,0-.5.51,1.2,1.2,0,0,0,.09,1.2.41.41,0,0,0,.42.18.43.43,0,0,0,.24-.07,1.28,1.28,0,0,0,.37-1.53A.5.5,0,0,0,18.12,25.26Z"/><path class="cls-6" d="M19.76,26a1.35,1.35,0,0,0-.8,1,.8.8,0,0,0,0,.44.54.54,0,0,0,.24.29c.07.05.1.05.25,0a.68.68,0,0,0,.29,0,1.31,1.31,0,0,0,.7-.83.73.73,0,0,0,0-.33.53.53,0,0,0-.33-.53A.85.85,0,0,0,19.76,26Z"/><path class="cls-6" d="M16.39,26.29a1,1,0,0,0-.42,1,1,1,0,0,0,.32.69.42.42,0,0,0,.38.12.56.56,0,0,0,.35-.23,1.06,1.06,0,0,0,.19-.76,1,1,0,0,0-.3-.68A.5.5,0,0,0,16.39,26.29Z"/><path class="cls-6" d="M17.35,28.06a3.89,3.89,0,0,0-.77.47,2.63,2.63,0,0,0-.54.63.53.53,0,0,0,.24.69,1.8,1.8,0,0,0,.64.12,1.4,1.4,0,0,1,1.19.54c.32.33.45.4.69.38s.53-.46.41-1.2c-.16-1.07-.5-1.56-1.14-1.68A1.74,1.74,0,0,0,17.35,28.06Z"/><path class="cls-6" d="M20.22,27.88a1.18,1.18,0,0,0-.74.62.75.75,0,0,0-.1.44.46.46,0,0,0,.53.47,1.14,1.14,0,0,0,.92-.63.66.66,0,0,0-.07-.83A.69.69,0,0,0,20.22,27.88Z"/><line class="cls-7" x1="20.04" y1="23.28" x2="19.54" y2="24.51"/><line class="cls-7" x1="20.41" y1="24.15" x2="19.18" y2="23.65"/><path class="cls-6" d="M21.41,17.07a.87.87,0,0,0-.5.51,1.2,1.2,0,0,0,.09,1.2.41.41,0,0,0,.42.18.43.43,0,0,0,.24-.07A1.28,1.28,0,0,0,22,17.36.5.5,0,0,0,21.41,17.07Z"/><path class="cls-6" d="M23,17.82a1.36,1.36,0,0,0-.79,1,.8.8,0,0,0,0,.44.57.57,0,0,0,.23.29.38.38,0,0,0,.26,0,.61.61,0,0,0,.28-.05,1.32,1.32,0,0,0,.71-.84.67.67,0,0,0,0-.32.63.63,0,0,0-.17-.43.59.59,0,0,0-.16-.1A.79.79,0,0,0,23,17.82Z"/><path class="cls-6" d="M19.68,18.1a1.1,1.1,0,0,0-.1,1.65.39.39,0,0,0,.38.11.52.52,0,0,0,.35-.23,1.18,1.18,0,0,0-.11-1.44A.52.52,0,0,0,19.68,18.1Z"/><path class="cls-6" d="M20.64,19.87a3.46,3.46,0,0,0-.77.47,2.63,2.63,0,0,0-.54.63.53.53,0,0,0,.24.69,1.8,1.8,0,0,0,.64.12,1.4,1.4,0,0,1,1.19.54c.32.33.45.4.69.38.39,0,.53-.46.41-1.2-.16-1.07-.5-1.56-1.14-1.68A1.58,1.58,0,0,0,20.64,19.87Z"/><path class="cls-6" d="M23.51,19.69a1.15,1.15,0,0,0-.74.62.75.75,0,0,0-.1.44c0,.31.2.46.53.47a1.13,1.13,0,0,0,.92-.64.65.65,0,0,0-.07-.82A.61.61,0,0,0,23.51,19.69Z"/><line class="cls-7" x1="23.33" y1="15.09" x2="22.83" y2="16.32"/><line class="cls-7" x1="23.7" y1="15.96" x2="22.47" y2="15.46"/><path class="cls-6" d="M25.24,8.32a.87.87,0,0,0-.5.51,1.18,1.18,0,0,0,.09,1.2.4.4,0,0,0,.41.19.44.44,0,0,0,.25-.08,1.27,1.27,0,0,0,.37-1.53A.5.5,0,0,0,25.24,8.32Z"/><path class="cls-6" d="M26.87,9.07a1.33,1.33,0,0,0-.79,1,.76.76,0,0,0,0,.43.64.64,0,0,0,.23.3.42.42,0,0,0,.25,0,.78.78,0,0,0,.29-.06,1.27,1.27,0,0,0,.71-.83.69.69,0,0,0,0-.32.61.61,0,0,0-.17-.43.55.55,0,0,0-.17-.11A.86.86,0,0,0,26.87,9.07Z"/><path class="cls-6" d="M23.51,9.36a1,1,0,0,0-.42,1,1,1,0,0,0,.32.69.4.4,0,0,0,.38.12.52.52,0,0,0,.35-.23,1.1,1.1,0,0,0,.19-.75,1,1,0,0,0-.3-.69A.48.48,0,0,0,23.51,9.36Z"/><path class="cls-6" d="M24.46,11.13a3.28,3.28,0,0,0-.76.47,2.4,2.4,0,0,0-.54.62.52.52,0,0,0,.24.69A1.38,1.38,0,0,0,24,13a1.43,1.43,0,0,1,1.2.54c.32.33.45.41.69.38s.53-.45.41-1.2c-.17-1.07-.5-1.56-1.14-1.67A1.64,1.64,0,0,0,24.46,11.13Z"/><path class="cls-6" d="M27.34,10.94a1.22,1.22,0,0,0-.74.62.79.79,0,0,0-.1.44.46.46,0,0,0,.53.47,1.13,1.13,0,0,0,.92-.63.56.56,0,0,0-.61-.9Z"/><line class="cls-7" x1="27.16" y1="6.35" x2="26.66" y2="7.57"/><line class="cls-7" x1="27.53" y1="7.22" x2="26.3" y2="6.72"/></g><path class="cls-8" d="M15,2.5A12.5,12.5,0,1,1,2.5,15,12.5,12.5,0,0,1,15,2.5M15,1A14,14,0,1,0,29,15,14,14,0,0,0,15,1Z"/></svg>