<?xml version="1.0" encoding="UTF-8"?><svg id="Livello_1" xmlns="http://www.w3.org/2000/svg" xmlns:xlink="http://www.w3.org/1999/xlink" viewBox="0 0 30 30"><defs><style>.cls-1,.cls-2{fill:none;}.cls-3{clip-path:url(#clippath);}.cls-4{fill:#ece5d3;}.cls-5{fill:#d6e9f6;}.cls-6{fill:#d1d1d1;}.cls-7{fill:#4373a9;}.cls-8{fill:#6f91bc;}.cls-9{fill:#29272b;}.cls-10{clip-path:url(#clippath-1);}.cls-2{stroke:#d43189;stroke-miterlimit:10;}</style><clipPath id="clippath"><circle class="cls-1" cx="65" cy="15" r="12.5"/></clipPath><clipPath id="clippath-1"><circle class="cls-1" cx="215" cy="15" r="12.5"/></clipPath></defs><circle class="cls-9" cx="15" cy="15" r="12.5"/><line class="cls-2" x1="2.33" y1="17.31" x2="17.82" y2="1.82"/><line class="cls-2" x1="3.36" y1="21.36" x2="21.36" y2="3.36"/><path class="cls-6" d="M15,2.5c6.9,0,12.5,5.6,12.5,12.5s-5.6,12.5-12.5,12.5S2.5,21.9,2.5,15,8.1,2.5,15,2.5m0-1.5C7.28,1,1,7.28,1,15s6.28,14,14,14,14-6.28,14-14S22.72,1,15,1h0Z"/><g class="cls-3"><g id="Y9Jclw.tif"><g><path class="cls-7" d="M30.49,6.7c.02-.05,.03-.11,.05-.16,.39-.21,.78-.41,1.17-.62,.06-.03,.08-.11,.12-.18,.36-.62,.66-1.27,1.09-1.83,.25-.33,.24-.61,.2-.95-.03-.21-.05-.42-.08-.62,.6-.23,.66-.33,.67-.76,.01-.42,.11-.83,.14-1.24,.02-.26,0-.54-.06-.8-.02-.08-.21-.12-.32-.18-.08-.04-.17-.09-.25-.13,.22-.43,.45-.86,.66-1.26,.02,.03,.1,.13,.29,.38,.07-.56,.12-.95,.17-1.35l-.16-.02c-.05,.22-.11,.45-.16,.67-.04,0-.08-.01-.12-.02v-.92c.17-.27,.39-.48,.36-.89-.02-.35,.26-.73,.4-1.09,.16-.07,.33-.15,.52-.23,.03,.12,.08,.29,.13,.45,.06,0,.12,0,.19,.01,.08-.61,.18-1.22,.24-1.83,.02-.17-.05-.35-.07-.53-.03-.24-.12-.34-.35-.16-.04-.27-.1-.58,.28-.65,.21-.04,.51,.04,.39-.3-.03-.1-.37-.11-.57-.15,.11-.24,.22-.48,.33-.72,.43-.24,.49-.6,.34-1.03,0-.13-.02-.26,0-.39,.11-.62,.32-1.24,.31-1.86,0-.41,.08-.55,.43-.61,.09,.08,.23,.26,.27,.24,.32-.15,.81-.16,.74-.84-.28,.1-.52,.19-.75,.27h-.51c.09-.61,.19-1.2,.26-1.8,.02-.12-.05-.26-.08-.38,.16-.65,.33-1.3,.46-1.96,.03-.14-.11-.32-.17-.48,.07-.51,.02-1.06,.45-1.46,.16-.09,.31-.17,.64-.35,0,.35,0,.6,0,.84,0,.35,0,.7,0,1.17,.65-.57,.88-1.69,.59-2.33-.17,.02-.34,.03-.52,.05,.07-.36,.13-.65,.18-.93,.17-.23,.34-.47,.52-.7h.82s0,.02,.02,.09c-.11,.39-.22,.78-.34,1.19,.33,.05,.57,.08,.81,.11,0,.17-.02,.34-.03,.53,.69-.36,.76-.54,.43-1,.3-.54,.59-1.07,.89-1.61,.07,0,.13,0,.2,0,.05,.25,.16,.51,.14,.76-.01,.13-.25,.24-.39,.34-.16,.12-.33,.22-.49,.33,.02,.04,.05,.08,.07,.13,.1,.02,.2,.03,.38,.06-.28,.94-.49,1.89-.83,2.79-.29,.75-.34,1.46-.15,2.24,.43-.33,.8-.8,1.25-.92,.79-.22,.73-.77,.81-1.35,.04-.27,.22-.52,.34-.78,.05,.02,.11,.03,.16,.05,.07,.35,.14,.71,.2,.99,.37-.29,.75-.5,1.02-.8,.28-.31,.5-.7,.66-1.09,.17-.4,.25-.85,.37-1.31,.23,.39,.12,.68-.09,1-.1,.16-.11,.47-.03,.65,.1,.22,.34,.39,.55,.61,.48-.28,.12-.82,.21-1.25,.44-.03,.74-.12,.68-.68-.06-.64,.06-1.29,0-1.93-.04-.53-.23-1.05-.35-1.58-.06,0-.12,0-.18,.01-.07,.16-.13,.33-.28,.68-.22-.42-.37-.7-.52-.98,.53,.22,.84,.15,.87-.33,.03-.57-.12-1.16-.16-1.74-.02-.27,.05-.56,.07-.83,.18,.05,.38,.07,.55,.15,.19,.09,.35,.23,.52,.36,.52,.4,1.07,.38,1.55-.1,.33,.81-.24,1.49-.25,2.23,.42-.02,.68,.11,.57,.59-.62,.16-1.15,.42-1.15,1.2h.51c-.49,.43-1.05,.78-1.01,1.62,.95-.19,1.86-.37,2.83-.56,.08-.35,.27-.73,.23-1.09-.04-.35-.32-.68-.49-1.01-.07-.02-.14-.05-.21-.07-.05,.16-.1,.33-.15,.49-.06-.03-.12-.07-.18-.1,0-.13-.03-.26,0-.37,.13-.37,.27-.74,.42-1.11,.07-.16,.17-.31,.26-.46,.14-.25,.26-.51,.43-.74,.11-.15,.33-.36,.44-.33,.48,.14,.76-.13,1.05-.42,.09,.24,.19,.48,.33,.84-.41,.33-.87,.7-1.31,1.05,.1,.09,.23,.21,.37,.31,.13,.1,.28,.17,.42,.26,.08-.14,.17-.27,.22-.42,.08-.25,.14-.5,.18-.66,.34-.06,.56-.09,.78-.13,.14,.09,.29,.18,.43,.26,.06-.15,.2-.32,.16-.45-.04-.16-.12-.48-.44-.25-.13,.09-.26,.18-.4,.28-.04-.33,.56-1.47,.81-1.56,.06-.02,.17-.02,.2,.02,.17,.19,.32,.4,.48,.61,0,0,0,0,0,0-.02,0-.05,.02-.04,.02,0,.03,.02,.05,.02,.08,0,.11-.02,.21-.02,.32,0,.2-.05,.49,.05,.59,.12,.11,.4,.07,.6,.03,.15-.02,.31-.11,.43-.21,.4-.31,.32-.72-.16-.94-.1,0-.19,.02-.28,.02l-.04,.03c-.07-.18-.13-.36-.15-.41,.12-.37,.32-.66,.27-.89-.06-.24-.36-.42-.56-.63,.18-.13,.34-.24,.5-.36,.56,.41,1.13,.56,1.69,.01,.15-.15,.28-.32,.42-.49-.18-.09-.37-.17-.55-.26h0c.18-.4,.43-.14,.61-.03,.43,.25,.86,.35,1.33,.14,.02,.12,.05,.24,.05,.36-.04,.98-.09,1.95-.13,2.93-.03,.77-.05,1.55-.08,2.32-.26-.08-.52-.16-.78-.23,.18-.33,.4-.66,.53-1.01,.06-.16,.02-.47-.09-.54-.13-.08-.4-.02-.57,.07-.31,.17-.58,.4-.86,.61,0-.05,.03-.11,.02-.15-.07-.2-.15-.4-.25-.57-.03-.04-.19,0-.29,0,.03,.18,.06,.35,.09,.53,0,.05,.02,.11,.02,.16-.22,.05-.61,.06-.63,.15-.08,.38-.34,.29-.57,.31-.05-.18-.09-.36-.14-.54-.05-.04-.11-.09-.16-.13-.06,0-.13,0-.19,.01-.04,0-.07,.02-.09,.05h-.04s0,.05,0,.05c-.08,.23-.16,.47-.2,.56-.34,.11-.61,.13-.79,.26-.29,.23-.53,.53-.78,.8-.18,.19-.35,.38-.63,.68,.68,.11,1.31,.07,1.46,.79,.53-.22,.56-1,1.24-.84,.34,.67,.51,.69,.95,.07,.2-.28,.39-.56,.49-.72,.23,.05,.44,.14,.47,.1,.08-.11,.09-.28,.15-.49,.09-.02,.28-.07,.47-.12-.19,.27-.4,.53-.58,.8-.09,.14-.21,.38-.15,.46,.09,.13,.39,.29,.48,.23,.36-.21,.88-.12,1.09-.59,.05-.1,.19-.16,.29-.23,.06,.32,.13,.64,.19,.95-.12,.25-.25,.5-.37,.75,.14,.06,.28,.13,.42,.19,.13,.81,.26,1.61,.39,2.42-.22,.34-.45,.68-.63,.96-.14,.28-.2,.6-.36,.68-.42,.19-.88,.27-1.33,.4,.04-.11,.11-.17,.18-.23,.09-.06,.19-.12,.26-.19,.21-.22,.13-.58-.1-.5-.2,.07-.34,.32-.55,.54-.04-.08-.08-.18-.12-.27,0,0,0,0,0,0l.21-.46s.02-.04,.01-.06c.03-.05,.07-.1,.1-.15,.23-.35,.46-.7,.75-1.12,.04,.07,.07,.15,.13,.23,.05,.07,.11,.12,.3,.32,.1-.54,.17-.92,.27-1.45-.34,.17-.49,.25-.6,.3-.16-.33-.33-.63-.44-.95-.16-.46-.36-.34-.64-.11-.35,.28-.72,.54-1.09,.81,.31-.41,.46-.86,.19-1.33-.1-.18-.32-.35-.52-.39-.09-.02-.36,.24-.37,.38-.05,.55-.02,1.1-.02,1.76,.31-.18,.52-.3,.73-.42-.12,1.09-.24,2.17-.36,3.26-.09-.23-.19-.49-.15-.72,.15-.97-.37-1.74-.73-2.55-.15-.33-.39-.29-.53,.06-.12,.3-.22,.62-.36,.91-.19,.39-.22,.76,.04,1.13h0c-.62,.17-.44,.7-.4,1.08,.04,.38,.29,.74,.47,1.1,.01,.03,.17-.05,.25-.02,.38,.11,.78,.18,1.11,.37,.34,.19,.58,.31,.78-.14,.08-.18,.2-.34,.31-.51,.02-.04,.05-.07,.07-.11,.01-.04,.03-.07,.04-.11,.12,.01,.23,.03,.22,.03-.08,.3-.16,.58-.23,.87,.15,.01,.38,.08,.42,.02,.08-.13,.07-.33,.11-.58,.36-.18,.81-.42,1.27-.64,.03-.02,.14,.13,.22,.2-.15,.32-.27,.67-.47,.97-.34,.49-.69,.95-.23,1.55-1,.3-1.4,.96-1,1.64-.72,.43-1.44,.86-2.15,1.28-.04-.03-.07-.06-.11-.1,.24-.45,.47-.89,.73-1.37-.81,.09-1.4,.59-1.61,1.29,.13,.1,.28,.17,.34,.29,.03,.05-.17,.19-.22,.31-.17,.43-.41-.14-.6,.05h0c.08-.17,.17-.34,.25-.51-.36-.09-.72-.17-1.08-.26-.02,.05-.03,.1-.05,.14,.14,.12,.28,.25,.51,.45-.24,.07-.44,.2-.58,.16-.29-.08-.53-.3-.82-.38-.46-.12-.93-.21-1.4-.25-.3-.02-.61,.07-.91,.11-.03-.04-.06-.08-.09-.12,.24-.27,.48-.54,.72-.82-.53-.5-1.58-.35-2.02,.46-.12,.22-.3,.4-.39,.62-.04,.09,.06,.35,.13,.36,.29,.04,.58,.02,.95,.02,.39,.78,1.06,.19,1.68,.21-.19,.21-.4,.34-.63,.42-.31,.1-.64,.12-.94,.24-1.06,.42-2.12,.86-3.16,1.33-.44,.2-.86,.47-1.27,.73-.18,.11-.32,.28-.48,.43,.93,.24,1.71,.06,2.41-.48,.27-.21,.58-.37,.88-.52,.07-.04,.24,0,.29,.07,.05,.06,.03,.21-.02,.29-.18,.31-.34,.62-.81,.6-.2,0-.44,.23-.59,.41-.05,.06,.11,.3,.19,.49-.21,.31-.5,.65-.68,1.04-.09,.19-.02,.51,.09,.7,.05,.09,.39,.03,.59,0,.16-.03,.3-.12,.46-.18,.03-.02,.06-.04,.09-.06,.02-.01,.04-.03,.05-.05,.08,.06,.16,.11,.23,.18,.08,.06,.15,.14,.22,.2-.02,.04-.03,.07-.05,.11-.12,.14-.23,.28-.35,.42-.24,.09-.5,.13-.7,.27-.25,.18-.4,.46-.11,.74,.44,.42,.89,.44,1.34,.03,.72-.66,1.42-1.35,2.13-2.02,.11-.1,.22-.19,.33-.29,.05,.05,.1,.09,.14,.14-.83,.64-.83,1.94-2.04,2.3-.2,.06-.3,.47-.45,.72,.23,.01,.47,.02,.7,.04,.05,0,.1,.02,.11,.02,.34,.35-.64,.65,0,.95,.52,.25,.95-.03,1.27-.33,.15,.17,.28,.33,.42,.48,.13-.17,.27-.32,.38-.5,.11-.17,.18-.35,.28-.53,.17,.45,.09,.81-.3,1.01-.34,.17-.71,.27-1.05,.44-.39,.19-.78-.02-.97-.21-.34-.34-.7-.2-.91-.06-.22,.14-.46,.63-.37,.81,.19,.37,.01,.58-.12,.84-.19,.35-.43,.69-.57,1.06-.16,.41,0,.55,.43,.47,.12-.02,.35,.1,.38,.19,.16,.54,.44,.74,.95,.41,.69,.96,.72,.96,1.55,.2,.28,.17,.56,.35,.86,.51,.35,.2,.71,.39,1.06,.58,.13,.36,.26,.72,.43,1.19-.42,0-.65,.02-.88,0-.63-.06-.68-.02-.65,.58q.05,.76-.73,.75c-.26-.42-1.04-.82-1.49-.7-.18,.05-.46,.25-.46,.37,0,.19,.18,.43,.36,.54,.43,.27,.89,.48,1.34,.72-.25,.06-.5,.11-.77,.17,.16,.34,.45,.66,.38,.87-.15,.46-.42,.92-.76,1.27-.28,.29-.35,.51-.17,.85-.07,.05-.15,.1-.21,.15-.17,.15-.34,.31-.51,.47,.16,.13,.33,.27,.49,.4,.05,.41-.25,.44-.49,.35-.64-.25-.87,.06-.96,.62-.03,.21-.04,.43-.01,.63,.04,.34-.07,.49-.38,.31-.39-.24-.75-.53-1.12-.8,.49-.27,1.03-.48,1.36-1.21-.73,.05-1.38,.03-1.99,.16-.72,.16-1.4,.51-2.12,.7-.51,.13-.98,.24-1.1,.95-.22-.93-.9,.08-1.13-.25,.17-.28,.33-.47,.42-.69,.14-.33,.25-.68,.36-1.03,.03-.09,0-.2,.01-.31-.12,0-.27-.05-.35,0-.12,.09-.19,.25-.29,.37-.15,.18-.29,.38-.47,.52-.67,.5-1.37,.98-2.05,1.47-.03,.04-.07,.07-.1,.11-.15,.26-.29,.51-.44,.77-.07-.04-.15-.07-.22-.11,.03-.04,.05-.08,.08-.12,0,0-.03-.02-.04-.03-.02,.05-.03,.1-.05,.14-.18-.07-.36-.15-.55-.22,.04-.11,.08-.21,.12-.32,.14-.04,.28-.08,.42-.12,.33-.26,.82-.4,.8-.97-.17,.04-.29,.12-.39,.23-.11,.12-.2,.27-.29,.41,.06-.45,.03-.78-.42-.81,.03-.3,.06-.55,.09-.8-.05,0-.11-.02-.16-.03-.18,.37-.36,.75-.54,1.12l-.16-.05c.04,.12,.07,.24,.11,.36-.41,.18-.81,.36-1.22,.54,0,0,0,0,0,0-.04-.03-.07-.07-.11-.1-.08-.22-.16-.45-.24-.67,.07-.18,.15-.36,.22-.54,.19-.51,.38-1.02,.56-1.53,.26-.53,.51-1.06,.78-1.59,.12-.25,.27-.48,.4-.72,.24,.38,.59,.72,.44,1.25-.04,.14-.03,.3-.02,.46,0,.02,.17,.07,.19,.04,.11-.13,.23-.27,.29-.43,.12-.29,.2-.59,.32-.88,.07-.17,.18-.32,.28-.48,.14-.24,.28-.49,.42-.73,.07,.04,.14,.08,.2,.12-.11,.22-.25,.42-.32,.65-.05,.16,0,.35,.02,.53,.15-.06,.35-.07,.45-.17,.56-.57,1.1-1.17,1.65-1.75,.03-.04,.09-.05,.13-.08,.1,.13,.2,.26,.31,.4,.15-.07,.32-.1,.4-.2,.2-.25,.36-.53,.54-.8,.05,.38,.06,.77,.17,1.14,.03,.12,.28,.2,.44,.25,.06,.02,.19-.09,.23-.17,.2-.42-.38-1.25-.84-1.21,.02-.46,.04-.92,.06-1.35,.21,.15,.27,.75,.79,.35,.18,.73,.39,.87,.91,.7,.08-.23,.14-.42,.21-.59,.08-.22,.25-.44,.25-.66,0-.64-.76-1.16-1.45-1.05-.09,.02-.19,0-.34,0,.07-.19,.12-.33,.15-.39,.22,.05,.41,.15,.59,.13,.18-.02,.45-.26,.51-.21,.51,.41,.91,.19,1.42-.05,.44-.21,1.01-.16,1.61-.23-.13-.41-.25-.67-.3-.94-.14-.75-.3-.93-1.01-1.03,.62-.59,.71-1.32,.03-1.68,.22-.15,.42-.26,.6-.41,.2-.18,.41-.37,.54-.59,.07-.12,.04-.36-.04-.49-.04-.07-.35-.06-.44,.02-.28,.26-.52,.58-.77,.87-.33,.39-.24,1.08-.88,1.26-.11,0-.21-.01-.32-.02l-.06-.17s-.06-.04-.08-.06c-.5,.11-1.1,0-1.41,.58-.07,0-.15-.01-.22-.02h0c-.04-.08-.07-.14-.11-.21-.11-.11-.22-.23-.33-.34-.05-.06-.1-.13-.14-.19-.02-.05-.05-.09-.07-.14,.14-.09,.29-.18,.43-.27,0,0,.04-.03,.04-.03,.03-.03,.05-.06,.08-.09,.04-.21,.1-.42,.1-.63,0-.13-.1-.25-.15-.38l-.39,.2s-.06,.09-.08,.13v.02c-.11-.05-.22-.1-.33-.15-.02-.02-.04-.05-.04-.08-.14-.19-.28-.38-.42-.58,.26-.56,.53-1.13,.79-1.69,.17-.37,.23-.92,.51-1.07,.55-.28,.56-.69,.6-1.16,.16-.18,.33-.35,.49-.53,0,0-.09-.1-.13-.15-.14,.19-.28,.37-.42,.56-.01,.01-.01,.03-.01,.05-.1,.19-.2,.38-.32,.61-.31-.41-.47-1.12-1.11-.82-.4,.19-.65,.7-.99,1.09,0-.16,0-.33-.04-.5-.02-.11-.14-.3-.16-.29-.3,.09-.61,.19-.89,.34-.09,.05-.1,.26-.15,.39-.16,.4-.33,.8-.52,1.26-.15-.34-.24-.53-.33-.73-.2,.16-.45,.28-.59,.48-.62,.88-.4,1.9-.58,3.03,.32-.24,.5-.37,.6-.45,.92,.11,1.7,0,2.33-.71,.06,.25,.09,.4,.11,.5h.48c.08,.19,.17,.37,.25,.56-.34,.75-.68,1.49-.94,2.08-.4,.14-.67,.24-.93,.34,.37-.53,.77-1.04,1.11-1.59,.11-.18,.12-.43,.19-.74-.36,.13-.57,.28-.73,.24-.42-.1-.56,.14-.69,.43-.07-.07-.13-.14-.2-.21-.22-.15-.45-.29-.7-.46-.11,.15-.23,.25-.27,.37-.16,.56-.27,1.12-.43,1.68-.16,.54-.36,1.06,.47,1.22,.08,.01,.14,.15,.26,.3,.23-.22,.43-.41,.63-.6,.22,.44,.02,1.02-.53,1.54-.14,.09-.27,.17-.41,.26-.02-.03-.05-.05-.08-.07,.09-.2,.19-.4,.28-.61-.27-.02-.47-.06-.67-.04-.15,.02-.33,.09-.42,.2-.29,.35-.52,.74-.82,1.08-.11,.12-.32,.19-.49,.22-.24,.04-.9,.8-.83,1.02,.02,.07,.16,.1,.25,.15,0,0,.03,.02,.03,.02,0,.33-.03,.6-.41,.78-.32,.16-.58,.47-.03,.91-.3-.04-.45-.09-.59-.08-.35,.03-.61,.28-.41,.57,.22,.32-.01,.51-.02,.75,0,.21-.02,.42-.03,.63,.08,.03,.16,.06,.23,.08,.4-.36,.8-.73,1.21-1.09-.11,.06-.21,.21-.2,.35,.02,.17,.12,.34,.19,.51,.12-.12,.27-.21,.36-.35,.11-.18,.16-.39,.22-.56,.35,.2,.62,.57,.82-.07,.01-.05,.26-.02,.4-.03-.11,.29-.23,.57-.32,.86-.26,.77-.52,1.54-.78,2.32-.26,.48-.51,.96-.77,1.44-.12-.3-.33-.26-.55-.13,.17-.28,.34-.56,.51-.85l-.06-.1c-.28,.18-.56,.37-.84,.55-.02-.07-.04-.16-.07-.27-.24,.13-.44,.23-.65,.34,.13-.34,.27-.69,.4-1.03-.07-.03-.14-.07-.21-.1-.15,.26-.33,.51-.45,.78-.03,.07,.17,.23,.26,.34-.09,.17-.19,.33-.32,.57,.21-.04,.36-.07,.54-.1-.03,.23-.09,.42-.06,.58,.02,.11,.19,.18,.29,.27,0,.33,0,.66,0,.99,.06,.08,.12,.16,.18,.24-.07,.09-.13,.17-.2,.26-.1,.01-.21,.02-.31,.03,0,0,0,0,0,0-.04-.03-.09-.06-.13-.09-.04-.03-.12-.07-.12-.1-.04-.57-.73-1.02-.32-1.69,.04-.07-.03-.23-.08-.34-.1-.22-.23-.44-.38-.73-.2,.03-.49,.06-.9,.11,.68-.6,1.1-1.21,1.17-2.09-.2,.07-.32,.1-.44,.14-.02-.02-.04-.03-.06-.05,.18-.38,.37-.75,.57-1.17-.24-.03-.37-.04-.45-.05,.12-.43,.23-.82,.34-1.19-.18-.04-.31-.06-.44-.09ZM50.46-13.93c-.05-.07-.09-.15-.16-.21-.12-.12-.26-.23-.39-.32-.01-.01-.15,.1-.14,.11,.09,.17,.18,.33,.29,.48,.03,.04,.13,.04,.2,.06-.34,.31-.21,.98-.82,1.09,.05,.11,.09,.31,.14,.31,.47,.03,.9,.49,1.42,.09,.2-.15,.55-.09,.82-.14,.06-.01,.15-.09,.15-.14,.02-.49,.34-.64,.76-.77,.17-.05,.31-.29,.43-.46,.19-.28,.38-.58,.52-.89,.09-.19,.07-.42,.11-.64-.18,.08-.35,.17-.53,.25-.02,0-.06-.02-.09-.03q.23-.71-.61-.99c-.21,.47-.43,.96-.65,1.45-.44,.23-.94,.49-1.45,.75Zm-8.82,.38c-.26,.05-.52,.09-.69,.13-.21-.13-.47-.36-.53-.31-.17,.13-.27,.35-.37,.55-.04,.07-.01,.18-.01,.27-.03,.65-.03,.63-.68,.51-.18-.03-.49,.15-.59,.32-.11,.18-.04,.46-.05,.7h.58c.03,.42-.47,.89,.07,1.33,.16,.13,.29,.46,.25,.65-.13,.61,.24,1.01,.51,1.49,.11-.13,.21-.25,.37-.44-.01,.21-.02,.33-.04,.6,.26-.2,.45-.29,.56-.45,.43-.6,.8-1.25,1.24-1.84,.31-.41,.71-.75,1.08-1.13,.06-.21,.43-.72,.71-.73,.34,0,.68,0,1.02,0,0-.06,.02-.12,.03-.18-.23-.2-.47-.39-.76-.63,.08-.3,.08-.78,.31-1,.4-.37,.43-.71,.28-1.16-.05-.15-.04-.33-.05-.48,.21,.04,.36,.06,.51,.09-.48-.46-.16-.87,0-1.27,.09-.24,.2-.47,.29-.71,.16-.41-.12-.75-.57-.68-.19,.03-.37,.08-.56,.12,.07-.17,.13-.33,.18-.48-.08-.07-.17-.15-.25-.22-.07,.17-.12,.35-.21,.5-.07,.12-.19,.24-.31,.3-.28,.13-.59,.21-.9,.32,0,0-.04-.11-.11-.33-.21,.43-.38,.76-.55,1.09-.47-.1-.76,.08-.89,.55-.06,.2-.05,.47-.18,.6-.32,.34-.06,.48,.16,.74,.12-.22,.22-.38,.31-.55,.05,.02,.1,.04,.16,.05-.07,.34-.16,.67-.22,1.01-.03,.2,0,.41-.01,.61-.02,.02-.04,.04-.06,.05Zm6.06-2.23c.35-.17,.58-.13,.8,.17,.09,.12,.3,.14,.45,.21,.03-.14,.1-.4,.08-.41-.44-.18-.31-.56-.36-.89-.06-.41-.13-.82-.25-1.22-.03-.12-.22-.19-.33-.29-.04,.14-.12,.28-.12,.42,0,.14,.07,.28,.12,.41-.03,0-.05,.02-.08,.03-.32-.37-.64-.73-.97-1.1-.07,.03-.13,.05-.2,.08,0,.32,0,.63,0,.95,0,.62,.19,.77,.89,.59-.63,.39-.19,.67-.04,1.02Zm9.28-12.23c.13,.19,.22,.41,.37,.48,.1,.05,.42-.1,.45-.21,.09-.35,.13-.73,.11-1.09-.01-.15-.22-.35-.37-.4-.1-.03-.28,.16-.44,.26-.42-.63-.78-.08-1.09,.15-.15,.11-.27,.52-.18,.68,.3,.53,.77,.27,1.16,.13ZM42.83,5.57c.89-.01,1.51-.37,1.74-1.02,.15-.42-.14-.85-.52-.78-.73,.12-1.33,1-1.22,1.8Zm4.69-18.88c-.09-.32-.15-.55-.21-.77-1.12-.07-1.89,.22-2.05,.77h2.26Zm-.61,16.67c-.25-.23-.51-.5-.52-.49-.3,.26-.58,.55-.86,.83,.22,.14,.5,.45,.63,.39,.27-.11,.45-.42,.75-.73Zm-7.58-19.08c.23-.05,.45-.11,.77-.18v-1.63c-.06-.02-.11-.04-.17-.06-.2,.61-.4,1.23-.61,1.87Zm2.07,23.43c-.37,.45-.97,.76-.83,1.5,.81-.3,1.25-1.06,.83-1.5Zm6.84-3.56c-.03-.07-.06-.14-.09-.21-.49,.2-.98,.39-1.46,.61-.03,.01,.05,.25,.11,.52,.4-.61,1.23-.26,1.45-.92Zm-3.09-14.33c0-.07-.01-.14-.02-.21-.19-.08-.42-.27-.57-.22-.19,.05-.32,.3-.48,.46,.14,.12,.31,.37,.43,.35,.23-.05,.43-.25,.64-.38Zm-4.39,20.86c.2,.22,.32,.36,.44,.5,.16-.2,.37-.37,.45-.6,.03-.1-.23-.29-.36-.44-.15,.16-.31,.31-.53,.54Zm-1.79-26.74c.07,0,.15-.01,.22-.02-.02-.37-.03-.74-.05-1.11-.08-.02-.15-.04-.23-.06-.17,.25-.34,.51-.51,.76,.16,.05,.32,.1,.5,.16,.02,.07,.04,.17,.07,.27Zm11.35-3.04c.08,0,.15,0,.23-.01,0-.38,.02-.77-.01-1.15,0-.09-.16-.17-.24-.25-.07,.11-.22,.22-.21,.32,.05,.37,.15,.73,.23,1.09Zm-1.46,2.24c.33-.3,.62-.55,1.02-.91-.26-.05-.49-.18-.62-.11-.36,.2-.45,.55-.4,1.02Zm6.74,2.97l-.19-.1c-.55,.18-.7,.54-.35,1.19,.21-.43,.37-.76,.54-1.09Zm-11.49,3.51c-.28-.19-.47-.34-.68-.43-.07-.03-.21,.12-.32,.19,.19,.18,.37,.37,.58,.52,.04,.03,.21-.13,.43-.28Zm-3.84,19.6c-.26-.11-.41-.24-.52-.22-.14,.03-.25,.19-.37,.3,.12,.08,.24,.23,.35,.23,.14-.01,.28-.15,.54-.31Z"/><path class="cls-5" d="M30.49,6.7c.13,.03,.26,.05,.44,.09-.1,.37-.21,.76-.34,1.19,.07,0,.21,.02,.45,.05-.2,.41-.39,.79-.57,1.17-.05,.07-.1,.14-.15,.21,.02,.02,.05,.03,.07,.05,.05-.07,.09-.14,.14-.2,.12-.04,.23-.08,.44-.14-.07,.88-.49,1.49-1.17,2.09,.41-.05,.7-.09,.9-.11,.15,.29,.28,.51,.38,.73,.05,.11,.12,.27,.08,.34-.41,.67,.28,1.12,.32,1.69,0,.04,.08,.07,.12,.1,.04,.03,.09,.06,.13,.09,0,0,0,0,0,0,0,.17,0,.34,0,.52,0,.03,0,.04-.03,.05-.03,.05-.06,.09-.09,.14,0,0,0,0,0,0-.22,.19-.45,.38-.67,.56-.03,.03-.07,.06-.1,.09-.69,.25-.86,.47-.81,.99,.2-.21,.4-.42,.64-.68,.03,.22,.05,.35,.07,.47h0c-.04,.13-.09,.27-.13,.42,0,.03,0,.06,0,.1,.04,.04,.09,.07,.13,.11,.2,.03,.4,.05,.6,.08,.55-.21,1.11-.43,1.66-.64-.02-.04-.04-.09-.06-.13-.45-.09-.9-.19-1.34-.28,.05-.1,.1-.2,.15-.3,.39-.11,.78-.23,1.17-.34,.34,.04,.68,.08,1.02,.12-.12,.25-.2,.44-.29,.63,.04,.04,.08,.08,.11,.13,.23-.1,.45-.19,.68-.3,.15-.08,.3-.17,.45-.26,0,0,0,0,0,0,.09,.07,.17,.2,.27,.21,.31,.03,.62,.01,.94,.01h0c.52,.57-.32,.34-.27,.61,.04,.12,.03,.33-.01,.34-.21,.04-.43,.04-.65,.04-.17,0-.34-.04-.52-.06,.63,.62,.94,.6,1.44,.07,.32-.33,.72-.41,1.15-.24,.35,.13,.61,.33,.44,.78-.02,.06,.1,.17,.16,.25,.14,.27,.4,.53,.39,.8,0,.39-.4,.42-.71,.39-.44-.04-.88-.1-1.31-.17-.31-.04-.66-.21-.78,.28-.07,.15-.13,.3-.2,.45-.48-.23-1.09-.31-1.1-1.05,0-.23-.13-.46-.23-.67-.05-.1-.24-.25-.3-.22-.59,.27-1.15,.22-1.63-.12-.14,.35-.26,.65-.38,.94-.06,0-.12-.02-.18-.03-.07-.26-.14-.52-.2-.73-.2,.16-.42,.33-.72,.57,.12,.1,.33,.2,.42,.37,.11,.19,.12,.44,.17,.67-.07,.03-.13,.06-.2,.1-.2-.23-.39-.45-.5-.57-.28,.08-.55,.15-.86,.24,.01,.11,.03,.29,.05,.46-.37-.07-.75-.15-1.12-.2-.2-.03-.41,0-.61,0-.41-.15-.99-.12-.88-.77-.31-.04-.58-.08-.74-.11-.36-.8,.55-.71,.68-1.15-.21-.12-.4-.22-.59-.33,.23-.25,.48-.48,.68-.75,.14-.18,.22-.4,.32-.6,.12-.06,.24-.12,.37-.19,.31-.26,.61-.52,.92-.79-.06-.06-.12-.12-.18-.17-.28,.29-.55,.58-.83,.87-.06,.02-.11,.03-.17,.05,.41-1.16,.81-2.32,1.22-3.48,.56-1.54,1.13-3.08,1.69-4.62,.03-.08,.1-.15,.15-.22Zm-.29,2.98s.03-.08,.05-.12c-.03,.02-.06,.05-.1,.07-.03,.04-.07,.08-.1,.12-.17,.19-.34,.39-.5,.58-.04-.02-.08-.04-.12-.06-.09,.18-.19,.36-.33,.63,.63-.2,.83-.64,1.01-1.09,.03-.04,.06-.08,.1-.13Zm-3.03,6.58c.69,.16,1.44-.05,1.64-.45,.1-.19,.08-.45,.13-.82-.68,.48-1.19,.85-1.77,1.26Z"/><path class="cls-8" d="M26.31,16.6c.19,.1,.38,.21,.59,.33-.13,.45-1.04,.35-.68,1.15,.16,.02,.44,.06,.74,.11-.11,.65,.46,.62,.88,.77-.3,0-.59-.01-.89-.02-.04-.16-.08-.32-.12-.48-.05,0-.1,0-.15,0-.03,.15-.07,.29-.1,.44-.29,.14-.58,.28-.96,.46-.05-.08-.15-.28-.26-.47,.23-.68,.45-1.36,.69-2.04,.03-.1,.18-.16,.27-.23Z"/><path class="cls-8" d="M27.68,15.07c-.12,.06-.24,.12-.37,.19,.02-.03,.02-.05,.02-.08,.03-.05,.06-.09,.09-.14,0,0,0,0,0,0,.06-.02,.11-.03,.17-.05,.03,.03,.05,.06,.08,.08Z"/><path class="cls-5" d="M27.42,15.03s-.06,.09-.09,.14c.03-.05,.06-.09,.09-.14Z"/><path class="cls-8" d="M38.72,23.36h-.04s-.04,0-.04,0c-.16-.12-.31-.23-.47-.35,.07-.15,.12-.27,.24-.53h-1.17c.07-.19,.17-.22,.22-.28,.13-.19,.34-.39,.34-.59,0-.33-.25-.49-.6-.46-.1,0-.21-.03-.3-.07-.3-.11-.6-.34-.89-.34-.78,.01-1.55,.12-2.33,.19-1.37-.59-2.74-1.18-4.12-1.78-.02-.18-.04-.35-.05-.46,.31-.09,.58-.16,.86-.24,.1,.12,.3,.34,.5,.57,.07-.03,.13-.06,.2-.1-.05-.23-.06-.47-.17-.67-.09-.16-.3-.27-.42-.37,.3-.24,.52-.41,.72-.57,.06,.21,.13,.47,.2,.73,.06,0,.12,.02,.18,.03,.12-.29,.24-.59,.38-.94,.48,.33,1.04,.39,1.63,.12,.06-.03,.24,.12,.3,.22,.11,.21,.23,.44,.23,.67,0,.75,.62,.83,1.1,1.05,.28,.01,.56,.03,.84,.04,.02-.06,.05-.13,.07-.19-.24-.1-.48-.2-.72-.3,.11-.49,.46-.33,.78-.28,.44,.06,.87,.13,1.31,.17,.32,.03,.71,0,.71-.39,0-.26-.25-.53-.39-.8,.05-.28,.1-.55,.14-.83,.16,.03,.31,.05,.43,.07,.03,.18,0,.42,.09,.47,.25,.13,.55,.19,.82,.28,.02-.05,.03-.1,.05-.15-.11-.12-.23-.24-.27-.29,.14-.29,.26-.52,.37-.76,.01-.08,.03-.15,.04-.23,.03-.01,.05-.02,.08-.04,.03-.03,.06-.07,.1-.1,.02-.06,.04-.12,.06-.18,.03-.04,.05-.09,.08-.13,0,0,0,0,0,0,.08,0,.16,0,.24,0,.05,.24,.1,.49,.17,.83,.05,.02,.24,.1,.43,.17-.17,.11-.34,.18-.45,.29-.12,.13-.2,.3-.31,.46,.37,.17,.74,.34,1.12,.51-.02,.04-.03,.08-.05,.13-.18-.03-.37-.06-.55-.09-.05-.03-.1-.06-.16-.09,0,0,0,0,0,0-.4-.28-.45-.28-.57,0,0,.11,.02,.22,.03,.33-.31,.14-.26,.3-.02,.47,.27,.32,.53,.64,.8,.96,.03,.04,.05,.09,.08,.13,0,.03,0,.06,.01,.08-.1,.68,.59,.31,.87,.61-.34,.02-.61,.04-.88,.06,.13,.49,.06,.56-.38,.45-.09-.02-.18-.02-.27-.02-.03,0-.07,0-.1,0,.07-.18,.15-.36,.28-.68-.5-.07-.99-.14-1.47-.19-.03,0-.08,.13-.11,.2,.03,.15,.07,.31,.1,.46,.05,.12,.07,.31,.15,.35,.4,.2,.83,.35,1.24,.52,.19,.04,.38,.07,.57,.12,.63,.15,1.27,.31,1.92,.47-.52,.81-.81-.07-1.28,.01,.19,.38,.37,.73,.55,1.08-.05,.03-.11,.06-.16,.08-.12-.21-.23-.42-.36-.61-.12-.17-.28-.48-.38-.47-.43,.06-.97,.11-1.22,.38-.29,.32,.17,.62,.44,.86,.04,.04,.06,.09,.1,.13,.62,.74,1.43,.76,2.28,.55,.08-.02,.13-.2,.19-.31h0c.58,.09,.56,.59,.63,.99,.09,.53,.42,.73,.9,.75,.49,.03,.93-.01,1-.64,0-.05,.09-.09,.14-.14,.06,.66,.63,.72,1.08,.93,.06,.13,.15,.38,.17,.38,.32-.11,.62-.24,.92-.36-.07-.24-.1-.37-.14-.51-.12-.12-.23-.27-.38-.34-.45-.21-.91-.38-1.37-.57,1.07-.43,1.21-.37,1.93,.55,.12,.15,.48,.11,.73,.15,.1,.04,.21,.08,.31,.12-.15,.37-.29,.74-.46,1.17,.49-.06,.87-.11,1.26-.16,0,.05,0,.1,0,.15l-.28,.14c-1.08,.18-1.21,.25-1.9,.98-.02,.03-.05,.05-.07,.08-.35-.11-.7-.21-1.06-.32-.04,0-.08-.02-.12-.03-.06-.08-.1-.2-.19-.24-1.5-.72-3.01-1.43-4.52-2.14-.69-.36-1.39-.72-2.08-1.08-.15-.11-.3-.22-.46-.33Zm.32-1.3c-.07,.16-.13,.31-.28,.65,.32-.14,.51-.22,.69-.3-.14-.12-.27-.24-.41-.36-.04-.16-.05-.33-.12-.47-.05-.11-.17-.24-.28-.27-.08-.02-.26,.08-.28,.17-.04,.12-.01,.34,.06,.38,.18,.11,.4,.13,.61,.19Zm-2.43-2.83c-.13,.05-.32,.07-.39,.17-.05,.08,.01,.35,.08,.38,.61,.21,1.2,.6,1.99,.32-.47-.21-.88-.39-1.28-.58,.05-.04,.09-.08,.14-.12-.1-.15-.21-.31-.31-.46-.07,.08-.13,.17-.2,.25l-.04,.04Zm-3.74-.28q.51-.12,1.28,.47c-.19-.4,.06-.95-.6-.91-.73,.04-.72,.06-.68,.44Zm6.16,.08c-.03,.1-.06,.2-.09,.31,.43,.12,.86,.25,1.3,.37l.08-.24c-.43-.15-.85-.29-1.28-.44Z"/><path class="cls-5" d="M26.57,18.89c.03-.15,.07-.29,.1-.44,.05,0,.1,0,.15,0,.04,.16,.08,.32,.12,.48-.13-.02-.25-.03-.38-.05Z"/><path class="cls-7" d="M27.17,16.27c.58-.42,1.09-.78,1.77-1.26-.05,.37-.03,.62-.13,.82-.2,.4-.95,.6-1.64,.45Z"/><path class="cls-7" d="M30.1,9.82c-.18,.45-.38,.89-1.02,1.09,.14-.27,.24-.45,.33-.63,.04,.02,.08,.04,.12,.06,.17-.19,.34-.39,.5-.58,.02,.02,.04,.04,.06,.06Z"/><path class="cls-8" d="M27.6,14.98c.28-.29,.55-.58,.83-.87,.06,.06,.12,.12,.18,.17-.31,.26-.61,.52-.92,.79-.03-.03-.05-.06-.08-.08Z"/></g></g></g><g class="cls-10"><rect class="cls-4" x="-488.08" y="-557.96" width="1500" height="1000"/></g></svg>