<svg id="Livello_1" data-name="Livello 1" xmlns="http://www.w3.org/2000/svg" xmlns:xlink="http://www.w3.org/1999/xlink" viewBox="0 0 30 30"><defs><style>.cls-1{fill:none;}.cls-2{fill:#d1d1d1;}.cls-3{clip-path:url(#clip-path);}.cls-4{fill:#ffe600;}.cls-5{fill:#fff;}.cls-6{fill:#72433d;}</style><clipPath id="clip-path"><circle class="cls-1" cx="15" cy="15" r="12.5"/></clipPath></defs><path class="cls-2" d="M15,2.5A12.5,12.5,0,1,1,2.5,15,12.5,12.5,0,0,1,15,2.5M15,1A14,14,0,1,0,29,15,14,14,0,0,0,15,1Z"/><g class="cls-3"><rect class="cls-4" x="-8.78" y="13.51" width="25.18" height="2.8" transform="translate(-11.1 18.71) rotate(-90)"/><rect class="cls-5" x="-5.99" y="13.51" width="25.18" height="2.8" transform="translate(-8.3 21.51) rotate(-90)"/><rect class="cls-6" x="-3.19" y="13.51" width="25.18" height="2.8" transform="translate(-5.5 24.31) rotate(-90)"/><rect class="cls-5" x="-0.39" y="13.51" width="25.18" height="2.8" transform="translate(-2.7 27.11) rotate(-90)"/><rect class="cls-4" x="2.41" y="13.51" width="25.18" height="2.8" transform="translate(0.1 29.9) rotate(-90)"/><rect class="cls-5" x="5.21" y="13.51" width="25.18" height="2.8" transform="translate(2.89 32.7) rotate(-90)"/><rect class="cls-6" x="8" y="13.51" width="25.18" height="2.8" transform="translate(5.69 35.5) rotate(-90)"/><rect class="cls-5" x="10.8" y="13.51" width="25.18" height="2.8" transform="translate(8.49 38.3) rotate(-90)"/><rect class="cls-4" x="13.6" y="13.51" width="25.18" height="2.8" transform="translate(11.29 41.1) rotate(-90)"/></g><g class="cls-3"><path class="cls-4" d="M5.46,29,29,5.46l7.25,7.25L12.71,36.29Z"/><path class="cls-6" d="M-6.29,17.29,17.29-6.29,24.54,1,1,24.54Z"/></g></svg>