<svg id="Livello_1" data-name="Livello 1" xmlns="http://www.w3.org/2000/svg" xmlns:xlink="http://www.w3.org/1999/xlink" viewBox="0 0 30 30"><defs><style>.cls-1{fill:none;}.cls-2{clip-path:url(#clip-path);}.cls-3{fill:#45b1d4;}.cls-4{fill:#7ccad6;}.cls-5{fill:#d99c3d;}.cls-6{fill:#cfc4a6;}.cls-7{fill:#d23063;}.cls-8{fill:#ae2b5e;}.cls-9{fill:#ced8df;}.cls-10{fill:#7e406c;}.cls-11{fill:#b49d52;}.cls-12{fill:#98925a;}.cls-13{fill:#d1d1d1;}</style><clipPath id="clip-path"><circle class="cls-1" cx="15" cy="15" r="12.5"/></clipPath></defs><g class="cls-2"><path class="cls-3" d="M22.59,28.18H20.41c-.08-.52.58-.35.51-.89a.85.85,0,0,0-.23,0c-.36.1-.85.57-1.05.22s.28-.89.46-1.33l.19,0c.38.44.68.38.89-.23a.73.73,0,0,1,.46-.53c.19-.06.39-.11.42-.43,0-.14,0-.27.05-.41a.68.68,0,0,0,.69-.14c.43-.33.4-.77-.05-1.11l.14-.45a.24.24,0,0,0,.1-.05c.5-.19.75-.52.43-1.19,0-.34.15-.76-.13-1s-.45.11-.65.27l-.17-.21a2.92,2.92,0,0,0,.13-.42c0-.21.14-.46-.08-.6s-.34,0-.43.24h0a.36.36,0,0,0-.36.32h0l-.12.15h0a.28.28,0,0,0-.13.29h0a.13.13,0,0,0-.12,0l-.21-.15,0-.15.05,0a.43.43,0,0,1,0-.05l0,.08c-.21.06-.44.21-.62.14-.5-.2-.7.12-.85.62-.15,0-.3,0-.34.27a.06.06,0,0,1-.06.05l-.06.05a.35.35,0,0,1-.06.09l-.55-.17,0-.34c.08-.18.3-.26.27-.53.2,0-.07-.3.1-.36s.89-.63.85-1c0,0-.1-.05-.16-.07a1.21,1.21,0,0,0,.06-1c-.14-.41-.65.26-.72-.38v-.15c.26-.16.28-.31,0-.45h0v-.3a.76.76,0,0,1,.3.05c.47.25.88.33,1.13-.42.11-.32.35-.09.54-.13l0,0v.05c0,.42.1.7.42.82s.63.46.62,1,.28.75.66.72a6.16,6.16,0,0,0,1-.21c.27-.05.59.19.78-.25h0l0,0a.46.46,0,0,0,.5-.17l.52-.23a1.16,1.16,0,0,1-.13.41,2.4,2.4,0,0,0-.27,2.4c.15,1,.61.36,1,.3-.76,1-1.61,1.88-2.43,2.79A5.23,5.23,0,0,0,22.59,28.18Zm-1.32-1.12a1,1,0,0,0,1-.66Z"/><path class="cls-4" d="M-.77,20.4v-.91a1.08,1.08,0,0,0,.34-.68c.09-.4.1-.94.31-1.15a10.88,10.88,0,0,0,.94-1.48c.3-.29.5-.72.85-.91a2.7,2.7,0,0,0,.9-.85c.19-.27.3-.58-.14-.68a3.25,3.25,0,0,1-1.55-.05L.67,13a4.69,4.69,0,0,1-.33-1.67c-.08-.72.3-1.18.85-1.11l.15.43a6.41,6.41,0,0,1,.17.73c0,.22.06.41.23.49s.21-.21.32-.32a5.84,5.84,0,0,1,.56-.42,4.25,4.25,0,0,1,.49,3.08l0,.27c-.27.36-.45.82-.86,1A.7.7,0,0,0,2,16.3c.12.28.35.06.53-.06a1.33,1.33,0,0,1,.34-.1c.13.19.19.38,0,.53a.57.57,0,0,0-.29.5c-.2,0-.29-.25-.46-.33s-.38,0-.53.21a.36.36,0,0,0-.07.4c.1.24.27.17.42.11a.68.68,0,0,1,.62.15l0,.27a1.82,1.82,0,0,1-.57.16c-.82-.12-.88-.09-1,.93-.1.77.08,1,.69.8.38-.11.72-.48,1.15-.34,0,.06,0,.12,0,.19A4,4,0,0,0,1.18,20.8a1,1,0,0,0-.18,1c.07.22.19.32.37.3A.71.71,0,0,0,2,21.59a3.34,3.34,0,0,1,.85-1.13c.3.11.69.14.41.75a3.87,3.87,0,0,1-1,.76c-1.11.52-1.28.85-1.22,2.27a.31.31,0,0,0,.18.3c-.1.71.31,1.3.39,2.16a2.08,2.08,0,0,1-.59-1.06c-.09-.36-.26-.55-.56-.55A1.06,1.06,0,0,0,0,24.23L0,24a19.67,19.67,0,0,0-.16-2.42C-.25,21.08-.31,20.61-.77,20.4Zm2.39-8.21c-.15.51-.33.82,0,1.07.13.11.37.15.43,0C2.13,12.79,1.73,12.69,1.62,12.19Z"/><path class="cls-3" d="M9.64,28.18H8.55c0-.42-.11-.59-.47-.55a.85.85,0,0,1-.64-.06,3.16,3.16,0,0,0-2-.78A4.11,4.11,0,0,0,5,25a.69.69,0,0,1,.55-.23c.15,0,.25-.06.3-.24h0a2.63,2.63,0,0,0,1.46-1.05h0c.2,0,.44.13.58-.18l.13-.17c.26,0,.52.08.75-.13a1.79,1.79,0,0,0,1.21.92,11.35,11.35,0,0,0,1.43.14l0,.2h0a.3.3,0,0,0-.28.22.27.27,0,0,1-.08.07l-.13.15h0c-.18.1-.4.11-.51.36l-.12.2a.5.5,0,0,0-.25.31.09.09,0,0,1-.06,0l-.14.21v.07l-.12.33h0c-.11.06-.21.12-.16.31V27l-.1.46A1,1,0,0,0,9.64,28.18Z"/><path class="cls-3" d="M17.14,28.18h-.6a1.89,1.89,0,0,1,.34-1,.42.42,0,0,0,0-.27c-.06-.14-.18-.08-.25,0a3.49,3.49,0,0,0-.84,1.25H15c.1-.87.75-1.23,1.07-1.9l.5-.55a.54.54,0,0,0,0-.78c-.36-.27-.69-.11-.93.32,0,.3-.2.31-.39.27v-.42l.51-.58a1.64,1.64,0,0,0,1.08-.32,1.24,1.24,0,0,0,1.09-.58c.46-.16,1-.22,1.27-.76a9.32,9.32,0,0,0,2.07-1.09,1.53,1.53,0,0,0,.38,1,1.93,1.93,0,0,0,0,1l-.13.2v0l-.2.08c-.14-.09-.21,0-.25.16l-.22.19c-.16,0-.25.11-.29.3a.12.12,0,0,0-.06.06.93.93,0,0,0-.72.64,3.15,3.15,0,0,0-1.27,1.24.3.3,0,0,0-.21.3h0l-.11.14v0l-.11.14h0l-.12.14h0l-.12.14h0C17.45,27.62,17.29,27.89,17.14,28.18Z"/><path class="cls-5" d="M19.32,2.57h1.33a2,2,0,0,0,.24,1.09l.15.12a.16.16,0,0,1,.09.05l.13.11h0a.31.31,0,0,0,.36.15h0a1.29,1.29,0,0,0,.28.25c.41.21,0,.22,0,.33l-.26,0a.14.14,0,0,0-.22,0l-.26,0-.11,0-.21.08-.13.14a3.42,3.42,0,0,0,.22,1.65c.1.32.58.36.42.88l.29,0a1.14,1.14,0,0,0,.07.73c.08.64.76.62.85,1.25A5.15,5.15,0,0,0,22.37,11l0,.38-.11.34a.31.31,0,0,0-.11.27l0,0a.08.08,0,0,0-.05.1c-.15.22-.29.47-.54.52l-.24-.17,0,0-.06-.27a0,0,0,0,0,0-.07v-.41l.19-.81c-.43,0-.67.22-.55.78a6.47,6.47,0,0,0,0,1.39h0l-.09.14c-.09.48-.27.86-.71.91,0-.06-.05-.11-.08-.16l-.33-.91V12.8a2.32,2.32,0,0,0,.23-1.17.72.72,0,0,0,.48-.57l.14-.17c.42-.18.71-.85,1.28-.53.13.07.34-.17.37-.42s0-.6-.33-.67c-.12-.41-.48-.28-.7-.47a.42.42,0,0,0-.24-.3l-.36-.31c-.33-.28-.36-1-.88-1L19.17,6l-.09-.24V5.22c.12-.58.48-1.14.11-1.77C19.4,3.19,19.21,2.85,19.32,2.57Z"/><path class="cls-4" d="M31.3,7.76V8.82c-.28-.09-.73-.41-.77.16a8.19,8.19,0,0,0-.05,1.22l-.09.12a2,2,0,0,1-.18-1.15c0-.25,0-.6-.2-.63-.5-.08-1.05-.42-1.48.24-.44.16-.43.62-.35,1s.26.88.39,1.31l-.29.15-.57-1.09L27.45,10c-.34-.45-.66-.09-.87.15s-.1.7.12,1c.26-.34.39.36.63.11.27.23.1.74.41.94v.1c-.43.49-.73.33-1-.28a6.47,6.47,0,0,0-.44-.82c-.33-.57-.73-.65-1.21-.29a10,10,0,0,0-1.36,1.26c-.13.15-.25.39-.52.22.33-.6.89-.88,1.07-1.56.09-.28.32-.39.46-.61.11-.61.61-.79.93-1a6.2,6.2,0,0,0,2-1.61h.23a8.24,8.24,0,0,1,1.48-.75h.33c0,.46.23.37.45.26l.42.35A.51.51,0,0,0,31.3,7.76Z"/><path class="cls-6" d="M10,25.59a.09.09,0,0,0,.06,0c.17,0,.26-.09.25-.31l.12-.2c.23,0,.44,0,.51-.36h0l.13-.15a.27.27,0,0,0,.08-.07.22.22,0,0,0,.28-.22h0c.25,0,.53,0,.56-.46a.68.68,0,0,0,.49-.31c.52-.2,1.12-.24,1.49-1-1,0-1-.33-.88-1.28,0-.22.07-.44.1-.66a.56.56,0,0,0,.14-.44l0,0a.43.43,0,0,0,.28-.28.09.09,0,0,0,.06,0l.65-.33,0,0,.09.1c0,.05,0,.11,0,.16l-.27,1,0,.13h0l-.1,0a.21.21,0,0,0-.11.23h.09l.14-.14c.34-.16.61-.63,1.05-.42a2.44,2.44,0,0,1-.48,1.49,5.27,5.27,0,0,1-2.18,2c.39.27.71.36.75.81l-.31.05a2,2,0,0,1-.81-.18.28.28,0,0,0-.37.17.25.25,0,0,0,.12.36c.7.25.17.49,0,.74-.12-.31-.31-.42-.57-.36-.61.2-.57.89-.68,1.45a.3.3,0,0,0,.27.34c.31,0,.65.13.88-.27a2.11,2.11,0,0,0,1.31-.51c0,.14.2.28,0,.43l-1.19.55-.12.14h0a.81.81,0,0,0-.87.44H9.64a1,1,0,0,1-.13-.76c.13-.12.26-.25.1-.46v-.45a.38.38,0,0,0,.16-.31h0a.35.35,0,0,0,.12-.33V25.8Z"/><path class="cls-4" d="M22.59,28.18a5.23,5.23,0,0,1,1.07-4.1c.82-.91,1.67-1.79,2.43-2.79v0l.13-.16h0c.15-.16.19-.32,0-.46a1.66,1.66,0,0,1-1.05.29,2.4,2.4,0,0,1,.27-2.4,1.16,1.16,0,0,0,.13-.41v.05l.51.1a4.43,4.43,0,0,0-.06.51c0,.18-.12.43.07.54s.22-.15.32-.25.36-.42.63-.25a5.46,5.46,0,0,1-.61,2.61l-.3.38a1.88,1.88,0,0,0-.64.67c-.05.1-.14.19-.14.28s.09.11.16,0l.28,0a.09.09,0,0,1,0,.1c-.14,0-.16.18-.25.26h-.26l-.12.21,0,0c-.53.17-.7.82-1,1.28-.13.2-.33.52-.2.75s.43,0,.64-.09l.35-.09-1.05,1a.74.74,0,0,0-.26.78c.13.38.38,0,.57.05l-.14.55h0v.06l-.09.15h0c-.15,0-.22.14-.23.32Zm3.25-8.33a.51.51,0,0,0-.26.47.18.18,0,0,0,.21.21c.13,0,.3-.05.28-.29S26,19.89,25.84,19.85Z"/><path class="cls-3" d="M.49,25.09c.3,0,.47.19.56.55a2.08,2.08,0,0,0,.59,1.06c-.08-.86-.49-1.45-.39-2.16l.27-.18c.17.72.17.72.48.57l.21,0,.4.24a2.52,2.52,0,0,0,.7,2.14c.26.27.55.42.89.22a.82.82,0,0,1-.25.63H2A2,2,0,0,0,1.3,27.1C1,26.77.57,26.51.17,27s0,.81.15,1.19c-.36,0-.87.17-1-.05s0-.87,0-1.33V24.67l.59,0C-.09,25.13.08,25.39.49,25.09Z"/><path class="cls-5" d="M-.77,7.6V5.77l.53-.45c.28-.08.41.32.66.32.22.45.46.6.77.11a2,2,0,0,1,.34-.31A.64.64,0,0,0,2,5.91a.62.62,0,0,0,.32.32c.57.33.74-.37,1.09-.63a.08.08,0,0,0,.08,0l.13.47c0,.38.44.36.52.7a1.67,1.67,0,0,0-.83.67l-.2.07c-.11,0-.18.06-.21.21l-.25.09-.12,0,0,0c-.24-.39-.46,0-.69,0a5.2,5.2,0,0,0-1.62.12c0-.25-.11-.37-.3-.28A.67.67,0,0,1-.77,7.6Z"/><path class="cls-3" d="M3.58,6.09l-.13-.47c.12-.13.09-.23,0-.32L3.34,4.24a.79.79,0,0,0,.1-.57c.66.08.66-.55.75-1.1H5.52c.14.38.38.73.12,1.17,0,.08,0,.26,0,.26.41,0,.48.65.85.7a.67.67,0,0,0,.12.46v.32l-2.44.78Z"/><path class="cls-3" d="M25.13,28.18h-.24l0-.61a2.34,2.34,0,0,0,.57-.76c.35-.62.34-1.65,1.21-1.66l.21.12c-.05.31-.26.57-.22.92h0a.28.28,0,0,0-.12.29h0l-.12.16h0l-.12.16h0a.28.28,0,0,0-.26.28h0c-.18,0-.33.1-.36.36s.17.42.39.18c.28-.08.67.09.72-.5h0c.22-.06.5.07.61-.31h0l.15-.16,0,0a.39.39,0,0,0,.56-.27l0,0,.41.08s0,.07,0,.11l.45.17,0,0,.1.12.15,0,.23.12.26.08.15,0,.09,0,.11,0,.24.06v.51l0,0-.1.1-.25.35H25.5v-.11c.08-.19,0-.2-.13-.23s-.25,0-.24.21Z"/><path class="cls-5" d="M13.25,27c.19-.15,0-.29,0-.43l0-.25a.3.3,0,0,0,.15-.33.08.08,0,0,0,0-.12.31.31,0,0,0,.05-.31l0-.05a.54.54,0,0,0,.2-.44,4.12,4.12,0,0,1,1.1-2.47c.2-.21.54-.15.61-.55l0,0c.21.07.36,0,.44-.28l0,0,.13-.13.73-.28a1.39,1.39,0,0,0,.12.61h0c-.53-.09-.8.23-.88.87-.44.11-.61.61-.86,1-.44.92.31.55.52.76l-.51.58c-.43.24-1,.34-.71,1.23V27a.08.08,0,0,1-.07,0l-.15.17a.16.16,0,0,1,0,.1l-.08.16-.14.75h-.85A2,2,0,0,1,13.25,27Z"/><path class="cls-3" d="M31.3,17.36v4.57c-.34.05-.57-.26-.83-.46V21c-.07-.17.19-.46-.12-.54s-.35.07-.24.39a.24.24,0,0,0,0,.12.34.34,0,0,0-.1.36h-.21c-.39-.19-.38-.72-.58-1.06a2.59,2.59,0,0,1,.17-1l1.06-1.14Z"/><path class="cls-3" d="M23.44,2.57H26l0,.27v0c-.14.11-.14.31-.18.48a5,5,0,0,1-.6,1.72.41.41,0,0,0-.44.15l-.33,0a.1.1,0,0,0,0-.09,1,1,0,0,0-1-.39l-.15-.07a.27.27,0,0,0-.36-.18h0c-.14-.29-.3-.57.13-.73.19-.07.24-.32.26-.56h0l0,0a.28.28,0,0,0,0-.09l0-.34Z"/><path class="cls-7" d="M28.24,26.31l0,0c-.2,0-.43,0-.56.27l0,0-.15.16h0c-.22.06-.51-.11-.61.31h0c-.23.19-.59.08-.72.5-.22.24-.3,0-.39-.18a.44.44,0,0,0,.36-.36h0c.16,0,.24-.09.26-.28h0l.12-.16h0l.12-.16h0a.3.3,0,0,0,.12-.29h0l.48-.15.28-.1.24-.16.23-.18c.28-.2.28-.82.72-.79h0c.24.56.4.25.55-.09a.1.1,0,0,1,0-.09l.15-.12h0c.28-.21.83-.42.52-.89-.4-.62-.08-.6.22-.73,0,.17.06.37.25.32s.24-.27.19-.51.45.22.49-.25a.2.2,0,0,1,.27-.07v.92c-.23.34-.64.5-.71,1l-.51.78c-.42.25-.69.82-1.18.93C28.67,26.11,28.39,26,28.24,26.31Z"/><path class="cls-3" d="M2.43,13.74c.44.1.33.41.14.68a2.7,2.7,0,0,1-.9.85c-.35.19-.55.62-.85.91-.17-.59-.49-.87-1-.82a1.82,1.82,0,0,1-.58-.14V13.39A1.81,1.81,0,0,0,.67,13l.21.74a.91.91,0,0,0,1,.81C2.29,14.49,2.39,14.15,2.43,13.74Z"/><path class="cls-6" d="M29.39,6.86a8.24,8.24,0,0,0-1.48.75c-.09-.57.2-1.11.1-1.68a.21.21,0,0,0,0-.12.49.49,0,0,0,.31-.33,15.75,15.75,0,0,1,1.25-2.91h.48c0,.09-.07.18-.11.27s-.25.5-.09.68.26-.18.39-.28a.43.43,0,0,1,.52,0l-.58.88c-.34-.08-.57.09-.75.44s0,.36.14.47A2.33,2.33,0,0,0,29.39,6.86Z"/><path class="cls-3" d="M30.39,10.32l.09-.12a2,2,0,0,0,.82.15v3.5c-.34-.12-.6-.07-.61.48-.44-.17-.78.21-1.17.34l-.41-.07,0-.28a3.34,3.34,0,0,0,.27-1.22c.74-.23.87-.46.75-1.38l.39-.19a.16.16,0,0,1,.11.07l0,0h.05a.43.43,0,0,0,.16-.38l-.05-.12A2.79,2.79,0,0,1,30.39,10.32Z"/><path class="cls-3" d="M29.39,6.86A2.33,2.33,0,0,1,29.61,5h0c.21.12.44.27.64,0a.46.46,0,0,0,0-.64V4.09h0l.58-.88a.43.43,0,0,0-.52,0c-.13.1-.19.5-.39.28s0-.46.09-.68.08-.18.11-.27c.4,0,1-.19,1.15.05s.06,1,.06,1.5c0,.35,0,.7,0,1a13.47,13.47,0,0,1-1.58,1.7Z"/><path class="cls-5" d="M13.63,2.57H15L15,3l-.44.37-.58.2,0,0c0-.21-.07-.29-.22-.32-.46,0-.56.16-.27.65s.95,1,1,1.92l-.1.29c-.78.42-1.13-.32-1.53-.91-.28-1.57-.28-1.57.77-2.46C13.6,2.67,13.61,2.61,13.63,2.57Z"/><path class="cls-4" d="M4,28.18a.82.82,0,0,0,.25-.63c.33-.5.87-.44,1.27-.76a3.16,3.16,0,0,1,2,.78.85.85,0,0,0,.64.06c.36,0,.48.13.47.55Z"/><path class="cls-3" d="M.67,13a1.81,1.81,0,0,1-1.44.44v-3c.69,0,1.27-.62,2-.53v0l0,.32c-.55-.07-.93.39-.85,1.11A4.69,4.69,0,0,0,.67,13Z"/><path class="cls-3" d="M17.63,2.57h1c0,.29.18.45.26.69,0,.61-.39.51-.7.54s-.59-.15-.59.27c0,.6-.27.33-.47.35-.27-.4-.57-.35-.89-.1A.54.54,0,0,0,15.86,4l-.2-.9a3.36,3.36,0,0,0,.84,0C16.88,2.91,17.34,3.09,17.63,2.57Z"/><path class="cls-3" d="M-.77,15.22a1.82,1.82,0,0,0,.58.14c.52,0,.84.23,1,.82a10.88,10.88,0,0,1-.94,1.48c-.21.21-.22.75-.31,1.15a1.08,1.08,0,0,1-.34.68Z"/><path class="cls-8" d="M29.52,14.67c.39-.13.73-.51,1.17-.34,0,.86.29.6.61.28v.46L30,16.43l-.47.29c-.38.23-.32-.22-.42-.43l.06-.15c.49-.13.73-.65,1-1.06a2.35,2.35,0,0,0-1,1.06l-.18.14c-.28.23-.52.65-.94.37l.16-.61,1.22-1.16Z"/><path class="cls-9" d="M28.9,26c.49-.11.76-.68,1.18-.93.29.54.58.76.92.07.06-.11.2-.14.3-.2v2l-.37.16-.48.07-.24-.06a.14.14,0,0,0-.11,0l-.09,0-.15,0L29.6,27c0-.25-.1-.24-.23-.12l-.15,0-.1-.12,0,0c0-.2,0-.41-.19-.49Z"/><path class="cls-3" d="M26.34,2.57h.49c0,.34.07.59.38.57a.46.46,0,0,1,.46.23c-.33.46-.2,1.07-.32,1.59-.07.33-.2.57-.44.34-.42-.38-.62-.1-.81.32L26,5h0c.39-.42,0-.93.12-1.38h0A4.17,4.17,0,0,0,26.34,2.57Z"/><path class="cls-3" d="M-.77,2.73c.27-.36.61-.1.91-.14a7.34,7.34,0,0,1,1.15,0,11.2,11.2,0,0,1,0,1.64c-.12.21-.33.15-.49.25C.67,4.38.51,4.3.5,4.2c0-.62-.36-.48-.66-.43C-.4,3.46-.11,2.66-.77,2.73Z"/><path class="cls-3" d="M23.3,3.17c0,.24-.07.49-.26.56-.43.16-.27.44-.13.73l-1.28-.37h0a.4.4,0,0,0-.36-.15h0l-.13-.11A.16.16,0,0,0,21,3.78l-.15-.12a2,2,0,0,1-.24-1.09h.85C21.89,3.51,22.32,3.66,23.3,3.17Z"/><path class="cls-8" d="M7.1,2.57h3c0,.21.12.42,0,.65-.21,0-.23-.52-.52-.34C9,2.6,8.55,3,8.2,3.61a.51.51,0,0,1-.35.23c-.3-.43-.59-.81-.8.09,0,.07-.12.1-.19.16V3.36C7.06,3.16,6.93,2.79,7.1,2.57Z"/><path class="cls-4" d="M.32,28.18C.18,27.8-.2,27.45.17,27s.8-.22,1.13.11A2,2,0,0,1,2,28.18Z"/><path class="cls-3" d="M7.1,2.57c-.17.22,0,.59-.25.79a.51.51,0,0,0-.12.73V4.4a.34.34,0,0,0-.22.3c-.37,0-.44-.69-.85-.7-.06,0-.06-.18,0-.26.26-.44,0-.79-.12-1.17Z"/><path class="cls-3" d="M10.37,2.57h.72c-.1.32-.18.57.12.85s.59.1.86-.13l.35,0v0l0,.62a2.35,2.35,0,0,1-1.73.29A8.57,8.57,0,0,1,10.37,2.57Z"/><path class="cls-3" d="M29.61,2.57a15.75,15.75,0,0,0-1.25,2.91.49.49,0,0,1-.31.33,4.76,4.76,0,0,0,.11-2.54l1-.7Z"/><path class="cls-3" d="M14.22,27.27a.16.16,0,0,0,0-.1l.15-.17a.08.08,0,0,0,.07,0A8.4,8.4,0,0,1,16,26.28c-.32.67-1,1-1.07,1.9H14c0-.25.09-.5.14-.75Z"/><path class="cls-8" d="M19.81,28.18H18.23A7.41,7.41,0,0,1,18.52,27h0l.13-.21c.15-.15.3-.09.45,0C19.52,27.09,19.35,27.89,19.81,28.18Z"/><path class="cls-4" d="M4.19,2.57c-.09.55-.09,1.18-.75,1.1H3.22l-.46-.39-.16-.4-.1-.3Z"/><path class="cls-10" d="M10.37,2.57a8.57,8.57,0,0,0,.3,1.68l.18,1.26a.55.55,0,0,1-.41-.23.21.21,0,0,0,0-.11L10.05,4c0-.48-.34-.71-.44-1.11.29-.18.31.31.52.34.11-.23,0-.44,0-.65Zm-.08,1.09,0,.06.06,0V3.69Z"/><path class="cls-11" d="M23.3,3.17c-1,.49-1.41.34-1.8-.6h1.82a.14.14,0,0,0,0,.14l0,.34a.14.14,0,0,0,0,.11Z"/><path class="cls-9" d="M29.13,2.57l-1,.71c-.18-.1-.33.06-.49.09a.46.46,0,0,0-.46-.23c-.31,0-.39-.23-.38-.57Z"/><path class="cls-3" d="M12.42,3.32l-.35,0c0-.24,0-.48,0-.72h1.57s0,.1-.06.12c-1.05.89-1.05.89-.77,2.46l-.06.06A2.78,2.78,0,0,1,12.39,4c0-.2,0-.41,0-.62l0,0Z"/><path class="cls-10" d="M19.81,28.18c-.46-.29-.29-1.09-.72-1.39.11-.08.33.12.34-.11,0-.62.34-.57.67-.46-.18.44-.72.86-.46,1.33s.69-.12,1.05-.22a.85.85,0,0,1,.23,0c.07.54-.59.37-.51.89Z"/><path class="cls-10" d="M-.77,7.6a.67.67,0,0,0,.63,0c.19-.09.29,0,.3.28-.17.16,0,.63-.4.6-.09,0-.17.12-.16.27S-.28,9-.19,9a.57.57,0,0,0,.46,0l.06.09c-.45.37-.76-.06-1.1-.32Z"/><path class="cls-3" d="M17.63,2.57c-.29.52-.75.34-1.13.44a3.36,3.36,0,0,1-.84,0A.7.7,0,0,0,15,3l0-.41Z"/><path class="cls-3" d="M13.25,27a2,2,0,0,0-.1,1.14H11.82l.14-.44h0l.12-.14Z"/><path class="cls-7" d="M-.77,8.82c.34.26.65.69,1.1.32.22,0,.46-.13.66.15l-.43.3h0a.28.28,0,0,0-.29.13l0,0A.29.29,0,0,0,0,9.9H-.77Z"/><path class="cls-3" d="M2.5,2.57c0,.1.07.2.1.3-.43,0-.37.51-.45.84s0,.56-.37.53a.31.31,0,0,1,0-.08L1.65,2.57Z"/><path class="cls-3" d="M30,16.43l1.34-1.36V16l-.34.45a1.24,1.24,0,0,0-.72.17Z"/><path class="cls-5" d="M24.93,27.57l0,.61h-1v-.32h0a.12.12,0,0,0,.09-.15v-.06l0,0h0l.14-.55h0l.14-.06A.78.78,0,0,1,24.93,27.57Z"/><path class="cls-6" d="M31.3,5.62a6.86,6.86,0,0,0-1.13,1.5c-.22.11-.43.2-.45-.26a13.47,13.47,0,0,0,1.58-1.7Z"/><path class="cls-4" d="M15.81,28.18a3.49,3.49,0,0,1,.84-1.25c.07-.08.19-.14.25,0a.42.42,0,0,1,0,.27,1.89,1.89,0,0,0-.34,1Z"/><path class="cls-10" d="M12.06,2.57c0,.24,0,.48,0,.72-.27.23-.5.47-.86.13s-.22-.53-.12-.85h.24c0,.34.19.53.43.5s.13-.32.18-.5Z"/><path class="cls-12" d="M1.65,2.57l.11,1.59a.72.72,0,0,1-.5,0,11.2,11.2,0,0,0,0-1.64Z"/><path class="cls-3" d="M18.52,27a7.41,7.41,0,0,0-.29,1.17h-.72a1.73,1.73,0,0,0,.24-.61h0l.12-.14h0l.12-.14h0l.11-.14v0l.11-.14h0Z"/><path class="cls-9" d="M18.86,3.26c-.08-.24-.27-.4-.26-.69h.72c-.11.28.08.62-.12.88h-.1Z"/><path class="cls-3" d="M.25,9.74l0,0a.29.29,0,0,0,.29-.13h0c.22.07.48-.07.65.23-.71-.09-1.29.55-2,.53V10c.25,0,.52.14.73-.14H0A.3.3,0,0,0,.25,9.74Z"/><path class="cls-8" d="M11.94,2.57c0,.18.05.48-.18.5s-.41-.16-.43-.5Z"/><path class="cls-9" d="M12,27.74l-.14.44h-.73A.81.81,0,0,1,12,27.74Z"/><path class="cls-10" d="M26.34,2.57a4.17,4.17,0,0,1-.24,1.07c0-.27,0-.57-.14-.8l0-.27Z"/><path class="cls-3" d="M17.75,27.57a1.73,1.73,0,0,1-.24.61h-.37C17.29,27.89,17.45,27.62,17.75,27.57Z"/><path class="cls-3" d="M23.91,27.86v.32h-.24C23.69,28,23.76,27.88,23.91,27.86Z"/><path class="cls-3" d="M25.5,28.07v.11h-.37v-.13Z"/><path class="cls-3" d="M23.31,2.71a.14.14,0,0,1,0-.14h.12Z"/><path class="cls-5" d="M29.38,14.88,28.16,16c-.25.23-.63,0-.83.41l-.15,0c-.14-.07-.24,0-.31.14l0,0-.11.1c-.18,0-.36,0-.51.14l0,0v.05a.08.08,0,0,0-.07,0l-.16,0c-.28-.06-.6,0-.81-.34L25,16.43c.18-.65-.18-1.19-.24-1.8,0-.27-.14-.47-.39-.42a.51.51,0,0,0-.36.44c0,.2-.06.39-.1.59v0l-.07.13a1,1,0,0,0-.22.6,1.3,1.3,0,0,0-.67.4,4.84,4.84,0,0,1-1.47.54L21,16.5v-.05l0,0a1.22,1.22,0,0,1,.52-.89c.21.14.4,0,.6-.08.29.21.63.11.94.19s.46-.16.49-.43-.27-.24-.39-.25c-.54,0-.73-.31-.51-1h0l.15-.13.05,0a.46.46,0,0,0,.41-.13,7.47,7.47,0,0,1,1.94.14h0l.11.17.06.25c-.16.55.26.56.45.8.63.79,1,.82,1.66,0l.53,0a.67.67,0,0,0,.55-.16l.14-.13v0a.28.28,0,0,0,.12-.28h0l.31-.14,0,.28C29.07,14.9,29.25,14.86,29.38,14.88Z"/><path class="cls-3" d="M21.45,15.52a1.22,1.22,0,0,0-.52.89c-.19,0-.43-.19-.54.13-.25.75-.66.67-1.13.42a.76.76,0,0,0-.3-.05l0-.35.25-.29c.33,0,.29-.35.37-.58A13.46,13.46,0,0,0,20,14.15c.44-.05.62-.43.71-.91l.09-.14h0c.16-.2.11-.64.46-.61l0,0c0,.19.08.29.24.17s.39-.3.54-.52c0,0,.05-.05.05-.1l0,0h.13c.32.66.74,1,1.39.82.24-.06.4.18.42.51l-.35.11-.51,0c-.12-.11-.2,0-.25.1l-.15.08a.3.3,0,0,0-.33.24c-.09.18-.17.37-.26.55s-.3,0-.44,0a1.36,1.36,0,0,0,0-.29c-.1-.22-.11-.64-.38-.54s-.08.43-.05.67C21.35,14.71,21.57,15.08,21.45,15.52Z"/><path class="cls-8" d="M21.5,16.89A4.84,4.84,0,0,0,23,16.35c0,.51.12.77.56.58a.41.41,0,0,1,.4,0,2.69,2.69,0,0,1-.16.29c-.11.16-.35.27-.24.53s.33.22.53.13a3.11,3.11,0,0,0,1.68-.33c.84,0,1.24.45,1.27,1.36-.27-.17-.45.06-.63.25s-.16.35-.32.25S26,19,26,18.84a4.43,4.43,0,0,1,.06-.51v0a.09.09,0,0,0,0,0,.61.61,0,0,0,0-.11c-.13-.15-.27-.08-.41,0s-.08,0-.1,0v0l-.52.23a.54.54,0,0,0-.5.17l0,0h0a1,1,0,0,0-.78.25,6.16,6.16,0,0,1-1,.21c-.38,0-.67-.16-.66-.72s-.33-.75-.62-1C21.42,17.18,21.46,17,21.5,16.89Z"/><path class="cls-5" d="M18.94,20.22c-.17.06.1.31-.1.36l-.23-.18c-.09-.19-.2-.31-.39-.28-.6.14-.68-.37-.72-.93v-.28a1.39,1.39,0,0,0,.22-.81.15.15,0,0,0,0-.11.31.31,0,0,0,.1-.32h0l.11-.13.13-.15c.27-.06.5-.53.83-.17h0l0,.45v.15c-.11.53-.55.86-.52,1.51.36-.48.65-1.1,1.24-1.13a1.21,1.21,0,0,1-.06,1A1.88,1.88,0,0,0,18.94,20.22Z"/><path class="cls-9" d="M18.61,20.4l.23.18c0,.27-.19.35-.27.53s-.14.25,0,.34l.55.17c0,.13,0,.25-.08.38a2.83,2.83,0,0,1-.28.2c-.4-.56-.36.06-.47.28s-.21.5-.45.61c-.47-.06-.6-.68-1-.9l0-.26h0c.17-.08.38-.07.51-.43a.42.42,0,0,1-.63-.18l-.73.28-.11,0a1.44,1.44,0,0,0-.2-1.49c0-.2-.06-.43.11-.51s.26.27.4.41l.14.14h0c.16.93.75.69,1.24.73C18.08,21.15,18.31,20.65,18.61,20.4Z"/><path class="cls-7" d="M23,22.82a.24.24,0,0,1-.1.05c-.33-.2-.63-.69-1-.17h-.2a2,2,0,0,0-.39-1l0-.48a.2.2,0,0,1,0-.08l.11-.16h0a.37.37,0,0,0,.12-.31h0a.32.32,0,0,0,.13-.29h0l.12-.15h0c.18,0,.3-.1.36-.32h0c.46,0,.25.45.26.73h0l-.17.25-.08.4c-.19.15-.46.3-.3.63s.39,0,.58-.09.05-.13.08-.2c0-.25.22-.44.18-.72.2-.16.41-.45.65-.27s.1.65.13,1Z"/><path class="cls-9" d="M21.23,21.24l0,.48-.05.06a9,9,0,0,1-2.07,1.1,1,1,0,0,0,.07-.52c.31-.19.17-.61.28-.9l.18-.3c.15-.5.35-.82.85-.62.18.07.41-.08.62-.14h0l0,.15c0,.34-.49.25-.45.68A.56.56,0,0,0,21.23,21.24Z"/><path class="cls-8" d="M21.85,22.7c.41-.52.71,0,1,.17,0,.15-.09.3-.14.45a3.43,3.43,0,0,1-.9.92c-.36.09-.54.41-.64.83l-.83.4h0a.9.9,0,0,1,.05-.7.12.12,0,0,1,.06-.06.35.35,0,0,0,.29-.3l.22-.19.25-.16.2-.08v0l.13-.2a.79.79,0,0,0,.83-.76C22.45,22.59,22,23,21.85,22.7Z"/><path class="cls-10" d="M20.38,25.47l.83-.4c.28,0,.54-.42.85-.09,0,.32-.23.37-.42.43a.73.73,0,0,0-.46.53c-.21.61-.51.67-.89.23-.12-.26-.33-.25-.52-.29l-.05-.14.1-.11.21.07C20.19,25.73,20.28,25.59,20.38,25.47Z"/><path class="cls-4" d="M20.38,25.47c-.1.12-.19.26-.35.23l-.21-.07-.1.11c0,.05,0,.1.05.14.19,0,.4,0,.52.29l-.19,0c-.33-.11-.63-.16-.67.46,0,.23-.23,0-.34.11-.15-.09-.3-.15-.45,0l-.17,0,0-.16a3.15,3.15,0,0,1,1.27-1.24c.22,0,.45-.08.67.06Z"/><path class="cls-9" d="M21.85,24.24a3.43,3.43,0,0,0,.9-.92c.45.34.48.78.05,1.11a.68.68,0,0,1-.69.14Z"/><path class="cls-3" d="M19.69,18.19c-.59,0-.88.65-1.24,1.13,0-.65.41-1,.52-1.51C19,18.45,19.55,17.78,19.69,18.19Z"/><path class="cls-10" d="M25.13,21a1.66,1.66,0,0,0,1.05-.29l0,.46h0c-.09,0-.13.06-.13.16v0C25.74,21.35,25.28,22,25.13,21Z"/><path class="cls-3" d="M21.85,24.24l.26.33c0,.14,0,.27-.05.41-.31-.33-.57.05-.85.09C21.31,24.65,21.49,24.33,21.85,24.24Z"/><path class="cls-9" d="M18.94,20.22a1.88,1.88,0,0,1,.69-1c.06,0,.16,0,.16.07C19.83,19.59,19.24,20.25,18.94,20.22Z"/><path class="cls-6" d="M22.1,21.29c0-.13,0-.27.08-.4s.21-.06.17-.25h0l.12.05.17.21c0,.28-.14.47-.18.72l-.26.07-.05,0Z"/><path class="cls-3" d="M19,17.21c-.33-.36-.56.11-.83.17,0-.16-.07-.31-.11-.47l.22-.18.71-.17,0,.35Z"/><path class="cls-9" d="M23,22.82l.43-1.19C23.74,22.3,23.49,22.63,23,22.82Z"/><path class="cls-10" d="M21.27,27.06l1-.66A1,1,0,0,1,21.27,27.06Z"/><path class="cls-3" d="M21.23,21.24a.56.56,0,0,1-.52,0c0-.43.41-.34.45-.68l.21.15V21h0c-.08,0-.11.06-.11.16A.2.2,0,0,0,21.23,21.24Z"/><path class="cls-8" d="M22.47,20.7l-.12-.05c0-.28.2-.69-.26-.73.09-.23.24-.36.43-.24s.13.39.08.6A2.92,2.92,0,0,1,22.47,20.7Z"/><path class="cls-11" d="M19.49,21.46c-.11.29,0,.71-.28.9,0-.12-.09-.24-.14-.36s.05-.25.08-.38a.35.35,0,0,0,.06-.09h.05v-.05a.06.06,0,0,0,.06-.05Z"/><path class="cls-3" d="M21.5,16.89c0,.14-.08.29-.13.43-.32-.12-.45-.4-.42-.82Z"/><path class="cls-10" d="M23.67,18.84a1,1,0,0,1,.78-.25C24.26,19,23.94,18.79,23.67,18.84Z"/><path class="cls-3" d="M19,17.66l0-.45C19.25,17.35,19.23,17.5,19,17.66Z"/><path class="cls-3" d="M19.49,21.46l-.16,0c0-.23.19-.26.34-.27Z"/><path class="cls-8" d="M22.1,19.92c-.06.22-.18.32-.36.32A.36.36,0,0,1,22.1,19.92Z"/><path class="cls-10" d="M24.51,18.58a.54.54,0,0,1,.5-.17A.46.46,0,0,1,24.51,18.58Z"/><path class="cls-3" d="M18.6,21.45c-.17-.09-.13-.21,0-.34Z"/><path class="cls-8" d="M21.62,20.41a.32.32,0,0,1-.13.29A.28.28,0,0,1,21.62,20.41Z"/><path class="cls-8" d="M21.37,21V20.7a.13.13,0,0,1,.12,0A.37.37,0,0,1,21.37,21Z"/><path class="cls-3" d="M19.27,21.48v.05h-.05Z"/><path class="cls-9" d="M21.14,20.4l0-.08a.43.43,0,0,0,0,.05l-.05,0Z"/><path class="cls-8" d="M21.74,20.25l-.12.15Z"/><path class="cls-3" d="M10.05,4c.12.39.24.79.35,1.18h-.28c-.2-.18-.4-.54-.59,0h0c-.32.09-.24.41-.24.68v.06L9.17,6l.1.06c.15.24.69.06.56.46-.23.72.19.49.41.59.15.39-.17.69-.17,1,.17.19.34-.1.47,0,.43.44.53,0,.68-.37.06-.16.14-.3.21-.45L12,8.61l.11.21h0l.12.31v.22l.13.25v.06c0,.19,0,.39,0,.59,0,.57-.31.95-.74.84-.23-.06-.27-.36-.45-.46-.1-.32.47-.5.14-.83S10.19,9.37,9.72,9c-.19.1-.2.29-.19.5a.11.11,0,0,1,0,.08c.19.79-.19.43-.44.34L9,9.74l-.12-.15-.12-.14a.91.91,0,0,0-1.32-.21l-.35,0c-.43,0-.87,0-1.12.53a.23.23,0,0,1-.1.07L5.77,10h0l-.11.16h0l-.24.15c0,.25,0,.52.23.6h0l.11.15h0c0,.55-.38.59-.66.75a.84.84,0,0,0-.34,1.2l.19.26c-.33.18-.26.85-.7.89-.37-.36-.77,0-1.15-.06a4.25,4.25,0,0,0-.49-3.08,1,1,0,0,0-.14-.69l-.11-.19h0c0-.48.07-1-.58-1.23.54-.17.64-1,1.18-.6l.1.14,0,.06c0,.1,0,.17.13.13l.25,0s0,.05,0,.07a.19.19,0,0,0,.08.11c.06.15.12.13.18,0s.26,0,.34-.09c.41-.42.61-.2.72.35s.56.18.85.17c.26.22.38.06.46-.26l.25-.37h0l.13-.15h0l.13-.14h0l.27-.16a.9.9,0,0,0,.58-.91,2.72,2.72,0,0,0,.1-1.14l-.08-.23V5.61c.24-.36.32,0,.45.15A3.94,3.94,0,0,0,8.48,6c.27.09.36-.12.23-.36-.36-.64-.06-.89.36-1.09S10,4.82,10.05,4Z"/><path class="cls-3" d="M2.79,19.53c-.43-.14-.77.23-1.15.34-.61.18-.79,0-.69-.8.13-1,.19-1.05,1-.93A1.82,1.82,0,0,0,2.53,18a.06.06,0,0,1,0,.07v.58c.06.25.14.46.38.48l0,.23-.13.17Z"/><path class="cls-11" d="M2.74,19.72c0-.07,0-.13,0-.19l0,0,.17,0c.3-.13.51-.53.88-.44.18.58.48.57.85.3l0,.3s0,0,0,.05a.35.35,0,0,0,0,.08h0l.15.15.15.33c-.32.19-.63.26-.91-.09s-.31-.05-.33.18a3.05,3.05,0,0,0,.08.66l-.46.16-.11,0c.28-.61-.11-.64-.41-.75Z"/><path class="cls-3" d="M2.74,19.72l.11.74A3.34,3.34,0,0,0,2,21.59a.71.71,0,0,1-.63.48c-.18,0-.3-.08-.37-.3a1,1,0,0,1,.18-1A4,4,0,0,1,2.74,19.72Z"/><path class="cls-12" d="M2.52,18.05a.06.06,0,0,0,0-.07c0-.09,0-.18,0-.27a.42.42,0,0,0,0-.54.57.57,0,0,1,.29-.5c.22-.15.16-.34,0-.53a.81.81,0,0,1,.49-.67c.16-.59.8-.61.92-1.25.44,0,.37-.71.7-.89l.52.1c-.32.34-.62.72-1,1a4.79,4.79,0,0,0-1.65,3.23,8.68,8.68,0,0,1,0,1.25l0,.17c-.24,0-.32-.23-.38-.48A.41.41,0,0,0,2.52,18.05Z"/><path class="cls-10" d="M2.48,10.39a1,1,0,0,1,.14.69,5.84,5.84,0,0,0-.56.42c-.11.11-.08.44-.32.32s-.21-.27-.23-.49a6.41,6.41,0,0,0-.17-.73c.06-.27.11-.55-.12-.75v0C1,9.52.78,9.66.56,9.59L1,9.29C.79,9,.55,9.15.33,9.14L.27,9.05c.63-.3,1.06-.12,1.63.68-.13.08-.38-.34-.4.13a4,4,0,0,0,.1,1c0,.21.15.47.38.35a.52.52,0,0,0,.3-.64c0-.17-.1-.34-.14-.5l.23.16h0Z"/><path class="cls-3" d="M3.34,15.47a.81.81,0,0,0-.49.67,1.33,1.33,0,0,0-.34.1c-.18.12-.41.34-.53.06a.7.7,0,0,1,.24-.84c.41-.21.59-.67.86-1A1.37,1.37,0,0,1,3.34,15.47Z"/><path class="cls-11" d="M1.07,24.24C1,22.82,1.18,22.49,2.29,22l.31.26c-.29,0-.59,0-.71.43C1.59,23.17,1.59,23.92,1.07,24.24Z"/><path class="cls-10" d="M2.43,13.74c0,.41-.14.75-.53.76a.91.91,0,0,1-1-.81A3.25,3.25,0,0,0,2.43,13.74Z"/><path class="cls-3" d="M3.34,15.47a1.37,1.37,0,0,0-.26-1l0-.27c.38.08.78-.3,1.15.06C4.14,14.86,3.5,14.88,3.34,15.47Z"/><path class="cls-3" d="M2.53,17.17a.42.42,0,0,1,0,.54.68.68,0,0,0-.62-.15c-.15.06-.32.13-.42-.11a.36.36,0,0,1,.07-.4c.15-.18.32-.31.53-.21S2.33,17.16,2.53,17.17Z"/><path class="cls-3" d="M2.6,22.24,2.29,22a4.16,4.16,0,0,0,1-.77l.11,0,0,.3,0,.91,0,0-.11.13H2.86Z"/><path class="cls-12" d="M-.18,24.65c0-.13,0-.27,0-.4l.19,0a1.06,1.06,0,0,1,.49.86C.08,25.39-.09,25.13-.18,24.65Z"/><path class="cls-3" d="M1.07,24.24c.52-.32.52-1.07.82-1.57l.24,0v.45h0a3.59,3.59,0,0,0-.62,1.2l-.27.18A.31.31,0,0,1,1.07,24.24Z"/><path class="cls-10" d="M1.62,12.19c.11.5.51.6.39,1-.06.2-.3.16-.43,0C1.29,13,1.47,12.7,1.62,12.19Z"/><path class="cls-3" d="M1.22,9.85c.23.2.18.48.12.75l-.15-.43Z"/><path class="cls-3" d="M0,24.23l-.19,0L0,24Z"/><path class="cls-7" d="M8.05,23.1l-.13.17c-.22-.08-.46-.27-.58.18h0A1.81,1.81,0,0,0,5.88,24.5H5.52c-.28-.06-.54.24-.82.09,0,0,0-.06,0-.09.12-.21.4-.19.45-.5h0a.21.21,0,0,0,.25-.16h0l.13,0,.15-.12A.53.53,0,0,0,6,23.21l0,0c.25-.44.72-.21,1-.51h.07l.15-.13h0l.13-.15h0l.11-.14h0l.11-.16h0A1,1,0,0,0,7.67,21v-.17l0-.26c.14.29.27.6.43.88s.41.48.66.07l.1-.15c.36-.41.85-.74.61-1.53.45,0,.73-.12.54-.78a.47.47,0,0,0,.58-.41l.1-.17c.3-.28.19-.71.24-1.08.14-.15.25-.24.22.12s-.06,1-.09,1.43l0,.3a2.34,2.34,0,0,0-.34,1.44.38.38,0,0,0-.1.6c-.09.25-.42.27-.39.63-.47.36-.86.87-1.44,1C8.55,22.9,8.23,22.68,8.05,23.1Z"/><path class="cls-9" d="M5.47,26.79c-.4.32-.94.26-1.27.76-.34.2-.63.05-.89-.22a2.52,2.52,0,0,1-.7-2.14c.17-.13.17-.45.39-.53l.53.12c-.18.22-.24.41.1.44.07.44.14.87.2,1.31,0,.25.06.46.32.38s.23-.25.17-.52a1.75,1.75,0,0,1,.13-1.48c.2-.11.38,0,.57.07A4.11,4.11,0,0,1,5.47,26.79Z"/><path class="cls-9" d="M8.8,22.84c.58-.1,1-.61,1.44-1,.19.34.25.95.78.59a4.15,4.15,0,0,1,1.05-.09c.09,0,.26-.07.25.18a.26.26,0,0,1-.22.29c-.16,0-.38,0-.37.29s.26.27.43.3a2.11,2.11,0,0,0,.36,0,.68.68,0,0,1-.49.31,1.08,1.08,0,0,0-.59.26A11.35,11.35,0,0,1,10,23.89,1.79,1.79,0,0,1,8.8,23,.56.56,0,0,0,8.8,22.84Z"/><path class="cls-10" d="M3.63,25.22c-.34,0-.28-.22-.1-.44A.62.62,0,0,0,4,24.55H4a.9.9,0,0,0,.59-.32h0l.17-.11.4-.09c0,.31-.33.29-.45.5l-.09,0,.11.05c.28.15.54-.15.82-.09l.05.23A.69.69,0,0,0,5,25c-.19-.05-.37-.18-.57-.07Z"/><path class="cls-8" d="M5.88,24.5a1.81,1.81,0,0,1,1.46-1.05A2.63,2.63,0,0,1,5.88,24.5Z"/><path class="cls-3" d="M11.44,24a1.08,1.08,0,0,1,.59-.26c0,.45-.31.42-.56.46Z"/><path class="cls-8" d="M8.8,22.84a.56.56,0,0,1,0,.13c-.23.21-.49.13-.75.13C8.23,22.68,8.55,22.9,8.8,22.84Z"/><path class="cls-8" d="M7.34,23.45c.12-.45.36-.26.58-.18C7.78,23.58,7.54,23.41,7.34,23.45Z"/><path class="cls-3" d="M11,24.68c-.07.34-.28.37-.51.36C10.57,24.79,10.79,24.78,11,24.68Z"/><path class="cls-8" d="M5.57,24.75l-.05-.23h.35C5.82,24.69,5.72,24.78,5.57,24.75Z"/><path class="cls-3" d="M9.61,27c.16.21,0,.34-.1.46Z"/><path class="cls-3" d="M11.46,24.23a.22.22,0,0,1-.28.22A.3.3,0,0,1,11.46,24.23Z"/><path class="cls-3" d="M10.34,25.24c0,.22-.08.31-.25.31A.5.5,0,0,1,10.34,25.24Z"/><path class="cls-3" d="M9.77,26.2a.38.38,0,0,1-.16.31C9.56,26.32,9.66,26.26,9.77,26.2Z"/><path class="cls-3" d="M9.89,25.87a.35.35,0,0,1-.12.33Z"/><path class="cls-3" d="M11.1,24.52l-.13.15Z"/><path class="cls-3" d="M10,25.59l-.14.21Z"/><path class="cls-3" d="M16.9,22.19c.37.22.5.84,1,.9,0,.18-.21.37,0,.55a1.24,1.24,0,0,1-1.09.58c0-.15.24-.13.14-.36l-1.32.35c-.26.06-.5.06-.42-.43.25-.37.42-.87.86-1,.28.31.64.22.68-.22C16.74,22.38,16.75,22.26,16.9,22.19Z"/><path class="cls-11" d="M16,26.28a8.4,8.4,0,0,0-1.54.68c0-.21,0-.41,0-.61.34-.12.48-.54.71-.81.19,0,.35,0,.39-.27.36,0,.87-.46,1,.46Z"/><path class="cls-5" d="M17.87,23.64c-.21-.18,0-.37,0-.55.24-.11.29-.42.45-.61.22.07.37,0,.47-.28a2.83,2.83,0,0,0,.28-.2c.05.12.1.24.14.36a1,1,0,0,1-.07.52C18.83,23.42,18.33,23.48,17.87,23.64Z"/><path class="cls-9" d="M21.85,22.7c.13.27.6-.11.56.34a.79.79,0,0,1-.83.76,1.93,1.93,0,0,1,0-1l.06-.07Z"/><path class="cls-12" d="M15.18,23.78c-.08.49.16.49.42.43l1.32-.35c.1.23-.14.21-.14.36a1.64,1.64,0,0,1-1.08.32C15.49,24.33,14.74,24.7,15.18,23.78Z"/><path class="cls-6" d="M15.19,25.54c-.23.27-.37.69-.71.81-.29-.89.28-1,.71-1.23Z"/><path class="cls-3" d="M16.53,25.73c-.08-.92-.59-.47-1-.46.24-.43.57-.59.93-.32A.54.54,0,0,1,16.53,25.73Z"/><path class="cls-10" d="M20.39,25.47c-.22-.14-.45,0-.67-.06a.93.93,0,0,1,.72-.64A.9.9,0,0,0,20.39,25.47Z"/><path class="cls-8" d="M21.65,22.69l-.06.07a1.53,1.53,0,0,1-.38-1l.05-.07A2,2,0,0,1,21.65,22.69Z"/><path class="cls-10" d="M20.79,24.41a.35.35,0,0,1-.29.3C20.54,24.52,20.63,24.4,20.79,24.41Z"/><path class="cls-10" d="M21.26,24.06l-.25.16C21.05,24.05,21.12,24,21.26,24.06Z"/><path class="cls-3" d="M18.45,26.65l0,.16,0,.19h0L18.24,27A.3.3,0,0,1,18.45,26.65Z"/><path class="cls-9" d="M21.45,24v0Z"/><path class="cls-3" d="M18.23,27l-.11.14Z"/><path class="cls-3" d="M18.11,27.12l-.11.14Z"/><path class="cls-3" d="M18,27.27l-.12.14Z"/><path class="cls-3" d="M17.87,27.42l-.12.14Z"/><path class="cls-3" d="M18.86,3.26l.24.2c.19.59-.3,1.17,0,1.76l0,0c-.25.18-.23.36,0,.54l.09.24a2.36,2.36,0,0,0-.09.88,1.72,1.72,0,0,0-.76.56c-.23.25-.16.46,0,.76s.16.49.44.21c.13-.12.31-.06.46,0s.46,0,.62-.25L20,8.17l.3.12a.12.12,0,0,0,.07.07l.17.18c0,.17.11.26.25.28h0c0,.18.1.28.24.29l.06,0,0,.29-.1.22-.2.12-.19,0c-.48-.06-.48-.06-.55.27.11.55,0,.93-.49,1.06l-.46.28c.37-1,.37-1,0-1.56-.21.14-.23.82-.67.37-.12-.13-.2.11-.23.24A8.12,8.12,0,0,1,17.51,12a.33.33,0,0,1-.39.3c-.55-.44-1,.19-1.53.19l-.15.06-.24.06c-.23-.21-.49-.13-.74-.11v0l0-.31c.14-.12.24-.27.45-.29A1.35,1.35,0,0,0,16.21,11h0l1.86-1.76c-.54-.22-.81.28-1.19.45l-.24,0a.28.28,0,0,0-.09-.07c-.06-.17-.15-.21-.29-.16s-.27.34-.41.06.05-.43.17-.59a1,1,0,0,1,.33-.33A2,2,0,0,0,17.29,7a5.45,5.45,0,0,0-.19-2.54c.2,0,.47.25.47-.35,0-.42.37-.25.59-.27S18.83,3.87,18.86,3.26Z"/><path class="cls-3" d="M24.05,13.35c0-.33-.18-.57-.42-.51-.65.19-1.07-.16-1.39-.82l0-.28.11-.34.14,0a.21.21,0,0,0,.37,0,1.68,1.68,0,0,1,1.47-.6c-.18.68-.74,1-1.07,1.56.27.17.39-.07.52-.22a10,10,0,0,1,1.36-1.26c.48-.36.88-.28,1.21.29a6.47,6.47,0,0,1,.44.82c.24.61.54.77,1,.28l.06.08v.59c-.24,1.2-.46,1.32-1.33.76,0,0,0-.09,0-.14s-.08-.3-.22-.25-.24.36-.27.6l-.13.1h-.21a.38.38,0,0,0-.35-.17h-.13v-.16c-.06-.27-.18-.33-.36-.15l-.71-.1S24.05,13.38,24.05,13.35Z"/><path class="cls-8" d="M22.37,11a5.15,5.15,0,0,1,.16-1.57c.24-.24.59-.41.54-.88s-.35-.48-.63-.53c0-.36.34-.3.5-.46a1,1,0,0,0,1-.28c.13,0,.2-.14.25-.28s.22-.25.25-.46.3-.24.33-.08c.08.53.42.18.6.34l-.16.6s-.05,0-.06,0a.28.28,0,0,0-.24.29l0,.29-.1.15-.12.11-.12.22v.22L24.4,9V9a.22.22,0,0,0-.15.22V9.2h0a5.36,5.36,0,0,1-1.61,2Z"/><path class="cls-3" d="M21.61,4.63l.26,0c.21.08.42.15.62.24.49.19,1,.14,1.46.61-.06.26-.26.23-.4.29l-.75-.15c-.27,0-.56-.13-.72.27a.45.45,0,0,0-.56.28c-.14.33-.37.33-.62.33a3.42,3.42,0,0,1-.22-1.65l.13-.14L21,4.67h.06l.05,0h.48Z"/><path class="cls-7" d="M18.94,16.56l-.71.17a1.62,1.62,0,0,1-.1-.73h.05c.29-.13.3-.46.35-.76h0l.17-.16h0c.29,0,.37-.28.37-.6h0l.11-.16h0l.12-.15h0c.2-.2.13-.46.09-.71l.05-.34.12,0,.33.91c-.16.56-.72.95-.49,1.69l-.22.59Z"/><path class="cls-10" d="M20.8,9.77l.2-.12c.11,0,.13-.1.1-.22s0-.19,0-.29a1.23,1.23,0,0,1,.65.13c.3.07.39.33.33.67s-.24.49-.37.42c-.57-.32-.86.35-1.28.53.12-.43-.15-.61-.35-.83.07-.33.07-.33.55-.27C20.68,9.86,20.74,9.86,20.8,9.77Z"/><path class="cls-3" d="M22.44,8c.28.05.59.13.63.53s-.3.64-.54.88c-.09-.63-.77-.61-.85-1.25C21.86,7.62,22.19,8.16,22.44,8Z"/><path class="cls-12" d="M20.9,6.54c.25,0,.48,0,.62-.33a.45.45,0,0,1,.56-.28h0c.09.35,0,.78.22,1.07l0,.15c-.3,0-.49.26-.76.33l-.29,0C21.48,6.9,21,6.86,20.9,6.54Z"/><path class="cls-11" d="M24,5.52c-.42-.47-1-.42-1.46-.61-.2-.09-.41-.16-.62-.24,0-.11.45-.12,0-.33a1.29,1.29,0,0,1-.28-.25l1.28.37h0a.5.5,0,0,0,.36.18l.15.07a1.56,1.56,0,0,0,1,.39.1.1,0,0,1,0,.09l-.31.39Z"/><path class="cls-11" d="M21.61,7.47c.27-.07.46-.37.76-.33.16.2.48.08.57.44-.16.16-.45.1-.5.46-.25.12-.58-.42-.76.16A1.14,1.14,0,0,1,21.61,7.47Z"/><path class="cls-3" d="M19.79,11.63a2.32,2.32,0,0,1-.23,1.17c-.38,0-.55-.14-.47-.63l.17-.28Z"/><path class="cls-10" d="M19.79,11.63l-.53.26-.43,0,.09-.27.19-.19.46-.28.7-.06A.72.72,0,0,1,19.79,11.63Z"/><path class="cls-10" d="M19.41,15.68c-.23-.74.33-1.13.49-1.69,0,0,.05.1.08.16a13.46,13.46,0,0,1-.42,1.54Z"/><path class="cls-8" d="M20.83,11.7c-.12-.56.12-.74.55-.78-.07.31-.13.56-.19.81Z"/><path class="cls-3" d="M20.83,11.7l.36,0c0,.14,0,.27,0,.41a0,0,0,0,0,0,.07l.06.27c-.35,0-.3.41-.46.61A6.47,6.47,0,0,1,20.83,11.7Z"/><path class="cls-12" d="M19.09,5.22c-.29-.59.2-1.17,0-1.76h.1C19.57,4.08,19.21,4.64,19.09,5.22Z"/><path class="cls-12" d="M19.08,6.92A2.36,2.36,0,0,1,19.17,6c.13.38.25.77.38,1.16v0l-.41-.16Z"/><path class="cls-3" d="M20.27,11.06l-.7.06c.48-.13.6-.51.49-1.06.2.22.47.4.35.83Z"/><path class="cls-11" d="M19.54,7.24v0c.52,0,.55.71.88,1l-.05.07a.17.17,0,0,0-.1,0L20,8.17l-.05-.12C20,7.61,19.67,7.51,19.54,7.24Z"/><path class="cls-10" d="M19.09,12.17c-.08.49.09.68.47.63v.28l-.12,0a.73.73,0,0,1-.58-.87Z"/><path class="cls-11" d="M21.73,9.27a1.23,1.23,0,0,0-.65-.13l-.06,0L21,8.88,21,8.8C21.25,9,21.61,8.86,21.73,9.27Z"/><path class="cls-12" d="M19.08,5.8c-.24-.18-.26-.36,0-.54C19.08,5.44,19.08,5.62,19.08,5.8Z"/><path class="cls-3" d="M22.37,11l.22.13-.12.27-.14,0Z"/><path class="cls-3" d="M21.5,12.67c-.16.12-.22,0-.24-.17Z"/><path class="cls-11" d="M20.79,8.5a.42.42,0,0,1,.24.3L21,8.88l-.19-.05h0l-.05-.24Z"/><path class="cls-11" d="M20.52,8.54l-.17-.18a.17.17,0,0,0,0-.1l.05-.07.36.31-.07.08Z"/><path class="cls-11" d="M21.26,3.94a.4.4,0,0,1,.36.15A.31.31,0,0,1,21.26,3.94Z"/><path class="cls-11" d="M21.61,4.63h-.22A.14.14,0,0,1,21.61,4.63Z"/><path class="cls-3" d="M22.22,11.74c0,.09,0,.18,0,.28h-.13A.31.31,0,0,1,22.22,11.74Z"/><path class="cls-8" d="M21.18,12.21a0,0,0,0,1,0-.07A0,0,0,0,1,21.18,12.21Z"/><path class="cls-3" d="M20.78,13.1l-.09.14Z"/><path class="cls-3" d="M22.09,12.05s0,.08-.05.1A.08.08,0,0,1,22.09,12.05Z"/><path class="cls-11" d="M20.81,4.75l-.13.14Z"/><path class="cls-11" d="M21.13,4.65l-.05,0H21Z"/><path class="cls-11" d="M21.13,3.83l.13.11Z"/><path class="cls-11" d="M20.89,3.66l.15.12Z"/><path class="cls-3" d="M24.39,9V9l.11-.23V8.52l.12-.22.12-.11c.07,0,.17,0,.1-.15l0-.29a.29.29,0,0,0,.24-.29s0,0,.06,0A1.47,1.47,0,0,0,26,5.88v0l.13-.23a.06.06,0,0,1,0-.07c.19-.42.39-.7.81-.32.24.23.37,0,.44-.34.12-.52,0-1.13.32-1.59.16,0,.31-.19.49-.09a4.72,4.72,0,0,1-.11,2.53.21.21,0,0,1,0,.12c-.33.17-.36.52-.31.88a1.4,1.4,0,0,1,0,.81,6.2,6.2,0,0,1-2,1.61c-.32.17-.82.35-.93,1-.63.08-.48-.56-.57-1h0v.05Z"/><path class="cls-6" d="M30.59,11.6a.16.16,0,0,0-.11-.07c-.14-.46-.52-.43-.8-.55a1,1,0,0,1-.63-.8,3.37,3.37,0,0,0-.52-1.4c.43-.66,1-.32,1.48-.24.23,0,.21.38.2.63a2,2,0,0,0,.18,1.15,2.79,2.79,0,0,0,.4.81.33.33,0,0,0,.05.12.43.43,0,0,1-.16.38S30.62,11.59,30.59,11.6Z"/><path class="cls-3" d="M28.53,8.78a3.37,3.37,0,0,1,.52,1.4,1,1,0,0,0,.63.8c.28.12.66.09.8.55l-.39.19c-.41.12-.75.53-1.21.45a1.38,1.38,0,0,0-.31-1.05c-.13-.43-.3-.86-.39-1.31S28.09,8.94,28.53,8.78Z"/><path class="cls-11" d="M27.74,12.17c-.31-.2-.14-.71-.41-.94a1.29,1.29,0,0,1-.12-1l.21-.15.29.12.57,1.09,0,.15c0,.23,0,.45,0,.67s-.14.4-.36.23Z"/><path class="cls-3" d="M24.2,9.2c.09.43-.06,1.07.57,1-.14.22-.37.33-.46.61a1.68,1.68,0,0,0-1.47.6.21.21,0,0,1-.37,0l.12-.27A5.36,5.36,0,0,0,24.2,9.2Z"/><path class="cls-3" d="M27.42,10.06l-.21.15c-.2.27-.52.44-.51.91-.22-.3-.38-.69-.12-1s.53-.6.87-.15Z"/><path class="cls-3" d="M27.68,7.62a1.4,1.4,0,0,0,0-.81c-.05-.36,0-.71.31-.88.1.57-.19,1.11-.1,1.68Z"/><path class="cls-3" d="M26.7,11.12c0-.47.31-.64.51-.91a1.29,1.29,0,0,0,.12,1C27.09,11.48,27,10.78,26.7,11.12Z"/><path class="cls-3" d="M28.31,11.42l0-.15.29-.15a1.38,1.38,0,0,1,.31,1.05h0Z"/><path class="cls-3" d="M27.42,10.06l0-.09.26.21Z"/><path class="cls-3" d="M27.74,12.17l.17.15-.11,0-.06-.08Z"/><path class="cls-3" d="M18.92,11.59l-.09.27h0l-.12.16-.11.17-.16.26h0a.59.59,0,0,0-.26.45h0l-.11.18h0l-.1.19-.22.46a1,1,0,0,0-.06,1,.22.22,0,0,1,.05.08c.23.28.64.46.33,1A1,1,0,0,0,18,16.91c0,.16.07.31.11.47l-.13.15-.11.13h0a.33.33,0,0,0-.1.32.15.15,0,0,1,0,.11.62.62,0,0,0-.22.81v.28c-.16.2-.1.46-.12.71,0,.6-.29.78-.7.46l-.3-.23h0L16.26,20c-.14-.14-.12-.53-.4-.41s-.15.31-.11.51l-.45.05,0,0L15.14,20,15,19.83a.21.21,0,0,0-.35-.09h-.07l0-.16-.09-.1,0,0c-.13-.34-.33-.1-.5-.09l-.14-.17,0-1.27a2.45,2.45,0,0,0,1.49-1.28c.08-.2.2-.42,0-.63a.39.39,0,0,0-.6-.13l-.79.54a1.33,1.33,0,0,1,.79-1.12L16,14.67c.23-.1.53-.25.47-.57a.49.49,0,0,0-.62-.41h0a.38.38,0,0,0-.4.31l-.11.13c-.16,0-.25.08-.3.28-.08.36-.29.49-.58.44l-.23-.08a1,1,0,0,1,.44-1.33c.8-.41,1.63-.75,2.45-1.12a.33.33,0,0,0,.39-.3Z"/><path class="cls-3" d="M12.52,23.46a2.11,2.11,0,0,1-.36,0c-.17,0-.42,0-.43-.3s.21-.26.37-.29a.26.26,0,0,0,.22-.29c0-.25-.16-.14-.25-.18a4.15,4.15,0,0,0-1.05.09c-.53.36-.59-.25-.78-.59,0-.37.3-.39.39-.64l1.83-.66.77,0c0,.22-.07.44-.1.66-.17,1-.08,1.27.88,1.28C13.64,23.22,13,23.26,12.52,23.46Z"/><path class="cls-3" d="M13.74,19.18l.14.17-.15.42a.09.09,0,0,1-.06,0c-.15,0-.24.09-.28.28l0,0-.95.22-.35,0-.13,0-.47.1a.21.21,0,0,0-.26.06l-.31.06a2.67,2.67,0,0,1,.2-1.09,1.06,1.06,0,0,1,.34.12c.44.33.65-.3,1-.39.1,0,.16-.25.08-.4-.22-.38-.52-.1-.78-.11a1.11,1.11,0,0,0-.35.08,4.36,4.36,0,0,1,.05-1.57c.08-.25.21-.44.43-.48s.31.18.37.41c.17.73.6.88,1.14.75C13.48,18.34,13.29,18.91,13.74,19.18Z"/><path class="cls-3" d="M13.28,26.36l0,.25a2.11,2.11,0,0,1-1.31.51,8.39,8.39,0,0,0-.47-1.52c.26-.06.45,0,.57.36.33.41.59.29.81-.17a3.58,3.58,0,0,0,.25-.92l.31-.05.12.73,0,.05c-.12.08-.21.17-.05.31a.08.08,0,0,1,0,.12A.43.43,0,0,0,13.28,26.36Z"/><path class="cls-3" d="M13.52,25.55l-.12-.73c0-.45-.36-.54-.75-.81a5.27,5.27,0,0,0,2.18-2c.19.29.4,0,.6,0-.07.4-.41.34-.61.55a4.12,4.12,0,0,0-1.1,2.47A.54.54,0,0,1,13.52,25.55Z"/><path class="cls-9" d="M11.46,25.6a8.39,8.39,0,0,1,.47,1.52c-.23.4-.57.29-.88.27a.3.3,0,0,1-.27-.34C10.89,26.49,10.85,25.8,11.46,25.6Z"/><path class="cls-3" d="M15.43,22.09c-.2,0-.41.26-.6,0a2.44,2.44,0,0,0,.48-1.49c.14-.15,0-.29,0-.44l.45-.05a1.44,1.44,0,0,1,.2,1.49l0,.17,0,0c-.18,0-.38,0-.44.28Z"/><path class="cls-9" d="M13.09,24.87a3.58,3.58,0,0,1-.25.92c-.22.46-.48.58-.81.17.17-.25.7-.49,0-.74a.25.25,0,0,1-.12-.36.28.28,0,0,1,.37-.17A2,2,0,0,0,13.09,24.87Z"/><path class="cls-9" d="M15.3,20.13c0,.15.15.29,0,.44-.44-.21-.71.26-1.05.42a.51.51,0,0,1,0-.13h0a.09.09,0,0,0,0-.13l.27-1h.07l.35.09.19.13.19.15Z"/><path class="cls-4" d="M12.42,20.34l.95-.22a.56.56,0,0,1-.14.44l-.77,0A2,2,0,0,0,12.42,20.34Z"/><path class="cls-3" d="M13.73,19.77l.15-.42c.17,0,.37-.25.5.09Z"/><path class="cls-3" d="M13.39,20.09c0-.19.13-.28.28-.28A.43.43,0,0,1,13.39,20.09Z"/><path class="cls-9" d="M14.12,21.13H14a.21.21,0,0,1,.11-.23A1.94,1.94,0,0,1,14.12,21.13Z"/><path class="cls-4" d="M14.12,21.13a1.94,1.94,0,0,0,0-.24l.1,0a.51.51,0,0,0,0,.13Z"/><path class="cls-3" d="M14.4,19.48l.09.1Z"/><path class="cls-4" d="M14.26,20.74a.09.09,0,0,1,0,.13Z"/><path class="cls-9" d="M12.06,27.59l-.12.14Z"/><path class="cls-3" d="M27,18.88c0-.91-.43-1.34-1.27-1.36a.37.37,0,0,1,.14-.45L26.1,17a.08.08,0,0,1,.07,0l0,0c.15-.16.33-.13.51-.14l.11-.1,0,0a.33.33,0,0,0,.31-.14l.15,0a.74.74,0,0,1,.67.2c.42.28.66-.14.94-.37h.13c.1.21,0,.66.42.43l.23.18-.47.6c-.22.28,0,.59,0,.88a.32.32,0,0,1-.09,0,.25.25,0,0,0-.24.15h0a.23.23,0,0,0-.22.15h0a.24.24,0,0,0-.23.2l-.09.11a.34.34,0,0,0-.17.3.5.5,0,0,1,0,.13c-.21.14-.19.39-.19.63v0a.24.24,0,0,0-.11.24.09.09,0,0,1,0,.07c-.12,0-.2.06-.21.22a.18.18,0,0,1-.09.07l0,0-.09.14c-.19,0-.26.18-.29.38l-.14.08s-.06,0-.07.06a.27.27,0,0,1-.07.08H26.4A5.46,5.46,0,0,0,27,18.88Z"/><path class="cls-5" d="M26.93,21.35l.14-.08c.18,0,.26-.17.29-.38l.09-.14h0v0a.18.18,0,0,0,.09-.07c.12,0,.2-.06.21-.22a.09.09,0,0,0,0-.07c.1,0,.1-.14.11-.24v0c.19,0,.29-.12.33-.35a2.84,2.84,0,0,1,1.12-.45,2.59,2.59,0,0,0-.17,1c-.09.13-.17.28-.32.31-.53,0-.68.49-.88.95a7.12,7.12,0,0,1-.74.82,1.92,1.92,0,0,0-.82,1.56l-.82.34,0,0L25.76,23a.09.09,0,0,0,0-.1h0l.12-.07.12-.12c.1,0,.14-.13.11-.27l0-.05.05,0v-.07l.06-.05.13-.1a1,1,0,0,0,.42-.64.27.27,0,0,0,.07-.08h.05Z"/><path class="cls-12" d="M25.63,24.24l.82-.34.15.3a2.75,2.75,0,0,1,.11.95c-.87,0-.86,1-1.21,1.66-.15-.14-.13-.36-.18-.54.14-.26.13-.45-.14-.52v-.59c.09-.15.24-.27.14-.49s0-.64-.18-.88c.26,0,.35-.25.36-.54.09-.08.11-.26.25-.26-.05.4-.11.81-.16,1.21l0,0a0,0,0,0,0,0,0Z"/><path class="cls-3" d="M25.15,23.79c.21.24,0,.63.18.88a1.12,1.12,0,0,0-.44.61h0l-.35.09c-.21.07-.46.4-.64.09s.07-.55.2-.75c.31-.46.48-1.11,1-1.28C25.13,23.55,25.14,23.67,25.15,23.79Z"/><path class="cls-3" d="M25.19,25.16c0,.2,0,.39,0,.59-.37.31-.8.56-.9,1.2h0l-.13.15h0c-.19-.07-.44.33-.57-.05a.74.74,0,0,1,.26-.78l1.05-1h0Z"/><path class="cls-3" d="M26,22.69l-.12.12c-.08-.08-.11,0-.12.07h0l-.28,0c0-.1,0-.21,0-.32a1.88,1.88,0,0,1,.64-.67l.15.23a.2.2,0,0,0,0,.13l-.06.05s-.06,0-.05.09l0,.05A.27.27,0,0,0,26,22.69Z"/><path class="cls-10" d="M25.84,19.85c.17,0,.22.22.23.39s-.15.27-.28.29a.18.18,0,0,1-.21-.21A.51.51,0,0,1,25.84,19.85Z"/><path class="cls-3" d="M26.25,22.1l-.15-.23.3-.38h.39a1,1,0,0,1-.42.64Z"/><path class="cls-3" d="M25.15,23.79c0-.12,0-.24,0-.36l0,0,.12-.21h.26C25.5,23.54,25.41,23.76,25.15,23.79Z"/><path class="cls-3" d="M25.46,22.54c0,.11,0,.22,0,.32s-.16.09-.16,0S25.41,22.64,25.46,22.54Z"/><path class="cls-3" d="M26.21,21.16l0-.46C26.4,20.84,26.36,21,26.21,21.16Z"/><path class="cls-3" d="M25.63,18.12c.14-.05.28-.12.41,0v.18l-.51-.1Z"/><path class="cls-3" d="M25.25,23.24l-.12.21Z"/><path class="cls-10" d="M25.63,18.12l-.09.11v-.07C25.55,18.11,25.58,18.1,25.63,18.12Z"/><path class="cls-3" d="M26.09,21.31c0-.1,0-.16.13-.16Z"/><path class="cls-3" d="M24,27.64h0l0,0Z"/><path class="cls-3" d="M24,27.71a.12.12,0,0,1-.09.15Z"/><path class="cls-5" d="M2.13,22.7l-.24,0c.12-.44.42-.42.71-.43l.26.3c.12.35.24.38.36,0h0l.11-.13,0,0c.38-.28.25-.59,0-.91l0-.3L3.83,21a1.37,1.37,0,0,1,.13.87,6.32,6.32,0,0,1-.59,1.73A10.73,10.73,0,0,1,2.21,25l-.21,0A.71.71,0,0,1,1.92,24a1.43,1.43,0,0,0,.22-.84h0C2.39,23,2.4,22.84,2.13,22.7Z"/><path class="cls-3" d="M2.21,25a10.73,10.73,0,0,0,1.16-1.34.7.7,0,0,0,.56-.21c.47-.53,1.16-.34,1.67-.8.16-.13.28.11.4.24l0,.33,0,0-.36.38-.13.14h0l-.12.13h0a.23.23,0,0,0-.25.16h0l-.4.09-.17.11h0a.58.58,0,0,0-.59.32H4c-.32,0-.66-.12-1,.11-.22.08-.22.4-.39.53Z"/><path class="cls-12" d="M2.14,23.16a1.43,1.43,0,0,1-.22.84.71.71,0,0,0,.08.93c-.31.15-.31.15-.48-.57A3.59,3.59,0,0,1,2.14,23.16Z"/><path class="cls-3" d="M1.9,9.73c-.57-.8-1-1-1.63-.68A.57.57,0,0,1-.19,9c-.09,0-.19-.08-.21-.23s.07-.28.16-.27c.37,0,.23-.44.4-.6A5.2,5.2,0,0,1,1.78,7.8c.23.2.45-.09.69,0l0,0,.12,0,.25-.09.19.18v.31L3,8.37C2.43,8,2.33,8.8,1.79,9c.65.24.59.75.58,1.23L2.14,10h0a.38.38,0,0,0-.24-.31Z"/><path class="cls-7" d="M3.27,7.46a1.67,1.67,0,0,1,.83-.67l.31-.14.91-.16.37.2c-.05.21-.15.27-.31.23s-.31,0-.36.25H5A2.42,2.42,0,0,0,4,8.52H4l-.17.14H3.53s0,0,0,.07,0-.05,0-.07a.24.24,0,0,0-.25-.16h0Z"/><path class="cls-8" d="M-.51,5.31V5.1l.12,0c.45,0,.78-.37,1.17-.59.16-.1.37,0,.49-.25a.72.72,0,0,0,.5,0,.31.31,0,0,0,0,.08c.42.46.06,1.09.21,1.61a.09.09,0,0,0,0,.06.64.64,0,0,1-.43-.47c0-.37-.15-.2-.26-.17-.3.05-.53.39-.85.37S0,5.24-.24,5.32Z"/><path class="cls-11" d="M2.76,3.27l.46.39.12.58c0,.36.05.71.07,1.06l0,.3c-.35.26-.52,1-1.09.63A.62.62,0,0,1,2,5.91a.09.09,0,0,1,0-.06c.29.17.61.41.86,0s.1-.65-.24-.94A1.13,1.13,0,0,1,2.76,3.27Z"/><path class="cls-10" d="M.42,5.64c.32,0,.55-.32.85-.37.11,0,.3-.2.26.17a2,2,0,0,0-.34.31C.88,6.24.64,6.09.42,5.64Z"/><path class="cls-11" d="M4.41,6.64l-.31.15c-.08-.34-.47-.32-.52-.7l.6.17.28.15C4.44,6.49,4.43,6.56,4.41,6.64Z"/><path class="cls-10" d="M3.27,7.46l0,1.06-.13.05,0-.06,0-.28V7.92l0-.39Z"/><path class="cls-3" d="M2.47,7.77c-.24-.06-.46.23-.69,0C2,7.77,2.23,7.38,2.47,7.77Z"/><path class="cls-3" d="M3.07,7.53l0,.39-.19-.18C2.89,7.59,3,7.54,3.07,7.53Z"/><path class="cls-3" d="M3.37,5.6l0-.3c.13.09.16.19,0,.32A.08.08,0,0,1,3.37,5.6Z"/><path class="cls-3" d="M2.61,7.83l-.12,0Z"/><path class="cls-3" d="M4.46,6.41l-.28-.15,2.44-.78.21.37,0,0a4.27,4.27,0,0,1,.08,1.24l-.09.16c-.54.39-.68-.22-.9-.59l.24-.21c.12-.11.36-.14.26-.41S6.16,6,6,6s-.49.17-.74.26Z"/><path class="cls-3" d="M6.5,4.7a.34.34,0,0,1,.22-.3l0,.21,0,.21-.12.34A.67.67,0,0,1,6.5,4.7Z"/><path class="cls-3" d="M3.34,4.24l-.12-.58h.22A.79.79,0,0,1,3.34,4.24Z"/><path class="cls-10" d="M6.62,5.16l.12-.34.13,0,0,1-.21-.37Z"/><path class="cls-3" d="M26.71,25.15a2.75,2.75,0,0,0-.11-.95c.44-.41.76-1,1.29-1.29a1,1,0,0,1,.06.91l0,.06-.38.41a1.41,1.41,0,0,0-.62,1Z"/><path class="cls-10" d="M26.92,25.27a1.41,1.41,0,0,1,.62-1l.07.87c-.17.22-.67.15-.4.75l0,.13-.48.15C26.66,25.84,26.87,25.58,26.92,25.27Z"/><path class="cls-3" d="M25.32,26.27c.05.18,0,.4.18.54a2.34,2.34,0,0,1-.57.76.78.78,0,0,0-.64-.53.28.28,0,0,1,0-.09h0C24.71,26.92,25,26.52,25.32,26.27Z"/><path class="cls-10" d="M26.12,27.62c.13-.42.49-.31.72-.5C26.79,27.71,26.4,27.54,26.12,27.62Z"/><path class="cls-10" d="M26.83,27.12c.1-.42.39-.25.61-.31C27.33,27.19,27.05,27.06,26.83,27.12Z"/><path class="cls-10" d="M28.9,26v.14l-.25.21-.41-.08C28.39,26,28.67,26.11,28.9,26Z"/><path class="cls-3" d="M28.65,26.39l.25-.21c.19.08.19.29.19.49l-.45-.17h0S28.65,26.42,28.65,26.39Z"/><path class="cls-10" d="M27.63,26.62c.13-.28.36-.24.56-.27A.39.39,0,0,1,27.63,26.62Z"/><path class="cls-10" d="M25.5,28.07l-.37,0c0-.22.1-.23.24-.21S25.58,27.88,25.5,28.07Z"/><path class="cls-8" d="M26.09,27.08a.44.44,0,0,1-.36.36C25.76,27.18,25.91,27.12,26.09,27.08Z"/><path class="cls-8" d="M26.34,26.8c0,.19-.1.29-.26.28A.28.28,0,0,1,26.34,26.8Z"/><path class="cls-3" d="M29.37,26.84c.13-.12.23-.13.23.12Z"/><path class="cls-8" d="M26.7,26.2a.3.3,0,0,1-.12.29A.28.28,0,0,1,26.7,26.2Z"/><path class="cls-8" d="M26.58,26.49l-.12.16Z"/><path class="cls-8" d="M26.46,26.64l-.12.16Z"/><path class="cls-10" d="M27.44,26.81l.15-.16Z"/><path class="cls-3" d="M29.12,26.69l.1.12Z"/><path class="cls-3" d="M29.86,27l.15,0Z"/><path class="cls-11" d="M16.9,22.19c-.15.07-.16.19-.18.39,0,.44-.4.53-.68.22.08-.64.35-1,.88-.87Z"/><path class="cls-11" d="M16.79,21.33a.42.42,0,0,0,.63.18c-.13.36-.34.35-.51.43A1.39,1.39,0,0,1,16.79,21.33Z"/><path class="cls-3" d="M15.46,22.05c.06-.32.26-.28.44-.28C15.82,22,15.67,22.12,15.46,22.05Z"/><path class="cls-3" d="M13.45,25.91c-.16-.14-.07-.23.05-.31A.31.31,0,0,1,13.45,25.91Z"/><path class="cls-3" d="M13.28,26.36a.43.43,0,0,1,.15-.33A.3.3,0,0,1,13.28,26.36Z"/><path class="cls-3" d="M15.93,21.74l0-.17.11,0Z"/><path class="cls-11" d="M14.42,27l-.15.17Z"/><path class="cls-11" d="M14.22,27.27l-.08.16Z"/><path class="cls-6" d="M29.38,19.3a2.84,2.84,0,0,0-1.12.45l-.14-.28a.5.5,0,0,0,0-.13l.17-.3.09-.11.23-.2h0a.22.22,0,0,0,.23-.15h0l.24-.15a.32.32,0,0,0,.09,0c.43-.12.9-.15,1.12-.86-.26.1-.46.17-.66.27s-.38,0-.43-.29l.47-.6c.21,0,.37-.14.52-.3a1.24,1.24,0,0,1,.72-.17c0,.29-.26.48-.22.79a2,2,0,0,0-.3.94Z"/><path class="cls-9" d="M30.47,21.47l-.12.42a1.45,1.45,0,0,1-.1.8.22.22,0,0,0-.15.2c-.3.13-.62.11-.22.73.31.47-.24.68-.52.89a4,4,0,0,1,.33-2.3,1.28,1.28,0,0,0,.28-.88h0l.1-.1.36-.23Z"/><path class="cls-3" d="M30,21.33a1.28,1.28,0,0,1-.28.88,4,4,0,0,0-.33,2.3h0l-.15.12a.1.1,0,0,0,0,.09l-.55.09h0c0-.28-.22-.57,0-.85.2-.65.4-1.31.59-2,.2-.2.5-.29.55-.68Z"/><path class="cls-11" d="M29.79,21.32c-.05.39-.35.48-.55.68l-.35.09-.15,0h0c-.17-.54.18-1,.18-1.48.15,0,.23-.18.32-.31C29.41,20.6,29.4,21.13,29.79,21.32Z"/><path class="cls-10" d="M30.1,21v.26l-.1.1A.34.34,0,0,1,30.1,21Z"/><path class="cls-5" d="M24.1,5.57l.31-.39.33,0a.2.2,0,0,0,0,.11l.26.13c.5.09.39.72.6,1.08l-.28.29c-.18-.16-.52.19-.6-.34,0-.16-.26-.24-.33.08s-.08.39-.25.46Z"/><path class="cls-8" d="M25.63,6.53c-.21-.36-.1-1-.6-1.08a.66.66,0,0,0,0-.14l.16-.25a5,5,0,0,0,.6-1.72c.19-.08.21-.27.18-.48v0c.18.23.11.53.14.8h0C25.85,4.07,26,4.56,26,5h0c-.11.29,0,.66-.24.9C25.71,6.12,25.81,6.36,25.63,6.53Z"/><path class="cls-3" d="M24.42,5.09a1.56,1.56,0,0,1-1-.39A1,1,0,0,1,24.42,5.09Z"/><path class="cls-3" d="M25.18,5.06,25,5.31h-.25a.2.2,0,0,1,0-.11A.41.41,0,0,1,25.18,5.06Z"/><path class="cls-10" d="M26,2.86c0,.21,0,.4-.18.48C25.82,3.17,25.82,3,26,2.86Z"/><path class="cls-3" d="M23.29,4.63a.5.5,0,0,1-.36-.18A.27.27,0,0,1,23.29,4.63Z"/><path class="cls-3" d="M23.31,3.16a.14.14,0,0,1,0-.11.28.28,0,0,1,0,.09Z"/><path class="cls-8" d="M28.65,24c-.22.28,0,.57,0,.85-.44,0-.44.59-.72.79l-.07-.08,0-.37.13-.46a1.25,1.25,0,0,0,.34-1.05l.06,0C28.57,23.67,28.61,23.81,28.65,24Z"/><path class="cls-8" d="M28.65,24.81l.55-.09C29.05,25.06,28.89,25.37,28.65,24.81Z"/><path class="cls-8" d="M27.18,26l0-.13.22,0,0,.06Z"/><path class="cls-8" d="M27.7,25.78l-.24.16,0-.06.22-.17Z"/><path class="cls-8" d="M27.93,25.6l-.23.18-.05-.07.21-.19Z"/><path class="cls-9" d="M29.22,24.63l.15-.12Z"/><path class="cls-3" d="M30.21,4.32v0a2,2,0,0,0-.61.68h0c-.14-.11-.27-.21-.14-.47s.41-.52.75-.44h0Z"/><path class="cls-4" d="M28.88,12.17c.46.08.8-.33,1.21-.45.12.92,0,1.15-.75,1.38l-.29-.2c-.05-.24-.11-.48-.17-.72Z"/><path class="cls-12" d="M29.05,12.9l.29.2a3.34,3.34,0,0,1-.27,1.22l-.31.14a1.31,1.31,0,0,1-.19-1.08C28.7,13.17,28.81,12.93,29.05,12.9Z"/><path class="cls-12" d="M29.38,14.88c-.13,0-.31,0-.27-.28l.41.07C29.48,14.74,29.43,14.81,29.38,14.88Z"/><path class="cls-6" d="M29.61,5a2,2,0,0,1,.61-.68.46.46,0,0,1,0,.64C30.05,5.29,29.82,5.14,29.61,5Z"/><path class="cls-9" d="M13.74,19.18c-.45-.27-.26-.84-.38-1.26-.63-.68-.54-1.66-.7-2.54.36-.24.2-.76.24-1.07s.24-1-.15-1.47a2.34,2.34,0,0,0,.1-.71,2.14,2.14,0,0,1,.49-1.51c.17-.17.15-.55.46-.59s.2-.36.21-.6a.48.48,0,0,0,.48-.33c.76-.39,1.38-1.09,2.12-1.54a.43.43,0,0,0,.1-.19c.1-.37,0-.76-.31-.69-.94.18-1.38-.56-1.8-1.39a2.59,2.59,0,0,0-.18-1.18l.13-.76L15,3a.7.7,0,0,1,.67.07c.07.3.14.6.2.9a3.82,3.82,0,0,0-.27,1.58.39.39,0,0,0,.32.46c.29,0,.17-.23.18-.41l.12-1.26c.32-.25.62-.3.89.1A5.45,5.45,0,0,1,17.29,7a2,2,0,0,1-.92,1.66A1,1,0,0,0,16,9c-.12.16-.28.35-.17.59s.28,0,.41-.06.23,0,.29.16a.35.35,0,0,0,.09.07l.24,0c-.08.32-.31.3-.51.4s-.57.48-.16.91h0c-.34-.07-.69.28-1-.15-.15-.18-.45,0-.59.31a2.29,2.29,0,0,0-.23,1l.09.33v0c.21.42.47.32.74.11l.24-.06.15-.06c.51,0,1-.63,1.53-.19-.82.37-1.65.71-2.45,1.12a1,1,0,0,0-.44,1.33.17.17,0,0,0,.23.08c.29.05.5-.08.58-.44.05-.2.14-.28.3-.28s.11,0,.11-.13a.38.38,0,0,1,.4-.31v0a.49.49,0,0,1,.62.41c.06.32-.24.47-.47.57l-1.34.62a1.33,1.33,0,0,0-.79,1.12,3.45,3.45,0,0,0-.13,1.5Zm2.13-9.06c0-.17-.08-.21-.19-.22s-.33,0-.39.22.08.2.18.21S15.79,10.33,15.87,10.12Z"/><path class="cls-3" d="M14,9.43c0,.24.05.56-.21.6s-.29.42-.46.59c-.75-1.56-1.49-3.13-2.24-4.69A3.85,3.85,0,0,0,13,6.08c.44.3.87.61,1.3,0l.1-.29c.17-.1.16-.3.17-.48.42.83.86,1.57,1.8,1.39.34-.07.41.32.31.69a.43.43,0,0,1-.1.19c-.74.45-1.36,1.15-2.12,1.54-.19-.45-.37-.9-.57-1.34-.11-.24-.28-.38-.51-.29s-.21.29-.25.53C13,8.89,13.63,9.05,14,9.43Z"/><path class="cls-3" d="M14.6,5.29c0,.18,0,.38-.17.48,0-.88-.6-1.32-1-1.92s-.19-.68.27-.65c0,.18,0,.32.22.32l0,0c0,.32.19.52.45.56A2.59,2.59,0,0,1,14.6,5.29Z"/><path class="cls-3" d="M14.33,6.06c-.43.63-.86.32-1.3,0a2.3,2.3,0,0,1-.29-.87l.06-.06C13.2,5.74,13.55,6.48,14.33,6.06Z"/><path class="cls-11" d="M14.42,4.11c-.26,0-.4-.24-.45-.56l.58-.2C14.5,3.61,14.46,3.86,14.42,4.11Z"/><path class="cls-11" d="M14,3.52c-.17,0-.21-.14-.22-.32C13.88,3.23,14,3.31,14,3.52Z"/><path class="cls-3" d="M16.21,4.32l-.12,1.26c0,.18.11.46-.18.41a.39.39,0,0,1-.32-.46A3.82,3.82,0,0,1,15.86,4,.54.54,0,0,1,16.21,4.32Z"/><path class="cls-3" d="M29.12,16.14a2.35,2.35,0,0,1,1-1.06c-.29.41-.53.93-1,1.06Z"/><path class="cls-3" d="M28,16.65a.74.74,0,0,0-.67-.2c.2-.39.58-.18.83-.41C28.11,16.25,28.06,16.45,28,16.65Z"/><path class="cls-3" d="M30.24,16.6c-.15.16-.31.32-.52.3l-.23-.18.47-.29Z"/><path class="cls-3" d="M29.07,16.29h-.13l.18-.14h0Z"/><path class="cls-10" d="M26,5c.05-.46-.13-.95.12-1.38C26,4.09,26.37,4.6,26,5Z"/><path class="cls-10" d="M25.74,5.91c.22-.24.13-.61.24-.9l.12.61a.06.06,0,0,0,0,.07L26,5.92v0Z"/><path class="cls-12" d="M.77,4.46c-.39.22-.72.59-1.17.59a1.83,1.83,0,0,0,.11-.81l.13-.47c.3,0,.62-.19.66.43C.51,4.3.67,4.38.77,4.46Z"/><path class="cls-7" d="M6.83,5.85c0-.34,0-.67,0-1v-.2a.17.17,0,0,0,0-.1V4.4l-.06-.3h0C6.93,4,7,4,7.05,3.93c.21-.9.5-.52.8-.09l0,.26h0c-.33.2-.06.74-.33,1v.07a1,1,0,0,0-.18.9,3.1,3.1,0,0,1,0,1.25h0a.32.32,0,0,0-.14.29h0a.46.46,0,0,0-.34.47h0c-.15,0-.23.12-.25.31h0l-.13.14h0l-.13.15h0c-.18,0-.29.13-.44.22s-.61.44-.82.07.15-.76.38-1a1.1,1.1,0,0,0,.39-.8c.35.18.62,1,1,.1l.09-.16a1,1,0,0,0-.08-1.24Z"/><path class="cls-3" d="M10.05,4c-.09.83-.69.29-1,.58,0-.53-.15-.93-.67-.83-.06,0-.14-.09-.2-.13.35-.62.77-1,1.41-.73C9.71,3.28,10.08,3.51,10.05,4Z"/><path class="cls-10" d="M8.2,3.61c.06,0,.14.14.2.13.52-.1.64.3.67.83-.42.2-.72.45-.36,1.09.13.24,0,.45-.23.36a3.94,3.94,0,0,1-.55-.26c0-.42-.06-.69-.44-.68.27-.24,0-.78.33-1a2.1,2.1,0,0,0,0,.36c0,.18.1.34.27.32a.3.3,0,0,0,.17-.18.46.46,0,0,0-.13-.45c-.1-.11-.22-.07-.34-.05l0-.26A.51.51,0,0,0,8.2,3.61Z"/><path class="cls-3" d="M6.73,4.09a.51.51,0,0,1,.12-.73c0,.24,0,.49,0,.73h0A.25.25,0,0,0,6.73,4.09Z"/><path class="cls-10" d="M6.73,4.09a.25.25,0,0,1,.12,0l.06.3a.66.66,0,0,0,0,.14.17.17,0,0,1,0,.1.14.14,0,0,0-.11,0l0-.21Z"/><path class="cls-3" d="M12.74,5.21a2.3,2.3,0,0,0,.29.87,3.85,3.85,0,0,1-1.93-.15c-.08-.14-.16-.28-.25-.42l-.18-1.26A2.35,2.35,0,0,0,12.4,4,2.65,2.65,0,0,0,12.74,5.21Z"/><path class="cls-3" d="M18.51,27l0-.19.17,0Z"/><path class="cls-3" d="M2.76,3.27a1.13,1.13,0,0,0-.15,1.62c.34.29.48.53.24.94S2.28,6,2,5.85c-.15-.52.21-1.15-.21-1.61.32,0,.31-.26.37-.53s0-.81.45-.84C2.66,3,2.71,3.14,2.76,3.27Z"/><path class="cls-6" d="M10.85,5.51c.09.14.17.28.25.42.75,1.56,1.49,3.13,2.24,4.69a2.14,2.14,0,0,0-.49,1.51,2.34,2.34,0,0,1-.1.71c-.34-.13-.48.41-.79.39-.14-.16-.28-.18-.43,0l-.31,0c-.05-.15-.08-.34-.26-.17l-.24,0c-.11-.17,0-.59-.35-.5L10,12.34l-.13-.19L9.76,12c0-.17-.09-.29-.24-.28a.09.09,0,0,0-.09,0l-.15-.16h0l-.14-.16L9,11.25l-.1-.16h0a2,2,0,0,0-.33-.78c-.23-.31-.48-.6-.83-.33s-.13.65,0,1l-.12.54a1.58,1.58,0,0,0-.16.68v0l-.13.17h0l-.13.16h0a.81.81,0,0,0-.62.51l-1.13.43L5,13.33l-.19-.26c0-.58.26-1,.71-1.08a8.13,8.13,0,0,1,1.3-.18c.31,0,.44-.23.43-.58,0-.54-.27-.13-.42-.13a2.91,2.91,0,0,1-1,0h0L5.65,11h0l0-.61a.32.32,0,0,0,0-.14h0L5.76,10h0l.13-.15A.23.23,0,0,0,6,9.82l1.12-.53.35,0a5,5,0,0,1,1.32.21l.12.14L9,9.74l.06.15c0,.43.25.45.49.46s.22,0,.25-.14c.08-.34-.14-.48-.3-.66a.11.11,0,0,0,0-.08A.36.36,0,0,0,9.72,9c.47.4,1.09.38,1.55.83s-.24.51-.14.83c-.1.37,0,.61.32.63s.79.19,1-.26a1.35,1.35,0,0,0-.13-1.34V9.6l-.13-.25V9.13l-.12-.31h0L12,8.61l-.52-1.22c-.33-.6-.76-.41-1.19-.26-.22-.1-.64.13-.41-.59.13-.4-.41-.22-.56-.46l0-.16V5.86c.29-.11.22-.42.24-.68h0l.59,0h0a.31.31,0,0,0,.32.11A.55.55,0,0,0,10.85,5.51Zm-.14,5c0-.22-.05-.47-.28-.48s-.2.21-.19.39.07.5.27.51S10.69,10.69,10.71,10.5Z"/><path class="cls-8" d="M10.29,3.66l0,0v.06l-.06,0Z"/><path class="cls-3" d="M10.44,5.28a.31.31,0,0,1-.32-.11h.28A.21.21,0,0,1,10.44,5.28Z"/><polygon class="cls-3" points="12.42 3.32 12.45 3.29 12.43 3.34 12.42 3.32"/><path class="cls-10" d="M.56,9.59a.29.29,0,0,1-.29.13A.28.28,0,0,1,.56,9.59Z"/><path class="cls-10" d="M.25,9.74A.3.3,0,0,1,0,9.9.29.29,0,0,1,.25,9.74Z"/><path class="cls-4" d="M24.28,27a.28.28,0,0,0,0,.09l-.14.06Z"/><path class="cls-12" d="M25.83,14l.13-.1c.19-.06.24-.44.49-.35,0,0,0,.09,0,.14,0,.23-.12.53.22.51s.23.32.28.53c0,.43.26.31.44.37-.67.78-1,.75-1.66,0-.19-.24-.61-.25-.45-.8l.18.37C25.81,14.66,25.81,14.66,25.83,14Z"/><path class="cls-3" d="M27,14.74c0-.21,0-.54-.28-.53s-.23-.28-.22-.51c.87.56,1.09.44,1.33-.76.16,0,.33,0,.33.29,0,.66.27.23.44.15a1.31,1.31,0,0,0,.19,1.08h0a.35.35,0,0,0-.12.28v0l-.14.13a.67.67,0,0,1-.55.16.63.63,0,0,1,.08-.49.38.38,0,0,0,0-.47c-.14-.19-.24,0-.36.05C27.34,14.18,27.31,14.75,27,14.74Z"/><path class="cls-3" d="M23.93,16.9a.41.41,0,0,0-.4,0c-.44.19-.58-.07-.56-.58a1.3,1.3,0,0,1,.67-.4h.62l.14-.11h0c.11,0,.26,0,.31.12s-.09.19-.17.25c-.22.22-.55.28-.62.7Z"/><path class="cls-10" d="M25.88,17.07a.37.37,0,0,0-.14.45,3.11,3.11,0,0,1-1.68.33c.35-.42.71-.83,1.07-1.25.21.33.53.28.81.34A.52.52,0,0,0,25.88,17.07Z"/><path class="cls-3" d="M25.13,16.6c-.36.42-.72.83-1.07,1.25-.2.09-.42.12-.53-.13s.13-.37.24-.53a2.69,2.69,0,0,0,.16-.29h0c.41.05.65-.54,1.08-.47Z"/><path class="cls-10" d="M25,16.43c-.43-.07-.67.52-1.08.47.07-.42.4-.48.62-.7.08-.06.22-.09.17-.25s-.2-.1-.31-.12c0-.24.33-.49,0-.73l.38-.47C24.83,15.24,25.19,15.78,25,16.43Z"/><path class="cls-12" d="M22.2,14.48l.26-.55.12.06c-.22.65,0,.92.51,1,.12,0,.44-.13.39.25s-.24.5-.49.43-.65,0-.94-.19a.2.2,0,0,1,0-.08c.24,0,.47,0,.26-.42C22.29,14.8,22.25,14.63,22.2,14.48Z"/><path class="cls-8" d="M21.45,15.52c.12-.44-.1-.81-.15-1.22,0-.24-.12-.6.05-.67s.28.32.38.54a1.36,1.36,0,0,1,0,.29c-.07.41.28.57.33.9a.2.2,0,0,0,0,.08C21.85,15.49,21.66,15.66,21.45,15.52Z"/><path class="cls-8" d="M27,14.74c.34,0,.37-.56.7-.59.12,0,.22-.24.36-.05a.38.38,0,0,1,0,.47.63.63,0,0,0-.08.49l-.53,0C27.23,15.05,27,15.17,27,14.74Z"/><path class="cls-3" d="M24.77,14.63l-.38.47c-.15.07-.29.21-.47.14,0-.2.06-.39.1-.59a.51.51,0,0,1,.36-.44C24.63,14.16,24.73,14.36,24.77,14.63Z"/><path class="cls-8" d="M23.92,15.24c.18.07.32-.07.47-.14.35.24,0,.49,0,.73h0l-.14.11h-.62a1,1,0,0,1,.22-.6l.07-.13Z"/><path class="cls-12" d="M25.13,13.69v.16a7.47,7.47,0,0,0-1.94-.14l-.06-.09a.37.37,0,0,0,.05-.11l.51,0,.36,0,.71.1Z"/><path class="cls-3" d="M25.48,14.64l-.18-.37L25.24,14l0-.17a.38.38,0,0,1,.35.17A.94.94,0,0,1,25.48,14.64Z"/><path class="cls-3" d="M22.58,14l-.12-.06a.3.3,0,0,1,.33-.24v.15l-.05,0-.15.13Z"/><path class="cls-12" d="M22.79,13.84v-.15l.15-.08h.2l.06.09A.46.46,0,0,1,22.79,13.84Z"/><path class="cls-3" d="M27.18,16.47a.33.33,0,0,1-.31.14C26.94,16.44,27,16.4,27.18,16.47Z"/><path class="cls-3" d="M25.88,17.07a.52.52,0,0,1,.06-.13l.16,0Z"/><path class="cls-12" d="M28.64,14.75a.35.35,0,0,1,.12-.28A.28.28,0,0,1,28.64,14.75Z"/><path class="cls-12" d="M25.27,13.85l0,.17-.11-.17Z"/><path class="cls-12" d="M22.59,14l.15-.13Z"/><path class="cls-12" d="M28.49,14.9l.14-.13Z"/><path class="cls-3" d="M23.93,15.22l-.07.13Z"/><path class="cls-3" d="M26.83,16.65l-.11.1Z"/><polygon class="cls-3" points="26.21 16.89 26.17 16.91 26.18 16.87 26.21 16.89"/><path class="cls-3" d="M22.09,15.36c-.05-.33-.4-.49-.33-.9.14,0,.28.31.44,0,.05.15.09.32.15.46C22.56,15.38,22.33,15.37,22.09,15.36Z"/><path class="cls-3" d="M19.41,15.68h.15c-.08.23,0,.59-.37.58Z"/><path class="cls-3" d="M23.14,13.62h-.2c0-.15.13-.21.25-.1A.37.37,0,0,1,23.14,13.62Z"/><path class="cls-3" d="M24.06,13.44l-.36,0,.35-.11S24.06,13.41,24.06,13.44Z"/><path class="cls-4" d="M26,18.31v-.16a.61.61,0,0,1,0,.11A.09.09,0,0,1,26,18.31Z"/><path class="cls-3" d="M16.38,20.13l.3.23c.41.32.67.14.7-.46,0-.25,0-.51.12-.71,0,.56.12,1.07.72.93,0,.45-.51.35-.6.74C17.13,20.82,16.54,21.06,16.38,20.13Z"/><path class="cls-12" d="M17.62,20.86c.09-.39.56-.29.6-.74.19,0,.3.09.39.28C18.31,20.65,18.08,21.15,17.62,20.86Z"/><path class="cls-3" d="M17.51,18.91a.62.62,0,0,1,.22-.81A1.39,1.39,0,0,1,17.51,18.91Z"/><path class="cls-3" d="M17.77,18a.33.33,0,0,1,.1-.32A.31.31,0,0,1,17.77,18Z"/><path class="cls-3" d="M17.88,17.66l.11-.13Z"/><path class="cls-11" d="M18.79,22.2c-.1.26-.25.35-.47.28C18.43,22.26,18.39,21.64,18.79,22.2Z"/><path class="cls-3" d="M16.26,20l.14.14Z"/><path class="cls-8" d="M22.2,21.7l.26-.07c0,.07,0,.17-.08.2s-.41.41-.58.09.11-.48.3-.63c0,.13,0,.26,0,.39v0Z"/><path class="cls-8" d="M21.27,21.16c0-.1,0-.15.11-.16Z"/><path class="cls-8" d="M22.35,20.64c0,.19-.05.24-.17.25Z"/><path class="cls-3" d="M19.82,25.63l.21.07Z"/><path class="cls-3" d="M19.77,25.88s0-.09-.05-.14A.58.58,0,0,0,19.77,25.88Z"/><polygon class="cls-7" points="22.2 21.7 22.16 21.71 22.15 21.68 22.2 21.7"/><path class="cls-3" d="M18,16.91a1,1,0,0,1,.08-1.08,1.36,1.36,0,0,0,0,.17,1.62,1.62,0,0,0,.1.73Z"/><path class="cls-3" d="M5.77,11.12a2.91,2.91,0,0,0,1,0c.15,0,.4-.41.42.13,0,.35-.12.56-.43.58a8.13,8.13,0,0,0-1.3.18c-.45.11-.68.5-.71,1.08a.84.84,0,0,1,.34-1.2C5.39,11.71,5.77,11.67,5.77,11.12Z"/><path class="cls-10" d="M6.84,7.29c-.35.86-.62.08-1-.1a1.1,1.1,0,0,1-.39.8c-.23.2-.64.51-.38,1s.56.09.82-.07.26-.25.44-.22L6.11,9l-.46.25c-.29,0-.63.37-.85-.17a1.74,1.74,0,0,1,.47-1.39c.1-.12.37-.13.28-.4s-.34-.2-.53-.16c.05-.25.18-.3.36-.25s.26,0,.31-.23h.25C6.16,7.07,6.3,7.68,6.84,7.29Z"/><path class="cls-10" d="M10.24,7.13c.43-.15.86-.34,1.19.26-.07.15-.15.29-.21.45-.15.37-.25.81-.68.37-.13-.14-.3.15-.47,0C10.07,7.82,10.39,7.52,10.24,7.13Z"/><path class="cls-3" d="M5,7.17c.19,0,.43-.13.53.16s-.18.28-.28.4A1.74,1.74,0,0,0,4.8,9.12c-.11-.55-.31-.77-.72-.35-.08.08-.23.06-.34.09l0,0,0-.15h0L4,8.52H4c.54-.21.78-.79,1-1.34Z"/><path class="cls-3" d="M12.32,9.66A1.35,1.35,0,0,1,12.45,11c-.21.45-.65.28-1,.26s-.42-.26-.32-.63c.18.1.22.4.45.46.43.11.77-.27.74-.84C12.31,10.05,12.32,9.85,12.32,9.66Z"/><path class="cls-10" d="M7.34,7.3a3.1,3.1,0,0,0,0-1.25,1,1,0,0,1,.18-.9v.78l.08.23a2.72,2.72,0,0,1-.1,1.14Z"/><path class="cls-3" d="M9.53,9.55c.16.18.38.32.3.66,0,.14-.15.15-.25.14s-.49,0-.49-.46C9.34,10,9.72,10.34,9.53,9.55Z"/><path class="cls-3" d="M8.79,9.45a5,5,0,0,0-1.32-.21A.91.91,0,0,1,8.79,9.45Z"/><path class="cls-3" d="M7.12,9.29,6,9.82C6.25,9.24,6.69,9.3,7.12,9.29Z"/><path class="cls-3" d="M7.48,5.61V5.08c.38,0,.48.26.44.68C7.8,5.62,7.72,5.25,7.48,5.61Z"/><path class="cls-3" d="M7.34,7.3h.12a.9.9,0,0,1-.58.91l0-.15h0a.64.64,0,0,0,.34-.47h0a.29.29,0,0,0,.14-.29Z"/><path class="cls-3" d="M9.54,5.18c0,.26.05.57-.24.68C9.3,5.59,9.22,5.27,9.54,5.18Z"/><path class="cls-3" d="M5.62,10.34l0,.61c-.27-.08-.23-.35-.23-.6Z"/><path class="cls-3" d="M10.12,5.17l-.59,0C9.72,4.63,9.92,5,10.12,5.17Z"/><path class="cls-3" d="M9.72,9a.36.36,0,0,1-.19.5C9.52,9.26,9.53,9.07,9.72,9Z"/><path class="cls-3" d="M5.65,9.29,6.11,9C6,9.35,5.91,9.51,5.65,9.29Z"/><path class="cls-10" d="M6.86,8.06l0,.15-.27.16C6.63,8.18,6.71,8.08,6.86,8.06Z"/><path class="cls-3" d="M9.29,5.92l0,.16L9.17,6Z"/><path class="cls-3" d="M3,8.23l0,.28L3,8.37Z"/><path class="cls-3" d="M3.09,8.57l.13-.05h0V8.7C3.13,8.74,3.1,8.67,3.09,8.57Z"/><path class="cls-10" d="M3.22,8.7V8.52a.24.24,0,0,1,.25.16Z"/><path class="cls-3" d="M3.74,8.86c-.06.13-.12.15-.18,0l0,0h.12Z"/><path class="cls-3" d="M12.06,8.82l.12.31Z"/><path class="cls-3" d="M5.62,10.34H5.41l.24-.15A.32.32,0,0,1,5.62,10.34Z"/><path class="cls-3" d="M5.65,11l.11.15Z"/><path class="cls-3" d="M2.48,10.39l-.11-.19Z"/><path class="cls-3" d="M5.76,10l-.11.16Z"/><path class="cls-3" d="M5.9,9.89,5.77,10Z"/><path class="cls-3" d="M9,9.74l-.12-.15Z"/><path class="cls-3" d="M12.19,9.35l.13.25Z"/><path class="cls-3" d="M12,8.61l.11.21Z"/><path class="cls-3" d="M3.48,8.75s0-.06,0-.07l.06.14,0,0A.19.19,0,0,1,3.48,8.75Z"/><path class="cls-10" d="M6.36,8.66l.13-.15Z"/><path class="cls-10" d="M6.49,8.51l.13-.14Z"/><path class="cls-3" d="M7.56,6.16l-.08-.23Z"/><path class="cls-6" d="M2.9,19.11a.88.88,0,0,0,0-.17l1-.24c.15.21,0,.28-.11.34-.37-.09-.58.31-.88.44l0-.14Z"/><path class="cls-3" d="M2.52,18.05a.41.41,0,0,1,0,.58Z"/><path class="cls-4" d="M2.88,19.34l0,.14-.17,0Z"/><path class="cls-3" d="M6,22.84c-.12-.13-.24-.37-.4-.24-.51.46-1.2.27-1.67.8a.7.7,0,0,1-.56.21A6.32,6.32,0,0,0,4,21.88,1.37,1.37,0,0,0,3.83,21a3.05,3.05,0,0,1-.08-.66c0-.23.08-.5.33-.18s.59.28.91.09a1.17,1.17,0,0,1,.79-.15,2,2,0,0,0,.11.73A4.22,4.22,0,0,1,6,22.84Z"/><path class="cls-3" d="M5.78,20.11a1.17,1.17,0,0,0-.79.15l-.15-.33-.15-.15h0a.18.18,0,0,0,0-.13l0-.3c-.09-.45.34-.67.31-1.09l.77-.64A4.63,4.63,0,0,1,6.52,19c-.3.05-.4.29-.38.64v0L6,19.8H6L5.89,20h0l-.13.16Z"/><path class="cls-12" d="M5,18.25c0,.42-.4.64-.31,1.09-.37.27-.67.28-.85-.3.15-.06.26-.13.11-.34L4,18.58l.32-.17Z"/><path class="cls-12" d="M4.67,19.64a.18.18,0,0,1,0,.13.35.35,0,0,1,0-.08S4.66,19.66,4.67,19.64Z"/><path class="cls-12" d="M4.69,19.78l.15.15Z"/><path class="cls-5" d="M4,18.58l-.06.12-1,.24a8.68,8.68,0,0,0,0-1.25,4.79,4.79,0,0,1,1.65-3.23c.34-.31.64-.69,1-1L6.61,13a3.45,3.45,0,0,0-.19,1.29c.06.3-.14.29-.29.32a.58.58,0,0,0-.5.19l-.08.12a2.29,2.29,0,0,0-.19.79c-.21.32-.17,1.06-.78.7-.07,0-.11.22-.1.37A3.14,3.14,0,0,0,4,18.58Z"/><path class="cls-7" d="M2.14,10c0,.16.09.33.14.5a.52.52,0,0,1-.3.64c-.23.12-.34-.14-.38-.35a4,4,0,0,1-.1-1c0-.47.27,0,.4-.13h0a.3.3,0,0,0,.24.31Z"/><path class="cls-11" d="M3.4,21.47c.21.32.34.63,0,.91C3.37,22.08,3.39,21.77,3.4,21.47Z"/><path class="cls-11" d="M3.22,22.54c-.12.38-.24.35-.36,0Z"/><path class="cls-11" d="M3.34,22.4l-.11.13Z"/><path class="cls-12" d="M2.13,22.7c.27.14.26.29,0,.45Z"/><path class="cls-9" d="M10.05,19c.19.66-.09.81-.54.78h0c.11-.28.1-.51-.15-.65-.41-.23-.24.47-.49.49s-.5.18-.35-.44c.09-.36.12-.75.21-1.14A3.25,3.25,0,0,0,9,16.28c.07-.34,0-.72.14-1h.1a14.4,14.4,0,0,1,.26,2.54C9.59,18.26,9.46,18.88,10.05,19Z"/><path class="cls-8" d="M12.66,15.38c.16.88.07,1.86.7,2.54-.54.13-1,0-1.14-.75-.06-.23-.13-.44-.37-.41s-.35.23-.43.48a4.36,4.36,0,0,0-.05,1.57l-.27.09c0-.47.05-.95.09-1.43s-.08-.27-.22-.12l0-.19A3.46,3.46,0,0,1,12.66,15.38Z"/><path class="cls-5" d="M7.68,20.78V21a.33.33,0,0,0-.16.38c-.19.39-.44-.07-.65.06l-.14-.07L6.81,21c.21-.56,0-.77-.42-.8l.21-.59s0-.08,0-.12c.21-.06.23-.37.39-.5l.33.42a.53.53,0,0,0,.11.39l.14.61Z"/><path class="cls-10" d="M6.6,19.62l-.21.59a.38.38,0,0,0-.26.35,5.05,5.05,0,0,0,.24,1.09l.24.17c-.22.53-.15.85.38.84-.29.3-.76.07-1,.51,0-.11,0-.22,0-.33a4.22,4.22,0,0,0-.11-2,2,2,0,0,1-.11-.73h0L5.9,20h0L6,19.79H6l.13-.16v0l.11-.05Z"/><path class="cls-10" d="M7.45,19.81a.53.53,0,0,1-.11-.39,7.53,7.53,0,0,0,0-2.37l0-.06c.17.25,0,.71.37.85a10.65,10.65,0,0,0,.34,2.83c.1.38.19.89.68.74l.06.06c-.25.41-.47.26-.66-.07s-.29-.59-.43-.88a.57.57,0,0,0,0-.13C7.79,20.08,7.76,19.86,7.45,19.81Z"/><path class="cls-9" d="M11.1,18.9l.27-.09a1.11,1.11,0,0,1,.35-.08c.26,0,.56-.27.78.11.08.15,0,.37-.08.4-.33.09-.54.72-1,.39a1.06,1.06,0,0,0-.34-.12l0-.31Z"/><path class="cls-3" d="M7,22.66c-.53,0-.6-.31-.38-.84a.42.42,0,0,0,.25-.43c.21-.13.46.33.65-.06a2.34,2.34,0,0,1,.07.75h0l-.11.16h0l-.11.14h0l-.13.15h0l-.15.13H7Z"/><path class="cls-9" d="M9.51,19.79c.24.79-.25,1.12-.61,1.53l-.12,0c.06-.28.28-.53,0-.84s0-.43.15-.58.4-.06.6-.08Z"/><path class="cls-10" d="M10.05,19c-.59-.13-.46-.75-.52-1.23.31.17.82,0,.76.81,0,.15.19,0,.28-.06l.06.07A.47.47,0,0,1,10.05,19Z"/><path class="cls-9" d="M12.42,20.34a2,2,0,0,1,0,.24l-1.83.66a.38.38,0,0,1,.1-.6l.17,0,.31-.06.26-.06.47-.1.13,0Z"/><path class="cls-8" d="M10.9,20.6l-.17,0a2.34,2.34,0,0,1,.34-1.44l0,.31A2.67,2.67,0,0,0,10.9,20.6Z"/><path class="cls-10" d="M10.93,17.16l0,.19c-.05.37.06.8-.24,1.08l-.06-.06C10.79,18,10.65,17.5,10.93,17.16Z"/><path class="cls-8" d="M7.58,22.08a2.34,2.34,0,0,0-.07-.75A.33.33,0,0,1,7.67,21,1,1,0,0,1,7.58,22.08Z"/><path class="cls-8" d="M5.64,23.59,6,23.21a.53.53,0,0,1-.34.57l0,0Z"/><path class="cls-8" d="M4.7,24.61l-.11-.05.09,0S4.69,24.58,4.7,24.61Z"/><path class="cls-10" d="M5.14,24a.23.23,0,0,1,.25-.16A.21.21,0,0,1,5.14,24Z"/><path class="cls-8" d="M7.7,20.39a.57.57,0,0,1,0,.13l0,.26-.09-.36Z"/><path class="cls-10" d="M7.06,22.66l.15-.13Z"/><path class="cls-10" d="M7.21,22.53l.13-.15Z"/><path class="cls-10" d="M5.38,23.86l.12-.13v.17Z"/><path class="cls-8" d="M5.51,23.9v-.17h0l.13,0,0,0Z"/><path class="cls-8" d="M7.35,22.38l.11-.14Z"/><path class="cls-8" d="M7.47,22.23l.11-.16Z"/><path class="cls-10" d="M10.73,18.43l-.1.17-.05-.07.09-.16Z"/><path class="cls-10" d="M8.78,21.3l.12,0-.1.15-.06-.06A.49.49,0,0,0,8.78,21.3Z"/><path class="cls-3" d="M3.63,25.22l.82-.31a1.75,1.75,0,0,0-.13,1.48c.06.27,0,.45-.17.52s-.29-.13-.32-.38C3.77,26.09,3.7,25.66,3.63,25.22Z"/><path class="cls-3" d="M3,24.66c.3-.23.64-.11,1-.11a.62.62,0,0,1-.43.23Z"/><path class="cls-3" d="M4,24.55a.58.58,0,0,1,.59-.32A.9.9,0,0,1,4,24.55Z"/><path class="cls-3" d="M4.56,24.22l.17-.11Z"/><path class="cls-9" d="M18.92,11.59,17.51,12a8.12,8.12,0,0,0,.66-1.57c0-.13.11-.37.23-.24.44.45.46-.23.67-.37.41.6.41.6,0,1.56Z"/><path class="cls-6" d="M14.36,12.16a2.29,2.29,0,0,1,.23-1c.14-.31.44-.49.59-.31.34.43.69.08,1,.15a1.35,1.35,0,0,1-1.28.89c-.21,0-.31.17-.45.29Z"/><path class="cls-10" d="M19.08,6.92s0,.1.05.16c-.39.35-.24.61.1.79a4.65,4.65,0,0,0,.63.21c0,.05,0,.1,0,.15-.16.26-.36.4-.62.25s-.33-.15-.46,0c-.28.28-.3,0-.44-.21s-.23-.51,0-.76A1.72,1.72,0,0,1,19.08,6.92Z"/><path class="cls-6" d="M16.23,11c-.41-.43-.18-.73.16-.91s.43-.08.51-.4c.38-.17.65-.67,1.19-.45Z"/><path class="cls-4" d="M15.2,12.63c-.27.21-.53.31-.74-.11C14.71,12.5,15,12.42,15.2,12.63Z"/><path class="cls-3" d="M20.78,8.83l.19.05.05.24C20.88,9.11,20.8,9,20.78,8.83Z"/><path class="cls-3" d="M20.52,8.54l.2,0c0,.08,0,.16.05.24C20.63,8.8,20.55,8.71,20.52,8.54Z"/><path class="cls-3" d="M21.1,9.43c0,.12,0,.2-.1.22Z"/><path class="cls-4" d="M14.36,12.16l.12,0,0,.31Z"/><path class="cls-4" d="M15.59,12.51l-.15.06Z"/><path class="cls-3" d="M20.8,9.77c-.06.09-.12.09-.19,0Z"/><path class="cls-6" d="M16.66,9.71a.35.35,0,0,1-.09-.07A.28.28,0,0,1,16.66,9.71Z"/><path class="cls-3" d="M20.38,8.26a.17.17,0,0,1,0,.1.12.12,0,0,1-.07-.07A.17.17,0,0,1,20.38,8.26Z"/><path class="cls-3" d="M19.84,8.23c0-.05,0-.1,0-.15l.07,0,.05.12Z"/><path class="cls-3" d="M28.57,13.38c-.17.08-.42.51-.44-.15,0-.26-.17-.28-.33-.29v-.59l.11,0c.22.17.33.06.36-.23s0-.44,0-.67l.57.76c.06.24.12.48.17.72C28.81,12.93,28.7,13.17,28.57,13.38Z"/><path class="cls-3" d="M26.45,13.56c-.25-.09-.3.29-.49.35,0-.24,0-.52.27-.6S26.43,13.4,26.45,13.56Z"/><path class="cls-3" d="M25.48,14.64a.94.94,0,0,0,.14-.62h.21C25.81,14.66,25.81,14.66,25.48,14.64Z"/><path class="cls-3" d="M25.13,13.69l-.36-.15C25,13.36,25.07,13.42,25.13,13.69Z"/><path class="cls-3" d="M22.94,7.58c-.09-.36-.41-.24-.57-.44l0-.15c.18-.22.53-.06.63-.45.29.18.5.12.6-.29.72,0,.47.57.36,1A1,1,0,0,1,22.94,7.58Z"/><path class="cls-10" d="M23.92,7.3c.11-.48.36-1-.36-1V5.81c.14-.06.34,0,.4-.29l.15.05c0,.48,0,1,.07,1.45C24.12,7.16,24.05,7.27,23.92,7.3Z"/><path class="cls-3" d="M25.74,5.91l.21,0a1.47,1.47,0,0,1-.76,1.54c0-.2.1-.4.16-.6l.28-.29C25.81,6.36,25.71,6.12,25.74,5.91Z"/><path class="cls-3" d="M25.13,7.46a.29.29,0,0,1-.24.29A.28.28,0,0,1,25.13,7.46Z"/><path class="cls-3" d="M24.85,8c.07.17,0,.14-.1.15Z"/><path class="cls-3" d="M24.39,9l-.15.22A.22.22,0,0,1,24.39,9Z"/><path class="cls-3" d="M24.51,8.74,24.4,9Z"/><path class="cls-3" d="M24.63,8.3l-.12.22Z"/><path class="cls-8" d="M23.55,5.81v.44c-.1.41-.31.47-.6.29s-.45-.66-.85-.62h0c.16-.4.45-.31.72-.27Z"/><path class="cls-8" d="M18.6,12.19l.11-.17.1.1.06.11a.73.73,0,0,0,.58.87c0,.11,0,.23-.05.34l-.23,0c-.21,0-.2.27-.29.41-.3.47-.49,1.13-1.12,1a.22.22,0,0,0-.05-.08l.06-1,.22-.46.1-.19h0l.11-.18h0c.19-.06.26-.22.26-.45h0A.34.34,0,0,0,18.6,12.19Z"/><path class="cls-3" d="M17.76,14.81c.63.14.82-.52,1.12-1,.09-.14.08-.4.29-.41a1.42,1.42,0,0,1,.14.74h0a.13.13,0,0,0-.12.15h0c-.07,0-.11.07-.11.16h0c-.23.09-.29.36-.37.6h0l-.17.16h0c-.24.16-.28.47-.35.76h-.05a1.36,1.36,0,0,1,0-.17C18.4,15.27,18,15.09,17.76,14.81Z"/><path class="cls-10" d="M18.71,15.06c.08-.24.14-.51.37-.6C19.08,14.78,19,15,18.71,15.06Z"/><path class="cls-10" d="M19.31,14.15a1.42,1.42,0,0,0-.14-.74l.23,0C19.44,13.69,19.51,14,19.31,14.15Z"/><path class="cls-10" d="M18.18,16c.07-.29.11-.6.35-.76C18.48,15.53,18.47,15.86,18.18,16Z"/><path class="cls-10" d="M19.2,14.3a.13.13,0,0,1,.12-.15Z"/><path class="cls-10" d="M19.08,14.46c0-.09,0-.15.11-.16Z"/><path class="cls-10" d="M18.54,15.22l.17-.16Z"/><path class="cls-10" d="M22.11,5.92c.4,0,.51.54.85.62-.1.39-.45.23-.63.45C22.07,6.7,22.2,6.27,22.11,5.92Z"/><path class="cls-8" d="M19.09,12.17l-.22.06-.06-.11a2.11,2.11,0,0,0,0-.26h0l.43,0Z"/><path class="cls-7" d="M19.93,8.05l-.07,0a4.65,4.65,0,0,1-.63-.21c-.34-.18-.49-.44-.1-.79l.41.16C19.67,7.51,20,7.61,19.93,8.05Z"/><path class="cls-3" d="M26,5.92l.13-.23Z"/><path class="cls-8" d="M13.76,17.91a3.45,3.45,0,0,1,.13-1.5l.79-.54a.39.39,0,0,1,.6.13c.17.21.05.43,0,.63A2.45,2.45,0,0,1,13.76,17.91Z"/><path class="cls-3" d="M17.77,13.71l-.06,1A1,1,0,0,1,17.77,13.71Z"/><path class="cls-10" d="M18.44,12.44c0,.23-.07.39-.26.45A.59.59,0,0,1,18.44,12.44Z"/><path class="cls-3" d="M15,19.83l-.35-.09A.21.21,0,0,1,15,19.83Z"/><path class="cls-10" d="M18.83,11.86a2.11,2.11,0,0,1,0,.26l-.1-.1Z"/><path class="cls-3" d="M14.46,14.85a.17.17,0,0,1-.23-.08Z"/><path class="cls-10" d="M18.6,12.19a.34.34,0,0,1-.16.26Z"/><path class="cls-3" d="M15.45,14c0,.09,0,.22-.11.13Z"/><polygon class="cls-3" points="15.87 13.69 15.86 13.74 15.85 13.69 15.87 13.69"/><path class="cls-10" d="M18.09,13.06l-.1.19Z"/><path class="cls-10" d="M18.19,12.89l-.11.18Z"/><path class="cls-3" d="M15.33,20.11,15.14,20Z"/><path class="cls-4" d="M11.47,20.48l-.26.06A.21.21,0,0,1,11.47,20.48Z"/><path class="cls-4" d="M12.07,20.36l-.13,0Z"/><path class="cls-3" d="M29.25,17.5c.05.32.2.4.43.29s.4-.17.66-.27c-.22.71-.69.74-1.12.86C29.29,18.09,29,17.78,29.25,17.5Z"/><path class="cls-3" d="M28.12,19.47l.14.28c0,.23-.14.35-.33.35C27.93,19.86,27.91,19.61,28.12,19.47Z"/><path class="cls-3" d="M27.36,20.89c0,.21-.11.35-.29.38C27.1,21.07,27.17,20.91,27.36,20.89Z"/><path class="cls-3" d="M27.78,20.43c0,.16-.09.23-.21.22S27.66,20.43,27.78,20.43Z"/><path class="cls-3" d="M28.32,19l-.17.3A.34.34,0,0,1,28.32,19Z"/><path class="cls-3" d="M28.64,18.73l-.23.2A.24.24,0,0,1,28.64,18.73Z"/><path class="cls-3" d="M28.87,18.57a.22.22,0,0,1-.23.15A.26.26,0,0,1,28.87,18.57Z"/><path class="cls-3" d="M29.13,18.41l-.24.15A.25.25,0,0,1,29.13,18.41Z"/><path class="cls-3" d="M27.92,20.12c0,.1,0,.2-.11.24A.24.24,0,0,1,27.92,20.12Z"/><path class="cls-3" d="M26.93,21.35l0,0h-.05C26.87,21.36,26.89,21.34,26.93,21.35Z"/><polygon class="cls-3" points="27.48 20.72 27.48 20.76 27.45 20.75 27.48 20.72"/><path class="cls-4" d="M27.89,22.91c-.53.27-.85.88-1.29,1.29l-.15-.3a1.92,1.92,0,0,1,.82-1.56,7.12,7.12,0,0,0,.74-.82c-.09.35.28.61.13,1A.45.45,0,0,0,27.89,22.91Z"/><path class="cls-3" d="M28.14,22.49c.15-.36-.22-.62-.13-1s.35-1,.88-.95c0,.5-.35.94-.18,1.48v0l0,0,.15,0a2.33,2.33,0,0,1-.48,1.36C28.33,23.12,28.48,22.7,28.14,22.49Z"/><path class="cls-3" d="M26,22.69a.27.27,0,0,1,.11-.27C26.13,22.56,26.09,22.65,26,22.69Z"/><path class="cls-4" d="M25.75,22.88c0-.12,0-.15.12-.07Z"/><path class="cls-3" d="M26.13,22.37c0-.05,0-.09.05-.09v.07Z"/><path class="cls-12" d="M26.25,22.1l.12,0-.13.1A.2.2,0,0,1,26.25,22.1Z"/><path class="cls-4" d="M25.32,26.27c-.33.25-.61.65-1,.68.1-.64.53-.89.9-1.2C25.45,25.82,25.46,26,25.32,26.27Z"/><path class="cls-4" d="M25.19,25.16l-.3.12a1.12,1.12,0,0,1,.44-.61C25.43,24.89,25.28,25,25.19,25.16Z"/><path class="cls-5" d="M25.63,24.24l0,0a0,0,0,0,1,0,0l0,0Z"/><path class="cls-10" d="M5.64,23.75l-.13,0,.13-.14Z"/><path class="cls-10" d="M2.14,10a.3.3,0,0,1-.24-.31A.38.38,0,0,1,2.14,10Z"/><path class="cls-11" d="M5.94,6.7H5.69c-.13-.06-.25-.13-.37-.2s0-.16-.05-.23c.25-.09.49-.19.74-.26s.35-.14.43.08-.14.3-.26.41Z"/><path class="cls-10" d="M5,7.18c-.26.55-.5,1.13-1,1.34A2.42,2.42,0,0,1,5,7.18Z"/><path class="cls-8" d="M5.27,6.26c0,.07,0,.15.05.23l-.91.16c0-.09,0-.16,0-.24Z"/><path class="cls-10" d="M3.59,8.82l-.06-.14h.23a.88.88,0,0,0,0,.15H3.59Z"/><path class="cls-10" d="M4,8.52l-.17.14Z"/><path class="cls-10" d="M6.85,5.89a1,1,0,0,1,.08,1.24A4.27,4.27,0,0,0,6.85,5.89Z"/><path class="cls-8" d="M6.76,4.61a.14.14,0,0,1,.11,0v.2l-.13,0Z"/><path class="cls-12" d="M28.14,22.49c.34.21.19.63.27,1l0,.17-.06,0c-.17-.05-.28.13-.42.18a1,1,0,0,0-.06-.91A.45.45,0,0,1,28.14,22.49Z"/><path class="cls-12" d="M28,24.69l-.13.46h-.29l-.07-.87c.13-.14.25-.28.38-.41A1.59,1.59,0,0,0,28,24.69Z"/><path class="cls-5" d="M28,24.69a1.59,1.59,0,0,1-.11-.81l0-.06c.14-.05.25-.23.42-.18A1.25,1.25,0,0,1,28,24.69Z"/><path class="cls-3" d="M27.61,25.16h.29l0,.37-.21.19-.22.17-.22,0C26.94,25.31,27.44,25.38,27.61,25.16Z"/><path class="cls-10" d="M28.43,23.62l0-.17a2.33,2.33,0,0,0,.48-1.36l.35-.09c-.19.65-.39,1.31-.59,2C28.61,23.81,28.57,23.67,28.43,23.62Z"/><polygon class="cls-10" points="28.74 22.06 28.72 22.09 28.71 22.05 28.74 22.06"/><path class="cls-11" d="M24.77,5.32H25a.66.66,0,0,1,0,.14Z"/><path class="cls-3" d="M10.67,18.37l-.09.16c-.1,0-.3.21-.29.06.06-.78-.45-.64-.76-.81a14.4,14.4,0,0,0-.26-2.54c0-.15.11-.31.25-.2.55.44.9-.19,1.3-.42s.2-1-.06-1c-.6-.12-1.19-.6-1.81-.28a3.48,3.48,0,0,1-2.33.38c0-.52.45-.76.61-1.21h0l.13-.16h0l.13-.17v0c.26-.38.76-.47.85-1.07h0l.23,0h.38l.1.16.13.15.14.16h0l.15.16a.09.09,0,0,1,.09,0c0,.16.11.26.24.28l.12.13.13.19.36.25c.12.17,0,.61.35.51l.24,0,.26.17.31,0H12c.31,0,.45-.52.79-.39.39.43.2,1.05.15,1.47s.12.83-.24,1.07a3.46,3.46,0,0,0-1.73,1.78C10.65,17.5,10.79,18,10.67,18.37Z"/><path class="cls-6" d="M14,9.43c-.38-.38-1-.54-.85-1.43,0-.24.05-.45.25-.53s.4,0,.51.29c.2.44.38.89.57,1.34A.48.48,0,0,1,14,9.43Z"/><path class="cls-4" d="M15.87,10.12c-.08.21-.24.22-.4.21s-.21-.06-.18-.21.24-.23.39-.22S15.87,10,15.87,10.12Z"/><path class="cls-10" d="M7.2,7.59a.64.64,0,0,1-.34.47A.46.46,0,0,1,7.2,7.59Z"/><path class="cls-10" d="M7.34,7.3a.29.29,0,0,1-.14.29A.32.32,0,0,1,7.34,7.3Z"/><path class="cls-8" d="M6.9,4.54a.66.66,0,0,1,0-.14S6.9,4.49,6.9,4.54Z"/><path class="cls-3" d="M7.82,4.1c.12,0,.24-.06.34.05a.46.46,0,0,1,.13.45.3.3,0,0,1-.17.18c-.17,0-.24-.14-.27-.32a2.1,2.1,0,0,1,0-.36Z"/><path class="cls-11" d="M7.23,12.49c-.16.45-.56.69-.61,1.21a2.05,2.05,0,0,0,.6,1.67l.23.37a.5.5,0,0,0,0,.12A3.07,3.07,0,0,0,7.35,17l0,.06a1.23,1.23,0,0,1-1-1.58.88.88,0,0,0-.17-.86c.15,0,.35,0,.29-.32A3.45,3.45,0,0,1,6.61,13,.81.81,0,0,1,7.23,12.49Z"/><path class="cls-3" d="M8.93,11.1H8.54l-.09-.21c-.27-.45-.46.15-.7.09-.11-.33-.34-.7,0-1s.6,0,.83.33A2,2,0,0,1,8.93,11.1Z"/><path class="cls-3" d="M10.71,10.5c0,.19-.06.43-.2.42s-.26-.27-.27-.51,0-.4.19-.39S10.7,10.28,10.71,10.5Z"/><path class="cls-12" d="M7.75,11c.24.06.43-.54.7-.09l-.14.24h0c-.3,0-.42.37-.69.39Z"/><path class="cls-11" d="M7.63,11.51c.27,0,.39-.44.69-.39-.09.6-.59.69-.85,1.07A1.58,1.58,0,0,1,7.63,11.51Z"/><path class="cls-3" d="M10.72,13.1c-.36.1-.23-.34-.35-.51C10.7,12.51,10.61,12.93,10.72,13.1Z"/><path class="cls-3" d="M9.76,12c-.13,0-.21-.12-.24-.28C9.67,11.73,9.74,11.85,9.76,12Z"/><path class="cls-3" d="M11.22,13.24,11,13.07C11.14,12.9,11.17,13.09,11.22,13.24Z"/><path class="cls-3" d="M12,13.23h-.43C11.68,13.05,11.82,13.07,12,13.23Z"/><path class="cls-11" d="M7.35,12.33l-.13.16Z"/><path class="cls-3" d="M10,12.34l-.13-.19Z"/><path class="cls-11" d="M7.47,12.17l-.13.17Z"/><path class="cls-3" d="M9.43,11.71l-.15-.16Z"/><path class="cls-3" d="M9.29,11.56l-.14-.16Z"/><path class="cls-3" d="M9,11.25l-.1-.16Z"/><path class="cls-10" d="M24.26,15.94l.14-.11Z"/><path class="cls-4" d="M4.48,16.78c0-.15,0-.41.1-.37.61.36.57-.38.78-.7a3,3,0,0,0,.53,1.2l-.16.7L5,18.25l-.67.16A2.23,2.23,0,0,0,4.48,16.78Z"/><path class="cls-12" d="M5.73,17.61l.16-.7A7.22,7.22,0,0,1,7,19c-.16.13-.18.44-.39.5l-.09-.37a.14.14,0,0,0,0-.11A4.63,4.63,0,0,0,5.73,17.61Z"/><path class="cls-3" d="M6.52,19a.14.14,0,0,1,0,.11l-.28.48-.11.05C6.12,19.31,6.22,19.07,6.52,19Z"/><path class="cls-3" d="M6.14,19.64,6,19.8Z"/><path class="cls-3" d="M6,19.79,5.89,20Z"/><path class="cls-3" d="M5.9,20l-.13.16Z"/><path class="cls-3" d="M4.48,16.78a2.23,2.23,0,0,1-.19,1.63L4,18.58A3.14,3.14,0,0,1,4.48,16.78Z"/><path class="cls-3" d="M7,19a7.22,7.22,0,0,0-1.12-2.09,3,3,0,0,1-.53-1.2,2.29,2.29,0,0,1,.19-.79l.08-.12a.58.58,0,0,1,.5-.19.88.88,0,0,1,.17.86,1.23,1.23,0,0,0,1,1.58,7.53,7.53,0,0,1,0,2.37Z"/><path class="cls-11" d="M5.63,14.8l-.08.12Z"/><path class="cls-3" d="M7.22,15.37a2.05,2.05,0,0,1-.6-1.67A3.48,3.48,0,0,0,9,13.32c.62-.32,1.21.16,1.81.28.26.05.32.88.06,1s-.75.86-1.3.42c-.14-.11-.21.05-.25.2H9.16c-.14-.19-.27-.16-.39,0-.39.07-.81-.73-1.16.1Z"/><path class="cls-3" d="M8.78,21.3a.49.49,0,0,1,0,.11c-.49.15-.58-.36-.68-.74a10.65,10.65,0,0,1-.34-2.83v0l.11-.16.24-.3a1.6,1.6,0,0,0,.85-1.06l.12,0a3.25,3.25,0,0,1-.29,1.78c-.09.39-.12.78-.21,1.14-.15.62.14.42.35.44l0,.24c-.16.15-.36.34-.15.58S8.84,21,8.78,21.3Z"/><path class="cls-3" d="M9,16.28l-.12,0H8.79l-.29-.17a.14.14,0,0,0-.09,0l.05-.22a.9.9,0,0,0,.31-.61c.12-.2.25-.23.39,0C9,15.56,9.1,15.94,9,16.28Z"/><path class="cls-7" d="M8.92,19.88l0-.24c.25,0,.08-.72.49-.49.25.14.26.37.15.65C9.32,19.82,9.11,19.76,8.92,19.88Z"/><path class="cls-8" d="M6.13,20.56a.38.38,0,0,1,.26-.35c.42,0,.63.24.42.8L6.5,21C6.5,20.73,6.4,20.53,6.13,20.56Z"/><path class="cls-8" d="M6.86,21.39a.42.42,0,0,1-.25.43l-.24-.17.12-.49.23.16Z"/><path class="cls-3" d="M6.25,19.61l.28-.48.09.37s0,.08,0,.12Z"/><path class="cls-7" d="M7.7,20.39l-.11,0c0-.2-.09-.41-.14-.61C7.76,19.86,7.79,20.08,7.7,20.39Z"/><path class="cls-10" d="M6.72,21.32l-.23-.16s0-.09,0-.13l.31,0Z"/><path class="cls-7" d="M6.5,21s0,.09,0,.13l-.12.49a5.05,5.05,0,0,1-.24-1.09C6.4,20.53,6.5,20.73,6.5,21Z"/><path class="cls-8" d="M8.46,15.9l-.05.22a.37.37,0,0,0-.19.51c.1.31-.06.51-.16.73l-.24.3-.11.16v0c-.33-.14-.2-.6-.37-.85a3.07,3.07,0,0,1,.12-1.13c.17,0,.24-.24.35-.38s.23,0,.24.19l-.12.15,0,0,0,0,0,0,.12-.15A.45.45,0,0,1,8.46,15.9Z"/><path class="cls-11" d="M8.31,11.12l.14-.24.09.21Z"/><path class="cls-10" d="M8.06,15.67c0-.21,0-.46-.24-.19s-.18.33-.35.38a.5.5,0,0,1,0-.12l.16-.35c.35-.83.77,0,1.16-.1a.9.9,0,0,1-.31.61.45.45,0,0,0-.39-.21Z"/><path class="cls-3" d="M7.61,15.39l-.16.35-.23-.37Z"/><path class="cls-10" d="M8.06,17.36c.1-.22.26-.42.16-.73a.37.37,0,0,1,.19-.51.14.14,0,0,1,.09,0c-.06.47.14.25.29.17h.12A1.6,1.6,0,0,1,8.06,17.36Z"/><path class="cls-10" d="M7.71,17.82l.11-.16Z"/><path class="cls-3" d="M8.79,16.29c-.15.08-.35.3-.29-.17Z"/><path class="cls-10" d="M8,15.84l0,0,0,0,0,0Z"/><path class="cls-10" d="M7.94,15.82l.12-.15v0L8,15.84Z"/></g><path class="cls-13" d="M15,2.5A12.5,12.5,0,1,1,2.5,15,12.5,12.5,0,0,1,15,2.5M15,1A14,14,0,1,0,29,15,14,14,0,0,0,15,1Z"/></svg>