<svg id="Livello_1" data-name="Livello 1" xmlns="http://www.w3.org/2000/svg" xmlns:xlink="http://www.w3.org/1999/xlink" viewBox="0 0 30 30"><defs><style>.cls-1,.cls-6,.cls-7{fill:none;}.cls-2{clip-path:url(#clip-path);}.cls-3{fill:#888995;}.cls-4{fill:#b7bcbb;}.cls-5{fill:#932032;}.cls-6{stroke:#fff;stroke-width:1.19px;}.cls-6,.cls-7{stroke-miterlimit:10;}.cls-7{stroke:#463d42;stroke-width:0.44px;}.cls-8{fill:#d1d1d1;}</style><clipPath id="clip-path"><circle class="cls-1" cx="15" cy="15" r="12.5"/></clipPath></defs><g class="cls-2"><circle class="cls-3" cx="15" cy="15" r="12.5"/><rect class="cls-4" x="-4.3" y="22.12" width="21.15" height="3.77" transform="translate(13.79 0.35) rotate(32.27)"/><rect class="cls-4" x="13.15" y="22.12" width="21.15" height="3.77" transform="translate(57.21 28.23) rotate(141.85)"/><rect class="cls-5" x="-1.58" y="12.56" width="21.15" height="4.04" transform="translate(-2.61 27.18) rotate(-105.68)"/><polyline class="cls-6" points="3.57 1.28 6.65 2.7 5.18 5 7.63 6.19 6.15 8.47 8.6 9.62 7.1 11.86 9.56 13.06 8.09 15.36 10.53 16.51 9.01 18.79 11.49 19.93 10.01 22.22 12.42 23.38 10.65 26.13"/><polyline class="cls-7" points="3.57 1.28 6.65 2.7 5.18 5 7.63 6.19 6.15 8.47 8.6 9.62 7.1 11.86 9.56 13.06 8.09 15.36 10.53 16.51 9.01 18.79 11.49 19.93 10.01 22.22 12.42 23.38 10.65 26.13"/><rect class="cls-5" x="10.35" y="12.56" width="21.15" height="4.04" transform="translate(1.24 30.79) rotate(-74.32)"/><polyline class="cls-6" points="26.36 1.28 23.27 2.7 24.75 5 22.29 6.19 23.77 8.47 21.33 9.62 22.82 11.86 20.36 13.06 21.84 15.36 19.39 16.51 20.91 18.79 18.43 19.93 19.91 22.22 17.5 23.38 19.27 26.13"/><polyline class="cls-7" points="26.36 1.28 23.27 2.7 24.75 5 22.29 6.19 23.77 8.47 21.33 9.62 22.82 11.86 20.36 13.06 21.84 15.36 19.39 16.51 20.91 18.79 18.43 19.93 19.91 22.22 17.5 23.38 19.27 26.13"/><rect class="cls-4" x="-7.34" y="11.52" width="21.15" height="3.77" transform="translate(-10.16 16.64) rotate(-90)"/><rect class="cls-4" x="4.34" y="24.01" width="21.15" height="3.77"/><rect class="cls-4" x="16.19" y="11.82" width="21.15" height="3.77" transform="translate(13.06 40.47) rotate(-90)"/></g><path class="cls-8" d="M15,2.5A12.5,12.5,0,1,1,2.5,15,12.5,12.5,0,0,1,15,2.5M15,1A14,14,0,1,0,29,15,14,14,0,0,0,15,1Z"/></svg>