<svg id="Livello_1" data-name="Livello 1" xmlns="http://www.w3.org/2000/svg" xmlns:xlink="http://www.w3.org/1999/xlink" viewBox="0 0 30 30"><defs><style>.cls-1{fill:none;}.cls-2{clip-path:url(#clip-path);}.cls-3{fill:#fff;}.cls-4{fill:#1c1c20;}.cls-5{fill:#212024;}.cls-6{fill:#f8f8f9;}.cls-7{fill:#f3f3f3;}.cls-8{fill:#9a9f9f;}.cls-9{fill:#1f1f23;}.cls-10{fill:#636767;}.cls-11{fill:#9ea3a3;}.cls-12{fill:#9da1a2;}.cls-13{fill:#302f33;}.cls-14{fill:#f0f0f1;}.cls-15{fill:#ebeaeb;}.cls-16{fill:#616364;}.cls-17{fill:#747676;}.cls-18{fill:#8a8f8f;}.cls-19{fill:#fcfcfc;}.cls-20{fill:#b2b5b5;}.cls-21{fill:#4a464b;}.cls-22{fill:#433f44;}.cls-23{fill:#49464a;}.cls-24{fill:#5c6061;}.cls-25{fill:#a0a1a1;}.cls-26{fill:#1f1e22;}.cls-27{fill:#595d5e;}.cls-28{fill:#252327;}.cls-29{fill:#9a9e9f;}.cls-30{fill:#201e22;}.cls-31{fill:#999e9e;}.cls-32{fill:#232226;}.cls-33{fill:#29282b;}.cls-34{fill:#9ea2a2;}.cls-35{fill:#606363;}.cls-36{fill:#5d6061;}.cls-37{fill:#626566;}.cls-38{fill:#3e3c3f;}.cls-39{fill:#2b2a2d;}.cls-40{fill:#37363a;}.cls-41{fill:#fbfafb;}.cls-42{fill:#38363a;}.cls-43{fill:#9b9f9f;}.cls-44{fill:#c9cacb;}.cls-45{fill:#ededed;}.cls-46{fill:#d6d6d6;}.cls-47{fill:#5b5f60;}.cls-48{fill:#f7f7f7;}.cls-49{fill:#f1f1f2;}.cls-50{fill:#939898;}.cls-51{fill:#aaadad;}.cls-52{fill:#1b1a1e;}.cls-53{fill:#626465;}.cls-54{fill:#9ba0a0;}.cls-55{fill:#5d6162;}.cls-56{fill:#5e6162;}.cls-57{fill:#5a5e5f;}.cls-58{fill:#f4f4f4;}.cls-59{fill:#f1f0f1;}.cls-60{fill:#f9f9f9;}.cls-61{fill:#5c5f60;}.cls-62{fill:#5f6162;}.cls-63{fill:#949999;}.cls-64{fill:#c9c8c8;}.cls-65{fill:#1b1a1f;}.cls-66{fill:#1d1c20;}.cls-67{fill:#979c9c;}.cls-68{fill:#959a9a;}.cls-69{fill:#f4f4f5;}.cls-70{fill:#5e6262;}.cls-71{fill:#f0eff0;}.cls-72{fill:#eee;}.cls-73{fill:#616465;}.cls-74{fill:#eeedee;}.cls-75{fill:#2d2c30;}.cls-76{fill:#636566;}.cls-77{fill:#9b9fa0;}.cls-78{fill:#f6f6f6;}.cls-79{fill:#f6f6f7;}.cls-80{fill:#636567;}.cls-81{fill:#fafafa;}.cls-82{fill:#211f23;}.cls-83{fill:#f5f4f5;}.cls-84{fill:#606263;}.cls-85{fill:#909596;}.cls-86{fill:#1c1b1f;}.cls-87{fill:#78787b;}.cls-88{fill:#989d9d;}.cls-89{fill:#222125;}.cls-90{fill:#f2f2f2;}.cls-91{fill:#606465;}.cls-92{fill:#e7e7e7;}.cls-93{fill:#f1f1f1;}.cls-94{fill:#2b2a2e;}.cls-95{fill:#f6f5f6;}.cls-96{fill:#a2a5a6;}.cls-97{fill:#5e6263;}.cls-98{fill:#efeeef;}.cls-99{fill:#dbdbdb;}.cls-100{fill:#e7e6e6;}.cls-101{fill:#787a7a;}.cls-102{fill:#a1a5a5;}.cls-103{fill:#999e9f;}.cls-104{fill:#e7e6e7;}.cls-105{fill:#9a9e9e;}.cls-106{fill:#f0f0f0;}.cls-107{fill:#d7d7d7;}.cls-108{fill:#d1d1d1;}</style><clipPath id="clip-path"><circle class="cls-1" cx="15.04" cy="14.99" r="12.5"/></clipPath></defs><g class="cls-2"><path class="cls-3" d="M16.79,1.64h11c.53,0,.67,0,.67.67V27.75c0,.9-.49.63-.89.63H1.65V16.73c.85.4,1.83.26,2.59.89v.31c0,.4,0,.76.45,1s1,.72.22,1.34a1.47,1.47,0,0,1-1-.4,4.18,4.18,0,0,0-.89-.4,3,3,0,0,0,1.74,2.28,1.86,1.86,0,0,1,.81.76A2.8,2.8,0,0,0,8,25.25a4,4,0,0,1,1,0c.36.36.31,1,.89,1.21s0-.36,0-.49c-.27-.85-.36-1.57.76-1.74a.45.45,0,0,1,.45.26c0,.5,0,1,.67.9s1.2,0,1.07.93-.9.32-1.21.67c1.92.81,2.55.45,2.81-1.6a.43.43,0,0,1,.23-.14c1.25,0,1.29,0,1.25,1.25a1.26,1.26,0,0,0,1.73.38l.19-.15a1.84,1.84,0,0,1,1.83-.32c.67.27,1.2,0,1.83-.49-.45-.44-1.61,0-1.48-1a1.15,1.15,0,0,1,.81-.13,21.82,21.82,0,0,1,2.41-.23c.8.09.89-.58,1.34-.89a4,4,0,0,0,.71-1.34,12,12,0,0,0,1.3-2.45,15.09,15.09,0,0,0,1.2-3.58v-.89c-.31-1.11.36-2.28-.31-3.35s-.36-1.43-1-1.83S26.21,8.73,25.94,8a5.2,5.2,0,0,0-1.21-1.47s-.27-.45-.58-.4A1.29,1.29,0,0,1,23,7a.85.85,0,0,1-.5,0,2.27,2.27,0,0,1-.44-1s0-.63-.27-.67c-1.83-.45-2.19-3-4.46-3A1.17,1.17,0,0,1,16.79,2,.34.34,0,0,1,16.79,1.64Z"/><path class="cls-4" d="M1.65,14V12.44A3.08,3.08,0,0,1,6,12.79a2.49,2.49,0,0,1,.35.5.5.5,0,0,1-.22.31c-.72.36-1.3-.27-2.06-.36,0,.67.4.81.81,1a.79.79,0,0,1,.58.67,1.42,1.42,0,0,0,.22.89,1.4,1.4,0,0,1,0,.76c0,.49,0,1.16-.94,1.07A6.39,6.39,0,0,0,3.26,17a.93.93,0,0,1-1-1.16.67.67,0,0,1,.44-.53s.67,0,.54-.54a.85.85,0,0,0-.58-.58C2.32,14,2,14.14,1.65,14Z"/><path class="cls-5" d="M1.65,3.87V2.4C2.59,2,3,2.93,3.93,2.93a1,1,0,0,1,.45.58c0,.36-.27.76.4.72a1.07,1.07,0,0,1,.71.22,1.41,1.41,0,0,1,.63.45A5.43,5.43,0,0,1,6.74,7a.74.74,0,0,1-.45.8c-.75,0-.8-.49-1-.93s0-.32-.23-.45-.62-.89-1.2-.76-.27.67-.45,1a1,1,0,0,1,0,.35,1.31,1.31,0,0,1-1.56.41c-.58-.32,0-1.3,0-2a1,1,0,0,1,0-.49c0-.27.49-.58,0-.8Z"/><path class="cls-6" d="M6.52,6.86c0-.67-.76-1.21-.54-2a.34.34,0,0,1,.31,0c.9,0,.9,0,2.55-1-.22-.31-.63,0-.85-.27s0-.45,0-.67a2.44,2.44,0,0,0,.76-1.29h1.52a1.79,1.79,0,0,1,.27.44c.22.67.71,1.34,0,2.06s-1.61,1-1.83,2A.54.54,0,0,1,8,6.39l0,0a.62.62,0,0,1-.49.71A.89.89,0,0,1,6.52,6.86Z"/><path class="cls-7" d="M6.16,13.47a3.62,3.62,0,0,0-4.46-1V10.7a.55.55,0,0,1,.53,0,4.45,4.45,0,0,0,3,.71,1.75,1.75,0,0,1,1.07.45c.45.85,1.48,1.29,1.52,2.37a.5.5,0,0,1-.35.31A1.54,1.54,0,0,1,6.16,13.47Z"/><path class="cls-8" d="M15,1.64h.76a.48.48,0,0,1,0,.49s-.26.44,0,.53c1.57.76.54,1.34,0,2a1.26,1.26,0,0,1-.53.44,1.4,1.4,0,0,1-.76,0c-.49,0-1.21.54-1.47,0s.26-1.16.62-1.65.54-1.11.94-1.56Z"/><path class="cls-9" d="M2.19,10.65H1.65v-.44c.76-.36.36-1.16.63-1.7a1.7,1.7,0,0,1,1.65.27c.58.54,1.52.62,1.92,1.38a.83.83,0,0,1,0,.72A16,16,0,0,1,2.19,10.65Z"/><path class="cls-10" d="M5,1.64h2.5a.36.36,0,0,1,0,.35A3.55,3.55,0,0,1,5.27,3.15c-.45,0-.85,0-1.07-.49S4.46,1.82,5,1.64Z"/><path class="cls-11" d="M2.37,15.7c0,.67.26,1.16,1.07,1s1,.31,1.29.75-.27.41-.53.32-2,0-2.55-1.07V16C1.83,15.74,2,15.48,2.37,15.7Z"/><path class="cls-12" d="M3.48,14.72c.45.76,0,.85-.58.71a1.78,1.78,0,0,1-1.25-.71V14c.36,0,.72-.49,1.07,0A3.13,3.13,0,0,0,3.48,14.72Z"/><path class="cls-13" d="M7.46,1.82H9c.58.71,0,1-.53,1.2A.86.86,0,0,1,7.46,1.82Z"/><path class="cls-14" d="M5,1.64c-.27.31-1.08.22-.85,1a.36.36,0,0,1-.32.31,1.55,1.55,0,0,1-1.6-1.29Z"/><path class="cls-15" d="M3.88,9a2.56,2.56,0,0,0-1.74-.27.36.36,0,0,1-.49,0V8.15A1.26,1.26,0,0,1,3.4,7.89a1.6,1.6,0,0,1,.26.26,1.1,1.1,0,0,1,.4.76A.23.23,0,0,1,3.88,9Z"/><path class="cls-16" d="M2.19,1.64A7.09,7.09,0,0,0,3.93,2.93h0c-.94.4-1.47-.4-2.28-.53C1.74,2,1.38,1.46,2.19,1.64Z"/><path class="cls-17" d="M3.71,8.15a2,2,0,0,0-2.06,0V7.4m.27,0,1.29-.5h0c.45.5.81.72.5,1.25Z"/><path class="cls-18" d="M1.65,8.69h.49a.56.56,0,0,0,.36.45s.45.31.36.58-.4,0-.63,0l-.58.49Z"/><path class="cls-19" d="M1.65,14.72c.58,0,.89.4,1.25.71s-.4,0-.53.27L1.65,16Z"/><path class="cls-20" d="M12.28,1.64H13A.53.53,0,0,1,13,2c-.41.94-.58.94-1.12.27S11.92,1.82,12.28,1.64Z"/><path class="cls-21" d="M12.28,1.64a.58.58,0,0,1-.36.53,6,6,0,0,1-1.79,0V1.64Z"/><path class="cls-22" d="M1.92,7.4H1.65V5.16Z"/><path class="cls-23" d="M13,1.86V1.64h2l-.35.22A1.26,1.26,0,0,1,13,1.86Z"/><path class="cls-24" d="M1.92,5.16H1.65V3.87H2c0,.27.45.58,0,1Z"/><path class="cls-25" d="M15.8,2.08V1.64h1a.41.41,0,0,0,0,.22.86.86,0,0,1-.72.4A.45.45,0,0,1,15.8,2.08Z"/><path class="cls-26" d="M16,2.13l.8-.27a10.69,10.69,0,0,1,2.59.76c.58,0,1.12.67,1,1.07s0,.71.53.76c1.52,0,1.43,1.43,1.7,2.41a.68.68,0,0,1,0,.94c-.94,0-.85-.63-1.12-1.12a1.76,1.76,0,0,0-.27-.4c-.31-.31-.58-.76-1.11-.63s-.31.72-.45,1.08V7c-.8.58-1.52.94-2-.31-.22-.54-.76-.36-1.2-.36a1.15,1.15,0,0,1-1-.49,1,1,0,0,1,0-1l.27-.36c.27-.35.62-.26.94,0l.26.23A1.14,1.14,0,0,0,18.13,5s.4,0,.49-.27,0-.36-.27-.44-1.07-1.39-1.7-1.39S16,2.62,16,2.13Z"/><path class="cls-27" d="M11,24.81s0-.27-.27,0h0a4.46,4.46,0,0,1,.76-2.5,1,1,0,0,0,0-1,3.23,3.23,0,0,0,0-1.16c.58-.49,1.38-.31,2.05-.67s.72,0,.85.49-.31.58-.4.94a2.78,2.78,0,0,1,1.69.4,1.4,1.4,0,0,1,.27,1c-.31,1-1.6.76-2.05,1.6.49.23,1.12,0,1.47.45a2.44,2.44,0,0,1-3.16,1.43A2.39,2.39,0,0,1,11,24.81Z"/><path class="cls-8" d="M22.37,7.66a.9.9,0,0,0,.31-.8h.4a1,1,0,0,0,1-.93V5.79c.44,0,.4.53.8.58a1.61,1.61,0,0,0,1.21,1.52c.49.26.31.67,0,1.07a1.06,1.06,0,0,0,.35,1.2,1,1,0,0,1,0,1c-.53.22-1.25,0-1.29,1s-1.25.89-2,.22-.54-.58-.94-.58a1.17,1.17,0,0,1-.94-.4c0-.36,0-.58.27-.81a1.71,1.71,0,0,1,.32-.44,1,1,0,0,1,.53,0,8,8,0,0,0,1.38,0c.5,0,1.26,0,1.12-.89s-.4-1.17-1.2-1.08S22.5,8.47,22.37,7.66Z"/><path class="cls-28" d="M20.05,25.25c0,.58.49.58.93.58a1.44,1.44,0,0,1,1.34.27c-1.11.4-1.83,1.65-3.21.72-.36,0-.85,0-.9.22-.53,1.29-1.69.27-2.45.62s-.27-.35,0-.62c.8-.27,1.38-1,2.37-1s.44,0,.22-.44,0-.54,0-.72a1.51,1.51,0,0,1,1.61,0Z"/><path class="cls-29" d="M18.3,24.81a2.36,2.36,0,0,1-.93,1.34c-.45.26-.94,1.11-1.79.71.27-.89.36-1.65-1-1.25,0-.89.72-.94,1.16-1.38s.72,0,1.12-.27a2.69,2.69,0,0,1,1,0A1.3,1.3,0,0,1,18.3,24.81Z"/><path class="cls-30" d="M5.36,22.57c-1.25-.8-2.64-1.51-2.64-3.43a2,2,0,0,1,1.48.4,1.42,1.42,0,0,1,0,.58c.31.49.84.45,1.29.67s.58.76.76,1.2a2.79,2.79,0,0,1,.31,1.16c0,.36,0,.72-.53.81S5.71,23,5.36,22.57Z"/><path class="cls-31" d="M5.49,20.79,4,20.25h.8c.22,0,.49,0,.49-.44s-.76-.27-1-.58c.75-.58,1.78-.54,2.5-1.12s.89.58,1.2,1a1.19,1.19,0,0,1,0,.53,3.49,3.49,0,0,1-1.92,1.56A.62.62,0,0,0,5.49,20.79Z"/><path class="cls-32" d="M15.8,24.32c0,.75-1.2.49-1.25,1.29h0c-.26.94-.89,1.07-1.69.71s-.94-.53-1.3-.44-.76.35-1,0,.27-.72.45-1.07c.93,0,1.78,1,2.77,0L15,23.87C15.4,23.87,15.71,23.73,15.8,24.32Z"/><path class="cls-33" d="M27.63,11.86a2,2,0,0,1,.5,2.19,9.26,9.26,0,0,0,0,1.29.87.87,0,0,1-.27.27c-.94.22-1.39-.54-2-.89a1.14,1.14,0,0,1,0-.58.83.83,0,0,1,0-.54c.49-.4,1.11-.67,1.25-1.43A.44.44,0,0,1,27.63,11.86Z"/><path class="cls-34" d="M12.86,26.55c.58,0,1.34,0,1.69-.72.32,0,.63,0,.36.41a1,1,0,0,0,0,1.29,4.79,4.79,0,0,1-4.15,0A3.12,3.12,0,0,1,12.86,26.55Z"/><path class="cls-5" d="M5.36,22.57c.67,0,0,1.16.8,1.21a3.27,3.27,0,0,0,1.7,0A1.11,1.11,0,0,1,9,24.14c.27.44.41.85,0,1.25a3.93,3.93,0,0,1-3.88-1.92C5,23.24,5.31,22.93,5.36,22.57Z"/><path class="cls-8" d="M9,25.57a1.51,1.51,0,0,0,0-1.25V24a1.68,1.68,0,0,1,2,.58h0c-1,.31-1,.94-.44,1.65s0,.71-.32.8A1.24,1.24,0,0,1,9,25.76,1.15,1.15,0,0,1,9,25.57Z"/><path class="cls-35" d="M23.13,24.85c-.76,0-1.48.36-2.28,0s0-1.25.27-1.83a.73.73,0,0,1,.49-.49c.58,0,.49.76,1,.85h.62C24.15,24.23,23.71,24.54,23.13,24.85Z"/><path class="cls-36" d="M7,18.07c-.63.93-1.65.75-2.59,1S4,18.38,4.2,18a2.14,2.14,0,0,0,1.6-1.16.79.79,0,0,1,1.12,0C7.14,17.26,6.7,17.66,7,18.07Z"/><path class="cls-8" d="M23.13,24.85c.35-.4.75-.8,0-.8,0,0-.41,0-.54-.23a1,1,0,0,1,0-.84c.85,0,1.12-.94,1.83-1.16a3.81,3.81,0,0,1,.89.71c0,.54-.4.85-.58,1.29A1.87,1.87,0,0,1,23.13,24.85Z"/><path class="cls-37" d="M27.63,11.86c-.71.45-.4,1.92-1.69,1.79a.37.37,0,0,1-.49.14.62.62,0,0,1-.14-.14c.9-.54.94-1.48,1.07-2.37a1.32,1.32,0,0,1,.27-1C27.54,10.48,27.41,11.32,27.63,11.86Z"/><path class="cls-38" d="M28.13,16.55A12,12,0,0,1,26.92,20h0c-.85-1.56-.76-2.05.54-3.35C27.54,16.32,27.86,16.32,28.13,16.55Z"/><path class="cls-31" d="M21.29,23.24V24c0,.14-.44.67-.44,1.25h-.76a3.44,3.44,0,0,1-.67-.8,2.11,2.11,0,0,1-.27-1.25.55.55,0,0,1,0-.31A1.82,1.82,0,0,1,21.29,23.24Z"/><path class="cls-39" d="M26.92,20a5.92,5.92,0,0,1-1.29,2.5H25a.85.85,0,0,1,0-1c.67-.49,1.11-1.34,2.14-1.25Z"/><path class="cls-40" d="M26.12,7.93c-1.61,0-1.66,0-1.21-1.52A3.74,3.74,0,0,1,26.12,7.93Z"/><path class="cls-41" d="M5.89,17a1.25,1.25,0,0,1-1.45,1L4.2,18h0l.53-.32c.94,0,0-.93.67-1S5.8,16.77,5.89,17Z"/><path class="cls-19" d="M28.13,16.55H27.5a.61.61,0,0,1-.67-.4c-.13-.41.89-.41,1.12-.85h0Z"/><path class="cls-42" d="M25.31,22.31h.45c-.27.49-.45,1-1,1.29a2.37,2.37,0,0,1,.44-1.29Z"/><path class="cls-43" d="M24.11,5.83c0,.81,0,1.21-1,1.07A1.34,1.34,0,0,0,24.11,5.83Z"/><path class="cls-44" d="M5,20.07a.89.89,0,0,1-.81,0v-.53C4.51,19.63,4.55,20.07,5,20.07Z"/><path class="cls-7" d="M10,27.13c.36,0,.27-.49.31-.81C10.63,27.08,10.58,27.17,10,27.13Z"/><path class="cls-8" d="M5.89,17s-.13-.72-.49-.72v-.58a1.55,1.55,0,0,0,0-.8c0-.36-.27-.45-.58-.49,0-.72,1-.4,1.25-.94h.22c.63,0,.72.89,1.34,1a4.82,4.82,0,0,1,.54,1.12.42.42,0,0,1,0,.31c-.71.14-.71.4-.71.94a.41.41,0,0,1-.57.06l-.06-.06C6.61,17.08,6.25,16.32,5.89,17Z"/><path class="cls-45" d="M5.94,13.51c0,1.12-.94.49-1.25.94s-.72-.4-.94-.72a.61.61,0,0,1,0-.66c.22-.36.54,0,.8,0Z"/><path class="cls-46" d="M3.48,14.72c-.44,0-1,0-.76-.81A1,1,0,0,1,3.48,14.72Z"/><path class="cls-47" d="M5.27,14.94c.22.22.67.4,0,.8S5.22,15.21,5.27,14.94Z"/><path class="cls-8" d="M5.67,10.92v-.71a.69.69,0,0,1,.49,0c.4,0,.8.4,1.25.31s1.43,0,1.38-.94S8.35,8.29,7.46,8.42s-1.17,0-1.34-.76.26-.49.31-.8h1c.49-.27,0-.85.35-1.21s0,.9.72.45.22,0,.22,0c0,1.34.94,1.61,1.74,2.1a.42.42,0,0,1,0,.31c-.67.63-.36,1.21,0,1.83a3.36,3.36,0,0,1-.49.89c-.45.32-1.43,0-1.25.94-.58,1-1.25.94-2,.27a1.53,1.53,0,0,0-.49-.58l-1-.45C5.09,11,5.58,11.15,5.67,10.92Z"/><path class="cls-31" d="M7.46,1.82c0,.35,0,1.11.75,1.11v.45c0,.62-.67,1.2-1.6,1.47a2.13,2.13,0,0,0-.94,0c-.45-.27-1.74.36-1.21-1.07.45,0,.85,0,.94-.71A7.88,7.88,0,0,0,7.46,1.82Z"/><path class="cls-48" d="M3.21,6.9a8,8,0,0,1,0-1c0-.76.41-1,1-.67s1.21.63,1.3,1.39,0,.53-.36.67a2.23,2.23,0,0,1-1.83-.45Z"/><path class="cls-24" d="M5.13,7.13l.32-.49c.4,0,0,1.07.76,1s1.07,0,1.51.54-.71.67-1.2.85-1.34.58-2,0S4.73,7.66,5.13,7.13Z"/><path class="cls-49" d="M5.18,2.93c.22.27.49.58,0,.85a.71.71,0,0,1-1,.06l-.06-.06-.36-.45a.41.41,0,0,0,0-.22V2.8A6.61,6.61,0,0,0,5.18,2.93Z"/><path class="cls-50" d="M2.19,4.94a1.28,1.28,0,0,1,0-1c.27,0,.58-.22.71,0A.62.62,0,0,1,3,4.81.61.61,0,0,1,2.19,4.94Z"/><path class="cls-51" d="M5.45,4.67c.26-.4.53-.35.8,0s0,0,0,.23h0Z"/><path class="cls-5" d="M10.76,8.33c-.8,0-1.3-.62-2-.67s0-.44,0-.76.62-.4,0-.75c0-1.34,1-1.52,1.78-2.06a.5.5,0,0,1,.36.36c0,.71-.72,1.07-.85,1.78.67,0,1.16-.93,1.88-.31A3.7,3.7,0,0,1,10.76,8.33Z"/><path class="cls-52" d="M10.76,4.4l-.27-.31c.67-.71-.44-1.29-.22-2s1.2-.49,1.78,0,0,.44.36.44,0-.67.58-.75h1.7c-.49.35.4,1.6-.89,1.51a6,6,0,0,1-2.33.76C11.21,4.23,11.07,4.54,10.76,4.4Z"/><path class="cls-53" d="M6.16,4.94a.28.28,0,0,0,0-.22L7.9,3.29c.45.36,1.21-.54,1.39,0s-.72.76-1.16,1-.54.26-.72.49S6.61,5.48,6.16,4.94Z"/><path class="cls-54" d="M8,5.7c0,.45,0,.94-.36,1.2C7.86,6.55,7.46,6,8,5.7Z"/><path class="cls-55" d="M6.21,11.86c.26-.8.53,0,.71,0s1.25,1.07,2.05.22c.32,0,.23.63.54.85s.27-1.34.71-1.83,0-.8.58-.85a.32.32,0,0,1,.27,0,1.12,1.12,0,0,0,1.25,1.61,2.26,2.26,0,0,1,1.21,0,.62.62,0,0,1-.27.84l-.13.05a5.23,5.23,0,0,1-1.25,0c-.9.45-1.21,1.52-2.15,1.88s-1.47.49-2.05-.36S6.29,13,6.21,11.86Z"/><path class="cls-56" d="M5.67,10.92l-.49.49a2.48,2.48,0,0,1-3-.76s.27-.31.35-.31C3.53,10.83,4.73,10.21,5.67,10.92Z"/><path class="cls-48" d="M7.68,14.23c.58.76,1.43-.32,2.05.26a1.16,1.16,0,0,1,.23.36.82.82,0,0,1-.23.76c-.58.22-1.16.49-1.74,0a1.07,1.07,0,0,1-.53-1.16Z"/><path class="cls-57" d="M11.21,3.82c.93.23,1.6-.84,2.58-.44-.31.49-.35,1.11-.75,1.6a3.85,3.85,0,0,1,2.23,0V6.1c.22.4,0,.58-.36.67a4.43,4.43,0,0,0-1.38.63c.35.35.89,0,1.25.44-.54,1.56-1.65,1.92-3.49,1.07a1.58,1.58,0,0,1-.53-.4h0a13.06,13.06,0,0,1,1.16-2.59A10.18,10.18,0,0,1,11.21,3.82Z"/><path class="cls-58" d="M16,2.13c0,.35.58.27.76.49.8,1.34.8,1.34,0,2.05a1.41,1.41,0,0,0-1,0c0-.31.4-.4.58-.58s.58-.71,0-.76-.67,0-.71-.31.31-.58.58-.76Z"/><path class="cls-59" d="M4.73,8.91c.54.49,1.12-.8,1.65,0s.23.41,0,.63a.62.62,0,0,1-.4.67H5.67C5.36,9.4,4.15,9.9,3.88,9h0A.68.68,0,0,1,4.73,8.91Z"/><path class="cls-29" d="M4.73,8.91h-.8l-.22-.8L3.26,6.82l1.87.26C5.45,7.8,3.93,8.07,4.73,8.91Z"/><path class="cls-60" d="M14.78,7.93a8.66,8.66,0,0,1-1.61,0,.4.4,0,0,1-.42-.38.26.26,0,0,1,0-.15c0-.27.27-.23.44-.32A7.06,7.06,0,0,0,15.31,6h1c.36,0,.72,1.12.63,1.83a.85.85,0,0,1-1.07.27A3,3,0,0,1,14.78,7.93Z"/><path class="cls-61" d="M16.79,7.89c0-.58-1.12-.94-.49-1.74s1.16-.54,1.33.26.94.85,1.66.49a.77.77,0,0,1,.4.94,5.09,5.09,0,0,1-1.83.54C17.5,8.2,16.92,8.56,16.79,7.89Z"/><path class="cls-24" d="M22.37,7.66c.4.49,1.07,0,1.51.54s-.75.71-1.25.85-1.47.4-2.09-.23.31-1.11.31-1.69a1.41,1.41,0,0,1,.62-.72C22.1,6.68,21.47,7.62,22.37,7.66Z"/><path class="cls-48" d="M21.61,6.41a1.23,1.23,0,0,1-.49,1,1.85,1.85,0,0,1-1.79-.58c0-.54,0-1.17.31-1.43s1,0,1.43.53S21.43,6.19,21.61,6.41Z"/><path class="cls-8" d="M19.33,6.64c.58.26,1.3,0,1.79.58s.31.53,0,.67-.32.49-.41.8,0,0,0,.31-.93-.4-.93-1L19.46,6.9A.58.58,0,0,1,19.33,6.64Z"/><path class="cls-62" d="M16.38,4.67a1.59,1.59,0,0,0,0-2c.85,0,.67,1.25,1.57,1.29a8.17,8.17,0,0,1,0,1c0,.22-.36.22-.58.22a2.06,2.06,0,0,1-1-.49Z"/><path class="cls-63" d="M18.57,4.9c-.58-.23-.53-.58,0-1S18.88,4.45,18.57,4.9Z"/><path class="cls-64" d="M16.38,4.63a1.72,1.72,0,0,1,1.48.49,1,1,0,0,1-1.37-.27A1.51,1.51,0,0,1,16.38,4.63Z"/><path class="cls-65" d="M10.76,24.54c-.8.31-1.21-.89-2-.45-.76-.44-.36-1,0-1.6s.27-1.57.89-2.06.94-.85.63-1.65.22-1.29.58-1.83h.58c.45,0,.94-.54,1.38,0a1.36,1.36,0,0,1,0,1.43c.67-.63,1.34-1.07,2.23-.45s0,1.7-.71,2.1c-.45-.31-.85-.71-1.29,0s-1.12-.45-1.52.22a1.64,1.64,0,0,1-.63.54c0,.49-.76.8-.89,1.38.58,0,.89-.76,1.47-.27S10.76,23.65,10.76,24.54Z"/><path class="cls-66" d="M19.33,22.8h0c-.85.93-1.16.93-1.83,0a1.12,1.12,0,0,0-1.12-.27c-.35,0-.62,0-.75-.49a1.37,1.37,0,0,1-.23-.94.62.62,0,0,1,.14-.31c.4-.31.75,0,1.11,0s1,.67,1.65,0,0-.49,0-.58a4.23,4.23,0,0,0-1.38-1.16.83.83,0,0,1-.54-.58c.27-.76.81-.54,1.3-.32a9.16,9.16,0,0,0,2.14.9.9.9,0,0,1,.63,1.07v.22a3.61,3.61,0,0,1,1.34.45c.53,0,.58.76.76,1.2s.35.72,0,1.08,0,.62-.27.8-.36-.8-.72-1l-.4-.27C20.09,21.46,20.05,21.46,19.33,22.8Z"/><path class="cls-8" d="M15.54,20.79l-.23.31-1.2-.31c-.36,0-.54.49-1.07.27.4-.45.26-1.21,1-1.39a1.73,1.73,0,0,0,.49-2c0-.26,0-.35.36-.4a1,1,0,0,1,1.18.73l0,.16c0,.27-.63.5,0,.81s.58,1.07-.23,1.47A.76.76,0,0,0,15.54,20.79Z"/><path class="cls-6" d="M15.54,22l.84.27a5.88,5.88,0,0,1,.5,1.74.63.63,0,0,1-.81.37l-.18-.1a.53.53,0,0,0-.75,0H13.3a.49.49,0,0,1-.53-.41c0-.35.22-.31.49-.4a15.19,15.19,0,0,1,2.05-.94A2.33,2.33,0,0,1,15.54,22Z"/><path class="cls-67" d="M11.47,22.08c-.49,0-.71.49-1.11.72s-.4.31-.67,0a.58.58,0,0,1,0-.81l1-1.2c.41-.31.63,0,.81,0S12.41,21.77,11.47,22.08Z"/><path class="cls-68" d="M11.52,21l-.81-.22.54-.8C11.92,20.12,11.29,20.79,11.52,21Z"/><path class="cls-5" d="M21.92,10.39v.53a9.82,9.82,0,0,1-2.54,0h-.94c-.27,0-.4.58-.81.63a3.15,3.15,0,0,1-1.92,0,.58.58,0,0,1-.22-.49,6.41,6.41,0,0,1,3-1.25c0-.32-.67-.63-.23-1s1.57,0,2.28.62S21.83,9.45,21.92,10.39Z"/><path class="cls-69" d="M17.81,11.23c.45,0-.26-.58.27-.58s2.1.81,3.26.76l1,.45a6.65,6.65,0,0,1,1.43,2.23.56.56,0,0,1-.31.4c-.67,0-.85-.67-1.3-.93a8.76,8.76,0,0,0-2.85-1.21,4.63,4.63,0,0,0-1.39,0,.57.57,0,0,1-.62-.49C17.28,11.28,17.63,11.37,17.81,11.23Z"/><path class="cls-70" d="M23.66,13.87c-.4-.76-1.38-1.12-1.34-2.14s.58,0,.81.31a1.25,1.25,0,0,0,2,0c.41.36.32.85.27,1.29h.54v.54a1.72,1.72,0,0,1-1.65.36A.82.82,0,0,1,23.66,13.87Z"/><path class="cls-60" d="M25.31,13.51c-.49-.36,0-.89-.26-1.29s0-1.25,1.25-1C26.47,12.17,27.05,13.33,25.31,13.51Z"/><path class="cls-4" d="M22.55,8.91l1.33-.71c1.21-.4,1.39,0,1.21,1.2s-1.21.41-1.88.5a1.16,1.16,0,0,1-.71-.27C22.28,9.36,22.05,9.09,22.55,8.91Z"/><path class="cls-27" d="M21.34,11.41c-1.34.76-2.23-.31-3.26-.76a1.14,1.14,0,0,1,1.34,0c.76.36,1.7-.26,2.41.45Z"/><path class="cls-71" d="M22.55,8.91c-.27,0,0,.36,0,.54a.76.76,0,0,1-.27,1h-.36c-.36-.58-1-.62-1.61-.94s0-.35.27-.49a.26.26,0,0,0,0-.27.88.88,0,0,0,1.16,0C22,8.6,22.32,8.47,22.55,8.91Z"/><path class="cls-72" d="M23.13,9.72l2.18-.32c.54.51.45.87-.26,1.08l-.94.22C23.57,10.43,23,10.39,23.13,9.72Z"/><path class="cls-73" d="M23.13,9.72l.75,1c-.53,0-1-.22-1.56-.27a1.55,1.55,0,0,1,.27-1Z"/><path class="cls-74" d="M19.55,24.27c.41,0,.41.49.54.8a4,4,0,0,0-1.79-.26c-.26,0-.49,0-.44-.45A.92.92,0,0,1,19.55,24.27Z"/><path class="cls-61" d="M19.55,24.27c-.58-.62-1.16,0-1.69,0s-.85,0-1.07-.31-1-.89-.41-1.65,1.17-.41,1.34.26a1.06,1.06,0,0,0,1.66.45Z"/><path class="cls-60" d="M10.76,17a.84.84,0,0,1-.31.85s-.32.62,0,.67c1.38,1.38,0,1.92-.85,2.41s-.63.93-.4,1.56c-.63.36-.72,0-.9-.45,0,1.21-.4,1.39-1.56.94l-.36-.85V21.5a5.17,5.17,0,0,0,1.08-.71c.35-.31.89-.4,1.29-.76S8,20,7.9,19.49v-.44c0-.54.54-.63.63-1a.55.55,0,0,0,0-.67c-.4-1.25-.32-1.38.89-1.16.27.4.71,0,1,.27S10.89,16.77,10.76,17Z"/><path class="cls-31" d="M6.52,23C7.28,23,8,23,7.9,21.9c.45,0,.54.81,1.07.63-.31.49-.84.94,0,1.56H6.65c-.4,0-.49,0-.49-.53S6.43,23.29,6.52,23Z"/><path class="cls-48" d="M6.47,21.55c-.26,0-.26.4-.31.62s0-1.11-.67-1.2c0-.32.45,0,.72,0S6.65,21.19,6.47,21.55Z"/><path class="cls-75" d="M9.51,16.32a.54.54,0,0,0-.74-.15.54.54,0,0,0-.15.15c-.27.54.31.85.53,1.21h0s-.71,0-.27.31.58.67,0,.63-.35.35-.62.4-.8-.76-1.25-.8-.67,0-.72-.36.5-.4.67-.67l.5-.31c0-.32,0-.76.58-.9H8a3.93,3.93,0,0,1,1.74,0,.54.54,0,0,1,.31.49.41.41,0,0,1-.57,0Z"/><path class="cls-76" d="M6.47,21.55l-.26-.76A5.84,5.84,0,0,0,8,19.45c.45.31,1.21-.54,1.39,0s-.72.94-1.21,1.12S7.46,22,6.47,21.55Z"/><path class="cls-77" d="M28,15.52c0,1-.81.31-1,.76a1.47,1.47,0,0,1-1.29,1.12,1.07,1.07,0,0,1-.62-1.08c.31-.26.8-.44.58-1a1,1,0,0,1,.31-.63C26.74,14.63,27,15.88,28,15.52Z"/><path class="cls-78" d="M25.94,14.67v.85a2.64,2.64,0,0,1-1.39.4h-.4a1,1,0,0,1-.62-.89c0-.27,0-.63.62-.49s1.07-.4,1.7,0Z"/><path class="cls-79" d="M19.33,22.8c0-.58-.27-1.39.4-1.43a1.82,1.82,0,0,1,1.92,1.43l-.36.44Z"/><path class="cls-60" d="M25.67,17.17c.67,0,.89-.53,1.29-.89l.54.49c-.49.76-1.83,1.34-.67,2.55V20c-.85,0-1.12,1.12-2,1.29s0,.81-.58.72c-.32.76-.81,1.25-1.75,1l-.31-.94a.77.77,0,0,1,0-.85c1.12,0,1.61-1,2.68-1.16-.31-.44-.71,0-.94-.44a.42.42,0,0,1,0-.27c0-.63.72-.8.9-1.38a1.23,1.23,0,0,1,.44-.54A1,1,0,0,1,25.67,17.17Z"/><path class="cls-7" d="M24.38,22c.31,0,0-.67.58-.72-.32.41,0,.67,0,1h0A.58.58,0,0,1,24.38,22Z"/><path class="cls-80" d="M8,15.83a2,2,0,0,1-.58.9c0-.41-.58-.41-.27-.85A.72.72,0,0,1,8,15.83Z"/><path class="cls-81" d="M10.22,11.23c0,1,.41,2.1-1.07,2.46-.31-.49,0-1,0-1.47s-.49-.45,0-.81S9.73,11.15,10.22,11.23Z"/><path class="cls-82" d="M6.38,9.49A.36.36,0,0,1,6.24,9a.47.47,0,0,1,.14-.14L7.72,8.2C9,7.75,9.06,8.47,9,9.4s-1.34.36-2,.5A1.37,1.37,0,0,1,6.38,9.49Z"/><path class="cls-83" d="M10.76,8.51h.49c.09,0-.27.89.54.76a1.16,1.16,0,0,1,1.29.72,1.21,1.21,0,0,1-2.1.31h0C9.69,9.63,9.69,9.09,10.76,8.51Z"/><path class="cls-69" d="M7,9.72,9,9.4c.45.5.23.85-.31,1a4.51,4.51,0,0,0-1.2.31C7.46,10.39,6.79,10.21,7,9.72Z"/><path class="cls-84" d="M7,9.72c0,.35.58.49.49,1a1.63,1.63,0,0,1-1.34-.54l.22-.67Z"/><path class="cls-85" d="M11.21,3.82c.26.72,1,1.25.53,2.1a1.72,1.72,0,0,0-1.2.58c-.36.32-.54.49-.85.23s0-.72,0-1a8.41,8.41,0,0,1,.94-1.3Z"/><path class="cls-86" d="M9.78,14.67h0s0-.53.26-.62a1.21,1.21,0,0,0,1.08-1.25c0-.36.4-.54.71,0a1.7,1.7,0,0,0,.45.35h.89l.36-1.29c0-.63.44-.76,1-.63A.89.89,0,0,1,15,12c0,.81-.85,1.08-1.12,1.75s.72,0,1.12,0a.7.7,0,0,1,.71.84c-.08.54-.75,1.07-1.16,1.61a3,3,0,0,1-1.92-.67c-.49-.36-.67,0-1,0A3.51,3.51,0,0,1,9.78,14.67Z"/><path class="cls-8" d="M14.51,11.46c-.45,0-.72,0-1,.49a10.79,10.79,0,0,1-1.61-.09c-.76,0-1.29-.49-.89-1.43.76.58,1.38,0,2-.27a1,1,0,0,1,1.11,0,.81.81,0,0,1,.31,0c0,.45.81.72.63,1.3A.51.51,0,0,1,14.51,11.46Z"/><path class="cls-87" d="M11.92,13v-.49c0-.18.94,0,1.34.26h0A1.36,1.36,0,0,1,11.92,13Z"/><path class="cls-88" d="M9.78,14.67c.8,0,1.07,1.21,2,.81,0,.49-.36.49-.62.62s-.27.54-.63.4-.71,1.21-1,0c.62,0,.36-.58,0-.93Z"/><path class="cls-89" d="M14.24,10.12H13a1.18,1.18,0,0,0-1.07-.4c-.36,0-.85.4-1.07,0s.49-.54.62-.9a2.49,2.49,0,0,0,3.47-.67L15,8.07c.36,0,.67-.45,1,0s-.58.84-.85,1.29v.4A.84.84,0,0,1,14.24,10.12Z"/><path class="cls-8" d="M14.6,9.23c0-.67,1.2-.45,1.16-1.25.36,0,.67.35,1,0l1,.31a.65.65,0,0,1,.32.53c0,.58,1,.27.84,1.16-1.29-.44-2.09,1-3.34.85C15.36,10.16,15.27,9.54,14.6,9.23Z"/><path class="cls-71" d="M18.13,8.73s-.32-.31-.32-.53S18.93,7.53,19.6,8s.36.93,1,1l-.27.49A2.22,2.22,0,0,0,18.13,8.73Z"/><path class="cls-88" d="M11,15.92l.94-.44v-.81A8.73,8.73,0,0,0,14.55,16v.76c0,.22.23.49,0,.75h-.26c-1.16-.44-1.66.32-2.06,1.3-.62-.85.27-1.52,0-2.32-.49,0-.94.49-1.47.27S11.25,16.32,11,15.92Z"/><path class="cls-90" d="M11,15.92c.27,0,.72,0,.72.4s-.49.41-.72.63h0l-.49-.63A.44.44,0,0,1,11,15.92Z"/><path class="cls-8" d="M24.15,19.27h0v.45a3.54,3.54,0,0,1-1.69,1.11,2.2,2.2,0,0,1-.85,0l-1.48-.53h0c.45-.36,1-.63,1-1.34a3.83,3.83,0,0,1,2-.81A1.17,1.17,0,0,1,24.15,19.27Z"/><path class="cls-36" d="M14.82,17.49a1.19,1.19,0,0,1-.27-.72c0-.45.49-.53.94-.45a28.07,28.07,0,0,1,3,1.43c.49.45,1.43.54,1.34,1.48-.9.26-1.39-.49-2.1-.76s-.85-.63-1.25,0-.45,0-.49-.27A1.12,1.12,0,0,0,14.82,17.49Z"/><path class="cls-69" d="M19.87,19.23A4.75,4.75,0,0,0,18.26,18c.58-1.12,1-1.2,2.14-.4v.31c0,.54.45.8.81,1.12,1.07,1.6-.76.8-1,1.2A.88.88,0,0,0,19.87,19.23Z"/><path class="cls-91" d="M16.88,19c.84,0,.67,1.12,1.47,1a8.85,8.85,0,0,1,0,1,1.38,1.38,0,0,1-2,0A8.13,8.13,0,0,1,16.88,19Z"/><path class="cls-71" d="M16.88,19a1.44,1.44,0,0,1-.5,1.79c-.35,0-.67-.45-1,0-.27-.4,0-.4.27-.54s.75-.31.75-.71-.49,0-.75,0-.45,0-.41-.4a.72.72,0,0,1,.81-.63l.35,0Z"/><path class="cls-50" d="M18.57,21.06c-.53,0-.58-.58,0-1S18.88,20.79,18.57,21.06Z"/><path class="cls-92" d="M21.65,20.79c0-.27.45,0,.72,0s.44,0,0,.49v.8C22.05,21.73,22.41,21,21.65,20.79Z"/><path class="cls-8" d="M17.81,11.23s-.4.27-.4.36a.4.4,0,0,0,.48.31l.1,0a1.38,1.38,0,0,1,1.39,0,2.15,2.15,0,0,1-2.64.63c-.36,0-.76.31-.94-.27a2.91,2.91,0,0,0-.31-.9v-.26Z"/><path class="cls-58" d="M15.58,11.19v.27h-.49c0-.36-.85-.4-.76-1a.92.92,0,0,0,.22-.76V9.27c1.3,0,1.3.58,1,1.52Z"/><path class="cls-4" d="M16.38,12.22a3.24,3.24,0,0,0,3-.36c1.2,0,2,.8,3,1.21v.4c0,.09-1.16-.36-1.79-.23s.31.67.67.85a1.57,1.57,0,0,1,.65,2.11.47.47,0,0,1-.07.12V17a.63.63,0,0,1-.71.49c-.36-.09-.9-.58-1.48-.58s-1.34-.63-1.25-1.21a.79.79,0,0,1,.49-.49c.27,0,.67,0,.5-.58a1.06,1.06,0,0,0-.72-.53c-.58,0-1.34.76-1.83,0C17.14,13.29,16.12,12.84,16.38,12.22Z"/><path class="cls-8" d="M21.56,16.32c0-.8.4-1.65-.71-2,0-.72,1-.41,1.25-.94l.27-.31c.44.26.44.84.93,1.07s.54.31.36.71.36.45.49.72-.44.53,0,.89a.7.7,0,0,1-.58.62,2.18,2.18,0,0,1-1.29,0C21.79,16.86,21.61,16.73,21.56,16.32Z"/><path class="cls-93" d="M23.66,15a.84.84,0,0,0-.36-.72l.36-.4.49.62Z"/><path class="cls-19" d="M8.71,18s-.32-.27-.27-.31a3.25,3.25,0,0,1,.71,0C9.38,17.71,9,18,8.71,18Z"/><path class="cls-94" d="M23.39,17a.67.67,0,0,0,.45-.72c0-.49.31-.53.54-.75s1-.23,1.51-.23c.63,1.3-.31,1-.58,1s0,.81,0,1.25-.26.32,0,.54c.4.94-.89.62-.93,1.21-.45,0-.45-.76-.76-1.08s-1.07.27-1.12-.44S23,17.22,23.39,17Z"/><path class="cls-95" d="M25.05,17.49c0-.41-.81-.85,0-1.21l.53.89-.27.36S25.31,17.57,25.05,17.49Z"/><path class="cls-91" d="M24.38,15.74l-.54.58c-.27,0-.63,0-.54-.49s.54-.26.85-.31Z"/><path class="cls-16" d="M22.55,21.28v-.49a5.84,5.84,0,0,0,1.78-1.34h.49c.31,0,.72-.54.94,0s-.27.76-.67.94a2.76,2.76,0,0,0-1.38.89C23.17,21.82,22.81,21.77,22.55,21.28Z"/><path class="cls-96" d="M25.05,17.49h.26V18c-.35,0-.76,0-.67-.58S24.82,17.49,25.05,17.49Z"/><path class="cls-97" d="M16.38,12.22c0,.67,1,1,.54,1.78-.54,0-.49,0-.45.45a.63.63,0,0,1-.75.46.7.7,0,0,1-.32-.19c0-.58-.22-.81-.8-.76A1.87,1.87,0,0,1,15,12.31c.27,0,.54-.36.85,0S16.38,11.86,16.38,12.22Z"/><path class="cls-98" d="M15.54,14.72c.49,0,.75,0,1.07-.49a1.59,1.59,0,0,1,1,.84c0,.41-.49.45-.8.58s-1.12,0-1.29.81a1,1,0,0,0-1,.31c-.49-.27,0-.53,0-.8S14.69,14.76,15.54,14.72Z"/><path class="cls-99" d="M15.31,12.49,14.73,14l-1.38.53c0-1.2,1.07-1.51,1.43-2.27a.35.35,0,0,1,.5,0l0,0Z"/><path class="cls-100" d="M11.92,13c.22-.49.67,0,1.07-.27S12.5,13.69,11.92,13Z"/><path class="cls-101" d="M15.31,12.22h-.53a.94.94,0,0,0-.27-.76h.8C15.63,11.86,15.76,11.86,15.31,12.22Z"/><path class="cls-102" d="M14.51,9.67s.36,0,.36.23-.36.4-.58.53v-.31Z"/><path class="cls-53" d="M23.39,17c-.22.36-.93,0-.93.62s.71,0,.93.54c-.58.53-1.43.49-2.05.85s-1.25,0-1-1,.89,0,1.11-.54a5.69,5.69,0,0,1,.63-.75Z"/><path class="cls-103" d="M15.54,16.32c-.76-1.78.93-.58,1.29-1s1.16,0,1.7.27,0,1.29,1.11,1.07.9.35,1.21.71,0,.4-.49.27a1.32,1.32,0,0,0-2.1.27c-.76-.27-1.21-1.3-2.32-.9C15.71,17.22,15.58,16.77,15.54,16.32Z"/><path class="cls-104" d="M20.36,17.75l.49-.26c.4,0,.49,0,.53-.5s.36.36,0,.67-.89,0-1.25.36Z"/><path class="cls-45" d="M15.31,12.22c0-.27.27-.54,0-.76h.23c.67,0,.49.4.49.76l-.72.26Z"/><path class="cls-105" d="M17.55,15c-.59,0-.63-.54-.94-.8S16,14,16,13.56s0-.27.36-.27.4.53.71.71,1.16-.71,1.83,0,.41.45.67.58a.53.53,0,0,1,.05.76l-.05.05c0,.35-.44,0-.71,0A5.9,5.9,0,0,0,17.55,15Z"/><path class="cls-106" d="M22.1,13.51c0,1.12-.94.49-1.25.94s-.54,0-.72-.4-.53-.63-.31-1,.67,0,1,0A6.64,6.64,0,0,1,22.1,13.51Z"/><path class="cls-7" d="M17.55,15c.71-.63,1.11,0,1.51.45h-.53c-.63.26-1.21.4-1.7-.27Z"/><path class="cls-19" d="M21.61,17.66a.79.79,0,0,0,0-.67v-.53l.53.27A.87.87,0,0,1,21.61,17.66Z"/><path class="cls-107" d="M19.55,14.49a.58.58,0,0,1-.76,0v-.44A1,1,0,0,1,19.55,14.49Z"/></g><path class="cls-108" d="M15,2.5A12.5,12.5,0,1,1,2.5,15,12.5,12.5,0,0,1,15,2.5M15,1A14,14,0,1,0,29,15,14,14,0,0,0,15,1Z"/></svg>