<?xml version="1.0" encoding="UTF-8"?>
<svg id="Livello_1" data-name="Livello 1" xmlns="http://www.w3.org/2000/svg" xmlns:xlink="http://www.w3.org/1999/xlink" viewBox="0 0 30 30">
  <defs>
    <style>
      .cls-1, .cls-2 {
        fill: none;
      }

      .cls-3 {
        clip-path: url(#clippath);
      }

      .cls-4 {
        fill: #ece5d3;
      }

      .cls-5 {
        fill: #d1d1d1;
      }

      .cls-2 {
        stroke: #000;
        stroke-miterlimit: 10;
        stroke-width: .5px;
      }
    </style>
    <clipPath id="clippath">
      <circle class="cls-1" cx="515" cy="-85" r="12.5"/>
    </clipPath>
  </defs>
  <g class="cls-3">
    <rect class="cls-4" x="-188.08" y="-657.96" width="1500" height="1000"/>
  </g>
  <circle class="cls-2" cx="15" cy="15" r="12.5"/>
  <path class="cls-5" d="m15,2.5c6.9,0,12.5,5.6,12.5,12.5s-5.6,12.5-12.5,12.5S2.5,21.9,2.5,15,8.1,2.5,15,2.5m0-1.5C7.28,1,1,7.28,1,15s6.28,14,14,14,14-6.28,14-14S22.72,1,15,1h0Z"/>
  <path d="m14.07,16.57c0,.17.01.32.04.45.03.14.08.25.15.35.07.09.17.17.29.22.12.05.28.08.47.08.22,0,.42-.07.59-.21s.26-.37.26-.67c0-.16-.02-.3-.06-.42-.04-.12-.12-.22-.21-.32-.1-.09-.23-.18-.4-.25-.16-.08-.37-.16-.6-.23-.32-.11-.6-.22-.83-.35-.23-.13-.43-.27-.58-.45-.16-.17-.27-.37-.35-.59-.07-.22-.11-.48-.11-.77,0-.71.2-1.23.59-1.58s.93-.52,1.62-.52c.32,0,.61.04.88.11.27.07.5.18.7.34.2.16.35.36.46.6.11.24.17.54.17.88v.2h-1.38c0-.34-.06-.6-.18-.79-.12-.18-.32-.27-.6-.27-.16,0-.29.02-.4.07-.11.05-.19.11-.25.19-.06.08-.11.17-.13.26-.02.1-.04.2-.04.31,0,.22.05.4.14.55.09.15.29.29.6.42l1.11.48c.27.12.5.25.67.38.17.13.31.27.42.42.1.15.17.31.21.49.04.18.06.38.06.6,0,.75-.22,1.3-.65,1.64-.44.34-1.05.52-1.83.52s-1.4-.18-1.75-.53c-.35-.35-.53-.86-.53-1.52v-.29h1.44v.21Z"/>
</svg>