<svg id="Livello_1" data-name="Livello 1" xmlns="http://www.w3.org/2000/svg" viewBox="0 0 30 30"><defs><style>.cls-1{fill:none;stroke:#000;stroke-miterlimit:10;stroke-width:0.5px;}.cls-2{fill:#d1d1d1;}</style></defs><circle class="cls-1" cx="15" cy="15" r="12.5"/><path d="M22.4,13a.66.66,0,0,1,0,.14l-1,4a.45.45,0,0,1-.44.34l-5.94,0H9.07a.45.45,0,0,1-.44-.34l-1-4a.61.61,0,0,1,0-.14.94.94,0,1,1,1.23-.9.91.91,0,0,1-.35.73l1.25,1.25a1.67,1.67,0,0,0,2.53-.17l2-2.7A.95.95,0,1,1,16,10.54a.91.91,0,0,1-.27.65h0l2,2.7a1.67,1.67,0,0,0,2.53.19l1.25-1.25a1,1,0,0,1-.35-.74A.95.95,0,1,1,22.4,13Zm-1.1,5.88a.45.45,0,0,0-.45-.45H9.2a.45.45,0,0,0-.45.45V20a.45.45,0,0,0,.45.45H20.85A.45.45,0,0,0,21.3,20Z"/><path class="cls-2" d="M15,2.5A12.5,12.5,0,1,1,2.5,15,12.5,12.5,0,0,1,15,2.5M15,1A14,14,0,1,0,29,15,14,14,0,0,0,15,1Z"/></svg>