<svg id="Livello_1" data-name="Livello 1" xmlns="http://www.w3.org/2000/svg" xmlns:xlink="http://www.w3.org/1999/xlink" viewBox="0 0 30 30"><defs><style>.cls-1,.cls-4,.cls-6{fill:none;}.cls-2{clip-path:url(#clip-path);}.cls-3{fill:#a11624;}.cls-4{stroke:#fff;stroke-width:0.88px;}.cls-4,.cls-6,.cls-7,.cls-8,.cls-9{stroke-miterlimit:10;}.cls-5,.cls-8{fill:#d3e1ec;}.cls-6{stroke:#713428;stroke-width:0.22px;}.cls-7{fill:#bcb5b5;}.cls-7,.cls-8,.cls-9{stroke:#463835;}.cls-7,.cls-8{stroke-width:0.32px;}.cls-9{fill:#463835;stroke-width:0.08px;}.cls-10{fill:#713428;}.cls-11{fill:#d1d1d1;}</style><clipPath id="clip-path"><path class="cls-1" d="M15,2.5A12.5,12.5,0,1,1,2.62,16.77,12.94,12.94,0,0,1,2.5,15,12.5,12.5,0,0,1,15,2.5Z"/></clipPath></defs><g class="cls-2"><path class="cls-3" d="M15,2.5A12.5,12.5,0,1,1,2.62,16.77,12.94,12.94,0,0,1,2.5,15,12.5,12.5,0,0,1,15,2.5Z"/><polyline class="cls-4" points="2.77 19.63 20.31 19.63 27.5 19.63"/><rect class="cls-5" x="2.63" y="19.17" width="24.73" height="8.42"/><polygon class="cls-3" points="7.81 21.34 9.06 19.97 10.39 21.34 9.14 23.07 7.81 21.34"/><polyline class="cls-6" points="8.26 22.02 9.14 21.2 9.94 22.02"/><polygon class="cls-3" points="19.92 21.34 21.17 19.97 22.5 21.34 21.26 23.07 19.92 21.34"/><polyline class="cls-6" points="20.37 22.02 21.26 21.2 22.05 22.02"/><polygon class="cls-3" points="10.44 24.81 9.19 26.18 7.85 24.81 9.1 23.07 10.44 24.81"/><polyline class="cls-6" points="9.98 24.14 9.1 24.95 8.3 24.14"/><rect class="cls-1" x="3.6" y="20.55" width="4.66" height="5.04"/><polygon class="cls-7" points="3.6 25.6 5.1 23.07 3.6 20.55 6.94 20.55 9.06 23.07 6.96 25.59 3.6 25.6"/><polygon class="cls-8" points="5.93 24.14 4.99 24.14 5.31 23.07 4.99 22.02 5.93 22.02 5.93 24.14"/><path class="cls-9" d="M8.88,23.07H7.64a1,1,0,0,0-.68.35l-.23.33a1.65,1.65,0,0,0,.81-.19,1.24,1.24,0,0,0,.31-.49"/><path class="cls-9" d="M8.88,23.07H7.64A.93.93,0,0,1,7,22.73l-.23-.33a1.65,1.65,0,0,1,.81.19,1.23,1.23,0,0,1,.31.48"/><rect class="cls-1" x="9.94" y="20.55" width="4.66" height="5.04"/><polygon class="cls-7" points="14.6 25.6 13.1 23.07 14.6 20.55 11.26 20.55 9.14 23.07 11.24 25.59 14.6 25.6"/><polygon class="cls-8" points="12.27 24.14 13.21 24.14 12.89 23.07 13.21 22.02 12.27 22.02 12.27 24.14"/><path class="cls-9" d="M9.32,23.07h1.24a1,1,0,0,1,.68.35l.23.33a1.65,1.65,0,0,1-.81-.19,1.24,1.24,0,0,1-.31-.49"/><path class="cls-9" d="M9.32,23.07h1.24a.93.93,0,0,0,.68-.34l.23-.33a1.65,1.65,0,0,0-.81.19,1.23,1.23,0,0,0-.31.48"/><polygon class="cls-3" points="22.5 24.81 21.26 26.18 19.92 24.81 21.17 23.07 22.5 24.81"/><polyline class="cls-6" points="22.05 24.14 21.17 24.95 20.37 24.14"/><rect class="cls-1" x="15.76" y="20.55" width="4.66" height="5.04"/><polygon class="cls-7" points="15.76 25.6 17.26 23.07 15.76 20.55 19.09 20.55 21.21 23.07 19.11 25.59 15.76 25.6"/><polygon class="cls-8" points="18.09 24.14 17.15 24.14 17.46 23.07 17.15 22.02 18.09 22.02 18.09 24.14"/><path class="cls-9" d="M21,23.07H19.79a.94.94,0,0,0-.67.35l-.23.33a1.6,1.6,0,0,0,.8-.19,1.19,1.19,0,0,0,.32-.49"/><path class="cls-9" d="M21,23.07H19.79a.91.91,0,0,1-.67-.34l-.23-.33a1.6,1.6,0,0,1,.8.19,1.19,1.19,0,0,1,.32.48"/><rect class="cls-1" x="22.01" y="20.55" width="4.66" height="5.04"/><polygon class="cls-7" points="26.67 25.6 25.17 23.07 26.67 20.55 23.33 20.55 21.21 23.07 23.31 25.59 26.67 25.6"/><polygon class="cls-8" points="24.34 24.14 25.28 24.14 24.96 23.07 25.28 22.02 24.34 22.02 24.34 24.14"/><path class="cls-9" d="M21.39,23.07h1.24a1,1,0,0,1,.68.35l.23.33a1.65,1.65,0,0,1-.81-.19,1.24,1.24,0,0,1-.31-.49"/><path class="cls-9" d="M21.39,23.07h1.24a.93.93,0,0,0,.68-.34l.23-.33a1.65,1.65,0,0,0-.81.19,1.23,1.23,0,0,0-.31.48"/><polygon class="cls-3" points="15.13 20.55 13.77 23.07 15.13 25.6 16.47 23.07 15.13 20.55"/><polygon class="cls-10" points="15.13 21.52 14.29 23.07 15.13 24.63 15.96 23.07 15.13 21.52"/><rect class="cls-5" x="23.51" y="7.37" width="4.33" height="11.8"/><polygon class="cls-3" points="27.51 14.13 26.15 16.65 27.51 19.17 28.85 16.65 27.51 14.13"/><polygon class="cls-10" points="27.51 15.1 26.67 16.65 27.51 18.2 28.33 16.65 27.51 15.1"/><polygon class="cls-5" points="21.04 14.13 27.84 14.13 27.84 12.74 21.04 12.74 21.56 13.44 21.04 14.13"/><rect class="cls-1" x="22.18" y="14.13" width="4.66" height="5.04"/><polygon class="cls-7" points="26.84 19.17 25.34 16.65 26.84 14.13 23.51 14.13 21.39 16.65 23.49 19.17 26.84 19.17"/><polygon class="cls-8" points="24.51 17.71 25.45 17.71 25.14 16.65 25.45 15.59 24.51 15.59 24.51 17.71"/><path class="cls-9" d="M21.56,16.65h1.25a.91.91,0,0,1,.67.34l.23.33a1.67,1.67,0,0,1-.8-.18,1.19,1.19,0,0,1-.32-.49"/><path class="cls-9" d="M21.56,16.65h1.25a1,1,0,0,0,.67-.34l.23-.33a1.67,1.67,0,0,0-.8.18,1.19,1.19,0,0,0-.32.49"/><polygon class="cls-3" points="27.14 7.7 25.78 10.22 27.14 12.74 28.48 10.22 27.14 7.7"/><polygon class="cls-10" points="27.14 8.67 26.3 10.22 27.14 11.78 27.96 10.22 27.14 8.67"/><polygon class="cls-5" points="21.04 7.7 27.84 7.7 27.84 6.32 21.04 6.32 21.56 7.01 21.04 7.7"/><rect class="cls-1" x="22.01" y="7.7" width="4.66" height="5.04"/><polygon class="cls-7" points="26.67 12.74 25.17 10.22 26.67 7.7 23.33 7.7 21.21 10.22 23.31 12.74 26.67 12.74"/><polygon class="cls-8" points="24.34 11.28 25.28 11.28 24.96 10.22 25.28 9.16 24.34 9.16 24.34 11.28"/><path class="cls-9" d="M21.39,10.22h1.24a1,1,0,0,1,.68.35l.23.32a1.73,1.73,0,0,1-.81-.18,1.24,1.24,0,0,1-.31-.49"/><path class="cls-9" d="M21.39,10.22h1.24a.93.93,0,0,0,.68-.34l.23-.33a1.73,1.73,0,0,0-.81.18,1.24,1.24,0,0,0-.31.49"/></g><path class="cls-11" d="M15,2.5A12.5,12.5,0,1,1,2.5,15,12.5,12.5,0,0,1,15,2.5M15,1A14,14,0,1,0,29,15,14,14,0,0,0,15,1Z"/></svg>