<svg id="Livello_1" data-name="Livello 1" xmlns="http://www.w3.org/2000/svg" viewBox="0 0 30 30"><defs><style>.cls-1,.cls-2{fill:none;}.cls-2{stroke:#000;stroke-miterlimit:10;stroke-width:0.5px;}.cls-3{fill:#d1d1d1;}</style></defs><path class="cls-1" d="M3,3.09H27v24H3Z"/><path d="M16,21.42a1.54,1.54,0,0,1-2.08,0l-.08-.08c-4.06-3.67-6.71-6.08-6.61-9.08A4.23,4.23,0,0,1,9.08,8.94,4.48,4.48,0,0,1,15,9.79a4.47,4.47,0,0,1,5.92-.85,4.23,4.23,0,0,1,1.81,3.32c.11,3-2.55,5.41-6.61,9.09Z"/><circle class="cls-2" cx="15" cy="15" r="12.5"/><path class="cls-3" d="M15,2.5A12.5,12.5,0,1,1,2.5,15,12.5,12.5,0,0,1,15,2.5M15,1A14,14,0,1,0,29,15,14,14,0,0,0,15,1Z"/></svg>