<?xml version="1.0" encoding="UTF-8"?>
<svg id="Livello_1" data-name="Livello 1" xmlns="http://www.w3.org/2000/svg" xmlns:xlink="http://www.w3.org/1999/xlink" viewBox="0 0 30 30">
  <defs>
    <style>
      .cls-1 {
        fill: none;
      }

      .cls-2 {
        clip-path: url(#clippath);
      }

      .cls-3 {
        fill: #fff;
      }

      .cls-4 {
        fill: #ffb200;
      }

      .cls-5 {
        fill: #992c89;
      }

      .cls-6 {
        fill: #d1d1d1;
      }
    </style>
    <clipPath id="clippath">
      <circle class="cls-1" cx="15" cy="15" r="12.5"/>
    </clipPath>
  </defs>
  <g class="cls-2">
    <circle class="cls-5" cx="15" cy="15" r="12.5"/>
    <g>
      <path class="cls-3" d="m17.5,9.35c0-.14-.15-.25-.91-.25-.08,0-.16,0-.25,0,.08-.03.16-.06.23-.09.7-.29.79-.45.74-.58-.05-.13-.23-.17-.93.12-.06.03-.13.05-.19.09.05-.05.1-.1.15-.14.54-.54.56-.72.47-.82-.1-.1-.28-.07-.82.47-.06.06-.11.12-.17.18.04-.08.07-.15.1-.23.29-.7.24-.88.11-.94-.13-.05-.29.04-.57.75-.03.06-.05.13-.07.2,0-.07,0-.14,0-.21,0-.76-.11-.91-.25-.91s-.25.15-.25.91c0,.08,0,.16,0,.25-.03-.08-.06-.16-.09-.23-.29-.7-.45-.79-.58-.74-.13.05-.17.23.12.93.03.06.05.13.09.19-.05-.05-.1-.1-.14-.15-.54-.54-.72-.56-.82-.47-.1.1-.07.28.47.82.06.06.12.11.18.17-.08-.04-.15-.07-.23-.1-.7-.29-.88-.24-.94-.11s.04.29.75.57c.06.03.13.05.2.07-.07,0-.14,0-.21,0-.76,0-.91.11-.91.25s.15.25.91.25c.08,0,.16,0,.25,0-.08.03-.16.06-.23.09-.7.29-.79.45-.74.58.05.13.23.17.93-.12.06-.03.13-.05.19-.09-.05.05-.1.1-.15.14-.54.54-.56.72-.47.82s.28.07.82-.47c.06-.06.11-.12.17-.18-.04.08-.07.15-.1.23-.29.7-.24.88-.11.94.13.05.29-.04.57-.75.03-.06.05-.13.07-.2,0,.07,0,.14,0,.21,0,.76.11.91.25.91s.25-.15.25-.91c0-.08,0-.16,0-.25.03.08.06.16.09.23.29.7.45.79.58.74.13-.05.17-.23-.12-.93-.03-.06-.05-.13-.09-.19.05.05.1.1.14.15.54.54.72.56.82.47.1-.1.07-.28-.47-.82-.06-.06-.12-.11-.18-.17.08.04.15.07.23.1.7.29.88.24.94.11.05-.13-.04-.29-.75-.57-.06-.03-.13-.05-.2-.07.07,0,.14,0,.21,0,.76,0,.91-.11.91-.25Z"/>
      <circle class="cls-4" cx="15.14" cy="9.35" r=".75"/>
    </g>
    <g>
      <path class="cls-3" d="m11.9,10.85c0-.17-.18-.3-1.09-.3-.1,0-.2,0-.3,0,.1-.03.19-.07.28-.11.84-.35.95-.55.89-.7-.06-.15-.28-.21-1.12.15-.07.03-.15.07-.23.1.06-.06.12-.12.18-.17.65-.65.68-.87.56-.98-.12-.12-.34-.09-.98.56-.07.07-.14.14-.21.22.04-.09.09-.19.12-.27.35-.84.29-1.06.13-1.12-.15-.06-.34.05-.69.9-.03.07-.06.15-.09.23,0-.09,0-.17,0-.25,0-.91-.13-1.09-.3-1.09s-.3.18-.3,1.09c0,.1,0,.2,0,.3-.03-.1-.07-.19-.11-.28-.35-.84-.55-.95-.7-.89-.15.06-.21.28.15,1.12.03.07.07.15.1.23-.06-.06-.12-.12-.17-.18-.65-.65-.87-.68-.98-.56-.12.12-.09.34.56.98.07.07.14.14.22.21-.09-.04-.19-.09-.27-.12-.84-.35-1.06-.29-1.12-.13s.05.34.9.69c.07.03.15.06.23.09-.09,0-.17,0-.25,0-.91,0-1.09.13-1.09.3s.18.3,1.09.3c.1,0,.2,0,.3,0-.1.03-.19.07-.28.11-.84.35-.95.55-.89.7.06.15.28.21,1.12-.15.07-.03.15-.07.23-.1-.06.06-.12.12-.18.17-.65.65-.68.87-.56.98s.34.09.98-.56c.07-.07.14-.14.21-.22-.04.09-.09.19-.12.27-.35.84-.29,1.06-.13,1.12.15.06.34-.05.69-.9.03-.07.06-.15.09-.23,0,.09,0,.17,0,.25,0,.91.13,1.09.3,1.09s.3-.18.3-1.09c0-.1,0-.2,0-.3.03.1.07.19.11.28.35.84.55.95.7.89.15-.06.21-.28-.15-1.12-.03-.07-.07-.15-.1-.23.06.06.12.12.17.18.65.65.87.68.98.56.12-.12.09-.34-.56-.98-.07-.07-.14-.14-.22-.21.09.04.19.09.27.12.84.35,1.06.29,1.12.13.06-.15-.05-.34-.9-.69-.07-.03-.15-.06-.23-.09.09,0,.17,0,.25,0,.91,0,1.09-.13,1.09-.3Z"/>
      <circle class="cls-4" cx="9.07" cy="10.85" r=".9"/>
    </g>
    <g>
      <path class="cls-3" d="m25.05,13.05c0-.17-.18-.3-1.09-.3-.1,0-.2,0-.3,0,.1-.03.19-.07.28-.11.84-.35.95-.55.89-.7-.06-.15-.28-.21-1.12.15-.07.03-.15.07-.23.1.06-.06.12-.12.18-.17.65-.65.68-.87.56-.98-.12-.12-.34-.09-.98.56-.07.07-.14.14-.21.22.04-.09.09-.19.12-.27.35-.84.29-1.06.13-1.12-.15-.06-.34.05-.69.9-.03.07-.06.15-.09.23,0-.09,0-.17,0-.25,0-.91-.13-1.09-.3-1.09s-.3.18-.3,1.09c0,.1,0,.2,0,.3-.03-.1-.07-.19-.11-.28-.35-.84-.55-.95-.7-.89-.15.06-.21.28.15,1.12.03.07.07.15.1.23-.06-.06-.12-.12-.17-.18-.65-.65-.87-.68-.98-.56-.12.12-.09.34.56.98.07.07.14.14.22.21-.09-.04-.19-.09-.27-.12-.84-.35-1.06-.29-1.12-.13s.05.34.9.69c.07.03.15.06.23.09-.09,0-.17,0-.25,0-.91,0-1.09.13-1.09.3s.18.3,1.09.3c.1,0,.2,0,.3,0-.1.03-.19.07-.28.11-.84.35-.95.55-.89.7.06.15.28.21,1.12-.15.07-.03.15-.07.23-.1-.06.06-.12.12-.18.17-.65.65-.68.87-.56.98s.34.09.98-.56c.07-.07.14-.14.21-.22-.04.09-.09.19-.12.27-.35.84-.29,1.06-.13,1.12.15.06.34-.05.69-.9.03-.07.06-.15.09-.23,0,.09,0,.17,0,.25,0,.91.13,1.09.3,1.09s.3-.18.3-1.09c0-.1,0-.2,0-.3.03.1.07.19.11.28.35.84.55.95.7.89.15-.06.21-.28-.15-1.12-.03-.07-.07-.15-.1-.23.06.06.12.12.17.18.65.65.87.68.98.56.12-.12.09-.34-.56-.98-.07-.07-.14-.14-.22-.21.09.04.19.09.27.12.84.35,1.06.29,1.12.13.06-.15-.05-.34-.9-.69-.07-.03-.15-.06-.23-.09.09,0,.17,0,.25,0,.91,0,1.09-.13,1.09-.3Z"/>
      <circle class="cls-4" cx="22.22" cy="13.05" r=".9"/>
    </g>
    <g>
      <path class="cls-3" d="m12.42,21.99c0-.14-.15-.25-.91-.25-.08,0-.16,0-.25,0,.08-.03.16-.06.23-.09.7-.29.79-.45.74-.58-.05-.13-.23-.17-.93.12-.06.03-.13.05-.19.09.05-.05.1-.1.15-.14.54-.54.56-.72.47-.82-.1-.1-.28-.07-.82.47-.06.06-.11.12-.17.18.04-.08.07-.15.1-.23.29-.7.24-.88.11-.94-.13-.05-.29.04-.57.75-.03.06-.05.13-.07.2,0-.07,0-.14,0-.21,0-.76-.11-.91-.25-.91s-.25.15-.25.91c0,.08,0,.16,0,.25-.03-.08-.06-.16-.09-.23-.29-.7-.45-.79-.58-.74-.13.05-.17.23.12.93.03.06.05.13.09.19-.05-.05-.1-.1-.14-.15-.54-.54-.72-.56-.82-.47-.1.1-.07.28.47.82.06.06.12.11.18.17-.08-.04-.15-.07-.23-.1-.7-.29-.88-.24-.94-.11s.04.29.75.57c.06.03.13.05.2.07-.07,0-.14,0-.21,0-.76,0-.91.11-.91.25s.15.25.91.25c.08,0,.16,0,.25,0-.08.03-.16.06-.23.09-.7.29-.79.45-.74.58.05.13.23.17.93-.12.06-.03.13-.05.19-.09-.05.05-.1.1-.15.14-.54.54-.56.72-.47.82s.28.07.82-.47c.06-.06.11-.12.17-.18-.04.08-.07.15-.1.23-.29.7-.24.88-.11.94.13.05.29-.04.57-.75.03-.06.05-.13.07-.2,0,.07,0,.14,0,.21,0,.76.11.91.25.91s.25-.15.25-.91c0-.08,0-.16,0-.25.03.08.06.16.09.23.29.7.45.79.58.74.13-.05.17-.23-.12-.93-.03-.06-.05-.13-.09-.19.05.05.1.1.14.15.54.54.72.56.82.47.1-.1.07-.28-.47-.82-.06-.06-.12-.11-.18-.17.08.04.15.07.23.1.7.29.88.24.94.11.05-.13-.04-.29-.75-.57-.06-.03-.13-.05-.2-.07.07,0,.14,0,.21,0,.76,0,.91-.11.91-.25Z"/>
      <circle class="cls-4" cx="10.06" cy="21.99" r=".75"/>
    </g>
    <g>
      <path class="cls-3" d="m13.96,13.59c0-.07-.07-.12-.45-.12-.04,0-.08,0-.13,0,.04-.01.08-.03.12-.04.35-.15.4-.23.37-.29-.03-.06-.12-.09-.47.06-.03.01-.06.03-.1.04.03-.02.05-.05.08-.07.27-.27.28-.36.23-.41-.05-.05-.14-.04-.41.23-.03.03-.06.06-.09.09.02-.04.04-.08.05-.11.14-.35.12-.44.06-.47-.06-.03-.14.02-.29.37-.01.03-.03.06-.04.1,0-.04,0-.07,0-.1,0-.38-.06-.45-.12-.45s-.12.07-.12.45c0,.04,0,.08,0,.13-.01-.04-.03-.08-.04-.12-.15-.35-.23-.4-.29-.37-.06.03-.09.12.06.47.01.03.03.06.04.1-.02-.03-.05-.05-.07-.08-.27-.27-.36-.28-.41-.23-.05.05-.04.14.23.41.03.03.06.06.09.09-.04-.02-.08-.04-.11-.05-.35-.14-.44-.12-.47-.06s.02.14.37.29c.03.01.06.03.1.04-.04,0-.07,0-.1,0-.38,0-.45.06-.45.12s.07.12.45.12c.04,0,.08,0,.13,0-.04.01-.08.03-.12.04-.35.15-.4.23-.37.29.03.06.12.09.47-.06.03-.01.06-.03.1-.04-.03.02-.05.05-.08.07-.27.27-.28.36-.23.41s.14.04.41-.23c.03-.03.06-.06.09-.09-.02.04-.04.08-.05.11-.14.35-.12.44-.06.47.06.03.14-.02.29-.37.01-.03.03-.06.04-.1,0,.04,0,.07,0,.1,0,.38.06.45.12.45s.12-.07.12-.45c0-.04,0-.08,0-.13.01.04.03.08.04.12.15.35.23.4.29.37.06-.03.09-.12-.06-.47-.01-.03-.03-.06-.04-.1.02.03.05.05.07.08.27.27.36.28.41.23.05-.05.04-.14-.23-.41-.03-.03-.06-.06-.09-.09.04.02.08.04.11.05.35.14.44.12.47.06.03-.06-.02-.14-.37-.29-.03-.01-.06-.03-.1-.04.04,0,.07,0,.1,0,.38,0,.45-.06.45-.12Z"/>
      <circle class="cls-4" cx="12.78" cy="13.59" r=".37"/>
    </g>
    <g>
      <path class="cls-3" d="m20.56,8.91c0-.07-.07-.12-.45-.12-.04,0-.08,0-.13,0,.04-.01.08-.03.12-.04.35-.15.4-.23.37-.29-.03-.06-.12-.09-.47.06-.03.01-.06.03-.1.04.03-.02.05-.05.08-.07.27-.27.28-.36.23-.41-.05-.05-.14-.04-.41.23-.03.03-.06.06-.09.09.02-.04.04-.08.05-.11.14-.35.12-.44.06-.47-.06-.03-.14.02-.29.37-.01.03-.03.06-.04.1,0-.04,0-.07,0-.1,0-.38-.06-.45-.12-.45s-.12.07-.12.45c0,.04,0,.08,0,.13-.01-.04-.03-.08-.04-.12-.15-.35-.23-.4-.29-.37-.06.03-.09.12.06.47.01.03.03.06.04.1-.02-.03-.05-.05-.07-.08-.27-.27-.36-.28-.41-.23-.05.05-.04.14.23.41.03.03.06.06.09.09-.04-.02-.08-.04-.11-.05-.35-.14-.44-.12-.47-.06s.02.14.37.29c.03.01.06.03.1.04-.04,0-.07,0-.1,0-.38,0-.45.06-.45.12s.07.12.45.12c.04,0,.08,0,.13,0-.04.01-.08.03-.12.04-.35.15-.4.23-.37.29.03.06.12.09.47-.06.03-.01.06-.03.1-.04-.03.02-.05.05-.08.07-.27.27-.28.36-.23.41s.14.04.41-.23c.03-.03.06-.06.09-.09-.02.04-.04.08-.05.11-.14.35-.12.44-.06.47.06.03.14-.02.29-.37.01-.03.03-.06.04-.1,0,.04,0,.07,0,.1,0,.38.06.45.12.45s.12-.07.12-.45c0-.04,0-.08,0-.13.01.04.03.08.04.12.15.35.23.4.29.37.06-.03.09-.12-.06-.47-.01-.03-.03-.06-.04-.1.02.03.05.05.07.08.27.27.36.28.41.23.05-.05.04-.14-.23-.41-.03-.03-.06-.06-.09-.09.04.02.08.04.11.05.35.14.44.12.47.06.03-.06-.02-.14-.37-.29-.03-.01-.06-.03-.1-.04.04,0,.07,0,.1,0,.38,0,.45-.06.45-.12Z"/>
      <circle class="cls-4" cx="19.38" cy="8.91" r=".37"/>
    </g>
    <g>
      <path class="cls-3" d="m18.24,13.09c0-.07-.07-.12-.45-.12-.04,0-.08,0-.13,0,.04-.01.08-.03.12-.04.35-.15.4-.23.37-.29-.03-.06-.12-.09-.47.06-.03.01-.06.03-.1.04.03-.02.05-.05.08-.07.27-.27.28-.36.23-.41-.05-.05-.14-.04-.41.23-.03.03-.06.06-.09.09.02-.04.04-.08.05-.11.14-.35.12-.44.06-.47-.06-.03-.14.02-.29.37-.01.03-.03.06-.04.1,0-.04,0-.07,0-.1,0-.38-.06-.45-.12-.45s-.12.07-.12.45c0,.04,0,.08,0,.13-.01-.04-.03-.08-.04-.12-.15-.35-.23-.4-.29-.37-.06.03-.09.12.06.47.01.03.03.06.04.1-.02-.03-.05-.05-.07-.08-.27-.27-.36-.28-.41-.23-.05.05-.04.14.23.41.03.03.06.06.09.09-.04-.02-.08-.04-.11-.05-.35-.14-.44-.12-.47-.06s.02.14.37.29c.03.01.06.03.1.04-.04,0-.07,0-.1,0-.38,0-.45.06-.45.12s.07.12.45.12c.04,0,.08,0,.13,0-.04.01-.08.03-.12.04-.35.15-.4.23-.37.29.03.06.12.09.47-.06.03-.01.06-.03.1-.04-.03.02-.05.05-.08.07-.27.27-.28.36-.23.41s.14.04.41-.23c.03-.03.06-.06.09-.09-.02.04-.04.08-.05.11-.14.35-.12.44-.06.47.06.03.14-.02.29-.37.01-.03.03-.06.04-.1,0,.04,0,.07,0,.1,0,.38.06.45.12.45s.12-.07.12-.45c0-.04,0-.08,0-.13.01.04.03.08.04.12.15.35.23.4.29.37.06-.03.09-.12-.06-.47-.01-.03-.03-.06-.04-.1.02.03.05.05.07.08.27.27.36.28.41.23.05-.05.04-.14-.23-.41-.03-.03-.06-.06-.09-.09.04.02.08.04.11.05.35.14.44.12.47.06.03-.06-.02-.14-.37-.29-.03-.01-.06-.03-.1-.04.04,0,.07,0,.1,0,.38,0,.45-.06.45-.12Z"/>
      <circle class="cls-4" cx="17.06" cy="13.09" r=".37"/>
    </g>
    <g>
      <path class="cls-3" d="m12.78,5.37c0-.07-.07-.12-.45-.12-.04,0-.08,0-.13,0,.04-.01.08-.03.12-.04.35-.15.4-.23.37-.29-.03-.06-.12-.09-.47.06-.03.01-.06.03-.1.04.03-.02.05-.05.08-.07.27-.27.28-.36.23-.41-.05-.05-.14-.04-.41.23-.03.03-.06.06-.09.09.02-.04.04-.08.05-.11.14-.35.12-.44.06-.47-.06-.03-.14.02-.29.37-.01.03-.03.06-.04.1,0-.04,0-.07,0-.1,0-.38-.06-.45-.12-.45s-.12.07-.12.45c0,.04,0,.08,0,.13-.01-.04-.03-.08-.04-.12-.15-.35-.23-.4-.29-.37-.06.03-.09.12.06.47.01.03.03.06.04.1-.02-.03-.05-.05-.07-.08-.27-.27-.36-.28-.41-.23-.05.05-.04.14.23.41.03.03.06.06.09.09-.04-.02-.08-.04-.11-.05-.35-.14-.44-.12-.47-.06s.02.14.37.29c.03.01.06.03.1.04-.04,0-.07,0-.1,0-.38,0-.45.06-.45.12s.07.12.45.12c.04,0,.08,0,.13,0-.04.01-.08.03-.12.04-.35.15-.4.23-.37.29.03.06.12.09.47-.06.03-.01.06-.03.1-.04-.03.02-.05.05-.08.07-.27.27-.28.36-.23.41s.14.04.41-.23c.03-.03.06-.06.09-.09-.02.04-.04.08-.05.11-.14.35-.12.44-.06.47.06.03.14-.02.29-.37.01-.03.03-.06.04-.1,0,.04,0,.07,0,.1,0,.38.06.45.12.45s.12-.07.12-.45c0-.04,0-.08,0-.13.01.04.03.08.04.12.15.35.23.4.29.37.06-.03.09-.12-.06-.47-.01-.03-.03-.06-.04-.1.02.03.05.05.07.08.27.27.36.28.41.23.05-.05.04-.14-.23-.41-.03-.03-.06-.06-.09-.09.04.02.08.04.11.05.35.14.44.12.47.06.03-.06-.02-.14-.37-.29-.03-.01-.06-.03-.1-.04.04,0,.07,0,.1,0,.38,0,.45-.06.45-.12Z"/>
      <circle class="cls-4" cx="11.6" cy="5.37" r=".37"/>
    </g>
    <g>
      <path class="cls-3" d="m17.5,17.84c0-.14-.15-.25-.91-.25-.08,0-.16,0-.25,0,.08-.03.16-.06.23-.09.7-.29.79-.45.74-.58-.05-.13-.23-.17-.93.12-.06.03-.13.05-.19.09.05-.05.1-.1.15-.14.54-.54.56-.72.47-.82-.1-.1-.28-.07-.82.47-.06.06-.11.12-.17.18.04-.08.07-.15.1-.23.29-.7.24-.88.11-.94-.13-.05-.29.04-.57.75-.03.06-.05.13-.07.2,0-.07,0-.14,0-.21,0-.76-.11-.91-.25-.91s-.25.15-.25.91c0,.08,0,.16,0,.25-.03-.08-.06-.16-.09-.23-.29-.7-.45-.79-.58-.74-.13.05-.17.23.12.93.03.06.05.13.09.19-.05-.05-.1-.1-.14-.15-.54-.54-.72-.56-.82-.47-.1.1-.07.28.47.82.06.06.12.11.18.17-.08-.04-.15-.07-.23-.1-.7-.29-.88-.24-.94-.11s.04.29.75.57c.06.03.13.05.2.07-.07,0-.14,0-.21,0-.76,0-.91.11-.91.25s.15.25.91.25c.08,0,.16,0,.25,0-.08.03-.16.06-.23.09-.7.29-.79.45-.74.58.05.13.23.17.93-.12.06-.03.13-.05.19-.09-.05.05-.1.1-.15.14-.54.54-.56.72-.47.82s.28.07.82-.47c.06-.06.11-.12.17-.18-.04.08-.07.15-.1.23-.29.7-.24.88-.11.94.13.05.29-.04.57-.75.03-.06.05-.13.07-.2,0,.07,0,.14,0,.21,0,.76.11.91.25.91s.25-.15.25-.91c0-.08,0-.16,0-.25.03.08.06.16.09.23.29.7.45.79.58.74.13-.05.17-.23-.12-.93-.03-.06-.05-.13-.09-.19.05.05.1.1.14.15.54.54.72.56.82.47.1-.1.07-.28-.47-.82-.06-.06-.12-.11-.18-.17.08.04.15.07.23.1.7.29.88.24.94.11.05-.13-.04-.29-.75-.57-.06-.03-.13-.05-.2-.07.07,0,.14,0,.21,0,.76,0,.91-.11.91-.25Z"/>
      <circle class="cls-4" cx="15.14" cy="17.84" r=".75"/>
    </g>
    <g>
      <path class="cls-3" d="m5.94,15.23c0-.07-.07-.12-.45-.12-.04,0-.08,0-.13,0,.04-.01.08-.03.12-.04.35-.15.4-.23.37-.29-.03-.06-.12-.09-.47.06-.03.01-.06.03-.1.04.03-.02.05-.05.08-.07.27-.27.28-.36.23-.41-.05-.05-.14-.04-.41.23-.03.03-.06.06-.09.09.02-.04.04-.08.05-.11.14-.35.12-.44.06-.47-.06-.03-.14.02-.29.37-.01.03-.03.06-.04.1,0-.04,0-.07,0-.1,0-.38-.06-.45-.12-.45s-.12.07-.12.45c0,.04,0,.08,0,.13-.01-.04-.03-.08-.04-.12-.15-.35-.23-.4-.29-.37-.06.03-.09.12.06.47.01.03.03.06.04.1-.02-.03-.05-.05-.07-.08-.27-.27-.36-.28-.41-.23-.05.05-.04.14.23.41.03.03.06.06.09.09-.04-.02-.08-.04-.11-.05-.35-.14-.44-.12-.47-.06s.02.14.37.29c.03.01.06.03.1.04-.04,0-.07,0-.1,0-.38,0-.45.06-.45.12s.07.12.45.12c.04,0,.08,0,.13,0-.04.01-.08.03-.12.04-.35.15-.4.23-.37.29.03.06.12.09.47-.06.03-.01.06-.03.1-.04-.03.02-.05.05-.08.07-.27.27-.28.36-.23.41s.14.04.41-.23c.03-.03.06-.06.09-.09-.02.04-.04.08-.05.11-.14.35-.12.44-.06.47.06.03.14-.02.29-.37.01-.03.03-.06.04-.1,0,.04,0,.07,0,.1,0,.38.06.45.12.45s.12-.07.12-.45c0-.04,0-.08,0-.13.01.04.03.08.04.12.15.35.23.4.29.37.06-.03.09-.12-.06-.47-.01-.03-.03-.06-.04-.1.02.03.05.05.07.08.27.27.36.28.41.23.05-.05.04-.14-.23-.41-.03-.03-.06-.06-.09-.09.04.02.08.04.11.05.35.14.44.12.47.06.03-.06-.02-.14-.37-.29-.03-.01-.06-.03-.1-.04.04,0,.07,0,.1,0,.38,0,.45-.06.45-.12Z"/>
      <circle class="cls-4" cx="4.76" cy="15.23" r=".37"/>
    </g>
    <g>
      <path class="cls-3" d="m24.86,20.2c0-.14-.15-.25-.91-.25-.08,0-.16,0-.25,0,.08-.03.16-.06.23-.09.7-.29.79-.45.74-.58-.05-.13-.23-.17-.93.12-.06.03-.13.05-.19.09.05-.05.1-.1.15-.14.54-.54.56-.72.47-.82-.1-.1-.28-.07-.82.47-.06.06-.11.12-.17.18.04-.08.07-.15.1-.23.29-.7.24-.88.11-.94-.13-.05-.29.04-.57.75-.03.06-.05.13-.07.2,0-.07,0-.14,0-.21,0-.76-.11-.91-.25-.91s-.25.15-.25.91c0,.08,0,.16,0,.25-.03-.08-.06-.16-.09-.23-.29-.7-.45-.79-.58-.74-.13.05-.17.23.12.93.03.06.05.13.09.19-.05-.05-.1-.1-.14-.15-.54-.54-.72-.56-.82-.47-.1.1-.07.28.47.82.06.06.12.11.18.17-.08-.04-.15-.07-.23-.1-.7-.29-.88-.24-.94-.11s.04.29.75.57c.06.03.13.05.2.07-.07,0-.14,0-.21,0-.76,0-.91.11-.91.25s.15.25.91.25c.08,0,.16,0,.25,0-.08.03-.16.06-.23.09-.7.29-.79.45-.74.58.05.13.23.17.93-.12.06-.03.13-.05.19-.09-.05.05-.1.1-.15.14-.54.54-.56.72-.47.82s.28.07.82-.47c.06-.06.11-.12.17-.18-.04.08-.07.15-.1.23-.29.7-.24.88-.11.94.13.05.29-.04.57-.75.03-.06.05-.13.07-.2,0,.07,0,.14,0,.21,0,.76.11.91.25.91s.25-.15.25-.91c0-.08,0-.16,0-.25.03.08.06.16.09.23.29.7.45.79.58.74.13-.05.17-.23-.12-.93-.03-.06-.05-.13-.09-.19.05.05.1.1.14.15.54.54.72.56.82.47.1-.1.07-.28-.47-.82-.06-.06-.12-.11-.18-.17.08.04.15.07.23.1.7.29.88.24.94.11.05-.13-.04-.29-.75-.57-.06-.03-.13-.05-.2-.07.07,0,.14,0,.21,0,.76,0,.91-.11.91-.25Z"/>
      <circle class="cls-4" cx="22.5" cy="20.2" r=".75"/>
    </g>
    <g>
      <path class="cls-3" d="m20.94,16.88c0-.07-.07-.12-.45-.12-.04,0-.08,0-.13,0,.04-.01.08-.03.12-.04.35-.15.4-.23.37-.29-.03-.06-.12-.09-.47.06-.03.01-.06.03-.1.04.03-.02.05-.05.08-.07.27-.27.28-.36.23-.41-.05-.05-.14-.04-.41.23-.03.03-.06.06-.09.09.02-.04.04-.08.05-.11.14-.35.12-.44.06-.47-.06-.03-.14.02-.29.37-.01.03-.03.06-.04.1,0-.04,0-.07,0-.1,0-.38-.06-.45-.12-.45s-.12.07-.12.45c0,.04,0,.08,0,.13-.01-.04-.03-.08-.04-.12-.15-.35-.23-.4-.29-.37-.06.03-.09.12.06.47.01.03.03.06.04.1-.02-.03-.05-.05-.07-.08-.27-.27-.36-.28-.41-.23-.05.05-.04.14.23.41.03.03.06.06.09.09-.04-.02-.08-.04-.11-.05-.35-.14-.44-.12-.47-.06s.02.14.37.29c.03.01.06.03.1.04-.04,0-.07,0-.1,0-.38,0-.45.06-.45.12s.07.12.45.12c.04,0,.08,0,.13,0-.04.01-.08.03-.12.04-.35.15-.4.23-.37.29.03.06.12.09.47-.06.03-.01.06-.03.1-.04-.03.02-.05.05-.08.07-.27.27-.28.36-.23.41s.14.04.41-.23c.03-.03.06-.06.09-.09-.02.04-.04.08-.05.11-.14.35-.12.44-.06.47.06.03.14-.02.29-.37.01-.03.03-.06.04-.1,0,.04,0,.07,0,.1,0,.38.06.45.12.45s.12-.07.12-.45c0-.04,0-.08,0-.13.01.04.03.08.04.12.15.35.23.4.29.37.06-.03.09-.12-.06-.47-.01-.03-.03-.06-.04-.1.02.03.05.05.07.08.27.27.36.28.41.23.05-.05.04-.14-.23-.41-.03-.03-.06-.06-.09-.09.04.02.08.04.11.05.35.14.44.12.47.06.03-.06-.02-.14-.37-.29-.03-.01-.06-.03-.1-.04.04,0,.07,0,.1,0,.38,0,.45-.06.45-.12Z"/>
      <circle class="cls-4" cx="19.76" cy="16.88" r=".37"/>
    </g>
    <g>
      <path class="cls-3" d="m26.79,16.88c0-.07-.07-.12-.45-.12-.04,0-.08,0-.13,0,.04-.01.08-.03.12-.04.35-.15.4-.23.37-.29-.03-.06-.12-.09-.47.06-.03.01-.06.03-.1.04.03-.02.05-.05.08-.07.27-.27.28-.36.23-.41-.05-.05-.14-.04-.41.23-.03.03-.06.06-.09.09.02-.04.04-.08.05-.11.14-.35.12-.44.06-.47-.06-.03-.14.02-.29.37-.01.03-.03.06-.04.1,0-.04,0-.07,0-.1,0-.38-.06-.45-.12-.45s-.12.07-.12.45c0,.04,0,.08,0,.13-.01-.04-.03-.08-.04-.12-.15-.35-.23-.4-.29-.37-.06.03-.09.12.06.47.01.03.03.06.04.1-.02-.03-.05-.05-.07-.08-.27-.27-.36-.28-.41-.23-.05.05-.04.14.23.41.03.03.06.06.09.09-.04-.02-.08-.04-.11-.05-.35-.14-.44-.12-.47-.06s.02.14.37.29c.03.01.06.03.1.04-.04,0-.07,0-.1,0-.38,0-.45.06-.45.12s.07.12.45.12c.04,0,.08,0,.13,0-.04.01-.08.03-.12.04-.35.15-.4.23-.37.29.03.06.12.09.47-.06.03-.01.06-.03.1-.04-.03.02-.05.05-.08.07-.27.27-.28.36-.23.41s.14.04.41-.23c.03-.03.06-.06.09-.09-.02.04-.04.08-.05.11-.14.35-.12.44-.06.47.06.03.14-.02.29-.37.01-.03.03-.06.04-.1,0,.04,0,.07,0,.1,0,.38.06.45.12.45s.12-.07.12-.45c0-.04,0-.08,0-.13.01.04.03.08.04.12.15.35.23.4.29.37.06-.03.09-.12-.06-.47-.01-.03-.03-.06-.04-.1.02.03.05.05.07.08.27.27.36.28.41.23.05-.05.04-.14-.23-.41-.03-.03-.06-.06-.09-.09.04.02.08.04.11.05.35.14.44.12.47.06.03-.06-.02-.14-.37-.29-.03-.01-.06-.03-.1-.04.04,0,.07,0,.1,0,.38,0,.45-.06.45-.12Z"/>
      <circle class="cls-4" cx="25.61" cy="16.88" r=".37"/>
    </g>
    <g>
      <path class="cls-3" d="m18.3,24.16c0-.13-.14-.23-.84-.23-.07,0-.15,0-.23,0,.07-.03.15-.05.22-.08.65-.27.73-.42.68-.54-.05-.12-.21-.16-.86.11-.06.02-.12.05-.18.08.05-.04.1-.09.14-.13.5-.5.52-.66.43-.75-.09-.09-.26-.07-.75.43-.05.05-.11.11-.16.17.03-.07.07-.14.09-.21.26-.65.22-.81.1-.86-.12-.05-.26.04-.53.69-.02.06-.05.12-.07.18,0-.07,0-.13,0-.19,0-.7-.1-.84-.23-.84s-.23.14-.23.84c0,.07,0,.15,0,.23-.03-.07-.05-.15-.08-.22-.27-.65-.42-.73-.54-.68-.12.05-.16.21.11.86.02.06.05.12.08.18-.04-.05-.09-.1-.13-.14-.5-.5-.66-.52-.75-.43-.09.09-.07.26.43.75.05.05.11.11.17.16-.07-.03-.14-.07-.21-.09-.65-.26-.81-.22-.86-.1s.04.26.69.53c.06.02.12.05.18.07-.07,0-.13,0-.19,0-.7,0-.84.1-.84.23s.14.23.84.23c.07,0,.15,0,.23,0-.07.03-.15.05-.22.08-.65.27-.73.42-.68.54.05.12.21.16.86-.11.06-.02.12-.05.18-.08-.05.04-.1.09-.14.13-.5.5-.52.66-.43.75s.26.07.75-.43c.05-.05.11-.11.16-.17-.03.07-.07.14-.09.21-.26.65-.22.81-.1.86.12.05.26-.04.53-.69.02-.06.05-.12.07-.18,0,.07,0,.13,0,.19,0,.7.1.84.23.84s.23-.14.23-.84c0-.07,0-.15,0-.23.03.07.05.15.08.22.27.65.42.73.54.68.12-.05.16-.21-.11-.86-.02-.06-.05-.12-.08-.18.04.05.09.1.13.14.5.5.66.52.75.43.09-.09.07-.26-.43-.75-.05-.05-.11-.11-.17-.16.07.03.14.07.21.09.65.26.81.22.86.1.05-.12-.04-.26-.69-.53-.06-.02-.12-.05-.18-.07.07,0,.13,0,.19,0,.7,0,.84-.1.84-.23Z"/>
      <circle class="cls-4" cx="16.13" cy="24.16" r=".69"/>
    </g>
    <g>
      <path class="cls-3" d="m11.17,16.86c0-.11-.12-.2-.71-.2-.06,0-.13,0-.2,0,.06-.02.13-.05.18-.07.55-.23.62-.36.58-.46-.04-.1-.18-.14-.73.1-.05.02-.1.04-.15.07.04-.04.08-.08.12-.11.42-.42.44-.57.37-.64-.08-.08-.22-.06-.64.37-.04.04-.09.09-.14.14.03-.06.06-.12.08-.18.23-.55.19-.69.09-.74-.1-.04-.23.03-.45.59-.02.05-.04.1-.06.15,0-.06,0-.11,0-.16,0-.6-.09-.71-.2-.71s-.2.12-.2.71c0,.06,0,.13,0,.2-.02-.06-.05-.13-.07-.18-.23-.55-.36-.62-.46-.58-.1.04-.14.18.1.73.02.05.04.1.07.15-.04-.04-.08-.08-.11-.12-.42-.42-.57-.44-.64-.37-.08.08-.06.22.37.64.04.04.09.09.14.14-.06-.03-.12-.06-.18-.08-.55-.23-.69-.19-.74-.09s.03.23.59.45c.05.02.1.04.15.06-.06,0-.11,0-.16,0-.6,0-.71.09-.71.2s.12.2.71.2c.06,0,.13,0,.2,0-.06.02-.13.05-.18.07-.55.23-.62.36-.58.46.04.1.18.14.73-.1.05-.02.1-.04.15-.07-.04.04-.08.08-.12.11-.42.42-.44.57-.37.64s.22.06.64-.37c.04-.04.09-.09.14-.14-.03.06-.06.12-.08.18-.23.55-.19.69-.09.74.1.04.23-.03.45-.59.02-.05.04-.1.06-.15,0,.06,0,.11,0,.16,0,.6.09.71.2.71s.2-.12.2-.71c0-.06,0-.13,0-.2.02.06.05.13.07.18.23.55.36.62.46.58.1-.04.14-.18-.1-.73-.02-.05-.04-.1-.07-.15.04.04.08.08.11.12.42.42.57.44.64.37.08-.08.06-.22-.37-.64-.04-.04-.09-.09-.14-.14.06.03.12.06.18.08.55.23.69.19.74.09.04-.1-.03-.23-.59-.45-.05-.02-.1-.04-.15-.06.06,0,.11,0,.16,0,.6,0,.71-.09.71-.2Z"/>
      <circle class="cls-4" cx="9.31" cy="16.86" r=".59"/>
    </g>
    <g>
      <path class="cls-3" d="m6.99,19.63c0-.11-.12-.2-.71-.2-.06,0-.13,0-.2,0,.06-.02.13-.05.18-.07.55-.23.62-.36.58-.46-.04-.1-.18-.14-.73.1-.05.02-.1.04-.15.07.04-.04.08-.08.12-.11.42-.42.44-.57.37-.64-.08-.08-.22-.06-.64.37-.04.04-.09.09-.14.14.03-.06.06-.12.08-.18.23-.55.19-.69.09-.74-.1-.04-.23.03-.45.59-.02.05-.04.1-.06.15,0-.06,0-.11,0-.16,0-.6-.09-.71-.2-.71s-.2.12-.2.71c0,.06,0,.13,0,.2-.02-.06-.05-.13-.07-.18-.23-.55-.36-.62-.46-.58-.1.04-.14.18.1.73.02.05.04.1.07.15-.04-.04-.08-.08-.11-.12-.42-.42-.57-.44-.64-.37-.08.08-.06.22.37.64.04.04.09.09.14.14-.06-.03-.12-.06-.18-.08-.55-.23-.69-.19-.74-.09s.03.23.59.45c.05.02.1.04.15.06-.06,0-.11,0-.16,0-.6,0-.71.09-.71.2s.12.2.71.2c.06,0,.13,0,.2,0-.06.02-.13.05-.18.07-.55.23-.62.36-.58.46.04.1.18.14.73-.1.05-.02.1-.04.15-.07-.04.04-.08.08-.12.11-.42.42-.44.57-.37.64s.22.06.64-.37c.04-.04.09-.09.14-.14-.03.06-.06.12-.08.18-.23.55-.19.69-.09.74.1.04.23-.03.45-.59.02-.05.04-.1.06-.15,0,.06,0,.11,0,.16,0,.6.09.71.2.71s.2-.12.2-.71c0-.06,0-.13,0-.2.02.06.05.13.07.18.23.55.36.62.46.58.1-.04.14-.18-.1-.73-.02-.05-.04-.1-.07-.15.04.04.08.08.11.12.42.42.57.44.64.37.08-.08.06-.22-.37-.64-.04-.04-.09-.09-.14-.14.06.03.12.06.18.08.55.23.69.19.74.09.04-.1-.03-.23-.59-.45-.05-.02-.1-.04-.15-.06.06,0,.11,0,.16,0,.6,0,.71-.09.71-.2Z"/>
      <circle class="cls-4" cx="5.13" cy="19.63" r=".59"/>
    </g>
    <g>
      <path class="cls-3" d="m8.1,6.18c0-.11-.12-.2-.71-.2-.06,0-.13,0-.2,0,.06-.02.13-.05.18-.07.55-.23.62-.36.58-.46-.04-.1-.18-.14-.73.1-.05.02-.1.04-.15.07.04-.04.08-.08.12-.11.42-.42.44-.57.37-.64-.08-.08-.22-.06-.64.37-.04.04-.09.09-.14.14.03-.06.06-.12.08-.18.23-.55.19-.69.09-.74-.1-.04-.23.03-.45.59-.02.05-.04.1-.06.15,0-.06,0-.11,0-.16,0-.6-.09-.71-.2-.71s-.2.12-.2.71c0,.06,0,.13,0,.2-.02-.06-.05-.13-.07-.18-.23-.55-.36-.62-.46-.58-.1.04-.14.18.1.73.02.05.04.1.07.15-.04-.04-.08-.08-.11-.12-.42-.42-.57-.44-.64-.37-.08.08-.06.22.37.64.04.04.09.09.14.14-.06-.03-.12-.06-.18-.08-.55-.23-.69-.19-.74-.09s.03.23.59.45c.05.02.1.04.15.06-.06,0-.11,0-.16,0-.6,0-.71.09-.71.2s.12.2.71.2c.06,0,.13,0,.2,0-.06.02-.13.05-.18.07-.55.23-.62.36-.58.46.04.1.18.14.73-.1.05-.02.1-.04.15-.07-.04.04-.08.08-.12.11-.42.42-.44.57-.37.64s.22.06.64-.37c.04-.04.09-.09.14-.14-.03.06-.06.12-.08.18-.23.55-.19.69-.09.74.1.04.23-.03.45-.59.02-.05.04-.1.06-.15,0,.06,0,.11,0,.16,0,.6.09.71.2.71s.2-.12.2-.71c0-.06,0-.13,0-.2.02.06.05.13.07.18.23.55.36.62.46.58.1-.04.14-.18-.1-.73-.02-.05-.04-.1-.07-.15.04.04.08.08.11.12.42.42.57.44.64.37.08-.08.06-.22-.37-.64-.04-.04-.09-.09-.14-.14.06.03.12.06.18.08.55.23.69.19.74.09.04-.1-.03-.23-.59-.45-.05-.02-.1-.04-.15-.06.06,0,.11,0,.16,0,.6,0,.71-.09.71-.2Z"/>
      <circle class="cls-4" cx="6.24" cy="6.18" r=".59"/>
    </g>
    <g>
      <path class="cls-3" d="m15.81,2.83c0-.11-.12-.2-.71-.2-.06,0-.13,0-.2,0,.06-.02.13-.05.18-.07.55-.23.62-.36.58-.46-.04-.1-.18-.14-.73.1-.05.02-.1.04-.15.07.04-.04.08-.08.12-.11.42-.42.44-.57.37-.64-.08-.08-.22-.06-.64.37-.04.04-.09.09-.14.14.03-.06.06-.12.08-.18.23-.55.19-.69.09-.74-.1-.04-.23.03-.45.59-.02.05-.04.1-.06.15,0-.06,0-.11,0-.16,0-.6-.09-.71-.2-.71s-.2.12-.2.71c0,.06,0,.13,0,.2-.02-.06-.05-.13-.07-.18-.23-.55-.36-.62-.46-.58-.1.04-.14.18.1.73.02.05.04.1.07.15-.04-.04-.08-.08-.11-.12-.42-.42-.57-.44-.64-.37-.08.08-.06.22.37.64.04.04.09.09.14.14-.06-.03-.12-.06-.18-.08-.55-.23-.69-.19-.74-.09s.03.23.59.45c.05.02.1.04.15.06-.06,0-.11,0-.16,0-.6,0-.71.09-.71.2s.12.2.71.2c.06,0,.13,0,.2,0-.06.02-.13.05-.18.07-.55.23-.62.36-.58.46.04.1.18.14.73-.1.05-.02.1-.04.15-.07-.04.04-.08.08-.12.11-.42.42-.44.57-.37.64s.22.06.64-.37c.04-.04.09-.09.14-.14-.03.06-.06.12-.08.18-.23.55-.19.69-.09.74.1.04.23-.03.45-.59.02-.05.04-.1.06-.15,0,.06,0,.11,0,.16,0,.6.09.71.2.71s.2-.12.2-.71c0-.06,0-.13,0-.2.02.06.05.13.07.18.23.55.36.62.46.58.1-.04.14-.18-.1-.73-.02-.05-.04-.1-.07-.15.04.04.08.08.11.12.42.42.57.44.64.37.08-.08.06-.22-.37-.64-.04-.04-.09-.09-.14-.14.06.03.12.06.18.08.55.23.69.19.74.09.04-.1-.03-.23-.59-.45-.05-.02-.1-.04-.15-.06.06,0,.11,0,.16,0,.6,0,.71-.09.71-.2Z"/>
      <circle class="cls-4" cx="13.96" cy="2.83" r=".59"/>
    </g>
    <g>
      <path class="cls-3" d="m24.07,5.37c0-.11-.12-.2-.71-.2-.06,0-.13,0-.2,0,.06-.02.13-.05.18-.07.55-.23.62-.36.58-.46-.04-.1-.18-.14-.73.1-.05.02-.1.04-.15.07.04-.04.08-.08.12-.11.42-.42.44-.57.37-.64-.08-.08-.22-.06-.64.37-.04.04-.09.09-.14.14.03-.06.06-.12.08-.18.23-.55.19-.69.09-.74-.1-.04-.23.03-.45.59-.02.05-.04.1-.06.15,0-.06,0-.11,0-.16,0-.6-.09-.71-.2-.71s-.2.12-.2.71c0,.06,0,.13,0,.2-.02-.06-.05-.13-.07-.18-.23-.55-.36-.62-.46-.58-.1.04-.14.18.1.73.02.05.04.1.07.15-.04-.04-.08-.08-.11-.12-.42-.42-.57-.44-.64-.37-.08.08-.06.22.37.64.04.04.09.09.14.14-.06-.03-.12-.06-.18-.08-.55-.23-.69-.19-.74-.09s.03.23.59.45c.05.02.1.04.15.06-.06,0-.11,0-.16,0-.6,0-.71.09-.71.2s.12.2.71.2c.06,0,.13,0,.2,0-.06.02-.13.05-.18.07-.55.23-.62.36-.58.46.04.1.18.14.73-.1.05-.02.1-.04.15-.07-.04.04-.08.08-.12.11-.42.42-.44.57-.37.64s.22.06.64-.37c.04-.04.09-.09.14-.14-.03.06-.06.12-.08.18-.23.55-.19.69-.09.74.1.04.23-.03.45-.59.02-.05.04-.1.06-.15,0,.06,0,.11,0,.16,0,.6.09.71.2.71s.2-.12.2-.71c0-.06,0-.13,0-.2.02.06.05.13.07.18.23.55.36.62.46.58.1-.04.14-.18-.1-.73-.02-.05-.04-.1-.07-.15.04.04.08.08.11.12.42.42.57.44.64.37.08-.08.06-.22-.37-.64-.04-.04-.09-.09-.14-.14.06.03.12.06.18.08.55.23.69.19.74.09.04-.1-.03-.23-.59-.45-.05-.02-.1-.04-.15-.06.06,0,.11,0,.16,0,.6,0,.71-.09.71-.2Z"/>
      <circle class="cls-4" cx="22.22" cy="5.37" r=".59"/>
    </g>
    <g>
      <path class="cls-3" d="m12.48,27.12c0-.11-.12-.2-.71-.2-.06,0-.13,0-.2,0,.06-.02.13-.05.18-.07.55-.23.62-.36.58-.46-.04-.1-.18-.14-.73.1-.05.02-.1.04-.15.07.04-.04.08-.08.12-.11.42-.42.44-.57.37-.64-.08-.08-.22-.06-.64.37-.04.04-.09.09-.14.14.03-.06.06-.12.08-.18.23-.55.19-.69.09-.74-.1-.04-.23.03-.45.59-.02.05-.04.1-.06.15,0-.06,0-.11,0-.16,0-.6-.09-.71-.2-.71s-.2.12-.2.71c0,.06,0,.13,0,.2-.02-.06-.05-.13-.07-.18-.23-.55-.36-.62-.46-.58-.1.04-.14.18.1.73.02.05.04.1.07.15-.04-.04-.08-.08-.11-.12-.42-.42-.57-.44-.64-.37-.08.08-.06.22.37.64.04.04.09.09.14.14-.06-.03-.12-.06-.18-.08-.55-.23-.69-.19-.74-.09s.03.23.59.45c.05.02.1.04.15.06-.06,0-.11,0-.16,0-.6,0-.71.09-.71.2s.12.2.71.2c.06,0,.13,0,.2,0-.06.02-.13.05-.18.07-.55.23-.62.36-.58.46.04.1.18.14.73-.1.05-.02.1-.04.15-.07-.04.04-.08.08-.12.11-.42.42-.44.57-.37.64s.22.06.64-.37c.04-.04.09-.09.14-.14-.03.06-.06.12-.08.18-.23.55-.19.69-.09.74.1.04.23-.03.45-.59.02-.05.04-.1.06-.15,0,.06,0,.11,0,.16,0,.6.09.71.2.71s.2-.12.2-.71c0-.06,0-.13,0-.2.02.06.05.13.07.18.23.55.36.62.46.58.1-.04.14-.18-.1-.73-.02-.05-.04-.1-.07-.15.04.04.08.08.11.12.42.42.57.44.64.37.08-.08.06-.22-.37-.64-.04-.04-.09-.09-.14-.14.06.03.12.06.18.08.55.23.69.19.74.09.04-.1-.03-.23-.59-.45-.05-.02-.1-.04-.15-.06.06,0,.11,0,.16,0,.6,0,.71-.09.71-.2Z"/>
      <circle class="cls-4" cx="10.62" cy="27.12" r=".59"/>
    </g>
    <g>
      <path class="cls-3" d="m28.14,8.54c0-.11-.12-.2-.71-.2-.06,0-.13,0-.2,0,.06-.02.13-.05.18-.07.55-.23.62-.36.58-.46-.04-.1-.18-.14-.73.1-.05.02-.1.04-.15.07.04-.04.08-.08.12-.11.42-.42.44-.57.37-.64-.08-.08-.22-.06-.64.37-.04.04-.09.09-.14.14.03-.06.06-.12.08-.18.23-.55.19-.69.09-.74-.1-.04-.23.03-.45.59-.02.05-.04.1-.06.15,0-.06,0-.11,0-.16,0-.6-.09-.71-.2-.71s-.2.12-.2.71c0,.06,0,.13,0,.2-.02-.06-.05-.13-.07-.18-.23-.55-.36-.62-.46-.58-.1.04-.14.18.1.73.02.05.04.1.07.15-.04-.04-.08-.08-.11-.12-.42-.42-.57-.44-.64-.37-.08.08-.06.22.37.64.04.04.09.09.14.14-.06-.03-.12-.06-.18-.08-.55-.23-.69-.19-.74-.09s.03.23.59.45c.05.02.1.04.15.06-.06,0-.11,0-.16,0-.6,0-.71.09-.71.2s.12.2.71.2c.06,0,.13,0,.2,0-.06.02-.13.05-.18.07-.55.23-.62.36-.58.46.04.1.18.14.73-.1.05-.02.1-.04.15-.07-.04.04-.08.08-.12.11-.42.42-.44.57-.37.64s.22.06.64-.37c.04-.04.09-.09.14-.14-.03.06-.06.12-.08.18-.23.55-.19.69-.09.74.1.04.23-.03.45-.59.02-.05.04-.1.06-.15,0,.06,0,.11,0,.16,0,.6.09.71.2.71s.2-.12.2-.71c0-.06,0-.13,0-.2.02.06.05.13.07.18.23.55.36.62.46.58.1-.04.14-.18-.1-.73-.02-.05-.04-.1-.07-.15.04.04.08.08.11.12.42.42.57.44.64.37.08-.08.06-.22-.37-.64-.04-.04-.09-.09-.14-.14.06.03.12.06.18.08.55.23.69.19.74.09.04-.1-.03-.23-.59-.45-.05-.02-.1-.04-.15-.06.06,0,.11,0,.16,0,.6,0,.71-.09.71-.2Z"/>
      <circle class="cls-4" cx="26.29" cy="8.54" r=".59"/>
    </g>
    <g>
      <path class="cls-3" d="m18.62,5.1c0-.07-.07-.12-.45-.12-.04,0-.08,0-.13,0,.04-.01.08-.03.12-.04.35-.15.4-.23.37-.29-.03-.06-.12-.09-.47.06-.03.01-.06.03-.1.04.03-.02.05-.05.08-.07.27-.27.28-.36.23-.41-.05-.05-.14-.04-.41.23-.03.03-.06.06-.09.09.02-.04.04-.08.05-.11.14-.35.12-.44.06-.47-.06-.03-.14.02-.29.37-.01.03-.03.06-.04.1,0-.04,0-.07,0-.1,0-.38-.06-.45-.12-.45s-.12.07-.12.45c0,.04,0,.08,0,.13-.01-.04-.03-.08-.04-.12-.15-.35-.23-.4-.29-.37-.06.03-.09.12.06.47.01.03.03.06.04.1-.02-.03-.05-.05-.07-.08-.27-.27-.36-.28-.41-.23-.05.05-.04.14.23.41.03.03.06.06.09.09-.04-.02-.08-.04-.11-.05-.35-.14-.44-.12-.47-.06s.02.14.37.29c.03.01.06.03.1.04-.04,0-.07,0-.1,0-.38,0-.45.06-.45.12s.07.12.45.12c.04,0,.08,0,.13,0-.04.01-.08.03-.12.04-.35.15-.4.23-.37.29.03.06.12.09.47-.06.03-.01.06-.03.1-.04-.03.02-.05.05-.08.07-.27.27-.28.36-.23.41s.14.04.41-.23c.03-.03.06-.06.09-.09-.02.04-.04.08-.05.11-.14.35-.12.44-.06.47.06.03.14-.02.29-.37.01-.03.03-.06.04-.1,0,.04,0,.07,0,.1,0,.38.06.45.12.45s.12-.07.12-.45c0-.04,0-.08,0-.13.01.04.03.08.04.12.15.35.23.4.29.37.06-.03.09-.12-.06-.47-.01-.03-.03-.06-.04-.1.02.03.05.05.07.08.27.27.36.28.41.23.05-.05.04-.14-.23-.41-.03-.03-.06-.06-.09-.09.04.02.08.04.11.05.35.14.44.12.47.06.03-.06-.02-.14-.37-.29-.03-.01-.06-.03-.1-.04.04,0,.07,0,.1,0,.38,0,.45-.06.45-.12Z"/>
      <circle class="cls-4" cx="17.44" cy="5.1" r=".37"/>
    </g>
    <g>
      <path class="cls-3" d="m22.81,25.27c0-.07-.07-.12-.45-.12-.04,0-.08,0-.13,0,.04-.01.08-.03.12-.04.35-.15.4-.23.37-.29-.03-.06-.12-.09-.47.06-.03.01-.06.03-.1.04.03-.02.05-.05.08-.07.27-.27.28-.36.23-.41-.05-.05-.14-.04-.41.23-.03.03-.06.06-.09.09.02-.04.04-.08.05-.11.14-.35.12-.44.06-.47-.06-.03-.14.02-.29.37-.01.03-.03.06-.04.1,0-.04,0-.07,0-.1,0-.38-.06-.45-.12-.45s-.12.07-.12.45c0,.04,0,.08,0,.13-.01-.04-.03-.08-.04-.12-.15-.35-.23-.4-.29-.37-.06.03-.09.12.06.47.01.03.03.06.04.1-.02-.03-.05-.05-.07-.08-.27-.27-.36-.28-.41-.23-.05.05-.04.14.23.41.03.03.06.06.09.09-.04-.02-.08-.04-.11-.05-.35-.14-.44-.12-.47-.06s.02.14.37.29c.03.01.06.03.1.04-.04,0-.07,0-.1,0-.38,0-.45.06-.45.12s.07.12.45.12c.04,0,.08,0,.13,0-.04.01-.08.03-.12.04-.35.15-.4.23-.37.29.03.06.12.09.47-.06.03-.01.06-.03.1-.04-.03.02-.05.05-.08.07-.27.27-.28.36-.23.41s.14.04.41-.23c.03-.03.06-.06.09-.09-.02.04-.04.08-.05.11-.14.35-.12.44-.06.47.06.03.14-.02.29-.37.01-.03.03-.06.04-.1,0,.04,0,.07,0,.1,0,.38.06.45.12.45s.12-.07.12-.45c0-.04,0-.08,0-.13.01.04.03.08.04.12.15.35.23.4.29.37.06-.03.09-.12-.06-.47-.01-.03-.03-.06-.04-.1.02.03.05.05.07.08.27.27.36.28.41.23.05-.05.04-.14-.23-.41-.03-.03-.06-.06-.09-.09.04.02.08.04.11.05.35.14.44.12.47.06.03-.06-.02-.14-.37-.29-.03-.01-.06-.03-.1-.04.04,0,.07,0,.1,0,.38,0,.45-.06.45-.12Z"/>
      <circle class="cls-4" cx="21.63" cy="25.27" r=".37"/>
    </g>
    <g>
      <path class="cls-3" d="m4.07,10.85c0-.14-.15-.25-.91-.25-.08,0-.16,0-.25,0,.08-.03.16-.06.23-.09.7-.29.79-.45.74-.58-.05-.13-.23-.17-.93.12-.06.03-.13.05-.19.09.05-.05.1-.1.15-.14.54-.54.56-.72.47-.82-.1-.1-.28-.07-.82.47-.06.06-.11.12-.17.18.04-.08.07-.15.1-.23.29-.7.24-.88.11-.94-.13-.05-.29.04-.57.75-.03.06-.05.13-.07.2,0-.07,0-.14,0-.21,0-.76-.11-.91-.25-.91s-.25.15-.25.91c0,.08,0,.16,0,.25-.03-.08-.06-.16-.09-.23-.29-.7-.45-.79-.58-.74-.13.05-.17.23.12.93.03.06.05.13.09.19-.05-.05-.1-.1-.14-.15-.54-.54-.72-.56-.82-.47-.1.1-.07.28.47.82.06.06.12.11.18.17-.08-.04-.15-.07-.23-.1-.7-.29-.88-.24-.94-.11s.04.29.75.57c.06.03.13.05.2.07-.07,0-.14,0-.21,0-.76,0-.91.11-.91.25s.15.25.91.25c.08,0,.16,0,.25,0-.08.03-.16.06-.23.09-.7.29-.79.45-.74.58.05.13.23.17.93-.12.06-.03.13-.05.19-.09-.05.05-.1.1-.15.14-.54.54-.56.72-.47.82s.28.07.82-.47c.06-.06.11-.12.17-.18-.04.08-.07.15-.1.23-.29.7-.24.88-.11.94.13.05.29-.04.57-.75.03-.06.05-.13.07-.2,0,.07,0,.14,0,.21,0,.76.11.91.25.91s.25-.15.25-.91c0-.08,0-.16,0-.25.03.08.06.16.09.23.29.7.45.79.58.74.13-.05.17-.23-.12-.93-.03-.06-.05-.13-.09-.19.05.05.1.1.14.15.54.54.72.56.82.47.1-.1.07-.28-.47-.82-.06-.06-.12-.11-.18-.17.08.04.15.07.23.1.7.29.88.24.94.11.05-.13-.04-.29-.75-.57-.06-.03-.13-.05-.2-.07.07,0,.14,0,.21,0,.76,0,.91-.11.91-.25Z"/>
      <circle class="cls-4" cx="1.71" cy="10.85" r=".75"/>
    </g>
    <g>
      <path class="cls-3" d="m31.51,12.94c0-.14-.15-.25-.91-.25-.08,0-.16,0-.25,0,.08-.03.16-.06.23-.09.7-.29.79-.45.74-.58-.05-.13-.23-.17-.93.12-.06.03-.13.05-.19.09.05-.05.1-.1.15-.14.54-.54.56-.72.47-.82-.1-.1-.28-.07-.82.47-.06.06-.11.12-.17.18.04-.08.07-.15.1-.23.29-.7.24-.88.11-.94-.13-.05-.29.04-.57.75-.03.06-.05.13-.07.2,0-.07,0-.14,0-.21,0-.76-.11-.91-.25-.91s-.25.15-.25.91c0,.08,0,.16,0,.25-.03-.08-.06-.16-.09-.23-.29-.7-.45-.79-.58-.74-.13.05-.17.23.12.93.03.06.05.13.09.19-.05-.05-.1-.1-.14-.15-.54-.54-.72-.56-.82-.47-.1.1-.07.28.47.82.06.06.12.11.18.17-.08-.04-.15-.07-.23-.1-.7-.29-.88-.24-.94-.11s.04.29.75.57c.06.03.13.05.2.07-.07,0-.14,0-.21,0-.76,0-.91.11-.91.25s.15.25.91.25c.08,0,.16,0,.25,0-.08.03-.16.06-.23.09-.7.29-.79.45-.74.58.05.13.23.17.93-.12.06-.03.13-.05.19-.09-.05.05-.1.1-.15.14-.54.54-.56.72-.47.82s.28.07.82-.47c.06-.06.11-.12.17-.18-.04.08-.07.15-.1.23-.29.7-.24.88-.11.94.13.05.29-.04.57-.75.03-.06.05-.13.07-.2,0,.07,0,.14,0,.21,0,.76.11.91.25.91s.25-.15.25-.91c0-.08,0-.16,0-.25.03.08.06.16.09.23.29.7.45.79.58.74.13-.05.17-.23-.12-.93-.03-.06-.05-.13-.09-.19.05.05.1.1.14.15.54.54.72.56.82.47.1-.1.07-.28-.47-.82-.06-.06-.12-.11-.18-.17.08.04.15.07.23.1.7.29.88.24.94.11.05-.13-.04-.29-.75-.57-.06-.03-.13-.05-.2-.07.07,0,.14,0,.21,0,.76,0,.91-.11.91-.25Z"/>
      <circle class="cls-4" cx="29.15" cy="12.94" r=".75"/>
    </g>
  </g>
  <path class="cls-6" d="m15,2.5c6.9,0,12.5,5.6,12.5,12.5s-5.6,12.5-12.5,12.5S2.5,21.9,2.5,15,8.1,2.5,15,2.5m0-1.5C7.28,1,1,7.28,1,15s6.28,14,14,14,14-6.28,14-14S22.72,1,15,1h0Z"/>
</svg>