<svg id="Livello_1" data-name="Livello 1" xmlns="http://www.w3.org/2000/svg" xmlns:xlink="http://www.w3.org/1999/xlink" viewBox="0 0 30 30"><defs><style>.cls-1{fill:none;}.cls-2{clip-path:url(#clip-path);}.cls-3{fill:#2d343b;}.cls-4{fill:#323d45;}.cls-5{fill:#2f353b;}.cls-6{fill:#2f2f3a;}.cls-7{fill:#383f4a;}.cls-8{fill:#313740;}.cls-9{fill:#333a40;}.cls-10{fill:#3c3752;}.cls-11{fill:#3c454b;}.cls-12{fill:#373848;}.cls-13{fill:#3d3a51;}.cls-14{fill:#497b76;}.cls-15{fill:#446a6a;}.cls-16{fill:#413352;}.cls-17{fill:#293034;}.cls-18{fill:#2f4646;}.cls-19{fill:#434f6a;}.cls-20{fill:#3e394c;}.cls-21{fill:#485b5d;}.cls-22{fill:#424f64;}.cls-23{fill:#3a4a57;}.cls-24{fill:#394446;}.cls-25{fill:#7ad3e0;}.cls-26{fill:#43566b;}.cls-27{fill:#3a4d55;}.cls-28{fill:#35575c;}.cls-29{fill:#5375d2;}.cls-30{fill:#4a3162;}.cls-31{fill:#4a4c96;}.cls-32{fill:#41565a;}.cls-33{fill:#5fbad5;}.cls-34{fill:#404b5b;}.cls-35{fill:#334c59;}.cls-36{fill:#5264c4;}.cls-37{fill:#6089dc;}.cls-38{fill:#42596e;}.cls-39{fill:#533467;}.cls-40{fill:#6066ba;}.cls-41{fill:#455a6e;}.cls-42{fill:#473e68;}.cls-43{fill:#2e4048;}.cls-44{fill:#485f73;}.cls-45{fill:#5eb993;}.cls-46{fill:#4388a0;}.cls-47{fill:#36617c;}.cls-48{fill:#3a374c;}.cls-49{fill:#222c30;}.cls-50{fill:#343442;}.cls-51{fill:#3e324e;}.cls-52{fill:#324b54;}.cls-53{fill:#272533;}.cls-54{fill:#6ac5e4;}.cls-55{fill:#32484a;}.cls-56{fill:#363d4b;}.cls-57{fill:#89d7f0;}.cls-58{fill:#7cbff0;}.cls-59{fill:#384d5a;}.cls-60{fill:#2d3c44;}.cls-61{fill:#3a3c4e;}.cls-62{fill:#3e4b67;}.cls-63{fill:#3b4a5e;}.cls-64{fill:#38444d;}.cls-65{fill:#448d8b;}.cls-66{fill:#394253;}.cls-67{fill:#41747d;}.cls-68{fill:#3f4059;}.cls-69{fill:#3c7478;}.cls-70{fill:#45597f;}.cls-71{fill:#36605e;}.cls-72{fill:#7dd4de;}.cls-73{fill:#31574e;}.cls-74{fill:#353d4b;}.cls-75{fill:#415268;}.cls-76{fill:#476697;}.cls-77{fill:#5fb0e8;}.cls-78{fill:#3f4d75;}.cls-79{fill:#628ccf;}.cls-80{fill:#363648;}.cls-81{fill:#4879c5;}.cls-82{fill:#52a6ab;}.cls-83{fill:#3d3e61;}.cls-84{fill:#404465;}.cls-85{fill:#6ebad2;}.cls-86{fill:#55c4c7;}.cls-87{fill:#5bc7cb;}.cls-88{fill:#68bcc1;}.cls-89{fill:#42a7b3;}.cls-90{fill:#4f6d78;}.cls-91{fill:#354251;}.cls-92{fill:#47aab2;}.cls-93{fill:#344a54;}.cls-94{fill:#405d88;}.cls-95{fill:#3a4a50;}.cls-96{fill:#33585d;}.cls-97{fill:#3a3850;}.cls-98{fill:#78a2d8;}.cls-99{fill:#50428b;}.cls-100{fill:#444d76;}.cls-101{fill:#708edd;}.cls-102{fill:#405c6f;}.cls-103{fill:#539bcc;}.cls-104{fill:#3b475b;}.cls-105{fill:#45478b;}.cls-106{fill:#52797a;}.cls-107{fill:#4ab4be;}.cls-108{fill:#4a4a7c;}.cls-109{fill:#3a4c7a;}.cls-110{fill:#4d8a8a;}.cls-111{fill:#4b5ea7;}.cls-112{fill:#5399d7;}.cls-113{fill:#72c1dd;}.cls-114{fill:#628cce;}.cls-115{fill:#3d3b54;}.cls-116{fill:#505ab0;}.cls-117{fill:#60a7c1;}.cls-118{fill:#2e4348;}.cls-119{fill:#534781;}.cls-120{fill:#5361ae;}.cls-121{fill:#4a4c75;}.cls-122{fill:#63c7de;}.cls-123{fill:#5197b8;}.cls-124{fill:#343a45;}.cls-125{fill:#3d334d;}.cls-126{fill:#45416f;}.cls-127{fill:#77b7ec;}.cls-128{fill:#3f3954;}.cls-129{fill:#3b6268;}.cls-130{fill:#68bfed;}.cls-131{fill:#4f5fb5;}.cls-132{fill:#36323f;}.cls-133{fill:#3f566f;}.cls-134{fill:#414469;}.cls-135{fill:#97deee;}.cls-136{fill:#70d0e7;}.cls-137{fill:#475696;}.cls-138{fill:#394555;}.cls-139{fill:#75ccf2;}.cls-140{fill:#65caec;}.cls-141{fill:#3c6676;}.cls-142{fill:#35494d;}.cls-143{fill:#99dceb;}.cls-144{fill:#404261;}.cls-145{fill:#444b6f;}.cls-146{fill:#3c5264;}.cls-147{fill:#4ca2db;}.cls-148{fill:#84d6ef;}.cls-149{fill:#56b9ea;}.cls-150{fill:#74b6ed;}.cls-151{fill:#86d7ed;}.cls-152{fill:#43436f;}.cls-153{fill:#5cc8df;}.cls-154{fill:#425f8e;}.cls-155{fill:#4a6ebd;}.cls-156{fill:#58bbdc;}.cls-157{fill:#54b0eb;}.cls-158{fill:#3b7386;}.cls-159{fill:#405577;}.cls-160{fill:#53c3b4;}.cls-161{fill:#4588bd;}.cls-162{fill:#4c7bcd;}.cls-163{fill:#525bb8;}.cls-164{fill:#77b9ef;}.cls-165{fill:#455d9c;}.cls-166{fill:#4f5cb0;}.cls-167{fill:#516ab9;}.cls-168{fill:#3d5969;}.cls-169{fill:#4289ba;}.cls-170{fill:#83dade;}.cls-171{fill:#3f778a;}.cls-172{fill:#47477c;}.cls-173{fill:#4d5eb6;}.cls-174{fill:#5063bf;}.cls-175{fill:#4c718d;}.cls-176{fill:#70ccf0;}.cls-177{fill:#484b7e;}.cls-178{fill:#4db9cd;}.cls-179{fill:#629ae9;}.cls-180{fill:#3a5774;}.cls-181{fill:#424a7b;}.cls-182{fill:#60cbe5;}.cls-183{fill:#4c4586;}.cls-184{fill:#92d1ec;}.cls-185{fill:#5478a3;}.cls-186{fill:#555fbf;}.cls-187{fill:#5b81de;}.cls-188{fill:#6194dd;}.cls-189{fill:#89cfe6;}.cls-190{fill:#374c5d;}.cls-191{fill:#7dd8ed;}.cls-192{fill:#6dafd1;}.cls-193{fill:#6a9fe9;}.cls-194{fill:#86cbef;}.cls-195{fill:#6799e5;}.cls-196{fill:#459fb9;}.cls-197{fill:#48a880;}.cls-198{fill:#435474;}.cls-199{fill:#4b4079;}.cls-200{fill:#3f3552;}.cls-201{fill:#4a5187;}.cls-202{fill:#374450;}.cls-203{fill:#4e69b4;}.cls-204{fill:#5f78c8;}.cls-205{fill:#434763;}.cls-206{fill:#444266;}.cls-207{fill:#4a5a82;}.cls-208{fill:#8ccef1;}.cls-209{fill:#3f5467;}.cls-210{fill:#535ab3;}.cls-211{fill:#5e52a9;}.cls-212{fill:#3c3d56;}.cls-213{fill:#566bbd;}.cls-214{fill:#5a82d4;}.cls-215{fill:#89bcea;}.cls-216{fill:#4a6771;}.cls-217{fill:#5d73ce;}.cls-218{fill:#524f9b;}.cls-219{fill:#7b93db;}.cls-220{fill:#6666c0;}.cls-221{fill:#373c5c;}.cls-222{fill:#5667ca;}.cls-223{fill:#413557;}.cls-224{fill:#49376d;}.cls-225{fill:#723d76;}.cls-226{fill:#405ca0;}.cls-227{fill:#5c76d6;}.cls-228{fill:#4c4682;}.cls-229{fill:#5e92e5;}.cls-230{fill:#88cdec;}.cls-231{fill:#7193dd;}.cls-232{fill:#535abf;}.cls-233{fill:#a1deee;}.cls-234{fill:#3c515e;}.cls-235{fill:#6ab7ed;}.cls-236{fill:#71b4e2;}.cls-237{fill:#48679e;}.cls-238{fill:#5087ad;}.cls-239{fill:#5962a4;}.cls-240{fill:#445174;}.cls-241{fill:#5282dc;}.cls-242{fill:#476cb0;}.cls-243{fill:#4e61b5;}.cls-244{fill:#81cdd4;}.cls-245{fill:#72bad8;}.cls-246{fill:#60a2ea;}.cls-247{fill:#6ec0f2;}.cls-248{fill:#476ca3;}.cls-249{fill:#64a5ed;}.cls-250{fill:#528fdf;}.cls-251{fill:#7ebfef;}.cls-252{fill:#a0d3f2;}.cls-253{fill:#74aee5;}.cls-254{fill:#6391c9;}.cls-255{fill:#4b8183;}.cls-256{fill:#6062c5;}.cls-257{fill:#3f5a65;}.cls-258{fill:#312b3e;}.cls-259{fill:#473866;}.cls-260{fill:#483c6d;}.cls-261{fill:#52529d;}.cls-262{fill:#385d6d;}.cls-263{fill:#374f65;}.cls-264{fill:#3c5b81;}.cls-265{fill:#3e98a7;}.cls-266{fill:#4570ad;}.cls-267{fill:#3d6e87;}.cls-268{fill:#48b6c3;}.cls-269{fill:#387983;}.cls-270{fill:#413d5b;}.cls-271{fill:#525eb2;}.cls-272{fill:#587bda;}.cls-273{fill:#4963b2;}.cls-274{fill:#4c8bd8;}.cls-275{fill:#40756c;}.cls-276{fill:#4479ac;}.cls-277{fill:#376163;}.cls-278{fill:#55a1de;}.cls-279{fill:#425895;}.cls-280{fill:#75c7f3;}.cls-281{fill:#74a5e8;}.cls-282{fill:#508edc;}.cls-283{fill:#57b9a7;}.cls-284{fill:#47848e;}.cls-285{fill:#495d8f;}.cls-286{fill:#57a396;}.cls-287{fill:#4f5aa8;}.cls-288{fill:#635cab;}.cls-289{fill:#5174b3;}.cls-290{fill:#544ea6;}.cls-291{fill:#6c79d2;}.cls-292{fill:#3a415d;}.cls-293{fill:#5d78d8;}.cls-294{fill:#42366b;}.cls-295{fill:#5e7cd6;}.cls-296{fill:#3f516f;}.cls-297{fill:#4187b0;}.cls-298{fill:#465584;}.cls-299{fill:#63a2ec;}.cls-300{fill:#7478d4;}.cls-301{fill:#4c4994;}.cls-302{fill:#4c69aa;}.cls-303{fill:#4d5bb2;}.cls-304{fill:#524392;}.cls-305{fill:#426976;}.cls-306{fill:#537bd1;}.cls-307{fill:#4c9fe1;}.cls-308{fill:#4d63bf;}.cls-309{fill:#426195;}.cls-310{fill:#6bbfe7;}.cls-311{fill:#8ecae4;}.cls-312{fill:#5b7bda;}.cls-313{fill:#d1d1d1;}</style><clipPath id="clip-path"><circle class="cls-1" cx="15" cy="15" r="12.5"/></clipPath></defs><g class="cls-2"><path class="cls-3" d="M31.94,21.58v.94a6.58,6.58,0,0,0-.35,1.32A1.13,1.13,0,0,0,31.43,25a3.67,3.67,0,0,1,.32,2.15.62.62,0,0,0,.19.49v1.31l-.15.16a.93.93,0,0,0-.67.38,1.29,1.29,0,0,0-.16.44c-.07.2-.24.3-.35.46a5.51,5.51,0,0,0-.67,1.57H28.56c-.21-.2-.5-.27-.66-.56s-.41-.76-.63-1.14a2.62,2.62,0,0,0-.37-.6c-.29-.32-.47-.75-.75-1a3.89,3.89,0,0,1,.42,3.34h-.46c-.56-.28-.54-1-.71-1.52a1.84,1.84,0,0,1-.17-.62A1.29,1.29,0,0,0,24.9,29c-.37-.55-.3-1.41-.86-1.83a.63.63,0,0,0-.36,0,2.9,2.9,0,0,0-.47.16c-.27.12-.4.47-.67.6a1.43,1.43,0,0,1-.45.12.69.69,0,0,1-.25,0,.55.55,0,0,1-.2-.2c-.27-.57.17-1,.2-1.51a.75.75,0,0,1,.56-.54c.31,0,.62.12.78-.35a1.08,1.08,0,0,0-.34-1.22,1.4,1.4,0,0,1-.13-1c.25-.38.43-.81.7-1.17s.32-.48.62-.31a.89.89,0,0,1,.16.66c-.22,1.7.86,2.48,1.67,3.4a4.82,4.82,0,0,1,1.2,1.71c.19.55.61,1.22,1.32,1.14s.66.73,1.08,1a8.4,8.4,0,0,1,1-1.7,1,1,0,0,0,0-1.23,7.92,7.92,0,0,0-.23-.87c0-.34-.28-.52-.35-.83a.77.77,0,0,1,0-.4c0-.15.14-.32,0-.44-.6-.8-.67-2.05-1.52-2.63a.43.43,0,0,1-.12-.62c.21-.22.5-.08.71-.27a.44.44,0,0,0,.11-.25c0-.36-.18-.66-.19-1a9.09,9.09,0,0,1-.15-.91c-.19-.57-.14-1.21-.36-1.77l-.21-.45c-.21-.61-.26-1.37-.93-1.57a.58.58,0,0,1-.18-.17c-.32-.4-.09-.76.05-1.12a5.43,5.43,0,0,0-.05-1.21c-.06-.4-.41-.58-.46-1a8.06,8.06,0,0,1-.73-1.88c-.14-.24-.13-.64-.47-.67l-.19,0a1.51,1.51,0,0,0-.79.54,5.93,5.93,0,0,1-.62.61c-.17.14-.28.36-.46.46a1,1,0,0,0-.36.23c-.48.36-.66.78-.16,1.3a1.69,1.69,0,0,1,.31,1.1c.11.88.37,1.09.95.83.29-.15.59-.24.88-.41.57-.34,1.64.31,1.91,1.09a.67.67,0,0,1-.3.49c-.25.1-.54,0-.78.22s-.28,0-.29.27a1.68,1.68,0,0,1,.23.88,6.47,6.47,0,0,0,.61,3.38c.31.4.86.17,1.16.63a.65.65,0,0,1,.12.39.58.58,0,0,1-.09.26c-.27.33-.58.11-.87.1a1.49,1.49,0,0,0-.9.13,1,1,0,0,1-.47.08l-.49-.13a1.26,1.26,0,0,0-1-.23,1,1,0,0,1-1-.26c-.24-.59.3-.59.45-.88a.67.67,0,0,1,.21-.1c.44-.09,1,.24,1.29-.4a.87.87,0,0,0-.2-1,.79.79,0,0,1-.25-.4,1.27,1.27,0,0,0-.74-1c-.36-.32-.66-.06-1,.17s-.64.51-1,.31a.52.52,0,0,1-.37-.47,1.44,1.44,0,0,1,.8-1.22c.47-.3.8-.69.38-1.37a1.07,1.07,0,0,1-.24-.54c0-.38-.29-.6-.37-.94a1.27,1.27,0,0,0-.42-.47c-.39-.31-.72-.09-1,.23a7.06,7.06,0,0,1-1,1c-.47.14-.72.73-1.19.85a1.44,1.44,0,0,1,.31-1.91c.2-.19.46-.26.66-.44-.64.53-1.41.78-2,1.34-.3.12-.44.48-.67.7-.69.13-1.29.67-2,.7-.57-.34-.36-.84-.17-1.33a1.26,1.26,0,0,1,.61-.49A1,1,0,0,0,16,12.34a2.48,2.48,0,0,1,.9-.84c.56-.38,1.18-.59,1.73-1,.71-.07,1.35-.57,2.09-.49a2.94,2.94,0,0,0,2.85-1.76A1.3,1.3,0,0,1,24,7.78a2,2,0,0,0,.68-1.2,1.2,1.2,0,0,0-.19-.51,5.47,5.47,0,0,0-1-1.39c-.3-.41-.66-.07-1-.11h-.21c-.81-.37-1.51.09-2.22.43a2,2,0,0,1-.81.26c-.31-.12-.39-.4-.35-.76A.7.7,0,0,1,19.19,4c.88-.09,1.58-.79,2.39-1.14a3.14,3.14,0,0,1,1.63-.36,1.23,1.23,0,0,0,1.27-.66c.44-.36.82-.9,1.45-.81.21,0,.32-.27.44-.46S26.65,0,27,0a1.44,1.44,0,0,1,.49,1.62c-.28.4-.73.36-1.08.59a1.26,1.26,0,0,0-.67.4c-.24.21-.57.28-.7.66a5,5,0,0,0,1.7,2.47c.8.57,2-.46,1.92-1.55A.58.58,0,0,1,28.76,4a2.68,2.68,0,0,1,.74-.48.49.49,0,0,1,.24,0,.91.91,0,0,1,.42.69c-.24.73.45,1.32.19,2.05-.72.41-1.53.38-2.25.76-.26.13-.55.15-.63.56-.58.36-.72.79-.31,1.52a7.82,7.82,0,0,1,.49,1.46.67.67,0,0,0,.34.58,1.08,1.08,0,0,1,.5,1.1c0,.09,0,.22,0,.27.93.82.83,2.52,1.87,3.25.23.17.44.4.68.23s.2-.59.13-.86A4.62,4.62,0,0,1,31,13.64c-.11-.78-.35-1.53-.42-2.33,0-.37-.12-.72-.1-1.09s.16-1-.41-1.08a.65.65,0,0,1,.16-1c.35-.18.36-.39.17-.76a.73.73,0,0,1,.14-1c.73.13,1.25,1,1.23,2.08,0,.36-.14.74.16,1v.38a.66.66,0,0,0-.24.49c0,.44,0,.89,0,1.33.14.89.09,1.8.23,2.69v5.45a.2.2,0,0,1-.2.07,10.34,10.34,0,0,1-1.07-1.44c-.17-.39-.18-.93-.65-1a2.67,2.67,0,0,0,.41,2.12,3.73,3.73,0,0,1,.62.79,6.27,6.27,0,0,1,0,1.3C31.37,21.7,31.61,21.15,31.94,21.58Z"/><path class="cls-4" d="M19.06,4.48a.66.66,0,0,0,.22.56c.09,0,.13,0,.13.14-.32.65-1,.49-1.42,1a6.17,6.17,0,0,0-1.5.79c-.18.12-.26.36-.43.49a2,2,0,0,0-.38.34c-.17.13-.36.23-.38.52a9.68,9.68,0,0,0,.12,4.08c.1.53-.22.71-.51.93l-.46.38c-.31.56-.81.94-1,1.62a.83.83,0,0,1-.27.56,2.85,2.85,0,0,0-.37.23,1.33,1.33,0,0,0-.21.26,2.1,2.1,0,0,0-.1,1.63c-.24.62.2,1.31-.14,1.92-.17.12-.32.07-.47-.08a2.31,2.31,0,0,1-.29-1.25,1.81,1.81,0,0,0-.32-.58.3.3,0,0,0-.24-.07c-.31,0-.4.29-.52.55a1.14,1.14,0,0,0-.26.35,4.06,4.06,0,0,0,0,2.44c.1.51.34.59.62.18s.4-.35.67-.19c.39.48-.29.86-.09,1.32,0,.37-.26.51-.44.72l-.12.21a1.7,1.7,0,0,0-.34,1c0,.27-.1.54-.13.81s0,.74-.36.83a.45.45,0,0,1-.25-.3c0-.18-.06-.36-.1-.54s0-.32-.22-.35a.7.7,0,0,0-.27.08,1.7,1.7,0,0,0-.33.27.43.43,0,0,1-.5.19c-.31-.19-.69-.32-.63-.91a.54.54,0,0,1,.46-.39,1.57,1.57,0,0,0,1.17-1.46c-.1-.47.14-1-.18-1.43a2.63,2.63,0,0,1-.15-1c0-.26.11-.54,0-.79-.4-.52.11-1.22-.25-1.75a1.06,1.06,0,0,1-.17-.47c-.07-.31,0-.79-.32-.84s-.6.47-.89.73c0,.07-.09.13-.13.19a.8.8,0,0,1-.17.15,1.29,1.29,0,0,0-.49.64c-.15.13-.25.34-.44.4a.31.31,0,0,1-.23,0C5.27,17.78,4.41,17.2,4.14,16c-.1-.46-.44-.73-.6-1.14a.68.68,0,0,1,0-.4.4.4,0,0,1,.46-.23c.44.08.53-.21.51-.65a.62.62,0,0,1,.16-.51c.26-.18.44,0,.63.2a1.42,1.42,0,0,1,.28,1.2,5.57,5.57,0,0,0,.2,1.83c.11.5.24.79.71.27a4.28,4.28,0,0,0,1.3-2.31c0-.28-.25-.49-.29-.78l-.15-.34c-.21-.7-.42-1.4-.58-2.13a6,6,0,0,0-.3-.84.94.94,0,0,1-.09-.66,1,1,0,0,0,0-.91.86.86,0,0,1,.11-1c.59,0,.63-.54.71-1.06s-.38-1,.06-1.54c.5-.11.51.46.72.76a13.74,13.74,0,0,1,0,1.7,2.72,2.72,0,0,1,0,.28,3.33,3.33,0,0,0,.29,2.48,3.4,3.4,0,0,0,.11,2c.19.5.51.7.81.21.44-.73,1.39-1.06,1.24-2.28a2.39,2.39,0,0,0-.19-.59,1.53,1.53,0,0,1-.23-.71A1.54,1.54,0,0,0,9.84,8a.81.81,0,0,1-.1-.86,1.31,1.31,0,0,0,0-1,1.89,1.89,0,0,1-.22-.63c-.06-.42-.34-.8-.15-1.26.32-.21.17-.89.63-1,.46.27.42.79.43,1.28,0,.33,0,.62.32.77s.49,0,.71-.17a6.75,6.75,0,0,0,1.5-2.61c.24-.58-.13-1.11-.25-1.66a.83.83,0,0,1,0-.54c.1-.24.3-.36.22-.73-.21-1-.13-1.12.79-1.37a.58.58,0,0,1,.24.45c.27,1.63.86,1.87,1.91.79a1.72,1.72,0,0,0,0-.64.9.9,0,0,1,.29-.75h.31c.51.71,1,.38,1.53,0h2.15a.78.78,0,0,1-.33,1,9.78,9.78,0,0,0-2.41,2,2.26,2.26,0,0,0-.36,2c0,.48.34.61.56.2a21.69,21.69,0,0,0,1.3-1.93,10.92,10.92,0,0,1,2-2.29,3.62,3.62,0,0,1,1.35-.95h1.08c.24.81-.36,1-.66,1.49-.57.21-.91.83-1.4,1.19A10.68,10.68,0,0,0,19.2,3.05c-.08.35-.41.45-.51.78C18.41,4.39,19,4.17,19.06,4.48Z"/><path class="cls-5" d="M6.63,7.67c.07.38.12.77.2,1.15s.08.6-.23.74-.51-.32-.76-.5C5.58,8.62,5.63,8,5.28,7.61a3,3,0,0,0-1.44-2,.72.72,0,0,0-.28-.07c-.55-.12-1,.29-1.41.53l-.29.08a4.75,4.75,0,0,0-.59.31A.84.84,0,0,0,1,6.82c0,.13,0,0,0,.1.35,1.25.45,2.58.83,3.82a10.16,10.16,0,0,0,1.64,3.11c.21.28,0,.68.23,1a1.72,1.72,0,0,1,.79,1.37c0,.21.08.5.25.54.79.16.88,1.07,1.27,1.68a.69.69,0,0,1,.09.23A2.18,2.18,0,0,0,7,21.14a.68.68,0,0,1,.27.6c-.22.8.25,1.42.42,2.1a1.72,1.72,0,0,1,.13.75c.15.32.51.37.61.75.3.64-.3,1.16-.15,1.78a3.66,3.66,0,0,0-.13,1.16c.13.68.27,1.19,1,.92.14-.06.29,0,.41.16.27.42-.14.86,0,1.29-.07.48,0,1-.51,1.27h-2c-.3-.34-.11-.65,0-1a2.19,2.19,0,0,0,.16-1.76.72.72,0,0,1-.07-.25,3,3,0,0,0-.32-1.67.9.9,0,0,1-.09-1.08,1.51,1.51,0,0,0,0-1.31,1.65,1.65,0,0,1-.21-.42.91.91,0,0,0-.43-.6,6.42,6.42,0,0,0-.53-.38c-.33-.54,0-1.3-.39-1.81a2.68,2.68,0,0,0-.18-.47,4,4,0,0,0-.21-.58c-.13-.31-.06-.69-.23-1a2.28,2.28,0,0,1-.24-.6,19.25,19.25,0,0,0-1.68-4.34c-.3-.72-.78-.46-1.23-.36-.4-.14-.43-.57-.56-1s0-.85-.41-1a.64.64,0,0,1-.21-.91,2.29,2.29,0,0,0,.3-.72c0-.34-.07-.67-.05-1S.25,9,.15,8.67a.8.8,0,0,0-.42-.61.59.59,0,0,0-.37,0c-.4.11-.65.73-1.14.52l-.17-.17V7.11c.24-.66.93-1,1-1.77,0-.46-.28-.64-.48-.91-.27-.57-.21-1.27-.49-1.84V1.09a35.16,35.16,0,0,1,3.83-3H3.72C3.49-.45,4.21.59,4.82,1.67A3.25,3.25,0,0,1,5.33,2.9,15.12,15.12,0,0,0,6.48,6.3C6.64,6.73,7,7.15,6.63,7.67Z"/><path class="cls-6" d="M9.38,30.61c-.48-.5.09-.76.17-1.13-.25-.87.42-1.13.72-1.62.11-.17.32-.27.47-.44a1,1,0,0,1,.21-.09,3.17,3.17,0,0,0,1.72-1A6.85,6.85,0,0,0,15,24a5.92,5.92,0,0,0,.82-.68A1,1,0,0,1,17,23a1.67,1.67,0,0,0,1.75-.55c.55-.53,1.29-.74,1.76-1.43.21-.12.38-.35.63-.37.74.17.3.89.42,1.35,0,.46-.44.52-.63.82s-.66.4-.92.74a4,4,0,0,0-.81.26,1.17,1.17,0,0,0-.46.45c0,1.63,1.52,2.91,2.66,2.21.26-.16.5-.32.74,0a4,4,0,0,0-.31,1.3,5.6,5.6,0,0,0,0,2,1.08,1.08,0,0,0,.43,1,.81.81,0,0,1,.24,1.22h-.92a1.63,1.63,0,0,1-.72-.93,3.51,3.51,0,0,1-.4-.77c-.48-.83-1-.49-1.54-.09-.25.38-.73.19-1,.63s.26.8-.07,1.16H13.69a.32.32,0,0,1,.15-.44,6.81,6.81,0,0,0,1.24-1.11,1.13,1.13,0,0,1,.4-.22,1.58,1.58,0,0,0,1.27-.44,7.87,7.87,0,0,1,1.71-1.36.56.56,0,0,0,.26-.88c-.11-.21-.29-.35-.4-.56a1.26,1.26,0,0,0-.25-.52,1.63,1.63,0,0,0-.64-.86c-.18-.1-.3.09-.44.14a2.21,2.21,0,0,0-1.68.74c-.63.58-1.5.61-2,1.37-.35.16-.74.24-.93.71-.9.59-1.66,1.45-2.54,2.08A.4.4,0,0,1,9.38,30.61Z"/><path class="cls-7" d="M5.57,21.39a4.76,4.76,0,0,1,.24,1.88c.32.25.21.56.06.85s-.33.53-.47.81a2.72,2.72,0,0,0-.58,1.25c-.06.18-.23.29-.25.46a1.38,1.38,0,0,0,.3,1.26c.28.24.4-.27.54-.47a6.58,6.58,0,0,0,1.37-2.51.43.43,0,0,1,.33-.34,1.63,1.63,0,0,1,0,1.56,1,1,0,0,0,0,.89l.09.08a1.34,1.34,0,0,1-.44,1.27c-.42.35-.58.95-.93,1.36s-.09.85.07,1.21a.76.76,0,0,1-.13,1H5.25a1.36,1.36,0,0,0-1-.4c-.38-.29-.3-.75-.2-1.14A2.47,2.47,0,0,0,4,29.14c0-.45-.45-.58-.55-1A10.62,10.62,0,0,0,2,25.37,18.56,18.56,0,0,1,.89,22.89a.67.67,0,0,1,0-.28c.11-.19.21-.41.42-.47.6.08.69.8,1,1.22.15.2.16.65.53.45.07-.29-.1-.53-.11-.79a8,8,0,0,1-.37-3.09A8.35,8.35,0,0,0,2,17.58a18.6,18.6,0,0,0-.64-3.14.6.6,0,0,1,.21-.37c.54-.24,0-.79.23-1.18.57.33.79,1,1.16,1.55-.15.79.33,1.39.5,2.06a5.05,5.05,0,0,1,.07,3.26,3.86,3.86,0,0,0,.09,2.37,3.27,3.27,0,0,1,.19,1.08c0,.29,0,.6.3.66s.47-.18.59-.47A9.28,9.28,0,0,1,5.57,21.39Z"/><path class="cls-8" d="M13.68-1.73a1.13,1.13,0,0,0-.43,1.44c.13.33.09.68-.34.63-.26.25-.66.15-.86.53a2.68,2.68,0,0,0-.66,1.22,4.78,4.78,0,0,1-.39.39c-.24.18-.33.52-.52.75s-.28.27-.47.12c-.18.29-.17.72-.45.94-.27,0-.44-.12-.55-.41a5.24,5.24,0,0,1-.2-.64,15.57,15.57,0,0,1-.82-2c-.1-.11-.17-.25-.25,0a3.46,3.46,0,0,0,.19,1.92,14.7,14.7,0,0,1,.24,2.29c0,.18-.1.35-.3.28s-.31-.5-.46-.75c-.3,0-.43-.28-.5-.6A19.5,19.5,0,0,1,6.49,1.9c0-.21,0-.42,0-.63a2.09,2.09,0,0,1,0-.79,1.74,1.74,0,0,0,0-1.25,1,1,0,0,1,.2-1.15H8.63c.25.35.51.44.76,0H10c.33.19.28.54.26.88A6.56,6.56,0,0,0,10.38,1c.77-.9,1.16-2.1,1.93-2.93h1.53C13.87-1.75,13.83-1.67,13.68-1.73Z"/><path class="cls-9" d="M1.43,22.33l-.29.37c-.41,0-.44.29-.36.69.26,1.27.69,2.49.86,3.8,0,.39-.12.68-.47.74-.67-.16-.59-1-.95-1.49a5.73,5.73,0,0,1-.59-2.69A17.28,17.28,0,0,0-1,21.15c-.22-.25-.29-.67-.63-.78a.77.77,0,0,1-.33-.29V15.19c.4-.13.51.17.62.56s.21,1,.32,1.54a3.12,3.12,0,0,0,.93,1.63c.48.77.92,1.58,1.45,2.3C1.63,21.57,1.81,21.93,1.43,22.33Z"/><path class="cls-10" d="M6.63,7.67A25.71,25.71,0,0,1,4.91,2.83,5.26,5.26,0,0,0,3.9.88a2.55,2.55,0,0,1-.18-2.8H4c0,.46.44.67.54,1.09a6.25,6.25,0,0,0,.95,2A1.82,1.82,0,0,1,6,2.77a.22.22,0,0,0,0,.18c.87,1,.81,2.42,1.3,3.6,0,.08.11.12.17.17a6.75,6.75,0,0,1-.26,2.11C6.88,8.53,6.93,8,6.63,7.67Z"/><path class="cls-11" d="M30.56-1.92c.46,0,1.09-.22,1.32.06s.06,1.07.06,1.63v4c0,.16-.32-.11-.26.24a1.34,1.34,0,0,1-.07.84.48.48,0,0,1-.32.21.4.4,0,0,1-.23-.08,8.31,8.31,0,0,1-.65-2.38A4.06,4.06,0,0,0,30.23,1C30.13.81,30,.8,29.86.68a1.7,1.7,0,0,0-.79-.49.86.86,0,0,1-.55-1.3c.13-.22.33-.35.51-.23C29.71-.9,30.16-1.27,30.56-1.92Z"/><path class="cls-12" d="M13.08,27.41c1.27-.75,2.33-2.05,3.82-2.26a.51.51,0,0,1-.07.77,5.82,5.82,0,0,0-.76,1.22,4.92,4.92,0,0,1-.24.45c-.55,1.28-1.62,2-2.26,3.2a3.43,3.43,0,0,1-1.11,1.13h-.92a.62.62,0,0,1,0-.75,9.44,9.44,0,0,1,1.37-2.09A1.15,1.15,0,0,0,13.08,27.41Z"/><path class="cls-13" d="M-.27,19.13c-1-.7-1-2-1.35-3.12a2.82,2.82,0,0,0-.33-.82V12C-1,12-.56,11,.16,10.56a.52.52,0,0,1,.19-.11.91.91,0,0,1,.6.22,1.29,1.29,0,0,1-.28.84c-.14.17-.24.36,0,.51a.43.43,0,0,1,0,.35,4.94,4.94,0,0,1-.36.44,2.91,2.91,0,0,1-.49.44,1.41,1.41,0,0,0-.52,1.9,2.6,2.6,0,0,1,.18.8,2.36,2.36,0,0,0,0,.53A7.35,7.35,0,0,0-.17,18C-.15,18.41,0,18.8-.27,19.13Z"/><path class="cls-14" d="M-.1,23.62a14.69,14.69,0,0,0,.61,2.66c.05.52-.22.75-.54.61a2.47,2.47,0,0,0-1.68-.22c-.09,0-.17-.12-.24-.2V22.33c.34-.41.63-.2.94.09S-.42,23.25-.1,23.62Z"/><path class="cls-15" d="M-1.95,26.47c.07,0,.18,0,.21-.07.42-.77.87-.59,1.39-.14.24.21.57.53.86,0a4.92,4.92,0,0,1,.61,1.49.68.68,0,0,1,.46.55,10.21,10.21,0,0,1,.33,2.53c-.3.46-.5.2-.71-.14C.77,30,.35,29.23-.13,28.54a2.08,2.08,0,0,0-1.29-1c-.25,0-.38-.29-.53-.5Z"/><path class="cls-16" d="M13.08,27.41c.37,0,.81-.05,1,.5s-.24.79-.5,1.05a26.52,26.52,0,0,0-2,3H10.47a.49.49,0,0,1-.09-.58,8.4,8.4,0,0,1,1.45-2.49,1.26,1.26,0,0,0,.32-.69A1.4,1.4,0,0,1,13.08,27.41Z"/><path class="cls-17" d="M27.34,1.61A6.08,6.08,0,0,0,26.87.15c-.65,0-.45-.88-.79-1.22a.86.86,0,0,1,.18-.85h.61a3.48,3.48,0,0,1,.58.87A1.67,1.67,0,0,0,28.62,0c.31.06.61.17.6.68a.66.66,0,0,1-.13.36.74.74,0,0,0,0,1,1.86,1.86,0,0,1,.39,1.66c0,.57-.39.3-.61.38-.47,0-.5-.55-.77-.79a7.09,7.09,0,0,0-.46-1.1C27.53,2,27.35,1.88,27.34,1.61Z"/><path class="cls-18" d="M31.31,4.9l.19-.25c.43,0,.21.58.44.76V9.55c-.21-.07-.45-.2-.39-.48.23-1.19-.55-1.75-1-2.52-.26.07-.3-.14-.3-.39a2.56,2.56,0,0,1-.31-1.81c.5-.27.63.36.86.62S31.15,5.1,31.31,4.9Z"/><path class="cls-19" d="M1.41,27c-.35-1.46-.7-2.91-1-4.37-.07-.29-.28-.66,0-.84s.4.25.55.48.14.26.21.39l0,.23c.48,1.7.88,3.42,1.25,5.16a3.43,3.43,0,0,1,.06.56,10.75,10.75,0,0,0,.31,2.11,1.07,1.07,0,0,1-.24,1.16h-.3a.8.8,0,0,1-.26-.55A41.93,41.93,0,0,0,1.41,27Z"/><path class="cls-20" d="M29,.67a.46.46,0,0,0-.35-.3c-.32,0-.71.3-1-.17a3.94,3.94,0,0,1-.82-2.12h1.39c.12.28.62.23.45.77s.21,1,.76,1.16a.79.79,0,0,1,.63.47c-.08.31-.32.33-.52.41A.4.4,0,0,1,29,.67Z"/><path class="cls-21" d="M-1.95,29.85V28.54a.41.41,0,0,1,.68,0A10.24,10.24,0,0,1,.62,31.24a.74.74,0,0,1,0,.68H-1C-1.84,31.57-1.68,30.57-1.95,29.85Z"/><path class="cls-22" d="M5.71,31.92a3.83,3.83,0,0,0-.28-1.35c-.12-.39-.24-.79.12-1.1a.9.9,0,0,0,1.39-.29.39.39,0,0,1,.62-.08c.55,1.11-.1,1.93-.47,2.82Z"/><path class="cls-23" d="M12.31-1.92A17.21,17.21,0,0,1,10.1,2.16a.17.17,0,0,1-.2,0c-.13-.09-.1-.25-.06-.41A17.69,17.69,0,0,0,10-1.92h.3a4,4,0,0,1,.73.75c.11-.52.55-.49.81-.75Z"/><path class="cls-24" d="M.65,31.92a10.39,10.39,0,0,0-2.6-3.38V27.41A2.64,2.64,0,0,1,.16,29c.17.27.33.55.52.81.22.69.7,1.29.43,2.13Z"/><path class="cls-25" d="M22.43-.79c.26-.44.73-.61.92-1.13h.3a.83.83,0,0,0,1,.35.42.42,0,0,1,.54.23c.11,1-.56,1.43-.93,2.08-.78.72-1.34.07-1.92-.46A1.13,1.13,0,0,1,22.43-.79Z"/><path class="cls-26" d="M13.68-1.73l.16-.19h.61c.06.06.17.09.19.15A1.4,1.4,0,0,0,15.81-.72a1.67,1.67,0,0,1,.47.3c0,.33-.13.52-.4.58a3.74,3.74,0,0,1-.45.12c-.43.06-.77,1-1.27.29A2.4,2.4,0,0,1,13.68-1.73Z"/><path class="cls-27" d="M1.88-1.92C.77-.6-.35.71-1.95,1.09V0C-1-.7-.2-1.72,1-1.92Z"/><path class="cls-28" d="M25.19,31.92H22.58a2.38,2.38,0,0,0-.73-1.67,2.51,2.51,0,0,1,0-1.71c.59.37,1.52,0,1.64,1.38a1,1,0,0,0,1.17,1C25.06,31.12,25.41,31.31,25.19,31.92Z"/><path class="cls-29" d="M19.6-1.19c.09-.34.37-.47.53-.73h.92a.65.65,0,0,1,.17.51C20.64-.54,19.91.16,19.27,1a2.66,2.66,0,0,0-.43.75c-.5.43-.66,1.32-1.35,1.5-.43-.93.08-1.63.44-2.31C18.36.06,19.16-.35,19.6-1.19Z"/><path class="cls-30" d="M12.15,28.16c.45.21.46.39.09.81a11.28,11.28,0,0,0-1.77,3h-.16c-.33-.37-.27-1-.6-1.39l0-.12A10.44,10.44,0,0,1,12.15,28.16Z"/><path class="cls-31" d="M4.33-.79c-.2-.34-.6-.59-.3-1.13h.15A7.11,7.11,0,0,0,6-.59.56.56,0,0,1,6.22,0a1.62,1.62,0,0,0,.54,1.33l0,.55a1.21,1.21,0,0,1,0,.82c-.17.42-.65.46-.79,0a8.11,8.11,0,0,0-1.54-3C4.35-.39,4.46-.64,4.33-.79Z"/><path class="cls-32" d="M.5,29.86a10.18,10.18,0,0,0-2.45-2.45V27c1.6.11,2.29,1.61,3.06,3,.18.34.4.65.6,1-.09.69-.35.56-.61.16A13.8,13.8,0,0,1,.5,29.86Z"/><path class="cls-33" d="M2.49,31.92c.07-1.13-.38-2.2-.28-3.34.22-.15.36,0,.51.19a1.11,1.11,0,0,1,.07.16c.12.27,0,.83.39.76s.15-.54.18-.83,0-.78.39-.9c.24.25.28.65.44.95a3.25,3.25,0,0,1-.78,3Z"/><path class="cls-34" d="M.5,29.86c.29.22.37.64.58.94s.32.65.63.19a11.18,11.18,0,0,0-.59-3.22A.86.86,0,0,0,1.41,27a14.55,14.55,0,0,1,.78,4.88H1.11Z"/><path class="cls-35" d="M26.57,31.92a8.53,8.53,0,0,0-1.16-4.45,6.87,6.87,0,0,1,1.74,2,1.8,1.8,0,0,0,.15,1,1.4,1.4,0,0,1-.12,1.36Z"/><path class="cls-36" d="M6.76,1.28C6.09,1.75,6,.92,6,.58A1.2,1.2,0,0,0,5-.77c-.56-.13-.48-.82-.79-1.15h.46a2.14,2.14,0,0,0,1,.47c1,.26,1,.32,1,1.52a1.56,1.56,0,0,0,0,.44Z"/><path class="cls-37" d="M6.76.51A2.09,2.09,0,0,0,5.14-1.26a.91.91,0,0,1-.5-.66H6.79C6.76-1.11,7.09-.29,6.76.51Z"/><path class="cls-38" d="M11.85-1.92l-1,1.73c-.1.17-.17.46-.39.3a.48.48,0,0,1,0-.59c.33-.52.11-1-.08-1.44Z"/><path class="cls-39" d="M19.21,31.92c.08-.8-.15-1.23-.86-1.14a.59.59,0,0,1-.65-.35l1-.61a.78.78,0,0,0,.45-.07c.5-.16.71.21.59.71a3.23,3.23,0,0,0,0,1.08.81.81,0,0,1-.12.38Z"/><path class="cls-40" d="M19.67,31.92l-.2-.2a1.87,1.87,0,0,1,.68-1.62c.18-.18.38-.34.58,0-.05.33.2.48.31.71a1.67,1.67,0,0,1-.45,1.13Z"/><path class="cls-41" d="M3.41,31.92a7.62,7.62,0,0,0,.78-3,1.35,1.35,0,0,1,.16,1.38,1.14,1.14,0,0,0,0,1.06c.18.28,0,.43-.15.57Z"/><path class="cls-42" d="M.34,10.67A3.73,3.73,0,0,1-.85,12a.74.74,0,0,1-1.1,0V10.11c.5-.06.36.57.57.82s.56.17.82-.07a.94.94,0,0,1,.74-.35A.35.35,0,0,1,.34,10.67Z"/><path class="cls-43" d="M22.12,30.23c.5,0,.66.3.55.88-.05.27-.06.54-.09.81h-.15a.93.93,0,0,0-.33-.79,1.43,1.43,0,0,1-.59-1.47C21.89,29.56,21.84,30.16,22.12,30.23Z"/><path class="cls-44" d="M26.26-1.92a1.43,1.43,0,0,0,.13.77A3.21,3.21,0,0,1,26.07.69.79.79,0,0,1,25.13.6a.72.72,0,0,1,.1-.83,2.72,2.72,0,0,0,.4-1.16.93.93,0,0,1,.17-.53Z"/><path class="cls-45" d="M25.8-1.92v.55c-.25.53-.28,1.22-.72,1.6-.29.25-.55.73-1,.24.25-.64.84-1,.94-1.78.29-.05.44-.25.45-.61Z"/><path class="cls-46" d="M27.46,30.08a3.8,3.8,0,0,1,.61,1.1c.08.34.1.65-.27.74h-.16c-.42-.37-.41-1-.57-1.52C27,30.16,27.13,29.82,27.46,30.08Z"/><path class="cls-47" d="M27.46,30.08c-.38.24-.2.55-.09.87s.18.65.27,1h-.46A3.81,3.81,0,0,0,27,30.66c-.11-.4-.25-.84.16-1.15Z"/><path class="cls-48" d="M12.31,19.89a9.58,9.58,0,0,1-.15-2.07c.31-.24.56.55.89.08.4-.13.51-.79,1-.79a2.92,2.92,0,0,0,1.86-1.68.89.89,0,0,1,.44-.49c.45-.17.49-.56.39-1,0-.3.24-.51.18-.82a12.75,12.75,0,0,1,3.18-1.92A3.08,3.08,0,0,1,19,12.52a2.15,2.15,0,0,0-.86,1.72.43.43,0,0,1,.12.22,1.49,1.49,0,0,1-.4.9,4.51,4.51,0,0,0-.78,1.2,10.69,10.69,0,0,1-1.23,1.28.42.42,0,0,1-.22,0c-.44-.26-.74.06-1,.4-.47.64-1.06,1.08-1.56,1.67C12.81,20.08,12.55,20.25,12.31,19.89Z"/><path class="cls-49" d="M25.8,20.83a1.31,1.31,0,0,1,1.68,0c.28-.07.57-.2.77.19.77.17,1.16.74,1.28,1.68A2.48,2.48,0,0,0,30.25,24c.27.32.45.67-.18.62-.31.18-.44-.12-.6-.34s-.3-.43-.46-.63-.21-.4-.34-.57-.21-.39-.42-.43-.34.21-.35.45a4.75,4.75,0,0,0,.44,2.62,1,1,0,0,1,.18.93.45.45,0,0,1-.67.22.94.94,0,0,1-.25-.46,18.21,18.21,0,0,1-.68-1.92,6.06,6.06,0,0,1-.29-1.7,1,1,0,0,0-.3-.75c-.17-.27-.38-.47-.56-.72A.49.49,0,0,1,25.8,20.83Z"/><path class="cls-50" d="M14.91,13.31l.31-.93c-.11-.33-.15-.74.09-.93.47-.36.41-.92.49-1.44a5.83,5.83,0,0,1,.28-.62,1.05,1.05,0,0,1,.25-.3,2.1,2.1,0,0,0,.8-1,1.11,1.11,0,0,1,1.13-.84c.3.09.4.34.38.7a5.15,5.15,0,0,1-.28.81,2.38,2.38,0,0,0-.49,1.12c0,.36-.16.64-.4.67.38.05.91-.37,1.28.34-.49.57-1.23.53-1.74,1.06-.21.22-.56.36-.64.62C16.09,13.5,15.54,13.46,14.91,13.31Z"/><path class="cls-51" d="M22.12,26.47a2.75,2.75,0,0,0-.53.36,1.16,1.16,0,0,1-1.81.07,5.54,5.54,0,0,1-1.52-2.42.53.53,0,0,1,.18-.64c.46.3,1.25.11,1.14,1.23,0,.19.24.31.47.34,1.27.19,2-.54,2.16-2.13a1.18,1.18,0,0,1,.06-.27.44.44,0,0,1,.29-.22c.24,0,.34.2.32.49l.31.75c0,.78.11,1.6-.61,2.06A.69.69,0,0,0,22.12,26.47Z"/><path class="cls-52" d="M28.42,28.92c-.12.71-.4.52-.68.18A5.34,5.34,0,0,1,27,27.94c-.71-1.59-2-2.49-2.93-3.81A1.59,1.59,0,0,1,24,22.52c.16,0,.32.06.48.05s.32-.32.45-.52a1.54,1.54,0,0,1,.64-.55.52.52,0,0,1,.6.39.76.76,0,0,1,0,.3c-.06.47-.41.76-.51,1.22-.26,1.26-.22,1.39.7,2a2.87,2.87,0,0,1,1.33,1.61c.14.56.58.73.9,1.06A.69.69,0,0,1,28.42,28.92Z"/><path class="cls-48" d="M21.36,16.69a.57.57,0,0,0,.31.39.35.35,0,0,1,0,.25,1.43,1.43,0,0,1-.62.6.51.51,0,0,1-.55.11,3.65,3.65,0,0,0-2.67.26A7.23,7.23,0,0,1,16,19a4.61,4.61,0,0,0-.83.12c-.25.08-.46-.05-.56-.35a.63.63,0,0,1,.12-.69c.27-.23.51-.65.93-.49h0a3.07,3.07,0,0,0,1.45-1.12.42.42,0,0,1,.19-.16,2.8,2.8,0,0,1,2.43.1,2,2,0,0,0,.9.11C20.89,16.59,21.14,16.51,21.36,16.69Z"/><path class="cls-53" d="M22.88,23.28l-.29-.39c-.25-.14-.35-.53-.64-.63s-.45,0-.6-.29.13-.88-.29-1.14a.4.4,0,0,1-.31-.11.49.49,0,0,1-.12-.37c.1-.43.34-.5.66-.38s.88.29,1.33.43l.11,0c.71.17,1.5-.3,2.16.37a1.05,1.05,0,0,1-.06.24c-.37.11-.4.8-.86.74A3.65,3.65,0,0,1,22.88,23.28Z"/><path class="cls-17" d="M30.25,6.16l.3.39a5,5,0,0,0,.6,1.57c.1.25.25.54.05.76s-.34-.12-.45-.28c-.23-.33-.44-.15-.66,0-.55.22-.46-.64-.83-.73-.2,0-.39.06-.59.07a2.42,2.42,0,0,1-.76,0l-.22,0a.61.61,0,0,1-.35-.51c-.14-.16-.47-.09-.45-.41s.29-.28.48-.31A6.81,6.81,0,0,0,29,6.18,1.56,1.56,0,0,1,30.25,6.16Z"/><path class="cls-54" d="M26.44,14.65l.28-.21c.11-.22.32-.09.46-.19l.17,0c.27-.13.48-.11.54.32a3.64,3.64,0,0,1,0,1.54,8.54,8.54,0,0,1-.5,2.47c-.19.34-.4.67-.79.54s-.58-.55-.66-1a10.9,10.9,0,0,0-.24-2.28.55.55,0,0,1-.06-.26C25.75,15,26.13,14.87,26.44,14.65Z"/><path class="cls-55" d="M31.35,13.68c.31,1.08-.07,2.21.22,3.32-.48-.7-1.25-.74-1.71-1.41a3.69,3.69,0,0,1-.8-1.56c-.09-.76-1-.8-.92-1.24a1.49,1.49,0,0,0-.55-1.55,2.21,2.21,0,0,1-.25-.56,3.91,3.91,0,0,1,.38-.7c.35-.45.81-.32.89.28A3.79,3.79,0,0,0,29,11.33a1.73,1.73,0,0,0,.51,1.6,1.5,1.5,0,0,1,.32,1c.06.53.41.76.66,1.09s.35,0,.47-.2C31.09,14.43,30.85,13.88,31.35,13.68Z"/><path class="cls-56" d="M28.87,4.29c.38.63.31,1.07-.36,1.28-.37.11-.54.72-1,.69-.66,0-1.4.29-1.78-.85a5.79,5.79,0,0,0-1-1.46.71.71,0,0,1,0-1A1.78,1.78,0,0,1,26.6,4.38a.77.77,0,0,0,.73.66c.33.11.57-.13.81-.36A1,1,0,0,1,28.87,4.29Z"/><path class="cls-57" d="M19.19,13.28a6.38,6.38,0,0,1,1.46-1.63c.47-.41.79-.31,1,.37a2.13,2.13,0,0,1-.34,2.2,1.5,1.5,0,0,0-.34.47c-.21.53-.55.63-.78.08s-.78-.39-1.07-.78a.55.55,0,0,1-.12-.24C19,13.52,19.09,13.42,19.19,13.28Z"/><path class="cls-58" d="M21.66,17.2a.17.17,0,0,0,0-.12c.45-.32.91-.61,1.35-.95s.64-.2.81.31c.57,1.51.56,1.55-.61,2.61-.34.32-.8.43-.95-.09S20.89,18.27,21.66,17.2Z"/><path class="cls-59" d="M28.86,11.44a1.61,1.61,0,0,1-.53-1.38c-.41.13-.55.77-1,.62a7.58,7.58,0,0,1-.69-2.27c-.18-.62.24-.87.69-1l.47.18a1.13,1.13,0,0,0-.11.22,2.12,2.12,0,0,1,.12-.2h.89c.08.08.2.19.16.29a5.52,5.52,0,0,0,.23,2.8C29.08,11,29.09,11.29,28.86,11.44Z"/><path class="cls-60" d="M28.42,28.92a1.51,1.51,0,0,0-.16-.76c-.22-.47-.72-.86-.28-1.52.49-.08.33-.42.16-.72a5.39,5.39,0,0,1-.46-3.3c0-.29.06-.67.36-.73s.39.22.5.47A7,7,0,0,0,28.81,26a3.75,3.75,0,0,1,.12,1.37,1.41,1.41,0,0,0,.45,1.24c.39.45.1,1.06.25,1.57-.22.61-.42.45-.54-.06S28.88,29.14,28.42,28.92Z"/><path class="cls-61" d="M18.44,8a.49.49,0,0,0-.31-.48.55.55,0,0,1,0-.5,1.15,1.15,0,0,1,.57-.56A2.24,2.24,0,0,0,20,4.64c.36-.21.72-.43,1.09-.62s.91-.36,1.23.28c.05.54-.41.66-.57,1a6.61,6.61,0,0,1-.86,1c-.73.58-1.39,1.3-2.14,1.86a.3.3,0,0,1-.21,0A.15.15,0,0,1,18.44,8Z"/><path class="cls-62" d="M20.74,16.88c-.85,0-1.67-.35-2.53-.28-.27,0-.55-.08-.81.11-.31-.26-.1-.51,0-.77a1.86,1.86,0,0,0,.27-.78l.44-.74a3.23,3.23,0,0,1,1.31,1.17c.36.61.83.56,1.41-.05a13.09,13.09,0,0,0,1.58-2,.85.85,0,0,1,.19.53,1.46,1.46,0,0,1-.52,1.52C21.61,16,21.32,16.64,20.74,16.88Z"/><path class="cls-63" d="M27.34,12a3.77,3.77,0,0,1,.14,1.5c-.55.27-1.08.49-1.6-.12-.31-.35-.7-.23-1,0s-.53.34-.81,0a1,1,0,0,1,0-.87c.32-.25.36-.72.56-1.07.13-.16.27-.33.48-.31C26,10.74,26.59,11.67,27.34,12Z"/><path class="cls-64" d="M26,.52a3.77,3.77,0,0,1,.44-1.67l.48,1.3c-.17.77-.34,1.49-1.23,1.29-.37-.08-.61.39-.91.59a2.09,2.09,0,0,1-1.55.57,4,4,0,0,0-2.05.59.28.28,0,0,1-.42,0c0-.91.62-1.11,1.08-1.51.84-.41,1.77.27,2.61-.33A2.79,2.79,0,0,1,26,.52Z"/><path class="cls-65" d="M31.35,13.68l0,1.49c-.68.43-.85-.14-1-.77a3.58,3.58,0,0,0-.7-2.35,1.44,1.44,0,0,1-.16-1.74.53.53,0,0,1,.76.2c.17.3.25.73.65.73A12.25,12.25,0,0,1,31.35,13.68Z"/><path class="cls-66" d="M18.75,10.87a1.93,1.93,0,0,1-1.58-.27c.48-.56.3-1.55.94-2,0,0,.07,0,.07,0,.44,1.57,1.45,1.11,2.36,1,.4,0,.78-.22,1.18-.3a.39.39,0,0,1,.3.17c.12.51-.1.71-.46.71a1.44,1.44,0,0,0-.82.1A7.52,7.52,0,0,0,18.75,10.87Z"/><path class="cls-67" d="M24.43,30.77l.14.41c-.88-.08-1.21-.44-1.39-1.54,0-.24-.1-.51-.32-.33-.88.68-.69-.22-.76-.74a.51.51,0,0,1-.12-.78.4.4,0,0,1,.15,0,.48.48,0,0,0,.55,0,1.53,1.53,0,0,0,.5-.83.5.5,0,0,1,.49-.14c.43.69.14,1.43.1,2.16S24.35,30.11,24.43,30.77Z"/><path class="cls-68" d="M22,2.22c-.59-.05-.92.41-1.22.93a2.16,2.16,0,0,1-1.38,1.13l-.3.2s-.1.06-.14.06c-.39,0-.9.6-1.07.25s.36-.84.59-1.26a1.91,1.91,0,0,0,1.52-1c.32-.58.92-.6,1.35-1C21.69,1.54,22,1.62,22,2.22Z"/><path class="cls-69" d="M27.17,18.59l.49-2.46c.18-.19.35-.15.52,0a4.66,4.66,0,0,1,.18,2.06c-.09,1,0,1.16.84,1.09l.28,1.16c-.05.58-.47.16-.66.36a.71.71,0,0,1-.32,0c-.11-.07-.17-.24-.29-.28-.48-.15-.88-.35-.8-1.13,0-.19-.18-.35-.27-.53A.36.36,0,0,1,27.17,18.59Z"/><path class="cls-70" d="M24.72,11.62c0,.43,0,.82-.45.94-.93-.14-1.1-.39-1.15-1.77.17-.42.6-.67.53-1.25L24.27,9c.6.18.66.81.64,1.36A4.6,4.6,0,0,1,24.72,11.62Z"/><path class="cls-71" d="M29.63,30.22c-.63-.19-.24-.91-.45-1.31a.78.78,0,0,1,0-.65A1.1,1.1,0,0,1,29.5,28c.27-.08.37-.36.48-.63a1,1,0,0,1,.72-.85c.4.75.69,1.4-.22,2C30,28.82,30,29.67,29.63,30.22Z"/><path class="cls-72" d="M24,26.67c.34-.3.49-.05.61.31.21.63.43,1.26.64,1.88,0,.61-.24,1-.71.89a1,1,0,0,1-.82-1.11A4.7,4.7,0,0,1,24,26.67Z"/><path class="cls-73" d="M30.86,19.33c.07.39.32.7.31,1.13h-.31a4,4,0,0,1-1.22-4c.33,0,.45.34.61.61.23.6.16,1.34.57,1.87A.7.7,0,0,1,30.86,19.33Z"/><path class="cls-74" d="M24.12,13.31l1.09-.43a.61.61,0,0,1,.83.22c.4.56,1,.07,1.44.39-.07.27-.37.4-.3.76a.46.46,0,0,1-.46.19,1.71,1.71,0,0,0-2.61-.38c-.44.22-.52-.1-.53-.53C23.7,13.26,23.88,13.16,24.12,13.31Z"/><path class="cls-75" d="M22,9.55h-.3l-.08-.09c-.06-.15-.09-.35,0-.43.87-.64,1-2.11,1.9-2.67.36-.42.72-.85,1.26-.39l.29.38a3.2,3.2,0,0,1-.91,1.29,6.14,6.14,0,0,0-.9,1.18C22.83,9.12,22.57,9.8,22,9.55Z"/><path class="cls-76" d="M21.05,15.76c-.6.85-.93.92-1.59.28a2.48,2.48,0,0,0-1-.76c-.32-.09-.32-.51-.34-.86a.55.55,0,0,0,0-.18,1.92,1.92,0,0,1,1.07-1l-.15.4a6.45,6.45,0,0,0,.72,1.38C20,15.7,20.65,15.45,21.05,15.76Z"/><path class="cls-77" d="M19.21,13.69c.08,0,.16.09.22.07.68-.21,1,.21,1,1A3.66,3.66,0,0,0,21.63,12c.19.1.24.34.33.53.41,1.3,0,2.25-1.58,3.16A2.45,2.45,0,0,1,19.21,13.69Z"/><path class="cls-78" d="M26,19.87c0-.89-.57-1.59-.53-2.5a7.66,7.66,0,0,1,0-.83c.07-.44,0-.68-.41-.76s-.55-.36-.13-.73c.2.2.45.07.68.12s.18.24.25.39h0a1.72,1.72,0,0,1,.28,1.3c0,.73-.2,1.63.46,2.22a.84.84,0,0,1,.39.74C26.64,20.39,26.3,20.2,26,19.87Z"/><path class="cls-79" d="M26.12,9.12l.76,1.93c0,.42-.32.52-.46.38-.4-.43-.88-.18-1.29-.35a2.89,2.89,0,0,1,0-2.85l.15-.06C25.76,8.27,25.59,9.14,26.12,9.12Z"/><path class="cls-80" d="M23.66,13.5a.86.86,0,0,0,.45.56c-.17.67-.49.53-.78.17A2.24,2.24,0,0,1,22.92,13a1.9,1.9,0,0,0-.53-1.28c-.54-.51-.52-.9.13-1.23a1.9,1.9,0,0,0,.36-.34c.3.18.17.55.21.82a4.61,4.61,0,0,0,.46,1.57A1,1,0,0,1,23.66,13.5Z"/><path class="cls-81" d="M20.29,15.54a3.34,3.34,0,0,0,1.67-3l.45,1A1.63,1.63,0,0,1,21.72,15a3.07,3.07,0,0,0-.67.72c-.6.18-1.27.64-1.53-.57C19.86,15,20.06,15.33,20.29,15.54Z"/><path class="cls-82" d="M31.31,4.9l.18,1.35.13-.16L29.94,4.35l-.3-.64a1.66,1.66,0,0,1-.2-.64c-.12-.61.43-1.18.09-1.82A.54.54,0,0,1,29.69.9c.32-.06.64-.28.93.06,0,.32,0,.63,0,1a3.29,3.29,0,0,0,.56,2.94Z"/><path class="cls-83" d="M23.66,13.5a5.29,5.29,0,0,1-.78-3.4l.29-.19c.3.18.25.47.17.78-.16,1,.63,1.24.93,1.87l-.15.75Z"/><path class="cls-4" d="M19.36,4.28l1.38-1.13c1.24-.86,2.68-.64,4-1.12a1.19,1.19,0,0,1-1.16.74A5,5,0,0,0,20.35,4C20.06,4.17,19.75,4.45,19.36,4.28Z"/><path class="cls-84" d="M27.31,5.62c-.29,0-.64-.17-.69-.48-.2-1.32-1.23-1.5-1.89-2.17a1.49,1.49,0,0,1,.9-.58c.34,0,.46.4.74.49l.18.14c.42.77.49,1.71.84,2.51Z"/><path class="cls-85" d="M22.45,4.3c.45-.4.9-1,1.34,0,.16.22.08.52.17.75-.22,1-.38,1.08-1.23.79C22.43,5.39,21.79,5,22.45,4.3Z"/><path class="cls-86" d="M24,26.67c-.05.52-.11,1-.16,1.57a1.07,1.07,0,0,0,.62,1.14c.39.19.6-.18.79-.52l.3.79a.77.77,0,0,1-1,.8,1.21,1.21,0,0,1-1-1.33l.15-2.26Z"/><path class="cls-87" d="M28.57,16.5a6,6,0,0,1,.48,1.83c.05.49.21,1.15-.27,1.32s-.48-.6-.62-.95c-.32-.72.06-1.48.14-2.22C28.31,16.39,28.48,16.43,28.57,16.5Z"/><path class="cls-80" d="M22,9.55,23,8.61c.33-.44.61-1,1.22-.56-.7.5-1.09,1.44-1.86,1.9a2,2,0,0,1-1.66.35C21,9.79,21.76,10.31,22,9.55Z"/><path class="cls-88" d="M29.29,7.28c.24-.17.36,0,.44.24a3.59,3.59,0,0,0,.36,1.09l.16.38a.54.54,0,0,1,.13.41c-.2.68-.65.46-1,.38s-.55-.54-.58-1A2.26,2.26,0,0,1,29.29,7.28Z"/><path class="cls-89" d="M23.52,29.12c.7,1.16.7,1.16,2,.53l.17.54a.87.87,0,0,1-1.25.58C23.92,30.4,23.22,30.17,23.52,29.12Z"/><path class="cls-90" d="M25.17,8.23a4.69,4.69,0,0,0,0,2.7.4.4,0,0,1,0,.52l-.47.17c-.26-.85.14-1.86-.45-2.63A2.11,2.11,0,0,1,25.17,8.23Z"/><path class="cls-91" d="M22.58,26.09A6.23,6.23,0,0,1,23.19,24c.06.1.12.2.19.3.23.36.52.73.3,1.23A.83.83,0,0,1,22.58,26.09Z"/><path class="cls-92" d="M28.57,16.5c-.72,1-.34,1.95.11,2.92.45-.2.29-.71.37-1.09l.15,1c-.22.82-.35.86-.83.32A2,2,0,0,1,28,18c.06-.56.11-1.12.16-1.67,0-.19.11-.3.28-.2Z"/><path class="cls-93" d="M29.62,3l0,.72h-.16a5.13,5.13,0,0,0-.81-1.62A.77.77,0,0,1,28.83.9l.33.11C29.93,1.45,29.7,2.25,29.62,3Z"/><path class="cls-94" d="M25.19,11.45c0-.17,0-.34,0-.52a1.18,1.18,0,0,1,.93.13c.24.15.5.28.75,0l.46.94c-.32.55-.77.08-.88-.07C26.09,11.39,25.65,11.46,25.19,11.45Z"/><path class="cls-95" d="M24.26,8.05A2.14,2.14,0,0,0,23,8.61a6.47,6.47,0,0,1,2-2.26c.22.21.29.44,0,.63A3.17,3.17,0,0,0,24.26,8.05Z"/><path class="cls-96" d="M27.21,18.79c.15-.07.38-.13.38.08,0,.89.55,1.26,1,1.76-.31.36-.34.36-1.09,0l-.15-.19a2.23,2.23,0,0,0-.52-1A.63.63,0,0,1,27.21,18.79Z"/><path class="cls-97" d="M20.74,16.88a8.26,8.26,0,0,0,1.86-2.82,1.21,1.21,0,0,1-.38,1.76,3.74,3.74,0,0,0-.86.87Z"/><path class="cls-98" d="M26.12,9.12c-.19.28-.24.91-.59.76s-.28-.72-.23-1.16a5,5,0,0,0,0-.55c.28-.38.51-.36.65.15C26,8.58,26.07,8.85,26.12,9.12Z"/><path class="cls-99" d="M16.9,13.09c.59.1.33.45.15.77a2.36,2.36,0,0,1-1.22,1.58c-.41-.34-.13-.8-.13-1.21s.4-.32.56-.54A1.47,1.47,0,0,1,16.9,13.09Z"/><path class="cls-100" d="M20,4.64c.47.08.39.34.15.68a6.48,6.48,0,0,1-1.83,1.79c-.14.07-.2,0-.25-.17a1.07,1.07,0,0,1,0-.4.94.94,0,0,1,.1-.23,8.72,8.72,0,0,0,1-.82c.12-.11.29-.18.19-.43h-.05l0,0Z"/><path class="cls-101" d="M23.05,18.56c.83-.44.94-.73.78-2.12l.74,1.22c.22.62,0,1-.47,1.17C23.74,18.83,23.34,19,23.05,18.56Z"/><path class="cls-102" d="M28.87,4.29c-.48.5-.8,1.31-1.56,1.33l0,0a2.5,2.5,0,0,1,.3-1.09l.09-.24c.23-.43.2-1.07.68-1.3l.45,1.14A1.2,1.2,0,0,0,28.87,4.29Z"/><path class="cls-103" d="M24.76,20.85a.24.24,0,0,0,.13-.05l.46,0c.36.66-.39.92-.34,1.47l-.47,1c-.23.17-.32,0-.34-.24A2.41,2.41,0,0,1,24.76,20.85Z"/><path class="cls-104" d="M22,27.79l.12.78a2.43,2.43,0,0,0,0,1.66c-.29-.05-.43-.34-.61-.57,0-.65-.39-1.4.3-1.89Z"/><path class="cls-105" d="M23.34,19.88c-.12.33-.43.34-.61.55h0c-.33.22-.6,0-.87-.17a4,4,0,0,0-.64-.6.57.57,0,0,1-.26-.73c.56-.63.91.28,1.39.29.22.2.49,0,.72.15a1.19,1.19,0,0,1,.18.15A.49.49,0,0,1,23.34,19.88Z"/><path class="cls-106" d="M23.78,5.11c0-.26,0-.53,0-.8l1,1.66a1.76,1.76,0,0,0-1.1.58.5.5,0,0,1-.17-.5A3,3,0,0,0,23.78,5.11Z"/><path class="cls-107" d="M30.7,26.47l-.46,1.14c-.28.2-.48.08-.62-.24a3,3,0,0,1,0-1.31.6.6,0,0,1,.16-.19,2.07,2.07,0,0,1,.62-.21Z"/><path class="cls-108" d="M23.34,19.88l-.14-.16c0-.42.25-.53.48-.63A2,2,0,0,0,24.75,18l.58,1.51c-.6.24-1.24.11-1.83.38Z"/><path class="cls-109" d="M24.76,20.85c-.18.79-.64,1.55-.22,2.42-.15.31-.3.33-.41,0s-.12-.48-.18-.72,0-.49,0-.74C24.19,21.41,24.26,20.86,24.76,20.85Z"/><path class="cls-110" d="M28.41,16.13l-.28.2-.47-.2c0-.43.07-.86.1-1.29s-.1-.59-.41-.61c.34-.29.54-.15.65.32S28.28,15.6,28.41,16.13Z"/><path class="cls-111" d="M23.34,10.69a1.59,1.59,0,0,1-.17-.78.66.66,0,0,1,.48-.37.73.73,0,0,1,.25.93C23.8,10.82,23.57,10.78,23.34,10.69Z"/><path class="cls-50" d="M13.22,15.21c0-1,.84-1,1.23-1.52-.17.31-.29.62,0,.93l.06.13a.47.47,0,0,1-.09.28C14.05,15.33,13.69,15.74,13.22,15.21Z"/><path class="cls-112" d="M29.94,26.08l-.14,0a1.91,1.91,0,0,1-.43-2.1c.07-.1.18-.05.27,0l.43.57,0,.37C30,25.34,30.31,25.79,29.94,26.08Z"/><path class="cls-113" d="M25,22.31a1.59,1.59,0,0,1,.34-1.47h.45l.17.37c.11.49-.32.37-.45.6Z"/><path class="cls-114" d="M22.45,4.3c-.31.64.35.71.43,1.12-.17.38-.39.69-.78.74-.52-.12-.48-.66-.57-1.11l.76-.75Z"/><path class="cls-115" d="M23.5,19.88a1.76,1.76,0,0,1,1.83-.38c0,.18,0,.48-.19.43C24.59,19.75,24,20.12,23.5,19.88Z"/><path class="cls-116" d="M24.75,18c-.1,1.14-.87,1.36-1.55,1.73L23,19.66c0-.93.65-.86,1.12-1.07a1.14,1.14,0,0,0,.43-.93Z"/><path class="cls-117" d="M23.18,27c.39.58-.09.82-.29,1.17s-.26.27-.43.08a.49.49,0,0,1,0-.64C22.67,27.38,22.87,27.08,23.18,27Z"/><path class="cls-118" d="M26.89,19.52c.56,0,.57.43.44.94-.42-.34-1,0-1.37-.59.31.06.66.36.88-.2A.12.12,0,0,1,26.89,19.52Z"/><path class="cls-119" d="M26.28,3.15c-.37-.06-.5-.42-.65-.76A.81.81,0,0,1,26.27,2a.26.26,0,0,1,.33,0A1.35,1.35,0,0,1,26.28,3.15Z"/><path class="cls-120" d="M25.82,15.56l-.33-.17c-.17-.28,0-.44.15-.59a1.33,1.33,0,0,1,.8-.15C26.28,15,26.16,15.39,25.82,15.56Z"/><path class="cls-118" d="M27.48,20.65c.36-.09.73.28,1.09,0h.3c.19.05.49-.09.46.38H28.25a1.14,1.14,0,0,1-.77-.19A1.08,1.08,0,0,0,27.48,20.65Z"/><path class="cls-50" d="M16.26,13.69l-.46.52c-.05.28-.24.38-.41.52a.58.58,0,0,1-.9-.06l0-.05Z"/><path class="cls-121" d="M25.64,14.8l-.15.59c-.33.23-.54.13-.6-.34A1.1,1.1,0,0,1,25.64,14.8Z"/><path class="cls-122" d="M29.94,26.08A1.83,1.83,0,0,1,30.11,25a1.2,1.2,0,0,1,.32.69C30.39,26,30.25,26.2,29.94,26.08Z"/><path class="cls-96" d="M29.33,21l-.46-.38c.17-.22.41-.09.61-.18.11.1.3.2.25.41S29.47,21,29.33,21Z"/><path class="cls-64" d="M26.57,2l-.3,0a1.53,1.53,0,0,1,1.07-.39c.22,0,.44,0,.6.25-.11.24-.27.35-.49.31h-.23C27,2.12,26.76,2.24,26.57,2Z"/><path class="cls-123" d="M22.43,27.61c0,.35.06.67.46.56-.37.41-.44.38-.76-.35Z"/><path class="cls-124" d="M4.19,5c.22.69,1,.8,1.13,1.59a5.27,5.27,0,0,1,.24.85,24.64,24.64,0,0,1-.29,3,8.21,8.21,0,0,0,.18,1.78,1.24,1.24,0,0,1-.2,1.26l-.45-.38c-.52-.26-.45-.88-.56-1.39-.06-.19-.13-.38-.18-.58a6.47,6.47,0,0,1-.11-3A5.54,5.54,0,0,0,3.86,5.9C3.87,5.56,3.87,5.2,4.19,5Z"/><path class="cls-125" d="M10.17,25.17l.15-.78c.39-.1.35.32.44.56s.16.55.46.29c.1-.2.15-.51.35-.57.6-.17.75-.81,1-1.37.4-1.41,1.4-2.31,2-3.51.34-.42.8-.39,1.22-.51.27-.08.59-.12.71.3s-.13.63-.4.77a3.09,3.09,0,0,0-1.63,2c-.89,1.59-2.07,2.91-2.83,4.61-.16.35-.53.36-.73.65h0c-.64.18-.81,0-.84-.73C10.06,26.3,10.4,25.75,10.17,25.17Z"/><path class="cls-126" d="M4.33-.79A7,7,0,0,1,6,2.32c.06.22.18.4.4.33s.32-.49.37-.82L7.41,5c0,.56.09,1.12.13,1.68A2.47,2.47,0,0,1,6.43,4.81a1.21,1.21,0,0,0-.32-1,.72.72,0,0,1-.24-.46C5.88,2,5.06,1.13,4.53.1A1.71,1.71,0,0,1,4.33-.79Z"/><path class="cls-127" d="M19.6-1.19A1.51,1.51,0,0,1,19.06.2a5.08,5.08,0,0,0-1.53,3c0,.25-.1.42-.31.42s-.29-.15-.28-.35a7.22,7.22,0,0,1,.15-2.7A8.16,8.16,0,0,1,19.6-1.19Z"/><path class="cls-128" d="M7.86,27a3.23,3.23,0,0,1,.61-1.69L8.8,25a.43.43,0,0,1,.17.16l1.15,1.24c.12,1,.13,1.91-.78,2.47-.7.42-.91.38-1.24-.47A5,5,0,0,1,7.86,27Z"/><path class="cls-129" d="M13.8,6.39c.47,1,.4,1.36-.45,1.85-.6.35-.83,1.14-1.34,1.61s-.7.47-.84-.2-.25-1.52-.35-2.28a.65.65,0,0,1,.25-.63.85.85,0,0,1,.44.83c0,.36.12.85.6.5S13.07,6.69,13.8,6.39Z"/><path class="cls-130" d="M13.94,9c.3-.25.36,0,.35.28a11.73,11.73,0,0,1-.14,2.58,2.19,2.19,0,0,1-1,1.1.48.48,0,0,1-.66-.24,3.16,3.16,0,0,1-.08-2.42c.28-.23.45-.62.78-.76C13.69,9.77,13.89,9.51,13.94,9Z"/><path class="cls-131" d="M16.27,2.61l0,.39c.05,1.22-.64,2-1.11,3-.1.21-.24.42-.47.35s-.39-.38-.41-.71A4.44,4.44,0,0,1,15.24,2l.45-.39C16.11,1.75,15.89,2.46,16.27,2.61Z"/><path class="cls-132" d="M7.86,27a3.45,3.45,0,0,1,.14.34c.17.52.13,1.27.76,1.33S9.92,27.74,10,27c0-.24,0-.49,0-.74a.12.12,0,0,1,0-.17,2.24,2.24,0,0,0,.14-.93,3.73,3.73,0,0,1,.14,1.56c0,.5.16.84.62.87L9.55,29.48c-1.2.52-1.18.51-1.61-1A2.49,2.49,0,0,1,7.86,27Z"/><path class="cls-133" d="M10,3.35,10.3,3c.37.07.49.42.53.8s.06.56.31.68a.59.59,0,0,0,.58-.51,13,13,0,0,1,.86-2.26c.11-.27.05-.67.38-.79a3,3,0,0,1-.27,3,12.93,12.93,0,0,1-1.51,2c-.35.36-.46.41-.7-.13A10,10,0,0,1,10,3.35Z"/><path class="cls-134" d="M15.24,2a7.18,7.18,0,0,0-.77,3.15c0,.27-.07.64.18.76s.34-.27.42-.49c.34-.88,1.16-1.39,1.23-2.46a4.82,4.82,0,0,1-1.25,3.64c-.34.47-.64.51-.75-.24a11.19,11.19,0,0,1-.23-1.93A2.84,2.84,0,0,1,15.24,2Z"/><path class="cls-135" d="M10.16,7.67c.36.27.24.75.34,1.14.3,1.29-.53,1.84-1.12,2.51-.26.31-.56.09-.72-.32s-.12-.79-.25-1.16A3.11,3.11,0,0,1,10.16,7.67Z"/><path class="cls-136" d="M12,5.73l1.1-1.23c.47-.53.43,0,.46.34a2.84,2.84,0,0,1-1,2.88.7.7,0,0,1-.79.15c-.37-.31-.27-.73-.14-1.13S11.86,6.06,12,5.73Z"/><path class="cls-137" d="M8.3,1.13c.17.74.65,1.31.77,2.07-.35.19-.35.58-.36,1a14.82,14.82,0,0,1-.22,3.05c-.08.32,0,.6.34.43.2-.09.4-.17.53.14,0,.9-.64,1.2-1.08,1.67-.22.23-.5,0-.49-.4a3.39,3.39,0,0,1,.07-1.19V7.67a15.86,15.86,0,0,0-.15-5.41C7.5,1.39,7.71,1.06,8.3,1.13Z"/><path class="cls-3" d="M12.31,19.89l.61-.38c.76-.17.87,0,.85,1a.73.73,0,0,1-.33.65,6.84,6.84,0,0,0-1.2,1.09c-.31.28-.6.7-1,.28-.45-.64.31-.72.34-1.14-.27-.73.2-1.17.47-1.68Z"/><path class="cls-138" d="M4.79,13.68a3.37,3.37,0,0,1,.1.34c0,.39.2.88-.1,1.12s-.43-.3-.67-.44a3.51,3.51,0,0,1-.4-.27c-.55-1.09-1.4-1.94-1.69-3.24.11-.35.18-.75.59-.79C3.16,11.67,4.27,12.38,4.79,13.68Z"/><path class="cls-139" d="M9.28,3.71l.28.58.3,1.12A4,4,0,0,1,8.75,7.89c-.31.15-.43-.11-.42-.43,0-1.21.3-2.38.34-3.6C8.69,3.41,9,3.39,9.28,3.71Z"/><path class="cls-48" d="M12,19.71a3.29,3.29,0,0,1-.47,1.68,2.42,2.42,0,0,0-.4.25c-1,.93-1.11.94-1.21-.58,0-.88-.52-1.81.06-2.68.36.24.22.72.32,1.08.24.8.29.83.86.32a1.39,1.39,0,0,0,.42-.79c0-.23,0-.52.28-.6A3.65,3.65,0,0,1,12,19.71Z"/><path class="cls-124" d="M2.19,11.24c.38,1.16,1.27,1.95,1.53,3.19v.38a19.87,19.87,0,0,1-2.14-4,4.09,4.09,0,0,1-.28-1A4.7,4.7,0,0,0,.76,7.54,1,1,0,0,1,.81,6.35c.53.14.48.82.68,1.23A7.13,7.13,0,0,1,2.19,11.24Z"/><path class="cls-140" d="M6.8,10.12l.28.75A4.8,4.8,0,0,0,7,12.72c0,.67.51.18.76.32l.13.27c.2,1.26-.57,2.36-1.56,2.24A1.1,1.1,0,0,1,6,14.66a29.71,29.71,0,0,1,.17-3.89C6.15,10.33,6.28,9.88,6.8,10.12Z"/><path class="cls-141" d="M10.79,10.1a1,1,0,0,1-.14,1.18l-1.6,2c-.3.36-.51.37-.63-.18-.19-.92-.65-1.79-.27-2.78a.2.2,0,0,1,.19-.08c.31.17.27.57.37.87s.3.65.66.35C9.81,10.93,10.17,10.31,10.79,10.1Z"/><path class="cls-142" d="M5.25,13.5A5.22,5.22,0,0,0,5,11.35a1.14,1.14,0,0,1,0-1c.66.42.7,1.18.69,2a16.16,16.16,0,0,0,.42,3.25,1,1,0,0,0,.09.22c.17.22.35.11.53,0,.63-.38,1-1.16,1.49-1.68a.92.92,0,0,1,0,1,11.73,11.73,0,0,1-1.82,2.23c-.37.39-.62,0-.69-.46a7.35,7.35,0,0,1-.25-2.39A1.64,1.64,0,0,0,5.25,13.5Z"/><path class="cls-143" d="M7.13,17.06c.27-.61.8-.94,1.14-1.49.19-.3.36-.15.42.16.1.51.17,1,.25,1.56s.14.74-.23.95C7.66,18.34,7.49,18.21,7.13,17.06Z"/><path class="cls-144" d="M8.3,1.13c-.5.15-.48.6-.36,1,.53,1.85.16,3.67-.07,5.5V5.79a8,8,0,0,0-.2-2.48,6.54,6.54,0,0,1-.12-3c0-.18,0-.42.22-.46s.24.25.29.44S8.22.83,8.3,1.13Z"/><path class="cls-145" d="M4.79,13.68a1,1,0,0,1-1-.88.8.8,0,0,0-.38-.55,1.79,1.79,0,0,1-.81-1.75.45.45,0,0,1,.25-.66c.25,0,.34.24.39.47A1.93,1.93,0,0,0,4.5,11.59a4.63,4.63,0,0,1,.3,1.53C4.8,13.31,4.79,13.49,4.79,13.68Z"/><path class="cls-146" d="M8.3,10.3H8.15c-.54-.11-.45-.64-.44-1.08a3,3,0,0,1,.15-1.36c.08.43-.19,1.08.17,1.28s.45-.54.74-.76a1,1,0,0,0,.47-.68c-.07-.81.48-1.19.8-1.73a1.42,1.42,0,0,1,0,1.16c-.09.24-.1.42.12.54L8.62,9.72C8.54,9.93,8.62,10.28,8.3,10.3Z"/><path class="cls-147" d="M10,6a4.66,4.66,0,0,1-.8,1.73l-1,.83a1.51,1.51,0,0,1-.07-1c.1-1.31.21-2.61.34-3.91,0-.34,0-1,.54-.46l.21.51c-.23-.06-.42,0-.45.32-.12,1.07-.24,2.14-.34,3.21a2.91,2.91,0,0,0,.13.67C9,6.9,9.7,6.37,9.86,5.41Z"/><path class="cls-148" d="M9.38,19.34l.06,1c.07.3,0,.62.06.93A1.07,1.07,0,0,1,9,22.48c-.46.24-.75-.21-1-.59a1.89,1.89,0,0,1-.2-1.16,1.18,1.18,0,0,1,.32-.66C8.51,19.76,8.71,18.93,9.38,19.34Z"/><path class="cls-149" d="M11.87,18.39a2.22,2.22,0,0,1-.82,2c-.29.18-.42.59-.63.94a14.19,14.19,0,0,1-.43-3l.31-.23a.33.33,0,0,1,.2.11c.48.66.48.66.79-.19.08-.31.1-.68.45-.76Z"/><path class="cls-150" d="M11.2,22.53l.92-.59c.21-.06.39-.4.62-.19s0,.56,0,.84c-.09.51-.3,1-.39,1.49a1.36,1.36,0,0,1-.59.53c-.63.3-.78.22-.87-.61,0-.32-.27-.61-.08-.95Z"/><path class="cls-151" d="M7.73,13c-.32.4-.6,1.18-1.08,1s0-.94-.11-1.44.26-1.11.19-1.74c0-.23.22,0,.35,0A14.31,14.31,0,0,1,7.73,13Z"/><path class="cls-128" d="M7.86,24.59c-.61-.57-.65-1.49-1-2.26-.09-.22.08-.4.19-.56a.34.34,0,0,1,.19-.11c.45.16.55.67.74,1.09.41,1,.47,1,1.1.28.18-.21.33-.39.57-.15A2,2,0,0,1,7.86,24.59Z"/><path class="cls-152" d="M16.11,10.09c0,.94-.56,1.54-.89,2.29a.46.46,0,0,1-.33-.53A17.09,17.09,0,0,0,14.8,8.9a1.29,1.29,0,0,1,.29-1c.32.53.39,1.2.67,1.76A1,1,0,0,0,16.11,10.09Z"/><path class="cls-153" d="M11.57,12.75l.14.56a3.28,3.28,0,0,1,.06,1c0,.16,0,.37-.15.41-.73.32-.9,1.16-1.21,1.88a.44.44,0,0,1-.24.11.54.54,0,0,1-.51-.64A5,5,0,0,1,10.05,14,6.32,6.32,0,0,1,11.57,12.75Z"/><path class="cls-154" d="M14.11,12.35a2.89,2.89,0,0,1-1.57,2.15c-.35.08-.38-.24-.38-.51a7.16,7.16,0,0,0-.33-2.45c-.16-.49.11-.75.32-1,.1.59.26,1.16.32,1.77s.31.86.85.54C13.58,12.65,13.78,12.33,14.11,12.35Z"/><path class="cls-155" d="M6.8,10.12a.4.4,0,0,0-.37.4,18.35,18.35,0,0,0-.2,4.38,1.29,1.29,0,0,0,.23.47c-.31.33-.48.33-.56-.09s-.1-.71-.17-1.06c-.26-1.53.1-3.07-.09-4.6,0-.43,0-.82.52-.76.14.24.2.56.44.7Z"/><path class="cls-156" d="M8.3,10.3l.32-.57c.26.4,0,1.29.51,1.31s.78-.7,1.1-1.17a2.35,2.35,0,0,0,.27-1.06l.15.7c0,.58.06,1.15-.55,1.38-.34.13-.25.72-.56.92-.74.73-.8.7-1-.44C8.48,11,8.38,10.66,8.3,10.3Z"/><path class="cls-157" d="M8.05,20.61a5.23,5.23,0,0,0,0,.56c0,.59.39.95.8.95s.53-.5.55-1c0-.28,0-.56,0-.84l.14.91c.09,1.3-.09,1.83-.73,2.18-.41.23-.75.18-.9-.4-.18-.73-.77-1.39-.27-2.24C7.78,20.64,7.89,20.55,8.05,20.61Z"/><path class="cls-158" d="M5.87,14.26c.3.29-.13,1.16.59,1.11.65-.49,1.45-.85,1.4-2.06l.31.75c-.1,1-.78,1.43-1.24,2.07-.37.07-.82.77-1.06-.19v-.18A2.27,2.27,0,0,1,5.87,14.26Z"/><path class="cls-159" d="M17.09.55c0,.77,0,1.54,0,2.31,0,.42,0,.82.47.32s.72-1.09,1.16-1.54c.12,0,.19-.3.36-.17A17.53,17.53,0,0,1,17.45,4c-.15.26-.38.31-.57,0A6.72,6.72,0,0,1,17.09.55Z"/><path class="cls-160" d="M10.32,14a5.38,5.38,0,0,0-.39,1.75.61.61,0,0,0,.31.73c.24.4,0,.57-.25.66s-.41-.17-.43-.47c-.06-.8-.18-1.58-.21-2.37a7.07,7.07,0,0,1,.53-1.19l1.19-1.26c.3.36.09.66-.07,1S10.51,13.61,10.32,14Z"/><path class="cls-161" d="M12,5.73a14.4,14.4,0,0,1-.16,2c.22.12.47.21.49.58-.13.38-.31.81-.67.74s-.25-.6-.33-.94-.17-.89-.25-1.34Z"/><path class="cls-162" d="M14.11,12.35l-1.58,1.52c-.12-1.19-.36-2.26-.38-3.38a.38.38,0,0,1,.29-.24,3.39,3.39,0,0,0,.06,1.27c.29,1.37.4,1.42,1.32.49a1.61,1.61,0,0,1,.33-.2Z"/><path class="cls-163" d="M10.78,23.05a5.72,5.72,0,0,1,.24.57c.32,1,.32,1,1.12.4.23-.31.1-1,.65-.95a.45.45,0,0,1,0,.39c-.19.57-.39,1.14-.93,1.37-.24.11-.28.41-.33.68-.29.27-.52.17-.69-.2a2.6,2.6,0,0,1-.21-2.2Z"/><path class="cls-164" d="M13.22,15.21l1.22-.41c.47,0,.56.3.4.76a1.16,1.16,0,0,1-.49.68,3.83,3.83,0,0,0-.51.39.52.52,0,0,1-.88,0,.75.75,0,0,1,0-1Z"/><path class="cls-165" d="M7.85,20.82a2.69,2.69,0,0,0,.23,2.05c.19.51.76.45,1.15-.05a2.72,2.72,0,0,0,.35-1.59,4.81,4.81,0,0,1,.11,1.65,2.61,2.61,0,0,0-.24.23c-.92,1.05-1.23,1-1.75-.36-.13-.34-.3-.65-.45-1C7.08,21.11,7.29,20.8,7.85,20.82Z"/><path class="cls-166" d="M18.93,2.81A9.12,9.12,0,0,1,21.2.49a.53.53,0,0,1,.21.37c0,.1,0,.21,0,.31a7.82,7.82,0,0,1-2.16,2.05C19,3.29,19,3.29,18.93,2.81Z"/><path class="cls-167" d="M18.29,6.54l-.15.37a.61.61,0,0,1-.16.16c-.57-.19-.65.34-.78.79a4,4,0,0,1-.78,1.49l-.15.19a.15.15,0,0,1-.22,0c-.29-.59,0-1.11.12-1.66a3.41,3.41,0,0,0,.09-1.15l1.57-.92A1.7,1.7,0,0,1,18.29,6.54Z"/><path class="cls-168" d="M11.66,14.41l.05-1.1A4.24,4.24,0,0,1,10,17.83c-.35.21-.46,0-.49-.38a1.15,1.15,0,0,0,.83-.81.86.86,0,0,1,.06-.23c.12-.39.36-.69.47-1.08S11.53,14.86,11.66,14.41Z"/><path class="cls-169" d="M6.48,18c.07-.31.16-.62.46-.71.06.11,0-.05.06.06.53,1.27.54,1.27,1.74.77.16-.06.29-.1.4.09a2,2,0,0,1-.76,1.37l-.14.06C6.91,20.34,6.34,19.81,6.48,18Z"/><path class="cls-170" d="M10.32,14c-.16-.93.49-1.44.75-2.15.57-.07.41.5.5.85C11.5,13.68,10.81,13.72,10.32,14Z"/><path class="cls-171" d="M10.47,16.51c-.1.62-.25,1.17-.92.94a24.24,24.24,0,0,1-.39-2.93.81.81,0,0,1,.18-.67c.2,0,.11.31.22.42l.15,2.13c0,.18,0,.42.16.48s.3-.15.37-.36l.06,0C10.36,16.43,10.42,16.44,10.47,16.51Z"/><path class="cls-172" d="M18.93,2.81c.34.39.72,0,.88-.13.46-.54,1.08-.87,1.39-1.58a.56.56,0,0,1,0,.73c-.76.46-1.2,1.43-2,1.79-.29.13-.52.21-.75-.09Z"/><path class="cls-173" d="M16.13,9.54h.14c-.05.18-.1.37-.16.55l-.54.62c.19-1.05-.64-1.82-.48-2.83l.42-.44A2.8,2.8,0,0,1,16,8.87,1.37,1.37,0,0,0,16.13,9.54Z"/><path class="cls-174" d="M14.11,17.43c-.47,0-.53.6-.87.8s-.5.37-.63-.07a3.26,3.26,0,0,1-.16-2.22l.19-.14c.16.2.16.5.31.72s.35.53.68.26.46-.17.62.17A.41.41,0,0,1,14.11,17.43Z"/><path class="cls-175" d="M21.22.92l0-.43A4.43,4.43,0,0,1,22.43-.79a2,2,0,0,0,.15,1c.11.24.3.46.21.78C22.26,1.33,21.73,1.51,21.22.92Z"/><path class="cls-176" d="M11.67,18.39a.13.13,0,0,1,0,.09c-.27.42-.49,1.14-.94,1s-.29-.88-.41-1.35l.63-.65C11.32,17.63,11.31,18.24,11.67,18.39Z"/><path class="cls-177" d="M19.05,1.47l-.36.17a13.23,13.23,0,0,1,2.35-3v.57Z"/><path class="cls-178" d="M12.32,8.28c-.35.05-.36-.35-.49-.58,1.15-.24,1.56-.92,1.72-2.86.22.48,0,1.07.25,1.55A7.94,7.94,0,0,1,12.32,8.28Z"/><path class="cls-179" d="M14.15,16.88h-.08c-1.17.53-1.19.52-1.43-1.08l.31-.22c.09,1.06.22,1.13.93.57a2.35,2.35,0,0,1,.42-.21.76.76,0,0,1,.14.76.58.58,0,0,1-.18.17Z"/><path class="cls-180" d="M6.48,18s0,0,0,.08c.53,1.63.52,1.63,1.79,1.22a.44.44,0,0,1,0,.51.77.77,0,0,1-.18.18c-1,.79-1.21.77-1.87-.18a.9.9,0,0,1-.12-.24,4.31,4.31,0,0,1,0-1.19Z"/><path class="cls-181" d="M12.45,15.94c.09.61.17,1.22.26,1.83.06.36.21.57.53.46-.08.29-.19.6-.47.62s-.29-.42-.41-.65l-.2-.38C12.22,17.18,12,16.47,12.45,15.94Z"/><path class="cls-182" d="M9.05,18.17a8.18,8.18,0,0,1-.91.67C7.34,19.3,7,19.05,7,18c0-.22,0-.44,0-.66l.15-.05a.52.52,0,0,1,.27.31c.26.84.73.8,1.27.45a1,1,0,0,0,.31-.72l.16.35C9.17,17.83,9.23,18,9.05,18.17Z"/><path class="cls-183" d="M10.63,23.11c0,1-.07,2,.9,2.4-.16.32-.36.68-.69.6s-.18-.57-.28-.86-.16-.57-.24-.86C10.34,23.93,10.27,23.44,10.63,23.11Z"/><path class="cls-184" d="M13.94,9c.59,1.08-.47,1.24-.65,2.11a3,3,0,0,1-.07-1.57A2.07,2.07,0,0,1,13.94,9Z"/><path class="cls-185" d="M13,.88a2.57,2.57,0,0,1-.17,1c-.24,0-.36-.23-.53-.38L12,1.27a.86.86,0,0,1-.19-.59l.25-.46c.34-.6.62-.53.84.12Z"/><path class="cls-186" d="M10,26.1a.47.47,0,0,0,0,.17c-.16.22-.07.74-.51.63a.71.71,0,0,1-.56-.75c0-.39-.09-.79-.13-1.18l.28-.19c.31.31.41.91.89,1Z"/><path class="cls-187" d="M16.13,9.54c-.55-.06-.39-.66-.49-1a7.45,7.45,0,0,1-.13-1.07l.33-.35c.35.07.36.55.59.75Z"/><path class="cls-188" d="M18.29,6.54c-.38,0-.69-.14-.46-.74l1.55-.74c.1,0,.3,0,.28.17s-.18.27-.28.4a3.92,3.92,0,0,0-1.09.91Z"/><path class="cls-189" d="M11.67,18.39c-.8.4-.74-.28-.74-.89.15-.16.28-.34.44-.49.32-.28.37,0,.37.3S11.7,18,11.67,18.39Z"/><path class="cls-190" d="M9.05,18.17l0-.53c.32.5-.13,1.21.28,1.7-.55-.06-.64.71-1.07.88-.17-.12-.17-.31-.14-.52l.14-.39C8.49,18.86,9,18.74,9.05,18.17Z"/><path class="cls-191" d="M8.63,18c-.89,1-1.11.85-1.54-.76l0-.19C7.56,17.54,8,18.08,8.63,18Z"/><path class="cls-192" d="M16.27,2.61c-1,.45-.35-.68-.58-1,.17-.21.4-.52.62-.4s0,.53,0,.81S16.28,2.42,16.27,2.61Z"/><path class="cls-193" d="M16.43,7.84c-.77.43-.46-.42-.59-.75l.42-.37C16.93,7,16.52,7.44,16.43,7.84Z"/><path class="cls-194" d="M9.39,24.4c.1-.21.25-.47.45-.29s.15.71.13,1.09-.11.49-.38.41-.32-.26-.34-.52A1.34,1.34,0,0,1,9.39,24.4Z"/><path class="cls-195" d="M9.39,24.4c.11.35-.26,1.23.58.8v.57c-.61.41-.82.17-.89-1A.6.6,0,0,1,9.39,24.4Z"/><path class="cls-196" d="M9.54,11.81c.13-.94,1.11-1.27,1.11-2.3l.14.59C10.61,10.94,9.94,11.22,9.54,11.81Z"/><path class="cls-197" d="M9.56,14.27l-.22-.42a1.32,1.32,0,0,1,.54-.7A2.6,2.6,0,0,1,9.56,14.27Z"/><path class="cls-190" d="M6.17,18.39a2.71,2.71,0,0,1,.3,1.13c-.62,0-.56-.44-.45-.94a1.09,1.09,0,0,1,0-.18Z"/><path class="cls-198" d="M5.57,21.39a6.92,6.92,0,0,1-1.11,3c-.27.47-.44.15-.54-.15a9,9,0,0,1-.56-5.14,2.7,2.7,0,0,0-.13-1.8c-.34-.76-.22-1.65-.5-2.43A.36.36,0,0,1,3,14.44,16.66,16.66,0,0,1,4.8,19c-1,.63-1,1.69-.84,2.82,0,.26.08.63.33.66s.3-.3.37-.53c.12-.44.3-.78.71-.84Z"/><path class="cls-199" d="M4.5,11.59c-.37.24-1.13-.23-1.36-.86A6.67,6.67,0,0,1,3,9.93,29.38,29.38,0,0,1,1.16,7a.7.7,0,0,1,0-.78l.62-.35c.26.33.65.32.93.59A3.79,3.79,0,0,1,4,8.11a1.06,1.06,0,0,1,0,.25c-.25,1-.47,2,.3,2.87Z"/><path class="cls-200" d="M1.12,6.17A9.42,9.42,0,0,0,2.39,8.24,2.63,2.63,0,0,1,3,9.93l-.31.57-.45.74C1.58,9.68,1.38,7.93.81,6.35Z"/><path class="cls-201" d="M4.49,25.91l.6-1.14c.34.08.56-.07.73-.46s.26-.76.65-.83l.48.73a1.27,1.27,0,0,1-.19,1.13,15.42,15.42,0,0,1-1.32,2.28c-.31.46-.61.42-.78-.18A2.24,2.24,0,0,1,4.49,25.91Z"/><path class="cls-202" d="M2.8,4.1c-.5.41-1,.85-1.51,1.24-.21.16-.54.29-.66-.1A18.07,18.07,0,0,0-.83,2.66c-.31-.64-.28-.94.25-1.2C.33,1.83.6,2.9,1,3.76c.23.49.39.55.74.39S2.43,3.47,2.8,4.1Z"/><path class="cls-203" d="M5.37,21.06a11.14,11.14,0,0,0-.86,2.07c-.07.16-.09.39-.29.38s-.26-.21-.28-.39c-.17-1.31-.57-2.62.06-3.93.23-.49.43-.69.8-.24l.15.57a7.67,7.67,0,0,0-.46,1.24c.28-.24.47-.51.74-.31Z"/><path class="cls-204" d="M2.6.35c.45.27.48.93.81,1.31a.94.94,0,0,1-.2,1.15,3.16,3.16,0,0,0-1.27.49c-.23.22-.47,0-.67-.18A4.3,4.3,0,0,1,.78,1.59,1.28,1.28,0,0,1,1.24.38L1.72.11C2,.27,1.93.6,2,1A2,2,0,0,1,2.6.35Z"/><path class="cls-205" d="M4.49,25.91c0,.56.36.95.47,1.46.06.29.27.35.39.09.51-1.1,1.41-1.91,1.6-3.25l.16.37A5.62,5.62,0,0,1,6.1,27a4.42,4.42,0,0,0-.75,1.39c-.13.5-.43.55-.65.08A2.46,2.46,0,0,1,4.49,25.91Z"/><path class="cls-206" d="M6.16,8.86l-.29.7A16,16,0,0,1,5.72,12c0,.2,0,.45-.3.41A5.36,5.36,0,0,0,5,10.3a5.22,5.22,0,0,1,.61-2.82A5.34,5.34,0,0,1,6.16,8.86Z"/><path class="cls-207" d="M7.56,29.1c-.33.37-.67.74-1,1.12-.58.67-.67.63-.89-.32,0-.15-.09-.29-.13-.43a3.43,3.43,0,0,1,.91-1.33c.31.14.71-.13,1,.31.09.13,0,.34.14.46A1.21,1.21,0,0,1,7.56,29.1Z"/><path class="cls-208" d="M.5,12.23.69,12c.34,0,.38.29.43.6a4.45,4.45,0,0,0,.44,1.45l0,.3a2.36,2.36,0,0,1,.11.44c.12.35.25.73-.06,1s-.62.11-.89-.14A4.75,4.75,0,0,1,.4,13.93C.36,13.36.15,12.77.5,12.23Z"/><path class="cls-209" d="M1.72,4.47c-.48.43-.81.46-.93-.42a3.53,3.53,0,0,0-1-1.84,1.23,1.23,0,0,1-.4-.75A5.26,5.26,0,0,1,.8.68a3.47,3.47,0,0,0,.83,2.93,1.4,1.4,0,0,1,.22.48A.49.49,0,0,1,1.72,4.47Z"/><path class="cls-210" d="M4.2,6A4.75,4.75,0,0,1,4.17,8c-.07.12-.12.3-.29.19h0c-.12-.27,0-.71-.47-.71-.19,0-.33-.19-.35-.43,0-.44-.17-.54-.55-.46C2,6.76,1.87,6.57,2,5.77l1.56-.89a.61.61,0,0,1,.21.56C3.79,5.77,3.89,6,4.2,6Z"/><path class="cls-211" d="M-1.65,10.67c-.14-.62.6-1,.29-1.67.15-.72.62-.66,1.07-.67a.64.64,0,0,1,.2,0c.17.05.3.2.48.2l.43,1c.11.55.23,1.1-.48,1.11h0l-.15,0c-.28-.12-.16-.59-.43-.7s-.16.18-.21.31C-.75,10.86-1.09,11.26-1.65,10.67Z"/><path class="cls-124" d="M6,18.58a1.55,1.55,0,0,0,.45.94h0c.17,1.15.53,1.32,1.28.58.14-.13.27-.27.42-.4h0c.24.09.16.32.14.52L8,20.61l-.19.21a1.81,1.81,0,0,0-.6.95H7.09A5.06,5.06,0,0,1,6,20.3,1.62,1.62,0,0,1,6,18.58Z"/><path class="cls-212" d="M1.72,4.47V4.09c-.08-.83.49-1,.91-1.28.14-.1.34,0,.47-.22a1.49,1.49,0,0,0,.31-.93C4.08,3,4,3.42,2.8,4.1,2.4,4,2.08,4.35,1.72,4.47Z"/><path class="cls-213" d="M6.47,23.48c0,.66-.44,1.15-.55,1.79,0,.23-.25.47-.45.41-.37-.1-.24-.6-.38-.91l.72-1.5C6.12,22.91,6.3,23.18,6.47,23.48Z"/><path class="cls-214" d="M5.23,20.45c-.36.32-.38.85-.52,1.31a.69.69,0,0,1-.21.35c-.1.07-.17-.08-.22-.19A1.74,1.74,0,0,1,5,19.52,1.55,1.55,0,0,1,5.23,20.45Z"/><path class="cls-215" d="M2.6.35c0,.55-.34.87-.46,1.33-.05.19-.16.43-.39.32a.66.66,0,0,1-.29-.49C1.34,1,1.62.57,1.72.11,2.15-.53,2.44-.41,2.6.35Z"/><path class="cls-216" d="M1.42,3.92C.38,2.4.2,2,.8.68c.12-.17.25-.31.44-.31-.46.56-.16,1.17-.05,1.75A3.49,3.49,0,0,1,1.43,3C1.58,3.3,1.7,3.61,1.42,3.92Z"/><path class="cls-217" d="M4.2,6c-.12.3-.06.93-.47.74S3.24,6,3.31,5.43a2,2,0,0,1,.27-.55c.25-.22.47-.29.61.16Z"/><path class="cls-218" d="M2,5.77c.06.55.15,1,.69.43.11-.12.32-.07.32,0,0,.85.85,1.15.85,2-.16-.24-.26-.55-.58-.52s-.41,0-.4-.31c0-.51-.14-.6-.53-.6s-.61-.46-.63-1Z"/><path class="cls-219" d="M-.74,7.6c.24-.16.38-.75.78-.3A4.78,4.78,0,0,1,.21,8.38c0,.32-.11.37-.32.23h0c-.1-.12-.23-.08-.35-.1S-1,8.51-1,8.19-.81,7.82-.74,7.6Z"/><path class="cls-22" d="M7.55,28.91l-.15-.37c-.51-.38-.13-1-.28-1.49l-.07,0c.41-.27.48.07.5.43S7.55,28.43,7.55,28.91Z"/><path class="cls-220" d="M-.11,8.61C.22,8.22,0,7.73,0,7.3A4.44,4.44,0,0,1,.39,8.56C.23,8.74.07,8.78-.11,8.61Z"/><path class="cls-42" d="M.34,10.66A1.11,1.11,0,0,0,.82,9.55,2.49,2.49,0,0,1,1,10.67C.75,10.87.54,11,.34,10.66Z"/><path class="cls-125" d="M17.05,23.27c-.81-.12-1.23.73-1.83,1.13a27.37,27.37,0,0,1-2.14,1.76c-.2.19-.43.26-.63,0s-.12-.54.07-.81a17.23,17.23,0,0,1,1.53-2c.25-.23.23-.69.5-.91s.8-.44,1.18-.71.82-.67,1.22-.08A1.44,1.44,0,0,1,17.05,23.27Z"/><path class="cls-221" d="M17.05,23.27,17,22.91c-.29-1.37-.29-1.37-1.29-.76-.3-.69.43-1,.4-1.58.27-.41.71-.36,1-.6s.42-.25.65-.07a1.28,1.28,0,0,1,.27.69l0,.28c.17.94.15.86.88.58a2.11,2.11,0,0,1,1.63-.22,8.48,8.48,0,0,1-3,2.3C17.4,23.65,17.21,23.44,17.05,23.27Z"/><path class="cls-132" d="M14.3,23.46c-.49.63-1,1.26-1.46,1.9-.12.16-.38.34-.17.6s.4.07.54-.1a9,9,0,0,1,2-1.46,1.82,1.82,0,0,1-.56.74A19,19,0,0,0,12.48,27a1.67,1.67,0,0,1-1.55.6,20.18,20.18,0,0,1,2.26-3.8c.34-.54.48-1.24,1-1.65C14.61,22.51,14.07,23.05,14.3,23.46Z"/><path class="cls-222" d="M14.92,30.23l-.78.36c-.23-.63.13-.93.45-1.27s.74-.57,1.07-.94a4.42,4.42,0,0,0,2-1.63c.19-.24.28-.68.67-.49l.32.38a1,1,0,0,1-.22,1.07c-.79.64-1.51,1.4-2.3,2-.41,0-.82,0-1.09.46Z"/><path class="cls-223" d="M18.92,27.21c.55.59.43,1.06-.18,1.42A11.84,11.84,0,0,0,17,29.9a1.69,1.69,0,0,1-1.43.52.48.48,0,0,1,.38-.66,1.78,1.78,0,0,0,1-.85C17.43,28.11,18.29,27.86,18.92,27.21Z"/><path class="cls-224" d="M22.44,23.11c-.05,1.8-.74,2.71-2.06,2.65-.52,0-1.09,0-1.14-1,0-.51-.68-.4-.8-.91.2-.15.37-.34.61-.36a1,1,0,0,0,.28.3l.15.13c.21.16.29.55.61.51a1.37,1.37,0,0,1,.53.32c.38.35.52.1.61-.33a5.7,5.7,0,0,1,1-1.39A.21.21,0,0,1,22.44,23.11Z"/><path class="cls-225" d="M20.73,30.08c-.24.76-1.15.75-1.26,1.64a1.17,1.17,0,0,1-.08-.44c.16-.76.07-1.32-.67-1.46a6.79,6.79,0,0,0,.74-.43C20.17,28.85,20.52,29.28,20.73,30.08Z"/><path class="cls-226" d="M20.6,21.23c-.81.38-1.76.35-2.4,1.25a.35.35,0,0,1-.49.11c-.18-.17-.09-.43,0-.6a1.94,1.94,0,0,0,.1-1.34c.27-.29.5-.06.72.11a1.43,1.43,0,0,0,1.32,0,1.42,1.42,0,0,1,1-.09l.18.18A.89.89,0,0,1,20.6,21.23Z"/><path class="cls-227" d="M19.83,23.09l.91-.6a1.14,1.14,0,0,0,.94-.31c.16-.14.33-.26.51,0a.9.9,0,0,1,.13.77c-.46.75-1.22.95-1.84,1.39-.45.31-.86-.12-1.28-.28h0C19.2,23.5,19.71,23.5,19.83,23.09Z"/><path class="cls-228" d="M18.92,27.21c-.79,1.05-1.89,1.61-2.71,2.63a4.17,4.17,0,0,1-.68.58l-.3.19-.48,0,.17-.36h0c.29-.4.71-.5,1.08-.73a29.45,29.45,0,0,1,2.37-2.12c.21-.14.24-.45.26-.74Z"/><path class="cls-229" d="M18.31,26.26a7.18,7.18,0,0,1-2.47,2.49.67.67,0,0,1,.11-.88,4.3,4.3,0,0,0,1.46-2.06c0-.24-.1-.5.13-.68A1.6,1.6,0,0,1,18.31,26.26Z"/><path class="cls-230" d="M17.54,25.13l.28.58a11,11,0,0,0-1.25,1.59.49.49,0,0,1-.61.21c-.22-.07-.25-.26-.13-.49l1.07-1.87C17.11,25.1,17.31,24.54,17.54,25.13Z"/><path class="cls-231" d="M22.1,22.13c-.38.56-.79.89-1.36.36l.61-.52c.24-.15.47-.35.76-.18A.22.22,0,0,1,22.1,22.13Z"/><path class="cls-232" d="M19.83,23.09a1.26,1.26,0,0,1-.63.94c-.22-.12-.24-.31-.15-.55Z"/><path class="cls-233" d="M3.75,28c0,.5,0,1,0,1.5s-.09,1.21-.6,1.23-.58-.62-.66-1.12a4.8,4.8,0,0,1,0-.66c-.19-.93-.39-1.85-.62-2.77-.11-.47-.22-1,.47-.95A10,10,0,0,1,3.75,28Z"/><path class="cls-234" d="M-.27,19.13-.41,18c.56-.06.68.64,1,.93.25.67.8,1,1.18,1.47.17.61.43,1.18.61,1.78-.2,1,.4,1.35.86,1.84.11.25.24.56,0,.74s-.35-.15-.49-.31a12.3,12.3,0,0,1-1.34-2.12c-.22-1.08-1-1.74-1.37-2.69A3.42,3.42,0,0,0-.27,19.13Z"/><path class="cls-235" d="M.85,15.55c.82.18.83.16.73-1.18a8.69,8.69,0,0,1,.78,3.05c.16.41,0,.84.05,1.28s-.22.48-.51.34a.58.58,0,0,1-.18-.17,6.77,6.77,0,0,1-1-3.16A.29.29,0,0,1,.85,15.55Z"/><path class="cls-236" d="M2.35,25.19c-.41.43-.28.95-.13,1.46a4.55,4.55,0,0,1,.28,2.26l-.29-.33c-.29-1.91-1.16-3.65-1.1-5.65C1.4,23.78,2.11,24.29,2.35,25.19Z"/><path class="cls-237" d="M2,22.33a7.26,7.26,0,0,1-.47-1.86c0-.48.2-.73.59-.76.18,0,.32.2.51.16.21,1.06.13,2.18.44,3.21-.08.51-.34.37-.54.18A1.47,1.47,0,0,1,2,22.33Z"/><path class="cls-238" d="M2.67,19.87c-.1.29.15.86-.25.87s-.2-.54-.27-.84a.85.85,0,0,1-.36-.5.54.54,0,0,1,.09-.63c.21.09.41.13.36-.28a3.82,3.82,0,0,1,.12-1.07A14.28,14.28,0,0,1,2.67,19.87Z"/><path class="cls-239" d="M7.12,27.05c.49.39.22,1,.28,1.49-.36,0-.79.3-.94-.4Z"/><path class="cls-240" d="M2,22.33c.36.24.54.86,1.07.75a2,2,0,0,1,.16.94A1.6,1.6,0,0,1,2,22.33Z"/><path class="cls-241" d="M12.14,1.06l.34.05c.33,1-.37,1.55-.64,2.3-.26.1-.39.36-.56.6s-.34.27-.48,0a3.46,3.46,0,0,1,0-1.75l.26-.4C11.46,1.69,11.67,1.08,12.14,1.06Z"/><path class="cls-242" d="M10.77,2.21a6.66,6.66,0,0,1,.16,1.89.75.75,0,0,1,0,.87.37.37,0,0,1-.2.11c-.29-.66-.08-1.48-.43-2.12C10.45,2.71,10.61,2.46,10.77,2.21Z"/><path class="cls-243" d="M12.14,1.06c-.19.65-.66.67-1.11.75A5.08,5.08,0,0,1,11.82.68Z"/><path class="cls-244" d="M31.19,4.85c-.38.82-.55,0-.61-.2A6.08,6.08,0,0,0,30,3.24c-.35-.57.28-.83.55-1.18.17,0,.07.27.19.34Z"/><path class="cls-245" d="M30.53.88c-.18.36-.45.31-.73.21s-.43-.18-.29-.56L30.1.48l.47.08C30.64.68,30.65.79,30.53.88Z"/><path class="cls-246" d="M16.15,28c-.1.25-.2.5-.31.75,0,.46-.32.41-.53.51a2,2,0,0,0-1.17,1.33c-.26,0-.52.39-.77,0l2.28-3.21C15.89,27.49,16.21,27.53,16.15,28Z"/><path class="cls-247" d="M16.15,28c-.26-.11-.33-.43-.5-.64l.18-.34c.33.48.51.09.69-.18.35-.53.69-1.05,1.3-1.13A4.1,4.1,0,0,1,16.15,28Z"/><path class="cls-248" d="M1.88,18.77,2,19.3c-.52,1.12-.85,1.09-1.67-.15-.26-.38-.51-.76-.76-1.15a2.9,2.9,0,0,1-.45-1.49c.26-.16.48,0,.58.26.28.71.85,1,1.29,1.5.25.29.66.12.87.48Z"/><path class="cls-249" d="M-.9,16c-.56-1.58-.44-2.2.61-3a.36.36,0,0,1,.11.22A2,2,0,0,0,0,15a1.61,1.61,0,0,1,.22,1.11.6.6,0,0,1-.16.22C-.38,16.73-.67,16.46-.9,16Z"/><path class="cls-250" d="M-.9,16a.79.79,0,0,0,.94.18.19.19,0,0,1,.3.13,1.85,1.85,0,0,0,.8,1.25c.11.33.43.6.2,1s-.35.2-.54.06A6.08,6.08,0,0,1-.86,16.51C-.87,16.32-.89,16.14-.9,16Z"/><path class="cls-251" d="M0,16c-.19-.56-.34-1.14-.57-1.67A.91.91,0,0,1-.3,13.1c.21,0,.31.17.39.41,0-.34-.19-.69.09-1l.32-.32c.05.56.09,1.12.14,1.68-.18.47,0,.92,0,1.39S.49,16.08,0,16Z"/><path class="cls-252" d="M.18,12.55a5.35,5.35,0,0,1,.09,2.23c-.69-.35-.4-1.14-.57-1.68,0-.06,0-.13,0-.2S-.07,12.49.18,12.55Z"/><path class="cls-253" d="M27.37,1.86a.75.75,0,0,1,.57,0L28.42,3a2.38,2.38,0,0,1-.49,1.51c-.42.31-.63-.08-.78-.42A2,2,0,0,1,27,2.41,1.75,1.75,0,0,1,27.37,1.86Z"/><path class="cls-254" d="M29.51.53l.29.56-.16.18c-.22.28-.47.05-.7.08L28.83.9,29,.67Z"/><path class="cls-255" d="M22.73.92,22.58.17c.48.32.94.8,1.52.3.59-.19,1.16-.39,1.31-1.28,0-.21.25-.38.38-.56.1.77-.36,1.28-.6,1.89s-1.46,1.34-2,1.17C22.89,1.59,22.6,1.44,22.73.92Z"/><path class="cls-256" d="M-.41,9.21c.8.07.8.07.6,1.44l-.94.93c-.43.43-.72.27-.9-.33v-.58c.52,0,.86-.28.94-.94C-.51,9.64-.48,9.41-.41,9.21Z"/><path class="cls-257" d="M22.73.92c.27.51.58.73,1.07.33s1-.27,1.39-.73H26a4.3,4.3,0,0,0-1.09.84,1.52,1.52,0,0,1-1.34.57A2.8,2.8,0,0,0,22,2.22l-.75-.39c0-.24,0-.49,0-.73,0-.06,0-.12,0-.18C21.72.85,22.23.52,22.73.92Z"/><path class="cls-258" d="M14.3,23.46c-.51-.36-.19-.86-.15-1.31.56-1.37.56-1.37,2.1-2.4-.46-.18-.46-.18-1.5.34-.35.35-.67.86-1.22.51,0-.54,0-1.05-.61-1.09a13.55,13.55,0,0,1,2-1.94c.25-.15.52-.48.75.06-.27.34-.9.55-.77,1s.71,0,1.09.14h.15a.52.52,0,0,0,.57.07c.28-.07.56-.19.75.18a.75.75,0,0,1-.16.91.45.45,0,0,0-.08.35l-.92.56a17.73,17.73,0,0,1-1.54,1.88Z"/><path class="cls-259" d="M14.11,17.43l0-.55h0a3,3,0,0,1,1.67-1.51c.53-.36.71-1.14,1.22-1.52a1.45,1.45,0,0,1-.6,1.4,1.85,1.85,0,0,0-.57.73A2.54,2.54,0,0,1,14.11,17.43Z"/><path class="cls-260" d="M17.36,16.87a1.67,1.67,0,0,1-1.67.77l1.2-1.33C17.16,16.35,17.18,16.71,17.36,16.87Z"/><path class="cls-261" d="M17.36,16.87a.61.61,0,0,1-.47-.56,4.75,4.75,0,0,1,.78-1.15c.34.62-.28,1-.27,1.55C17.39,16.76,17.37,16.81,17.36,16.87Z"/><path class="cls-262" d="M28,26.64a3.87,3.87,0,0,1,.28,1.52,1.06,1.06,0,0,1-1-1.12,1.15,1.15,0,0,0-.55-.93,8.49,8.49,0,0,1-1.13-.95,1.42,1.42,0,0,1-.22-1.89c.44.36.44,1.19,1,1.42.74.17.91,1.14,1.45,1.59Z"/><path class="cls-263" d="M29.33,28.35l-.15.56c-.14-.26-.4-.52-.39-.78,0-1.54-.63-2.93-.65-4.45a1.48,1.48,0,0,1,.4-1.32l.33.53a4.63,4.63,0,0,0,.19,2.33A5.91,5.91,0,0,1,29.33,28.35Z"/><path class="cls-264" d="M29.33,28.35a41.49,41.49,0,0,0-.76-4.15,1.11,1.11,0,0,1,.3-1.31l.31.56a8.16,8.16,0,0,0,.48,2.75c.13.36,0,.67.05,1a1.65,1.65,0,0,1-.07,1Z"/><path class="cls-265" d="M26.91,22.46c.23.62,0,1.33.28,1.94a.4.4,0,0,1-.09.52c-1.34,0-1.86-1.27-1.15-2.78h0a.29.29,0,0,1,.18-.11C26.45,22,26.57,22.54,26.91,22.46Z"/><path class="cls-266" d="M29.64,27.22c0-.94-.48-1.73-.56-2.64,0-.38-.4-.82.1-1.13l.46.58c-.41.74-.06,1.4.16,2.07.16.38,0,.75,0,1.12C29.73,27.31,29.68,27.32,29.64,27.22Z"/><path class="cls-267" d="M27,24.79l.17-.39.61,1.88c-.33.2-.47-.12-.62-.35a3.13,3.13,0,0,0-.92-1C26.46,24.57,26.79,25,27,24.79Z"/><path class="cls-268" d="M26.91,22.46c0,.12,0,.25,0,.36s0,.47-.27.47-.19-.24-.24-.41-.18-.5-.26-.75.14-.56.46-.35A1.35,1.35,0,0,1,26.91,22.46Z"/><path class="cls-269" d="M26.56,21.78a.52.52,0,0,0-.46.35H26a.4.4,0,0,0-.43-.34l.45-.6Z"/><path class="cls-75" d="M21.66,9.55a5,5,0,0,1-2.71.59c-.68,0-.71-.9-.84-1.55L18.44,8s0,.08,0,.12a2.7,2.7,0,0,1,.42.41c.53.9,1.26.81,2,.59a1.12,1.12,0,0,1,.32,0,1.4,1.4,0,0,1,.43.41Z"/><path class="cls-270" d="M16.42,9.35l.45-1.71A1.17,1.17,0,0,1,18,6.89l.14,0,.15.2-.16.37a1.58,1.58,0,0,0-.76.86A1.73,1.73,0,0,1,16.42,9.35Z"/><path class="cls-271" d="M22.1,22.13v-.34a1.6,1.6,0,0,1,.48,1.1l-.15.22-.16,0a.14.14,0,0,1-.05-.14c0-.05,0-.07,0-.07Z"/><path class="cls-269" d="M27,24.79a1.15,1.15,0,0,1-.76.18,1.79,1.79,0,0,1-.92-1.7A2.27,2.27,0,0,1,26,22.14,2,2,0,0,0,27,24.79Z"/><path class="cls-3" d="M17.22,20.27c-.38-.07-.45-.26-.15-.58.12-.13.25-.27.15-.48s-.26-.15-.41-.13l-1.07.13c.06-.31.3-.28.4-.45a5,5,0,0,0,1.3-.73,3.44,3.44,0,0,1,3-.46c.07,0,.13.17.19.27a.59.59,0,0,1,.08.37,1.31,1.31,0,0,0,.63,1.48c.2.17.47.17.65.4l.78.34c-.41.38-.82.06-1.22,0s-.51-.33-.77,0c-.1.21-.23.15-.37.08a9.38,9.38,0,0,0-.72-.82c-.18-.17-.36,0-.53,0s-.51.39-.79.51a.4.4,0,0,1-.5-.09Z"/><path class="cls-272" d="M24.14,18.59,23,19.66c-.24.09-.47.27-.74.22-.34-.44-.53-1-1.07-1.26a.64.64,0,0,1-.17-1l.62-.42c-.08.93.62,1.16,1,1.67.12.16.3-.11.39-.31Z"/><path class="cls-273" d="M21,17.62c0,.31.12.66.35.77.57.28.68.92.89,1.49-.43-.27-.65-.94-1.22-.94-.75-.18-.82-.29-.63-.93l.16-.17Z"/><path class="cls-274" d="M20.45,20.17l.29.22.14.26c-.7.51-1.54.44-2.28.84-.17.1-.26-.09-.31-.29.15-.19,0-.56.24-.69C19.22,20.78,19.78,20,20.45,20.17Z"/><path class="cls-275" d="M29.29,7.28a1.73,1.73,0,0,0-.11,1.34c.05.45-.18,1,.31,1.29.15.09,0,.39,0,.59a1.32,1.32,0,0,0,.31,1.07,3.29,3.29,0,0,1,.78,2.67c-.34.32-.56.15-.71-.25-.07-.17,0-.43-.12-.53a4.14,4.14,0,0,1-.86-2.79,3.67,3.67,0,0,1-.16-3Z"/><path class="cls-276" d="M26.89,19.52a.88.88,0,0,0-.05.15A2.27,2.27,0,0,1,26,18.15c-.23-.89.12-1.76-.17-2.59.49,0,.57.53.48.86a4.2,4.2,0,0,0,0,1.62c.06.76.32.94.85.55l0,.2C27.1,19,27,19.28,26.89,19.52Z"/><path class="cls-277" d="M28.87,10.67s.13.08.12.11c-.07,1.19.71,1.91,1,2.89a.76.76,0,0,0,.55.57c.21.36.27.9.75.93-.15.81-.62.73-.95.35a2.49,2.49,0,0,1-.73-1.39A2.08,2.08,0,0,0,29,12.71c-.38-.35-.27-.82-.14-1.27C28.86,11.18,28.87,10.93,28.87,10.67Z"/><path class="cls-278" d="M20.29,15.54c-.3,0-.53-.18-.77-.35s-.33-.59-.52-.86-.22-.46,0-.65h.17c.33.4.33,1.19,1,1.25C20.23,14.94,20.26,15.33,20.29,15.54Z"/><path class="cls-279" d="M27.82,7.65a2.09,2.09,0,0,1,.05.55c-.05.24,0,.64-.34.61s-.41-.24-.46-.55.08-.54.36-.59l.38,0Z"/><path class="cls-280" d="M18.58,8a7.1,7.1,0,0,1,2.14-2.06c.63.2.37.81.39,1.29a1.59,1.59,0,0,1-.19,1A1.3,1.3,0,0,1,18.58,8Z"/><path class="cls-281" d="M20.74,8a5.08,5.08,0,0,0,0-2.09l.81-.89c.51,0,.38.63.58.93.22,0,.34.2.4.45,0,.48-.07.87-.56.88s-.61.57-.92.86A.26.26,0,0,1,20.74,8Z"/><path class="cls-282" d="M20.74,8h.31c.59.44.23.73-.11,1-.23,0-.43.24-.67.21-.62,0-1.3.24-1.68-.64l-.13-.55A.32.32,0,0,1,18.58,8,1.68,1.68,0,0,0,20.74,8Z"/><path class="cls-283" d="M29.47,10.5c-.24-.59-.61-1.15-.29-1.88.07,1,.53,1,1.1.68l.3.78c0,.38-.14.7-.49.81A.73.73,0,0,0,29.47,10.5Z"/><path class="cls-284" d="M29.64,27.22h.14a.71.71,0,0,0,.46.39.93.93,0,0,1-.6.59A1.38,1.38,0,0,1,29.64,27.22Z"/><path class="cls-285" d="M21.64,9.52l-.44-.16c0-.79.61-1.12.95-1.66a5.22,5.22,0,0,0,.25-.59C22.62,6,22.63,6,23.64,6l0,.55C22.87,7.43,22.48,8.7,21.64,9.52Z"/><path class="cls-286" d="M28.94,1.35l.7-.08c.64.58.09,1.15,0,1.72C29.42,2.43,29.73,1.54,28.94,1.35Z"/><path class="cls-287" d="M27.93,4.66a1.87,1.87,0,0,1-.58.93,4.76,4.76,0,0,1-1-2.39A.31.31,0,0,1,26.55,3c.29,0,.33.25.43.51C27.17,4.05,27.36,4.62,27.93,4.66Z"/><path class="cls-288" d="M26.57,2l.62-.15a1.48,1.48,0,0,1-.74,1.25l-.06.08-.11-.05A1.57,1.57,0,0,1,26.57,2Z"/><path class="cls-289" d="M23.64,6c-.47.3-1,.48-1.09,1.29-.41-.08-.07-.55-.26-.75L22.11,6a.73.73,0,0,1,.77-.56c.43.46.69.19.9-.31A1.59,1.59,0,0,1,23.64,6Z"/><path class="cls-290" d="M15.83,15.38a3.72,3.72,0,0,1-1.67,1.51l.12-.23c.23-.84.85-1.4,1.06-2.26l.46-.19C16.39,14.57,15.74,15,15.83,15.38Z"/><path class="cls-167" d="M18.29,6.54a1.2,1.2,0,0,1,1.09-.91A2.17,2.17,0,0,1,18.29,6.54Z"/><path class="cls-291" d="M26.45,3.12c.11-.54.57-.76.74-1.25h.18C27,3.35,27.12,4,27.93,4.47a.6.6,0,0,1,0,.19c-.47.31-.67-.14-.92-.48S26.78,3.36,26.45,3.12Z"/><path class="cls-292" d="M20.43,18c-.07.59.5.53.63.93.13.59.74.59.89,1.15-.79.06-1.24-.57-1.65-1.25C20.11,18.53,20.07,18.21,20.43,18Z"/><path class="cls-293" d="M15.34,14.4c.26.75-.22,1.2-.52,1.67a4.89,4.89,0,0,1-.54.59c0-.24,0-.48,0-.72,0-.4.69-.65.14-1.14a.69.69,0,0,1,.05-.13Z"/><path class="cls-218" d="M3.88,8.23,4.17,8a28.27,28.27,0,0,0,.14,3.19c-.58,0-.73-.53-.84-1.09C3.31,9.41,3.13,8.67,3.88,8.23Z"/><path class="cls-294" d="M13.53,20.6l1.22-.51a1.54,1.54,0,0,1-.57,1,18,18,0,0,0-1.39,2.41l0-.38A5.26,5.26,0,0,1,13.21,21Z"/><path class="cls-242" d="M11.72,3.38a7.6,7.6,0,0,0,.76-2.27,1.76,1.76,0,0,1,.31.77A27,27,0,0,1,11.42,5c-.19.26-.43.83-.69,0L10.81,5C11.24,4.57,11.22,3.76,11.72,3.38Z"/><path class="cls-295" d="M13.21,21a3.07,3.07,0,0,1-.45,2.09l-.62.94a4.9,4.9,0,0,1,.37-1.68c.25-.76-.2-.36-.39-.4C12.49,21.64,12.76,21.16,13.21,21Z"/><path class="cls-296" d="M5.42,12.37a3.41,3.41,0,0,0,.23-1.77,1.71,1.71,0,0,1,.22-1c.34,1.1-.09,2.21,0,3.31,0,.46,0,.93,0,1.39v1.5A12.05,12.05,0,0,1,5.42,12.37Z"/><path class="cls-296" d="M5.87,15.94c.3.51.7.21,1.06.19C6.12,16.78,6,16.75,5.87,15.94Z"/><path class="cls-297" d="M10.47,16.51l-.17,0a2.15,2.15,0,0,1,1.36-2.08c0,.49-.37.72-.44,1.15s-.6.51-.75,1Z"/><path class="cls-100" d="M18,6.89l-1.13.75C17,6.86,17.35,6.54,18,6.89Z"/><path class="cls-171" d="M10.47,16.51a1,1,0,0,1,.75-1C11.15,16.09,10.76,16.24,10.47,16.51Z"/><path class="cls-190" d="M8.17,19.7c-.15.21-.28.43-.44.63s-.52.61-.91.36a1,1,0,0,1-.35-1.17C7,20.82,7.58,19.93,8.17,19.7Z"/><path class="cls-298" d="M1.42,3.92c0-.31,0-.62,0-.93.6.13,1.06-.61,1.67-.4-.41.57-1,.88-1.38,1.5Z"/><path class="cls-299" d="M0,16A.94.94,0,0,0,.5,15a2.08,2.08,0,0,1,.14-1.08l.21,1.64,0,0c-.22.65.41,1.2.14,1.85-.35.26-.56.08-.67-.35s-.15-.63-.23-.95Z"/><path class="cls-300" d="M-.41,9.21c.2.19.67.14.49.7-.13.38-.36.18-.55,0l-.24-.21A.58.58,0,0,1-.41,9.21Z"/><path class="cls-301" d="M14.76,22.71c.44-.72.78-1.55,1.54-1.88.1.65-.54.79-.6,1.32C15.27,22,15.25,23,14.76,22.71Z"/><path class="cls-302" d="M18.6,20.64l-.31.56a.75.75,0,0,0-.48-.55c-.32-.1-.32-.1,0-.57l.49-.19C18.9,20.19,18.93,20.27,18.6,20.64Z"/><path class="cls-303" d="M16,29.5a1.29,1.29,0,0,1-1.08.73C15.06,29.5,15.52,29.47,16,29.5Z"/><path class="cls-232" d="M22.26,22.88l0,.21a3.09,3.09,0,0,1-.76,1.52c-.16.29-.39.59-.68.39s-.79.18-1.17-.05A2.81,2.81,0,0,0,19.2,24C20.32,24,21.23,23.21,22.26,22.88Z"/><path class="cls-304" d="M19.67,25l1.85-.34c0,.36-.1.81-.45.66S20.11,25.24,19.67,25Z"/><path class="cls-305" d="M.35,19.15A1,1,0,0,0,2,19.3c0,.2.09.4.13.6l-.58.57A1.93,1.93,0,0,1,.35,19.15Z"/><path class="cls-306" d="M.94,17.43c0-.61-.46-1.19-.14-1.85a18.49,18.49,0,0,0,1.08,3.17c-.34-.18-.82.92-1.08-.17C1.56,18.33,1,17.84.94,17.43Z"/><path class="cls-307" d="M11.72,3.38c-.13.44-.24.88-.38,1.31-.09.28-.25.48-.53.32a2,2,0,0,1,.12-.91,5.44,5.44,0,0,0,.74-1.53C11.88,2.91,11.68,3.14,11.72,3.38Z"/><path class="cls-308" d="M22.57,8c-.58.25-.91.89-1.37,1.33l-.3,0c-.26,0-.67.36-.62-.39l.61-.21c.14-.15.46-.1.4-.45a.74.74,0,0,1,.5-1C22.25,7.23,22.39,7.68,22.57,8Z"/><path class="cls-309" d="M20.28,9c.12.34.37.36.62.39-.63.44-1.27,0-1.9,0-.3,0-.39-.43-.41-.78A1.71,1.71,0,0,0,20.28,9Z"/><path class="cls-310" d="M18.6,20.64c.17-.4-.34-.42-.28-.75l.72-.6a.93.93,0,0,0,.78,0l.63.87C19.9,20.72,19.34,21.19,18.6,20.64Z"/><path class="cls-311" d="M19.82,19.3a1.29,1.29,0,0,1-.1.35c-.14.25-.29.61-.57.46s-.14-.53-.11-.82C19.31,18.92,19.57,18.65,19.82,19.3Z"/><path class="cls-312" d="M22.57,8c-.48-.28-1-.61-1.13.42-.06.37-.32.33-.55.34.06-.25.36-.42.16-.75,0-.54,0-1.06.58-1.35.28-.14.3,0,.46.08s.16-.12.2-.23c.09.25.18.5.26.75S22.56,7.79,22.57,8Z"/></g><path class="cls-313" d="M15,2.5A12.5,12.5,0,1,1,2.5,15,12.5,12.5,0,0,1,15,2.5M15,1A14,14,0,1,0,29,15,14,14,0,0,0,15,1Z"/></svg>