<?xml version="1.0" encoding="UTF-8"?>
<svg id="Livello_1" data-name="Livello 1" xmlns="http://www.w3.org/2000/svg" viewBox="0 0 30 30">
  <defs>
    <style>
      .cls-1 {
        fill: #d1d1d1;
      }

      .cls-2 {
        fill: none;
        stroke: #000;
        stroke-miterlimit: 10;
        stroke-width: .5px;
      }
    </style>
  </defs>
  <g>
    <path d="m11.22,11.27c-.07-.13-.19-.2-.37-.2-.1,0-.18.03-.25.08-.06.05-.11.14-.15.26-.04.12-.06.28-.08.47s-.02.43-.02.71c0,.3,0,.54.03.72.02.18.05.33.09.43s.09.17.16.2c.06.04.14.05.22.05.07,0,.13-.01.2-.04.06-.02.11-.07.16-.14s.08-.17.1-.3c.03-.13.04-.3.04-.51h.79c0,.21-.02.42-.05.61-.03.19-.09.36-.18.5-.09.14-.22.26-.38.34-.16.08-.38.12-.63.12-.3,0-.53-.05-.71-.14-.18-.1-.31-.23-.4-.41s-.15-.39-.18-.64c-.03-.25-.04-.52-.04-.83s.01-.57.04-.82c.03-.25.09-.47.18-.65s.23-.32.4-.42.41-.15.71-.15.5.05.67.14.29.21.37.35c.08.14.13.29.15.46.02.16.03.32.03.46h-.79c0-.29-.03-.49-.1-.62Z"/>
    <path d="m14.34,10.57l1.04,3.93h-.82l-.18-.83h-1.04l-.18.83h-.83l1.04-3.93h.98Zm-.1,2.45l-.38-1.77h-.01l-.38,1.77h.77Z"/>
    <path d="m15.66,10.57h.79v3.28h1.4v.65h-2.19v-3.93Z"/>
    <path d="m20.4,10.57v.65h-1.4v.92h1.32v.65h-1.32v1.71h-.79v-3.93h2.19Z"/>
    <path d="m6.47,15.52c.33,0,.59.08.77.25s.28.42.28.76c0,.26-.05.48-.16.65-.11.17-.27.27-.49.32h0c.2.04.34.1.43.2.09.1.15.26.17.48,0,.07.01.15.02.24,0,.09,0,.18.01.29,0,.21.02.37.03.48.02.11.07.19.14.23v.03h-.86c-.04-.05-.07-.12-.08-.19-.01-.07-.02-.15-.02-.22l-.02-.75c0-.15-.05-.28-.12-.36-.07-.09-.19-.13-.35-.13h-.42v1.66h-.79v-3.93h1.46Zm-.34,1.72c.19,0,.34-.04.44-.13s.15-.24.15-.45c0-.36-.18-.54-.55-.54h-.37v1.13h.33Z"/>
    <path d="m10.26,16.17h-1.4v.92h1.32v.65h-1.32v1.06h1.46v.65h-2.25v-3.93h2.19v.65Z"/>
    <path d="m12.43,16.46c-.02-.08-.04-.15-.08-.21-.04-.06-.08-.12-.14-.16s-.12-.06-.21-.06c-.19,0-.33.11-.41.32-.08.21-.13.56-.13,1.06,0,.23,0,.45.02.64s.04.35.08.49c.04.13.09.24.17.31.07.07.16.11.28.11.05,0,.1-.01.16-.04.06-.03.11-.06.16-.12.05-.05.09-.12.12-.2.03-.08.05-.17.05-.28v-.4h-.52v-.58h1.28v2.12h-.58v-.36h-.01c-.1.15-.21.26-.34.33-.13.06-.29.1-.48.1-.24,0-.44-.04-.59-.13-.15-.08-.27-.21-.36-.39-.09-.18-.14-.39-.17-.65s-.04-.56-.04-.9.02-.62.06-.87c.04-.25.11-.46.22-.62s.24-.29.41-.38c.17-.08.38-.13.63-.13.43,0,.74.11.93.32.19.21.29.52.29.92h-.76c0-.07,0-.15-.02-.23Z"/>
    <path d="m14.51,18.26c0,.1,0,.19.02.27.01.08.04.15.07.21.03.06.08.11.14.14.06.04.14.05.23.05s.17-.02.23-.05c.06-.03.1-.08.14-.14s.06-.13.07-.21c.01-.08.02-.17.02-.27v-2.74h.79v2.74c0,.25-.04.46-.1.62s-.16.29-.28.39c-.12.1-.25.16-.4.19s-.31.05-.47.05-.32-.01-.47-.04-.28-.09-.4-.18-.21-.22-.28-.38-.1-.38-.1-.64v-2.74h.79v2.74Z"/>
    <path d="m16.73,15.52h.79v3.28h1.4v.65h-2.19v-3.93Z"/>
    <path d="m21.02,15.52l1.04,3.93h-.82l-.18-.83h-1.04l-.18.83h-.83l1.04-3.93h.98Zm-.1,2.45l-.38-1.77h-.01l-.38,1.77h.77Z"/>
    <path d="m23.79,15.52c.33,0,.59.08.77.25s.28.42.28.76c0,.26-.05.48-.16.65-.11.17-.27.27-.49.32h0c.2.04.34.1.43.2.09.1.15.26.17.48,0,.07.01.15.02.24,0,.09,0,.18.01.29,0,.21.02.37.03.48.02.11.07.19.14.23v.03h-.86c-.04-.05-.07-.12-.08-.19-.01-.07-.02-.15-.02-.22l-.02-.75c0-.15-.05-.28-.12-.36-.07-.09-.19-.13-.35-.13h-.42v1.66h-.79v-3.93h1.46Zm-.34,1.72c.19,0,.34-.04.44-.13s.15-.24.15-.45c0-.36-.18-.54-.55-.54h-.37v1.13h.33Z"/>
  </g>
  <circle class="cls-2" cx="15" cy="15" r="12.5"/>
  <path class="cls-1" d="m15,2.5c6.9,0,12.5,5.6,12.5,12.5s-5.6,12.5-12.5,12.5S2.5,21.9,2.5,15,8.1,2.5,15,2.5m0-1.5C7.28,1,1,7.28,1,15s6.28,14,14,14,14-6.28,14-14S22.72,1,15,1h0Z"/>
</svg>