<?xml version="1.0" encoding="UTF-8"?>
<svg id="Livello_1" data-name="Livello 1" xmlns="http://www.w3.org/2000/svg" viewBox="0 0 30 30">
  <defs>
    <style>
      .cls-1 {
        fill: #d1d1d1;
      }

      .cls-2 {
        fill: none;
        stroke: #000;
        stroke-miterlimit: 10;
        stroke-width: .5px;
      }
    </style>
  </defs>
  <circle class="cls-2" cx="15" cy="15" r="12.5"/>
  <g>
    <path d="m11.28,11.27c-.07-.13-.19-.2-.37-.2-.1,0-.18.03-.25.08-.06.05-.11.14-.15.26-.04.12-.06.28-.08.47s-.02.43-.02.71c0,.3,0,.54.03.72.02.18.05.33.09.43s.09.17.16.2c.06.04.14.05.22.05.07,0,.13-.01.2-.04.06-.02.11-.07.16-.14s.08-.17.1-.3c.03-.13.04-.3.04-.51h.79c0,.21-.02.42-.05.61-.03.19-.09.36-.18.5-.09.14-.22.26-.38.34-.16.08-.38.12-.63.12-.3,0-.53-.05-.71-.14-.18-.1-.31-.23-.4-.41s-.15-.39-.18-.64c-.03-.25-.04-.52-.04-.83s.01-.57.04-.82c.03-.25.09-.47.18-.65s.23-.32.4-.42.41-.15.71-.15.5.05.67.14.29.21.37.35c.08.14.13.29.15.46.02.16.03.32.03.46h-.79c0-.29-.03-.49-.1-.62Z"/>
    <path d="m14.4,10.57l1.04,3.93h-.82l-.18-.83h-1.04l-.18.83h-.83l1.04-3.93h.98Zm-.1,2.45l-.38-1.77h-.01l-.38,1.77h.77Z"/>
    <path d="m15.71,10.57h.79v3.28h1.4v.65h-2.19v-3.93Z"/>
    <path d="m20.45,10.57v.65h-1.4v.92h1.32v.65h-1.32v1.71h-.79v-3.93h2.19Z"/>
    <path d="m8.35,18.34c0,.09,0,.18.02.25s.04.14.08.19.09.09.16.12.15.04.26.04c.12,0,.23-.04.33-.12s.15-.2.15-.37c0-.09-.01-.16-.04-.23-.02-.06-.06-.12-.12-.17-.06-.05-.13-.1-.22-.14-.09-.04-.2-.08-.33-.13-.18-.06-.33-.12-.46-.19-.13-.07-.24-.15-.32-.25-.09-.09-.15-.2-.19-.32s-.06-.26-.06-.43c0-.39.11-.68.33-.87.22-.19.51-.29.89-.29.18,0,.34.02.49.06s.28.1.39.19c.11.09.19.2.25.33.06.13.09.29.09.48v.11h-.76c0-.19-.03-.33-.1-.43s-.18-.15-.33-.15c-.09,0-.16.01-.22.04-.06.03-.11.06-.14.1-.04.04-.06.09-.07.15-.01.05-.02.11-.02.17,0,.12.03.22.08.31.05.08.16.16.33.23l.61.26c.15.07.27.13.37.21.1.07.17.15.23.23.06.08.1.17.12.27.02.1.03.21.03.33,0,.42-.12.72-.36.91s-.57.28-1,.28-.77-.1-.96-.29c-.19-.19-.29-.47-.29-.84v-.16h.79v.12Z"/>
    <path d="m11.76,15.52l.56,2.77h.01l.57-2.77h1.17v3.93h-.73v-3.13h-.01l-.7,3.13h-.62l-.7-3.13h-.01v3.13h-.73v-3.93h1.18Z"/>
    <path d="m16.38,15.52l1.04,3.93h-.82l-.18-.83h-1.04l-.18.83h-.83l1.04-3.93h.98Zm-.1,2.45l-.38-1.77h-.01l-.38,1.77h.77Z"/>
    <path d="m17.7,15.52h.79v3.28h1.4v.65h-2.19v-3.93Z"/>
    <path d="m20.24,15.52h.79v3.28h1.4v.65h-2.19v-3.93Z"/>
  </g>
  <path class="cls-1" d="m15,2.5c6.9,0,12.5,5.6,12.5,12.5s-5.6,12.5-12.5,12.5S2.5,21.9,2.5,15,8.1,2.5,15,2.5m0-1.5C7.28,1,1,7.28,1,15s6.28,14,14,14,14-6.28,14-14S22.72,1,15,1h0Z"/>
</svg>