<?xml version="1.0" encoding="UTF-8"?>
<svg id="Livello_1" data-name="Livello 1" xmlns="http://www.w3.org/2000/svg" viewBox="0 0 30 30">
  <defs>
    <style>
      .cls-1 {
        fill: #d1d1d1;
      }

      .cls-2 {
        fill: none;
        stroke: #000;
        stroke-miterlimit: 10;
        stroke-width: .5px;
      }
    </style>
  </defs>
  <g>
    <path d="m11.34,11.3c-.07-.13-.19-.2-.37-.2-.1,0-.18.03-.25.08-.06.05-.11.14-.15.26-.04.12-.06.28-.08.47s-.02.43-.02.71c0,.3,0,.54.03.72.02.18.05.33.09.43s.09.17.16.2c.06.04.14.05.22.05.07,0,.13-.01.2-.04.06-.02.11-.07.16-.14s.08-.17.1-.3c.03-.13.04-.3.04-.51h.79c0,.21-.02.42-.05.61-.03.19-.09.36-.18.5-.09.14-.22.26-.38.34-.16.08-.38.12-.63.12-.3,0-.53-.05-.71-.14-.18-.1-.31-.23-.4-.41s-.15-.39-.18-.64c-.03-.25-.04-.52-.04-.83s.01-.57.04-.82c.03-.25.09-.47.18-.65s.23-.32.4-.42.41-.15.71-.15.5.05.67.14.29.21.37.35c.08.14.13.29.15.46.02.16.03.32.03.46h-.79c0-.29-.03-.49-.1-.62Z"/>
    <path d="m14.46,10.6l1.04,3.93h-.82l-.18-.83h-1.04l-.18.83h-.83l1.04-3.93h.98Zm-.1,2.45l-.38-1.77h-.01l-.38,1.77h.77Z"/>
    <path d="m15.77,10.6h.79v3.28h1.4v.65h-2.19v-3.93Z"/>
    <path d="m20.51,10.6v.65h-1.4v.92h1.32v.65h-1.32v1.71h-.79v-3.93h2.19Z"/>
    <path d="m10.14,15.55l.43,2.9h.01l.46-2.9h.76l.46,2.9h.01l.43-2.9h.76l-.71,3.93h-.89l-.44-2.85h-.01l-.44,2.85h-.89l-.71-3.93h.76Z"/>
    <path d="m13.83,15.55h.79v3.93h-.79v-3.93Z"/>
    <path d="m16.55,15.55c.28,0,.5.04.67.13.17.09.3.22.39.38.09.17.16.37.19.6.03.23.05.5.05.79,0,.34-.02.64-.06.9-.04.25-.12.46-.22.63s-.24.29-.41.37c-.17.08-.39.12-.66.12h-1.25v-3.93h1.3Zm-.15,3.34c.14,0,.25-.02.34-.07s.15-.13.2-.24c.05-.11.08-.25.1-.43s.02-.4.02-.67c0-.22,0-.42-.02-.59s-.04-.31-.09-.42c-.05-.11-.11-.2-.2-.25s-.21-.08-.36-.08h-.34v2.76h.35Z"/>
    <path d="m20.56,16.2h-1.4v.92h1.32v.65h-1.32v1.06h1.46v.65h-2.25v-3.93h2.19v.65Z"/>
  </g>
  <circle class="cls-2" cx="15" cy="15" r="12.5"/>
  <path class="cls-1" d="m15,2.5c6.9,0,12.5,5.6,12.5,12.5s-5.6,12.5-12.5,12.5S2.5,21.9,2.5,15,8.1,2.5,15,2.5m0-1.5C7.28,1,1,7.28,1,15s6.28,14,14,14,14-6.28,14-14S22.72,1,15,1h0Z"/>
</svg>