<svg id="Livello_1" data-name="Livello 1" xmlns="http://www.w3.org/2000/svg" viewBox="0 0 30 30"><defs><style>.cls-1{fill:none;stroke:#000;stroke-miterlimit:10;stroke-width:0.5px;}.cls-2{fill:#d1d1d1;}</style></defs><circle class="cls-1" cx="15" cy="15" r="12.5"/><path d="M12.6,22H9.83V11.14l-2.7,1V9.88l5.18-2.12h.29Z"/><path d="M23.6,22H15.22V20.05l3.85-4.9a10.83,10.83,0,0,0,1.07-1.78,3.43,3.43,0,0,0,.35-1.47,2.82,2.82,0,0,0-.33-1.48,1,1,0,0,0-.94-.54,1.22,1.22,0,0,0-1.07.63,3.29,3.29,0,0,0-.39,1.75H15a5.16,5.16,0,0,1,.55-2.39,4,4,0,0,1,1.52-1.68,4.15,4.15,0,0,1,2.22-.6,4,4,0,0,1,2.95,1.05,4,4,0,0,1,1.05,3,5.69,5.69,0,0,1-.58,2.44,15.1,15.1,0,0,1-2.1,3l-1.83,2.61H23.6Z"/><path class="cls-2" d="M15,2.5A12.5,12.5,0,1,1,2.5,15,12.5,12.5,0,0,1,15,2.5M15,1A14,14,0,1,0,29,15,14,14,0,0,0,15,1Z"/></svg>