<svg id="Livello_1" data-name="Livello 1" xmlns="http://www.w3.org/2000/svg" viewBox="0 0 30 30"><defs><style>.cls-1{fill:none;stroke:#000;stroke-miterlimit:10;stroke-width:0.5px;}.cls-2{fill:#d1d1d1;}</style></defs><circle class="cls-1" cx="15" cy="15" r="12.5"/><path d="M12.6,22H9.83V11.14l-2.7,1V9.88l5.18-2.12h.29Z"/><path d="M17.68,13.63H19a1.24,1.24,0,0,0,1.11-.53,2.51,2.51,0,0,0,.36-1.42,2.1,2.1,0,0,0-.37-1.33,1.18,1.18,0,0,0-1-.47,1.17,1.17,0,0,0-.94.45,1.76,1.76,0,0,0-.37,1.13H15.07a3.88,3.88,0,0,1,.51-2A3.7,3.7,0,0,1,17,8.08a4.25,4.25,0,0,1,2.05-.49,4.23,4.23,0,0,1,3.07,1.08,4,4,0,0,1,1.11,3,3.34,3.34,0,0,1-.5,1.79,3.42,3.42,0,0,1-1.32,1.27A3,3,0,0,1,22.93,16a4,4,0,0,1,.49,2,4,4,0,0,1-1.21,3,4.42,4.42,0,0,1-3.16,1.15,4.05,4.05,0,0,1-3-1.13,4,4,0,0,1-1.14-3h2.77a2,2,0,0,0,.4,1.28,1.22,1.22,0,0,0,1,.52,1.37,1.37,0,0,0,1.13-.53,2.18,2.18,0,0,0,.42-1.4c0-1.4-.55-2.11-1.63-2.11H17.68Z"/><path class="cls-2" d="M15,2.5A12.5,12.5,0,1,1,2.5,15,12.5,12.5,0,0,1,15,2.5M15,1A14,14,0,1,0,29,15,14,14,0,0,0,15,1Z"/></svg>