<svg id="Livello_1" data-name="Livello 1" xmlns="http://www.w3.org/2000/svg" viewBox="0 0 30 30"><defs><style>.cls-1{fill:none;stroke:#000;stroke-miterlimit:10;stroke-width:0.5px;}.cls-2{fill:#d1d1d1;}</style></defs><circle class="cls-1" cx="15" cy="15" r="12.5"/><path d="M12.6,22H9.83V11.14l-2.7,1V9.88l5.18-2.12h.29Z"/><path d="M22.5,16.63h1.21v2.29H22.5V22H19.74V18.92H15l-.12-1.78,4.82-9.36H22.5Zm-4.91,0h2.15V11.87l-.06.11Z"/><path class="cls-2" d="M15,2.5A12.5,12.5,0,1,1,2.5,15,12.5,12.5,0,0,1,15,2.5M15,1A14,14,0,1,0,29,15,14,14,0,0,0,15,1Z"/></svg>