<svg id="Livello_1" data-name="Livello 1" xmlns="http://www.w3.org/2000/svg" xmlns:xlink="http://www.w3.org/1999/xlink" viewBox="0 0 30 30"><defs><style>.cls-1,.cls-2{fill:none;}.cls-2{stroke:#000;stroke-miterlimit:10;stroke-width:0.5px;}.cls-3{clip-path:url(#clip-path);}.cls-4{clip-path:url(#clip-path-2);}.cls-5{clip-path:url(#clip-path-3);}.cls-6{fill:#fff2e2;}.cls-7{fill:#d1d1d1;}</style><clipPath id="clip-path"><circle class="cls-1" cx="65" cy="65" r="12.5" transform="translate(-12.08 14.91) rotate(-11.98)"/></clipPath><clipPath id="clip-path-2"><rect class="cls-1" x="50.68" y="50.74" width="27.53" height="27.53"/></clipPath><clipPath id="clip-path-3"><rect class="cls-1" x="28.9" y="25.68" width="23.49" height="28.26"/></clipPath></defs><circle class="cls-2" cx="15" cy="15" r="12.5"/><path d="M12.6,22H9.83V11.14l-2.7,1V9.88l5.18-2.12h.29Z"/><path d="M15.5,15l.7-7.23h6.89v2.36H18.47l-.25,3a2.9,2.9,0,0,1,1.65-.54,3.22,3.22,0,0,1,2.71,1.25,5.8,5.8,0,0,1,1,3.54,5.12,5.12,0,0,1-1.13,3.45,3.83,3.83,0,0,1-3,1.31,4.16,4.16,0,0,1-2.08-.54,3.9,3.9,0,0,1-1.51-1.48A4.14,4.14,0,0,1,15.22,18H18a2.55,2.55,0,0,0,.44,1.37,1.17,1.17,0,0,0,2-.17,4.07,4.07,0,0,0,.37-2,3.14,3.14,0,0,0-.44-1.85,1.44,1.44,0,0,0-1.25-.63,1.46,1.46,0,0,0-1.21.54l-.17.24Z"/><g class="cls-3"><g class="cls-4"><g class="cls-5"><path class="cls-6" d="M29,30.79a.49.49,0,0,0,.23-.08c.07-.05.12-.11.18-.16h0l.24-.11a1.43,1.43,0,0,0,.21-.12,1,1,0,0,1,0-.69,2.5,2.5,0,0,1,.11-.39,1.41,1.41,0,0,0,.13-.24c-.17,0-.3.22-.38.35a1,1,0,0,0-.16.52h0l0,.06s0,0,0,0a1.2,1.2,0,0,1-.26-.66,2,2,0,0,1,0-.34,1.93,1.93,0,0,0,0-.24,1.26,1.26,0,0,0-.21.49.65.65,0,0,0,0,.31.84.84,0,0,1,.05.17.64.64,0,0,1,.14.22s0,0,0,0l-.09-.12h0a1.19,1.19,0,0,0-.35-.32,1,1,0,0,0-.56-.16c.12.12.24.25.35.38a1.63,1.63,0,0,1,.33.45s0,0,0,0a1,1,0,0,1-.24,0,1.23,1.23,0,0,0-.27,0,1.15,1.15,0,0,0-.36.11,1.65,1.65,0,0,1,.58.14.94.94,0,0,1,.44.37Z"/></g></g></g><path class="cls-7" d="M15,2.5A12.5,12.5,0,1,1,2.5,15,12.5,12.5,0,0,1,15,2.5M15,1A14,14,0,1,0,29,15,14,14,0,0,0,15,1Z"/></svg>