<svg id="Livello_1" data-name="Livello 1" xmlns="http://www.w3.org/2000/svg" xmlns:xlink="http://www.w3.org/1999/xlink" viewBox="0 0 30 30"><defs><style>.cls-1,.cls-2{fill:none;}.cls-2{stroke:#000;stroke-miterlimit:10;stroke-width:0.5px;}.cls-3{clip-path:url(#clip-path);}.cls-4{clip-path:url(#clip-path-2);}.cls-5{clip-path:url(#clip-path-3);}.cls-6{fill:#fff2e2;}.cls-7{fill:#ec89a7;}.cls-10,.cls-11,.cls-12,.cls-13,.cls-14,.cls-15,.cls-16,.cls-17,.cls-18,.cls-19,.cls-21,.cls-22,.cls-23,.cls-24,.cls-25,.cls-26,.cls-27,.cls-28,.cls-29,.cls-30,.cls-31,.cls-32,.cls-33,.cls-34,.cls-35,.cls-36,.cls-37,.cls-38,.cls-39,.cls-40,.cls-41,.cls-7,.cls-8,.cls-9{fill-rule:evenodd;}.cls-8{fill:#f08fa1;}.cls-9{fill:#ec89a3;}.cls-10{fill:#461910;}.cls-11{fill:#f8c2a0;}.cls-12{fill:#facdb1;}.cls-13{fill:#f6b18a;}.cls-14{fill:#facfb2;}.cls-15{fill:#5a221c;}.cls-16{fill:#743532;}.cls-17{fill:#b7676d;}.cls-18{fill:#7d4d3d;}.cls-19{fill:#a06e59;}.cls-20{clip-path:url(#clip-path-4);}.cls-21{fill:#733842;}.cls-22{fill:#a65966;}.cls-23{fill:#954d59;}.cls-24{fill:#803f4a;}.cls-25{fill:#7a3c46;}.cls-26{fill:#a85c68;}.cls-27{fill:#9a505d;}.cls-28{fill:#9f5461;}.cls-29{fill:#a65a67;}.cls-30{fill:#9b525e;}.cls-31{fill:#9a4f5c;}.cls-32{fill:#a35663;}.cls-33{fill:#85444f;}.cls-34{fill:#80404b;}.cls-35{fill:#ac5f6c;}.cls-36{fill:#f090a0;}.cls-37{fill:#763b45;}.cls-38{fill:#a55965;}.cls-39{fill:#80444d;}.cls-40{fill:#894650;}.cls-41{fill:#8c4754;}.cls-42{clip-path:url(#clip-path-5);}.cls-43{fill:#d1d1d1;}</style><clipPath id="clip-path"><circle class="cls-1" cx="15" cy="65" r="12.5" transform="translate(-13.17 4.53) rotate(-11.98)"/></clipPath><clipPath id="clip-path-2"><rect class="cls-1" x="0.68" y="50.74" width="27.53" height="27.53"/></clipPath><clipPath id="clip-path-3"><rect class="cls-1" x="25.89" y="25.68" width="23.49" height="28.26"/></clipPath><clipPath id="clip-path-4"><rect class="cls-1" x="2.4" y="25.68" width="23.49" height="28.26"/></clipPath><clipPath id="clip-path-5"><rect class="cls-1" x="-21.1" y="25.68" width="23.49" height="28.26"/></clipPath></defs><circle class="cls-2" cx="15" cy="15" r="12.5"/><path d="M12.6,22H9.83V11.14l-2.7,1V9.88l5.18-2.12h.29Z"/><path d="M21.81,7.63V10h-.16a3.33,3.33,0,0,0-2.46.93,4.27,4.27,0,0,0-1.11,2.58,3,3,0,0,1,4.69.31,6,6,0,0,1,.92,3.51,5.89,5.89,0,0,1-.52,2.52,4.18,4.18,0,0,1-1.48,1.75,3.92,3.92,0,0,1-2.16.62,3.7,3.7,0,0,1-3.1-1.56,6.84,6.84,0,0,1-1.16-4.18v-1A10.64,10.64,0,0,1,16,11.32,6.06,6.06,0,0,1,18.13,8.6a5.66,5.66,0,0,1,3.25-1Zm-2.37,7.12a1.26,1.26,0,0,0-.89.34,2,2,0,0,0-.53.82v1a4.89,4.89,0,0,0,.4,2.25,1.13,1.13,0,0,0,2.12,0,3.72,3.72,0,0,0,.4-1.84,3.78,3.78,0,0,0-.41-1.87A1.24,1.24,0,0,0,19.44,14.75Z"/><g class="cls-3"><g class="cls-4"><g class="cls-5"><path class="cls-6" d="M26,30.79a.49.49,0,0,0,.23-.08c.07-.05.12-.11.18-.16h0l.24-.11a1.43,1.43,0,0,0,.21-.12,1,1,0,0,1,0-.69,1.74,1.74,0,0,1,.11-.39,1.41,1.41,0,0,0,.13-.24c-.17,0-.3.22-.38.35a.89.89,0,0,0-.16.52h0l0,.06s0,0,0,0a1.2,1.2,0,0,1-.26-.66,1.32,1.32,0,0,1,0-.34,1.93,1.93,0,0,0,0-.24,1.26,1.26,0,0,0-.21.49.65.65,0,0,0,0,.31.84.84,0,0,1,.05.17.64.64,0,0,1,.14.22s0,0,0,0l-.09-.12h0a1.19,1.19,0,0,0-.35-.32,1,1,0,0,0-.56-.16c.12.12.24.25.35.38a1.63,1.63,0,0,1,.33.45s0,0,0,0a1,1,0,0,1-.24,0,1.23,1.23,0,0,0-.27,0,1.08,1.08,0,0,0-.36.11,1.7,1.7,0,0,1,.58.14.94.94,0,0,1,.44.37Z"/><path class="cls-6" d="M30.36,26.63l-.54-.17-.06.18c0,.13-.07.26-.11.39a5.65,5.65,0,0,1,.57.23C30.27,27.05,30.31,26.84,30.36,26.63Z"/><path class="cls-6" d="M28.89,27.51h0l.43.13.06,0,0-.07c0-.18.09-.36.14-.54Q29.3,27,29,26.92s0,0,0,.06a3.89,3.89,0,0,0-.09.47Z"/><path class="cls-6" d="M29.66,26.79l.1-.34-.13,0-.45-.11c-.06.18-.11.36-.16.55a3.4,3.4,0,0,1,.57.15Z"/><path class="cls-6" d="M30.4,26.5c0-.15.07-.31.12-.46L30,25.87l-.17.53a5.6,5.6,0,0,1,.54.17Z"/><path class="cls-6" d="M28.57,26.56a1.18,1.18,0,0,1,0,.2l.32.06.11,0c.05-.19.11-.37.16-.55l-.37-.08h-.1C28.62,26.33,28.6,26.44,28.57,26.56Z"/><path class="cls-6" d="M29.57,25.21c-.06.15-.11.29-.16.44l.35.08.22.07,0-.13c0-.09.06-.19.1-.28l-.36-.13-.19-.08Z"/><path class="cls-6" d="M28.74,25.81c0,.11,0,.22-.08.34l.18,0,.3.06,0-.06c.06-.16.12-.33.17-.49l-.48-.1-.05,0Z"/><path class="cls-6" d="M29.25,26.11a.88.88,0,0,1-.05.15l.51.11.07,0,.18-.54-.16,0-.41-.11C29.35,25.84,29.3,26,29.25,26.11Z"/><path class="cls-6" d="M30.21,27.32c-.19-.09-.38-.15-.58-.23,0,.15-.07.29-.11.43s0,.12-.05.18a6.5,6.5,0,0,1,.61.25,1.57,1.57,0,0,1,.05-.3C30.16,27.54,30.18,27.43,30.21,27.32Z"/><path class="cls-6" d="M28.9,27.12a1.6,1.6,0,0,1,.05-.21l-.19,0-.24-.05a.36.36,0,0,1,0,.11,1.12,1.12,0,0,1-.05.13s0,.06-.05.06,0,0,0,.05a1.51,1.51,0,0,0,.18.26,2,2,0,0,1,.26.06C28.85,27.37,28.87,27.25,28.9,27.12Z"/><path class="cls-6" d="M29.45,27.78a.77.77,0,0,0,0,.15s0,.07,0,.07h0a1,1,0,0,0,.24,0A1.27,1.27,0,0,0,30,28a5.38,5.38,0,0,0-.55-.24Z"/><path class="cls-6" d="M28.41,26.11l.19,0,.06-.25c0-.11.05-.22.08-.33l-.35,0c-.11,0-.23,0-.34-.06A2.24,2.24,0,0,0,28,26a.41.41,0,0,1,0,.11h.15Z"/><path class="cls-6" d="M28.47,26.75h0l.12-.54-.32-.05a.9.9,0,0,1-.23,0,2.71,2.71,0,0,0,.12.55,2.47,2.47,0,0,0,.29.06Z"/><path class="cls-6" d="M28.46,26.8l-.1,0-.18,0,.12.28a.25.25,0,0,1,0,.07l0,0C28.39,27,28.43,26.9,28.46,26.8Z"/><path class="cls-6" d="M29.4,27.73l-.09,0-.4-.12h0v0a.48.48,0,0,0,0,.12h0l.19.13a2.36,2.36,0,0,0,.28.12s0-.07,0-.1Z"/><path class="cls-6" d="M28.83,27.55l-.21-.05.19.18a.59.59,0,0,1,0-.13Z"/><path class="cls-7" d="M31,25.84a.51.51,0,0,0,.16-.09.71.71,0,0,0,.17-.57c0-.16,0-.29.19-.35a.17.17,0,0,0,.1-.21,1.3,1.3,0,0,0-.38-.32c-.1-.05-.06-.21-.19-.22a2.42,2.42,0,0,1,0,.47.73.73,0,0,1-.91.69,2.73,2.73,0,0,1-.75-.36,1.87,1.87,0,0,0-.71-.34.89.89,0,0,0-.88.21c0,.13.14.16.26.18-.11.18,0,.3.07.44a.65.65,0,0,1,.78,0,5.34,5.34,0,0,0,.57.4l0,0,0,0a1.22,1.22,0,0,0,.27,0,1.26,1.26,0,0,1,.72,0A.58.58,0,0,0,31,25.84Z"/><path class="cls-8" d="M27.35,26.44a2.55,2.55,0,0,0-.17.82.83.83,0,0,0,.1.38.2.2,0,0,0,.26.06.25.25,0,0,1,.38.11.14.14,0,0,0,.15.07,1.15,1.15,0,0,0,.15-.85c-.06-.3-.15-.6-.19-.91a.58.58,0,0,0-.15-.11c-.12-.07-.22-.05-.26.1A.55.55,0,0,1,27.35,26.44Z"/><path class="cls-9" d="M27.35,26.44c.16,0,.27-.07.29-.25a.45.45,0,0,1,0-.11c0-.07.08-.08.15,0s.12.11.21.09a1.4,1.4,0,0,1,.17-.75c0-.09,0-.19-.09-.26s0,0,0-.06.09-.09.08-.17a.37.37,0,0,1-.33-.13h0l0,.05h0a.07.07,0,0,1,0,0,.7.7,0,0,0-.2.38,4.61,4.61,0,0,0-.19,1.1.41.41,0,0,0,0,.08Z"/><path class="cls-10" d="M27.33,28.92a1.58,1.58,0,0,0,.74.61l.19,0c.12,0,.15,0,.1-.13a1.19,1.19,0,0,0-.09-.15,1.75,1.75,0,0,1-.24-.54c-.12-.07-.26,0-.37-.1a.09.09,0,0,0-.06.06c0,.08-.06.14-.16.13S27.34,28.85,27.33,28.92Z"/><path class="cls-11" d="M28,28.48A2.12,2.12,0,0,1,28,28a.34.34,0,0,0-.29-.31.4.4,0,0,0-.38.18.5.5,0,0,0-.1.19c0,.23,0,.24.3.25.1-.1,0,.1.11.06a.15.15,0,0,1,.2.06C27.85,28.52,27.9,28.56,28,28.48Z"/><path class="cls-8" d="M31,25.84a1.52,1.52,0,0,1-.6-.07.41.41,0,0,0-.22,0c-.19,0-.39.05-.58.1A1.31,1.31,0,0,0,31,25.84Z"/><path class="cls-12" d="M27.54,28.32a.8.8,0,0,1-.15,0c-.16,0-.16,0-.16-.21a.07.07,0,0,0,0-.09.72.72,0,0,0,0,.41,3.69,3.69,0,0,0,.08.46l0,.06c0-.07.07,0,.11,0s.2,0,.19-.17,0-.14,0-.21A1.54,1.54,0,0,0,27.54,28.32Z"/><path class="cls-13" d="M27.23,28v.09a1.37,1.37,0,0,1,.16-.18c.2-.2.38-.18.52.07A.23.23,0,0,0,28,28l.09-.16a.52.52,0,0,1-.21-.23c-.05-.1-.11-.1-.19,0a.39.39,0,0,1-.39,0A2.11,2.11,0,0,0,27.23,28Z"/><path class="cls-14" d="M28,28.48c-.06,0-.08,0-.1,0a.18.18,0,0,0-.13-.11c-.06,0-.09,0-.09.07s0,0,0,.05,0,.17.07.23a.22.22,0,0,0,.32.06l0,0C28,28.67,28,28.57,28,28.48Z"/><path class="cls-8" d="M27.36,26.39a.08.08,0,0,0,0-.08A.07.07,0,0,0,27.36,26.39Z"/><path class="cls-8" d="M29.59,25.83l0,0Z"/><path class="cls-15" d="M27.79,27v0a.08.08,0,0,1,0,.05,1,1,0,0,1,0,.23c.06,0,.17,0,.1-.13s.05,0,.05-.06-.07,0,0-.06a.06.06,0,0,0-.05-.06l0,0S27.81,27,27.79,27Z"/><path class="cls-16" d="M27.87,27l0,.06s0,0,0,0S27.92,27,27.87,27Z"/><path class="cls-17" d="M27.94,27.07h0c0,.05,0,.05,0,.06Z"/><path class="cls-16" d="M27.79,27h.05S27.8,27,27.79,27Z"/><path class="cls-16" d="M27.82,27.09a.08.08,0,0,0,0-.05S27.81,27.08,27.82,27.09Z"/><path class="cls-18" d="M27.67,28.68l-.05-.24c-.08,0,0,.06,0,.09s0,.14.05.19Z"/><path class="cls-19" d="M27.58,28.53s0-.07,0-.09v0s0,0,0-.09,0,0,0,0,0,0,0,0S27.52,28.47,27.58,28.53Z"/></g><g class="cls-20"><path class="cls-6" d="M22.93,28.65a5.51,5.51,0,0,0-.06-.57l-.19,0-.4,0c0,.21,0,.41,0,.62C22.51,28.73,22.72,28.68,22.93,28.65Z"/><path class="cls-6" d="M21.54,27.65v0c0,.14,0,.29.05.44v.07h.07l.55-.09a5.4,5.4,0,0,0-.09-.58h-.07l-.46.1Z"/><path class="cls-6" d="M24.62,27l0,.2a.14.14,0,0,1,.09,0,1.12,1.12,0,0,0-.17-.44s0,0,0,.05Z"/><path class="cls-6" d="M22.51,28.06l.35,0a.69.69,0,0,0,0-.13l-.09-.45-.56.07a5.4,5.4,0,0,1,.09.58Z"/><path class="cls-6" d="M23,29.21c0,.05,0,.1,0,.15l.48-.05h.06s0-.07,0-.1a3.65,3.65,0,0,0,0-.47v-.12l-.39.06-.15,0v.1C23,28.94,23,29.07,23,29.21Z"/><path class="cls-6" d="M23.84,28.52H24V28.4L24,28l-.23,0-.2,0c0,.17,0,.35.05.52Z"/><path class="cls-6" d="M24.68,27.43c0,.13,0,.26,0,.39h0a2,2,0,0,0,0-.54v0h-.09A1,1,0,0,1,24.68,27.43Z"/><path class="cls-6" d="M24.71,27.9v0h0V28S24.71,27.92,24.71,27.9Z"/><path class="cls-6" d="M23.07,28.62l.47-.07c0-.17,0-.35-.05-.53l-.55.05a5.51,5.51,0,0,1,.06.57Z"/><path class="cls-6" d="M23.33,26.78l0,.06c0,.16.07.32.1.48l.42,0h.07a5.21,5.21,0,0,0-.08-.57H23.8Z"/><path class="cls-6" d="M22.28,27l-.2,0c0,.11.05.21.07.31l0,.12.56-.07c0-.12,0-.25-.08-.37l0-.1Z"/><path class="cls-6" d="M23.91,27.35l-.45,0,.06.35,0,.23h.12l.31,0c0-.12,0-.25,0-.37s0-.14,0-.21Z"/><path class="cls-6" d="M24.64,27.89c-.12,0-.25,0-.38.06L24,28l0,.39v.15a2,2,0,0,0,.43,0,1.69,1.69,0,0,0,.13-.31s0-.09,0-.14Z"/><path class="cls-6" d="M24.29,26.52a.55.55,0,0,1-.16-.18.46.46,0,0,1-.33-.15v0c0,.11.05.22.07.33l0,.1a2.86,2.86,0,0,1,.51,0Z"/><path class="cls-6" d="M24.22,27.89l.42-.06v0a3,3,0,0,0,0-.42s0-.07,0-.1l-.61.07a.31.31,0,0,1,0,.1l0,.47Z"/><path class="cls-6" d="M23,26.83l-.34.06c0,.06,0,.12,0,.18l.06.3h.07l.52,0c0-.16-.07-.33-.1-.49v-.05Z"/><path class="cls-6" d="M23,27.42h-.16c0,.17.07.34.1.51l0,.08.56-.06a.78.78,0,0,1,0-.16c0-.14,0-.28-.07-.41Z"/><path class="cls-6" d="M23.75,26a.52.52,0,0,0,.17.19c.07,0,.15.05.22.09h0a1.62,1.62,0,0,1,.19.18l.2.14a1,1,0,0,1,.61-.32,1.87,1.87,0,0,1,.4,0,2.62,2.62,0,0,0,.28,0,.66.66,0,0,0-.48-.2.87.87,0,0,0-.53.06h0l0,.05s0,0,0,0a1.2,1.2,0,0,1,.5-.5,1.75,1.75,0,0,1,.29-.18.92.92,0,0,0,.23-.09,1.19,1.19,0,0,0-.53,0,.72.72,0,0,0-.28.13l-.14.12a1.07,1.07,0,0,1-.15.22s0,0,0,0l.08-.14s0,0,0,0h0a1.41,1.41,0,0,0,.15-.45,1,1,0,0,0-.08-.58c-.06.16-.13.32-.2.48a2,2,0,0,1-.29.48s0,0,0,0a.74.74,0,0,1-.1-.22l-.12-.23a1.8,1.8,0,0,0-.25-.29,1.65,1.65,0,0,1,.1.58,1,1,0,0,1-.16.56Z"/><path class="cls-6" d="M22.59,29.47l-.13,0h0a1.29,1.29,0,0,0,.42.1l0-.16Z"/><path class="cls-6" d="M23.57,29.44l.22-.13-.23,0S23.55,29.41,23.57,29.44Z"/><path class="cls-6" d="M22.24,28.78c0-.2,0-.41,0-.62l-.44.07-.18,0a4.85,4.85,0,0,1,0,.66,1,1,0,0,1,.3-.07Z"/><path class="cls-6" d="M22.91,29.37a4.85,4.85,0,0,0,0-.66l-.62.12h0a.34.34,0,0,1,0,.1,1.5,1.5,0,0,1,0,.22c0,.06-.05.18,0,.23a0,0,0,0,1,0,0l.09,0s.12,0,.15,0Z"/><path class="cls-6" d="M22.22,29s0-.1,0-.15l-.3.06-.29.07a.86.86,0,0,0,.14.13,4,4,0,0,0,.4.27.48.48,0,0,1,0-.12Z"/><path class="cls-6" d="M23.5,29.35l-.44.06H23a.77.77,0,0,1,0,.15,0,0,0,0,1,0,0h.17a2,2,0,0,0,.41-.13A.2.2,0,0,1,23.5,29.35Z"/><path class="cls-6" d="M23.91,28.57l-.31,0v0c0,.15,0,.29,0,.44s0,.13,0,.2a1.24,1.24,0,0,1,.27,0,.63.63,0,0,0,.12-.1c0-.2,0-.4,0-.6Z"/><path class="cls-6" d="M24.51,26.68l-.59,0a3.72,3.72,0,0,1,.08.57l.37,0,.23,0a2.17,2.17,0,0,1,0-.25,1.55,1.55,0,0,1,0-.21A.2.2,0,0,1,24.51,26.68Z"/><path class="cls-6" d="M24.25,28.56h-.18a1.48,1.48,0,0,1,0,.21,2,2,0,0,0,0,.34l.15-.15a3.3,3.3,0,0,0,.3-.43A.91.91,0,0,1,24.25,28.56Z"/><path class="cls-6" d="M21.9,27.5l.22,0c0-.06,0-.12-.05-.18s0-.16,0-.25l-.12,0h-.14s-.07,0-.07,0,0,0-.05,0-.12.18-.17.27a1.28,1.28,0,0,1,.05.27A2.22,2.22,0,0,1,21.9,27.5Z"/><path class="cls-6" d="M21.51,28.27l-.14,0-.07,0h0a.73.73,0,0,0,.07.24,1.27,1.27,0,0,0,.18.29,4,4,0,0,0,0-.6Z"/><path class="cls-6" d="M22.63,26.65a1.05,1.05,0,0,1,.05.19l.25-.05.33-.06c0-.11-.05-.23-.08-.34a1,1,0,0,1-.08-.34,1.91,1.91,0,0,0-.5.19l-.09.05a.78.78,0,0,0,0,.14C22.58,26.5,22.61,26.57,22.63,26.65Z"/><path class="cls-6" d="M22.07,27h0l.55-.11c0-.1-.05-.21-.08-.31a1,1,0,0,1-.08-.22,2.73,2.73,0,0,0-.45.33,2.3,2.3,0,0,0,.06.28Z"/><path class="cls-6" d="M23.79,26.66h.06c0-.11-.05-.21-.07-.31a.78.78,0,0,0-.09-.27h0a1.37,1.37,0,0,0-.53,0c.05.23.12.46.17.69Z"/><path class="cls-6" d="M22,27a.44.44,0,0,0,0-.1.86.86,0,0,1,0-.17,1.45,1.45,0,0,0-.21.22L21.7,27h0A1.29,1.29,0,0,0,22,27Z"/><path class="cls-6" d="M21.54,28.21a.34.34,0,0,0,0-.1c0-.14,0-.28,0-.42v0h0s-.1,0-.11.05h0a1.85,1.85,0,0,0,0,.23,1.5,1.5,0,0,0,0,.3l.09,0Z"/><path class="cls-6" d="M21.48,27.61a.76.76,0,0,1,0-.21,1.86,1.86,0,0,0-.1.25l.12,0Z"/><path class="cls-6" d="M26,30.79a.49.49,0,0,0,.23-.08c.07-.05.12-.11.18-.16h0l.24-.11a1.43,1.43,0,0,0,.21-.12,1,1,0,0,1,0-.69,1.74,1.74,0,0,1,.11-.39,1.41,1.41,0,0,0,.13-.24c-.17,0-.3.22-.38.35a.89.89,0,0,0-.16.52h0l0,.06s0,0,0,0a1.2,1.2,0,0,1-.26-.66,1.32,1.32,0,0,1,0-.34,1.93,1.93,0,0,0,0-.24,1.26,1.26,0,0,0-.21.49.65.65,0,0,0,0,.31.84.84,0,0,1,.05.17.64.64,0,0,1,.14.22s0,0,0,0l-.09-.12h0a1.19,1.19,0,0,0-.35-.32,1,1,0,0,0-.56-.16c.12.12.24.25.35.38a1.63,1.63,0,0,1,.33.45s0,0,0,0a1,1,0,0,1-.24,0,1.23,1.23,0,0,0-.27,0,1.08,1.08,0,0,0-.36.11,1.7,1.7,0,0,1,.58.14.94.94,0,0,1,.44.37Z"/><path class="cls-6" d="M14.52,25.53c.41.5.79,1,1.19,1.52s.81,1,1.24,1.47a7.1,7.1,0,0,0,1.35,1.22,6.27,6.27,0,0,0,1.54.64s0,0,0,0a9.7,9.7,0,0,1-1.51-.68A6.72,6.72,0,0,1,17,28.43c-.43-.45-.82-.94-1.22-1.42s-.81-1-1.23-1.48c0,0,0,0,0,0Z"/><path class="cls-6" d="M19.64,30.29c0-.53.14-1.06.13-1.59,0-.33,0-.94-.38-1.1a0,0,0,0,0,0,0,0,0,0,0,0,0,0,2.93,2.93,0,0,0,.23,2.61l0,.06S19.64,30.32,19.64,30.29ZM19.54,28v0h0ZM19.36,28a2.38,2.38,0,0,1,.05.26c0,.33,0,.67,0,1a4.64,4.64,0,0,0,0,.53A3.5,3.5,0,0,1,19.36,28Z"/><path class="cls-6" d="M18.59,29.85l-.07,0a2.88,2.88,0,0,0-2.62,0,.05.05,0,0,0,0,.05,0,0,0,0,0,0,0c.19.34.8.3,1.13.28.53,0,1-.23,1.57-.25C18.61,29.92,18.63,29.87,18.59,29.85ZM16.34,30h0Zm1.7-.29a4.34,4.34,0,0,0-.53.05c-.33,0-.67.05-1,.1l-.26,0A3.53,3.53,0,0,1,18,29.72Z"/><path class="cls-6" d="M18.67,29.84c0-.53.22-1,.24-1.58,0-.32.05-.94-.29-1.13h0a.05.05,0,0,0,0,0,2.94,2.94,0,0,0,0,2.62l0,.07S18.67,29.87,18.67,29.84Zm.06-2.26h0Zm-.17-.06,0,.26c0,.33-.06.67-.08,1a3,3,0,0,0-.05.52A3.38,3.38,0,0,1,18.56,27.52Z"/><path class="cls-6" d="M17.58,29.09l-.07,0a2.94,2.94,0,0,0-2.62,0,.05.05,0,0,0,0,.05s0,0,0,0c.19.34.8.3,1.13.28.53,0,1-.23,1.57-.26A0,0,0,0,0,17.58,29.09Zm-2.25.16h0ZM17,29a4.29,4.29,0,0,0-.53.06c-.33,0-.67,0-1,.09l-.26,0A3.53,3.53,0,0,1,17,29Z"/><path class="cls-6" d="M17.57,29.08c.27-.45.69-.8,1-1.25.17-.28.49-.8.28-1.14,0,0,0,0,0,0a0,0,0,0,0-.06,0A2.91,2.91,0,0,0,17.51,29a.22.22,0,0,0,0,.08S17.55,29.12,17.57,29.08Zm1.15-1.94h0ZM18.6,27a1.33,1.33,0,0,1-.1.24c-.2.27-.37.56-.56.84a4.67,4.67,0,0,0-.3.43A3.54,3.54,0,0,1,18.6,27Z"/><path class="cls-6" d="M16.88,28.36l-.07,0a2.93,2.93,0,0,0-2.54-.62,0,0,0,0,0,0,0s0,0,0,0c.1.38.71.48,1,.54.53.1,1.07,0,1.59.12C16.87,28.44,16.91,28.39,16.88,28.36ZM14.65,28h0Zm1.72.11a3.39,3.39,0,0,0-.52-.07c-.34-.05-.67-.11-1-.14l-.24-.09A3.51,3.51,0,0,1,16.37,28.1Z"/><path class="cls-6" d="M16.9,28.37c.16-.5.48-.94.65-1.45.11-.31.3-.89,0-1.17,0,0,0,0,0,0a0,0,0,0,0-.05,0,2.9,2.9,0,0,0-.66,2.53v.07A0,0,0,0,0,16.9,28.37Zm.66-2.16v0h0Zm-.15-.1a2.34,2.34,0,0,1,0,.26c-.13.3-.23.62-.35.94-.05.15-.14.32-.18.49A3.48,3.48,0,0,1,17.41,26.11Z"/><path class="cls-6" d="M15.89,27.18l-.05,0A2.09,2.09,0,0,0,14,26.71s0,0,0,0a0,0,0,0,0,0,0c.07.27.5.35.73.39s.76,0,1.13.08C15.89,27.23,15.91,27.2,15.89,27.18Zm-1.59-.26Zm1.22.08a1.64,1.64,0,0,0-.37-.05c-.23,0-.47-.08-.7-.1l-.18-.07A2.41,2.41,0,0,1,15.52,27Z"/><path class="cls-6" d="M15.83,27.16c.11-.36.34-.68.46-1s.21-.63,0-.83h-.06a2.06,2.06,0,0,0-.47,1.8v.06S15.82,27.18,15.83,27.16Zm.47-1.54h0Zm-.11-.07a1.13,1.13,0,0,1,0,.18c-.09.22-.16.45-.24.67a2.83,2.83,0,0,0-.14.35A2.53,2.53,0,0,1,16.19,25.55Z"/><path class="cls-6" d="M15.17,26.28s0,0,0-.05A2.1,2.1,0,0,0,14,24.75s0,0,0,0l0,0c-.11.25.18.58.33.76s.58.49.83.77C15.13,26.32,15.17,26.31,15.17,26.28Zm-1.07-1.2Zm.9.83a2.23,2.23,0,0,0-.26-.27c-.16-.17-.31-.36-.48-.52l-.1-.16A2.47,2.47,0,0,1,15,25.91Z"/><path class="cls-21" d="M20.12,27a3.2,3.2,0,0,1-.29-1.1c0-.21,0-.41,0-.62s.12-.07.2-.08a1.83,1.83,0,0,0,.15.45,2.68,2.68,0,0,1,.21,1.19C20.35,27,20.3,27.06,20.12,27Z"/><path class="cls-22" d="M21.05,31l-.24-1.12c0-.18-.07-.37-.11-.56.14,0,.05-.13,0-.2s-.06-.13.05-.14,0,0,.06.06c.09.41.19.82.29,1.23,0,0,0,.09,0,.13h0c0,.09-.07.2.08.24a3.62,3.62,0,0,0,.13.35.49.49,0,0,1,0,.12c-.08.07-.13.22-.28.11s.07-.06,0-.05S21.11,31.05,21.05,31Z"/><path class="cls-23" d="M16.49,29.65c.05-.47.11-.94.2-1.4,0-.22.15-.41.2-.63,0-.05.05-.11.11-.09s0,.08,0,.13a0,0,0,0,1,0,0s0,.12,0,.18a8.09,8.09,0,0,1-.12.84c-.05.34-.11.68-.16,1C16.56,29.86,16.54,29.72,16.49,29.65Z"/><path class="cls-24" d="M16.84,26.79c0-.18,0-.36,0-.54a.39.39,0,0,1,0-.21c.07,0,0,.12.08.18s.09,0,.05-.13,0-.19,0-.28.08-.09.15-.07a.08.08,0,0,1,.06.1c0,.1,0,.2,0,.29s0,0,0,0,0-.13.1-.13a1,1,0,0,1-.07.42,3.63,3.63,0,0,0-.16.65l0,.09c-.21,0-.27,0-.27-.2A.55.55,0,0,1,16.84,26.79Z"/><path class="cls-25" d="M17.17,25.17c.07,0,.17,0,.2.12a2.18,2.18,0,0,1,0,.72c-.05,0-.05.12-.11.16s-.09,0-.1-.1.15,0,.08-.07,0-.14,0-.2c-.14,0-.14,0-.14.09s0,0,0,.05,0,.15,0,.21-.24,0-.07.18c-.19-.06-.15-.18-.17-.29a1.62,1.62,0,0,1,.17-.58Z"/><path class="cls-26" d="M16.49,29.65s.06,0,.07,0,.06.09.13.06c0,.24,0,.48-.08.72,0,.08,0,.16,0,.23s0,.16-.07.13-.22.05-.2-.13C16.36,30.33,16.42,30,16.49,29.65Z"/><path class="cls-27" d="M16.84,26.79s0,0,0,.06c0,.25,0,.25.25.32a2,2,0,0,1-.09.49v-.13c-.1.11-.08.25-.14.35s0,.16-.1.19,0,.07,0,.11,0,.07-.06.07a7.3,7.3,0,0,1,.1-.94A3.05,3.05,0,0,1,16.84,26.79Z"/><path class="cls-28" d="M20.81,29c-.06,0-.07,0,0,.08s0,.13.06.19a.08.08,0,0,1,0,.1c-.06,0-.06,0-.09-.05v-.07c0-.05,0-.12,0-.17a11.52,11.52,0,0,1-.28-1.16s0-.08,0-.12,0,0,0-.06,0-.07,0-.1v0a.08.08,0,0,1,.09-.06,1.55,1.55,0,0,1,.19.48C20.66,28.36,20.71,28.69,20.81,29Z"/><path class="cls-29" d="M20.81,29a.69.69,0,0,0-.1-.19c-.06-.07-.12-.15,0-.25s0-.14-.05-.19a.31.31,0,0,1-.07-.2.84.84,0,0,0-.11-.39c-.06-.07,0-.16-.07-.22s-.07-.15.05-.17,0-.11.08-.12c.08.28.11.57.17.85l.18.92Z"/><path class="cls-30" d="M20.5,27.28a.49.49,0,0,0,0,.12s0,.06,0,.05-.06.08-.09.12l-.08,0a3,3,0,0,1-.17-.6c.15,0,.22-.08.29-.16A2.05,2.05,0,0,1,20.5,27.28Z"/><path class="cls-22" d="M20.65,29.09s.06,0,.05.06a.41.41,0,0,0,0,.11C20.64,29.21,20.65,29.15,20.65,29.09Z"/><path class="cls-27" d="M17,27.87c0-.07,0-.13,0-.18A.3.3,0,0,1,17,27.87Z"/><path class="cls-29" d="M20.34,27.81s0,.08,0,.12A.12.12,0,0,1,20.34,27.81Z"/><path class="cls-29" d="M20.3,27.65s0,.06,0,.1A.12.12,0,0,1,20.3,27.65Z"/><polygon class="cls-25" points="17.25 26.17 17.24 26.18 17.23 26.18 17.25 26.17"/><path class="cls-6" d="M2.52,30.79a.49.49,0,0,0,.24-.08c.07-.05.11-.11.17-.16h0l.24-.11.21-.12a1,1,0,0,1-.05-.69,2.52,2.52,0,0,1,.12-.39c0-.08.1-.16.13-.24-.17,0-.31.22-.38.35a.89.89,0,0,0-.16.52h0l0,.06s0,0,0,0a1.2,1.2,0,0,1-.26-.66,2,2,0,0,1,0-.34.65.65,0,0,0,0-.24,1.24,1.24,0,0,0-.2.49.65.65,0,0,0,0,.31l.06.17a.83.83,0,0,1,.14.22s0,0,0,0l-.1-.12h0a1.15,1.15,0,0,0-.34-.32,1.07,1.07,0,0,0-.57-.16l.36.38a1.6,1.6,0,0,1,.32.45s0,0,0,0a1,1,0,0,1-.25,0,1.18,1.18,0,0,0-.26,0,1.21,1.21,0,0,0-.37.11,1.65,1.65,0,0,1,.58.14,1,1,0,0,1,.45.37Z"/><path class="cls-6" d="M6.87,26.63l-.55-.17a1.21,1.21,0,0,1-.05.18c0,.13-.08.26-.11.39.19.07.38.14.57.23C6.77,27.05,6.82,26.84,6.87,26.63Z"/><path class="cls-6" d="M5.4,27.51h0l.43.13.06,0,0-.07c0-.18.09-.36.14-.54q-.29-.09-.57-.15s0,0,0,.06a3.94,3.94,0,0,0-.1.47Z"/><path class="cls-6" d="M6.16,26.79c0-.11.07-.23.11-.34l-.13,0-.45-.11c-.06.18-.11.36-.16.55A4,4,0,0,1,6.1,27Z"/><path class="cls-6" d="M7.4,26.82l.14.07c0-.16.1-.31.14-.46s0,0,0-.06l-.08-.06-.43-.2-.11,0c0,.12-.07.25-.1.38a.74.74,0,0,0,0,.14l.1,0A3.13,3.13,0,0,1,7.4,26.82Z"/><path class="cls-6" d="M7.11,25.75a1.11,1.11,0,0,1,.07-.16l-.11,0-.39-.15-.08.23-.06.18L7,26C7.06,25.91,7.09,25.83,7.11,25.75Z"/><path class="cls-6" d="M6.9,26.5,7,26l-.5-.17-.18.53a4.26,4.26,0,0,1,.54.17Z"/><path class="cls-6" d="M5.08,26.56c0,.07,0,.14,0,.2l.31.06.12,0c0-.19.1-.37.16-.55l-.37-.08H5.15C5.13,26.33,5.1,26.44,5.08,26.56Z"/><path class="cls-6" d="M6.07,25.21l-.15.44.34.08.22.07,0-.13.09-.28-.35-.13-.19-.08Z"/><path class="cls-6" d="M5.25,25.81a3.38,3.38,0,0,0-.08.34l.17,0,.31.06,0-.06c0-.16.11-.33.17-.49l-.48-.1-.06,0A2,2,0,0,0,5.25,25.81Z"/><path class="cls-6" d="M5.76,26.11a.88.88,0,0,0,0,.15l.51.11.07,0,.18-.54-.16,0L5.9,25.7C5.85,25.84,5.8,26,5.76,26.11Z"/><path class="cls-6" d="M7.49,27.28s0,.08,0,.12v0a1.77,1.77,0,0,0,.26-.35L7.57,27C7.54,27.08,7.52,27.18,7.49,27.28Z"/><path class="cls-6" d="M7.85,26.37a2.17,2.17,0,0,0,0-.25,2.25,2.25,0,0,1,0,.22A.32.32,0,0,0,7.85,26.37Z"/><path class="cls-6" d="M6.71,27.32c-.18-.09-.38-.15-.57-.23L6,27.52c0,.06,0,.12,0,.18a6.5,6.5,0,0,1,.61.25,1,1,0,0,1,0-.3C6.67,27.54,6.69,27.43,6.71,27.32Z"/><path class="cls-6" d="M7.52,27a3.32,3.32,0,0,0-.6-.29c0,.2-.09.41-.14.62h0l.09,0,.2.12s.14.11.2.09h0l.08-.07s0-.12,0-.15S7.48,27.07,7.52,27Z"/><path class="cls-6" d="M6.9,27.42l-.13-.07a2.46,2.46,0,0,1-.07.29c0,.1,0,.2,0,.3l.17-.08a2.57,2.57,0,0,0,.41-.26l-.11-.05Z"/><path class="cls-6" d="M7.74,26.4l-.12.43,0,.09.12.07h0l.06-.17a1.4,1.4,0,0,0,0-.41A.45.45,0,0,1,7.74,26.4Z"/><path class="cls-6" d="M7.19,25.71a1.71,1.71,0,0,0-.09.3l0,0a2.83,2.83,0,0,1,.4.17l.17.1A2,2,0,0,1,7.8,26a1.31,1.31,0,0,0,0-.15c-.18-.07-.35-.19-.53-.28Z"/><path class="cls-6" d="M7.32,25.39l-.08.17.19.09a2.19,2.19,0,0,0,.3.16,1.54,1.54,0,0,0-.08-.19,1.79,1.79,0,0,0-.27-.44A1.66,1.66,0,0,1,7.32,25.39Z"/><path class="cls-6" d="M5.4,27.12c0-.07,0-.14,0-.21l-.18,0L5,26.82s0,.08,0,.11l-.06.13s0,.06,0,.06,0,0,0,.05l.18.26.27.06A2.58,2.58,0,0,1,5.4,27.12Z"/><path class="cls-6" d="M6,27.78l0,.15V28h0a1,1,0,0,0,.24,0A1.34,1.34,0,0,0,6.52,28,5.55,5.55,0,0,0,6,27.75Z"/><path class="cls-6" d="M4.91,26.11l.2,0,.06-.25c0-.11,0-.22.08-.33l-.35,0a3.43,3.43,0,0,1-.34-.06,1.51,1.51,0,0,0,0,.52s0,.07,0,.11h.14Z"/><path class="cls-6" d="M5,26.75H5l.12-.54-.32-.05a.9.9,0,0,1-.23,0,2.71,2.71,0,0,0,.12.55,2.8,2.8,0,0,0,.28.06Z"/><path class="cls-6" d="M5,26.8l-.1,0-.18,0a1.69,1.69,0,0,0,.12.28.25.25,0,0,0,0,.07s0,0,0,0A2.18,2.18,0,0,0,5,26.8Z"/><path class="cls-6" d="M5.91,27.73l-.1,0-.39-.12h0v0s0,.1,0,.12h0a1.37,1.37,0,0,0,.2.13,2.21,2.21,0,0,0,.27.12.3.3,0,0,1,0-.1A1.1,1.1,0,0,1,5.91,27.73Z"/><path class="cls-6" d="M5.33,27.55l-.2-.05.19.18s0-.09,0-.13Z"/><path class="cls-6" d="M14,31.92c-.45-.46-.86-1-1.3-1.43s-.87-.94-1.33-1.38A6.72,6.72,0,0,0,9.93,28a6.42,6.42,0,0,0-1.58-.54s0,0,0,0a9.65,9.65,0,0,1,1.55.58,7.05,7.05,0,0,1,1.46,1.15c.45.42.88.88,1.31,1.33s.87.94,1.32,1.4c0,0,0,0,0,0Z"/><path class="cls-6" d="M8.57,27.54h.07a2.89,2.89,0,0,0,2.48-.83s0,0,0-.05,0,0,0,0c-.29-.26-.86,0-1.16.1-.5.2-.91.55-1.41.74C8.53,27.48,8.52,27.54,8.57,27.54Zm2.08-.87h0Zm-1.51.82a3.51,3.51,0,0,0,.48-.22c.3-.14.61-.26.91-.41l.26-.06A3.48,3.48,0,0,1,9.14,27.49Z"/><path class="cls-6" d="M8.55,27.53c.06.52-.06,1,0,1.59,0,.32.08.94.45,1.07H9a.1.1,0,0,0,.05,0,2.93,2.93,0,0,0-.41-2.59.25.25,0,0,0,0-.07S8.55,27.49,8.55,27.53Zm.26,2.24v0h0Zm.18,0a1.83,1.83,0,0,1-.06-.25c0-.33,0-.67-.06-1a5,5,0,0,0,0-.53A3.46,3.46,0,0,1,9,29.8Z"/><path class="cls-6" d="M9.63,27.89l.07,0a2.93,2.93,0,0,0,2.62-.17.05.05,0,0,0,0,0v0c-.22-.33-.83-.25-1.15-.21-.53.07-1,.3-1.55.36C9.61,27.82,9.59,27.87,9.63,27.89Zm2.24-.31h0ZM10.2,28c.17,0,.36-.07.52-.09.33-.06.66-.1,1-.17H12A3.51,3.51,0,0,1,10.2,28Z"/><path class="cls-6" d="M9.55,27.91c0,.53-.14,1.05-.13,1.59,0,.32,0,.94.37,1.1h0s0,0,0,0A2.92,2.92,0,0,0,9.66,28l0-.07A0,0,0,0,0,9.55,27.91Zm.1,2.25h0Zm.17.05c0-.08,0-.17-.05-.25,0-.33,0-.67,0-1a4.42,4.42,0,0,0,0-.52A3.36,3.36,0,0,1,9.82,30.21Z"/><path class="cls-6" d="M10.69,28.58l.07,0a3,3,0,0,0,2.62-.16.05.05,0,0,0,0-.05v0c-.22-.33-.83-.25-1.15-.21-.53.07-1,.31-1.55.37C10.67,28.51,10.65,28.57,10.69,28.58Zm2.24-.31h0Zm-1.67.41a3.86,3.86,0,0,0,.51-.09c.33-.05.67-.09,1-.16H13A3.5,3.5,0,0,1,11.26,28.68Z"/><path class="cls-6" d="M10.7,28.59c-.24.47-.63.85-.89,1.32-.15.29-.44.83-.21,1.15h.09a2.89,2.89,0,0,0,1.08-2.39.17.17,0,0,0,0-.07C10.78,28.55,10.72,28.55,10.7,28.59Zm-1,2h0Zm.13.13c0-.08,0-.16.08-.25.18-.28.34-.58.5-.87a3.82,3.82,0,0,0,.27-.45A3.51,3.51,0,0,1,9.82,30.73Z"/><path class="cls-6" d="M11.44,29.26l.07,0a2.91,2.91,0,0,0,2.58.45.1.1,0,0,0,0-.05s0,0,0,0c-.13-.37-.75-.43-1.07-.47-.53-.06-1.07.06-1.59,0A0,0,0,0,0,11.44,29.26Zm2.26.22Zm-1.73,0a4.84,4.84,0,0,0,.53,0c.33,0,.66.07,1,.07l.25.08A3.56,3.56,0,0,1,12,29.49Z"/><path class="cls-6" d="M11.42,29.25c-.12.52-.42,1-.55,1.49-.09.32-.24.92.06,1.17a0,0,0,0,0,0,0,0,0,0,0,0,.06,0,2.94,2.94,0,0,0,.49-2.57s0-.05,0-.08S11.43,29.22,11.42,29.25Zm-.51,2.2v0h0Zm.15.09c0-.08,0-.17,0-.25.11-.32.19-.65.29-1,0-.15.12-.33.15-.5A3.41,3.41,0,0,1,11.06,31.54Z"/><path class="cls-6" d="M12.57,25.65a5.31,5.31,0,0,1-.65.19,2.57,2.57,0,0,1-.68,0,1.67,1.67,0,0,0-.31,0,3.71,3.71,0,0,1,.46-.19c.36-.11.74-.17,1.1-.27a3.74,3.74,0,0,0,1.86-1.2s0,0,0,0a7.35,7.35,0,0,1-.85.72,4.13,4.13,0,0,1-1.21.5,4.27,4.27,0,0,0-1.68.55.14.14,0,0,0,0-.06l0,0a2,2,0,0,1,.72-.4c.36-.13.73-.23,1.09-.35a4.69,4.69,0,0,0,.93-.45,3.63,3.63,0,0,0,.86-.75s0,0,0,0a4.31,4.31,0,0,0-.46.39,3.43,3.43,0,0,1-.54.4,6,6,0,0,1-1.09.43,9.32,9.32,0,0,0-1,.37,1.55,1.55,0,0,0-.33.18,1.74,1.74,0,0,0,.11-.18,6.37,6.37,0,0,1,.8-.46c.3-.15.63-.25.94-.37a3.44,3.44,0,0,0,1.62-1.19s0,0,0,0c-.26.23-.5.49-.78.7a3.63,3.63,0,0,1-1,.48,6.59,6.59,0,0,0-1.46.71,1.44,1.44,0,0,1,.18-.25,5.46,5.46,0,0,1,.79-.43c.32-.15.66-.24,1-.4a2.8,2.8,0,0,0,1.22-1.21s0,0,0,0c-.21.22-.36.5-.58.71a3.15,3.15,0,0,1-.85.54,8.55,8.55,0,0,0-1.38.62l.18-.22,0,0,.54-.37c.24-.15.5-.26.74-.41a6.11,6.11,0,0,0,.67-.46,2.16,2.16,0,0,0,.47-.65s0,0,0,0a4.82,4.82,0,0,1-.5.6,4.49,4.49,0,0,1-.73.5c-.31.18-.62.35-.91.55.3-.29.63-.56.94-.84l.11-.09a3.6,3.6,0,0,0,.52-.43,4.49,4.49,0,0,0,.37-.52s0,0,0,0c-.15.17-.29.35-.45.51s-.31.26-.47.39l-.08.06a8.4,8.4,0,0,0-.85.73l0,0h0l-.14.14,0,0a4.4,4.4,0,0,1,.51-.69,6.34,6.34,0,0,1,.69-.68,6.88,6.88,0,0,0,.53-.55s0,0,0,0a6.8,6.8,0,0,0-.57.5,6.88,6.88,0,0,0-.55.53,5.7,5.7,0,0,0-.52.67,2.7,2.7,0,0,1-.33.5,9.9,9.9,0,0,0,.48-1,4.2,4.2,0,0,1,1.22-1.49s0,0,0,0a2.93,2.93,0,0,0-1.18,1.28c-.14.25-.24.53-.36.79a5.63,5.63,0,0,1-.51.85h0l-.06.08a7.87,7.87,0,0,0,.61-1.44A4.37,4.37,0,0,1,12.67,22s0,0,0,0c-.27.13-.41.41-.59.64a3.78,3.78,0,0,0-.47.83c-.12.31-.21.62-.34.92s-.31.61-.43.93a12.38,12.38,0,0,0,.25-1.3,3.53,3.53,0,0,1,.31-.95,6,6,0,0,1,.64-.86s0,0,0,0a2.62,2.62,0,0,0-1,1.55c-.08.33-.12.67-.18,1s-.11.46-.16.68v-.49A3.89,3.89,0,0,1,11,23s0,0,0,0a2.34,2.34,0,0,0-.42,1.61c0,.24,0,.48,0,.72a2.24,2.24,0,0,1-.05.58s0,0,0,0,0,0,0,0a.61.61,0,0,1-.05.12h0a.25.25,0,0,1,0,.07s0,0,0,0A2.17,2.17,0,0,1,11,26a2.78,2.78,0,0,1,.58,0,2.1,2.1,0,0,0,1-.28S12.58,25.65,12.57,25.65Zm-1.17-1h0l0,0Zm-.58.72a.21.21,0,0,0,0,.06s0-.05,0-.07Z"/><path class="cls-7" d="M7.54,25.84a.51.51,0,0,0,.16-.09.71.71,0,0,0,.17-.57c0-.16,0-.29.19-.35s.11-.12.1-.21-.22-.26-.38-.32-.06-.21-.2-.22a1.83,1.83,0,0,1,0,.47.72.72,0,0,1-.9.69A2.6,2.6,0,0,1,6,24.88a1.94,1.94,0,0,0-.71-.34.91.91,0,0,0-.89.21c0,.13.15.16.26.18-.11.18,0,.3.07.44a.66.66,0,0,1,.79,0,4.39,4.39,0,0,0,.56.4l0,0,0,0a1.29,1.29,0,0,0,.28,0,1.26,1.26,0,0,1,.72,0A.59.59,0,0,0,7.54,25.84Z"/><path class="cls-8" d="M3.86,26.44a2.11,2.11,0,0,0-.17.82.71.71,0,0,0,.09.38.21.21,0,0,0,.27.06.24.24,0,0,1,.37.11.14.14,0,0,0,.15.07A1.11,1.11,0,0,0,4.72,27c-.06-.3-.14-.6-.18-.91L4.39,26c-.13-.07-.23-.05-.26.1A.55.55,0,0,1,3.86,26.44Z"/><path class="cls-31" d="M9.46,30.48c0-.52,0-1,.07-1.55l.09-1.39v-.22a.24.24,0,0,0-.28-.12c0,.52,0,1,0,1.56s0,1-.07,1.43c0,.11,0,.22,0,.32s.09.23.14.35.07,0,.08,0A1.3,1.3,0,0,1,9.46,30.48Z"/><path class="cls-9" d="M3.86,26.44c.16,0,.27-.07.28-.25s0-.07,0-.11.07-.08.14,0,.13.11.22.09a1.49,1.49,0,0,1,.16-.75c0-.09,0-.19-.08-.26s0,0,0-.06a.21.21,0,0,0,.07-.17.39.39,0,0,1-.33-.13h0l0,.05h0s0,0,0,0a.79.79,0,0,0-.21.38,4.61,4.61,0,0,0-.19,1.1s0,.06,0,.08Z"/><path class="cls-32" d="M12.11,28.84l-.21,1.32c0,.15-.05.31-.08.47s0,.18-.07.28,0,.18.11.21a.55.55,0,0,0,.37.2.1.1,0,0,0,0,0,.69.69,0,0,1-.12-.62l.18-1.59a.65.65,0,0,0,0-.14c0-.05,0-.11,0-.16s0-.17-.06-.18-.12.06-.12.15,0,0,0,0,0,0,0,0,0,0,0,0A.15.15,0,0,0,12.11,28.84Z"/><path class="cls-33" d="M12.46,25.44a.93.93,0,0,0-.05.29c0,.27,0,.55-.06.83h.17c.05,0,.1,0,.15,0a2.6,2.6,0,0,0,.23-1.26.34.34,0,0,0,0-.2c-.11,0-.21.08-.24-.09s-.06,0-.09,0v.15c-.06.11.08.14.1.23S12.51,25.39,12.46,25.44Z"/><path class="cls-34" d="M9.34,27.2l.28.12a1.59,1.59,0,0,0,.06-.43,4,4,0,0,0,.1-.91.43.43,0,0,0,0-.19.49.49,0,0,0-.17,0c-.07,0-.11.09,0,.16-.09,0,0-.1,0-.14s-.1,0-.15,0a1.31,1.31,0,0,0,0,.59C9.33,26.65,9.33,26.93,9.34,27.2Z"/><path class="cls-10" d="M3.84,28.92a1.54,1.54,0,0,0,.74.61l.19,0c.11,0,.14,0,.09-.13a1.09,1.09,0,0,0-.08-.15,1.56,1.56,0,0,1-.25-.54c-.11-.07-.26,0-.37-.1s0,0-.06.06,0,.14-.16.13A.07.07,0,0,0,3.84,28.92Z"/><path class="cls-11" d="M4.45,28.48a1.6,1.6,0,0,1,0-.44.35.35,0,0,0-.3-.31.39.39,0,0,0-.37.18.5.5,0,0,0-.1.19c0,.23,0,.24.3.25.1-.1,0,.1.1.06a.15.15,0,0,1,.2.06C4.36,28.52,4.4,28.56,4.45,28.48Z"/><path class="cls-35" d="M12.11,28.84a.14.14,0,0,0,.07-.08h0c-.06-.09.05-.09.07-.18a1.72,1.72,0,0,1,.05.35,3.11,3.11,0,0,0,.1-.61c0-.24.06-.48.1-.72-.09,0-.08,0-.09-.07s0-.29-.11-.38a2.42,2.42,0,0,0-.07.47c-.05.38-.08.76-.13,1.14C12.1,28.79,12.11,28.81,12.11,28.84Z"/><path class="cls-36" d="M8.14,24.6a.22.22,0,0,1-.2.22c-.09,0-.12.08-.12.18a3.71,3.71,0,0,1,0,.47c0,.1-.06.18-.09.28a1.32,1.32,0,0,0,.56-.92.87.87,0,0,0,0-.48C8.21,24.43,8.1,24.47,8.14,24.6Z"/><path class="cls-8" d="M7.54,25.84a1.57,1.57,0,0,1-.61-.07.37.37,0,0,0-.21,0c-.2,0-.39.05-.59.1A1.33,1.33,0,0,0,7.54,25.84Z"/><path class="cls-37" d="M9.33,25.79c0,.06.09,0,.13,0a.09.09,0,0,0,.12,0c.05,0,.11.07.16,0a0,0,0,0,0,0,0c-.06-.06,0-.14,0-.21h0c-.1,0,0-.1,0-.14A2.4,2.4,0,0,0,9.62,25s0-.08-.08-.11-.1-.05-.13,0A3.47,3.47,0,0,1,9.33,25.79Z"/><path class="cls-12" d="M4.05,28.32a.8.8,0,0,1-.15,0c-.16,0-.16,0-.16-.21a.06.06,0,0,0,0-.09.72.72,0,0,0,0,.41,3.73,3.73,0,0,0,.09.46s0,0,0,.06.07,0,.11,0,.2,0,.18-.17,0-.14,0-.21A1.54,1.54,0,0,0,4.05,28.32Z"/><path class="cls-13" d="M3.73,28v.09a1.37,1.37,0,0,1,.16-.18c.2-.2.37-.18.52.07a.23.23,0,0,0,.07.07l.08-.16a.67.67,0,0,1-.21-.23c0-.1-.11-.1-.19,0a.39.39,0,0,1-.39,0A2.11,2.11,0,0,0,3.73,28Z"/><path class="cls-38" d="M12.3,27.15a.7.7,0,0,1,.06.35.22.22,0,0,1,0,.08.11.11,0,0,0,.08.1s0-.07.07-.08l.12-.72c-.23.11-.21-.11-.28-.21A1.56,1.56,0,0,0,12.3,27.15Z"/><path class="cls-14" d="M4.45,28.48s-.08,0-.1,0a.16.16,0,0,0-.13-.11c-.06,0-.08,0-.09.07l0,.05c0,.08,0,.17.08.23a.22.22,0,0,0,.32.06l0,0C4.51,28.67,4.48,28.57,4.45,28.48Z"/><path class="cls-39" d="M12.34,26.67v.12c0,.08,0,.14.11.17s.12,0,.17-.08v-.07s0-.12,0-.17v-.08c-.05,0-.11-.13-.17,0-.05,0-.1-.09-.15,0Z"/><path class="cls-34" d="M9.7,25.55c0,.07-.07.16,0,.21A.32.32,0,0,0,9.7,25.55Z"/><path class="cls-33" d="M12.66,26.64c-.06.05,0,.11,0,.17A.27.27,0,0,0,12.66,26.64Z"/><path class="cls-8" d="M3.86,26.39a.08.08,0,0,0,0-.08A.11.11,0,0,0,3.86,26.39Z"/><path class="cls-8" d="M6.1,25.83l0,0Z"/><path class="cls-15" d="M4.3,27v0a.09.09,0,0,1,0,.05c0,.07,0,.14,0,.23s.17,0,.09-.13.05,0,.06-.06-.08,0,0-.06,0-.05,0-.06l0,0A0,0,0,0,0,4.3,27Z"/><path class="cls-16" d="M4.38,27l0,.06s0,0,0,0S4.43,27,4.38,27Z"/><path class="cls-17" d="M4.45,27.07h0c0,.05,0,.05,0,.06Z"/><path class="cls-16" d="M4.3,27h0S4.31,27,4.3,27Z"/><path class="cls-16" d="M4.33,27.09a.05.05,0,0,0,0-.05A.05.05,0,0,0,4.33,27.09Z"/><path class="cls-35" d="M12.18,28.76h0s0,0,0,0Z"/><path class="cls-40" d="M9.54,26.38a.4.4,0,0,0,.07-.16c-.08,0-.15.08-.22,0,0,.12,0,.2,0,.29s.08.08.12.11.06,0,.08-.08S9.52,26.48,9.54,26.38Z"/><path class="cls-41" d="M9.58,25.8H9.46v.06c0,.12,0,.14.11.11s.07,0,.08,0-.08,0-.11,0S9.57,25.84,9.58,25.8Z"/><path class="cls-18" d="M4.18,28.68l0-.24c-.08,0,0,.06,0,.09s0,.14,0,.19Z"/><path class="cls-19" d="M4.09,28.53a.09.09,0,0,1,0-.09v0a.12.12,0,0,1,0-.09s0,0,0,0,0,0,0,0S4,28.47,4.09,28.53Z"/><path class="cls-34" d="M9.42,25.66s0,.06.07.05,0,0,0,0l-.08-.05S9.43,25.64,9.42,25.66Z"/><path class="cls-34" d="M9.59,25.66h0s0,0,0,0Z"/><path class="cls-33" d="M12.5,26.55c0,.06,0,.11.06.15S12.58,26.58,12.5,26.55Z"/></g><g class="cls-42"><path class="cls-6" d="M1.13,27l0,.2a.14.14,0,0,1,.09,0,1.3,1.3,0,0,0-.17-.44.43.43,0,0,1,0,.05A1.62,1.62,0,0,1,1.13,27Z"/><path class="cls-6" d="M-.51,29.21c0,.05,0,.1,0,.15L0,29.31H0s0-.07,0-.1a3.62,3.62,0,0,0,0-.47.49.49,0,0,0,0-.12l-.39.06-.14,0v.1C-.49,28.94-.5,29.07-.51,29.21Z"/><path class="cls-6" d="M.35,28.52H.52V28.4l0-.42L.25,28,.06,28c0,.17,0,.35,0,.52Z"/><path class="cls-6" d="M1.19,27.43c0,.13,0,.26,0,.39h0a1.64,1.64,0,0,0,0-.54v0H1.17A1,1,0,0,0,1.19,27.43Z"/><path class="cls-6" d="M1.22,27.9v0h0V28A.64.64,0,0,1,1.22,27.9Z"/><path class="cls-6" d="M-.42,28.62,0,28.55c0-.17,0-.35,0-.53l-.56.05a3.68,3.68,0,0,1,.06.57Z"/><path class="cls-6" d="M-.16,26.78v.06c0,.16.07.32.1.48l.43,0H.45a5.21,5.21,0,0,0-.09-.57H.3Z"/><path class="cls-6" d="M.42,27.35l-.46,0c0,.12.05.23.06.35l0,.23H.18l.3,0c0-.12,0-.25,0-.37s0-.14,0-.21Z"/><path class="cls-6" d="M1.15,27.89.77,28,.55,28c0,.13,0,.26,0,.39a.76.76,0,0,1,0,.15,2.08,2.08,0,0,0,.43,0,2.88,2.88,0,0,0,.13-.31V28A.61.61,0,0,0,1.15,27.89Z"/><path class="cls-6" d="M.79,26.52c-.05-.05-.13-.11-.15-.18a.43.43,0,0,1-.33-.15v0c0,.11,0,.22.08.33s0,.07,0,.1a2.9,2.9,0,0,1,.51,0Z"/><path class="cls-6" d="M.73,27.89l.42-.06v0c0-.14,0-.28,0-.42s0-.07,0-.1l-.6.07a.38.38,0,0,0,0,.1c0,.16,0,.32,0,.47Z"/><path class="cls-6" d="M.25,26a.55.55,0,0,0,.18.19c.06,0,.14.05.21.09h0c.07.05.13.12.2.18l.19.14a1,1,0,0,1,.62-.32,1.75,1.75,0,0,1,.4,0,2.44,2.44,0,0,0,.27,0c-.08-.14-.32-.19-.47-.2a.91.91,0,0,0-.54.06h0l-.05.05s0,0,0,0a1.29,1.29,0,0,1,.51-.5A1.41,1.41,0,0,1,2,25.49a.85.85,0,0,0,.22-.09,1.14,1.14,0,0,0-.52,0,.76.76,0,0,0-.29.13l-.13.12a1.07,1.07,0,0,1-.15.22s0,0,0,0,.05-.09.07-.14h0a1.21,1.21,0,0,0,.16-.45,1,1,0,0,0-.09-.58l-.19.48a2.36,2.36,0,0,1-.29.48s0,0,0,0a1.12,1.12,0,0,1-.09-.22,1.71,1.71,0,0,0-.13-.23,1.16,1.16,0,0,0-.25-.29,1.65,1.65,0,0,1,.1.58A1,1,0,0,1,.25,26Z"/><path class="cls-6" d="M.07,29.44l.22-.13-.22,0A.14.14,0,0,0,.07,29.44Z"/><path class="cls-6" d="M0,29.35l-.45.06H-.53s0,.1,0,.15v0h.17a1.87,1.87,0,0,0,.4-.13A.2.2,0,0,1,0,29.35Z"/><path class="cls-6" d="M.42,28.57l-.32,0v0c0,.15,0,.29,0,.44a1.5,1.5,0,0,1,0,.2,1.33,1.33,0,0,1,.28,0l.12-.1c0-.2,0-.4,0-.6Z"/><path class="cls-6" d="M1,26.68l-.6,0a5.62,5.62,0,0,1,.09.57l.36,0,.23,0c0-.08,0-.17,0-.25a1.55,1.55,0,0,0,0-.21S1,26.7,1,26.68Z"/><path class="cls-6" d="M.76,28.56H.58c0,.07,0,.14,0,.21a1.94,1.94,0,0,0,0,.34L.68,29a2.08,2.08,0,0,0,.3-.43A.83.83,0,0,1,.76,28.56Z"/><path class="cls-6" d="M.29,26.66H.35c0-.11,0-.21-.07-.31a.61.61,0,0,0-.08-.27h0a1.41,1.41,0,0,0-.54,0l.18.69Z"/><path class="cls-6" d="M2.52,30.79a.49.49,0,0,0,.24-.08c.07-.05.11-.11.17-.16h0l.24-.11.21-.12a1,1,0,0,1-.05-.69,2.52,2.52,0,0,1,.12-.39c0-.08.1-.16.13-.24-.17,0-.31.22-.38.35a.89.89,0,0,0-.16.52h0l0,.06s0,0,0,0a1.2,1.2,0,0,1-.26-.66,2,2,0,0,1,0-.34.65.65,0,0,0,0-.24,1.24,1.24,0,0,0-.2.49.65.65,0,0,0,0,.31l.06.17a.83.83,0,0,1,.14.22s0,0,0,0l-.1-.12h0a1.15,1.15,0,0,0-.34-.32,1.07,1.07,0,0,0-.57-.16l.36.38a1.6,1.6,0,0,1,.32.45s0,0,0,0a1,1,0,0,1-.25,0,1.18,1.18,0,0,0-.26,0,1.21,1.21,0,0,0-.37.11,1.65,1.65,0,0,1,.58.14,1,1,0,0,1,.45.37Z"/></g></g></g><path class="cls-43" d="M15,2.5A12.5,12.5,0,1,1,2.5,15,12.5,12.5,0,0,1,15,2.5M15,1A14,14,0,1,0,29,15,14,14,0,0,0,15,1Z"/></svg>