<svg id="Livello_1" data-name="Livello 1" xmlns="http://www.w3.org/2000/svg" xmlns:xlink="http://www.w3.org/1999/xlink" viewBox="0 0 30 30"><defs><style>.cls-1,.cls-2{fill:none;}.cls-2{stroke:#000;stroke-miterlimit:10;stroke-width:0.5px;}.cls-3{clip-path:url(#clip-path);}.cls-4{clip-path:url(#clip-path-2);}.cls-5{clip-path:url(#clip-path-3);}.cls-6{fill:#fff2e2;}.cls-7{fill:#d1d1d1;}</style><clipPath id="clip-path"><circle class="cls-1" cx="-35" cy="65" r="12.5" transform="translate(-14.26 -5.85) rotate(-11.98)"/></clipPath><clipPath id="clip-path-2"><rect class="cls-1" x="-49.32" y="50.74" width="27.53" height="27.53"/></clipPath><clipPath id="clip-path-3"><rect class="cls-1" x="-24.11" y="25.68" width="23.49" height="28.26"/></clipPath></defs><circle class="cls-2" cx="15" cy="15" r="12.5"/><path d="M12.6,22H9.83V11.14l-2.7,1V9.88l5.18-2.12h.29Z"/><path d="M23.56,9.37,19.07,22H16.15l4.51-11.92H15V7.78h8.61Z"/><g class="cls-3"><g class="cls-4"><g class="cls-5"><path class="cls-6" d="M-.49,30.79a.49.49,0,0,0,.24-.08l.17-.16h0l.24-.11a2.12,2.12,0,0,0,.2-.12,1.09,1.09,0,0,1,0-.69,2.52,2.52,0,0,1,.12-.39c0-.08.1-.16.13-.24-.17,0-.31.22-.38.35a.89.89,0,0,0-.16.52H0l0,.06s0,0,0,0a1.2,1.2,0,0,1-.26-.66,1.33,1.33,0,0,1-.05-.34,1,1,0,0,0,0-.24,1.24,1.24,0,0,0-.2.49.65.65,0,0,0,0,.31l.06.17a.8.8,0,0,1,.13.22s0,0,0,0l-.1-.12h0a1.15,1.15,0,0,0-.34-.32,1.07,1.07,0,0,0-.57-.16l.36.38a1.6,1.6,0,0,1,.32.45s0,0,0,0a1,1,0,0,1-.24,0,1.14,1.14,0,0,0-.26,0,1.21,1.21,0,0,0-.37.11,1.65,1.65,0,0,1,.58.14,1,1,0,0,1,.45.37Z"/></g></g></g><path class="cls-7" d="M15,2.5A12.5,12.5,0,1,1,2.5,15,12.5,12.5,0,0,1,15,2.5M15,1A14,14,0,1,0,29,15,14,14,0,0,0,15,1Z"/></svg>