<svg id="Livello_1" data-name="Livello 1" xmlns="http://www.w3.org/2000/svg" viewBox="0 0 30 30"><defs><style>.cls-1{fill:none;stroke:#000;stroke-miterlimit:10;stroke-width:0.5px;}.cls-2{fill:#d1d1d1;}</style></defs><circle class="cls-1" cx="15" cy="15" r="12.5"/><path d="M12.6,22H9.83V11.14l-2.7,1V9.88l5.18-2.12h.29Z"/><path d="M23.19,11.56a3.82,3.82,0,0,1-.44,1.84,3.54,3.54,0,0,1-1.21,1.28,3.63,3.63,0,0,1,1.38,1.37,4,4,0,0,1,.51,2.05,3.78,3.78,0,0,1-4.07,4.1,4.09,4.09,0,0,1-3-1.1,4,4,0,0,1-1.11-3,4.16,4.16,0,0,1,.5-2.06,3.59,3.59,0,0,1,1.4-1.36,3.41,3.41,0,0,1-1.22-1.28,3.82,3.82,0,0,1-.44-1.84,4,4,0,0,1,1-2.92,3.76,3.76,0,0,1,2.8-1.05,3.74,3.74,0,0,1,2.81,1.06A4,4,0,0,1,23.19,11.56ZM19.36,19.9a1.08,1.08,0,0,0,1-.53,2.82,2.82,0,0,0,.34-1.48,2.76,2.76,0,0,0-.35-1.49,1.12,1.12,0,0,0-1-.53,1.11,1.11,0,0,0-1,.53A2.67,2.67,0,0,0,18,17.89a2.63,2.63,0,0,0,.36,1.48A1.12,1.12,0,0,0,19.36,19.9Zm1.07-8.19a2.78,2.78,0,0,0-.27-1.33.88.88,0,0,0-.82-.5.87.87,0,0,0-.8.48,2.8,2.8,0,0,0-.28,1.35,2.88,2.88,0,0,0,.28,1.35.91.91,0,0,0,1.63,0A3,3,0,0,0,20.43,11.71Z"/><path class="cls-2" d="M15,2.5A12.5,12.5,0,1,1,2.5,15,12.5,12.5,0,0,1,15,2.5M15,1A14,14,0,1,0,29,15,14,14,0,0,0,15,1Z"/></svg>