<svg id="Livello_1" data-name="Livello 1" xmlns="http://www.w3.org/2000/svg" viewBox="0 0 30 30"><defs><style>.cls-1{fill:none;stroke:#000;stroke-miterlimit:10;stroke-width:0.5px;}.cls-2{fill:#d1d1d1;}</style></defs><circle class="cls-1" cx="15" cy="15" r="12.5"/><path d="M12.6,22H9.83V11.14l-2.7,1V9.88l5.18-2.12h.29Z"/><path d="M20.58,16.5a2.66,2.66,0,0,1-1.92.9,3,3,0,0,1-2.56-1.3,5.88,5.88,0,0,1-.93-3.48A6.08,6.08,0,0,1,15.7,10a4.22,4.22,0,0,1,1.47-1.81,3.62,3.62,0,0,1,2.1-.64,3.42,3.42,0,0,1,2.14.71,4.56,4.56,0,0,1,1.45,2,8.25,8.25,0,0,1,.52,3v1a9,9,0,0,1-1.59,5.68,5.52,5.52,0,0,1-4.53,2.09H17V19.76h.18a3.27,3.27,0,0,0,2.44-.84A3.93,3.93,0,0,0,20.58,16.5Zm-1.22-1.27c.53,0,.95-.36,1.26-1.09V12.87a5.22,5.22,0,0,0-.38-2.19c-.26-.53-.59-.8-1-.8s-.72.26-1,.79a4.41,4.41,0,0,0-.37,1.92,4.13,4.13,0,0,0,.38,1.93A1.17,1.17,0,0,0,19.36,15.23Z"/><path class="cls-2" d="M15,2.5A12.5,12.5,0,1,1,2.5,15,12.5,12.5,0,0,1,15,2.5M15,1A14,14,0,1,0,29,15,14,14,0,0,0,15,1Z"/></svg>