<svg id="Livello_1" data-name="Livello 1" xmlns="http://www.w3.org/2000/svg" viewBox="0 0 30 30"><defs><style>.cls-1{fill:none;stroke:#000;stroke-miterlimit:10;stroke-width:0.5px;}.cls-2{fill:#d1d1d1;}</style></defs><circle class="cls-1" cx="15" cy="15" r="12.5"/><path d="M14.9,22H6.52V20.05l3.85-4.9a10.3,10.3,0,0,0,1.08-1.78,3.56,3.56,0,0,0,.34-1.47,2.93,2.93,0,0,0-.32-1.48,1.05,1.05,0,0,0-1-.54,1.2,1.2,0,0,0-1.06.63,3.19,3.19,0,0,0-.4,1.75H6.29a5.28,5.28,0,0,1,.54-2.39A4.06,4.06,0,0,1,8.35,8.19a4.2,4.2,0,0,1,2.22-.6,4,4,0,0,1,3,1.05,4,4,0,0,1,1.05,3A5.84,5.84,0,0,1,14,14.06a15.23,15.23,0,0,1-2.11,3l-1.82,2.61H14.9Z"/><path d="M23.48,16.12a8,8,0,0,1-1.07,4.51,3.48,3.48,0,0,1-3.05,1.57,3.49,3.49,0,0,1-3-1.52,7.62,7.62,0,0,1-1.11-4.35V13.64a8,8,0,0,1,1.06-4.5,3.49,3.49,0,0,1,3.06-1.55A3.49,3.49,0,0,1,22.4,9.13a7.84,7.84,0,0,1,1.08,4.4Zm-2.77-2.88a7.24,7.24,0,0,0-.34-2.52,1.1,1.1,0,0,0-1-.84c-.88,0-1.34,1-1.37,3.08V16.5a7.14,7.14,0,0,0,.34,2.56,1.11,1.11,0,0,0,1.05.84,1.07,1.07,0,0,0,1-.79,6.9,6.9,0,0,0,.35-2.4Z"/><path class="cls-2" d="M15,2.5A12.5,12.5,0,1,1,2.5,15,12.5,12.5,0,0,1,15,2.5M15,1A14,14,0,1,0,29,15,14,14,0,0,0,15,1Z"/></svg>