<svg id="Livello_1" data-name="Livello 1" xmlns="http://www.w3.org/2000/svg" viewBox="0 0 30 30"><defs><style>.cls-1{fill:none;stroke:#000;stroke-miterlimit:10;stroke-width:0.5px;}.cls-2{fill:#d1d1d1;}</style></defs><circle class="cls-1" cx="15" cy="15" r="12.5"/><path d="M14.9,22H6.52V20.05l3.85-4.9a10.3,10.3,0,0,0,1.08-1.78,3.56,3.56,0,0,0,.34-1.47,2.93,2.93,0,0,0-.32-1.48,1.05,1.05,0,0,0-1-.54,1.2,1.2,0,0,0-1.06.63,3.19,3.19,0,0,0-.4,1.75H6.29a5.28,5.28,0,0,1,.54-2.39A4.06,4.06,0,0,1,8.35,8.19a4.2,4.2,0,0,1,2.22-.6,4,4,0,0,1,3,1.05,4,4,0,0,1,1.05,3A5.84,5.84,0,0,1,14,14.06a15.23,15.23,0,0,1-2.11,3l-1.82,2.61H14.9Z"/><path d="M15.5,15l.7-7.23h6.89v2.36H18.47l-.25,3a2.9,2.9,0,0,1,1.65-.54,3.22,3.22,0,0,1,2.71,1.25,5.8,5.8,0,0,1,1,3.54,5.12,5.12,0,0,1-1.13,3.45,3.83,3.83,0,0,1-3,1.31,4.16,4.16,0,0,1-2.08-.54,3.9,3.9,0,0,1-1.51-1.48A4.14,4.14,0,0,1,15.22,18H18a2.55,2.55,0,0,0,.44,1.37,1.17,1.17,0,0,0,2-.17,4.07,4.07,0,0,0,.37-2,3.14,3.14,0,0,0-.44-1.85,1.44,1.44,0,0,0-1.25-.63,1.46,1.46,0,0,0-1.21.54l-.17.24Z"/><path class="cls-2" d="M15,2.5A12.5,12.5,0,1,1,2.5,15,12.5,12.5,0,0,1,15,2.5M15,1A14,14,0,1,0,29,15,14,14,0,0,0,15,1Z"/></svg>