<svg id="Livello_1" data-name="Livello 1" xmlns="http://www.w3.org/2000/svg" viewBox="0 0 30 30"><defs><style>.cls-1{fill:none;stroke:#000;stroke-miterlimit:10;stroke-width:0.5px;}.cls-2{fill:#d1d1d1;}</style></defs><circle class="cls-1" cx="15" cy="15" r="12.5"/><path d="M14.9,22H6.52V20.05l3.85-4.9a10.3,10.3,0,0,0,1.08-1.78,3.56,3.56,0,0,0,.34-1.47,2.93,2.93,0,0,0-.32-1.48,1.05,1.05,0,0,0-1-.54,1.2,1.2,0,0,0-1.06.63,3.19,3.19,0,0,0-.4,1.75H6.29a5.28,5.28,0,0,1,.54-2.39A4.06,4.06,0,0,1,8.35,8.19a4.2,4.2,0,0,1,2.22-.6,4,4,0,0,1,3,1.05,4,4,0,0,1,1.05,3A5.84,5.84,0,0,1,14,14.06a15.23,15.23,0,0,1-2.11,3l-1.82,2.61H14.9Z"/><path d="M21.81,7.63V10h-.16a3.33,3.33,0,0,0-2.46.93,4.27,4.27,0,0,0-1.11,2.58,3,3,0,0,1,4.69.31,6,6,0,0,1,.92,3.51,5.89,5.89,0,0,1-.52,2.52,4.18,4.18,0,0,1-1.48,1.75,3.92,3.92,0,0,1-2.16.62,3.7,3.7,0,0,1-3.1-1.56,6.84,6.84,0,0,1-1.16-4.18v-1A10.64,10.64,0,0,1,16,11.32,6.06,6.06,0,0,1,18.13,8.6a5.66,5.66,0,0,1,3.25-1Zm-2.37,7.12a1.26,1.26,0,0,0-.89.34,2,2,0,0,0-.53.82v1a4.89,4.89,0,0,0,.4,2.25,1.13,1.13,0,0,0,2.12,0,3.72,3.72,0,0,0,.4-1.84,3.78,3.78,0,0,0-.41-1.87A1.24,1.24,0,0,0,19.44,14.75Z"/><path class="cls-2" d="M15,2.5A12.5,12.5,0,1,1,2.5,15,12.5,12.5,0,0,1,15,2.5M15,1A14,14,0,1,0,29,15,14,14,0,0,0,15,1Z"/></svg>