<svg id="Livello_1" data-name="Livello 1" xmlns="http://www.w3.org/2000/svg" viewBox="0 0 30 30"><defs><style>.cls-1{fill:none;stroke:#000;stroke-miterlimit:10;stroke-width:0.5px;}.cls-2{fill:#d1d1d1;}</style></defs><circle class="cls-1" cx="15" cy="15" r="12.5"/><path d="M9,13.63h1.34a1.26,1.26,0,0,0,1.12-.53,2.6,2.6,0,0,0,.35-1.42,2.17,2.17,0,0,0-.36-1.33,1.19,1.19,0,0,0-1-.47,1.17,1.17,0,0,0-.95.45,1.76,1.76,0,0,0-.36,1.13H6.37a3.79,3.79,0,0,1,.52-2A3.68,3.68,0,0,1,8.32,8.08a4.28,4.28,0,0,1,2-.49,4.21,4.21,0,0,1,3.07,1.08,3.92,3.92,0,0,1,1.12,3,3.35,3.35,0,0,1-.51,1.79,3.42,3.42,0,0,1-1.32,1.27A3,3,0,0,1,14.23,16a4,4,0,0,1,.49,2,4,4,0,0,1-1.2,3,4.44,4.44,0,0,1-3.17,1.15,3.88,3.88,0,0,1-4.1-4.1H9a2,2,0,0,0,.4,1.28,1.23,1.23,0,0,0,1,.52,1.35,1.35,0,0,0,1.12-.53A2.18,2.18,0,0,0,12,18c0-1.4-.54-2.11-1.63-2.11H9Z"/><path d="M23.48,16.12a8,8,0,0,1-1.07,4.51,3.48,3.48,0,0,1-3.05,1.57,3.49,3.49,0,0,1-3-1.52,7.62,7.62,0,0,1-1.11-4.35V13.64a8,8,0,0,1,1.06-4.5,3.49,3.49,0,0,1,3.06-1.55A3.49,3.49,0,0,1,22.4,9.13a7.84,7.84,0,0,1,1.08,4.4Zm-2.77-2.88a7.24,7.24,0,0,0-.34-2.52,1.1,1.1,0,0,0-1-.84c-.88,0-1.34,1-1.37,3.08V16.5a7.14,7.14,0,0,0,.34,2.56,1.11,1.11,0,0,0,1.05.84,1.07,1.07,0,0,0,1-.79,6.9,6.9,0,0,0,.35-2.4Z"/><path class="cls-2" d="M15,2.5A12.5,12.5,0,1,1,2.5,15,12.5,12.5,0,0,1,15,2.5M15,1A14,14,0,1,0,29,15,14,14,0,0,0,15,1Z"/></svg>