<svg id="Livello_1" data-name="Livello 1" xmlns="http://www.w3.org/2000/svg" viewBox="0 0 30 30"><defs><style>.cls-1{fill:none;stroke:#000;stroke-miterlimit:10;stroke-width:0.5px;}.cls-2{fill:#d1d1d1;}</style></defs><circle class="cls-1" cx="15" cy="15" r="12.5"/><path d="M11.15,15l.7-7.23h6.89v2.36H14.12l-.25,3a2.9,2.9,0,0,1,1.65-.54,3.22,3.22,0,0,1,2.71,1.25,5.8,5.8,0,0,1,.95,3.54,5.12,5.12,0,0,1-1.13,3.45,3.83,3.83,0,0,1-3,1.31,4.16,4.16,0,0,1-2.08-.54,3.84,3.84,0,0,1-1.51-1.48A4.24,4.24,0,0,1,10.87,18H13.6A2.64,2.64,0,0,0,14,19.41a1.15,1.15,0,0,0,1,.49,1.14,1.14,0,0,0,1.05-.66,4.06,4.06,0,0,0,.38-2A3.13,3.13,0,0,0,16,15.42a1.43,1.43,0,0,0-1.24-.63,1.48,1.48,0,0,0-1.22.54l-.17.24Z"/><path class="cls-2" d="M15,2.5A12.5,12.5,0,1,1,2.5,15,12.5,12.5,0,0,1,15,2.5M15,1A14,14,0,1,0,29,15,14,14,0,0,0,15,1Z"/></svg>