<svg id="Livello_1" data-name="Livello 1" xmlns="http://www.w3.org/2000/svg" viewBox="0 0 30 30"><defs><style>.cls-1{fill:none;stroke:#000;stroke-miterlimit:10;stroke-width:0.5px;}.cls-2{fill:#d1d1d1;}</style></defs><circle class="cls-1" cx="15" cy="15" r="12.5"/><path d="M17.46,7.63V10H17.3a3.37,3.37,0,0,0-2.46.93,4.27,4.27,0,0,0-1.11,2.58,3,3,0,0,1,4.69.31,6,6,0,0,1,.93,3.51,5.89,5.89,0,0,1-.53,2.52,4.18,4.18,0,0,1-1.48,1.75,3.89,3.89,0,0,1-2.15.62,3.7,3.7,0,0,1-3.11-1.56,6.84,6.84,0,0,1-1.16-4.18v-1a10.67,10.67,0,0,1,.73-4.12A6.06,6.06,0,0,1,13.78,8.6a5.66,5.66,0,0,1,3.25-1Zm-2.37,7.12a1.24,1.24,0,0,0-.89.34,2.12,2.12,0,0,0-.53.82v1a5,5,0,0,0,.4,2.25,1.13,1.13,0,0,0,2.12,0,3.72,3.72,0,0,0,.4-1.84,3.78,3.78,0,0,0-.41-1.87A1.24,1.24,0,0,0,15.09,14.75Z"/><path class="cls-2" d="M15,2.5A12.5,12.5,0,1,1,2.5,15,12.5,12.5,0,0,1,15,2.5M15,1A14,14,0,1,0,29,15,14,14,0,0,0,15,1Z"/></svg>