<svg id="Livello_1" data-name="Livello 1" xmlns="http://www.w3.org/2000/svg" viewBox="0 0 30 30"><defs><style>.cls-1{fill:none;stroke:#000;stroke-miterlimit:10;stroke-width:0.5px;}.cls-2{fill:#d1d1d1;}</style></defs><circle class="cls-1" cx="15" cy="15" r="12.5"/><path d="M18.84,11.56a3.82,3.82,0,0,1-.44,1.84,3.54,3.54,0,0,1-1.21,1.28,3.63,3.63,0,0,1,1.38,1.37,4,4,0,0,1,.51,2.05,4.07,4.07,0,0,1-1.09,3,4,4,0,0,1-3,1.1,4.09,4.09,0,0,1-3-1.1,4,4,0,0,1-1.11-3A4.06,4.06,0,0,1,11.41,16a3.5,3.5,0,0,1,1.39-1.36,3.41,3.41,0,0,1-1.22-1.28,3.82,3.82,0,0,1-.44-1.84,4,4,0,0,1,1-2.92A3.76,3.76,0,0,1,15,7.59,3.72,3.72,0,0,1,17.8,8.65,4,4,0,0,1,18.84,11.56ZM15,19.9a1.07,1.07,0,0,0,1-.53,2.73,2.73,0,0,0,.34-1.48A2.76,2.76,0,0,0,16,16.4a1.15,1.15,0,0,0-1.94,0,2.67,2.67,0,0,0-.36,1.49A2.63,2.63,0,0,0,14,19.37,1.14,1.14,0,0,0,15,19.9Zm1.07-8.19a2.78,2.78,0,0,0-.27-1.33.91.91,0,0,0-1.62,0,2.81,2.81,0,0,0-.27,1.35,2.89,2.89,0,0,0,.27,1.35.88.88,0,0,0,.82.51.87.87,0,0,0,.81-.51A2.9,2.9,0,0,0,16.08,11.71Z"/><path class="cls-2" d="M15,2.5A12.5,12.5,0,1,1,2.5,15,12.5,12.5,0,0,1,15,2.5M15,1A14,14,0,1,0,29,15,14,14,0,0,0,15,1Z"/></svg>