<svg id="Livello_1" data-name="Livello 1" xmlns="http://www.w3.org/2000/svg" viewBox="0 0 30 30"><defs><style>.cls-1{fill:none;stroke:#000;stroke-miterlimit:10;stroke-width:0.5px;}.cls-2{fill:#d1d1d1;}</style></defs><circle class="cls-1" cx="15" cy="15" r="12.5"/><path d="M16.23,16.5a2.66,2.66,0,0,1-1.92.9,3,3,0,0,1-2.56-1.3,5.88,5.88,0,0,1-.93-3.48A6.23,6.23,0,0,1,11.35,10a4.22,4.22,0,0,1,1.47-1.81,3.64,3.64,0,0,1,2.1-.64,3.4,3.4,0,0,1,2.14.71,4.57,4.57,0,0,1,1.46,2,8.46,8.46,0,0,1,.51,3v1a9,9,0,0,1-1.59,5.68,5.55,5.55,0,0,1-4.53,2.09h-.28V19.76h.18a3.25,3.25,0,0,0,2.44-.84A3.93,3.93,0,0,0,16.23,16.5ZM15,15.23c.53,0,1-.36,1.26-1.09V12.87a5.22,5.22,0,0,0-.38-2.19c-.26-.53-.58-.8-1-.8s-.72.26-1,.79a4.56,4.56,0,0,0-.37,1.92A4.13,4.13,0,0,0,14,14.52,1.17,1.17,0,0,0,15,15.23Z"/><path class="cls-2" d="M15,2.5A12.5,12.5,0,1,1,2.5,15,12.5,12.5,0,0,1,15,2.5M15,1A14,14,0,1,0,29,15,14,14,0,0,0,15,1Z"/></svg>