<svg id="Livello_1" data-name="Livello 1" xmlns="http://www.w3.org/2000/svg" viewBox="0 0 30 30"><defs><style>.cls-1{fill:none;stroke:#000;stroke-miterlimit:10;stroke-width:0.5px;}.cls-2{fill:#d1d1d1;}</style></defs><circle class="cls-1" cx="15" cy="15" r="12.5"/><path d="M10.53,22V7.78h4.4a5.07,5.07,0,0,1,3.38,1,3.62,3.62,0,0,1,1.16,2.91A3.48,3.48,0,0,1,19,13.54a2.92,2.92,0,0,1-1.31,1.15,2.43,2.43,0,0,1,1.47,1.09,3.73,3.73,0,0,1,.52,2A4.07,4.07,0,0,1,18.53,21,4.66,4.66,0,0,1,15.24,22Zm2.87-8.27h1.5A1.52,1.52,0,0,0,16.59,12a2,2,0,0,0-.39-1.39,1.67,1.67,0,0,0-1.27-.42H13.4Zm0,2.09v3.8h1.84a1.45,1.45,0,0,0,1.17-.48,2,2,0,0,0,.4-1.36c0-1.28-.46-1.93-1.39-2Z"/><path class="cls-2" d="M15,2.5A12.5,12.5,0,1,1,2.5,15,12.5,12.5,0,0,1,15,2.5M15,1A14,14,0,1,0,29,15,14,14,0,0,0,15,1Z"/></svg>