<svg id="Livello_1" data-name="Livello 1" xmlns="http://www.w3.org/2000/svg" viewBox="0 0 30 30"><defs><style>.cls-1{fill:none;stroke:#000;stroke-miterlimit:10;stroke-width:0.5px;}.cls-2{fill:#d1d1d1;}</style></defs><circle class="cls-1" cx="15" cy="15" r="12.5"/><path d="M20.08,17.26A5.35,5.35,0,0,1,18.71,21a4.83,4.83,0,0,1-3.55,1.25,4.49,4.49,0,0,1-3.7-1.59,7,7,0,0,1-1.28-4.53V13.69A6.9,6.9,0,0,1,11.5,9.17a4.55,4.55,0,0,1,3.69-1.58,4.63,4.63,0,0,1,3.54,1.29,5.94,5.94,0,0,1,1.37,3.74H17.22a3.79,3.79,0,0,0-.47-2.08A1.83,1.83,0,0,0,15.19,10a1.76,1.76,0,0,0-1.63.8,5.82,5.82,0,0,0-.5,2.66v2.68A6.17,6.17,0,0,0,13.53,19a1.74,1.74,0,0,0,1.63.79,1.88,1.88,0,0,0,1.56-.55,3.61,3.61,0,0,0,.49-2Z"/><path class="cls-2" d="M15,2.5A12.5,12.5,0,1,1,2.5,15,12.5,12.5,0,0,1,15,2.5M15,1A14,14,0,1,0,29,15,14,14,0,0,0,15,1Z"/></svg>