<svg id="Livello_1" data-name="Livello 1" xmlns="http://www.w3.org/2000/svg" viewBox="0 0 30 30"><defs><style>.cls-1{fill:none;stroke:#000;stroke-miterlimit:10;stroke-width:0.5px;}.cls-2{fill:#d1d1d1;}</style></defs><circle class="cls-1" cx="15" cy="15" r="12.5"/><path d="M10.49,22V7.78h3.76a5.18,5.18,0,0,1,4,1.58,6.2,6.2,0,0,1,1.51,4.34V16a6.2,6.2,0,0,1-1.48,4.4A5.25,5.25,0,0,1,14.17,22Zm2.87-11.83v9.45h.86a2.42,2.42,0,0,0,2-.76,4.41,4.41,0,0,0,.62-2.61V13.78A5,5,0,0,0,16.3,11a2.26,2.26,0,0,0-1.89-.83Z"/><path class="cls-2" d="M15,2.5A12.5,12.5,0,1,1,2.5,15,12.5,12.5,0,0,1,15,2.5M15,1A14,14,0,1,0,29,15,14,14,0,0,0,15,1Z"/></svg>