<svg id="Livello_1" data-name="Livello 1" xmlns="http://www.w3.org/2000/svg" xmlns:xlink="http://www.w3.org/1999/xlink" viewBox="0 0 30 30"><defs><style>.cls-1,.cls-2{fill:none;}.cls-2{stroke:#000;stroke-miterlimit:10;stroke-width:0.5px;}.cls-3{clip-path:url(#clip-path);}.cls-4{clip-path:url(#clip-path-2);}.cls-5{clip-path:url(#clip-path-3);}.cls-6{fill:#fff2e2;}.cls-7{clip-path:url(#clip-path-4);}.cls-8{fill:#f091a4;}.cls-10,.cls-11,.cls-12,.cls-13,.cls-14,.cls-15,.cls-16,.cls-8,.cls-9{fill-rule:evenodd;}.cls-9{fill:#42170f;}.cls-10{fill:#fbd4b8;}.cls-11{fill:#f9c7a5;}.cls-12{fill:#f6b18a;}.cls-13{fill:#f8be9b;}.cls-14{fill:#fad0b2;}.cls-15{fill:#7c4a37;}.cls-16{fill:#b17b60;}.cls-17{fill:#d1d1d1;}</style><clipPath id="clip-path"><circle class="cls-1" cx="65" cy="15" r="12.5" transform="translate(-1.7 13.82) rotate(-11.98)"/></clipPath><clipPath id="clip-path-2"><rect class="cls-1" x="50.68" y="0.74" width="27.53" height="27.53"/></clipPath><clipPath id="clip-path-3"><rect class="cls-1" x="28.9" y="-24.32" width="23.49" height="28.26"/></clipPath><clipPath id="clip-path-4"><rect class="cls-1" x="28.9" y="3.94" width="23.49" height="28.26"/></clipPath></defs><circle class="cls-2" cx="15" cy="15" r="12.5"/><path d="M20,20.39a5.14,5.14,0,0,1-2,1.35,7.46,7.46,0,0,1-2.64.46,4.87,4.87,0,0,1-3.81-1.52,6.57,6.57,0,0,1-1.39-4.42V13.7a7.08,7.08,0,0,1,1.28-4.53,4.54,4.54,0,0,1,3.75-1.58A4.84,4.84,0,0,1,18.6,8.73,5.39,5.39,0,0,1,20,12.31H17.17a3.27,3.27,0,0,0-.57-1.85A1.82,1.82,0,0,0,15.19,10a1.82,1.82,0,0,0-1.68.85,5.27,5.27,0,0,0-.55,2.7V16.1a5.27,5.27,0,0,0,.58,2.83,2.11,2.11,0,0,0,1.91.88,2.5,2.5,0,0,0,1.38-.34l.25-.18v-2.6h-2V14.52H20Z"/><g class="cls-3"><g class="cls-4"><g class="cls-5"><path class="cls-6" d="M29.49.24c-.63.16-1.26.29-1.89.44s-1.24.3-1.85.5a6.93,6.93,0,0,0-1.68.7A6.29,6.29,0,0,0,22.83,3a0,0,0,0,0,0,0A9.14,9.14,0,0,1,24.11,2a6.6,6.6,0,0,1,1.71-.72c.6-.19,1.2-.35,1.8-.5S28.87.42,29.49.25c0,0,0,0,0,0Z"/><path class="cls-6" d="M27.46.74c.28.25.46.6.74.86s.48.46.74.36a0,0,0,0,0,0,0,0,0,0,0,0,0,0A2.06,2.06,0,0,0,27.53.71l-.05,0S27.44.72,27.46.74Zm1.19,1.08h0Zm.11-.07-.15-.1c-.16-.18-.34-.34-.5-.51a3.25,3.25,0,0,0-.26-.27A2.47,2.47,0,0,1,28.76,1.75Z"/><path class="cls-6" d="M28.53.51h0A2.11,2.11,0,0,0,30.4.13a0,0,0,0,0,0,0v0c-.19-.21-.61-.09-.83,0-.37.1-.69.32-1.06.42C28.51.46,28.5.5,28.53.51ZM30.07.06h0ZM28.94.52A1.8,1.8,0,0,0,29.29.4c.23-.07.46-.13.68-.22h.19A2.45,2.45,0,0,1,28.94.52Z"/><path class="cls-6" d="M33.08-1.84c-.07.22-.14.43-.23.64a3,3,0,0,1-.4.54l-.18.26a2.85,2.85,0,0,1,.13-.48c.13-.35.31-.69.44-1A3.76,3.76,0,0,0,33-4.13s0,0,0,0A7,7,0,0,1,33.05-3a4.35,4.35,0,0,1-.33,1.26,4.36,4.36,0,0,0-.57,1.67l0,0,0,0A2.07,2.07,0,0,1,32.22-1c.11-.36.25-.72.37-1.08a4.31,4.31,0,0,0,.2-1,3.64,3.64,0,0,0-.08-1.14s0,0,0,0a3.13,3.13,0,0,0,0,.61,3.76,3.76,0,0,1,0,.67,5.75,5.75,0,0,1-.31,1.13,8.16,8.16,0,0,0-.34,1.06A3.33,3.33,0,0,0,32-.36c0-.07,0-.13-.07-.2a5.63,5.63,0,0,1,.1-.91c.07-.33.18-.65.27-1a3.41,3.41,0,0,0,0-2s0,0,0,0c0,.35.09.69.09,1a3.9,3.9,0,0,1-.21,1.08,6.31,6.31,0,0,0-.32,1.6L31.78-1c0-.3.07-.59.13-.89s.21-.67.27-1A2.79,2.79,0,0,0,32-4.64s0,0,0,0c0,.3.18.58.22.89a3.33,3.33,0,0,1-.08,1,8.35,8.35,0,0,0-.34,1.48l-.06-.28v0l0-.66c0-.27.09-.55.12-.83a5.57,5.57,0,0,0,0-.82,2,2,0,0,0-.24-.76s0,0,0,0a4.68,4.68,0,0,1,.18.76,5.07,5.07,0,0,1,0,.87c0,.37-.1.72-.11,1.07-.05-.42-.07-.84-.11-1.26v-.14a3.07,3.07,0,0,0,0-.68,3,3,0,0,0-.19-.6h0c0,.23.11.45.14.67s0,.41,0,.61v.1a7,7,0,0,0,.07,1.12v0h0a1.11,1.11,0,0,0,0,.19v0a5.08,5.08,0,0,1-.24-.82,5.27,5.27,0,0,1-.13-1A6.71,6.71,0,0,0,31-4.47s0,0,0,0a4.74,4.74,0,0,0,.06.75,6.31,6.31,0,0,0,.09.76,6.23,6.23,0,0,0,.22.82,2.35,2.35,0,0,1,.2.56c-.13-.33-.32-.64-.49-1a4.17,4.17,0,0,1-.46-1.87h0a2.91,2.91,0,0,0,.3,1.71c.12.27.28.51.42.77a5,5,0,0,1,.38.92h0l0,.1a7.88,7.88,0,0,0-.78-1.36,4.37,4.37,0,0,1-.71-1.84s0,0,0,0a1.71,1.71,0,0,0,.15.86,3.38,3.38,0,0,0,.38.87c.17.28.37.55.54.83s.29.61.47.9a9.25,9.25,0,0,0-.89-1,3.84,3.84,0,0,1-.56-.82,5.85,5.85,0,0,1-.31-1s0,0,0,0a2.58,2.58,0,0,0,.64,1.71c.22.27.47.5.7.76s.3.35.45.53l-.4-.3a4,4,0,0,1-1.3-1.39s0,0,0,0a2.29,2.29,0,0,0,1,1.31l.57.43a2.32,2.32,0,0,1,.44.39s0,0,0,.05h0l.07.11a0,0,0,0,0,0,0,.3.3,0,0,0,0,.08,0,0,0,0,0,0,0,3.61,3.61,0,0,1,.12-.55,2.94,2.94,0,0,1,.32-.49,2.26,2.26,0,0,0,.41-1A0,0,0,0,0,33.08-1.84Zm-1.51.33h0v0Zm.23.9a.14.14,0,0,1,0,.07.16.16,0,0,0,0-.07Z"/></g><g class="cls-7"><path class="cls-6" d="M29.49,28.5c-.63.16-1.26.29-1.89.44s-1.24.3-1.85.49a7,7,0,0,0-1.68.71,6.29,6.29,0,0,0-1.24,1.12s0,0,0,0a10.76,10.76,0,0,1,1.25-1.08,6.94,6.94,0,0,1,1.71-.71c.6-.19,1.2-.35,1.8-.5s1.25-.31,1.87-.48c0,0,0,0,0,0Z"/><path class="cls-6" d="M27.46,29c.28.25.46.59.74.86s.48.46.74.36c0,0,0,0,0,0a0,0,0,0,0,0,0A2,2,0,0,0,27.53,29l-.05,0S27.44,29,27.46,29Zm1.19,1.07h0Zm.11-.06-.15-.1c-.16-.18-.34-.34-.5-.51a3.25,3.25,0,0,0-.26-.27A2.47,2.47,0,0,1,28.76,30Z"/><path class="cls-6" d="M28.53,28.77h0a2.11,2.11,0,0,0,1.82-.39,0,0,0,0,0,0,0v0c-.19-.21-.61-.09-.83,0-.37.1-.69.32-1.06.41C28.51,28.72,28.5,28.76,28.53,28.77Zm1.54-.45h0Zm-1.13.46a2.86,2.86,0,0,0,.35-.12c.23-.07.46-.13.68-.22l.19,0A2.57,2.57,0,0,1,28.94,28.78Z"/><path class="cls-6" d="M33.08,26.42c-.07.21-.14.43-.23.63a2.77,2.77,0,0,1-.4.55l-.18.26a2.85,2.85,0,0,1,.13-.48c.13-.35.31-.69.44-1.05a3.76,3.76,0,0,0,.17-2.2s0,0,0,0a7,7,0,0,1,.07,1.12,4.2,4.2,0,0,1-.33,1.25,4.47,4.47,0,0,0-.57,1.68l0-.05,0,0a2.07,2.07,0,0,1,.12-.82c.11-.36.25-.72.37-1.08a4.41,4.41,0,0,0,.2-1,3.64,3.64,0,0,0-.08-1.14s0,0,0,0a3.13,3.13,0,0,0,0,.61,3.64,3.64,0,0,1,0,.66,5.66,5.66,0,0,1-.31,1.14,8.16,8.16,0,0,0-.34,1.06,3.13,3.13,0,0,0-.05.36c0-.06,0-.12-.07-.19a5.63,5.63,0,0,1,.1-.91c.07-.33.18-.65.27-1a3.44,3.44,0,0,0,0-2s0,0,0,0c0,.35.09.69.09,1a4,4,0,0,1-.21,1.08,6.31,6.31,0,0,0-.32,1.6l-.09-.3c0-.3.07-.59.13-.89s.21-.67.27-1a2.77,2.77,0,0,0-.23-1.7s0,0,0,0c0,.31.18.59.22.9a3.38,3.38,0,0,1-.08,1A8.45,8.45,0,0,0,31.72,27l-.06-.27v0l0-.65c0-.28.09-.55.12-.83a5.57,5.57,0,0,0,0-.82,2,2,0,0,0-.24-.76h0a5.23,5.23,0,0,1,.18.76,5.14,5.14,0,0,1,0,.88c0,.37-.1.71-.11,1.07-.05-.42-.07-.84-.11-1.26v-.15a2.64,2.64,0,0,0-.23-1.27s0,0,0,0c0,.23.11.45.14.67s0,.41,0,.61V25a7,7,0,0,0,.07,1.12v0h0a1.23,1.23,0,0,0,0,.19v0a4.55,4.55,0,0,1-.24-.82,5.05,5.05,0,0,1-.13-.95,6.71,6.71,0,0,0-.13-.76h0a4.77,4.77,0,0,0,.06.76,6.56,6.56,0,0,0,.09.76,5.7,5.7,0,0,0,.22.81,2.42,2.42,0,0,1,.2.57c-.13-.33-.32-.64-.49-1a4.2,4.2,0,0,1-.46-1.87s0,0,0,0a2.91,2.91,0,0,0,.3,1.71c.12.27.28.51.42.77a5,5,0,0,1,.38.92h0l0,.09A8.18,8.18,0,0,0,30.93,26a4.46,4.46,0,0,1-.71-1.85s0,0,0,0a1.71,1.71,0,0,0,.15.86,3.38,3.38,0,0,0,.38.87c.17.28.37.54.54.83s.29.61.47.9a9.25,9.25,0,0,0-.89-1,3.84,3.84,0,0,1-.56-.82,6.11,6.11,0,0,1-.31-1h0a2.6,2.6,0,0,0,.64,1.72c.22.27.47.5.7.75s.3.36.45.54l-.4-.3a4,4,0,0,1-1.3-1.39s0,0,0,0a2.35,2.35,0,0,0,1,1.31l.57.42a2.79,2.79,0,0,1,.44.4.08.08,0,0,0,0,0,0,0,0,0,0,0,0l.07.11h0a.3.3,0,0,0,0,.08s0,0,0,0a3.37,3.37,0,0,1,.12-.55,2.3,2.3,0,0,1,.32-.49,2.26,2.26,0,0,0,.41-1S33.09,26.41,33.08,26.42Zm-1.51.33h0v0Zm.23.89a.25.25,0,0,1,0,.07l0-.06Z"/><path class="cls-8" d="M27.42,24.72a1.49,1.49,0,0,1,1.24,0,1.08,1.08,0,0,1,.61,1,.26.26,0,0,1-.24.05c-.16,0-.27,0-.3.2a.21.21,0,0,1-.06.1c-.09.06-.12,0-.16-.07a1,1,0,0,0-.61-.36h0c-.14,0-.26.12-.4,0a.43.43,0,0,1,.1-.31,1.09,1.09,0,0,0,.17-.34c0-.14,0-.19-.16-.17l-.08,0a.12.12,0,0,1-.13,0C27.32,24.77,27.39,24.75,27.42,24.72Z"/><path class="cls-9" d="M29.63,26.92a2,2,0,0,1-.17.53.78.78,0,0,1-.65.45c0-.3.06-.59.07-.89a.69.69,0,0,0,.2-.45.06.06,0,0,1,.06,0s0,0,0,0c.18.26.18.26.45.09A.48.48,0,0,1,29.63,26.92Z"/><path class="cls-10" d="M29.63,26.92v-.24c-.05,0-.05,0-.07,0s-.3.13-.37-.07c0,0,0-.08-.05-.13a.11.11,0,0,1,0-.08c.07-.18.13-.38.39-.36a.7.7,0,0,1,.11.37c0,.09.05.16.05.24A.32.32,0,0,1,29.63,26.92Z"/><path class="cls-11" d="M29.51,26.08s0,.06,0,.05-.21.08-.24.2a.17.17,0,0,1-.09.11c-.05,0-.07,0-.1-.06s0,0-.06,0-.08.11-.16.09a2.56,2.56,0,0,1-.11-.24c0-.06,0-.16.15-.17a.35.35,0,0,0,.2-.07.44.44,0,0,1,.37,0A.32.32,0,0,1,29.51,26.08Z"/><path class="cls-12" d="M28.87,26.08a.12.12,0,0,0-.08.1.08.08,0,0,1-.08.06l-.09-.11v-.05a.54.54,0,0,0,.09-.24c0-.09.06-.12.14-.12h.42l0,.08c0,.12-.15.08-.2.16l0,0,0,0-.06,0,0,0h-.06Z"/><path class="cls-13" d="M28.82,26.48c.06,0,.06-.15.17-.12H29a.47.47,0,0,1,.06.21.51.51,0,0,1-.07.34c0,.06-.08.11-.15.1s0-.22,0-.33,0-.08,0-.12Z"/><path class="cls-14" d="M28.91,26h0L29,26h0s0,0,0,0,.16-.1.24-.16.09.1.12.16a1,1,0,0,0-.48.15c-.05,0-.06,0-.08,0h0Z"/><path class="cls-15" d="M29.1,26.57a.32.32,0,0,1-.08-.21s0,0,.05,0l.07.08v.08Z"/><path class="cls-16" d="M29.07,26.36H29s0-.09,0-.09S29.05,26.32,29.07,26.36Z"/><path class="cls-11" d="M29,26a.1.1,0,0,1-.09,0A.1.1,0,0,1,29,26Z"/><path class="cls-11" d="M28.91,26l0,0Z"/><path class="cls-11" d="M29.07,26l0,0Z"/><path class="cls-6" d="M29.27,17.92c.42.49.8,1,1.2,1.52s.81,1,1.24,1.47a7.1,7.1,0,0,0,1.35,1.22,6.27,6.27,0,0,0,1.54.64s0,0,0,0a9.3,9.3,0,0,1-1.51-.68,7,7,0,0,1-1.37-1.24c-.43-.46-.83-.94-1.22-1.42s-.81-1-1.23-1.49Z"/><path class="cls-6" d="M32.34,21.48s-.05,0-.07,0a2.94,2.94,0,0,0-2.62,0,.05.05,0,0,0,0,0,0,0,0,0,0,0,0c.19.35.8.31,1.13.29.53,0,1-.24,1.57-.26C32.36,21.55,32.38,21.49,32.34,21.48Zm-2.26.15h0Zm1.7-.29a4.36,4.36,0,0,0-.52.05c-.33,0-.67.05-1,.1l-.26,0A3.49,3.49,0,0,1,31.78,21.34Z"/><path class="cls-6" d="M31.64,20.75l-.07,0A2.9,2.9,0,0,0,29,20.08s0,0,0,0,0,0,0,0c.1.37.71.48,1,.54.53.09,1.07,0,1.59.12C31.63,20.82,31.67,20.78,31.64,20.75Zm-2.24-.37Zm1.73.11a3.35,3.35,0,0,0-.53-.07c-.33-.05-.66-.11-1-.14l-.25-.09A3.43,3.43,0,0,1,31.13,20.49Z"/><path class="cls-6" d="M30.64,19.57l0,0a2.06,2.06,0,0,0-1.81-.44l0,0v0c.08.27.51.34.74.38s.76,0,1.13.09C30.64,19.62,30.67,19.59,30.64,19.57Zm-1.58-.27h0Zm1.22.08c-.12,0-.26,0-.37-.05s-.47-.08-.71-.1L29,19.17A2.53,2.53,0,0,1,30.28,19.38Z"/><path class="cls-6" d="M29.92,18.67a.09.09,0,0,0,0-.05,2.08,2.08,0,0,0-1.13-1.48,0,0,0,0,0,0,0h0c-.11.26.18.59.33.77s.58.48.82.77C29.89,18.71,29.93,18.7,29.92,18.67Zm-1.06-1.2h0Zm.9.83A2.23,2.23,0,0,0,29.5,18c-.16-.18-.31-.36-.48-.53l-.1-.15A2.4,2.4,0,0,1,29.76,18.3Z"/><path class="cls-6" d="M27.27,22.76l.05,0a2,2,0,0,0,1.83.32,0,0,0,0,0,0,0,0,0,0,0,0,0,0c-.09-.26-.52-.31-.75-.33s-.76,0-1.14,0C27.27,22.7,27.24,22.74,27.27,22.76Zm1.6.16Zm-1.23,0a2.48,2.48,0,0,0,.38,0c.23,0,.47,0,.71.06l.18.05A2.48,2.48,0,0,1,27.64,22.92Z"/><path class="cls-6" d="M28.05,23.6a.08.08,0,0,0,0,0,2.07,2.07,0,0,0,1.22,1.41s0,0,0,0,0,0,0,0c.1-.27-.21-.58-.38-.74s-.61-.45-.87-.72C28.08,23.56,28,23.57,28.05,23.6Zm1.14,1.14h0Zm-1-.77c.08.09.19.17.27.25l.52.49.11.15A2.48,2.48,0,0,1,28.24,24Z"/><path class="cls-6" d="M27.32,18c-.21.06-.42.14-.64.19a3.88,3.88,0,0,1-.68,0,1.62,1.62,0,0,0-.31,0,2.11,2.11,0,0,1,.46-.19c.36-.11.74-.17,1.1-.28a3.77,3.77,0,0,0,1.86-1.19s0,0,0,0a6.64,6.64,0,0,1-.86.73,3.94,3.94,0,0,1-1.2.49,4.62,4.62,0,0,0-1.68.55s0,0,0-.05l0,0a2,2,0,0,1,.72-.41c.36-.12.73-.22,1.08-.35a4,4,0,0,0,.93-.44,3.49,3.49,0,0,0,.87-.75s0,0,0,0a4.51,4.51,0,0,0-.47.4,2.9,2.9,0,0,1-.53.39,5.41,5.41,0,0,1-1.09.44,10.17,10.17,0,0,0-1.06.36,3,3,0,0,0-.32.19l.11-.18a7,7,0,0,1,.79-.46c.31-.15.63-.25,1-.37A3.51,3.51,0,0,0,29,15.87s0,0,0,0c-.26.23-.5.48-.78.69a3.66,3.66,0,0,1-1,.49,6.15,6.15,0,0,0-1.46.7l.17-.24a6.23,6.23,0,0,1,.8-.44c.32-.14.66-.23,1-.39a2.77,2.77,0,0,0,1.22-1.22s0,0,0,0c-.21.22-.36.5-.59.71a2.72,2.72,0,0,1-.84.53,8.55,8.55,0,0,0-1.38.62l.18-.21,0,0,.54-.37c.24-.15.5-.27.74-.41a5.06,5.06,0,0,0,.67-.47,2.35,2.35,0,0,0,.47-.65s0,0,0,0a7.22,7.22,0,0,1-.5.6,5.23,5.23,0,0,1-.73.5c-.31.18-.62.35-.91.55.3-.29.63-.56.94-.84l.11-.09a3.57,3.57,0,0,0,.52-.44,2.68,2.68,0,0,0,.36-.52s0,0,0,0c-.15.17-.29.36-.45.52a5.58,5.58,0,0,1-.47.38l-.08.07a6.44,6.44,0,0,0-.85.73l0,0h0a1.59,1.59,0,0,1-.13.13l0,0A4.83,4.83,0,0,1,27,16a5.54,5.54,0,0,1,.69-.68,6.89,6.89,0,0,0,.52-.56s0,0,0,0a3.85,3.85,0,0,0-.57.5c-.19.17-.38.34-.55.52a6.67,6.67,0,0,0-.52.67,2.78,2.78,0,0,1-.33.51c.19-.31.32-.65.48-1a4.28,4.28,0,0,1,1.21-1.49s0,0,0,0a2.9,2.9,0,0,0-1.18,1.27c-.14.26-.24.53-.36.8a5.63,5.63,0,0,1-.51.85h0l-.06.07a7.59,7.59,0,0,0,.61-1.44,4.53,4.53,0,0,1,1.06-1.67s0,0,0,0a1.66,1.66,0,0,0-.59.64,3.24,3.24,0,0,0-.47.83c-.12.3-.21.62-.34.92s-.31.61-.43.92a11.47,11.47,0,0,0,.25-1.3,3.46,3.46,0,0,1,.31-.94,6,6,0,0,1,.64-.86s0,0,0,0a2.66,2.66,0,0,0-1,1.55c-.08.33-.11.67-.17,1s-.11.45-.17.68c0-.17,0-.33,0-.5a3.93,3.93,0,0,1,.33-1.88s0,0,0,0A2.33,2.33,0,0,0,25.32,17v.71a2.32,2.32,0,0,1-.05.59l0,0s0,0,0,0l-.05.12v0a.43.43,0,0,0,0,.07s0,0,0,0a2.27,2.27,0,0,1,.5-.23,2.88,2.88,0,0,1,.59,0,2.1,2.1,0,0,0,1-.28S27.34,18,27.32,18Zm-1.17-1h0l0,0Zm-.57.72,0,.06,0-.07Z"/><path class="cls-6" d="M29.62,11.72h0l.43.13.06,0,0-.07c0-.18.09-.36.14-.53a4,4,0,0,0-.57-.16.14.14,0,0,1,0,.06c0,.16-.07.31-.09.47Z"/><path class="cls-6" d="M30.39,11c0-.11.07-.23.11-.34l-.13,0-.45-.1a4.81,4.81,0,0,0-.16.54q.28.06.57.15Z"/><path class="cls-6" d="M29.55,9.73h.05l.49.1c.05-.13.09-.26.14-.4l0-.06a3.47,3.47,0,0,0-.55-.16.14.14,0,0,0,0,.06C29.63,9.43,29.59,9.58,29.55,9.73Z"/><path class="cls-6" d="M29.31,10.78a1.29,1.29,0,0,0,0,.19l.31.07.12,0c.05-.19.1-.37.16-.55l-.37-.07-.11,0C29.36,10.54,29.33,10.66,29.31,10.78Z"/><path class="cls-6" d="M29.69,8.75a.47.47,0,0,1-.22.07.45.45,0,0,1-.28.24h0l.32.06.11,0a3.8,3.8,0,0,1,.18-.47Z"/><path class="cls-6" d="M29.47,10c0,.11,0,.22-.07.34l.17,0,.31.06,0-.06c.05-.16.11-.33.17-.49l-.48-.1h-.06Z"/><path class="cls-6" d="M30,10.32a.88.88,0,0,0,0,.15l.5.11.08,0c.05-.18.11-.36.17-.54l-.15,0-.41-.11C30.08,10.05,30,10.18,30,10.32Z"/><path class="cls-6" d="M29,9.05A.49.49,0,0,0,29.26,9a1.45,1.45,0,0,0,.18-.17h0l.24-.1.21-.12a1,1,0,0,1,0-.69A2.5,2.5,0,0,1,30,7.49a1.41,1.41,0,0,0,.13-.24c-.17,0-.3.22-.38.35a.93.93,0,0,0-.16.51h0l0,.06s0,0,0,0a1.2,1.2,0,0,1-.26-.66,2,2,0,0,1,0-.34,2,2,0,0,0,0-.24,1.28,1.28,0,0,0-.21.48.65.65,0,0,0,0,.31,1.54,1.54,0,0,1,.05.17.79.79,0,0,1,.14.23s0,0,0,0l-.09-.12s0,0,0,0h0a1.37,1.37,0,0,0-.35-.33,1.09,1.09,0,0,0-.56-.15l.35.37a1.85,1.85,0,0,1,.33.46s0,0,0,0a1.93,1.93,0,0,1-.24,0,1.23,1.23,0,0,0-.27,0,1.15,1.15,0,0,0-.36.11,1.65,1.65,0,0,1,.58.14.92.92,0,0,1,.44.36Z"/><path class="cls-6" d="M29.92,8.61c-.06.19-.14.37-.2.56a4.94,4.94,0,0,1,.55.15L30.39,9a1.8,1.8,0,0,1,.06-.22l-.25-.07-.21,0Z"/><path class="cls-6" d="M29.63,11.34c0-.08,0-.15.05-.22l-.18,0L29.25,11l0,.12-.06.12s0,.07,0,.06,0,.05,0,.06a2,2,0,0,0,.18.25l.27.06A2.25,2.25,0,0,1,29.63,11.34Z"/><path class="cls-6" d="M29.14,10.32l.2,0a2.21,2.21,0,0,0,.05-.25l.09-.32-.35-.06a3,3,0,0,1-.34-.06,1.52,1.52,0,0,0,0,.52.41.41,0,0,0,0,.11h.14Z"/><path class="cls-6" d="M29.21,11h0c0-.19.07-.37.11-.55l-.31,0-.24,0a5.41,5.41,0,0,0,.12.55l.29.06Z"/><path class="cls-6" d="M29.62,9.27l0-.06-.31-.06a.89.89,0,0,0-.28,0h0a1.09,1.09,0,0,0-.24.48l.69.11C29.53,9.57,29.58,9.42,29.62,9.27Z"/><path class="cls-6" d="M29.19,11l-.1,0-.17,0a1.69,1.69,0,0,0,.12.28.25.25,0,0,0,0,.07v0A1.39,1.39,0,0,0,29.19,11Z"/><path class="cls-6" d="M30.14,12l-.1,0-.4-.12h0v0s0,.1,0,.12h0l.19.13a1.69,1.69,0,0,0,.28.12s0-.07,0-.09A.75.75,0,0,1,30.14,12Z"/><path class="cls-6" d="M29.56,11.76l-.2,0a1.62,1.62,0,0,0,.19.18s0-.09,0-.12Z"/></g></g></g><path class="cls-17" d="M15,2.5A12.5,12.5,0,1,1,2.5,15,12.5,12.5,0,0,1,15,2.5M15,1A14,14,0,1,0,29,15,14,14,0,0,0,15,1Z"/></svg>