<svg id="Livello_1" data-name="Livello 1" xmlns="http://www.w3.org/2000/svg" xmlns:xlink="http://www.w3.org/1999/xlink" viewBox="0 0 30 30"><defs><style>.cls-1{fill:none;}.cls-2{clip-path:url(#clip-path);}.cls-3{clip-path:url(#clip-path-2);}.cls-4{clip-path:url(#clip-path-3);}.cls-5{fill:#fff2e2;}.cls-6{clip-path:url(#clip-path-4);}.cls-7{fill:#42170f;fill-rule:evenodd;}.cls-8{clip-path:url(#clip-path-5);}.cls-9{fill:#3f2b56;}.cls-10{fill:#edeedb;}.cls-11{fill:#a191b2;}.cls-12{fill:#d1d1d1;}</style><clipPath id="clip-path"><circle class="cls-1" cx="-35" cy="15" r="12.5" transform="translate(-3.88 -6.94) rotate(-11.98)"/></clipPath><clipPath id="clip-path-2"><rect class="cls-1" x="-49.32" y="0.74" width="27.53" height="27.53"/></clipPath><clipPath id="clip-path-3"><rect class="cls-1" x="-24.11" y="-24.32" width="23.49" height="28.26"/></clipPath><clipPath id="clip-path-4"><rect class="cls-1" x="-24.11" y="3.94" width="23.49" height="28.26"/></clipPath><clipPath id="clip-path-5"><circle class="cls-1" cx="15" cy="15" r="12.5" transform="translate(-2.79 3.44) rotate(-11.98)"/></clipPath></defs><g class="cls-2"><g class="cls-3"><g class="cls-4"><path class="cls-5" d="M-1,.51h.06A2.11,2.11,0,0,0,.89.13s0,0,0,0a0,0,0,0,0,0,0C.71-.14.29,0,.07,0-.3.14-.62.36-1,.46A0,0,0,0,0-1,.51ZM.56.06ZM-.58.52A2.17,2.17,0,0,0-.22.4C0,.33.24.27.46.18H.64A2.43,2.43,0,0,1-.58.52Z"/></g><g class="cls-6"><path class="cls-5" d="M-1,28.77h.06a2.11,2.11,0,0,0,1.82-.39s0,0,0,0,0,0,0,0c-.19-.21-.61-.09-.83,0-.37.1-.69.32-1,.41C-1,28.72-1,28.76-1,28.77Zm1.55-.45h0Zm-1.14.46.36-.12c.22-.07.46-.13.68-.22l.18,0A2.54,2.54,0,0,1-.58,28.78Z"/><path class="cls-7" d="M.12,26.92a2,2,0,0,1-.17.53.81.81,0,0,1-.66.45c0-.3.07-.59.07-.89a.69.69,0,0,0,.2-.45.07.07,0,0,1,.07,0s0,0,0,0c.17.26.17.26.45.09A.57.57,0,0,1,.12,26.92Z"/><path class="cls-5" d="M1.13,19.57l0,0a2,2,0,0,0-1.8-.44s0,0,0,0a0,0,0,0,0,0,0c.07.27.5.34.73.38s.76,0,1.13.09C1.13,19.62,1.15,19.59,1.13,19.57ZM-.46,19.3Zm1.23.08c-.12,0-.26,0-.37-.05s-.48-.08-.71-.1l-.18-.06A2.55,2.55,0,0,1,.77,19.38Z"/><path class="cls-5" d="M.41,18.67l0-.05A2.06,2.06,0,0,0-.73,17.14a0,0,0,0,0-.05,0h0c-.11.26.18.59.33.77s.58.48.83.77C.37,18.71.41,18.7.41,18.67Zm-1.07-1.2h0Zm.9.83A3.32,3.32,0,0,0,0,18c-.17-.18-.32-.36-.49-.53a1.19,1.19,0,0,1-.09-.15A2.45,2.45,0,0,1,.24,18.3Z"/><path class="cls-5" d="M-.49,9.05A.49.49,0,0,0-.25,9l.17-.17h0a1.73,1.73,0,0,1,.24-.1l.2-.12a1.09,1.09,0,0,1,0-.69,2.52,2.52,0,0,1,.12-.39c0-.08.1-.16.13-.24-.17,0-.31.22-.38.35A.86.86,0,0,0,0,8.11H0l0,.06s0,0,0,0a1.2,1.2,0,0,1-.26-.66A1.33,1.33,0,0,1-.27,7.2,1,1,0,0,0-.26,7a1.26,1.26,0,0,0-.2.48.65.65,0,0,0,0,.31l.06.17a1,1,0,0,1,.13.23s0,0,0,0l-.1-.12a0,0,0,0,1,0,0h0A1.33,1.33,0,0,0-.75,7.7a1.16,1.16,0,0,0-.57-.15l.36.37a1.81,1.81,0,0,1,.32.46s0,0,0,0a1.85,1.85,0,0,1-.24,0,1.14,1.14,0,0,0-.26,0,1.21,1.21,0,0,0-.37.11,1.65,1.65,0,0,1,.58.14.94.94,0,0,1,.45.36Z"/><path class="cls-5" d="M.11,9.27l0-.06-.32-.06a.86.86,0,0,0-.28,0h0a1.21,1.21,0,0,0-.24.48l.7.11C0,9.57.06,9.42.11,9.27Z"/></g></g></g><g class="cls-8"><path class="cls-9" d="M2.42,27.24c-3.26-5.65,5.1-5.65,1.84,0,2.65-4.59,5.91-.67,3.53,1h11a1,1,0,0,1,1.55,0h5.34c-2-1.37,0-4.37,2.26-2.53V5.17C25.15,7.47,22.74,2.24,28,2V2a4.21,4.21,0,0,1-2.26-.62H20.38a2.22,2.22,0,0,1,.17,2.13c1.15-3.93,4.77-.13.79.83,4-1,2.5,4.06-.32,1.1,2.82,3-2.27,4.2-1.12.28-1.15,3.92-4.77.13-.8-.84-4,1-2.49-4.06.33-1.1-1-1.09-1-1.95-.6-2.4h-11A4.57,4.57,0,0,1,5.17,2C11.7,2,7.52,9.25,4.26,3.6c3.26,5.65-5.1,5.65-1.84,0A5.33,5.33,0,0,1,1.15,5.17v20.5a5.33,5.33,0,0,1,1.27,1.57ZM17.19,24c4.88,1.3.31,5.88-1,1,1.31,4.88-4.94,3.21-1.37-.36-3.57,3.57-5.25-2.68-.37-1.37-4.88-1.31-.31-5.88,1-1-1.31-4.87,4.94-3.21,1.38.37,3.56-3.58,5.24,2.67.36,1.37Zm8.35-1.93c2.29.58.18,2.76-.47.48.65,2.28-2.29,1.54-.64-.16-1.65,1.7-2.48-1.22-.19-.64-2.29-.58-.18-2.76.47-.48-.65-2.28,2.29-1.54.64.16,1.65-1.7,2.48,1.22.19.64ZM12.67,4.76C11,3,14,2.33,13.32,4.6c.66-2.27,2.76-.08.46.48,2.3-.56,1.44,2.35-.19.64,1.63,1.71-1.32,2.43-.65.16-.67,2.27-2.76.07-.46-.48C10.18,6,11,3,12.67,4.76ZM3.15,16.13h0A5.24,5.24,0,0,1,6.8,15.07,5.29,5.29,0,0,1,3.15,14h0a2.11,2.11,0,0,1,0-3.17h0c1-.9,2.89-.88,4.62,1.89l.19.32-.26-.49c-3-5.82,4.29-6.44,3.51-1.86,0,.08,0,.17-.05.26s0,.17-.07.26a7.72,7.72,0,0,1-.8,1.83,8.2,8.2,0,0,1,1.19-1.61l.39-.36L12,11l.2-.15.09-.06A2.18,2.18,0,0,1,15.78,12c.6-.76,2-1,3.72.76-4.21-4.19,3-6.21,1.7-.71l-.06.27a.65.65,0,0,1,0-.13c1.31-4.6,5.13-1.82,3.29.2,0,0,0,0,0,0l-.12.12a2.28,2.28,0,0,1-.28.22l-.15.11-.09,0c-.11.07-.24.13-.37.2a7,7,0,0,1-1.07.38,6.23,6.23,0,0,1,.77-.16l.23,0a3.87,3.87,0,0,1,.83,0l.18,0h.09l.16,0,.23.07c2.51.88.54,5.16-2.93,1.7l.19.2a3.76,3.76,0,0,1,1.14,2.1h0c.21,2.06-2.9,2.62-3.17,0h0a5.46,5.46,0,0,1,.2-1.86,4.89,4.89,0,0,1-.86,1.86h0a1.61,1.61,0,0,1-2.75,0h0a1.08,1.08,0,0,1-.13-.29s0,0,0-.05a1,1,0,0,1,0-.17v-.05a1.77,1.77,0,0,1,0-.23,1.09,1.09,0,0,1,0-.18,1.16,1.16,0,0,1,0-.18l0-.12.05-.12.06-.12a1.58,1.58,0,0,1,.15-.24,4.08,4.08,0,0,1,2.28-1.31,3.65,3.65,0,0,1-2.88-.12.91.91,0,0,1-.16-.11,1.39,1.39,0,0,1-.33-.36.53.53,0,0,1-.06-.1l0-.05c0-.06,0-.12-.07-.17-.51.84-1.71,1.53-3.88,1.57h0c2.86,0,4,1.23,4.16,2.4h0a2.17,2.17,0,0,1-3.55,1.88l-.09-.07-.2-.14-.1-.08a4.43,4.43,0,0,1-.39-.37,7.63,7.63,0,0,1-1-1.22h0c-.07-.13-.15-.25-.23-.38a3.59,3.59,0,0,1,.21.38h0a6.85,6.85,0,0,1,.59,1.44c0,.1.05.18.07.27s0,.18.05.26C12,24,4.74,23.4,7.7,17.58a.37.37,0,0,1,0-.11h0L8,17.09l-.19.32,0,.06h0C6,20.17,4.14,20.19,3.15,19.29h0a2.11,2.11,0,0,1-.7-1.82h0a2.13,2.13,0,0,1,.7-1.34Z"/><path class="cls-10" d="M7.18,15.07a1.95,1.95,0,1,0,2.88-1.71,2,2,0,0,0-.93-.24,2,2,0,0,0-2,2Z"/><path class="cls-10" d="M19.33,14.34a1.42,1.42,0,0,0,2.79-.45s0-.05,0-.07a.77.77,0,0,0,0-.15.64.64,0,0,1,0-.07,1.39,1.39,0,0,0-.39-.65.81.81,0,0,0-.1-.09l-.06,0a1.41,1.41,0,0,0-1.19-.22,1.43,1.43,0,0,0-1,1.74Z"/><path class="cls-11" d="M19.43,3.78c-2.82-3-4.3,2.07-.33,1.1-4,1-.35,4.76.8.84C18.75,9.64,23.84,8.4,21,5.44c2.82,3,4.3-2.06.32-1.1,4-1,.36-4.76-.79-.83a2.22,2.22,0,0,0-.17-2.13H18.83c-.41.45-.44,1.31.6,2.4Zm.56-.1a1,1,0,1,1-.7,1.16A1,1,0,0,1,20,3.68Z"/><path class="cls-10" d="M19.29,4.84A1,1,0,1,0,20,3.68a1,1,0,0,0-.7,1.16Z"/><path class="cls-11" d="M12.48,5.4c-2.3.55-.21,2.75.46.48-.67,2.27,2.28,1.55.65-.16,1.63,1.71,2.49-1.2.19-.64,2.3-.56.2-2.75-.46-.48C14,2.33,11,3,12.67,4.76,11,3,10.18,6,12.48,5.4ZM13,4.7a.56.56,0,1,1-.41.67A.55.55,0,0,1,13,4.7Z"/><path class="cls-10" d="M13.26,5.78a.56.56,0,1,0-.67-.41.55.55,0,0,0,.67.41Z"/><path class="cls-11" d="M1.15,5.17V2c-5.23.22-2.82,5.45,0,3.15Z"/><path class="cls-11" d="M28,5.17V2c-5.24.22-2.83,5.45,0,3.15Z"/><path class="cls-11" d="M16.83,22.63c3.56-3.58-2.69-5.24-1.38-.37-1.31-4.87-5.88-.3-1,1-4.88-1.31-3.2,4.94.37,1.37-3.57,3.57,2.68,5.24,1.37.36,1.31,4.88,5.88.3,1-1,4.88,1.3,3.2-4.95-.36-1.37ZM17,23.94a1.18,1.18,0,1,1-2.29-.61,1.18,1.18,0,0,1,2.29.61Z"/><path class="cls-10" d="M16.13,22.49a1.18,1.18,0,0,0-.61,2.29,1.18,1.18,0,1,0,.61-2.29Z"/><path class="cls-11" d="M25.35,21.43c1.65-1.7-1.29-2.44-.64-.16-.65-2.28-2.76-.1-.47.48-2.29-.58-1.46,2.34.19.64-1.65,1.7,1.29,2.44.64.16.65,2.28,2.76.1.47-.48,2.29.58,1.46-2.34-.19-.64Zm.08.61a.56.56,0,1,1-1.08-.27.55.55,0,0,1,.67-.4.56.56,0,0,1,.41.67Z"/><path class="cls-10" d="M25,21.37a.55.55,0,0,0-.67.4.56.56,0,1,0,1.08.27.56.56,0,0,0-.41-.67Z"/><path class="cls-11" d="M2.42,3.6c-3.26,5.65,5.1,5.65,1.84,0C7.52,9.25,11.7,2,5.17,2a4.57,4.57,0,0,0,2.62-.63h-3A1.45,1.45,0,0,1,4.87,2,1.53,1.53,0,0,1,1.81,2a1.61,1.61,0,0,1,.13-.63H1.15V2h0V5.17A5.33,5.33,0,0,0,2.42,3.6Z"/><path class="cls-11" d="M3.15,19.29h0c1,.9,2.86.88,4.58-1.82h0l0-.06L8,17.09l-.21.38h0a.37.37,0,0,0,0,.11C4.74,23.4,12,24,11.21,19.44c0-.08,0-.17-.05-.26s0-.17-.07-.27a6.85,6.85,0,0,0-.59-1.44h0a3.59,3.59,0,0,0-.21-.38c.08.13.16.25.23.38h0a7.63,7.63,0,0,0,1,1.22,4.43,4.43,0,0,0,.39.37l.1.08.2.14.09.07a2.17,2.17,0,0,0,3.55-1.88h0c-.14-1.17-1.3-2.35-4.16-2.4h0c2.17,0,3.37-.73,3.88-1.57,0,.05,0,.11.07.17l0,.05a.53.53,0,0,0,.06.1,1.39,1.39,0,0,0,.33.36.91.91,0,0,0,.16.11,3.65,3.65,0,0,0,2.88.12,4.08,4.08,0,0,0-2.28,1.31,1.58,1.58,0,0,0-.15.24l-.06.12-.05.12,0,.12a1.16,1.16,0,0,0,0,.18,1.09,1.09,0,0,0,0,.18,1.77,1.77,0,0,0,0,.23V17a1,1,0,0,0,0,.17s0,0,0,.05a1.08,1.08,0,0,0,.13.29h0a1.61,1.61,0,0,0,2.75,0h0a4.89,4.89,0,0,0,.86-1.86,5.46,5.46,0,0,0-.2,1.86h0c.27,2.62,3.38,2.06,3.17,0h0a3.76,3.76,0,0,0-1.14-2.1l-.19-.2c3.47,3.46,5.44-.82,2.93-1.7l-.23-.07-.16,0h-.09l-.18,0a3.87,3.87,0,0,0-.83,0l-.23,0a6.23,6.23,0,0,0-.77.16,7,7,0,0,0,1.07-.38c.13-.07.26-.13.37-.2l.09,0,.15-.11a2.28,2.28,0,0,0,.28-.22l.12-.12s0,0,0,0c1.84-2-2-4.8-3.29-.2a.65.65,0,0,0,0,.13l.06-.27c1.26-5.5-5.91-3.48-1.7.71C17.75,11,16.38,11.25,15.78,12a2.18,2.18,0,0,0-3.52-1.22l-.09.06L12,11l-.1.08-.39.36a8.2,8.2,0,0,0-1.19,1.61,7.72,7.72,0,0,0,.8-1.83c0-.09.05-.18.07-.26s0-.18.05-.26c.78-4.58-6.47-4-3.51,1.86l.26.49-.19-.32C6,10,4.15,9.94,3.15,10.84h0a2.11,2.11,0,0,0,0,3.17h0A5.29,5.29,0,0,0,6.8,15.07a5.24,5.24,0,0,0-3.65,1.06h0a2.13,2.13,0,0,0-.7,1.34h0a2.11,2.11,0,0,0,.7,1.82ZM20.33,12.6a1.41,1.41,0,0,1,1.19.22l.06,0a.81.81,0,0,1,.1.09,1.39,1.39,0,0,1,.39.65.64.64,0,0,0,0,.07.77.77,0,0,1,0,.15s0,0,0,.07a1.42,1.42,0,1,1-1.79-1.29ZM8.2,13.36a2,2,0,0,1,.93-.24,2,2,0,0,1,.93.24,2,2,0,1,1-1.86,0Z"/><path class="cls-11" d="M3.34,27.3a1.54,1.54,0,0,1,1.4.9H7.79c2.38-1.63-.88-5.55-3.53-1,3.26-5.65-5.1-5.65-1.84,0a5.33,5.33,0,0,0-1.27-1.57V28.2h.79a1.54,1.54,0,0,1,1.4-.9Z"/></g><path class="cls-12" d="M15,2.5A12.5,12.5,0,1,1,2.5,15,12.5,12.5,0,0,1,15,2.5M15,1A14,14,0,1,0,29,15,14,14,0,0,0,15,1Z"/></svg>