<?xml version="1.0" encoding="utf-8"?>
<!-- Generator: Adobe Illustrator 28.1.0, SVG Export Plug-In . SVG Version: 6.00 Build 0)  -->
<svg version="1.1" id="Livello_1" xmlns="http://www.w3.org/2000/svg" xmlns:xlink="http://www.w3.org/1999/xlink" x="0px" y="0px"
	 viewBox="0 0 30 30" style="enable-background:new 0 0 30 30;" xml:space="preserve">
<style type="text/css">
	.st0{fill:#D1D1D1;}
	.st1{fill:#DA5070;}
</style>
<path class="st0" d="M15,2.5c6.9,0,12.5,5.6,12.5,12.5S21.9,27.5,15,27.5S2.5,21.9,2.5,15S8.1,2.5,15,2.5 M15,1C7.3,1,1,7.3,1,15
	s6.3,14,14,14s14-6.3,14-14S22.7,1,15,1z"/>
<path d="M6.2,23.8C1.3,19,1.3,11,6.2,6.2s12.8-4.9,17.7,0L6.2,23.8z"/>
<path class="st1" d="M6.2,23.8c4.9,4.9,12.8,4.9,17.7,0s4.9-12.8,0-17.7L6.2,23.8z"/>
</svg>
