<svg id="Livello_1" data-name="Livello 1" xmlns="http://www.w3.org/2000/svg" xmlns:xlink="http://www.w3.org/1999/xlink" viewBox="0 0 30 30"><defs><style>.cls-1,.cls-10,.cls-11,.cls-12,.cls-9{fill:none;}.cls-2{fill:#d1d1d1;}.cls-3{clip-path:url(#clip-path);}.cls-4{fill:#75af97;}.cls-5{fill:#1d1d1b;}.cls-6{fill:#dabb8d;}.cls-7{fill:#726263;}.cls-13,.cls-8{fill:#d4624a;}.cls-13,.cls-9{stroke:#1d1d1b;}.cls-10,.cls-11,.cls-12,.cls-13,.cls-9{stroke-miterlimit:10;}.cls-11,.cls-9{stroke-width:1.33px;}.cls-10{stroke:#fff;}.cls-10,.cls-12{stroke-width:0.22px;}.cls-11{stroke:#d4624a;}.cls-12{stroke:#75af97;}.cls-13{stroke-width:0.03px;}</style><clipPath id="clip-path"><path class="cls-1" d="M15,2.5A12.5,12.5,0,1,1,2.62,16.77,12.94,12.94,0,0,1,2.5,15,12.5,12.5,0,0,1,15,2.5Z"/></clipPath></defs><path class="cls-2" d="M15,2.5A12.5,12.5,0,1,1,2.5,15,12.5,12.5,0,0,1,15,2.5M15,1A14,14,0,1,0,29,15,14,14,0,0,0,15,1Z"/><g class="cls-3"><path class="cls-4" d="M15,2.5A12.5,12.5,0,1,1,2.62,16.77,12.94,12.94,0,0,1,2.5,15,12.5,12.5,0,0,1,15,2.5Z"/><polygon class="cls-5" points="13.35 1.65 11.26 2.85 11.26 31.25 15.78 27.64 15.36 1.38 13.35 1.65"/><rect class="cls-6" x="9.92" y="4.51" width="2.61" height="2.61" transform="translate(-0.82 9.64) rotate(-45)"/><polygon class="cls-7" points="15.33 25.63 15.33 27.98 13.52 26.8 15.33 25.63"/><polygon class="cls-7" points="15.33 23.27 15.33 25.63 13.52 24.45 15.33 23.27"/><polygon class="cls-7" points="15.33 20.92 15.33 23.27 13.52 22.1 15.33 20.92"/><rect class="cls-5" x="15.33" y="2.5" width="0.84" height="25.48"/><polygon class="cls-7" points="15.33 18.57 15.33 20.92 13.52 19.75 15.33 18.57"/><polygon class="cls-7" points="15.33 16.22 15.33 18.57 13.52 17.4 15.33 16.22"/><polygon class="cls-7" points="15.33 13.96 15.33 16.31 13.52 15.14 15.33 13.96"/><polygon class="cls-7" points="15.33 11.68 15.33 14.03 13.52 12.85 15.33 11.68"/><polygon class="cls-7" points="15.33 9.35 15.33 11.7 13.52 10.53 15.33 9.35"/><polygon class="cls-7" points="15.33 7 15.33 9.35 13.52 8.17 15.33 7"/><polygon class="cls-7" points="15.33 4.65 15.33 7 13.52 5.82 15.33 4.65"/><polygon class="cls-7" points="15.33 2.32 15.33 4.67 13.52 3.5 15.33 2.32"/><rect class="cls-6" x="9.92" y="8.12" width="2.61" height="2.61" transform="translate(-3.37 10.7) rotate(-45)"/><rect class="cls-6" x="9.92" y="11.72" width="2.61" height="2.61" transform="translate(-5.92 11.75) rotate(-45)"/><rect class="cls-6" x="9.92" y="15.32" width="2.61" height="2.61" transform="translate(-8.46 12.81) rotate(-45)"/><rect class="cls-6" x="9.92" y="18.94" width="2.61" height="2.61" transform="translate(-11.02 13.87) rotate(-45)"/><rect class="cls-6" x="9.92" y="22.55" width="2.61" height="2.61" transform="translate(-13.58 14.93) rotate(-45)"/><rect class="cls-6" x="9.92" y="26.15" width="2.61" height="2.61" transform="translate(-16.12 15.98) rotate(-45)"/><rect class="cls-6" x="9.92" y="0.92" width="2.61" height="2.61" transform="translate(1.72 8.59) rotate(-45)"/><rect class="cls-5" x="10.47" y="1.46" width="1.52" height="1.52" transform="translate(1.72 8.59) rotate(-45)"/><rect class="cls-8" x="10.87" y="1.87" width="0.71" height="0.71" transform="translate(1.72 8.59) rotate(-45)"/><rect class="cls-5" x="10.47" y="5.06" width="1.52" height="1.52" transform="translate(-0.82 9.64) rotate(-45)"/><rect class="cls-8" x="10.87" y="5.46" width="0.71" height="0.71" transform="translate(-0.82 9.64) rotate(-45)"/><rect class="cls-5" x="10.47" y="8.66" width="1.52" height="1.52" transform="translate(-3.37 10.7) rotate(-45)"/><rect class="cls-8" x="10.87" y="9.07" width="0.71" height="0.71" transform="translate(-3.37 10.7) rotate(-45)"/><rect class="cls-5" x="10.5" y="12.26" width="1.52" height="1.52" transform="translate(-5.91 11.77) rotate(-45)"/><rect class="cls-8" x="10.9" y="12.67" width="0.71" height="0.71" transform="translate(-5.91 11.77) rotate(-45)"/><rect class="cls-5" x="10.5" y="15.83" width="1.52" height="1.52" transform="translate(-8.44 12.82) rotate(-45)"/><rect class="cls-8" x="10.9" y="16.24" width="0.71" height="0.71" transform="translate(-8.44 12.82) rotate(-45)"/><rect class="cls-5" x="10.5" y="19.48" width="1.52" height="1.52" transform="translate(-11.01 13.89) rotate(-45)"/><rect class="cls-8" x="10.9" y="19.88" width="0.71" height="0.71" transform="translate(-11.01 13.89) rotate(-45)"/><rect class="cls-5" x="10.5" y="23.07" width="1.52" height="1.52" transform="translate(-13.55 14.94) rotate(-45)"/><rect class="cls-8" x="10.9" y="23.47" width="0.71" height="0.71" transform="translate(-13.55 14.94) rotate(-45)"/><rect class="cls-5" x="10.5" y="26.66" width="1.52" height="1.52" transform="translate(-16.09 15.99) rotate(-45)"/><rect class="cls-8" x="10.9" y="27.07" width="0.71" height="0.71" transform="translate(-16.09 15.99) rotate(-45)"/><polygon class="cls-6" points="17.5 3.09 16.58 3.09 16.58 28.48 19.51 24.23 17.73 19.73 19.77 15.66 17.73 11.59 19.77 7.48 17.5 3.09"/><polyline class="cls-9" points="17.19 2.5 19.77 7.48 17.73 11.59 19.77 15.66 17.73 19.73 19.77 23.73 17.73 27.68 19.77 31.8 17.73 35.91"/><polyline class="cls-9" points="21.05 2.5 23.64 7.48 21.6 11.59 23.64 15.66 21.6 19.73 23.64 23.73 21.6 27.68 23.64 31.8 21.6 35.91"/><rect class="cls-4" x="16.17" y="2.26" width="0.84" height="25.48"/><polygon class="cls-5" points="17.5 3.09 18.34 2.32 22.78 4.27 23.89 7.48 22.14 11.59 23.89 15.66 22.14 19.73 23.89 23.73 22.53 26.8 17.7 27.68 19.23 24.23 17.7 19.73 19.46 15.66 17.7 11.59 19.46 7.48 17.5 3.09"/><polyline class="cls-10" points="18.18 2.5 20.77 7.48 18.73 11.59 20.77 15.66 18.73 19.73 20.77 23.73 18.73 27.68 20.77 31.8 18.73 35.91"/><polyline class="cls-11" points="19.47 2.5 22.06 7.48 20.02 11.59 22.06 15.66 20.02 19.73 22.06 23.73 20.02 27.68 22.06 31.8 20.02 35.91"/><polyline class="cls-12" points="20.77 2.5 23.35 7.48 21.31 11.59 23.35 15.66 21.31 19.73 23.35 23.73 21.31 27.68 23.35 31.8 21.31 35.91"/><rect class="cls-5" x="23.89" y="5.42" width="1.31" height="25.48"/><line class="cls-10" x1="24.55" y1="5.42" x2="24.55" y2="30.9"/><polygon class="cls-7" points="23.89 16.55 23.89 22.8 22.31 19.75 23.89 16.55"/><polygon class="cls-7" points="23.89 8.45 23.89 14.66 22.24 11.56 23.89 8.45"/><polygon class="cls-7" points="17.83 22.64 17.29 23.71 17.83 24.79 18.36 23.72 17.83 22.64"/><polygon class="cls-7" points="17.83 14.47 17.29 15.54 17.83 16.62 18.36 15.54 17.83 14.47"/><polygon class="cls-7" points="17.83 6.3 17.29 7.37 17.83 8.45 18.36 7.38 17.83 6.3"/><path class="cls-13" d="M8.53,23.81a4.07,4.07,0,0,0-1.66-.59,2.77,2.77,0,0,0-1.24.29c-.24.07-.61,0-.61.23s.19.15.33.07a.32.32,0,0,1,.37,0A2.93,2.93,0,0,0,8.53,23.81Z"/><path class="cls-5" d="M7.26,23.69a7.4,7.4,0,0,0-1.63-.17,5,5,0,0,1,1.63.17Z"/><path class="cls-13" d="M8.53,20.19a4,4,0,0,0-1.66-.6,2.87,2.87,0,0,0-1.24.3c-.24.07-.61,0-.61.23s.19.15.33.07.23-.12.37,0A2.93,2.93,0,0,0,8.53,20.19Z"/><path class="cls-5" d="M7.26,20.06a8.05,8.05,0,0,0-1.63-.17,5.26,5.26,0,0,1,1.63.17Z"/><path class="cls-13" d="M8.53,16.51a4,4,0,0,0-1.66-.6,2.73,2.73,0,0,0-1.24.3c-.24.06-.61,0-.61.22s.19.15.33.08.23-.12.37,0A3,3,0,0,0,8.53,16.51Z"/><path class="cls-5" d="M7.26,16.38a7.4,7.4,0,0,0-1.63-.17,5,5,0,0,1,1.63.17Z"/><path class="cls-13" d="M8.53,13a4.07,4.07,0,0,0-1.66-.59,2.73,2.73,0,0,0-1.24.3c-.24.06-.61,0-.61.22s.19.15.33.07a.32.32,0,0,1,.37,0A2.93,2.93,0,0,0,8.53,13Z"/><path class="cls-5" d="M7.26,12.87a7.4,7.4,0,0,0-1.63-.17,5,5,0,0,1,1.63.17Z"/><path class="cls-13" d="M8.53,9.38a4,4,0,0,0-1.66-.6,2.73,2.73,0,0,0-1.24.3c-.24.06-.61,0-.61.22s.19.15.33.08.23-.12.37,0A3,3,0,0,0,8.53,9.38Z"/><path class="cls-5" d="M7.26,9.25a7.4,7.4,0,0,0-1.63-.17,5,5,0,0,1,1.63.17Z"/><path class="cls-13" d="M8.53,5.76a4,4,0,0,0-1.66-.6,2.87,2.87,0,0,0-1.24.3c-.24.07-.61,0-.61.23s.19.15.33.07.23-.12.37,0A2.93,2.93,0,0,0,8.53,5.76Z"/><path class="cls-5" d="M7.26,5.63a8.05,8.05,0,0,0-1.63-.17,5.26,5.26,0,0,1,1.63.17Z"/></g></svg>