<svg id="Livello_1" data-name="Livello 1" xmlns="http://www.w3.org/2000/svg" xmlns:xlink="http://www.w3.org/1999/xlink" viewBox="0 0 30 30"><defs><style>.cls-1,.cls-4{fill:none;}.cls-2{fill:#1d1e1c;}.cls-3{clip-path:url(#clip-path);}.cls-4{stroke:#cfd4c2;stroke-miterlimit:10;stroke-width:0.22px;}.cls-5{fill:#d1d1d1;}</style><clipPath id="clip-path"><path class="cls-1" d="M15,52.5A12.5,12.5,0,1,1,2.62,66.77,12.94,12.94,0,0,1,2.5,65,12.5,12.5,0,0,1,15,52.5Z"/></clipPath></defs><circle class="cls-2" cx="15" cy="15" r="12.5"/><g class="cls-3"><line class="cls-4" x1="7.18" y1="24.78" x2="7.18" y2="78.26"/><line class="cls-4" x1="9.84" y1="25.55" x2="9.84" y2="79.03"/><line class="cls-4" x1="23.72" y1="24.96" x2="23.72" y2="78.44"/><line class="cls-4" x1="26.27" y1="25.16" x2="26.27" y2="78.63"/><line class="cls-4" x1="13.67" y1="26.22" x2="13.67" y2="79.7"/><line class="cls-4" x1="16.33" y1="26.99" x2="16.33" y2="80.46"/></g><path class="cls-5" d="M15,2.5A12.5,12.5,0,1,1,2.5,15,12.5,12.5,0,0,1,15,2.5M15,1A14,14,0,1,0,29,15,14,14,0,0,0,15,1Z"/></svg>