<svg id="Livello_1" data-name="Livello 1" xmlns="http://www.w3.org/2000/svg" xmlns:xlink="http://www.w3.org/1999/xlink" viewBox="0 0 30 30"><defs><style>.cls-1,.cls-8{fill:none;}.cls-13,.cls-14,.cls-15,.cls-2{fill:#bbbdaa;}.cls-3{clip-path:url(#clip-path);}.cls-4{fill:#aba97f;}.cls-5{fill:#3d4f5d;}.cls-6{fill:#534542;}.cls-7{fill:#926a65;}.cls-13,.cls-14,.cls-15,.cls-8{stroke:#555a4b;stroke-miterlimit:10;}.cls-15,.cls-8{stroke-width:0.06px;}.cls-9{fill:#54342f;}.cls-10,.cls-11{fill:#555a4b;}.cls-10{opacity:0.78;}.cls-12{clip-path:url(#clip-path-2);}.cls-13{stroke-width:0.17px;}.cls-14{stroke-width:0.11px;}.cls-16{fill:#d1d1d1;}</style><clipPath id="clip-path"><path class="cls-1" d="M15,2.5A12.5,12.5,0,1,1,2.62,16.77,12.94,12.94,0,0,1,2.5,15,12.5,12.5,0,0,1,15,2.5Z"/></clipPath><clipPath id="clip-path-2"><rect class="cls-2" x="11.1" y="2.07" width="1.23" height="25.86"/></clipPath></defs><g class="cls-3"><path class="cls-4" d="M15,2.5A12.5,12.5,0,1,1,2.62,16.77,12.94,12.94,0,0,1,2.5,15,12.5,12.5,0,0,1,15,2.5Z"/><rect class="cls-5" x="13.44" y="2.07" width="3.11" height="25.82"/><rect class="cls-6" x="13.78" y="2.07" width="2.45" height="25.78"/><polygon class="cls-7" points="16.21 2.3 15.64 2.58 15 2.3 14.38 2.61 13.79 2.3 15 4.93 16.21 2.3"/><polygon class="cls-7" points="16.21 7.56 15.64 7.28 15 7.56 14.38 7.25 13.79 7.56 15 4.93 16.21 7.56"/><polygon class="cls-7" points="16.21 9.12 15.64 9.4 15 9.12 14.38 9.43 13.79 9.12 15 11.75 16.21 9.12"/><polygon class="cls-7" points="16.21 14.38 15.64 14.1 15 14.38 14.38 14.07 13.79 14.38 15 11.75 16.21 14.38"/><polygon class="cls-7" points="16.21 15.94 15.64 16.22 15 15.94 14.38 16.25 13.79 15.94 15 18.57 16.21 15.94"/><polygon class="cls-7" points="16.21 21.2 15.64 20.92 15 21.2 14.38 20.9 13.79 21.2 15 18.57 16.21 21.2"/><polygon class="cls-7" points="16.21 22.67 15.64 22.95 15 22.67 14.38 22.98 13.79 22.67 15 25.3 16.21 22.67"/><polygon class="cls-7" points="16.21 27.93 15.64 27.65 15 27.93 14.38 27.62 13.79 27.93 15 25.3 16.21 27.93"/><rect class="cls-5" x="6.95" y="2.07" width="3.11" height="25.82"/><rect class="cls-6" x="7.28" y="2.07" width="2.45" height="25.78"/><polygon class="cls-7" points="9.72 2.3 9.15 2.58 8.51 2.3 7.89 2.61 7.29 2.3 8.51 4.93 9.72 2.3"/><polygon class="cls-7" points="9.72 7.56 9.15 7.28 8.51 7.56 7.89 7.25 7.29 7.56 8.51 4.93 9.72 7.56"/><polygon class="cls-7" points="9.72 9.12 9.15 9.4 8.51 9.12 7.89 9.43 7.29 9.12 8.51 11.75 9.72 9.12"/><polygon class="cls-7" points="9.72 14.38 9.15 14.1 8.51 14.38 7.89 14.07 7.29 14.38 8.51 11.75 9.72 14.38"/><polygon class="cls-7" points="9.72 15.94 9.15 16.22 8.51 15.94 7.89 16.25 7.29 15.94 8.51 18.57 9.72 15.94"/><polygon class="cls-7" points="9.72 21.2 9.15 20.92 8.51 21.2 7.89 20.9 7.29 21.2 8.51 18.57 9.72 21.2"/><polygon class="cls-7" points="9.72 22.67 9.15 22.95 8.51 22.67 7.89 22.98 7.29 22.67 8.51 25.3 9.72 22.67"/><polygon class="cls-7" points="9.72 27.93 9.15 27.65 8.51 27.93 7.89 27.62 7.29 27.93 8.51 25.3 9.72 27.93"/><polygon class="cls-8" points="11.71 27.94 11.14 29.07 11.71 30.15 12.3 29.07 11.71 27.94"/><rect class="cls-7" x="19.86" y="2.09" width="3.82" height="25.82"/><rect class="cls-9" x="20.21" y="2.09" width="3.11" height="25.82"/><rect class="cls-7" x="20.55" y="2.09" width="2.45" height="25.78"/><rect class="cls-2" x="21.16" y="2.07" width="1.23" height="25.86"/><polygon class="cls-10" points="22.39 8.8 21.77 9.64 21.16 8.8 21.16 5.78 21.77 6.64 22.39 5.78 22.39 8.8"/><polygon class="cls-10" points="23 11.84 21.77 12.67 20.55 11.84 20.55 8.81 21.77 9.68 23 8.81 23 11.84"/><polygon class="cls-10" points="23.68 14.77 21.77 15.61 19.86 14.77 19.86 11.75 21.77 12.62 23.68 11.75 23.68 14.77"/><polygon class="cls-10" points="24.28 17.74 21.77 18.57 19.27 17.74 19.27 14.71 21.77 15.58 24.28 14.71 24.28 17.74"/><rect class="cls-11" x="19.24" y="19.55" width="0.36" height="5.25"/><rect class="cls-11" x="18.64" y="21.72" width="0.59" height="0.98"/><rect class="cls-11" x="18.28" y="18.57" width="0.36" height="7.21"/><rect class="cls-11" x="23.93" y="19.58" width="0.36" height="5.25" transform="translate(48.23 44.42) rotate(-180)"/><rect class="cls-11" x="24.3" y="21.75" width="0.59" height="0.98" transform="translate(49.19 44.48) rotate(-180)"/><rect class="cls-11" x="24.89" y="18.61" width="0.36" height="7.21" transform="translate(50.15 44.42) rotate(-180)"/><rect class="cls-11" x="3.58" y="19.55" width="0.36" height="5.25" transform="translate(7.51 44.35) rotate(-180)"/><rect class="cls-11" x="3.94" y="21.72" width="0.59" height="0.98" transform="translate(8.47 44.42) rotate(-180)"/><rect class="cls-11" x="4.53" y="18.57" width="0.36" height="7.21" transform="translate(9.43 44.35) rotate(-180)"/><polygon class="cls-10" points="21.74 16.5 19.85 22.29 21.72 27.85 23.68 22.29 21.74 16.5"/><rect class="cls-10" x="21.16" y="20.2" width="1.25" height="4.12"/><rect class="cls-2" x="11.1" y="2.07" width="1.23" height="25.86"/><g class="cls-12"><polygon class="cls-13" points="11.69 -0.05 10.03 3.25 11.68 6.41 13.41 3.25 11.69 -0.05"/><polygon class="cls-14" points="11.7 1.08 10.62 3.22 11.69 5.28 12.82 3.22 11.7 1.08"/><polygon class="cls-15" points="11.71 2.07 11.14 3.2 11.71 4.28 12.3 3.2 11.71 2.07"/><polygon class="cls-13" points="11.69 6.41 10.03 9.7 11.68 12.87 13.41 9.7 11.69 6.41"/><polygon class="cls-14" points="11.7 7.54 10.62 9.68 11.69 11.74 12.82 9.68 11.7 7.54"/><polygon class="cls-15" points="11.71 8.53 11.14 9.66 11.71 10.74 12.3 9.66 11.71 8.53"/><polygon class="cls-13" points="11.69 13.07 10.03 16.36 11.68 19.52 13.41 16.36 11.69 13.07"/><polygon class="cls-14" points="11.7 14.19 10.62 16.34 11.69 18.4 12.82 16.34 11.7 14.19"/><polygon class="cls-15" points="11.71 15.19 11.14 16.32 11.71 17.4 12.3 16.32 11.71 15.19"/><polygon class="cls-13" points="11.69 19.44 10.03 22.73 11.68 25.9 13.41 22.73 11.69 19.44"/><polygon class="cls-14" points="11.7 20.57 10.62 22.71 11.69 24.77 12.82 22.71 11.7 20.57"/><polygon class="cls-15" points="11.71 21.56 11.14 22.69 11.71 23.77 12.3 22.69 11.71 21.56"/><polygon class="cls-13" points="11.69 25.81 10.03 29.11 11.68 32.27 13.41 29.11 11.69 25.81"/><polygon class="cls-14" points="11.7 26.94 10.62 29.09 11.69 31.14 12.82 29.09 11.7 26.94"/></g></g><path class="cls-16" d="M15,2.5A12.5,12.5,0,1,1,2.5,15,12.5,12.5,0,0,1,15,2.5M15,1A14,14,0,1,0,29,15,14,14,0,0,0,15,1Z"/></svg>