<svg id="Livello_1" data-name="Livello 1" xmlns="http://www.w3.org/2000/svg" xmlns:xlink="http://www.w3.org/1999/xlink" viewBox="0 0 30 30"><defs><style>.cls-1,.cls-10,.cls-6,.cls-7,.cls-9{fill:none;}.cls-2{clip-path:url(#clip-path);}.cls-3{fill:#3f67ab;}.cls-4{fill:#252a3a;}.cls-5{fill:#7a3b48;}.cls-6{stroke:#cfd4c2;}.cls-10,.cls-6,.cls-7,.cls-9{stroke-miterlimit:10;}.cls-6,.cls-7,.cls-9{stroke-width:0.44px;}.cls-7{stroke:#517263;}.cls-8{fill:#517263;}.cls-9{stroke:#6a8791;}.cls-10{stroke:#212825;stroke-width:0.12px;}.cls-11{fill:#212825;}.cls-12{fill:#d1d1d1;}</style><clipPath id="clip-path"><path class="cls-1" d="M15,2.5A12.5,12.5,0,1,1,2.62,16.77,12.94,12.94,0,0,1,2.5,15,12.5,12.5,0,0,1,15,2.5Z"/></clipPath></defs><g class="cls-2"><path class="cls-3" d="M15,2.5A12.5,12.5,0,1,1,2.62,16.77,12.94,12.94,0,0,1,2.5,15,12.5,12.5,0,0,1,15,2.5Z"/><polygon class="cls-4" points="11.45 9.17 9.28 9.17 9.28 6.25 10.36 7.08 11.45 6.25 11.45 9.17"/><polygon class="cls-4" points="12.32 13.01 8.41 13.01 8.41 7.36 10.36 8.98 12.32 7.36 12.32 13.01"/><polygon class="cls-4" points="13.11 14.29 7.62 14.29 7.62 8.64 10.36 10.26 13.11 8.64 13.11 14.29"/><polygon class="cls-4" points="11.45 14.29 9.28 14.29 9.28 17.21 10.36 16.38 11.45 17.21 11.45 14.29"/><polygon class="cls-4" points="12.32 10.45 8.41 10.45 8.41 16.1 10.36 14.48 12.32 16.1 12.32 10.45"/><polygon class="cls-4" points="13.11 9.17 7.62 9.17 7.62 14.82 10.36 13.2 13.11 14.82 13.11 9.17"/><polygon class="cls-4" points="12.34 10.13 13.87 9.45 13.87 14.02 12.34 13.35 12.34 10.13"/><polygon class="cls-4" points="8.38 10.13 6.86 9.45 6.86 14.02 8.38 13.35 8.38 10.13"/><polygon class="cls-3" points="11.12 9.95 9.61 9.95 9.61 7.91 10.36 8.49 11.12 7.91 11.12 9.95"/><polygon class="cls-3" points="11.73 12.63 9 12.63 9 8.69 10.36 9.81 11.73 8.69 11.73 12.63"/><polygon class="cls-3" points="12.28 13.52 8.45 13.52 8.45 9.58 10.36 10.71 12.28 9.58 12.28 13.52"/><polygon class="cls-3" points="11.12 13.52 9.61 13.52 9.61 15.55 10.36 14.97 11.12 15.55 11.12 13.52"/><polygon class="cls-3" points="11.73 10.84 9 10.84 9 14.78 10.36 13.65 11.73 14.78 11.73 10.84"/><polygon class="cls-3" points="12.28 9.95 8.45 9.95 8.45 13.88 10.36 12.76 12.28 13.88 12.28 9.95"/><polygon class="cls-3" points="11.74 10.61 12.81 10.14 12.81 13.32 11.74 12.86 11.74 10.61"/><polygon class="cls-3" points="8.98 10.61 7.92 10.14 7.92 13.32 8.98 12.86 8.98 10.61"/><polygon class="cls-4" points="10.97 12 9.76 12 9.76 10.37 10.36 10.84 10.97 10.37 10.97 12"/><polygon class="cls-4" points="10.97 11.47 9.76 11.47 9.76 13.1 10.36 12.63 10.97 13.1 10.97 11.47"/><polygon class="cls-4" points="10.7 11.14 11.45 10.9 11.45 12.57 10.7 12.32 10.7 11.14"/><polygon class="cls-4" points="9.98 11.14 9.23 10.9 9.23 12.57 9.98 12.32 9.98 11.14"/><rect class="cls-5" x="2" y="1.26" width="4.86" height="26.67"/><line class="cls-6" x1="6.29" y1="1.26" x2="6.29" y2="27.93"/><line class="cls-7" x1="3.32" y1="1.26" x2="3.32" y2="27.93"/><polygon class="cls-4" points="11.45 21.61 9.28 21.61 9.28 18.69 10.36 19.52 11.45 18.69 11.45 21.61"/><polygon class="cls-4" points="12.32 25.45 8.41 25.45 8.41 19.8 10.36 21.42 12.32 19.8 12.32 25.45"/><polygon class="cls-4" points="13.11 26.73 7.62 26.73 7.62 21.08 10.36 22.7 13.11 21.08 13.11 26.73"/><polygon class="cls-4" points="11.45 26.73 9.28 26.73 9.28 29.66 10.36 28.82 11.45 29.66 11.45 26.73"/><polygon class="cls-4" points="12.32 22.89 8.41 22.89 8.41 28.54 10.36 26.92 12.32 28.54 12.32 22.89"/><polygon class="cls-4" points="13.11 21.61 7.62 21.61 7.62 27.26 10.36 25.64 13.11 27.26 13.11 21.61"/><polygon class="cls-4" points="12.34 22.57 13.87 21.89 13.87 26.45 12.34 25.79 12.34 22.57"/><polygon class="cls-4" points="8.38 22.57 6.86 21.89 6.86 26.45 8.38 25.79 8.38 22.57"/><polygon class="cls-3" points="11.12 22.39 9.61 22.39 9.61 20.35 10.36 20.93 11.12 20.35 11.12 22.39"/><polygon class="cls-3" points="11.73 25.07 9 25.07 9 21.13 10.36 22.25 11.73 21.13 11.73 25.07"/><polygon class="cls-3" points="12.28 25.96 8.45 25.96 8.45 22.02 10.36 23.15 12.28 22.02 12.28 25.96"/><polygon class="cls-3" points="11.12 25.96 9.61 25.96 9.61 28 10.36 27.41 11.12 28 11.12 25.96"/><polygon class="cls-3" points="11.73 23.28 9 23.28 9 27.22 10.36 26.09 11.73 27.22 11.73 23.28"/><polygon class="cls-3" points="12.28 22.39 8.45 22.39 8.45 26.32 10.36 25.2 12.28 26.32 12.28 22.39"/><polygon class="cls-3" points="11.74 23.05 12.81 22.58 12.81 25.76 11.74 25.3 11.74 23.05"/><polygon class="cls-3" points="8.98 23.05 7.92 22.58 7.92 25.76 8.98 25.3 8.98 23.05"/><polygon class="cls-4" points="10.97 24.44 9.76 24.44 9.76 22.81 10.36 23.28 10.97 22.81 10.97 24.44"/><polygon class="cls-4" points="10.97 23.91 9.76 23.91 9.76 25.54 10.36 25.07 10.97 25.54 10.97 23.91"/><polygon class="cls-4" points="10.7 23.59 11.45 23.34 11.45 25.01 10.7 24.76 10.7 23.59"/><polygon class="cls-4" points="9.98 23.59 9.23 23.34 9.23 25.01 9.98 24.76 9.98 23.59"/><polygon class="cls-4" points="12.32 0.57 8.41 0.57 8.41 -5.08 10.36 -3.46 12.32 -5.08 12.32 0.57"/><polygon class="cls-4" points="13.11 1.85 7.62 1.85 7.62 -3.8 10.36 -2.18 13.11 -3.8 13.11 1.85"/><polygon class="cls-4" points="11.45 1.85 9.28 1.85 9.28 4.77 10.36 3.94 11.45 4.77 11.45 1.85"/><polygon class="cls-4" points="12.32 -1.99 8.41 -1.99 8.41 3.66 10.36 2.04 12.32 3.66 12.32 -1.99"/><polygon class="cls-4" points="13.11 -3.27 7.62 -3.27 7.62 2.38 10.36 0.76 13.11 2.38 13.11 -3.27"/><polygon class="cls-4" points="12.34 -2.31 13.87 -2.99 13.87 1.57 12.34 0.91 12.34 -2.31"/><polygon class="cls-4" points="8.38 -2.31 6.86 -2.99 6.86 1.57 8.38 0.91 8.38 -2.31"/><polygon class="cls-3" points="11.73 0.18 9 0.18 9 -3.75 10.36 -2.63 11.73 -3.75 11.73 0.18"/><polygon class="cls-3" points="12.28 1.08 8.45 1.08 8.45 -2.86 10.36 -1.74 12.28 -2.86 12.28 1.08"/><polygon class="cls-3" points="11.12 1.08 9.61 1.08 9.61 3.12 10.36 2.53 11.12 3.12 11.12 1.08"/><polygon class="cls-3" points="11.73 -1.6 9 -1.6 9 2.34 10.36 1.21 11.73 2.34 11.73 -1.6"/><polygon class="cls-3" points="12.28 -2.5 8.45 -2.5 8.45 1.44 10.36 0.32 12.28 1.44 12.28 -2.5"/><polygon class="cls-3" points="11.74 -1.83 12.81 -2.3 12.81 0.88 11.74 0.42 11.74 -1.83"/><polygon class="cls-3" points="8.98 -1.83 7.92 -2.3 7.92 0.88 8.98 0.42 8.98 -1.83"/><polygon class="cls-4" points="10.97 -0.97 9.76 -0.97 9.76 0.65 10.36 0.19 10.97 0.65 10.97 -0.97"/><polygon class="cls-4" points="10.7 -1.29 11.45 -1.54 11.45 0.13 10.7 -0.12 10.7 -1.29"/><polygon class="cls-4" points="9.98 -1.29 9.23 -1.54 9.23 0.13 9.98 -0.12 9.98 -1.29"/><rect class="cls-5" x="13.87" y="1.26" width="4.22" height="26.67" transform="translate(31.95 29.19) rotate(-180)"/><line class="cls-6" x1="14.44" y1="1.26" x2="14.44" y2="27.93"/><line class="cls-7" x1="17.41" y1="1.26" x2="17.41" y2="27.93"/><rect class="cls-5" x="22.15" y="1.26" width="4.22" height="26.67"/><line class="cls-6" x1="25.79" y1="1.26" x2="25.79" y2="27.93"/><line class="cls-7" x1="22.83" y1="1.26" x2="22.83" y2="27.93"/><polygon class="cls-4" points="30.96 9.2 28.79 9.2 28.79 6.28 29.87 7.11 30.96 6.28 30.96 9.2"/><polygon class="cls-4" points="31.83 13.04 27.92 13.04 27.92 7.39 29.87 9.01 31.83 7.39 31.83 13.04"/><polygon class="cls-4" points="32.61 14.32 27.13 14.32 27.13 8.67 29.87 10.29 32.61 8.67 32.61 14.32"/><polygon class="cls-4" points="30.96 14.32 28.79 14.32 28.79 17.25 29.87 16.41 30.96 17.25 30.96 14.32"/><polygon class="cls-4" points="31.83 10.48 27.92 10.48 27.92 16.13 29.87 14.51 31.83 16.13 31.83 10.48"/><polygon class="cls-4" points="32.61 9.2 27.13 9.2 27.13 14.85 29.87 13.23 32.61 14.85 32.61 9.2"/><polygon class="cls-4" points="27.89 10.16 26.37 9.48 26.37 14.04 27.89 13.38 27.89 10.16"/><polygon class="cls-3" points="30.63 9.97 29.12 9.97 29.12 7.94 29.87 8.52 30.63 7.94 30.63 9.97"/><polygon class="cls-3" points="31.24 12.65 28.51 12.65 28.51 8.71 29.87 9.84 31.24 8.71 31.24 12.65"/><polygon class="cls-3" points="31.78 13.55 27.96 13.55 27.96 9.61 29.87 10.73 31.78 9.61 31.78 13.55"/><polygon class="cls-3" points="30.63 13.55 29.12 13.55 29.12 15.59 29.87 15 30.63 15.59 30.63 13.55"/><polygon class="cls-3" points="31.24 10.87 28.51 10.87 28.51 14.81 29.87 13.68 31.24 14.81 31.24 10.87"/><polygon class="cls-3" points="31.78 9.97 27.96 9.97 27.96 13.91 29.87 12.79 31.78 13.91 31.78 9.97"/><polygon class="cls-3" points="28.49 10.64 27.43 10.17 27.43 13.35 28.49 12.89 28.49 10.64"/><polygon class="cls-4" points="30.48 12.03 29.27 12.03 29.27 10.4 29.87 10.87 30.48 10.4 30.48 12.03"/><polygon class="cls-4" points="30.48 11.5 29.27 11.5 29.27 13.12 29.87 12.66 30.48 13.12 30.48 11.5"/><polygon class="cls-4" points="29.49 11.18 28.74 10.93 28.74 12.6 29.49 12.35 29.49 11.18"/><rect class="cls-8" x="18.22" y="1.26" width="3.71" height="26.67"/><line class="cls-9" x1="18.29" y1="1.26" x2="18.29" y2="27.93"/><line class="cls-9" x1="21.93" y1="1.26" x2="21.93" y2="27.93"/><rect class="cls-10" x="19.22" y="1.73" width="1.77" height="1.77" transform="translate(4.04 14.98) rotate(-45)"/><line class="cls-10" x1="18.86" y1="2.61" x2="21.36" y2="2.61"/><polygon class="cls-11" points="19.8 2.32 20.41 2.32 20.11 2.6 19.8 2.32"/><polygon class="cls-11" points="19.8 2.83 20.41 2.83 20.11 2.55 19.8 2.83"/><rect class="cls-10" x="19.22" y="5.14" width="1.77" height="1.77" transform="translate(1.63 15.98) rotate(-45)"/><line class="cls-10" x1="18.86" y1="6.03" x2="21.36" y2="6.03"/><polygon class="cls-11" points="19.8 5.74 20.41 5.74 20.11 6.01 19.8 5.74"/><polygon class="cls-11" points="19.8 6.24 20.41 6.24 20.11 5.97 19.8 6.24"/><rect class="cls-10" x="19.22" y="8.56" width="1.77" height="1.77" transform="translate(-0.79 16.99) rotate(-45)"/><line class="cls-10" x1="18.86" y1="9.44" x2="21.36" y2="9.44"/><polygon class="cls-11" points="19.8 9.15 20.41 9.15 20.11 9.43 19.8 9.15"/><polygon class="cls-11" points="19.8 9.66 20.41 9.66 20.11 9.38 19.8 9.66"/><rect class="cls-10" x="19.22" y="11.97" width="1.77" height="1.77" transform="translate(-3.2 17.99) rotate(-45)"/><line class="cls-10" x1="18.86" y1="12.86" x2="21.36" y2="12.86"/><polygon class="cls-11" points="19.8 12.57 20.41 12.57 20.11 12.84 19.8 12.57"/><polygon class="cls-11" points="19.8 13.07 20.41 13.07 20.11 12.8 19.8 13.07"/><rect class="cls-10" x="19.22" y="15.39" width="1.77" height="1.77" transform="translate(-5.62 18.99) rotate(-45)"/><line class="cls-10" x1="18.86" y1="16.27" x2="21.36" y2="16.27"/><polygon class="cls-11" points="19.8 15.99 20.41 15.99 20.11 16.26 19.8 15.99"/><polygon class="cls-11" points="19.8 16.49 20.41 16.49 20.11 16.21 19.8 16.49"/><rect class="cls-10" x="19.19" y="18.8" width="1.77" height="1.77" transform="translate(-8.04 19.96) rotate(-45)"/><line class="cls-10" x1="18.82" y1="19.69" x2="21.33" y2="19.69"/><polygon class="cls-11" points="19.77 19.4 20.38 19.4 20.07 19.68 19.77 19.4"/><polygon class="cls-11" points="19.77 19.9 20.38 19.9 20.07 19.63 19.77 19.9"/><rect class="cls-10" x="19.19" y="22.22" width="1.77" height="1.77" transform="translate(-10.46 20.96) rotate(-45)"/><line class="cls-10" x1="18.82" y1="23.1" x2="21.33" y2="23.1"/><polygon class="cls-11" points="19.77 22.82 20.38 22.82 20.07 23.09 19.77 22.82"/><polygon class="cls-11" points="19.77 23.32 20.38 23.32 20.07 23.05 19.77 23.32"/><rect class="cls-10" x="19.22" y="25.63" width="1.77" height="1.77" transform="translate(-12.86 21.99) rotate(-45)"/><line class="cls-10" x1="18.86" y1="26.52" x2="21.36" y2="26.52"/><polygon class="cls-11" points="19.8 26.23 20.41 26.23 20.11 26.51 19.8 26.23"/><polygon class="cls-11" points="19.8 26.73 20.41 26.73 20.11 26.46 19.8 26.73"/><polygon class="cls-11" points="18.79 3.31 18.79 5.33 19.93 4.32 18.79 3.31"/><polygon class="cls-11" points="18.78 6.75 18.78 8.77 19.91 7.76 18.78 6.75"/><polygon class="cls-11" points="18.79 10.14 18.79 12.16 19.93 11.15 18.79 10.14"/><polygon class="cls-11" points="18.79 13.59 18.79 15.6 19.93 14.6 18.79 13.59"/><polygon class="cls-11" points="18.79 16.97 18.79 18.99 19.93 17.98 18.79 16.97"/><polygon class="cls-11" points="18.79 20.39 18.79 22.4 19.93 21.4 18.79 20.39"/><polygon class="cls-11" points="18.79 23.8 18.79 25.81 19.93 24.81 18.79 23.8"/><polygon class="cls-11" points="21.37 23.8 21.37 25.81 20.24 24.81 21.37 23.8"/><polygon class="cls-11" points="21.37 20.39 21.37 22.4 20.24 21.4 21.37 20.39"/><polygon class="cls-11" points="21.37 16.97 21.37 18.99 20.24 17.98 21.37 16.97"/><polygon class="cls-11" points="21.37 13.59 21.37 15.6 20.24 14.6 21.37 13.59"/><polygon class="cls-11" points="21.37 10.14 21.37 12.16 20.24 11.15 21.37 10.14"/><polygon class="cls-11" points="21.37 6.75 21.37 8.77 20.24 7.76 21.37 6.75"/><polygon class="cls-11" points="21.37 3.31 21.37 5.33 20.24 4.32 21.37 3.31"/><polygon class="cls-11" points="21.37 -0.43 21.37 1.58 20.24 0.57 21.37 -0.43"/><polygon class="cls-11" points="18.79 -0.43 18.79 1.58 19.93 0.57 18.79 -0.43"/><polygon class="cls-11" points="21.36 27.26 21.36 29.27 20.23 28.27 21.36 27.26"/><polygon class="cls-11" points="18.79 27.26 18.79 29.27 19.92 28.27 18.79 27.26"/></g><path class="cls-12" d="M15,2.5A12.5,12.5,0,1,1,2.5,15,12.5,12.5,0,0,1,15,2.5M15,1A14,14,0,1,0,29,15,14,14,0,0,0,15,1Z"/></svg>