<svg id="Livello_1" data-name="Livello 1" xmlns="http://www.w3.org/2000/svg" xmlns:xlink="http://www.w3.org/1999/xlink" viewBox="0 0 30 30"><defs><style>.cls-1,.cls-10,.cls-5,.cls-6,.cls-7{fill:none;}.cls-2{clip-path:url(#clip-path);}.cls-3{fill:#415a49;}.cls-4{fill:#b4ad94;}.cls-5,.cls-6,.cls-7{stroke:#415a49;}.cls-10,.cls-5,.cls-6,.cls-7{stroke-miterlimit:10;}.cls-5{stroke-width:0.17px;}.cls-6{stroke-width:0.11px;}.cls-7{stroke-width:0.06px;}.cls-8{fill:#2a2b2a;}.cls-9{fill:#8e693c;}.cls-10{stroke:#353837;stroke-width:0.26px;}.cls-10,.cls-11{opacity:0.78;}.cls-11{fill:#353837;}.cls-12{fill:#d1d1d1;}</style><clipPath id="clip-path"><path class="cls-1" d="M15,2.5A12.5,12.5,0,1,1,2.62,16.77,12.94,12.94,0,0,1,2.5,15,12.5,12.5,0,0,1,15,2.5Z"/></clipPath></defs><g class="cls-2"><path class="cls-3" d="M15,2.5A12.5,12.5,0,1,1,2.62,16.77,12.94,12.94,0,0,1,2.5,15,12.5,12.5,0,0,1,15,2.5Z"/><rect class="cls-4" x="11.1" y="2.07" width="1.23" height="25.86"/><polygon class="cls-5" points="11.69 -0.05 10.03 3.25 11.68 6.41 13.41 3.25 11.69 -0.05"/><polygon class="cls-6" points="11.7 1.08 10.62 3.22 11.69 5.28 12.82 3.22 11.7 1.08"/><polygon class="cls-7" points="11.71 2.07 11.14 3.2 11.71 4.28 12.3 3.2 11.71 2.07"/><polygon class="cls-5" points="11.69 6.41 10.03 9.7 11.68 12.87 13.41 9.7 11.69 6.41"/><polygon class="cls-6" points="11.7 7.54 10.62 9.68 11.69 11.74 12.82 9.68 11.7 7.54"/><polygon class="cls-7" points="11.71 8.53 11.14 9.66 11.71 10.74 12.3 9.66 11.71 8.53"/><polygon class="cls-5" points="11.69 13.07 10.03 16.36 11.68 19.52 13.41 16.36 11.69 13.07"/><polygon class="cls-6" points="11.7 14.19 10.62 16.34 11.69 18.4 12.82 16.34 11.7 14.19"/><polygon class="cls-7" points="11.71 15.19 11.14 16.32 11.71 17.4 12.3 16.32 11.71 15.19"/><polygon class="cls-5" points="11.69 19.44 10.03 22.73 11.68 25.9 13.41 22.73 11.69 19.44"/><polygon class="cls-6" points="11.7 20.57 10.62 22.71 11.69 24.77 12.82 22.71 11.7 20.57"/><polygon class="cls-7" points="11.71 21.56 11.14 22.69 11.71 23.77 12.3 22.69 11.71 21.56"/><polygon class="cls-5" points="11.69 25.81 10.03 29.11 11.68 32.27 13.41 29.11 11.69 25.81"/><polygon class="cls-6" points="11.7 26.94 10.62 29.09 11.69 31.14 12.82 29.09 11.7 26.94"/><polygon class="cls-7" points="11.71 27.94 11.14 29.07 11.71 30.15 12.3 29.07 11.71 27.94"/><rect class="cls-8" x="7.28" y="2.07" width="2.45" height="25.78"/><polygon class="cls-9" points="9.72 2.3 9.15 2.58 8.51 2.3 7.89 2.61 7.29 2.3 8.51 4.93 9.72 2.3"/><polygon class="cls-9" points="9.72 7.56 9.15 7.28 8.51 7.56 7.89 7.25 7.29 7.56 8.51 4.93 9.72 7.56"/><polygon class="cls-9" points="9.72 9.12 9.15 9.4 8.51 9.12 7.89 9.43 7.29 9.12 8.51 11.75 9.72 9.12"/><polygon class="cls-9" points="9.72 14.38 9.15 14.1 8.51 14.38 7.89 14.07 7.29 14.38 8.51 11.75 9.72 14.38"/><polygon class="cls-9" points="9.72 15.94 9.15 16.22 8.51 15.94 7.89 16.25 7.29 15.94 8.51 18.57 9.72 15.94"/><polygon class="cls-9" points="9.72 21.2 9.15 20.92 8.51 21.2 7.89 20.9 7.29 21.2 8.51 18.57 9.72 21.2"/><polygon class="cls-9" points="9.72 22.67 9.15 22.95 8.51 22.67 7.89 22.98 7.29 22.67 8.51 25.3 9.72 22.67"/><polygon class="cls-9" points="9.72 27.93 9.15 27.65 8.51 27.93 7.89 27.62 7.29 27.93 8.51 25.3 9.72 27.93"/><rect class="cls-8" x="13.78" y="2.07" width="2.45" height="25.78"/><polygon class="cls-9" points="16.21 2.3 15.64 2.58 15 2.3 14.38 2.61 13.79 2.3 15 4.93 16.21 2.3"/><polygon class="cls-9" points="16.21 7.56 15.64 7.28 15 7.56 14.38 7.25 13.79 7.56 15 4.93 16.21 7.56"/><polygon class="cls-9" points="16.21 9.12 15.64 9.4 15 9.12 14.38 9.43 13.79 9.12 15 11.75 16.21 9.12"/><polygon class="cls-9" points="16.21 14.38 15.64 14.1 15 14.38 14.38 14.07 13.79 14.38 15 11.75 16.21 14.38"/><polygon class="cls-9" points="16.21 15.94 15.64 16.22 15 15.94 14.38 16.25 13.79 15.94 15 18.57 16.21 15.94"/><polygon class="cls-9" points="16.21 21.2 15.64 20.92 15 21.2 14.38 20.9 13.79 21.2 15 18.57 16.21 21.2"/><polygon class="cls-9" points="16.21 22.67 15.64 22.95 15 22.67 14.38 22.98 13.79 22.67 15 25.3 16.21 22.67"/><polygon class="cls-9" points="16.21 27.93 15.64 27.65 15 27.93 14.38 27.62 13.79 27.93 15 25.3 16.21 27.93"/><rect class="cls-8" x="23.71" y="2.07" width="2.45" height="25.78"/><polygon class="cls-9" points="26.14 2.3 25.58 2.58 24.93 2.3 24.31 2.61 23.72 2.3 24.93 4.93 26.14 2.3"/><polygon class="cls-9" points="26.14 7.56 25.58 7.28 24.93 7.56 24.31 7.25 23.72 7.56 24.93 4.93 26.14 7.56"/><polygon class="cls-9" points="26.14 9.12 25.58 9.4 24.93 9.12 24.31 9.43 23.72 9.12 24.93 11.75 26.14 9.12"/><polygon class="cls-9" points="26.14 14.38 25.58 14.1 24.93 14.38 24.31 14.07 23.72 14.38 24.93 11.75 26.14 14.38"/><polygon class="cls-9" points="26.14 15.94 25.58 16.22 24.93 15.94 24.31 16.25 23.72 15.94 24.93 18.57 26.14 15.94"/><polygon class="cls-9" points="26.14 21.2 25.58 20.92 24.93 21.2 24.31 20.9 23.72 21.2 24.93 18.57 26.14 21.2"/><polygon class="cls-9" points="26.14 22.67 25.58 22.95 24.93 22.67 24.31 22.98 23.72 22.67 24.93 25.3 26.14 22.67"/><polygon class="cls-9" points="26.14 27.93 25.58 27.65 24.93 27.93 24.31 27.62 23.72 27.93 24.93 25.3 26.14 27.93"/><rect class="cls-4" x="19.35" y="2.03" width="1.23" height="25.86"/><polygon class="cls-10" points="19.92 14.74 17.26 20.53 19.9 26.09 22.68 20.53 19.92 14.74"/><polygon class="cls-11" points="19.09 18.14 17.93 20.66 19.92 24.84 20.8 23.08 19.09 23.08 19.09 18.14"/><polygon class="cls-11" points="22.01 20.66 20.85 18.22 20.85 22.98 22.01 20.66"/><polygon class="cls-11" points="19.93 16.3 19.09 18.13 20.81 18.13 19.93 16.3"/><polygon class="cls-11" points="19.09 18.13 19.09 18.14 19.09 18.13 19.09 18.13"/><polygon class="cls-11" points="20.85 22.98 20.8 23.08 20.85 23.08 20.85 22.98"/><polygon class="cls-11" points="20.85 18.13 20.81 18.13 20.85 18.22 20.85 18.13"/><rect class="cls-11" x="19.35" y="19.65" width="1.23" height="1.76"/><polygon class="cls-10" points="19.92 -1.39 17.26 4.4 19.9 9.96 22.68 4.4 19.92 -1.39"/><polygon class="cls-11" points="19.09 2 17.93 4.53 19.92 8.71 20.8 6.95 19.09 6.95 19.09 2"/><polygon class="cls-11" points="22.01 4.53 20.85 2.09 20.85 6.85 22.01 4.53"/><polygon class="cls-11" points="19.93 0.16 19.09 2 20.81 2 19.93 0.16"/><polygon class="cls-11" points="19.09 2 19.09 2 19.09 2 19.09 2"/><polygon class="cls-11" points="20.85 6.85 20.8 6.95 20.85 6.95 20.85 6.85"/><polygon class="cls-11" points="20.85 2 20.81 2 20.85 2.09 20.85 2"/><rect class="cls-11" x="19.35" y="3.52" width="1.23" height="1.76"/></g><path class="cls-12" d="M15,2.5A12.5,12.5,0,1,1,2.5,15,12.5,12.5,0,0,1,15,2.5M15,1A14,14,0,1,0,29,15,14,14,0,0,0,15,1Z"/></svg>