<svg id="Livello_1" data-name="Livello 1" xmlns="http://www.w3.org/2000/svg" xmlns:xlink="http://www.w3.org/1999/xlink" viewBox="0 0 30 30"><defs><style>.cls-1,.cls-10,.cls-11{fill:none;}.cls-2{clip-path:url(#clip-path);}.cls-3{fill:#3e3231;}.cls-4{fill:#ca9a64;}.cls-5,.cls-8{fill:#cfd8d4;}.cls-6{fill:#109bb7;}.cls-7{fill:#d1613b;}.cls-10,.cls-8{stroke:#3e3231;}.cls-10,.cls-11,.cls-8{stroke-miterlimit:10;}.cls-8{stroke-width:0.28px;}.cls-9{fill:#73bad3;}.cls-10{stroke-width:0.07px;}.cls-11{stroke:#109bb7;stroke-width:0.22px;}.cls-12{fill:#d1d1d1;}</style><clipPath id="clip-path"><path class="cls-1" d="M15,2.5A12.5,12.5,0,1,1,2.62,16.77,12.94,12.94,0,0,1,2.5,15,12.5,12.5,0,0,1,15,2.5Z"/></clipPath></defs><g class="cls-2"><path class="cls-3" d="M15,2.5A12.5,12.5,0,1,1,2.62,16.77,12.94,12.94,0,0,1,2.5,15,12.5,12.5,0,0,1,15,2.5Z"/><rect class="cls-4" x="7.73" y="2.5" width="15.02" height="26.89"/><rect class="cls-5" x="13.77" y="14.31" width="3" height="15.08"/><rect class="cls-6" x="10.41" y="14.21" width="0.65" height="15.18"/><rect class="cls-7" x="10.58" y="14.21" width="0.32" height="15.18"/><rect class="cls-6" x="13.42" y="14.21" width="0.65" height="15.18"/><rect class="cls-7" x="13.58" y="14.21" width="0.32" height="15.18"/><rect class="cls-6" x="16.4" y="14.01" width="0.65" height="15.38"/><rect class="cls-7" x="16.57" y="14.01" width="0.32" height="15.38"/><rect class="cls-6" x="19.43" y="14.21" width="0.65" height="15.18"/><rect class="cls-7" x="19.59" y="14.21" width="0.32" height="15.18"/><path class="cls-7" d="M15,21.23v-.56h.56v.56h.57v.57h-.57v1H15v-1h-.57v-.57Z"/><polyline class="cls-8" points="7.73 17.04 8.48 19.86 9.26 17.04 10.01 19.86 10.76 17.04 11.51 19.86 12.26 17.04 13.01 19.86 13.76 17.04 14.51 19.86 15.26 17.04 15.99 19.86 16.74 17.04 17.48 19.86 18.23 17.04 18.97 19.86 19.72 17.04 20.47 19.86 21.3 17.03 22.05 19.86 22.8 17.03 19.72 2.5 10.74 2.5 7.73 17.04"/><path class="cls-6" d="M15,25v-.56h.56V25h.57v.56h-.57v1H15v-1h-.57V25Z"/><path class="cls-9" d="M10.15,14.27v-.56h.56v.56h.56v.57h-.56v1h-.56v-1H9.58v-.57Z"/><path class="cls-9" d="M19.81,14.27v-.56h.57v.56h.56v.57h-.56v1h-.57v-1h-.56v-.57Z"/><polygon class="cls-9" points="12.3 2.63 11.82 4.13 19 4.13 18.5 2.63 12.3 2.63"/><rect class="cls-9" x="15.28" y="4.11" width="0.28" height="3.44"/><rect class="cls-9" x="14.72" y="4.11" width="0.28" height="3.18"/><rect class="cls-9" x="14.15" y="4.13" width="0.28" height="2.74"/><rect class="cls-9" x="13.59" y="4.13" width="0.28" height="2.44"/><rect class="cls-9" x="13.04" y="4.13" width="0.28" height="2.22"/><rect class="cls-9" x="12.43" y="4.11" width="0.28" height="2.07"/><rect class="cls-9" x="11.82" y="4.11" width="0.28" height="1.82"/><rect class="cls-9" x="15.82" y="4.11" width="0.28" height="3.18" transform="translate(31.91 11.41) rotate(-180)"/><rect class="cls-9" x="16.39" y="4.13" width="0.28" height="2.74" transform="translate(33.05 11.01) rotate(-180)"/><rect class="cls-9" x="16.95" y="4.13" width="0.28" height="2.44" transform="translate(34.18 10.71) rotate(-180)"/><rect class="cls-9" x="17.51" y="4.13" width="0.28" height="2.22" transform="translate(35.29 10.49) rotate(180)"/><rect class="cls-9" x="18.11" y="4.11" width="0.28" height="2.07" transform="translate(36.5 10.29) rotate(180)"/><rect class="cls-9" x="18.72" y="4.11" width="0.28" height="1.82" transform="translate(37.72 10.05) rotate(-180)"/><polygon class="cls-7" points="11.82 5.93 12.09 5.93 11.96 6.28 11.82 5.93"/><polygon class="cls-7" points="12.44 6.18 12.7 6.18 12.57 6.53 12.44 6.18"/><polygon class="cls-7" points="13.04 6.33 13.31 6.33 13.18 6.68 13.04 6.33"/><polygon class="cls-7" points="13.59 6.58 13.86 6.58 13.73 6.92 13.59 6.58"/><polygon class="cls-7" points="14.16 6.85 14.43 6.85 14.29 7.2 14.16 6.85"/><polygon class="cls-7" points="14.73 7.27 15 7.27 14.86 7.62 14.73 7.27"/><polygon class="cls-7" points="15.28 7.53 15.55 7.53 15.41 7.88 15.28 7.53"/><polygon class="cls-7" points="15.82 7.27 16.09 7.27 15.96 7.62 15.82 7.27"/><polygon class="cls-7" points="16.39 6.85 16.66 6.85 16.53 7.2 16.39 6.85"/><polygon class="cls-7" points="16.96 6.53 17.23 6.53 17.09 6.88 16.96 6.53"/><polygon class="cls-7" points="17.51 6.28 17.78 6.28 17.64 6.63 17.51 6.28"/><polygon class="cls-7" points="18.11 6.16 18.38 6.16 18.25 6.5 18.11 6.16"/><polygon class="cls-7" points="18.73 5.89 18.99 5.89 18.86 6.24 18.73 5.89"/><polygon class="cls-7" points="18.68 4.13 18.41 4.13 18.55 3.79 18.68 4.13"/><polygon class="cls-7" points="18.07 4.13 17.8 4.13 17.94 3.79 18.07 4.13"/><polygon class="cls-7" points="17.46 4.13 17.2 4.13 17.33 3.79 17.46 4.13"/><polygon class="cls-7" points="16.93 4.13 16.66 4.13 16.79 3.79 16.93 4.13"/><polygon class="cls-7" points="16.36 4.13 16.09 4.13 16.23 3.79 16.36 4.13"/><polygon class="cls-7" points="15.82 4.13 15.55 4.13 15.68 3.79 15.82 4.13"/><polygon class="cls-7" points="15.24 4.13 14.97 4.13 15.11 3.79 15.24 4.13"/><polygon class="cls-7" points="14.7 4.13 14.43 4.13 14.56 3.79 14.7 4.13"/><polygon class="cls-7" points="14.13 4.13 13.86 4.13 13.99 3.79 14.13 4.13"/><polygon class="cls-7" points="13.58 4.13 13.31 4.13 13.44 3.79 13.58 4.13"/><polygon class="cls-7" points="12.97 4.13 12.7 4.13 12.84 3.79 12.97 4.13"/><polygon class="cls-7" points="12.4 4.13 12.13 4.13 12.26 3.79 12.4 4.13"/><line class="cls-10" x1="12.22" y1="20.67" x2="12.22" y2="22.7"/><polyline class="cls-10" points="11.53 22.04 11.93 22.05 11.37 22.35 12.22 20.67 13.06 22.35 12.55 22.1 12.93 22.1"/><line class="cls-10" x1="12.22" y1="22.35" x2="12.22" y2="24.38"/><polyline class="cls-10" points="11.53 23.72 11.93 23.73 11.37 24.03 12.22 22.35 13.06 24.03 12.55 23.78 12.93 23.78"/><line class="cls-10" x1="12.22" y1="24.03" x2="12.22" y2="26.06"/><polyline class="cls-10" points="11.53 25.4 11.93 25.41 11.37 25.71 12.22 24.03 13.06 25.71 12.55 25.45 12.93 25.45"/><line class="cls-10" x1="9.14" y1="20.67" x2="9.14" y2="22.7"/><polyline class="cls-10" points="8.44 22.04 8.85 22.05 8.28 22.35 9.13 20.67 9.97 22.35 9.46 22.1 9.84 22.1"/><line class="cls-10" x1="9.14" y1="22.35" x2="9.14" y2="24.38"/><polyline class="cls-10" points="8.44 23.72 8.85 23.73 8.28 24.03 9.13 22.35 9.97 24.03 9.46 23.78 9.84 23.78"/><line class="cls-10" x1="9.14" y1="24.03" x2="9.14" y2="26.06"/><polyline class="cls-10" points="8.44 25.4 8.85 25.41 8.28 25.71 9.13 24.03 9.97 25.71 9.46 25.45 9.84 25.45"/><line class="cls-10" x1="18.25" y1="20.67" x2="18.25" y2="22.7"/><polyline class="cls-10" points="17.55 22.04 17.96 22.05 17.4 22.35 18.25 20.67 19.08 22.35 18.57 22.1 18.95 22.1"/><line class="cls-10" x1="18.25" y1="22.35" x2="18.25" y2="24.38"/><polyline class="cls-10" points="17.55 23.72 17.96 23.73 17.4 24.03 18.25 22.35 19.08 24.03 18.57 23.78 18.95 23.78"/><line class="cls-10" x1="18.25" y1="24.03" x2="18.25" y2="26.06"/><polyline class="cls-10" points="17.55 25.4 17.96 25.41 17.4 25.71 18.25 24.03 19.08 25.71 18.57 25.45 18.95 25.45"/><line class="cls-10" x1="21.34" y1="20.67" x2="21.34" y2="22.7"/><polyline class="cls-10" points="20.64 22.04 21.05 22.05 20.48 22.35 21.33 20.67 22.17 22.35 21.66 22.1 22.04 22.1"/><line class="cls-10" x1="21.34" y1="22.35" x2="21.34" y2="24.38"/><polyline class="cls-10" points="20.64 23.72 21.05 23.73 20.48 24.03 21.33 22.35 22.17 24.03 21.66 23.78 22.04 23.78"/><line class="cls-10" x1="21.34" y1="24.03" x2="21.34" y2="26.06"/><polyline class="cls-10" points="20.64 25.4 21.05 25.41 20.48 25.71 21.33 24.03 22.17 25.71 21.66 25.45 22.04 25.45"/><line class="cls-11" x1="5.35" y1="6.15" x2="5.35" y2="10.33"/><polyline class="cls-11" points="3.91 8.98 4.75 9 3.59 9.61 5.35 6.15 7.07 9.61 6.02 9.09 6.8 9.09"/><line class="cls-11" x1="5.35" y1="9.61" x2="5.35" y2="13.8"/><polyline class="cls-11" points="3.91 12.44 4.75 12.46 3.59 13.08 5.35 9.61 7.07 13.08 6.02 12.55 6.8 12.55"/><line class="cls-11" x1="5.35" y1="13.08" x2="5.35" y2="17.26"/><polyline class="cls-11" points="3.91 15.9 4.75 15.93 3.59 16.54 5.35 13.08 7.07 16.54 6.02 16.02 6.8 16.02"/><polygon class="cls-7" points="3.97 16.01 3.82 16.3 4.37 16.01 3.97 16.01"/><polygon class="cls-7" points="3.97 12.54 3.82 12.83 4.37 12.54 3.97 12.54"/><polygon class="cls-7" points="3.95 9.07 3.79 9.4 4.37 9.07 3.95 9.07"/><polygon class="cls-7" points="6.79 9.16 6.94 9.45 6.39 9.16 6.79 9.16"/><polygon class="cls-7" points="6.74 12.63 6.89 12.92 6.34 12.63 6.74 12.63"/><polygon class="cls-7" points="6.74 16.07 6.89 16.36 6.34 16.07 6.74 16.07"/><line class="cls-11" x1="25.26" y1="5.79" x2="25.26" y2="9.97"/><polyline class="cls-11" points="23.82 8.62 24.66 8.64 23.5 9.26 25.26 5.79 26.98 9.26 25.93 8.73 26.71 8.73"/><line class="cls-11" x1="25.26" y1="9.25" x2="25.26" y2="13.44"/><polyline class="cls-11" points="23.82 12.08 24.66 12.11 23.5 12.72 25.26 9.26 26.98 12.72 25.93 12.2 26.71 12.2"/><line class="cls-11" x1="25.26" y1="12.72" x2="25.26" y2="16.9"/><polyline class="cls-11" points="23.82 15.54 24.66 15.57 23.5 16.18 25.26 12.72 26.98 16.18 25.93 15.66 26.71 15.66"/><polygon class="cls-7" points="23.88 15.65 23.73 15.94 24.28 15.65 23.88 15.65"/><polygon class="cls-7" points="23.88 12.18 23.73 12.47 24.28 12.18 23.88 12.18"/><polygon class="cls-7" points="23.86 8.71 23.7 9.04 24.28 8.71 23.86 8.71"/><polygon class="cls-7" points="26.7 8.8 26.85 9.09 26.3 8.8 26.7 8.8"/><polygon class="cls-7" points="26.65 12.27 26.8 12.56 26.25 12.27 26.65 12.27"/><polygon class="cls-7" points="26.65 15.71 26.8 16 26.25 15.71 26.65 15.71"/><path class="cls-5" d="M26.46,22.57c-.22-.08-.44-.17-.66-.24a1.19,1.19,0,0,0-.79.06,4.83,4.83,0,0,1-.5.16.49.49,0,0,1-.58-.62,2.62,2.62,0,0,1,.52-1,1.21,1.21,0,0,1,1.1-.48,1.06,1.06,0,0,1,.61.31,3.1,3.1,0,0,1,.6.75,1.65,1.65,0,0,1,.24.6.41.41,0,0,1-.36.49,0,0,0,0,0,0,0Z"/><path class="cls-5" d="M27.71,20.09c0,.13-.06.26-.11.38a.83.83,0,0,1-.5.47.42.42,0,0,1-.55-.25.81.81,0,0,1,0-.63A.9.9,0,0,1,27,19.5a.46.46,0,0,1,.72.35l0,0Z"/><path class="cls-5" d="M26.73,18.8a1.11,1.11,0,0,1-.35.83.47.47,0,0,1-.8-.17,1.11,1.11,0,0,1,.28-1.26.45.45,0,0,1,.61,0,.66.66,0,0,1,.24.42C26.72,18.67,26.72,18.74,26.73,18.8Z"/><path class="cls-5" d="M24,18.81a1.08,1.08,0,0,1,.08-.42.47.47,0,0,1,.78-.16,1,1,0,0,1,.37.7,1,1,0,0,1-.1.59.47.47,0,0,1-.35.26.43.43,0,0,1-.36-.11A1,1,0,0,1,24,19C24,19,24,18.86,24,18.81Z"/><path class="cls-5" d="M24.26,20.46a.59.59,0,0,1-.19.49.41.41,0,0,1-.49,0,1,1,0,0,1-.51-1.15.44.44,0,0,1,.6-.27,1,1,0,0,1,.57.76A1,1,0,0,1,24.26,20.46Z"/><path class="cls-5" d="M6.24,22.52l-.66-.23a1.19,1.19,0,0,0-.79.06,3.17,3.17,0,0,1-.5.15.48.48,0,0,1-.58-.61,2.73,2.73,0,0,1,.52-1.05,1.22,1.22,0,0,1,1.1-.47,1.1,1.1,0,0,1,.61.3,3.35,3.35,0,0,1,.6.76,1.58,1.58,0,0,1,.24.6.4.4,0,0,1-.36.48H6.24Z"/><path class="cls-5" d="M7.49,20.05a2.4,2.4,0,0,1-.12.38.79.79,0,0,1-.49.47.42.42,0,0,1-.55-.25.77.77,0,0,1,0-.63.9.9,0,0,1,.43-.56.46.46,0,0,1,.72.35l0,0Z"/><path class="cls-5" d="M6.5,18.76a1.1,1.1,0,0,1-.34.83.47.47,0,0,1-.8-.17,1.12,1.12,0,0,1,.28-1.27.46.46,0,0,1,.61,0,.66.66,0,0,1,.23.42A.82.82,0,0,1,6.5,18.76Z"/><path class="cls-5" d="M3.76,18.77a1,1,0,0,1,.08-.42.47.47,0,0,1,.78-.16,1,1,0,0,1,.37.7,1,1,0,0,1-.1.59.49.49,0,0,1-.35.26.46.46,0,0,1-.36-.11A1,1,0,0,1,3.79,19C3.77,18.9,3.77,18.82,3.76,18.77Z"/><path class="cls-5" d="M4,20.42a.59.59,0,0,1-.19.48.42.42,0,0,1-.5,0,1,1,0,0,1-.5-1.15.43.43,0,0,1,.59-.27,1,1,0,0,1,.58.76A1,1,0,0,1,4,20.42Z"/></g><path class="cls-12" d="M15,2.5A12.5,12.5,0,1,1,2.5,15,12.5,12.5,0,0,1,15,2.5M15,1A14,14,0,1,0,29,15,14,14,0,0,0,15,1Z"/></svg>