<?xml version="1.0" encoding="UTF-8"?><svg xmlns="http://www.w3.org/2000/svg" xmlns:xlink="http://www.w3.org/1999/xlink" viewBox="0 0 30 30"><defs><style>.cls-1{fill:none;}.cls-2{clip-path:url(#clippath);}.cls-3{fill:#f5ce94;}.cls-4{fill:#ece5d3;}.cls-5{fill:#334882;}.cls-6{fill:#d1d1d1;}.cls-7{fill:#e0ad6e;}.cls-8{fill:#d7ac81;}.cls-9{fill:#221e20;}.cls-10{clip-path:url(#clippath-1);}.cls-11{isolation:isolate;}.cls-12{mix-blend-mode:multiply;opacity:.35;}</style><clipPath id="clippath"><circle class="cls-1" cx="-285" cy="15" r="12.5"/></clipPath><clipPath id="clippath-1"><circle class="cls-1" cx="-35" cy="15" r="12.5"/></clipPath></defs><g class="cls-11"><g id="Livello_1"><g class="cls-2"><rect class="cls-4" x="-988.08" y="-557.96" width="1500" height="1000"/></g><g class="cls-10"><g><rect class="cls-7" x="-75.98" y="-7.65" width="92.23" height="61.49"/><g><g><g class="cls-12"><path class="cls-8" d="M2.1,3.28C.46,1.51,.98-.97,.8-3.17c-.13-1.61-.74-3.27-1.83-4.47H-9.15c.18,.06,.36,.12,.54,.18C-5.44-6.43-3.39-4.06-2.66-.78-2.15,1.51-1.37,4.47-.02,6.4c1.01,1.46,2.77,1.66,4.09,2.69,1.64,1.28,2.37,4.07,2.6,6.03,.26,2.21-.01,4.39,1.54,6.21,2.29,2.69,4.18-.01,4.56-2.54,.56-3.68-.88-7.54-3.43-10.2-2.1-2.2-5.23-3.13-7.26-5.32Z"/><path class="cls-8" d="M-6.14,5.04c-1.64-1.77-1.12-4.25-1.3-6.45-.15-1.75-.85-3.56-2.12-4.77-.62-.6-1.32-1.07-2.07-1.47h-10.59c1.78,.67,3.58,1.35,5.38,1.94,3.18,1.04,5.22,3.41,5.95,6.69,.51,2.29,1.29,5.25,2.64,7.19,1.01,1.46,2.77,1.66,4.09,2.69,1.64,1.28,2.37,4.07,2.6,6.03,.26,2.21-.01,4.39,1.54,6.21,2.29,2.69,4.18-.01,4.56-2.54,.56-3.68-.88-7.54-3.43-10.2-2.1-2.2-5.23-3.13-7.26-5.32Z"/><path class="cls-8" d="M7.81-2.52c-1.31-1.42-1.24-3.3-1.25-5.13H2.75c.11,.34,.21,.7,.3,1.06,.51,2.29,1.29,5.25,2.64,7.19,1.01,1.46,2.77,1.66,4.09,2.69,1.64,1.28,2.37,4.07,2.6,6.03,.26,2.21-.01,4.39,1.54,6.21,.85,1,1.64,1.25,2.32,1.05V4.25c-.36-.51-.76-1-1.19-1.44C12.96,.6,9.84-.33,7.81-2.52Z"/></g><g class="cls-12"><path class="cls-8" d="M16.25,39.16c-.43-.33-.84-.69-1.21-1.09-1.64-1.77-1.12-4.25-1.3-6.45-.15-1.75-.85-3.56-2.12-4.77-1.79-1.71-4.21-2.44-6.6-3.04-1.15-.29-2.25-.19-3.38-.63-1.23-.48-2.32-1.25-3.52-1.8-1.15-.52-3.46-1.02-2.93,1.03,.4,1.53,1.93,2.28,3.28,2.79,1.93,.73,3.89,1.48,5.86,2.12,3.18,1.04,5.22,3.41,5.95,6.69,.51,2.29,1.29,5.25,2.64,7.19,.83,1.19,2.15,1.54,3.33,2.19v-4.22Z"/><path class="cls-8" d="M-9.76,26.96c1.93,.73,3.89,1.48,5.86,2.12,3.18,1.04,5.22,3.41,5.95,6.69,.51,2.29,1.29,5.25,2.64,7.19,1.01,1.46,2.77,1.66,4.09,2.69,1.64,1.28,2.37,4.07,2.6,6.03,.09,.73,.11,1.45,.17,2.17h4.7v-5.57c-.58-1.14-1.32-2.2-2.2-3.11-2.1-2.2-5.23-3.13-7.26-5.32-1.64-1.77-1.12-4.25-1.3-6.45-.15-1.75-.85-3.56-2.12-4.77-1.79-1.71-4.21-2.44-6.6-3.04-1.15-.29-2.25-.19-3.38-.63-1.23-.48-2.32-1.25-3.52-1.8-1.15-.52-3.46-1.02-2.93,1.03,.4,1.53,1.93,2.28,3.28,2.79Z"/><path class="cls-8" d="M-20.38,26.96c1.93,.73,3.89,1.48,5.86,2.12,3.18,1.04,5.22,3.41,5.95,6.69,.51,2.29,1.29,5.25,2.64,7.19,1.01,1.46,2.77,1.66,4.09,2.69,1.64,1.28,2.37,4.07,2.6,6.03,.09,.73,.11,1.45,.17,2.17H6.98c.03-3.2-1.35-6.39-3.54-8.69-2.1-2.2-5.23-3.13-7.26-5.32-1.64-1.77-1.12-4.25-1.3-6.45-.15-1.75-.85-3.56-2.12-4.77-1.79-1.71-4.21-2.44-6.6-3.04-1.15-.29-2.25-.19-3.38-.63-1.23-.48-2.32-1.25-3.52-1.8-1.15-.52-3.46-1.02-2.93,1.03,.4,1.53,1.93,2.28,3.28,2.79Z"/><path class="cls-8" d="M16.25,20.17c-1.63-1.11-3.58-1.68-5.52-2.17-1.15-.29-2.25-.19-3.38-.63-1.23-.48-2.32-1.25-3.52-1.8-1.15-.52-3.46-1.02-2.93,1.03,.4,1.53,1.93,2.28,3.28,2.79,1.93,.73,3.89,1.48,5.86,2.12,3.18,1.04,5.22,3.41,5.95,6.69,.08,.36,.17,.73,.26,1.11v-9.14Z"/></g></g><g><path class="cls-3" d="M6.09,20.76c.2,.02,.24-.07,.19-.16-.08,0,.09-.13,.2-.1,.1-.06,.27,.07,.22-.05-.02-.05,.3,.01,.24,0-.14-.07,.19,.1,.23,.03,.1,0,.1,.13,.23,.07,.1,.09,.16-.02,.27,.12-.09,0,.12,.08,.21,.14,.16,.04-.08,.12,.15,.17,.09,.03,.12,.09,.09,.2-.02,.14-.11,.13,.02,.25,.03,.16,.06,.27-.05,.31-.05,.07-.26,.14-.13,.31-.04,.19-.1,.11-.22,.24,.15-.11-.23,.2-.28,.16-.09,0-.14,.13-.31,.07-.19-.19-.21-.06-.32-.03-.19-.03-.26,0-.3-.13-.05-.09-.15-.12-.22-.19-.14-.12-.15-.17-.2-.25-.18-.08-.08-.1-.15-.29-.21-.13-.06-.15-.07-.3,.14-.17,.12-.21,.03-.3-.03-.15,0-.14,.15-.27Z"/><path class="cls-3" d="M.82,19.04c.2,.02,.24-.07,.19-.16-.08,0,.09-.13,.2-.1,.1-.06,.27,.07,.22-.05-.02-.05,.3,.01,.24,0-.14-.07,.19,.1,.23,.03,.1,0,.1,.13,.23,.07,.1,.09,.16-.02,.27,.12-.09,0,.12,.08,.21,.14,.16,.04-.08,.12,.15,.17,.09,.03,.12,.09,.09,.2-.02,.14-.11,.13,.02,.25,.03,.16,.06,.27-.05,.31-.05,.07-.26,.14-.13,.31-.04,.19-.1,.11-.22,.24,.15-.11-.23,.2-.28,.16-.09,0-.14,.13-.31,.07-.19-.19-.21-.06-.32-.03-.19-.03-.27,0-.3-.13-.05-.09-.15-.12-.22-.19-.14-.12-.15-.17-.2-.25-.18-.08-.08-.1-.15-.29-.21-.13-.06-.15-.07-.3,.14-.17,.12-.21,.03-.3-.03-.15,0-.14,.15-.27Z"/><path class="cls-3" d="M.45,2.97c.04-.06-.03-.03-.14-.11-.01-.07-.09-.08-.22-.13-.06-.04-.15-.02-.24-.04-.12-.06-.19,.04-.25,.02-.18,.07-.21,0-.25,.07-.12,.08-.16,.05-.34,.25,.05-.03-.1,.17-.12,.23-.12,.08-.14-.13-.18-.11-.24,.02-.1-.08-.31-.05-.22-.03-.17,0-.24,.02,0,0-.24,.04-.24,.05,.06-.08-.17,.08-.23,.08,.03,.01-.11,.03-.21,.12-.12-.11-.12,.11-.17,.16-.08,.08-.09,.08-.12,.22-.15-.03-.02,.3-.07,.21-.05,0-.05,.14-.07,.22-.04-.01,0,.1-.07,.22-.11,.13-.04,.24-.07,.22-.17-.06-.06,.18-.07,.22,.06,.14-.09,.16-.07,.22-.03,.16-.12,.54-.1,.4-.17,.21,.03,.16,.07,.4,.18,.19,.24,.15-.02,.38-.12,0-.06,.28-.19,.34-.03,.06-.11,.32,.02,.38-.04,.26-.03,.12,.17,.28,.13,.09,.23,.27,.21,.26,.2,.23,.14,.37,.27,.33,.1,.1,.15,.15,.21,.12-.08,.03,.05-.13,.23,.08-.03-.07,.14,.12,.24,.05,.09-.06,.21,.04,.25,.02,.23,0,.17-.02,.25,0-.07-.06,.17-.09,.24-.03,.11,0,.24,0,.31-.12,.03-.09,.08-.17,.23-.21,.13-.12,.2-.17,.18-.27,.03-.14,.13-.22,.16-.29,.04-.15,.09-.11,.09-.21,.03-.11,.07-.26,.12-.2,.06-.02,.11-.11,.2-.15,.07,.02,.11-.11,.22-.12,.03-.02,.2,.03,.23-.14,.04-.03,.2-.06,.21-.14,.09-.09,.24-.05,.2-.16,.03,.04,.16-.08,.19-.19,.06-.2,.09-.13,.17-.23,.02-.09,.08-.13,.04-.2,.02-.08-.01-.14-.06-.2-.04-.24-.08-.11-.15-.24-.17-.1-.04-.24,.19-.29,.1,.02,.18-.02,.22-.13,.11,.06,.11-.09,.16-.2,.11-.14,.04-.11,0-.24-.11,.06-.15-.13-.13-.21-.06-.09-.19-.12-.18-.36-.11-.06-.13-.07-.14-.19-.1-.09-.12-.04-.18-.15-.03-.08-.03,.02-.2-.13-.1-.01-.15-.08-.2-.13Z"/><path class="cls-3" d="M3.21,.1c-.1-.24-.15-.31-.16-.3,0-.15-.13-.07-.11-.32,.01-.09-.05-.16,0-.23,0,.04,0-.02-.08-.21-.19-.16-.08-.12-.18-.13-.05-.08-.13-.09-.22-.06-.21-.04-.06-.07-.24,0-.07,.08-.2,.07-.22,0-.13-.1-.09-.02-.29,.03-.09,.03-.25,.13-.3,.06,0,.22-.16,.18-.29,.1-.04,0-.21,.24-.26,.13,.02,.07-.11,.07-.25,.17-.13,.02-.14,.12-.22,.2-.09,.1-.1,.18-.1,.27-.01,.1,.24,.27,.13,.29,0,.17,.21,.2,.13,.26,.07-.02,.04,.32,.12,.26-.17,.05,.17,.14,.1,.27,.09,.21,.2,.17,.07,.29-.02,.09-.04,.25,.12,.42,.13,.13,.11,.22,.33,.26,.01,.07,.21-.02,.22,.05-.06-.06,.02,.03,.23,.02-.04,.1,.19-.18,.23,.02,.06,0,.1,0,.22,.05,.22,.18,.13,.01,.29,.08,.19-.07,.12-.07,.29-.1,.02-.16,.15-.01,.23-.17,0-.03,.27-.16,.22-.22,.11-.13,.11-.11,.19-.25,.08-.08,.14-.14,.12-.26,0-.06-.03-.18,.02-.26,.06-.09,0-.16-.07-.25-.04-.07-.21-.27-.12-.24,.09-.16-.15-.09-.13-.23Z"/><path class="cls-3" d="M3.45,11.42c.05-.05,.28-.15,.14-.24,.08-.16,.05-.22,.07-.27,.02-.02-.06-.1,0-.29-.04-.14-.02-.2-.06-.29-.08-.05-.07-.29-.11-.28-.05-.08-.02-.11-.15-.26-.03-.16,0-.12-.18-.22-.02-.04-.1-.09-.2-.18-.02-.11-.3-.08-.26-.14-.11-.07-.11,.01-.28-.08,.05-.04-.19-.12-.31-.04,0,.03-.14-.03-.31,.02-.18,.04-.08,.09-.33,.05,.02,.02-.18-.03-.3,.05-.1-.01-.19,.04-.29,.08-.09,.03-.14,.11-.27,.08-.14,.03-.26,.11-.28,.22-.04,.06-.14,.26-.07,.37-.02,.1,.02,.23-.06,.3-.01,.05,.03,.18-.09,.29,0,.09-.11,.25-.11,.28-.05,.16-.11,.15-.11,.29-.11,.12-.02,.35-.04,.43,.01,.06,0,.26,.14,.41,.07,.07,.15,.33,.11,.4,.04,.09,.04,.26,.14,.39,0,.05,.03,.2,.15,.21,.11,.12,.11,.09,.2,.2,0,.11,.2,.23,.22,.18,.03,.09,.12,.14,.21,.14,.07,.02,.21,.06,.26,.06,.06-.12,.06-.05,.2-.1-.02-.1,.17-.13,.17-.19,.12-.04,.15-.11,.17-.22,.06-.07,.12-.2,.19-.22,.13-.05,.14-.1,.2-.21,.06-.09,.17-.17,.2-.2-.04-.05,.18-.07,.21-.2,.07-.13,.15-.13,.21-.2,.11-.03,.11-.16,.21-.2-.04-.1,.18-.16,.2-.2,.03-.04,.15-.18,.19-.21Z"/><path class="cls-3" d="M8.7,8.25c-.05-.21-.1-.18-.03-.36-.07-.17-.15-.22-.14-.31-.01-.03-.21-.36-.22-.26-.16-.12-.25-.22-.28-.2-.16-.14-.26-.25-.33-.13-.12,.08-.27-.1-.35-.05-.15,.02-.15,.11-.31,.02-.05,.09-.19,.09-.31,.08-.04,.02-.18,0-.3,.12,0,.01-.22-.02-.29,.14-.02,.2-.22,.19-.28,.15-.12,.14-.24,.14-.27,.15-.08,.22-.27,.17-.27,.28-.08,.16,.04,.24-.02,.41,0-.04-.1,.29,.02,.31,.09,.04,.1,.17,.03,.31-.05,.03,0,.18,.02,.31,.03,.11,.04,.18,0,.31,.02,.04-.07,.23,0,.29-.02,.11,.08,.22,.16,.22,.07,.02,.13-.02,.22,.1-.04,.07,.11,.12,.28,.06,.08-.01,.18,.09,.31,.02,.23,.05,.06,.06,.33-.02,.19,.04,.26,0,.33-.04,.1,0,.2-.15,.31-.07,.17,.01,.13,.02,.27-.09,.09-.13,.22-.08,.22-.1,.15-.17,.12-.08,.23-.18-.03-.13,.15-.15,.21-.25,.14-.03,.07-.27,.18-.3,.04-.03,.04-.29,.14-.32,.05-.24,.03-.11,.1-.31,.02-.06,.03-.14,.05-.28Z"/><path class="cls-3" d="M5.48,4.98c.2-.13,.15-.25,.18-.34-.04-.1,.06-.18-.11-.25-.07,.02-.17-.08-.31-.17-.2,.13-.19-.02-.4-.12-.2-.12-.29,0-.4-.06-.12-.07-.03-.05-.3-.03-.17,.2-.23-.05-.33,.01-.25-.02-.23,.19-.35,.06-.18,.06-.08-.05-.33,.12,.03,.05-.37,.08-.29,.18-.1,.06-.11,.26-.22,.25-.08,.18-.18,.12-.12,.34,.09,.19,.06,.18-.03,.22,.03,0-.08,.25-.02,.25,.12,.12,0,.29,.13,.41,0,.07,.23,.15,.21,.11,.06,0,.19,.11,.28,.07,.06-.04,.21-.02,.32,.03,.14,.04,.19-.11,.32,0,.09,0,.16-.06,.29-.04,.05,0,.23-.1,.23-.07,0-.06,.15-.05,.22-.11,.03-.02,.07-.15,.23-.14,.01-.03,.13-.18,.23-.17,.09-.04,.16-.12,.22-.18,.1-.09,.13-.09,.2-.18,.02,.03,.1-.04,.17-.17Z"/><path class="cls-3" d="M8.38-.67c.02-.06-.11-.16-.06-.24,0-.22-.07,.01-.08-.24,.01-.12,.07-.23-.11-.22,0-.12-.03-.15-.13-.21-.03-.06,.03-.1-.16-.19-.02,.01-.19-.13-.19-.17-.14,.01-.23-.1-.27-.17-.04-.15-.28,.02-.25-.08-.11-.13-.15,.04-.24,0-.09-.03-.14-.07-.25,.04-.14,.11-.05,.16-.27,.08-.22,.16-.2-.08-.3,.08-.19,.1-.36,.1-.36,.08-.33-.07-.26-.06-.33,.15-.09,.08-.07,.14-.13,.15-.08,.24-.18,.02-.1,.22-.13,.07,.09,.12-.06,.25-.04,.1-.16,0-.03,.26,.14,.05,.04,.1,0,.24-.08,.14-.06,.19,.03,.2,.06,.08,.05,.03,.11,.26,.08-.02,.15,.1,.17,.21-.04,.17,.09-.01,.22,.16,.14,.19,.19,.14,.25,.12,0,.11,.21,.16,.26,.09,.26,.04,.29,.08,.27,.07,.2,.03,.19,.06,.28,.05,.17,.04,.06,0,.28,.02,.04,.17,.19,.24,.28,0-.03,.05,.21,.04,.27-.04,.05,.05,.27-.04,.26-.08,.16,0,.17-.02,.25-.13,.14-.07,.18-.03,.21-.18-.03-.03,.08-.34,.14-.24,.05-.15,.08-.13,.06-.27,.1-.14-.06-.13-.02-.28Z"/><path class="cls-3" d="M13.9,.28s-.07-.13-.04-.22c.14-.11-.22,0-.08-.21-.07-.17-.09-.04-.11-.21-.14,.06-.13-.13-.13-.19,.04,.02-.13-.29-.15-.18-.15-.02,0-.22-.15-.15-.22,.03-.07-.24-.26-.21-.13,.07-.12-.07-.26-.14-.04-.07-.08-.13-.26-.08-.21,.07-.2,.06-.28-.02-.22,0-.13-.12-.3,.03-.16-.09-.34,.03-.31,.06-.14-.02-.25,0-.24,.07,.03,.04-.24,.06-.28,.09-.08,.06-.15,.04-.29,.12-.03,.02-.04,.11-.27,.16,.03,.02-.16,.06-.22,.19-.04,.2-.15,.12-.14,.23-.02,0-.16,.18-.06,.27-.12,.12-.08,.22-.02,.3,.05-.03-.07,.17,.01,.32,.05,0-.09,.22,.04,.31,.1,.04,.18,.16,.07,.3-.03,.04,.05,.16,.09,.26-.04,.08,.1,.29,.17,.28,.12,.06,.06,.15,.23,.16,.07,.03,.09,.06,.27,.07,.03-.02,.12,.05,.3,0,.14,.05,.34,.08,.31-.06,.17-.01,.24-.13,.31-.09,.13,.03,.07-.1,.27-.08,.02,0,.15-.05,.32-.11,.07-.08,.28-.03,.35-.13,.16-.09,.35-.07,.35-.16,.01-.12,.24-.21,.31-.19,0-.04,.21-.19,.25-.23,.08-.01,.15-.09,.16-.26,.09-.02,.15-.21,.04-.3Z"/><path class="cls-3" d="M11.6,7.3c.06,.04,.29,.12,.3,.03,.15-.06,.25-.04,.3-.07,.19-.11,.26-.1,.28-.14,.05,.03,.12-.15,.26-.19-.08-.17,.14-.09,.22-.22,.11-.02,.06-.1,.16-.24,.11-.2,.15-.15,.13-.32-.1-.05-.08-.22,.04-.31,.04-.12-.02-.39-.05-.3,.06-.02-.17-.17-.12-.29-.11-.12-.19-.2-.19-.27-.05-.05-.22-.2-.24-.26-.05-.01-.12-.19-.25-.2-.26,.02,.04-.2-.28-.16-.11-.07-.13,0-.31-.1-.09-.04-.4,.08-.3-.01-.11-.04-.12,.03-.27,.11-.16,.19-.28,0-.21,.26-.04,0,.03,.2-.11,.28-.04,.13-.05,.15-.06,.28-.19,.07-.01,.2-.05,.27,.11,.11-.06,.24-.07,.25-.04,.13,.05,.18-.14,.23,0-.02-.1,.29-.24,.2-.13-.03-.21-.02-.19,.13,.02,.14-.18,0-.17,.17-.13,.19,.04,.19-.08,.2,.09,.13,0,.16,.08,.22,.08,.12,.19,.17,.36,.18,.04-.05,.34,.03,.41,.06,.22-.07,.41,.22,.4,.11,.24,.19,.2,.17,.4,.12Z"/><path class="cls-3" d="M15.95,3.36c-.11-.01,.04-.31,.13-.37,.14-.14,.14-.19-.11-.3-.04,0-.17,.08-.2,0-.18,0-.02,.04-.22,.13,.03,.02-.11,.15-.21,.15-.12-.04-.04,.11-.17,.14-.1,.03-.23,0-.39,.2-.25,.12-.31,.16-.34,.27-.14,.25-.16,.18,.04,.34,.05,.17,.17,.09,.35,.22,.09-.04,.34,.21,.25,.17,.09,.03,.07,.09,.29,.2,.14,.08,.16,.11,.27,.09,.11-.03,.26,0,.21-.15,.07-.05-.05-.33,.07-.26-.05-.08,.01-.29,0-.27,.01,0,.07-.3,0-.27,.19-.16-.12-.14,.05-.28Z"/><path class="cls-3" d="M14.6,12.11s-.12-.1,.03-.3c-.05-.11-.05-.27-.06-.32-.06-.11-.03-.11-.13-.34-.05-.05-.09-.12-.2-.34-.05-.13-.26-.23-.25-.32-.1-.1-.27-.23-.29-.3,0-.13-.23-.07-.32-.26-.14,.04-.16-.17-.34-.21-.1-.13-.3,0-.35-.15-.04-.04-.33,.01-.34-.08-.07-.13-.16,.09-.33,.01-.04-.09-.16-.06-.31,.11-.02,.06-.25,.07-.25,.2-.03,.02-.03,.11-.2,.27,.05,.1-.11,.13-.14,.31,0,.21,.03,.09-.09,.31-.02,.13-.07,.12-.02,.3,.03-.02-.06,.14,.05,.28,.07,.11,0,.27,.1,.26,0,.19-.02,.31,.14,.25,.08,.1,.08,.05,.16,.24,.04,.05,.12,.21,.15,.26,.15,.16,.19,.14,.21,.3,.08,.17,.38,.2,.22,.23,.11,.11,.25,.15,.24,.14,.03,.16,.19,.04,.26,.07,.11,.22,.31,.04,.31-.01,.08,.05,.27-.07,.34-.12,.07,.05-.02,.04,.25-.08,.18,0,.14-.07,.28-.08-.02-.02,.19-.24,.29-.09,.12-.02,.19-.07,.27-.12,.13,.01,.1-.11,.21-.17,.21-.12,.02-.11,.12-.23Z"/><path class="cls-3" d="M10.48,14.53c.02-.09-.13-.18-.07-.26,.04-.05-.09-.07-.12-.29-.01-.05-.1-.12-.16-.3-.09-.01-.04-.11-.19-.29-.01-.03-.08-.27-.22-.26-.06,0-.24-.23-.24-.21-.03,.06-.23-.17-.26-.14-.07-.06-.12,.06-.28-.06-.08-.03-.19-.02-.31,.02-.15-.12-.24-.03-.33,.1-.19,.02-.2,.19-.32,.16-.18,.02-.33,.15-.3,.19-.09,.08-.18,.15-.25,.23-.06,.06-.14,.24-.18,.25-.09,.21-.12,.11-.07,.33,.14,.04-.26,.16,.04,.34-.07,.16,.04,.07-.05,.25-.21,.07-.14,.14-.13,.23-.19,.14-.06,.12-.11,.23,.03-.06-.12,.06,.02,.23,.05,.23,.25,.17,.16,.18,.07,.13,.16,.21,.25,.12,.02,.07,.22,.13,.31,.08,.12,.07,.29,.07,.34,.05,.23-.02,.24,.1,.35,.02,.11-.03,.22,0,.34,0,.2-.02,.2-.03,.29-.01,.24-.06,.18-.09,.23-.01,.17-.05,.26-.05,.36-.04,.23-.06,.17-.1,.34-.09,.09-.08,.2-.14,.28-.15,.05-.04-.02-.09,.21-.22,.07-.12,.15-.18,.1-.3-.15,.05,.08-.22-.02-.39Z"/><path class="cls-3" d="M16.25,6.85s-.05,0-.05,.04c0-.08-.27-.05-.22,0-.07,.12-.17-.07-.24,.07,.04,.11,0,.02-.18,.11-.03,.14-.04,.19-.16,.16-.09,.06,.05,.13-.15,.19-.02-.03-.21,.08-.2,.22-.22,.19-.18,.11-.2,.21-.08,.1-.23,.13-.16,.24-.1,.08,.11,.18-.04,.3,.06,.1,.12,.23,.14,.29,.05,.02,.16,.14,.12,.32-.03,.04,.02,.17,.1,.32,.21,.13,.05,.37,.15,.29,.04,.15,.23,.11,.22,.1-.01,0,.32-.08,.21-.09,0-.01,.16,.09,.18-.22,.13-.15,.09-.24,.15-.28,.06-.16,.18-.23,.11-.28,.03-.09,.08-.18,.08-.2,.04-.01,.04-.21,.05-.24,.01-.08,0-.13,.06-.24,.02-.06,.04-.1,.05-.14v-1.18Z"/><path class="cls-3" d="M15.23,17.29c-.08,0-.09-.19-.13-.26,.07-.07-.09-.23-.18-.28-.06-.17-.12-.28-.22-.28-.07,0-.18-.11-.25-.26-.06,.03-.28-.2-.28-.22-.06-.08-.26-.11-.29-.16-.12-.15-.35-.02-.3-.09,.07-.04-.15,0-.31,.01-.16,.11-.08,.19-.29,.12-.17-.05-.19,.16-.28,.26-.18,.13-.13,0-.18,.27-.12,.07-.15,.05-.13,.28,.01,.16-.05,.09-.08,.31-.19,.09-.09,.2-.03,.32,.13,.15-.1,.16,.03,.31,.07,.19,.12,.2,.1,.29,.1,.19,0,.17,.17,.3,.16,.15,.1,.21,.21,.28,.06,.09,.21,.17,.23,.26,.12,.04,.1,.14,.25,.25,.05,.16,.22,.21,.26,.24,.07,.04,.17,.21,.25,.24,.09,.09,.18,.16,.27,.22,.18,.11,.35,.15,.55,.08,.1-.04,.18-.09,.3-.19,.14-.02,.22-.13,.21-.23,0-.13,.18-.21,.15-.27,.09-.01,.16-.23,.1-.29,.04-.21,.09-.21,.05-.31-.12-.1,.03-.23,0-.31-.05-.18,.06-.2-.03-.31,0-.07-.07-.19-.07-.31-.06-.17-.07-.13-.1-.29Z"/><path class="cls-3" d="M10.51,18.77c-.07,0-.07-.14-.11-.19,.06-.05-.08-.17-.15-.21-.05-.13-.1-.21-.18-.21-.06,0-.15-.08-.21-.19-.05,.02-.23-.15-.23-.16-.05-.06-.21-.08-.24-.12-.1-.11-.29-.02-.25-.06,.06-.03-.13,0-.26,0-.13,.08-.06,.14-.24,.09-.14-.04-.16,.12-.23,.19-.15,.1-.1,0-.15,.2-.1,.05-.12,.04-.11,.21,.01,.12-.04,.07-.07,.23-.16,.07-.07,.15-.03,.24,.11,.11-.09,.12,.02,.23,.06,.14,.1,.15,.08,.22,.08,.14,0,.13,.14,.22,.13,.11,.08,.15,.17,.21,.05,.06,.18,.13,.2,.2,.1,.03,.08,.11,.21,.19,.04,.12,.18,.15,.21,.18,.06,.03,.14,.16,.21,.18,.07,.07,.15,.12,.22,.16,.15,.08,.29,.11,.45,.06,.08-.03,.15-.07,.25-.14,.12-.02,.18-.1,.18-.17,0-.1,.15-.15,.13-.2,.07-.01,.13-.17,.09-.22,.04-.16,.08-.16,.04-.23-.1-.07,.03-.17,0-.23-.04-.14,.05-.15-.03-.23,0-.06-.06-.14-.06-.23-.05-.13-.06-.09-.08-.22Z"/><path class="cls-3" d="M5.26,16.51c-.04-.08,.08-.27,.09-.42,.07-.06,.05-.04,.05-.24-.21-.22,.07-.15,.03-.24-.07-.22-.1-.08-.08-.41-.04-.15-.15-.07-.35-.24-.1,.03-.19-.06-.23-.03-.07,.09-.13-.05-.24,0-.01-.01-.2,.01-.22,.04-.09,.08,.03,.04-.21,.03-.1,.04-.21,.02-.24,.03-.02,.02-.21,.13-.22,.02-.12-.02-.32,.06-.4,.1-.17-.05-.22,.1-.17,.13-.06,.04-.13,.18-.14,.22,.05,.02-.09,.05-.11,.22-.06,.11,.03,.1-.12,.2-.1,.2-.11,.07-.14,.19-.23,.04-.16,.17-.17,.18-.14,.38-.13,.1-.28,.29-.12,.09-.09,.31-.03,.37,.03,.17,.1,.23,.19,.24,.13-.13,.17,.11,.27,.16,.11,0,.16,.09,.33,.11,.07,.01,.25-.01,.35,.07,.04,.07,.26,.02,.33,.06,.19,.15,.15,.08,.29,.07,.09,.1,.2,.08,.41,.13,.06,.05,.26-.05,.42-.05-.03-.02,.21-.07,.18-.14-.04-.21,.08-.09,.14-.18,.1,0-.05-.1,.1-.22,0-.09,0-.2,.07-.23-.02-.08-.02-.17,.05-.23,.02-.1-.05-.09,.04-.22Z"/><path class="cls-9" d="M1.11,9.45c.06,.02,.12,.02,.16,.02,.16,0,.32-.06,.48-.08,.06,.02,.13,.03,.21,0,.11,.02,.2,.09,.29,.17,.02,.02,.04,.04,.06,.05,0,0,0,0,0,0,.09,.11,.16,.14,.27,.17,.03,0,.05,.01,.08,.02,.14,0,.27-.03,.39-.1,.03-.02,.05-.04,.08-.06,.08-.07,.14-.15,.18-.25,.11-.25,.13-.6-.06-.83-.12-.14-.24-.18-.38-.18h0c-.12-.02-.21,.02-.36,.02,0,0,0,0,0,0,0,0-.02,0-.02,0,0,0,0,0-.01,0-.01,0-.02,0-.03,0-.15-.05-.17-.08-.27-.05-.04-.01-.09-.02-.13-.03-.05-.03-.09-.05-.13-.03,0,0,0,0,0,0-.09-.02-.17-.03-.26-.03,0,0,0,0,0,0,0,0,0,0,0,0-.03,0-.05,0-.08,0-.05,0-.11,0-.21,.03-.06,.02-.11,.04-.16,.07-.06,.03-.12,.06-.17,.12-.1,.09-.17,.2-.21,.32-.02,.05-.03,.11-.03,.17-.03,.08-.05,.15,.04,.24,.05,.12,.15,.22,.3,.26Z"/><path class="cls-9" d="M3.47,15.85c.06-.08,0-.17,0-.22,0,0,0-.02,0-.02,0,0,0,0,0,0,.01-.04,0-.06-.01-.09,0-.06-.02-.11-.03-.17,.02-.07-.01-.09-.06-.17,0-.02-.02-.04-.03-.05,0,0,0,0,0,0,0,0,0,0,0,0-.04-.06-.09-.11-.15-.15,0,0,0,0,0,0,0,0,0,0-.02,0-.06-.03-.13-.04-.22-.02-.04,0-.07,.01-.09,.02-.06,.02-.11,.06-.15,.1-.13,.03-.25,.09-.15,.23-.07,.04-.13,.12-.19,.18-.07,.05-.15,.08-.24,.11-.11-.05-.19,.04-.24,.06,0,0-.02,0-.03,0-.06-.09-.14,0-.21,.05-.02,0-.05,.01-.07,.02h0s-.07,.02-.1,.03c-.04,0-.09,.03-.14,.07,0,0,0,0,0,0-.07,.04-.13,.1-.17,.17,0,0,0,0,0,0-.09,0-.06,.08-.06,.18,0,.03,0,.06,0,.1-.1,.12-.06,.15,.06,.27,0,0,0,0,0,0,.04,.08,.09,.15,.15,.21,0,0,0,0,0,0,0,0,0,0,0,0,.07,.07,.15,.12,.24,.17,0,0,0,0,0,0,.08,.04,.16,.08,.24,.11,.01,0,.02,0,.03,.01,0,0,.02,0,.03,0,0,0,.01,0,.02,0,.07,.02,.11,.03,.15,.04,.03,0,.06,.01,.09,.02,0,0,0,0,0,0,0,0,0,0,0,0,.02,0,.04,0,.06,0,0,0,0,0,0,0,.02,0,.04,0,.06,0,0,0,.01,0,.02,0,.01,0,.03,0,.04,0,0,0,.01,0,.02,0,.02,0,.04,0,.06,0,.64-.02,1.03-.49,1.08-1.11,0-.05,0-.13,0-.21Z"/><path class="cls-9" d="M5.14-1.23s-.05-.02-.11,.03h0c-.05,.02-.1,.05-.15,.08-.02,.01-.04,.02-.06,.04-.08,.06-.17,.12-.25,.19h0c-.08,.06-.16,.13-.23,.21-.01,.01-.02,.03-.03,.04-.04,.06-.07,.12-.09,.18-.02,.06-.03,.12-.02,.18,0,.02,0,.04,0,.05,0,.03,.01,.06,.02,.1,.01,.06,.03,.11,.05,.13,0,0,0,0,0,0,.04,.07,.09,.14,.15,.2,.08,.07,.17,.12,.26,.15,.01,0,.02,.01,.01,0,.1,.03,.21,.05,.31,.08,.03,0,.06,.02,.08,.03,.06,.05,.11,.14,.2,.12,0,0,.02,.02,.04,.02,.08,.05,.16,.09,.25,.11,.07,.01,.16,.01,.24,0,.05,0,.09-.01,.1-.03,0,0,0,0,0,0,.11,0,.24-.08,.24-.23,.1-.26,.11-.55-.06-.79,0-.06-.04-.09-.08-.12-.08-.12-.15-.25-.24-.37,0,0,0,0,0,0,0,0,0,0,0,0-.05-.07-.11-.14-.18-.2,0,0-.01-.01-.02-.02,0,0,0,0,0,0-.07-.06-.15-.11-.24-.15-.04-.07-.04-.03-.08-.02-.04,0-.08,0-.12,0Z"/><path class="cls-9" d="M6.17,5.06s.03-.02,.04-.03c.06-.05,.11-.1,.16-.16,0,0,0,0,0,0,0,0,0,0,0,0,.06-.07,.1-.15,.13-.24,0,0,0,0,0,0,.04,0,.12-.17,.05-.29,.03-.11,0-.16-.01-.21,0-.05-.02-.1-.03-.14,0,0,0,0,0,0,0,0,0,0,0,0-.03-.11-.08-.21-.14-.31,0,0,0,0,0,0,0,0,0,0,0,0-.02-.03-.04-.05-.06-.08-.04-.09-.08-.22-.16-.18,0,0,0,0,0,0-.04-.04-.08-.07-.13-.11-.03-.05-.08-.1-.16-.11,0,0,0,0,0,0-.1-.06-.21-.12-.33-.16,0,0,0,0,0,0-.06-.08-.17-.08-.24-.08-.04-.01-.07-.02-.11-.03,0,0,0,0,0,0,0,0,0,0,0,0-.02,0-.03,0-.05-.01-.13-.04-.39-.13-.33-.05,0,0,0,0,0,0-.11,0-.21-.01-.32,0-.01,0-.03,0-.04,0,0,0,0,0,0,0,0-.22-.18-.03-.28,.03-.02,0-.04,0-.06,.01,0,0,0,0,0,0,0,0,0,0,0,0-.05,.01-.09,.02-.14,.04-.06,0-.13-.01-.17,.06-.15,.04-.21,.09-.26,.13-.07,.04-.14,.09-.2,.13-.02,.01-.04,.03-.06,.05-.02,.01-.04,.03-.05,.04,0,0,0,0,0,0-.09,.08-.17,.17-.22,.26-.03,.05-.06,.11-.07,.16-.04,.15-.02,.35,.13,.44,.2,.13,.43,.08,.64,0,.02,0,.03-.01,.05-.02,.29-.05,.62-.09,.84,.07,.02,.02,.04,.03,.06,.05h0c.11,.1,.17,.24,.24,.38,.01,.03,.03,.05,.04,.08,.04,.08,.07,.14,.14,.22,0,0,.01,.01,.02,.02,0,0,0,0,0,0h0c.07,.07,.15,.13,.27,.16,.02,.03,.05,.02,.08,.02,.07,.01,.14,.02,.21,.01,0,0,0,0,0,0,.21,.04,.35,0,.28-.06,.17-.06,.17-.07,.21-.1,.01,0,.02-.02,.04-.02Z"/><path class="cls-9" d="M5.66,8.03s0-.09-.02-.13c-.02-.04-.06-.08-.1-.1-.05-.07-.07-.1-.17-.04-.07,0-.13,.01-.2,.04-.05-.02-.07-.05-.06,.02-.11-.1-.18,.05-.23,.16-.07,.07-.13,.15-.19,.24-.1,.09-.13,.23-.12,.27-.03,.1-.05,.19-.06,.29h0s0,.08,0,.12c0,.05,0,.1,.03,.16,.02,.1,.05,.28,.12,.23,.06,.07,.13,.13,.23,.17,.05,.07,.12,.05,.26,.05h0s.04,.01,.09,0c.06,0,.13-.02,.19-.04,0,0,0,0,0,0,0,0,0,0,0,0,.05-.02,.1-.04,.14-.06,.04-.02,.08-.04,.11-.07h0s.04-.03,.06-.05c.09-.06,.17-.06,.13-.15,.08-.02,.07-.07,.05-.11,.01-.04,.02-.08,.02-.12,.01,.02,.01,.01,0,0,0-.07-.02-.15-.07-.22-.04-.06-.1-.12-.15-.17h0c-.04-.2,.02-.05-.11-.19,0-.15,0-.02,.03-.25,0,0,0-.01,0-.02Z"/><path class="cls-9" d="M-1.04,3.48s.03,.04,.05,.05c.12,.13,.17,.12,.33,.13,0,0,0,0,0,0,.17,.07,.21,.03,.25,0,.04,0,.08,0,.12,0,.15,.14,.1-.02,.41,.1,0,0,0,0,0,0,.03,.02,.06,.04,.08,.07,.02,.08,.03,.21,.16,.27,0,.1,.05,.13,.09,.19,.01,.02,.03,.05,.05,.07,0,0,0,0,0,0,0,0,0,0,0,0,.05,.07,.11,.12,.18,.16,.03,.04,.05,.05,.06,.02,.03,.01,.05,.02,.08,.02,.08,.01,.16,0,.24-.02h0s0,0,0,0c.1-.03,.19-.09,.27-.16,0,0,0,0,0,0,.01,0,.02-.01,.02-.02,.07-.07,.12-.15,.17-.24,.14-.09,.13-.28,.08-.31,0-.09,0-.18-.01-.27,0,0,0,0,0,0,.02-.02,0-.05-.02-.1-.01-.05-.03-.11-.05-.16,0,0,0,0,0,0,0-.02-.02-.06-.04-.09-.02-.05-.05-.1-.08-.15h0c.04-.13-.1-.18-.15-.2,.01-.01-.05-.19-.2-.17-.08-.06-.16-.11-.25-.14-.07-.08-.16-.05-.27-.11-.08-.14-.4-.07-.31-.05-.1-.01-.21-.02-.31-.01,0,0,0,0,0,0-.05,0-.08,0-.1,.01-.06,0-.13,.02-.19,.04-.05-.03-.11,0-.17,.05-.02,0-.05,.02-.07,.03-.08,.04-.15,.08-.21,.13h0s0,0,0,0c-.02,.02-.04,.04-.06,.05-.07,.05-.14,.08-.11,.12,0,0,0,0,0,0-.04,.05-.07,.11-.09,.17,0,.01-.02,.03-.02,.05-.07,.1-.04,.16-.03,.26,0,.07,.03,.13,.07,.19Z"/><path class="cls-9" d="M12.25,13.28c.07,.05,.14,.12,.26,.06,.03,0,.04,0,.06,0,.06,0,.12-.03,.17-.06h0c.07-.04,.13-.1,.17-.17,0,0,0,0,0,0,.07-.06,.05-.07,.04-.1,0-.04,.01-.07,0-.11h0c.09-.08-.05-.27-.13-.19-.02-.07-.17-.08-.26-.1-.03,0-.06-.01-.09-.02-.05-.02-.07-.05-.19-.06-.09-.04-.2-.12-.27-.21-.02-.03-.03-.05-.05-.07-.06-.12-.05-.26-.07-.39,0-.09-.05-.22-.11-.26-.05-.06-.11-.11-.18-.15-.02-.02-.04-.03-.05-.03-.06-.03-.13-.05-.2-.06-.02,0-.05-.01-.08,0-.18,0-.32,.1-.41,.23,0,0,0,0,0,0,0,0,0,0,0,0-.03,.04-.05,.09-.07,.14-.01,.02-.02,.04-.03,.08-.02,.08-.03,.17-.03,.26-.02,.07,0,.21,.04,.28,0,.1,.05,.18,.12,.25,.05,.09,.09,.13,.19,.19,0,0,0,0,0,0,.07,.05,.16,.09,.26,.11,.12,.02,.25,.03,.37,.06,.06,.02,.1,.04,.14,.06,.06,.04,.11,.08,.17,.13,.01,.02,.09,.2,.23,.14Z"/><path class="cls-9" d="M12.27,9.55s0-.01,0-.02c0-.03,0-.05-.02-.08,0-.04-.02-.06-.03-.08-.02-.04-.04-.07-.07-.11,0-.14-.07-.12-.16-.15-.08-.06-.18-.1-.28-.12-.1-.02-.19-.02-.29,0,0,0-.02,0-.03,0-.11,.02-.21,.05-.3,.09,0-.03-.03,0-.08,.05-.06,.04-.12,.08-.17,.13,0,0,0,0,0,0-.14,.11-.16,.18-.2,.25,0,0-.01,.02-.02,.03-.05,.06-.16,.02-.08,.18,0,0,0,0,0,0-.02,.04-.03,.08-.04,.12-.02,.02-.04,.05-.03,.11-.04,.03-.08,.23-.03,.24h0c-.1,.03,0,.07,.02,.23,.01,.13,.06,.26,.13,.37,.01,.12,.05,.23,.29,.25,.08,.03,.14,.06,.22,.04,.07,0,.13-.03,.18-.08,.03-.02,.05-.05,.06-.08,.03-.05,.05-.11,.07-.17,.07-.04,.09-.22,.03-.29,.01-.12,.04-.21,.09-.28,.01-.01,.02-.02,.02-.03,.05-.06,.15-.1,.29-.17,.05-.01,.1-.03,.16-.06,.04-.01,.07-.02,.06-.03h0c.06-.03,.1-.08,.14-.13,.02-.01,.03-.03,.02-.04,.03-.06,.04-.13,.03-.19Z"/><path class="cls-9" d="M13.86,5.53s-.01-.03-.02-.05c-.02-.06-.05-.14-.08-.18,0,0,0,0,0,0-.08-.15-.17-.3-.28-.43,0,0,0,0,0,0,0,0,0,0,0,0-.06-.07-.12-.14-.18-.2-.03-.07-.14-.19-.19-.16-.08-.1-.18-.15-.3-.16-.05-.03-.12-.04-.2-.03-.05,0-.09,0-.14,.02-.1,0-.22,.08-.24,.18-.07,.09-.06,.1-.06,.19,0,.03,0,.07,0,.11,0,.11,.07,.24,.06,.34,0,.06-.02,.11-.04,.15-.05,.04-.1,.09-.08,.15-.01,0-.02,.02-.03,.04-.05,.08-.1,.16-.12,.26-.03,.15,0,.25,.07,.34,.05,.07,.12,.16,.23,.16,0,0,.02,0,.03,.01,.04,.03,.12,.08,.3,.12,.09,.08,.2,.13,.28,.15,.04,.04,.08,.07,.14,.13,.02,.02,.04,.04,.06,.06,0,0,0,0,0,0,0,0,0,0,0,0,.13,.13,.28,.27,.43,.3,.02,0,.04,.01,.06,0,.09,0,.17-.03,.26-.12,.09-.06,.09,0,.14-.25,.06-.17,.06-.37,.04-.56,0-.02,0-.04,0-.06,0,0,0,0,0,0,.03-.14,0-.18-.06-.28-.02-.08-.05-.16-.08-.24h0s0,0,0,0Z"/><path class="cls-9" d="M16.25-.53c-.09,.03-.17,.06-.25,.1,0,0,0,0,0,0,0,0,0,0,0,0-.05,.02-.09,.05-.13,.08-.07,0-.13-.01-.11,.08-.13,.02-.15,.15-.18,.2,0,0,0,.01-.01,.02,0,0,0,0,0,0-.19,.08-.16,.29-.15,.41,0,0,0,0,0,0,0,0,0,0,0,0-.02,.14-.02,.29,0,.44-.07,.11,0,.13,.05,.22,.03,.09,.06,.17,.11,.24h0s0,0,0,0c.02,.02,.04,.04,.06,.06,0,0,0,0,.01,.01,0,0,.02,.02,.03,.02,0,0,.02,.01,.03,.02,0,0,.02,0,.03,.01,.02,0,.03,.02,.05,.02,.02,0,.03,0,.05,.01,.11,.04,.23,.09,.22-.01,.02,0,.03-.01,.05-.02,.05-.03,.09-.07,.14-.12V-.53Z"/><path class="cls-9" d="M16.25,12.46s0,0,0,.01c0,0,0,0,0,0-.06,.04-.11,.09-.17,.14-.06,.05-.11,.11-.17,.17,0,0,0,0,0,0,0,0,0,0,0,0-.04,.04-.07,.08-.11,.12-.03,.03-.05,.05-.05,.06-.16,.03-.21,.19-.15,.2-.05,.07-.09,.14-.12,.21,0,0,0,0,0,0-.1,.04-.07,.11-.08,.18,0,.01,0,.02-.01,.04,0,0,0,0,0,0-.1,.16-.09,.16-.07,.24-.02,.08-.03,.17-.04,.26,0,0,0,0,0,0,0,0,0,0,0,0,0,.09-.01,.18,0,.27,0,0,0,0,0,0-.08,.11-.02,.13,.02,.19,0,.03,0,.06,.01,.09-.03,.08-.04,.11,.07,.26,0,0,0,0,0,0,.01,.04,.03,.09,.05,.13,.01,.05,.03,.11,.06,.12,0,0,0,.01,0,.02,.02,.05,.04,.07,.06,.1,.03,.04,.05,.07,.08,.11,.06,.07,.14,.15,.23,.21,0,0,.01,0,.02,.01,.1,.07,.2,.11,.32,.11,.03,0,.05,0,.08,0v-3.28Z"/><path class="cls-9" d="M.69,20.26s0,.02,0,.03c-.01,.06-.01,.11,0,.17,0,.05-.01,.14,.07,.17,.03,.06,.05,.11,.16,.15,.04,.07,.17,.1,.15,.08,.03,.06,.04,.03,.08,.03,.02,0,.05,.01,.07,.02,0,0,0,0,0,0,.01,.04,.13,.11,.16,.01,.05,0,.11,0,.16-.01,0,0,0,0,0,0,0,0,0,0,0,0,.05,0,.09-.01,.14-.02,.01,0,.02,0,.03,0,0,0,0,0,0,0,.05-.01,.1-.03,.15-.05,.05-.02,.11-.04,.16-.07,0,0,0,0,0,0,0,0,0,0,0,0,.04-.02,.07-.04,.11-.05,.03-.01,.05-.02,.05-.03,.12,.02,.19-.07,.16-.1,.05-.03,.1-.07,.14-.11,0,0,0,0,0,0,.08,0,.08-.06,.11-.1,0,0,.01-.01,.02-.02,0,0,0,0,0,0,.11-.08,.11-.09,.11-.14,.04-.05,.07-.11,.1-.17,0,0,0,0,0,0,0,0,0,0,0,0,.03-.06,.06-.12,.08-.18,0,0,0,0,0,0,.08-.05,.05-.08,.04-.14,0-.02,.01-.05,.02-.07,.04-.05,.05-.06,.03-.2,0,0,0,0,0,0,0-.03,0-.07,0-.1,0-.04,0-.08,0-.1,0,0,0,0,0-.01,0-.04,0-.06-.02-.09,0-.03-.02-.07-.03-.1-.02-.07-.06-.14-.1-.21,0,0,0,0,0-.01-.05-.07-.11-.13-.19-.16-.11-.04-.29-.07-.37,.05-.09,.13-.1,.28-.1,.44,0,.18,0,.36-.07,.52-.06,.12-.12,.22-.27,.25-.34,.07-.79-.15-1.06,.17-.02,.02-.03,.04-.04,.05-.03,.04-.04,.08-.06,.12,0,0,0,0,0,.01Z"/><path class="cls-9" d="M6.92,2.66c.1-.12,.12-.26,.1-.39h0c-.03-.13-.1-.26-.21-.36-.06-.06-.14-.13-.22-.19-.08-.11-.17-.12-.26-.17,0,0-.01,0-.02,0,0,0,0,0,0,0h0s-.09-.05-.13-.07c-.05-.03-.1-.06-.17-.08,0,0-.01,0-.02,0-.08-.03-.16-.05-.24-.06-.02,0-.04-.01-.06,0-.05-.02-.09-.02-.12-.02-.09-.01-.19-.01-.28,0-.02,0-.05,0-.08,.01,0,0,0,0,0,0-.16-.02-.33,.14-.36,.2-.09,.11-.14,.26-.15,.41,0,.15,.04,.29,.15,.4,.05,.04,.1,.08,.15,.1,.01,0,.03,.01,.05,.02,.03,0,.05,.01,.08,.02,0,0,0,0,0,0,0,0,0,0,0,0,.09,.02,.18,.02,.27,.01,.01,0,.03,0,.04,0,.07,0,.17,.02,.31,0,0,0,0,0,0,0,.14,.03,.2,.06,.29,.1,.01,0,.03,.02,.04,.03,.04,.04,.11,.1,.16,.1,.07,.04,.15,.09,.22,.11,0,0,0,0,0,0,0,0,0,0,0,0,.15,.05,.3,.04,.43-.12Z"/><path class="cls-9" d="M13.26,22.27c.1-.12,.12-.26,.1-.39h0s0,0,0,0c-.03-.13-.1-.26-.21-.36-.06-.06-.14-.13-.22-.19-.08-.11-.17-.12-.26-.17,0,0-.01,0-.02,0,0,0,0,0,0,0h0s-.09-.05-.13-.07c-.05-.03-.1-.06-.17-.08,0,0-.01,0-.02,0-.08-.03-.16-.05-.24-.06-.02,0-.04-.01-.06,0-.05-.02-.09-.02-.12-.02-.09-.01-.19-.01-.28,0-.02,0-.05,0-.08,.01,0,0,0,0,0,0-.16-.02-.33,.14-.36,.2-.09,.11-.14,.26-.15,.41,0,.15,.04,.29,.15,.4,.05,.04,.1,.08,.15,.1,.01,0,.03,.01,.05,.02,.03,0,.05,.01,.08,.02,0,0,0,0,0,0,0,0,0,0,0,0,.09,.02,.18,.02,.27,.01,.01,0,.03,0,.04,0,.07,0,.17,.02,.31,0,0,0,0,0,0,0,.14,.03,.2,.06,.29,.1,.01,0,.03,.02,.04,.03,.04,.04,.11,.1,.16,.1,.07,.04,.15,.09,.22,.11,0,0,0,0,0,0,0,0,0,0,0,0,.15,.05,.3,.04,.43-.12Z"/><path class="cls-9" d="M-.66,11.24s.04,.06,.06,.09c0,0,0,0,0,0,.03,.05,.06,.08,.08,.1,.03,.03,.06,.05,.09,.08,.01,.01,.03,.02,.04,.02,.06,.03,.12,.06,.19,.06,.11,.05,.16,.02,.21-.01,.05,0,.1-.02,.14-.04,.07-.02,.13-.06,.18-.11,.03-.01,.06-.03,.08-.08,.2-.12,.13-.11,.15-.29,0-.04,.01-.08,.01-.12,.01-.09,.03-.14-.03-.2,0,0,0,0,0,0-.02-.11-.06-.22-.06-.33,0-.11,.04-.21,.09-.31,.07,0,.13-.16,.14-.29,.01-.04,.02-.07,.02-.11,0,0,0-.02,0-.03,0,0,0-.01,0-.02-.01-.08-.05-.14-.11-.19-.1-.08-.24-.12-.36-.12-.32,0-.69,.15-.88,.41-.16,.22-.24,.49-.24,.76,0,.02,0,.04,0,.07,0,0,0,0,0,0,0,.1,.02,.19,.05,.29,0,.04,.01,.07,.03,.09,.01,.04,.03,.09,.05,.13-.05,.08,0,.07,.07,.13Z"/><path class="cls-9" d="M1.92,14.01c.02-.06,.04-.11,.05-.17,0,0,0,0,0,0,0,0,0,0,0,0,.01-.07,.01-.15,0-.23-.04-.23-.18-.44-.4-.52-.17-.06-.37-.02-.55-.04-.03,0-.07,0-.1-.01-.08-.04-.12-.14-.15-.05,0,0-.02-.02-.03-.02-.06-.06-.09-.14-.13-.22,0-.1-.02-.08-.07-.12-.02-.04-.05-.07-.07-.11H.46c-.09-.27-.19-.2-.19-.18,.02-.09-.24-.07-.27-.03-.07,0-.11,.02-.23,.15-.1,.09-.25,.24-.16,.31-.02,.09-.03,.18-.02,.27,0,.02,0,.05,0,.08,.02,.15,.11,.26,.21,.36-.02,.06,.21,.21,.28,.28,0,0,.01,.02,.02,.02,.02,.03,.04,.06,.06,.09,.04,.11,0,.19,.08,.12,.05,.07,.09,.15,.14,.22,0,0,0,0,0,0,0,0,0,0,0,0,.01,.02,.03,.04,.04,.06,.02,.06,.05,.13,.11,.14,.11,.16,.09,.18,.19,.16,0,0,0,0,0,0,.05,.03,.11,.06,.17,.07,.01,0,.03,0,.06,.01,0,0,0,0,0,0,.02,0,.05,0,.08,0,.06,.01,.14,.03,.2-.03,.07-.02,.14-.05,.21-.08,0,0,0,0,0,0,0,0,0,0,0,0,.03-.01,.05-.03,.07-.04,.05,0,.1,0,.12-.09,.06-.04,.14-.08,.16-.17h0c.05-.06,.08-.12,.12-.18,.02-.02,.02-.02,0-.01,.02-.01,.02-.03,.02-.04Z"/><path class="cls-9" d="M2.71,13.49c.2,.15,.06,.04,.24-.03,0,0,0,0,0,0,.08-.02,.17-.04,.26-.08,0,0,0,0,0,0,0,0,0,0,0,0,.15-.06,.3-.14,.43-.24,.01-.01,.03-.02,.05-.04,.08-.06,.13-.13,.18-.2,0,0,0,0,0,0,.03-.05,.06-.1,.08-.16,0-.02,.02-.04,.02-.07,.06-.16,.03-.24,0-.38,.02-.15,.03-.22,.04-.36,.05-.11,.15-.18,.25-.26,0,0,0,0,0,0,.02-.01,.03-.03,.05-.04,.08-.07,.14-.14,.16-.25,0-.04,0-.09,0-.13,0-.04-.01-.07-.03-.11,0,0,0,0,0,0,0-.02-.01-.03-.02-.05,0,0,0,0,0,0,0-.02-.02-.03-.03-.05,0,0,0,0,0,0-.01-.02-.02-.03-.03-.05,0,0,0,0,0,0-.01-.01-.02-.03-.04-.04,0,0,0,0,0,0-.03-.05-.04-.13-.17-.17,0,0,0,0-.01-.01,.01-.11-.15-.17-.16-.15-.06-.16-.16-.25-.25-.31,0,0,0,0,0,0-.05-.09-.14-.15-.24-.18-.03-.01-.06-.02-.09-.02-.06,0-.12,0-.18,.01-.01,0-.03,0-.04,0-.08,.02-.15,.05-.21,.1,0,0,0,0,0,0,0,0,0,0,0,0-.06,.04-.11,.09-.16,.14,0,0,0,0,0,0,0,.01-.02,.03-.03,.04-.03,.04-.06,.08-.08,.13,0,0,0,.01,0,.02-.03,0-.11,.12-.1,.2-.02,.07-.04,.15-.05,.22,0,.05-.01,.1-.01,.14,0,.03,0,.06,0,.09,0,0,0,0,0,0,0,.03,0,.07,0,.1,0,.04,0,.09,.01,.13,0,0,0,0,0,0,0,.08,.01,.16,.01,.24,0,.02,0,.05,0,.07,0,.05-.02,.11-.03,.16,0,.02-.02,.04-.03,.06-.05,.09-.14,.11-.15,.18,0,0,0,0,0,0-.02,.02-.05,.04-.07,.06-.07,.05-.14,.07-.16,.14-.05,.05-.1,.11-.14,.17-.03,.03-.04,.06-.04,.08,0,0,0,0,0,0-.08,.18-.14,.22-.04,.3,.03,.27,0,.11,.16,.28,0,0,0,0,0,0,.06,.06,.13,.12,.19,.16,.05,.03,.08,.05,.07,.04,.04,.02,.09,.04,.14,.05,.09,.03,.14,.05,.22,.03Z"/><path class="cls-9" d="M14.05,19.34s0-.07-.01-.11c-.05-.26-.2-.52-.37-.71-.08-.09-.16-.17-.25-.25-.02-.04-.02-.08-.13-.11-.07-.12-.16-.17-.19-.18,0,0,0,0,0,0,0,0,0,0,0,0-.05-.04,0-.19-.16-.2,0-.19-.08-.2-.21-.37-.04-.06-.08-.13-.12-.19-.04-.06-.08-.11-.14-.13-.1-.05-.2-.05-.29,0-.02,0-.03,.02-.05,.03-.04,.02-.07,.05-.1,.09-.14,.16-.18,.44-.18,.64,0,.23,.03,.46,.08,.68,.03,.13,.08,.25,.13,.37,.23,.5,.64,1.03,1.2,1.16,.02,0,.04,0,.06,.01,0,0,.01,0,.02,0,.01,0,.03,0,.04,0,0,0,.01,0,.02,0,.02,0,.03,0,.05,0,0,0,0,0,0,0,.02,0,.03,0,.05,0,0,0,.01,0,.02,0,.01,0,.02,0,.03,0,0,0,.01,0,.02,0,.01,0,.03,0,.04,0,0,0,0,0,0,0,.01,0,.03,0,.04-.01,0,0,.01,0,.02,0,0,0,.02,0,.03-.01,0,0,0,0,0,0,0,0,0,0,0,0,.12-.06,.22-.16,.27-.29,0,0,0,0,0,0,0,0,0,0,0,0,0-.02,.02-.05,.03-.07,.02-.04,.04-.06,.03-.14,.04-.06,.02-.1,0-.14Z"/><path class="cls-9" d="M14.38,16.77s.07,0,.1,0c.04,0,.08-.02,.12-.03,.05-.02,.1-.04,.17-.1,0,0,0,0,0,0,.06-.04,.1-.1,.15-.16,.04-.04,.06-.08,.05-.1,.05-.04,.06-.11,.05-.18,.01-.07,.01-.15,0-.21,0-.06-.02-.12-.04-.18,0-.05-.02-.1-.06-.14-.03-.06-.07-.14-.16-.2-.04-.05-.08-.09-.12-.14-.01-.02-.03-.04-.04-.06-.08-.13-.12-.28-.17-.42,0-.04-.02-.09-.05-.12-.01-.03-.03-.06-.05-.09,0,0,0-.01-.01-.02-.04-.05-.08-.1-.13-.15-.04-.07-.14-.1-.22-.12-.04-.01-.07-.02-.11-.03-.05-.03-.1-.04-.15-.04,0,0,0,0,0,0,0-.15,0-.02,.03-.25,.02-.1-.07-.03-.01-.15-.14-.11-.12-.23-.27-.13-.12,.18-.29-.09-.25,.06-.11-.1-.18,.05-.23,.16-.01,.08-.13,.16-.18,.24-.1,.09-.13,.23-.12,.27-.02,.08-.02,.13-.04,.23-.05,.04-.07,.08-.06,.15,0,0,0,0,0,0-.09,.05-.25,.21-.26,.29h0s-.03,.04-.05,.07c-.07,.05-.2,.12-.15,.24-.02,.02-.03,.05-.04,.07-.04,.08-.06,.15-.08,.22-.03,.13-.05,.28-.05,.42-.04,.12-.06,.29,.11,.4,0,.1,.03,.25,.27,.27,.16,.16,.21,.08,.33-.04,.05-.02,.1-.06,.14-.09,.04-.02,.08-.05,.12-.12,.11-.13,.21-.13,.25-.21,0,0,0,0,0,0,.12,0,.19,.05,.32-.07,.03,.06,.19,.11,.24,.08h0c.07,.04,.14,.1,.19,.16,.04,.07,.1,.12,.18,.16,.04,.03,.09,.05,.14,.06,.02,.04,.08,.03,.14,.01Z"/><path class="cls-9" d="M16.25,18.28c-.06-.02-.14-.03-.22-.06,0,0,0,0,0,0-.08-.03-.16-.06-.21-.11,.03,0,.02-.04-.02-.03-.18-.25-.09-.53-.18-.81,.05-.15-.02-.11-.14-.26h0c-.06-.07-.14-.13-.22-.16h0c.04-.08-.22-.07-.25-.02-.06-.15-.08-.02-.17,.09-.03,.02-.05,.05-.07,.07-.05,.06-.08,.12-.1,.19,0,0,0,0,0,0,0,0,0,0,0,0,0,.02,0,.04-.01,.06-.02,.06-.06,.03,0,.16,0,0,0,0,0,0,0,.04,0,.09,.01,.13-.01,.04-.03,.06,.02,.11h0c.02,.07,.03,.14,.05,.21,0,.05-.01,.1,.04,.15,0,.02,0,.05,.02,.07,.02,.09,.04,.17,.04,.25-.04,.19-.2,.19-.03,.24-.04,.12-.1,.22-.17,.32-.03,.03-.06,.07-.07,.09h0c-.05,.07-.09,.13-.13,.2,0,0,0,0,0,0-.14,.05-.1,.12-.08,.17,0,.02-.01,.03-.02,.05,0,0,0,0,0,0-.05,.07-.03,.08-.03,.16,0,.03,0,.05,0,.08,.01,.21,.1,.4,.24,.51,.06,.04,.12,.07,.2,.09,.01,0,.03,0,.04,0,.06,.01,.1,0,.14-.01,.05-.01,.1-.03,.15-.06,.06-.03,.11-.07,.15-.12,.13-.14,.21-.34,.37-.43,.2-.11,.44-.05,.67-.1v-1.26Z"/><path class="cls-9" d="M5.78,14.85h0c.02-.1,.03-.21,.03-.31,0-.15-.05-.27-.13-.37-.03-.06-.06-.1-.06-.07-.06-.05-.13-.09-.2-.12-.01-.09-.1-.11-.24-.05-.11,0-.21,.03-.31,.07h0c-.18-.01-.23,.05-.29,.15-.12,.05-.26,.07-.39,.1-.07,0-.14,.01-.22,.08-.03,.02-.06,.04-.08,.06-.08,.05-.13,.09-.14,.19,0,0,0,0,0,0-.1,.06-.07,.2-.03,.33,.04,.13,.09,.19,.14,.25,.02,.03,.05,.06,.08,.09,0,0,0,0,0,0,.13,.2,.04,.14,.35,.2,.2,.16,.2,.09,.29,.08,0,0,.04,.01,.09,.02,.06,.02,.13,.04,.19,.05h0c.2,.07,.14,.04,.28,.03,.1,.02,.33-.04,.29-.05,.03-.01,.06-.02,.08-.04,.01,0,.02-.02,.03-.02,0,0,0,.01,0,.02,.08,0,.16,.06,.12-.16,0,0,0,0,0,0,.02-.03,.03-.05,.03-.08,.02-.05,.03-.1,.04-.15-.02,.05,.21-.14,.06-.31Z"/><path class="cls-9" d="M5.53,15.55s-.02,0-.03,0c.02,.02,.03,0,.03,0Z"/><path class="cls-9" d="M6.26,16.7c-.01-.09-.03-.19-.07-.28-.03-.09-.08-.2-.15-.28-.08-.12-.16-.15-.26-.16-.15-.02-.21-.05-.21,.07-.04,.01-.06,.06-.09,.12-.03,.05-.05,.11-.08,.17-.05,.06-.11,.11-.07,.16,0,0,0,0,0,0-.04,.09-.2,.1-.13,.19-.11,.09-.24,.13-.37,.16-.07,.02-.14,.04-.22,.05-.06,0-.11,.01-.14,.03-.08,0-.13,0-.24,.03,0,0,0,0,0,0-.06,0-.11,.02-.15,.03-.03,0-.05,.01-.08,.02-.08,.02-.15,.05-.22,.08h0c-.06,.03-.12,.07-.18,.12,0,0-.01,0-.02,.01-.08,.03-.07,.04-.1,.1-.03,.04-.05,.08-.07,.12,0,0,0,0,0,0,0,0-.01,.01-.01,.03-.03,.07-.04,.15-.04,.22,0,0,0,0,0,0-.04,.09-.08,.23,.04,.26,.02,.08,.05,.19,.12,.24,0,0,0,0,0,0,.04,.06,.09,.11,.14,.16,.01,.02,.03,.03,.04,.03,.06,.15,.08,.09,.23,.13,.04,.01,.08,.03,.13,.03,.05,.03,.1,.06,.19,.03,0,0,0,0,0,0,.02,0,.04,0,.06,0,0,0,.01,0,.02,0,.05,0,.1,0,.15,0,0,0,.01,0,.02,0,.02,0,.04,0,.06,0,0,0,0,0,.01,0,0,0,0,0,0,0,.05,0,.1-.01,.15-.02,0,0,.01,0,.02,0,.02,0,.04,0,.05-.01,0,0,.01,0,.02,0,.05-.01,.1-.03,.14-.04,0,0,.01,0,.02,0,.02,0,.03-.01,.05-.02,0,0,.01,0,.02,0,.02,0,.05-.02,.07-.03,0,0,0,0,0,0,.02,0,.04-.02,.07-.03,0,0,.01,0,.02,0,.02,0,.03-.02,.05-.02,0,0,.01,0,.02-.01,.02-.01,.04-.02,.06-.04,0,0,0,0,0,0,.02-.01,.04-.03,.06-.04,0,0,.01,0,.02-.01,.02,0,.03-.02,.05-.03,0,0,.01,0,.02-.01,.04-.03,.08-.06,.12-.09,0,0,.01,0,.02-.01,.01-.01,.03-.02,.04-.04,0,0,.01,0,.02-.01,.02-.02,.04-.03,.05-.05,.02-.01,.03-.03,.04-.05,0,0,0,0,.01-.01,.01-.01,.02-.02,.03-.04,0,0,0,0,.01-.01,.01-.02,.03-.03,.04-.05,0,0,0,0,0,0,.01-.02,.03-.03,.04-.05,0,0,0-.01,.01-.02,0-.01,.02-.03,.03-.04,0,0,0-.01,.01-.02,.01-.02,.02-.04,.03-.05,0,0,0,0,0,0,.01-.02,.02-.04,.03-.06,0,0,0-.01,0-.02,0-.01,.02-.03,.02-.04,0,0,0,0,0-.01,0,0,0,0,0,0,.04-.09,.08-.19,.11-.28,.03-.06,.04-.13,.04-.19,0-.03,0-.06,.01-.09,0,0,0,0,0,0,0-.09,.08-.21,0-.3,0,0,0,0,0,0Z"/><path class="cls-9" d="M7.73-.22c-.21,.07-.47,.08-.71,.12h0s0,0,0,0c-.02,0-.04,0-.06,.01,0,0,0,0-.01,0-.02,0-.03,0-.05,.01,0,0,0,0-.01,0-.04,.01-.08,.03-.11,.04,0,0,0,0,0,0-.04,0-.07,.03-.1,.06-.03,.03-.06,.06-.09,.1,0,0,0,0,0,0-.06,.04-.08,.15-.09,.28,0,.07,0,.14,.02,.2,0,.03,0,.05,.02,.07,0,0,0,0,0,0,.03,.08,.08,.16,.13,.22,0,0,0,0,0,.01,0,0,0,0,0,0,.06,.06,.12,.12,.19,.17,0,0,.02,.01,.03,.02,.21,.2,.14,.16,.27,.15,0,0,0,0,0,0,.02,0,.03,.01,.05,.02,.08,.04,.15,.1,.23,.08,0,0,0,0,0,0,.07,.02,.15,.03,.21,.04,.02,0,.03,0,.05,0,.16,.03,.21,.04,.3-.02,0,0,.01,0,.02,0,.01,0,.03,0,.04,0,0,0,.02,0,.02,0,.02,0,.03,0,.05-.01,0,0,.01,0,.02,0,.02,0,.03-.01,.05-.02,0,0,.02,0,.02,0,.01,0,.02-.01,.03-.02,0,0,0,0,.01,0,0,0,0,0,0,0,.01,0,.03-.01,.04-.02,0,0,.01,0,.02-.01,.01,0,.03-.02,.04-.03,0,0,.01,0,.02-.01,.01,0,.02-.02,.03-.02,0,0,.01,0,.02-.01,.02-.01,.03-.02,.04-.04,0,0,0,0,0,0,.01-.01,.03-.03,.04-.04,0,0,0,0,.01-.01,.01-.01,.02-.02,.03-.03,0,0,0,0,.01-.01,.03-.03,.05-.07,.08-.1,0,0,0,0,0-.01,0-.01,.02-.03,.03-.04,0,0,0,0,0-.01,.02-.04,.04-.08,.06-.12,0,0,0,0,0-.01,0-.02,.01-.03,.02-.05,0,0,0,0,0-.01,.02-.04,.03-.09,.04-.13,0,0,0-.01,0-.02,0-.02,0-.03,.01-.05,0,0,0-.01,0-.02,0-.02,0-.05,.01-.07,0-.01,0-.03,0-.04,0,0,0,0,0,0,0-.01,0-.03,0-.04,0,0,0,0,0,0,0-.03,0-.07,.01-.1,0,0,0,0,0,0,0,0,0,0,0,0,0-.02,0-.03,0-.05,0,0,0,0,0-.01,0-.04,0-.08,0-.12,0,0,0,0,0-.01,0-.02,0-.03,0-.05,0,0,0,0,0-.01,0,0,0,0,0,0,0-.09,0-.18-.02-.26,.02-.1-.04-.2-.07-.23,0,0,0,0,0,0-.03-.07-.08-.12-.14-.16,0,0,0,0,0,0,0,0,0,0,0,0-.06-.04-.13-.05-.22-.05-.1,0-.18,.05-.25,.11-.16,.1-.2,.15-.17,.21-.06,.07-.13,.13-.2,.17-.03,.01-.06,.03-.1,.04Z"/><path class="cls-9" d="M3.61,6.91c.09-.06,.18-.11,.29-.13,.03,0,.07-.01,.1-.02,.11,0,.28,.02,.28-.07,.17-.02,.2,.06,.32-.16h0s.08-.06,.11-.09c.03-.01,.07-.04,.13-.17,.04-.08,.07-.17,.07-.26,0,0,0,0,0,0h0c0-.06,0-.12,0-.18,0-.05,0-.09-.02-.1-.03-.08-.08-.16-.14-.21,.01,0,0-.02-.04-.03-.06-.04-.14-.06-.23-.06-.05,0-.09,0-.14,.01-.04,0-.08,0-.12,.02-.08,.02-.17,.05-.24,.08-.04,.01-.08,.03-.12,.04-.03-.03-.06-.07-.09,.03h0c-.07,.02-.14,.03-.22,.02-.1-.05-.14-.07-.23-.07-.08-.03-.15-.06-.23-.09-.01,0-.03-.02-.04-.02-.08-.03-.17-.05-.25-.05,0,0,0,0,0,0-.09,0-.17,.02-.26,.07-.07,.04-.13,.09-.19,.16,0,0,0,.01-.01,.02-.01,.02-.03,.03-.04,.05-.02,.03-.04,.06-.06,.1-.01,.03-.03,.05-.04,.08-.05,.04-.08,.17-.08,.26h0c-.02,.09-.03,.18-.02,.26-.03,.25,0,.12,.02,.18,0,.04,.01,.08,.02,.11-.09,.16,.02,.33,.09,.3,0,.05,.18,.2,.23,.21,0,0,0,0,0,0,0,.07,.17,.1,.26,.11,.05,0,.09,.01,.14,0,.04,.01,.08,.01,.15-.02,.1-.03,.19-.07,.28-.14,.1-.08,.19-.16,.29-.23,.01,0,.03-.02,.04-.03Z"/><path class="cls-9" d="M7.76,7.61c.15-.03,.14-.12,.16-.14,0,0,0,0,0,0,.06-.07,.12-.16,.16-.26,.04-.04,.06-.07,.04-.12,.01-.08,0-.15-.03-.22,.04-.06,.02-.05,0,0-.02-.03-.04-.06-.06-.09-.03-.05-.06-.09-.12-.11,0,0,0,0,0,0,0,0-.02-.01-.03-.02-.08-.06-.13-.13-.22-.1,0,0-.16-.13-.28-.07,0,0,0,0,0,0-.03,0-.06,0-.1-.01-.06-.01-.15-.03-.21-.01-.1-.02-.26,0-.32,.02,0,0,0,0,0,0-.09,0-.25-.03-.31,.07-.05,.02-.22,.06-.29,.12,0,0,0,0,0,0-.09,.05-.17,.1-.24,.16-.01,.01-.03,.03-.04,.04-.04,.02-.09,.04-.12,.22-.04,.11-.13,.14,.04,.3,.04,.12,.32,.24,.35,.2,.04,.02,.08,.02,.13,.02,.1,0,.19,.01,.29,.02,.03,.11,.28,.12,.25,.04,.04,0,.09,.02,.13,.03,.06,.04,.1,.08,.13,.03h0s.05,.02,.09,.02c.06,0,.11,.02,.16,.02h0c.05,.07,.35,.07,.25-.03,.02,.01,.03,0,.04-.02,.06-.02,.12-.05,.17-.09t0,0Z"/><path class="cls-9" d="M7.58,10.48c-.02-.11-.06-.22-.13-.3,0-.05-.04-.07-.08-.1-.08-.08-.17-.14-.28-.18-.07-.04-.12-.08-.21-.03-.14,0-.27,.06-.41,.08-.04,0-.08,0-.12,0-.08,0-.14-.04-.22-.11-.08-.17-.17-.12-.25-.14-.11-.03-.22,0-.32,.05,0,0,0,0,0,0-.01,0-.04,.02-.08,.05-.06,.05-.12,.11-.17,.17-.02,.02-.17,.16-.15,.32-.1,.21-.07,.11,0,.35-.1,.21,.04,.19,.11,.27,0,.01,.02,.03,.03,.04h0s0,0,0,.01c.06,.08,.13,.15,.22,.2,.05,.06,.15,.1,.28,.07,0,0,0,0,0,0,.13,.05,.14,.03,.32-.1,.08,.04,.15-.03,.2-.11,.03,0,.1-.03,.15-.03,.02,0,.04,0,.06,.01,.09,.04,.17,.1,.25,.15,.04,.03,.08,.05,.12,.07,.02,.03,.04,.05,.08,.03,0,.03,.04,.03,.1,.01,.04,0,.08,0,.12-.02,.11-.03,.19-.09,.25-.18,0,0,0,0,0,0,0,0,0,0,0,0,0,0,.01-.02,.02-.03,.05-.07,.12-.16,.09-.25,.07-.05,.03-.22,0-.3Z"/><path class="cls-9" d="M8,10.24c.05,.02,.11,.04,.17,.05,0,0,0,0,0,0,0,0,.01,0,.02,0,.08,.01,.17,.02,.25,.02,.05,.05,.24,.08,.3-.02,.1-.01,.21-.03,.32-.05h0c.09,.03,.13-.02,.23-.07,.03-.01,.06-.02,.09-.04,.09-.04,.17-.09,.25-.14,.02-.02,.05-.04,.07-.06,0,0,.01-.01,.02-.02,.02-.02,.04-.04,.06-.06,0,0,0,0,0,0,.02-.02,.04-.04,.05-.07,0,0,0-.01,.01-.02,.02-.02,.03-.05,.04-.07,.01-.02,.03-.05,.04-.08,0,0,0-.01,0-.02,.02-.05,.04-.11,.05-.16,0,0,0-.01,0-.02,.01-.06,.02-.11,.02-.17,0,0,0-.01,0-.02,0-.05,0-.1,0-.15,0,0,0-.02,0-.02,0,0,0-.01,0-.02,0-.06-.01-.11-.03-.17,0,0,0-.02,0-.02,0,0,0-.01,0-.02,0-.1-.02-.16-.09-.24,0-.02-.02-.03-.02-.05-.02-.05-.02-.08-.07-.15,0-.01-.02-.03-.02-.04,0-.06-.04-.1-.08-.15-.02-.03-.03-.05-.05-.08,0,0,0,0,0,0-.04-.09-.06-.12-.14-.19-.05-.06-.11-.13-.17-.18-.01-.01-.02-.02-.04-.03,0,0,0,0,0,0-.07-.05-.14-.1-.21-.13,0,0,0,0-.01,0,0,0,0,0,0,0-.08-.03-.16-.05-.25-.06-.08,0-.16,0-.22,.05-.05,.04-.13,.15-.12,.22,0,.03,0,.06,.01,.09,0,.06-.01,.12,.05,.16,.04,.11-.04,.26,.05,.31,0,0,0,0,0,0,0,.06,0,.11-.02,.17-.02,.04-.03,.08-.04,.14,0,0,0,0,0,0-.07,.14-.16,.13-.15,.28-.06,.09-.14,.17-.22,.23-.06,.02-.1,.07-.19,.17-.12,.13-.22,.29-.22,.47,0,.01,0,.03,0,.04,0,.04-.04,.04,.04,.17,.04,.09,.11,.15,.19,.2-.02,.03,0,.03,.05,.03Z"/><path class="cls-9" d="M16.25,9.77s-.03-.03-.04-.05c-.02-.03-.04-.05-.06-.06-.04-.05,.03-.13-.15-.2,.02-.01-.01-.04-.05-.08-.03-.05-.06-.1-.09-.14h0c0-.1-.07-.15-.16-.21,0,0,0,0,0,0-.04-.07-.12-.12-.2-.15-.04-.02-.07-.03-.11-.05-.04-.01-.07-.02-.11-.03,0,0,0,0,0,0-.07-.01-.15-.02-.22-.01-.13,0-.29,.04-.41,.13-.06,.05-.11,.1-.14,.18-.05,.02-.04,.15,0,.27,0,0,0,0,0,0,0,0,0,.02,0,.03,.02,.08,.05,.16,.08,.23,0,.07,.1,.23,.15,.25,0,0,0,0,0,0,.06,.08,.13,.16,.2,.24,0,0,0,0,0,0-.02-.01,0,0,.04,.04,.14,.13,.3,.25,.47,.34,0,0,0,0,0,0,0,0,0,0,0,0,.09,.05,.19,.09,.28,.12,0,0,0,0,0,0,.04,.05,.13,.06,.29,.06,.06,0,.14,0,.21-.03v-.88Z"/><path class="cls-9" d="M16.25,6.05c-.09-.06-.18-.11-.27-.15-.01-.01-.02-.02-.04-.02,0,0-.01,0-.02,0-.04-.03-.13-.07-.28-.07-.09-.01-.17,0-.26,0,0,0-.01,0,0,0-.03,0-.05,0-.08,.02-.04,0-.07-.01-.16,.06-.06-.12-.14,.01-.22,.13-.07,.05-.13,.11-.19,.17,0,0,0,0,0,0,0,0,0,0,0,0-.03,.04-.07,.08-.1,.13-.04,.02-.07,.04-.05,.08,0,0,0,0,0,0-.04,.07-.08,.15-.11,.23-.04,.05-.05,.13-.08,.25-.1,.1-.19,.21-.07,.26-.08,.12-.05,.19-.04,.23,0,.1-.01,.19,0,.28,0,0,0,.01,0,.02-.09,.08-.1,.08,.06,.25,0,0,0,0,0,0,.03,.08,.08,.16,.13,.23,.05,.06,.11,.11,.19,.12,.04,0,.12,0,.18-.03,.02,0,.05-.01,.07-.04,.03-.04,.04-.04,.04-.05,.04-.05,.06-.1,.09-.16,.04-.1,.11-.19,.18-.26,.1-.04,.07,.01,.26-.17,0,0,0,0,0,0,.1-.04,.2-.07,.31-.09,0,0,0,0,0,0,.03,0,.06,0,.08,0,.08,0,.16,0,.24,0,.04,0,.08,0,.12,0v-1.42Z"/><path class="cls-9" d="M9.93-.58h0c-.08,.04-.16,.09-.23,.16-.02-.06-.06,.03-.11,.12-.03,.04-.05,.07-.08,.11h0s0,0,0,0c-.05,.09-.09,.18-.13,.27-.04,.12-.13,.24-.06,.29,0,0,0,0,0,0,0,.1,0,.19,.03,.28,.02,.09,.06,.17,.12,.23,.03,.04,.05,.06,.07,.07,.05,.04,.1,.07,.16,.1,.08,.03,.17,.05,.26,.05h0c.09,0,.19-.02,.28-.05,.08,0,.14-.05,.19-.09,.02-.01,.04-.03,.06-.04,0,0,0,0,0,0,0,0,0,0,0,0,.06-.04,.11-.09,.15-.15,.04-.03,.05-.03,.03-.05,.12-.05,.08-.2,.07-.23,0-.08-.02-.15-.07-.23-.12-.24-.16-.18-.15-.17-.05-.06-.1-.12-.11-.19,.02-.06,.01-.09,0-.13,0-.04,.02-.08,.02-.12,.02-.02,.09-.12-.01-.16-.01-.08-.16-.22-.26-.13,.01-.03-.14-.02-.26,.06Z"/><path class="cls-9" d="M9.97,2.06c0,.06,0,.12,.02,.17,.03,.12,.07,.22,.13,.31,0,0,0,0,0,0,.08,.11,.14,.16,.22,.21,0,0,0,0,0,0,.09,.05,.19,.09,.28,.07h0c.07,.03,.12,0,.21-.05,.04-.01,.07-.03,.11-.06,.06-.04,.13-.08,.2-.11,.06,0,.11-.05,.22-.02,.09,.04,.17,.1,.25,.15,.11,.1,.18,.12,.2,.1,0,0,0,0,0,0,.08,.03,.21,.05,.22,0,.03,0,.06-.02,.1-.04,.15-.09,.24-.25,.27-.42h0c.02-.11,.01-.22-.01-.32,0,0,0,0,0,0,0,0,0,0,0,0,0-.04-.02-.09-.04-.13-.01-.03-.03-.07-.06-.12,0-.01-.01-.02-.02-.03-.05-.07-.11-.13-.18-.18,0,0,0,0,0,0-.02-.02-.04-.03-.07-.04,0,0,0,0,0,0-.08-.06-.2-.09-.32-.08-.18-.03-.31,.05-.41,.08-.12-.08-.19-.01-.29-.07-.01-.01-.03-.02-.05-.04,0-.01-.04-.04-.1-.07-.04-.03-.09-.05-.14-.07,0,0-.01,0-.01,0-.14-.09-.21-.04-.32,.05-.06-.03-.21,.05-.25,.22-.04,.05-.07,.11-.1,.17-.03,.04-.06,.09-.05,.15-.02,.07-.02,.12-.02,.18Z"/><path class="cls-9" d="M14.17,1.72s.04-.02,.07-.03c.07-.03,.14-.07,.2-.12,.06-.05,.11-.1,.16-.16,0,0,.02-.02,.02-.03,0,0,0-.01,.01-.02,0,0,0-.01,.01-.02,.02-.02,.03-.05,.04-.07,0,0,0,0,0,0,.01-.02,.02-.05,.04-.07,0,0,0-.01,0-.02,0,0,0-.01,0-.02,.02-.05,.03-.09,.04-.14,0,0,0-.01,0-.02,.01-.06,.02-.11,.02-.17,0,0,0-.01,0-.02,0-.06,0-.11,0-.17,0,0,0-.01,0-.02,0-.03,0-.06-.01-.08,0,0,0,0,0,0,0-.03-.01-.06-.02-.08,0,0,0-.01,0-.02,0-.03-.01-.05-.02-.08,0,0,0,0,0,0,0-.03-.02-.05-.03-.08,0,0,0-.01,0-.02-.01-.03-.02-.05-.03-.08-.21-.45-.54-1.02-1.09-1.07-.08,0-.16,0-.22,.05-.05,.04-.13,.15-.12,.22,0,.09,.03,.16,.06,.25,.02,.07,.04,.13,.05,.18,0,.04,0,.08,0,.12,0,0,0,0,0,.01,0,0,0,0,0,0,0,.1-.03,.21-.06,.31-.12,.16-.11,.08-.15,.28,0,0,0,0,0,0-.13,.09-.28,.07-.21,.23-.07-.07-.15,.1-.21,.2-.02,.02-.04,.05-.06,.08-.05,.02-.07,.08-.08,.15-.03,.07-.05,.14-.04,.22,0,.1,.03,.18,.07,.25,.02,.04,.05,.06,.08,.09,0,0,0,0,0,0,0,0,.02,.02,.03,.02,.02,.02,.04,.03,.06,.04,0,0,0,0,0,0,0,0,0,0,0,0,.05,.03,.1,.05,.16,.06,.05,.02,.09,.04,.08,.02,.07,.01,.14,.02,.2,.02,.02,0,.04,0,.05,0,.14,0,.3-.02,.46-.04,.05,0,.08,.02,.16-.03-.02,0,.23,0,.3-.1Z"/><path class="cls-9" d="M7.07,14.26s.07-.02,.11-.03c0,0,0,0,0,0,.06-.02,.13-.02,.23-.16,.06-.02,.08-.08,.1-.14,.04-.07,.08-.14,.12-.22,.02-.01,.04-.04,.05-.1,.11-.07,.14-.09,.13-.21,0-.01,.02-.02,.03-.03,.03-.03,.08-.07,.17-.13,.11-.02,.18-.02,.26-.04h0s.05,.02,.09,.02c.06,.01,.11,.03,.17,.06,0,0,0,0,0,0,0,0,0,0,0,0,.07,.03,.15,.07,.22,.1,.02,.02,.03,.02,.03,.02,0,0,0,0,0,0,.05,.08,.18,.08,.25,.1,.07,.05,.09,.04,.14,.03,.13,.02,.27,.01,.39-.03h0c.1,0,.23-.05,.22-.13,0,0,0,0,0,0,.03-.03,.05-.05,.07-.09,.06-.06,.1-.1,.08-.15,.05-.03,.1-.09,.12-.16,.03-.09-.02-.15-.06-.23,.05-.15,.08-.22-.1-.33,0-.03-.03-.07-.06-.1-.05-.06-.1-.12-.16-.17,0,0,0,0,0,0,0,0,0,0,0,0-.07-.06-.15-.12-.23-.16-.03-.02-.05-.03-.08-.04,0,0,0,0,0,0-.07-.07-.14-.08-.28-.11-.03-.01-.06-.02-.09-.03-.05-.08-.24-.09-.39-.08-.1-.01-.19-.01-.28-.01-.05,0-.09-.01-.1,0,.02-.03-.03-.01-.11,.01-.08,.01-.16,.03-.23,.05-.09,.03-.17,.07-.25,.11-.05,.02-.09,.05-.11,.07,0,0,0,0,0,0-.16,.08-.24,.11-.29,.28-.1,.02-.1,.09-.13,.15-.02,.02-.04,.05-.06,.07-.06,.01-.11,.08-.15,.13-.03,.02-.05,.04-.08,.05-.08,.04-.16,.08-.24,.13-.03,.02-.07,.04-.1,.08-.08,.07-.14,.17-.18,.27-.08,.13-.08,.21-.07,.33,0,.06,0,.11,0,.16,0,.06,.02,.12,.04,.17,0,0,0,0,0,0,0,.02,.01,.03,.02,.05,.03,.07,.08,.14,.13,.2,0,0,.01,.02,.02,.02,.04,.06,.18,.14,.22,.15,.03,.02,.07,.03,.1,.04,.05,.02,.1,.03,.17,.03,.06,.03,.1,.01,.14-.01Z"/><path class="cls-9" d="M7.24,16.59s0,0,0,0c.01,.01,.03,.03,.04,.04,.04,.03,.07,.06,.15,.09,.05,.02,.11,.04,.17,.05,.03,.02,.06,.03,.1,.01,.04,0,.08,0,.11,0,.03,.01,.07,.02,.12,0,0,0,0,0,.01-.01,.05,0,.1-.01,.15-.02,.02,0,.05,0,.07-.01,0,0,0,0,0,0,.08-.01,.15-.03,.23-.04h0s.1-.01,.14-.02c.02,0,.05,0,.09,0,.23-.01,.46,.01,.69,.03,.05,.02,.08,.04,.16,0,.06,.03,.12,.02,.17,0,.04,0,.08,0,.11,0,0,.02,.06,0,.13-.01,.06,0,.12-.02,.18-.03,.02,0,.05-.01,.08-.02,.05-.01,.09-.03,.14-.05,0,0,0,0,0,0,0,0,0,0,0,0,.03-.01,.07-.03,.1-.05,.05,.01,.09,.04,.13-.08h0c.22-.14,.42-.34,.57-.58,.08-.11,.12-.21,.13-.22,0,0,0,0,0,0,0,0,0,0,0,0,.01-.01,.02-.03,.02-.05,.03-.06,.06-.13,.09-.2,0,0,0,0,0,0,0,0,0,0,0,0,.06-.16,.11-.34,.12-.51,0,0,0,0,0-.01,.04-.06,.03-.07,0-.26,0,0,0,0,0,0,0-.05-.02-.1-.03-.15,0-.04-.01-.08-.03-.1-.03-.07-.06-.13-.11-.2h0s0,0,0,0c-.05-.07-.1-.13-.16-.19,0,0,0,0,0,0-.02-.06-.08-.09-.14-.12-.12-.09-.26-.15-.4-.17,0,0,0,0,0,0,0,0,0,0,0,0-.12-.01-.24,.01-.35,.08-.04,.02-.19,.12-.2,.2-.1,.02-.08,.12-.09,.27-.1,.1-.03,.12,0,.2,0,.03,0,.07,0,.1,0,0,0,0,0,0,0,.19-.01,.23-.02,.3-.05,.04-.17,.25-.11,.28-.15,.03-.18,0-.21,.21-.04,.01-.06,.03-.09,.04-.06,.02-.14,.03-.21,.03t0,0c-.17-.02-.28-.03-.31-.03-.14-.05-.19-.13-.31-.07h0s-.09-.03-.14-.05c-.06-.03-.12-.07-.16-.06-.24-.09-.51-.11-.76-.04,0,0,0,0-.01,0-.07,.02-.14,.05-.21,.09-.08,.05-.15,.1-.21,.17h0s0,0,0,0c0,0,0,.01-.01,.02-.05,.06-.11,.06-.13,.21-.04,.04-.12,.19-.07,.25,0,.09,0,.17,.01,.26,0,0,0,0,0,0,0,0,0,0,0,0,.02,.08,.04,.15,.08,.22,0,0,0,.01,.01,.02,0,.02,.02,.03,.03,.05,.02,.04,.04,.11,.12,.14Z"/><path class="cls-9" d="M-.07,6.67c.05,.07,.12,.14,.2,.17,.02,.01,.04,.02,.05,.02,.16,.06,.19,.14,.32,.04t0,0c.07,0,.14-.03,.19-.07,.03-.01,.06-.03,.09-.08,.06-.06,.1-.13,.14-.21,.03-.04,.06-.08,.08-.14,0,0,.01-.02,.02-.03,.08-.11,.21-.06,.17-.17,.03,.02,.21-.05,.24-.12,.11,.03,.29-.07,.23-.13,.07-.05,.12-.12,.16-.22,0,0,.01-.02,.02-.06,.01-.05,.01-.1,0-.16,0-.01,0-.02,0,0-.01-.03-.03-.07-.05-.1-.02-.03-.04-.07-.07-.1-.05-.06-.11-.12-.17-.16-.02-.05-.08-.07-.13-.09-.1-.07-.2-.13-.31-.17-.14-.06-.25-.1-.4-.12-.04-.01-.08-.02-.13-.01-.1,0-.2,0-.31,.01-.11,0-.23,.07-.27,.13-.03,.03-.05,.06-.07,.09,0,.01-.01,.02-.01,.03,0,.02-.01,.05-.02,.07-.07,.04,0,.23,.02,.23-.03,0-.03,.14,.06,.24,.04,.06,0,.18,.03,.22-.03,.09-.06,.19-.09,.28h0s0,0,0,0c-.03,.1-.06,.19-.07,.29,0,.14-.02,.15,.09,.31,0,0,0,0,0,0Z"/><path class="cls-9" d="M15.4,11.73s-.02-.14-.06-.21c0-.12-.03-.14-.06-.15,0-.02-.02-.04-.03-.06,0,0,0,0,0,0,0,0,0-.01,0-.02,0,0,0,0,0,0-.04-.08-.07-.23-.11-.18,0,0,0,0,0,0,0-.12-.07-.11-.15-.17,.02-.04-.04-.05-.1-.08-.02-.02-.05-.03-.08-.05,0,0,0,0,0,0-.03-.07-.12-.05-.21-.07-.07-.01-.14-.01-.22,0-.04-.02-.07,0-.1,.02-.04,.01-.09,.03-.13,.04-.07,.02-.13,.08-.16,.14-.04,.06-.05,.14-.03,.23,.02,.08,.05,.16,.09,.23,.05,.07,.1,.1,.16,.14,.06,.12,.09,.15,.19,.18,.03,.04,.05,.08,.07,.12,0,.02,0,.05,.03,.07,0,.03,0,.06,0,.09,0,.06-.03,.11-.07,.14-.03,.01-.08,.03-.15,.05-.02,0-.05,0-.07,0-.08,0-.16-.01-.24-.02h0s-.21-.02-.31,0c-.09-.03-.16,.02-.23,.09-.08,.05-.14,.12-.19,.21-.06,.08-.08,.15-.09,.22-.02,.09-.02,.18,0,.26,0,.01,0,.02,0,.04,0,.03,.02,.06,.03,.09,.02,.07,.05,.12,.09,.18,.17,.24,.45,.33,.75,.32,.14,0,.27-.03,.41-.08,.11-.04,.21-.08,.3-.13,0,0,0,0,0,0,.19-.11,.35-.25,.45-.4,.02-.02,.04-.06,.07-.11,.03-.06,.06-.11,.08-.17,0,0,0,0,0,0h0c.04-.1,.07-.2,.08-.3h0c.05-.09,.02-.21,.02-.31,0,0,0,0,0,0,0-.05,0-.1-.01-.15,.02-.08,.05-.13-.03-.17Z"/><path class="cls-9" d="M12.38,10.19c.01,.06,.04,.11,.07,.16,.05,.07,.13,.1,.2,.1,.1,0,.21-.02,.31-.04,.06,0,.12-.01,.18,0,.14,.06,.29,.14,.44,.17,.04,0,.09,0,.13,0,.04,0,.08-.02,.12-.04,.02-.01,.05-.03,.07-.05,.04-.04,.08-.08,.1-.13,.03-.06,.05-.13,.06-.2,0-.02,0-.04,0-.05,.02-.08-.01-.13-.05-.18-.01-.02-.03-.04-.04-.06-.03-.03-.05-.05-.08-.07-.06-.06-.14-.14-.17-.12-.11-.09-.1-.26-.22-.36-.05-.13-.1-.26-.25-.33-.03-.02-.07-.03-.11-.03-.03-.01-.04-.02-.07,0-.03,0-.06,.02-.09,.03-.11,.03-.19,.05-.22,.17-.14,0-.19,.19-.24,.32,0,.01-.01,.03-.02,.04-.05,.1-.15,.22-.11,.27-.02,.06-.03,.13-.04,.2-.01,.04-.02,.07,0,.15-.02,0,0,.03,0,.06Z"/><path class="cls-9" d="M10.08,5.91c.1,.06,.2,.1,.32,.12,.02,.02,.27,.06,.28,0,0,0,0,0,0,0,.09-.01,.17-.03,.25-.06,0,0,0,0,0,0,0,0,.01,0,.02,0,.11-.05,.21-.11,.31-.19,.04-.02,.08-.04,.1-.09,0,0,0,0,0,0,.02-.02,.04-.05,.06-.07,.05-.04,.1-.08,.11-.14,0,0,0,0,0,0,.03-.04,.05-.07,.07-.11,0,0,0,0,0,0,.02-.04,.05-.08,.07-.12,.04-.08,.09-.16,.14-.25,0,0,0,0,0,0,.02-.03,.03-.06,.05-.09,.03-.06,.06-.12,.08-.17,.02-.02,.02-.04,.03-.07,.02-.07,.04-.14,.06-.2h0c.02-.09,.02-.19,.01-.28-.03-.31,0-.14-.09-.28,0-.01-.01-.02-.02-.03,.05-.22-.07-.17-.16-.19-.02-.02-.05-.03-.07-.05-.01,0-.02-.01-.04-.02,0,0,0,0-.01,0-.01,0-.02,0-.04-.01,0,0,0,0,0,0-.11-.03-.21-.01-.27,0h0c-.09,.03-.18,.08-.26,.14-.02,.02-.05,.03-.07,.06-.16-.05-.18,.2-.25,.25h0c-.08,.07-.18,.13-.31,.14-.12-.04-.26,0-.38,0-.12,0-.24,.03-.36,.13-.05,.02-.09,.07-.13,.14-.08,.11-.12,.23-.14,.36-.02,.08-.02,.16,0,.19,0,.05,.02,.1,.03,.16,0,.03,0,.07,.04,.11,.02,.04,.04,.08,.06,.12,.02,.06,.03,.13,.09,.14,.06,.08,.13,.16,.2,.23-.01,.15,.12,.11,.22,.17Z"/><path class="cls-9" d="M12.41,8.11c.1,0,.21-.04,.29-.11,.08-.07,.15-.16,.21-.25h0s0,0,0,0c.05-.1,.09-.21,.1-.32,.03-.08,.02-.11,0-.15,0-.06-.01-.12-.03-.18h0s0-.03-.02-.07c-.03-.08-.08-.15-.15-.21-.09-.09-.22-.14-.35-.18h0s0,0,0,0c-.13-.04-.27-.06-.39-.06-.06,0-.12,0-.17,0-.03,0-.06,0-.08-.01-.03,0-.06-.02-.08-.03-.11-.05-.21-.12-.31-.19-.09-.06-.19-.11-.29-.12,0,0,0,0,0,0,0,0,0,0,0,0-.1-.02-.2,0-.31,.03-.23-.11-.2,.07-.37,.18-.1,.07-.2,.16-.27,.26-.02,.02-.02,.03-.02,.03-.04,.06-.07,.12-.1,.19,0,0,0,0,0,0-.05,.1-.22,.14-.08,.22-.07,.1-.04,.12-.03,.16-.01,.1,0,.2,.01,.29,0,0,0,0,0,0,.03,.15,.04,.16,.09,.2,.04,.08,.13,.12,.18,.15,.06,.03,.11,.05,.17,.06,.02,0,.03,0,.05,0,.02,0,.03,0,.05,0,0,0,0,0,.01,0,.01,0,.03,0,.04,0,0,0,0,0,.01,0,.03,0,.07-.01,.1-.02,0,0,0,0,.01,0,.01,0,.03,0,.04-.01,0,0,0,0,.01,0,.02,0,.03-.01,.05-.02t0,0c.09-.03,.17-.07,.26-.1,.02,0,.04-.01,.06-.02,.11-.05,.26-.1,.38-.1,.02,0,.05,0,.07,.01,.07,.02,.14,.07,.19,.11,.07,.05,.14,.1,.21,.15,.04,.05,.08,.08,.15,.08,0,0,.02,0,.03,.01,.08,.03,.15,.09,.28,.05Z"/><path class="cls-9" d="M16.25,3.35v-1.16s-.03-.03-.04-.05c0,0,0,0,0,0,0,0-.02-.02-.02-.03,0,0,0,0-.01-.01-.01-.01-.02-.02-.03-.03,0,0,0,0,0,0-.01-.01-.02-.02-.04-.03,0,0,0,0-.01,0,0,0-.02-.01-.03-.02,0,0,0,0,0,0,0,0,0,0,0,0-.01,0-.03-.01-.04-.02,0,0,0,0,0,0-.01,0-.03-.01-.04-.01,0,0-.01,0-.02,0-.01,0-.02,0-.04,0,0,0-.01,0-.02,0-.02,0-.04,0-.05,0,0,0-.02,0-.04,0-.1,0-.19,.03-.28,.07-.06,0-.12,.06-.16,.1-.04,.03-.07,.06-.1,.09-.02-.04-.02,0-.03,.03,0,0,0,0,0,0-.04,.03-.08,.06-.12,.09-.03,0-.06,.02-.09,.05h0c-.08,.04-.16,.07-.25,.09-.12,.02-.25,.05-.36,.09h0c-.11-.02-.13,.02-.18,.08-.05,.03-.1,.06-.15,.1-.06-.08-.23,.19-.26,.31,0,0,0,0,0,0-.05,.06-.2,.37-.13,.33,0,0,0,0,0,0-.05,.08-.05,.14-.02,.34,0,0,0,0,0,0,0,.12,.02,.19,.05,.24,0,.03,.02,.07,.03,.1,0,0,0,0,0,0h0c.04,.11,.1,.22,.16,.32,0,0,0,0,0,0,.05,.08,.12,.19,.23,.29,0,0,0,0,0,0,.06,.08,.14,.14,.2,.18,.03,.02,.06,.04,.08,.06,0,0,0,0,0,0,.06,.08,.15,.18,.33,.18,.08,.06,.14,.08,.3,.09h0c.1,.02,.21,.03,.3,.01h0s0,0,0,0c.08,0,.16-.03,.23-.06,.02,0,.03-.01,.05-.03,0,0,0,0,0,0,.14-.06,.22-.16,.21-.23,.03-.02,.04-.05,.04-.1,.08-.22,.05-.45-.07-.62,0,0-.01-.02-.01-.02-.01-.02-.03-.04-.05-.05,.05-.21-.04-.1-.16-.11-.03-.02-.06-.03-.1-.04-.07-.02-.17-.05-.26-.08-.02-.02-.05-.03-.11-.04,0,0,0,0,0,0-.1-.05-.18-.12-.19-.22,0-.02,0-.05,0-.07,.14-.13,.24-.17,.25-.18h0c.12,0,.25,.06,.35,.1,.02,0,.05,.01,.07,.02,.06,.04,.1,.11,.2,.05,.2,.16,.32,0,.27-.04,.11-.02,.11-.02,.16-.1Z"/><path class="cls-9" d="M9.46,18.08h0s.02-.03,.02-.05c.03-.01,.07-.02,0-.17,.08-.18-.07-.23-.15-.23,0,0,0,0,0,0-.05-.19-.06-.08-.18-.14,0,0-.02-.01-.03-.02,0,0,0,0,0,0-.07-.07-.15-.1-.25-.1-.01,0-.02,0-.04-.01-.13-.07-.09-.21-.27-.05,0,0,0,0,0,0-.07,0-.14,0-.21,0-.08-.02-.14-.04-.08,0,0,0,0,0,0,0-.09,0-.19,.02-.27,.05-.08,.02-.16,.05-.23,.09,0,0,0,0,0,0h0c-.07,.04-.14,.09-.21,.15,0,0,0,0,0,0-.02,0-.15,.12-.17,.19,0,0,0,0,0,0-.08,.03-.19,.18-.13,.22,0,0,0,0,0,0-.03,.08-.06,.16-.07,.24,0,0,0,0,0,0,0,0,0,0,0,0-.01,.08-.02,.17,0,.26-.02,.09,.03,.21,.07,.26,.04,.1,.08,.19,.15,.25,.06,.09,.13,.12,.21,.13,.01,0,.03,0,.04,0,.04,0,.07-.01,.11-.03,0,0,.01,0,.02,0,.02,0,.03-.02,.05-.03,.01,0,.02-.02,.03-.03,.07-.07,.13-.15,.19-.23,.06-.07,.14-.11,.18-.24,.02-.03,.12-.11,.17-.15,.03-.02,.06-.04,.09-.06,.09-.03,.24-.04,.18-.08,.06-.01,.13-.02,.2-.02,.05,0,.1,0,.12,0,.11,0,.21,0,.31-.02,.1,.02,.12-.04,.18-.14Z"/><path class="cls-9" d="M11.45,18.83c.04-.09,.03-.16,0-.22-.04-.06-.08-.11-.16-.16,0,0,0,0,0,0-.08-.11-.17-.21-.28-.3,0,0,0,0,0,0-.11-.14-.18-.14-.3-.18-.01,0-.02-.01-.03-.01-.02-.07-.18-.28-.37-.07-.11,.01-.29,.07-.36,.16-.25,.2-.1,.17-.08,.25h0c0,.08,.05,.17,.11,.25,.05,.06,.1,.11,.16,.16,0,0,0,0,0,0,0,0,0,0,0,0,.06,.05,.12,.09,.17,.14,.06,.15,.16,.22,.18,.33,0,.02,0,.04,0,.06,0,.13-.1,.25-.21,.34-.14,.1-.27,.17-.36,.21-.08,.03-.16,.06-.23,.1-.14,.03-.22,.16-.29,.3-.06,.12-.04,.24,.04,.34,.25,.32,.71,.4,1.09,.28,.14-.05,.28-.11,.4-.19,.02-.02,.05-.03,.07-.05,0,0,0,0,.01-.01,.04-.03,.08-.07,.11-.1,0,0,0,0,0,0,.05-.06,.1-.12,.15-.18,0,0,0,0,0,0,0,0,0,0,0,0,.04-.06,.07-.12,.1-.18,0-.01,.01-.02,.01-.03,.02-.04,.03-.07,.04-.11,.01-.03,.02-.06,.04-.12,0,0,0,0,0,0,.02-.06,.03-.12,.04-.18,0-.02,.01-.03,0-.06,0,0,0,0,0-.02,0-.08,.02-.15,.02-.23,0-.08,0-.16-.02-.24h0c.05-.12,.03-.2-.05-.24Z"/><path class="cls-9" d="M7.6,20.5s0,0,0,0c0,0,0,0-.01-.01,0,0,0,.01,0,.02Z"/><path class="cls-9" d="M6.2,21.6c.13,.03,.16,.02,.19,0,.07,0,.15-.02,.22-.04,.15-.02,.33-.05,.34-.2,.14-.05,.18-.21,.22-.34,.04-.11,.05-.24,.05-.38,0,0,0,0,0-.01,0-.03,0-.06,0-.09-.05-.44-.16-.92-.64-1.05-.15-.04-.35-.07-.43-.05-.04,0-.08-.02-.13-.03-.06-.04-.09-.11-.17-.09,.01-.12-.02-.06-.1-.08-.12-.09-.24-.16-.39-.2-.08-.02-.14,0-.2,.02-.06,.01-.1,.04-.08,.05-.02,.02-.04,.05-.06,.08-.05,.06-.08,.11-.07,.19-.02,.04-.05,.19-.04,.33,0,0,0,0,0,0,0,.11,0,.2,0,.27,0,.06,.01,.11,.02,.17,0,.03,0,.07,.03,.15,.02,.09,.04,.17,.07,.26,0,.03,.01,.05,.03,.08,0,0,0,0,0,0,.04,.11,.09,.22,.14,.31-.01,.21,.21,.31,.19,.27,.03,.31,.19,.22,.36,.28,0,0,0,0,0,0,.03,.03,.07,.04,.12,.05,.1,.04,.21,.06,.31,.07,0,0,0,0,0,0Zm-.88-1.18s0,0,0,0c0,0,0,0,0,0,0,0,0,0,0,0Z"/><path class="cls-9" d="M9.12,4.26s0,0,0,0c0-.08,0-.16,0-.24,.01-.1,0-.17-.03-.21-.02-.07-.04-.14-.06-.2h0c0-.13-.06-.17-.12-.22-.03-.05-.07-.1-.11-.14-.06-.09-.15-.17-.28-.26,0,0,0,0,0,0-.09-.09-.3-.15-.35-.14-.11-.01-.19,0-.29,.04-.04,.01-.07,.03-.1,.05-.15,.04-.15,.1-.13,.23-.03,.03-.01,.07,.01,.13,.01,.05,.03,.09,.05,.14,.02,.04,.05,.08,.07,.12,0,.02,.02,.04,.05,.07,.04,.05,.08,.1,.12,.14,0,0,.01,.02,.02,.03-.01,.13,.11,.21,.1,.41,0,.02-.01,.03-.02,.05-.04,.06-.14,.11-.26,.24-.13,.07-.28,.12-.39,.14-.03,0-.07,0-.09,.01-.05,0-.1,.02-.15,.04-.04,.01-.08,.03-.12,.05-.09,.04-.18,.08-.23,.19-.08,.1-.09,.23-.03,.35,0,.09,.04,.11,.1,.15,.08,.09,.17,.17,.28,.22,.02,.01,.03,.02,.05,.03,0,0,0,0,0,0,.01,0,.02,.01,.03,.01,.08,.03,.17,.06,.25,.07,.09,.06,.17,.1,.29,0,0,0,.02,0,.04,0,.06,0,.12-.02,.18-.03h0s0,0,0,0c.07-.02,.14-.04,.21-.07,.08,.01,.08-.02,.1-.05,.04-.02,.08-.04,.11-.07,0,0,0,0,.01,0,0,0,0,0,0,0,.03-.02,.06-.04,.08-.06,.05-.02,.1-.04,.1-.09,0,0,0,0,0,0,.03-.03,.06-.06,.09-.1,.05-.02,.09-.02,.07-.09,.05-.04,.07-.08,.07-.12,.02-.03,.03-.06,.05-.09,0,0,0,0,0,0,.1-.04,.12-.16,.09-.23,0,0,0,0,0,0,0-.01,0-.03,.01-.04,.04-.05,.12-.1,.05-.2,0-.04,.02-.08,.02-.12,.02-.05,.04-.1,.01-.12Z"/><path class="cls-9" d="M.65-.2s-.04-.05-.06-.07c-.12-.14-.2-.19-.32-.16-.04-.02-.08-.02-.13,0-.08,0-.15,.04-.2,.11-.12,.08-.08,.18-.07,.27,0,.13-.03,.25-.1,.36-.03-.02-.03,.01-.03,.04,0,0,0,0,0,0-.06,.05-.09,.09-.13,.13,0,0-.01,0-.02,.01-.05,.03-.11,.05-.15,.09-.02,.02-.04,.04-.05,.06,0,0,0,0,0,0,0,0-.01,.02-.02,.03,0,0,0,.01,0,.02,0,0,0,0,0,.01-.02,.05-.02,.11-.01,.16,0,.05,.02,.09,.04,.14,.02,.04,.04,.07,.06,.1,.1,.15,.27,.25,.43,.32,.02,.01,.04,.02,.06,.03,.05,.02,.11,.04,.18,.06,0,0,0,0,0,0,0,0,0,0,0,0,.04,.01,.09,.02,.14,.03,.05,.01,.1,.02,.15,.02,0,0,0,0,0,0,.1,0,.2,0,.3,0H.71s.04,0,.05,0c0,0,0,0,.01,0,0,0,0,0,0,0,.08-.01,.15-.03,.22-.05,0,0,0,0,0,0,.09,0,.17-.07,.22-.1,.01,0,.02-.01,.03-.02,0,0,0,0,0,0,0,0,0,0,0,0,.04-.03,.07-.06,.1-.09,0,0,.02-.02,.02-.03,0,0,0,0,0,0,0,0,.01-.02,.02-.03,0,0,0-.01,.01-.02,0-.01,.01-.02,.02-.04,.06-.1,.06-.21,.03-.3,.02-.07-.05-.12-.13-.17-.02-.02-.05-.03-.08-.05-.07-.03-.15-.06-.23-.09,0-.03-.07-.05-.12-.09-.02-.02-.04-.05-.05-.08-.04-.09-.05-.18-.08-.27,.04-.18-.04-.23-.13-.32Z"/><path class="cls-9" d="M.75-1.46s0,.01,0,.02c-.04,.05-.08,.1-.11,.16,0,0,0,0,0,0,0,0,0,0,0,0-.04,.08-.05,.18-.04,.27,0,.04,.02,.07,.03,.09,.03,.09,.09,.19,.14,.11,0,0,0,0,0,0,.07,.07,.13,.06,.29,.03,.11,0,.21-.04,.31-.07,.02,0,.15,0,.24-.04,0,0,.01,0,.02,0,0,0,0,0,0,0,.06,0,.15,.03,.24,0,0,0,0,0,0,0,.03,0,.07,.01,.1,.02,.06,.02,.1,.05,.14,.04,.08,.03,.15,.08,.2,.14,.02,.06,.08,.14,.1,.27,0,0,0,0,0,0,0,.03,0,.07,0,.1-.01,.08-.04,.13-.03,.19,0,0,0,0,0,0-.04,.2-.06,.4,.1,.56,0,0,.01,.01,.02,.02,.07,.06,.16,.1,.25,.11h0s0,0,0,0c.02,0,.03,0,.05,0,.06,.02,.17,.09,.26-.05,.1-.04,.16-.03,.3-.15,0,0,.02,0,.03-.02,.08-.05,.15-.11,.2-.17,.03,0,.17-.15,.17-.25h0c.12-.08,.07-.17,.08-.27,0,0,0-.01,0-.02,0,0,0,0,0,0,.12-.09,.11-.23,0-.31,0-.15-.06-.22-.1-.29,0,0,0,0,0,0,0-.02,.06-.11-.13-.19-.02-.07-.06-.08-.1-.11-.02-.02-.04-.04-.06-.06,0,0,0,0,0,0-.02-.02-.04-.04-.07-.06-.04-.03-.08-.06-.12-.08,0,0,0,0,0,0-.04-.03-.05-.06-.2-.12,0,0,0,0,0,0-.07-.04-.14-.07-.21-.1,0,0,0,0,0,0,0,0,0,0,0,0-.07-.03-.15-.06-.22-.08-.04-.04-.12-.05-.21-.07,0,0,0,0,0,0-.07-.02-.14-.04-.22-.05,0,0,0,0,0,0,0,0-.02,0-.02,0,0,0-.01,0-.02,0-.06-.01-.1-.03-.15-.02-.09,0-.17-.01-.26-.01,0,0,0,0,0,0-.05-.01-.11,0-.16,.01-.05,0-.1,.02-.15,.03-.04,0-.07,0-.13,.04-.14,.05-.31,.14-.45,.26-.04,.03-.09,.06-.11,.09Z"/><path class="cls-9" d="M1.64,2.18c-.06,.05,.01,.17,.04,.24,0,0,0,.01,0,.02,0,0,0,0,0,.01,.02,.08,.05,.15,.08,.2,.04,.07,.09,.14,.15,.19,.03,.05,.05,.06,.09,.07,.03,.02,.07,.04,.11,.06,.01,.03,.05,.03,.1,.04,.04,.01,.08,.02,.12,.03,0,0,0,0,.01,0,.05,.01,.18,.05,.23,0,.09-.02,.18-.05,.26-.09,.09,.01,.1-.02,.11-.06,.04-.03,.08-.06,.12-.09,.14-.06,.26-.13,.2-.19,0,0,0,0,0,0,.04-.04,.07-.09,.11-.13,.02-.01,.04-.02,.06-.08,0-.01,.02-.03,.03-.04,.05-.03,.13-.08,.11-.18,0,0,0,0,0,0,.08-.08,.05-.07,.12-.24,.05-.08,.13-.21,.08-.25,.01-.07,.02-.14,.02-.21,0-.02,0-.04,0-.05,.01-.02,0-.05,0-.07,0-.05-.01-.1-.03-.15h0c-.01-.06,0-.13-.08-.23-.04-.07-.08-.14-.14-.19,0,0-.01,0-.02-.01-.05-.04-.11-.07-.18-.08-.08,0-.14,.02-.19,.08,0,0-.01,0,0,0-.02,.01-.03,.03-.03,.05-.02,.05-.04,.1-.05,.15-.04,.16-.05,.25-.02,.25,0,.07-.01,.15-.04,.24-.02,.04-.03,.08-.05,.14,0,0,0,0,0,0-.08,.17-.16,.06-.25,.28-.11,.05-.22,.02-.32-.02-.02-.03-.05-.05-.12-.06h0c-.14-.07-.28-.14-.44-.05-.11,.03-.16,.1-.16,.17,0,0,0,0,0,0-.03,.07-.04,.16-.04,.24,0,0,0,0,0,0Z"/><path class="cls-3" d="M5.94,30.59c-.05,.14-.12,.11-.15,.25,.06,.06-.05,.14-.17,.24-.1,.09-.13,.08-.19,.22-.11,.15-.25,.12-.22,.19,.08,.04-.11,.15-.24,.14-.07,.15-.17-.02-.26,.08-.05,.14-.25-.06-.27,0-.13-.14-.28-.05-.29-.09-.21,0-.16-.05-.28-.17-.2-.03-.13-.1-.16-.2-.07-.14-.06-.14-.07-.22,0-.09,0-.16-.02-.25,.03-.06-.07-.2-.02-.27-.05-.16,0-.23-.05-.3-.04-.08,.01-.22-.09-.32-.07-.12-.06-.27-.06-.31-.02-.1-.03-.21,0-.31,.04-.03,.05-.19,.09-.33,.09-.13,.08-.16,.12-.21,.02,.02,.08-.2,.15-.19,.02,.03,.07-.05,.18-.18,0-.12,.08-.12,.18-.16,.06-.12,.21-.09,.18-.15,.07-.03,.11-.22,.2-.15,.05-.09,.05-.06,.2-.15,.22-.05,.18-.08,.2-.11,.1-.03,.3-.16,.41-.09,.16-.15,.14-.03,.22,.03,.05,.1,.32,.04,.24,.09,.09,.21,.08,.1,.23,.14,.23-.04,.19,0,.21,.19,.02,.1,.12,.25,.15,.23-.04,.15,.09,.09,.05,.27,.05,.05,.05,.17-.03,.28,.13,.08-.01,.02-.06,.28,.03,.09-.01,.2-.06,.28-.14,.16-.09,.26-.02,.29,.06,0-.05,.24-.02,.25-.05,.29-.05,.14-.05,.23-.07,.22-.03,.12-.09,.22-.12-.08-.05,.15-.12,.24Z"/><path class="cls-3" d="M8.93,25.49c-.05-.11,.16-.24,.16-.33,.04-.07,.11-.14,.18-.29,0-.08,.23-.1,.21-.26,.03-.12,.15-.1,.23-.24,.09-.11,.11-.14,.26-.23,.1-.1,.15-.13,.28-.23,.19-.03,.15-.11,.24-.14,.18,.07,.17-.05,.27-.08,.09-.06,.21-.03,.28-.04,.05-.03,.19,.02,.29,0,.17,.03,.15,.07,.29,.02,.11-.02,.16,.02,.28,.03,.05-.1,.24,.03,.36,.05,.06,0,.32,.09,.36,.08,.17,.08,.34,.1,.35,.13,.12,.07,.19,.05,.31,.18,.1,.14,.18,.12,.25,.25,0,.11,.15,.22,.17,.33,.03,.18,0,.22,.05,.29,.05,.07-.06,.1-.01,.24,0,.12-.1,.18-.05,.24,.11,.18-.03,.19-.09,.23-.18,.02-.15,.15-.11,.23,.03,.07-.09,.35-.12,.22,0,.15-.07,.08-.12,.21,.01,.1-.09,.18-.17,.24-.05,.06-.1,.1-.16,.12-.12,.05-.26,.04-.49,.04-.22,0-.41,.01-.61,.12-.13,.07-.24,.21-.39,.24-.32,.06-.6-.3-.9-.1-.14,.09-.18,.28-.34,.35-.24,.12-.53,.01-.74-.11-.12-.07-.21-.14-.3-.23-.08-.08-.13-.18-.2-.27-.05-.06-.16-.18-.1-.3-.01-.04-.05-.26-.04-.33,.03-.16-.06-.17,.05-.34,.11-.18-.02-.26,.1-.35Z"/><path class="cls-3" d="M8.5,30.34c.21,.07,.12-.14,.11-.23,.11,.02,.12-.07,.15-.19-.07-.11,.21-.09,.19-.15,.01-.14,.14-.14,.23-.09,.12-.04,.18-.06,.25-.04,.06-.04,.16-.02,.27,.02,.09,.06,.19,.04,.22,.04,.08-.02,.16,.01,.26,.06,.12,.03,.25,.07,.27,.07,.05,.06,.19,.09,.26,.09,.08,.02,.11,.03,.23,.1,.08,.04,.13,.07,.17,.12,.08,.09,.15,.14,.2,.25,.04,.1,.06,.16,.14,.29,.03,.07-.02,.18,.06,.31-.07,.16-.03,.32-.03,.3-.07,.13-.24,.22-.07,.31,.16,.1-.23,.13-.07,.33-.07,.24-.04,.08-.08,.32,.06,.04-.14,.14-.1,.3-.01,.12-.04,.18-.16,.24-.02,.06-.09,.13-.21,.17-.03,.04-.14,.05-.26,.12-.04,0-.2,.08-.28,.07-.22-.01-.2,0-.3,.05-.17,.08-.15,.06-.29,.03-.11-.04-.25,.02-.36,.07-.06-.05-.13,.06-.27,.11-.25,.06-.19,.11-.25,.14,0,.1-.23,.09-.3,.15-.15,.05-.28,.13-.36,.08-.13-.06-.2-.08-.26-.1-.13-.11-.15-.06-.18-.24-.07-.11-.06-.12-.11-.33,0-.1-.12-.12-.07-.38-.02-.17,0-.27-.03-.38-.03-.19-.03-.21-.02-.34,.12-.22-.09-.2-.02-.26,.01-.2-.04-.29,.03-.43,.03-.02,0-.16,.13-.14,.09-.05,.16-.06,.24-.14,.09,.04,.12-.02,.26-.14,.09-.04,.04-.02,.19-.14,0,0,.11-.11,.13-.17-.15-.12,.05-.13,.11-.27Z"/><path class="cls-3" d="M6.41,23.07c-.09-.14-.17-.28-.03-.34,.13-.11,0-.28,.14-.25,.05,.03,.25-.07,.26-.16,.12,.04,.25-.1,.34-.07,.03,.1,.18,.09,.37,.02,.19,.21,.2,.09,.35,.12,.18,.07,.25,.26,.29,.21,.22,.19,.07,.1,.18,.31-.04,.04,.13,.18,.1,.26,.08,.22,.19,.24,.11,.3,.04-.02,.02,.19,.02,.28-.04,.25-.05,.09-.17,.21-.14,.02-.14,.17-.21,.06-.02,.06-.26,.02-.23,0-.13-.03-.16,0-.23-.01-.13,0-.12,.05-.22,.02-.06,.06-.14,.08-.23,.1-.11,.09-.21,.14-.23,.02-.22-.13-.13-.14-.23-.3-.2-.18-.25-.43-.15-.37,.06-.05,.13-.13-.13-.2,0-.04-.15-.03-.12-.21Z"/><path class="cls-3" d="M16.25,27.63s-.01-.04,0-.05c-.04-.08-.12-.06-.27-.11-.09,.04-.2,0-.29-.04-.14-.04-.18-.01-.3,.02-.15-.09-.21,.04-.29,.07-.1-.02-.1-.03-.26,.12-.03,.15-.16,.2-.24,.12-.06-.04-.12,.2-.24,.12-.14-.01-.12,.14-.24,.12-.16,.01-.12,.17-.23,.13-.15,.04-.18,.21-.25,.23,.02,.03-.01,.15,.04,.16,.1-.04,.14-.01,.22,.15,.08,0,.28,.15,.29,.17,.13,.17,.17,.04,.26,.18-.01,.01,.32,.27,.31,.2,.14,.22,.13,.33,.34,.2,.15,.02,.21,.09,.35,.18,.1,.06,.25,.13,.35,.13,.12,0,.23,.05,.33,.05,.04,0,.08,0,.12,0v-2.15Z"/><path class="cls-3" d="M-.97,30.49c.07-.16,.14-.17,.18-.3,.1-.1,.11-.25,.16-.31-.02-.14-.04-.23,.06-.26-.15-.06,.07-.3,.1-.24,.1-.12,.09-.08,.24-.1,.16,0,.16,.17,.29,.07-.1,.08,.22,.13,.29,.15,.02,.16,.07,.08,.24,.13,.08,.03,.24,.21,.3,.11,.09-.12,.16,0,.3,.11,.17,.1,.15,.07,.29,.14,.04-.09,.17,.16,.25,.19,.15,.23,.12,.36,.11,.37,0,.09-.05,.26-.19,.38-.01,.02,.07,.16-.09,.24-.1,.22,.03,.16-.04,.34-.09,.05-.01,.18-.02,.37,.05,.16-.11,.27-.17,.37-.21,.05-.09,.07-.37,.18-.09,.09-.22,.2-.25,.15-.13,.19-.3,.03-.24,.13-.08-.04-.27,.13-.27-.05-.19-.02-.23-.08-.22-.21-.06-.11-.24-.26-.16-.27-.02-.07-.08-.09-.11-.25,.09-.26-.07-.19-.12-.25-.16-.02-.07-.25-.11-.19-.19-.09-.01-.1-.15-.16,.1-.09-.19-.07-.22-.15-.11-.09-.27-.22-.23-.31-.03-.1,.02-.23,.14-.4Z"/><path class="cls-3" d="M2.93,23.64c-.17-.02-.18-.23-.25-.28-.05,.03,.07-.26-.09-.34-.09-.1-.05-.18,.09-.29-.08-.13-.1-.11,.07-.3,.11-.16,.03-.26,.05-.31,0-.09,.07-.2,.12-.24,.06-.06,.13-.11,.21-.13,.09-.02,.19,0,.32,.04,.13,.04,.31,.19,.35,.23,.13,.08,.15,.31,.26,.33,.11,.05,.02,.11,.09,.27,.15,.19-.05,.19,.09,.27,.1,.15,.21,.15,.15,.17,.04-.02,.17,.06,.21,.12,.1,.01,.19,.06,.25,.08,.09-.1,.11,0,.26,.05,0,.05,.21,.24,.26,.04,.06,0,.2,.04,.23,.03,.18-.12,.21,.03,.35,.07,.18,.01,.26-.02,.26,.11,.02-.07,.09-.02,.19,.16,.05,.2,.12,0,.13,.21,.06,.04,.08,.28,.09,.27,.13,.21,.04,.18,.07,.34-.03-.01-.04,.16,.04,.25-.02,.11,.05,.1,0,.23-.13,.05-.14,.22-.07,.2-.1,.09-.19,.14-.18,.17-.07,.24-.12,.08-.21,.1-.14,.11-.14,.12-.23,.08-.22,.04-.14,.06-.25,.06,0,.17-.1,.06-.25,.06,.1-.08,0-.04-.25,.04,.03,.03-.28,.07-.22,.05-.17,.1-.23,0-.3,.04-.03,.11-.21,0-.28-.03-.09,.02-.16-.01-.25-.09-.11-.04-.15-.07-.22-.15-.18-.09-.13-.09-.2-.2-.03-.05-.05-.21-.18-.25-.11-.07,.03-.2-.13-.24-.1,0-.2-.21-.1-.25-.09,.08-.05-.09-.09-.26-.03-.04-.09-.27-.1-.26,.07-.16-.04-.18-.12-.24-.03-.04-.11-.19-.15-.22Z"/><path class="cls-3" d="M.76,27.5c-.03-.19-.13-.23-.11-.24,.07-.06-.1-.12,.05-.25,.02-.06,.12-.09,.17-.22,.12-.04,.12,.03,.24-.16,.28-.09,.31-.05,.29-.09,.13-.13,.25-.01,.3,0,.19-.05,.22,.1,.27,.13,.28,.12,.18,.07,.2,.28-.02-.14,.18,0,.1,.22,.18,.27,.08,.22,.11,.28,.03,.07,.11,.21,.06,.28,0,.12-.09,.1-.04,.22-.13,.16-.1,.19-.38,.08-.11-.02-.29-.12-.35-.24,0,.05-.13,0-.17-.21-.12-.19-.28-.19-.18-.19-.1,0-.25-.13-.27-.02-.04,.02-.12,.18-.27,.12Z"/><path class="cls-9" d="M16.25,28.84c-.02,.09-.04,.19-.06,.29,0,0,0,0,0,0h0s-.02,.1-.03,.14c-.02,.05-.03,.09,0,.16,0,.03,0,.06,.01,.1,0,.08,.02,.14,.08,.19v-.88Z"/><path class="cls-9" d="M16.25,26.97c-.31-.06-.7-.08-.94,.09-.13,.09-.24,.25-.19,.42,.07,.23,.27,.33,.49,.42,.02,0,.03,.01,.05,.02,.25,.15,.53,.33,.59,.58v-1.53Z"/><path class="cls-9" d="M12.08,23.21s.03,.02,.04,.05c.05,.07,.09,.14,.12,.22,.03,.02,.04,.07,.04,.13,.03,.14,0,.29-.07,.43,0,.02-.01,.03-.02,.03-.07,.1-.16,.19-.27,.25h0s0,0,0,0c-.11,.06-.23,.1-.35,.11-.06,.02-.1,0-.14,0-.07-.01-.15-.04-.2-.07-.05,0-.21-.05-.22-.13-.07-.04-.15-.08-.24-.09-.03,0-.08,0-.12,0-.05,0-.1,.01-.14,.02,0,0,0,0,0,0-.26,.09-.09,.09-.25,.1-.01,0-.02,.01-.03,.02-.07,.07-.2,.3-.25,.21-.12,.1-.14,.22-.3,.2,0,0-.02,0-.03,0-.1,.03-.2,.02-.27-.01-.05-.01-.23-.18-.18-.2-.06-.13-.07-.29-.03-.43,0-.04,.02-.09,.07-.14,0,0,0-.01,.01-.02,.06-.08,.15-.15,.24-.2h0c-.02-.08,.21-.18,.31-.13,.02-.07,.11-.05,.22-.07,.02,0,.04-.01,.06-.02,.08-.04,.12-.12,.15-.09,.02-.1,.08-.16,.17-.17,0-.02,.02-.03,.03-.04,.04-.05,.08-.09,.13-.14,.02-.02,.04-.04,.06-.05,.03-.03,.07-.07,.14-.09-.01-.05,.04-.04,.09-.04,.04-.02,.08-.03,.12-.04,0,0,0,0,0,0,.07-.03,.12-.02,.15-.02,.02,0,.05,0,.08,0,0,0,0,0,0,0,0,0,0,0,0,0,.08,0,.15,.01,.23,.03,0,0,0,0,0,0,0,0,0,0,0,0,.08,.02,.15,.04,.22,.08,0,0,0,0,0,0,.03,0,.05,.02,.07,.03,.05,.02,.09,.05,.14,.08,.09,.06,.17,.13,.24,.21Z"/><path class="cls-9" d="M14.42,24.57s.08,.07,.1,.17c.08,.16,.12,.33,.13,.5,0,0,0,.02,0,.02,0,.02,0,.04,0,.06,0,.15-.03,.29-.07,.43,0,0,0,.02-.01,.03-.03,.1-.1,.2-.12,.25,0,.14-.1,.15-.17,.2-.05,.07-.08,.14-.26,.18-.03,.03-.07,.04-.1,.04-.18,.05-.37,.06-.53-.01h0s-.08-.04-.11-.06c-.08-.03-.16-.06-.13-.14-.18-.03-.16-.06-.06-.29,0,0,0,0,0,0,0,0,0,0,0,0,0-.1,.03-.2,.06-.29,0-.05,.02-.09,.03-.13,.02-.11,.02-.21,0-.3-.11-.11-.09-.16-.24-.34-.18-.05-.23-.2-.27-.24,0,0,0,0,0,0-.08-.09-.14-.18-.17-.31-.02-.07-.03-.19,.06-.26,.01-.02,.03-.04,.04-.05,.06-.08,.08-.13,.15-.13,.05-.1,.11-.08,.16-.08,.02,0,.04-.01,.07-.02h0s0,0,0,0c.02,0,.03,0,.05-.01,.06-.02,.14-.07,.19-.02,.07-.04,.16,.01,.24,.04,0,0,0,0,0,0,.04-.04,.19,.01,.23,.09,.06,.02,.12,.06,.17,.09,.04,.02,.07,.04,.08,.06,.09,.02,.22,.19,.22,.21,.09,.05,.23,.02,.19,.24,0,0,0,0,0,0,.02,.03,.03,.05,.05,.08Z"/><path class="cls-9" d="M5.52,22.6s0,0,0,0c0,.01,0,.02,0,.04,0,0,0,0,0,.01,0,.03-.02,.06-.03,.09,0,0,0,0,0,.01,0,.01-.01,.02-.02,.03,0,0,0,0,0,.01-.02,.03-.04,.06-.06,.08,0,0,0,0,0,.01,0,.01-.02,.02-.03,.03,0,0,0,0-.01,.01-.01,.01-.02,.03-.04,.04h0s-.03,.02-.04,.04c0,0,0,0-.01,0-.01,0-.02,.02-.03,.03,0,0,0,0-.01,0-.03,.02-.06,.04-.09,.06,0,0,0,0,0,0,0,0,0,0,0,0-.13,.09-.28,.15-.4,.17-.05,.01-.1,.02-.16,.01-.02,0-.03,0-.05,0,0,0,0,0,0,0-.02,0-.04,0-.06-.01-.07-.02-.14-.05-.21-.09-.01,0-.03-.02-.04-.03-.05-.04-.08-.08-.1-.13-.03-.03-.04-.07-.04-.11h0c-.02-.09-.03-.19-.03-.28,0-.1,0-.25-.04-.36h0s0,0,0,0c0-.02,0-.03-.02-.04-.04-.06-.17-.12-.22-.13,0,0-.01,0-.02,0-.01,0-.03,0-.04,.01-.11,.05-.08,.24-.16,.27h0c.02,.06,.01,.13,0,.2,0,.07,.01,.14,.02,.19,0,.04,0,.09,0,.14-.02,.1-.05,.19-.1,.26-.03,.07-.04,.13-.1,.12h0c0,.1-.11,.1-.18,.11-.02,0-.04,.02-.06,.02-.11,.07-.22,.03-.3,.02-.06,0-.11-.01-.16-.04-.16-.06-.27-.18-.34-.33-.03-.05-.1-.14-.08-.25,0,0,0,0,0,0-.04-.08-.03-.12-.02-.18,0-.04,0-.09,0-.13-.1-.2-.03-.27,.04-.37,0,0,.04-.37,.12-.36-.01-.02,.02-.06,.07-.14,.09-.16,.2-.3,.33-.42,0-.01,.02-.02,.03-.03,0,0,0,0,0,0,0-.1,.14-.18,.29-.2,.11-.06,.23-.09,.32-.11,.11-.02,.23-.02,.36,0,0,0,0,0,0,0,.15,0,.26,.02,.38,.13,.23,.12,.36,.33,.5,.54,.02,.03,.04,.06,.06,.08,.07,.06,.14,.07,.11,.12,0,0,0,0,0,0,.06,.06,.14,.1,.21,.15,.01,0,.03,.01,.04,.02,.12,.03,.25,.04,.28,.17,.02,.02,.05,.04,.07,.07,.05,.06,.09,.12,.12,.2,0,.02,.01,.03,.02,.05,0,0,0,0,0,.01,0,.01,0,.03,0,.04,0,0,0,0,0,.01,0,.03,0,.07,0,.1,0,0,0,0,0,0Z"/><path class="cls-9" d="M7.31,23.25s0,0,0,0c.03,.04,.06,.09,.09,.13,.02,.03,.05,.06,.07,.13,.02,.02,.03,.05,.03,.07,.03,.07,.06,.14,.08,.21,0,0,0,0,0,0,.05,.06,.07,.23,.06,.29,0,0,0,0,0,0,0,.06,0,.13,0,.19,0,.03,0,.06,0,.1,.01,.07-.05,.21-.08,.31-.08,.17-.16,.22-.2,.25,0,0,0,0,0,0-.01,.05-.08,.08-.14,.1-.04,.02-.09,.04-.14,.05-.06,.04-.19,.08-.31,0-.09,.02-.23-.09-.26-.19h0c-.06-.09-.11-.19-.13-.29-.04-.15-.05-.29-.1-.39-.04-.06-.08-.11-.12-.15-.05-.03-.11-.06-.19-.08-.11-.02-.22-.05-.32-.08-.16,.03-.17-.05-.2-.1-.06-.05-.1-.11-.12-.19-.01-.04-.02-.07-.02-.1-.04-.06-.05-.11,.07-.26,0,0,0,0,0,0,.02-.04,.06-.08,.09-.11,0-.04,.02-.07,.09-.08,0-.07,.06-.11,.19-.13,.04-.06,.03-.19,.27-.13h0c.03-.07,.12-.05,.2-.05,.03,0,.06,0,.09-.01,0,0,0,0,0,0,.07-.02,.12-.01,.18,0,.04,0,.08,0,.11,.01h0c.13,0,.18,.04,.28,.1,.06-.02,.16,.05,.24,.17,0,0,0,0,0,0,.07,.07,.14,.14,.2,.22,0,0,0,0,0,0Z"/><path class="cls-9" d="M8,29.84s.02-.03,.03-.04h0s0,0,0,0c.06-.08,.13-.15,.2-.21h0s0,0,0,0c.07-.06,.16-.12,.24-.16,.02-.06,.15-.16,.27-.11,.16-.04,.33-.03,.5,.02,0,0,0,0,0,0,0,0,0,0,0,0,.05,.01,.1,.03,.15,.05,.02,0,.05,.02,.09,.04,.19,0,.2,.13,.2,.14,.04,.03,.07,.07,.1,.12,.07,.07,.14,.14,.09,.21,.02,.12-.02,.24-.15,.33-.06,.06-.12,.07-.17,.08-.14,.05-.29,.1-.38,.23-.07,.12-.04,.2-.17,.29-.03,.06-.07,.12-.11,.18-.02,.03-.04,.06-.09,.08,.04,.03-.18,.17-.3,.12,0,0,0,0,0,0-.11,.02-.22,0-.32-.03-.17-.01-.22-.11-.3-.19-.03,.02-.03,0-.04-.04-.09-.12-.11-.26-.1-.41h0c-.02-.21,.03-.24,.05-.24,0,0,0-.01,0-.02-.03-.13,.03-.11,.06-.18,0-.01,.01-.03,.02-.04-.04-.08,.07-.16,.12-.21Z"/><path class="cls-9" d="M10.85,29.39c.13,0,.26,.02,.38,.07,.11,.01,.2,.08,.24,.16h0s.05,.05,.08,.08c.05,.03,.1,.05,.1,.12t0,0c.07,.02,.07,.06,.08,.11,.03,.04,.05,.07,.08,.11,.08-.02,.1,.11,.15,.19,0,0,.02,.02,.02,.03,.07,.07,.14,.13,.21,.18,.06,.02,.12,.05,.13,.1,.1,.09,.18,.19,.17,.38,0,.29-.25,.54-.49,.67-.25,.12-.56,.09-.76-.11-.02-.02-.03-.03-.04-.05-.06-.09-.09-.2-.11-.32h0c-.03-.09-.04-.16-.05-.21-.02-.06-.04-.12-.08-.17-.05-.06-.11-.11-.17-.15-.06-.03-.12-.06-.18-.1h0c-.06,0-.12-.05-.18-.1-.06-.04-.11-.09-.16-.15-.29-.24-.18-.25-.06-.39,.02-.06,.05-.12,.1-.18,.04-.08,.08-.15,.16-.14,.12-.09,.24-.11,.37-.11,0,0,0,0,0,0Z"/><path class="cls-9" d="M2.65,29.67c.02-.08,.05-.17,.08-.24,0,0,0-.02,.01-.03,0,0,0,0,0,0,.03-.09,.07-.17,.11-.25,.06-.12,.13-.23,.21-.33,0-.04,.04-.07,.08-.1,.08-.09,.16-.18,.24-.26,.04-.05,.08-.1,.15-.13,.04-.03,.08-.06,.11-.08,.08-.05,.17-.1,.26-.14,0,0,.01,0,.02,0,0,0,0,0,.01,0,.02,0,.05-.01,.07-.02,.04,0,.09-.01,.13-.01,.12,0,.23,.05,.29,.13,.03,.03,.05,.06,.06,.14,0,.02,0,.04,0,.06,.02,.17,.02,.23-.09,.35-.05,.13-.11,.26-.16,.4-.03,.08-.05,.17-.06,.25h0s0,0,0,0c0,.04-.01,.08-.02,.12,0,.05,.01,.09-.01,.14,.04,.01,0,.11-.01,.18,0,.03,0,.05,0,.08h0c0,.08-.02,.16-.03,.24,0,.01,0,.02,0,.02,0,.02,0,.03-.01,.05-.02,.11-.06,.23-.11,.34-.04,.13-.02,.28-.21,.35-.06,.06-.12,.12-.18,.16,0,0,0,0,0,0,0,0,0,0,0,0-.06,.04-.13,.07-.2,.09,0,0,0,0,0,0,0,0,0,0,0,0-.11,.03-.23,.03-.34,0-.03,0-.05-.01-.07-.03,0,0,0,0,0,0-.06-.03-.12-.07-.17-.12,0,0,0,0,0,0-.1,.07-.22-.14-.14-.21-.02-.05-.04-.09-.06-.14-.01-.02-.02-.05-.03-.09,0-.02,0-.04-.01-.06,0-.01,0-.03,0-.06-.01-.07-.02-.14-.02-.21,0,0,0,0,0,0,0,0,0,0,0,0,0-.09,0-.18,.01-.27,0,0,0-.01,0-.02-.06-.2-.03-.15,.06-.29,0,0,0,0,0,0Z"/><path class="cls-9" d="M7.05,27.23s.07,.04,.1,.06c.08,.04,.15,.07,.19,.15,.09,.04,.15,.15,.2,.27,0,0,0,0,0,0,0,0,0,0,0,.02,.04,.1,.07,.2,.07,.32,.05,0,.01,.22-.04,.22,0,0,0,0,0,0,0,.01,0,.03-.01,.04-.02,.06-.05,.11-.09,.17h0c-.04,.07-.08,.13-.12,.2,0,.02,0,.02,0,0-.02,.04-.04,.08-.06,.11,0,.03-.02,.06-.04,.09-.03,.08-.04,.17-.06,.25h0c-.01,.24-.03,.2-.04,.21,0,.02,0,.03-.02,.05-.05,.25-.06,.29-.18,.27-.01,.18-.15,.2-.34,.2-.11,.03-.22,.03-.33,0h0c-.21-.05-.21-.06-.28-.14,0,0-.02-.02-.03-.03-.03-.04-.07-.08-.09-.12,0-.01-.02-.03-.02-.04-.06-.12-.06-.26-.02-.39,.01-.08,.02-.17,0-.25-.05-.08-.03-.15-.08-.24-.02,0-.04-.04-.06-.07-.05-.05-.12-.1-.2-.13h0s0,0,0,0c-.1-.04-.22-.06-.32-.06-.02,0-.05,0-.08,0-.14,0-.19-.02-.25-.07-.22-.11-.27-.13-.23-.23-.04-.12,0-.27,.04-.39,.02-.14,.1-.21,.24-.34,.08-.09,.22-.18,.36-.23,.09-.04,.19-.07,.3-.09h0c.11-.02,.23-.03,.36-.04,.25,0,.52,.03,.77,.11,.12,.04,.24,.08,.35,.14Z"/><path class="cls-9" d="M15.23,29.2s0,0,0,0c.04,.02,.15,.04,.22,.13,.13,.08,.13,.11,.15,.23,0,.04,0,.08,0,.12,0,.03,0,.07-.03,.14,.02,.02,0,.05-.05,.1-.03,.05-.07,.09-.11,.13,0,0,0,0,0,0h0c-.05,.05-.11,.1-.17,.13-.02,.02-.04,.03-.05,.02-.04,.09-.21,.09-.35,.04,0,0,0,0,0,0-.03,0-.05,0-.08-.01-.1-.01-.18-.02-.26-.07-.08-.03-.16-.07-.23-.11-.04-.01-.07-.03-.12-.07-.11-.06-.21-.08-.32-.09,0,0-.02,0-.03,0,0,0,0,0,0,0-.07,0-.21,.02-.37,0-.14,.09-.15,.09-.31-.07-.03-.01-.05-.03-.07-.04-.06-.02-.12-.02-.16-.13,0,0,0,0,0,0-.11-.13-.13-.16-.13-.25-.04-.14-.05-.24-.01-.31,0,0,0-.01,0-.02,.02-.09,.05-.17,.09-.26-.07-.13,.09-.18,.15-.23,0,0,.01-.02,.02-.02,.05-.07,.12-.13,.19-.18,0,0,0,0,0,0h0c.07-.06,.15-.1,.23-.14,.08-.1,.11-.07,.25-.08,.09-.01,.18-.02,.26,0,.02,0,.03,0,.05,.01,.06,.02,.11,.04,.15,.07,.01,0,.02,.02,.03,.03,0,0,.01,.01,.02,.02,.05,.05,.1,.11,.14,.18,.04,.05,.09,.16,.13,.24,0,0,0,.01,0,.02,.04,.07,.08,.14,.13,.21,.02,0,.04,.02,.05,.05,.04,.04,.08,.06,.13,.08,.04,0,.18,.03,.21,.08,.04,.02,.08,.03,.13,.05,.04,0,.08,0,.11,.05Z"/><path class="cls-9" d="M9.23,23.48c-.04,.1-.09,.12-.15,.14-.03,.02-.13,.02-.25,.02-.08,.08-.18,.04-.22,0-.03,0-.04,0-.05,0-.06,0-.11-.03-.17-.05-.1,0-.18-.1-.21-.14-.06,.06-.21-.16-.17-.2,0,0,0,0,0,0-.05,0-.19-.04-.16-.21h0c-.16,.05-.17-.09-.16-.19-.07-.01-.11-.08-.2-.19-.08-.08-.14-.16-.19-.25-.07-.1-.08-.1-.05-.23-.01-.04,0-.07,.03-.1,.03-.06,.08-.11,.14-.15,0-.05,.26-.15,.3-.09,0,0,.32-.12,.29,.03,.13-.05,.19,.02,.3,.1,0,0,0,0,0,0,.09,.04,.19,.09,.28,.15,.1-.02,.18,.11,.23,.17,.01,0,.02,.02,.03,.03,0,0,0,0,0,0,.1,.05,.12,.09,.15,.15,.02,.02,.04,.05,.07,.07,0,0,0,0,0,0,.02,0,.04,.03,.05,.07,.04,.06,.08,.12,.12,.18,.07,.03,.06,.07,.07,.13,.03,.08,.06,.17,.07,.25,.02,.05,.05,.1,0,.15,0,.08-.1,.18-.12,.19Z"/><path class="cls-9" d="M9.38,27.05s.1,0,.15,0c.13-.08,.19-.07,.32-.06,.17-.11,.14-.1,.26-.07,.1,0,.21,.03,.3,.07,.06-.01,.09,.02,.11,.07,.04,.04,.08,.08,.1,.13,0,0,0,0,0,0,.09,.05,.06,.19,.03,.27,0,.03,0,.05-.02,.08,0,.08,0,.18-.08,.2-.05,.09-.11,.17-.17,.23-.02,.02-.03,.03-.05,.04,0,0,0,0-.01,.01-.01,.01-.03,.02-.04,.03,0,0,0,0-.01,.01-.02,.01-.03,.02-.05,.04,0,0,0,0,0,0-.02,.01-.04,.02-.05,.03,0,0,0,0,0,0,0,0,0,0,0,0-.06,.03-.12,.05-.18,.07-.02,0-.04,.01-.07,.02-.09,.07-.14,.03-.22,.03-.02,0-.04,0-.06,0-.1,.02-.07,.02-.29-.02,0,0,0,0,0,0-.09-.01-.19-.04-.28-.06,0,0,0,0,0,0,0,0,0,0,0,0-.09-.03-.18-.06-.26-.09-.07-.03-.13-.06-.2-.1-.02,0-.04-.01-.05-.03,0,0,0,0,0,0-.02-.01-.05-.03-.07-.04-.14-.07-.2-.04-.14-.1,0,0,0,0,0,0-.05-.03-.09-.07-.13-.11-.06-.03-.06,.03-.06-.06,0,0,0,0,0,0-.12-.03-.09-.06-.11-.12-.02-.02-.04-.05-.06-.07,0,0,0,0,0,0-.03-.02-.05-.05-.06-.09-.03-.04-.06-.09-.09-.13,0,0,0,0,0,0-.12-.1-.11-.14-.12-.24-.04-.09-.06-.18-.08-.28,0,0,0,0,0,0,0,0,0,0,0,0-.02-.1-.02-.21-.02-.31,0,0,0,0,0,0-.01-.1-.05-.21,.03-.33-.02-.07-.01-.17,.08-.33,0,0,0,0,0,0,.04-.11,.08-.21,.13-.3,.05-.12,.06-.16,.18-.27,.03-.05,.12-.14,.22-.21,.06-.11,.09-.09,.26-.13,.1-.07,.23-.07,.3-.04,.1-.07,.21,.01,.28,.05,.02,0,.04,.01,.05,.02,.08-.08,.11,.03,.2,.11,0,0,0,0,.01,.01,.05,.04,.1,.09,.15,.15,0,0,0,0,0,0,0,0,0,0,0,0,.03,.03,.05,.07,.07,.11,.03,.03,.06,.06,.04,.09,.05,.07,.15,.16,.06,.22,.06-.01,.04,.16,0,.22,.09,.08,0,.14-.06,.22-.01,.02-.02,.04-.03,.06-.05,.11-.02,.18-.2,.26h0c-.09,.1-.18,.2-.25,.31-.07,.11-.01,.21-.04,.25,.05,.02,0,.08,.18,.18-.02-.03,.04,0,.11,.03Z"/><path class="cls-9" d="M13.29,27.78s-.05,.04-.08,.06c-.02,.05-.2,.11-.26,.07-.04,0-.09,0-.13-.02-.04,0-.07,0-.13-.03,0,0,0,0,0,0-.12-.01-.16-.04-.21-.05-.02,0-.04,0-.05,0-.14,.05-.22,.01-.27,.02-.13,.05-.25,.11-.39,.13-.15,.03-.26,.03-.31-.08-.09-.01-.24-.18-.22-.24-.04,0-.06-.12-.06-.21,0-.02,0-.05,0-.07,0-.02,0-.03,0-.04,0,0,0,0,0,0,0-.08,.03-.29,.13-.29,.03-.03,.06-.05,.09-.07,.03-.03,.07-.07,.16-.11,.02-.05,.14-.16,.26-.16,.04-.03,.07-.08,.1-.13,0-.03,.01-.05,.03-.06,0,0,0,0,0,0,.06-.13,.12-.27,.2-.37,0-.01,.02-.02,.03-.04,.05-.05,.12-.08,.2-.09,.01,0,.03,0,.05,0,.07,0,.2-.01,.24,.07,.03,.01,.05,.03,.06,.04,.1,.07,.19,.15,.26,.24,.03,.03,.05,.06,.08,.1,.08,.09,.16,.16,.15,.26,.04,.08,.07,.16,.1,.24,.02,.05,.03,.1,.04,.15,.04,.03,.06,.06,.02,.1,0,.03,.01,.07,.02,.11,.03,.04,.07,.09,0,.13,.04,.03,.01,.08-.01,.13,0,.03-.01,.07-.03,.1,.03,.04,.02,.04-.07,.1Z"/><path class="cls-3" d="M-.99,24.12c-.07-.13-.11-.1-.28-.14-.04,.1-.12,.09-.3-.07,.02,.12-.1-.08-.28-.03,0,.03-.2-.16-.25-.11,.21-.11-.13-.26-.09-.28,0-.07,.07-.11-.12-.29-.17,0-.12-.17-.26-.26-.07-.04-.22-.11-.19-.26-.08-.04-.09-.32-.07-.29-.04-.11,.14-.16,.12-.36,.08-.09,.34-.37,.15-.21-.08-.17,.12-.14,.18-.19,.15-.27,.28-.01,.21-.17,.05-.21,.12-.09,.22-.14,.04-.04,.01-.12,.23-.1,.27-.1,.29-.1,.25-.11,.25,.07,.04-.07,.28-.07-.05-.08,.19-.21,.25-.03,.12-.04,.02,.03,.26,.04,.08,.03,.16,.07,.25,.13,.1,.06,.13,.12,.2,.23,.04,.08-.03,.21,.18,.25,.06-.04,.04,.05,.26,.16,.08,0,.25,.14,.28,.12,.29,.13,.34,.17,.43,.21,.1,.12,.2,.17,.29,.36,.1,.19,.07,.15,0,.47-.13,.3-.1,.61-.1,.47-.16,.1-.14,.26-.15,.38-.09-.17-.21,.51-.25,.32-.12,.23-.28-.04-.4,.02-.05,0-.31,0-.37,.19-.21,.16-.14,.18-.35,.13-.11-.13-.22-.09-.29-.16-.13-.09-.25-.11-.28-.19Z"/><path class="cls-9" d="M-2.71,23.83c-.07-.11-.13-.21,0-.22,.02-.04,.03-.08,.05-.11,0,0,0-.01,.01-.02,.02-.03,.05-.07,.09-.09,0,0,.02-.02,.03-.02,.22-.15,.47-.15,.73-.15,.05-.11,.19,0,.31,0,.03,0,.06,0,.09,0,.07-.02,.17-.06,.23,0,0,0,0,0,0,0,.08,0,.15,.02,.23,.03,.03,0,.05,0,.08,.02H-.84c.1,.03,.19,.08,.26,.15,.03,.02,.05,.04,.07,.06,.05,.05,.09,.1,.13,.15,0,0,0,0,0,0,.17,0,.12,.17,.16,.24,.09,.17,.16,.37,.2,.57,.04,.15,.09,.24,.01,.39,0,.06,0,.09-.03,.12-.03,.1-.09,.17-.17,.22H-.19c-.11,.13-.29,.07-.39,0-.07-.04-.13-.08-.18-.13-.03,0-.04-.01-.03-.03-.11,0-.19-.15-.17-.19-.06-.07-.11-.13-.17-.19h0s-.11-.09-.16-.13c-.01,0-.03-.02-.04-.03-.01,0-.03-.02-.04-.02-.18-.08-.38-.02-.41-.11h0c-.1,.07-.4-.03-.47-.09-.17-.05-.37-.2-.43-.39Z"/><path class="cls-9" d="M1.6,23.53s0,0,0,0c.03,.18,0,.16-.1,.37,.06,.18-.06,.2-.11,.29,0,0,0,.02-.01,.02-.07,.15-.14,.28-.32,.36-.11,.07-.27,.16-.47,.04-.03,0-.05-.02-.07-.03-.07-.02-.15-.06-.16-.15-.03-.04-.04-.09-.05-.14-.03-.04-.05-.08-.01-.11-.03-.05,0-.19,.03-.25,0-.05,.02-.09,.03-.14-.03-.04-.04-.09,.02-.15-.01-.03,.03-.22,.03-.32-.03-.14-.08-.27-.13-.4-.09-.19-.15-.38-.11-.34H.18c-.02-.12-.01-.24,.04-.37,.05-.13,.15-.22,.26-.27,.04-.02,.07-.03,.11-.05,.15-.07,.31-.09,.5,0,.19,.05,.33,.13,.35,.32,.04,.07,.07,.14,.1,.22,0,.02,.01,.03,.01,.03,.12-.05,.05,.02,.05,.27,.03,.12,.04,.24,.03,.37,0,0,0,0,0,0,0,0,0,0,0,0,0,.09-.01,.17-.02,.26,.03,.06,.07,.1-.02,.12Z"/><path class="cls-9" d="M-2.83,22.12s0,0,0,0c0-.02,0-.04,0-.06,.02-.13,.07-.26,.13-.38,.01-.04,.03-.07,.06-.09,.03-.05,.07-.09,.11-.14,.05-.07,.11-.13,.24-.21,.07-.15,.18-.14,.28-.16,.03-.02,.07-.03,.1-.05,0,0,0,0,0,0,0,0,0,0,0,0,.13-.06,.27-.12,.4-.18,.14-.07,.3-.12,.46-.13,.11-.03,.2-.02,.34,.03,.04,.01,.08,.03,.13,.05,.15,.07,.31,.17,.43,.3,0,0,0,0,0,0,.08,.08,.14,.17,.19,.27,.05,.06,.11,.11,.06,.17,.02,.07,.02,.15,.02,.24,0,.05,0,.07,0,.06,0,0,0,0,0,0,0,.03,0,.05,0,.07-.03,.18-.1,.35-.21,.48-.02,.06-.13,.13-.21,.17,0,0,0,0,0,0,0,0-.01,0-.02,.01-.01,0-.02,0-.03,.01-.09,.04-.18,.05-.27,.04-.24,.05-.16,.03-.26-.07-.02,0-.03-.02-.05-.02-.06-.02-.15-.04-.24-.1,0,0,0,0,0,0-.18,0-.19,.02-.31-.03-.28,.05-.61,.43-.91,.44,0,0-.02,0-.02,0-.1,0-.2-.05-.29-.17-.06-.04-.07-.09-.09-.16-.01-.03-.03-.07-.03-.11,0-.03-.14-.24-.02-.28Z"/><path class="cls-3" d="M-1.32,18.67c-.06-.11-.09-.09-.24-.12-.04,.09-.1,.07-.26-.06,.02,.1-.08-.07-.24-.03,0,.03-.17-.14-.21-.1,.18-.1-.12-.22-.07-.24,0-.06,.06-.09-.1-.25-.15,0-.1-.15-.22-.22-.06-.03-.19-.1-.17-.23-.07-.04-.08-.27-.06-.25-.04-.09,.12-.14,.1-.31,.07-.08,.29-.32,.13-.18-.07-.15,.1-.12,.15-.17,.13-.24,.24-.01,.18-.15,.04-.18,.11-.08,.19-.12,.04-.04,.01-.11,.2-.09,.23-.09,.25-.09,.21-.09,.22,.06,.04-.06,.24-.06-.05-.07,.16-.18,.22-.03,.11-.03,.02,.03,.22,.04,.07,.02,.14,.06,.22,.11,.08,.05,.11,.1,.17,.2,.03,.07-.03,.18,.16,.22,.05-.03,.03,.04,.22,.14,.07,0,.21,.12,.24,.1,.25,.11,.29,.15,.37,.18,.08,.1,.17,.15,.25,.31,.09,.16,.06,.13,0,.4-.11,.26-.08,.53-.09,.4-.14,.08-.12,.22-.13,.33-.08-.15-.18,.44-.22,.28-.11,.2-.24-.03-.35,.01-.05,0-.27,0-.32,.16-.18,.14-.12,.16-.3,.11-.1-.11-.19-.07-.25-.14-.11-.08-.21-.09-.24-.16Z"/><path class="cls-9" d="M.91,18.15s0,0,0,0c.02,.16,0,.14-.08,.32,.05,.16-.05,.17-.1,.25,0,0,0,.01,0,.02-.06,.13-.12,.24-.27,.31-.1,.06-.23,.13-.4,.04-.02,0-.04-.02-.06-.03-.06-.02-.13-.05-.14-.13-.02-.04-.04-.08-.04-.12-.02-.04-.04-.07,0-.09-.02-.04,0-.17,.03-.22,0-.04,.02-.08,.03-.12-.03-.04-.04-.08,.02-.13-.01-.02,.03-.19,.03-.28-.02-.12-.07-.23-.12-.34-.08-.17-.13-.33-.09-.3,0,0,0,0,0,0-.02-.1-.01-.21,.03-.32,.04-.11,.13-.19,.23-.24,.03-.02,.06-.03,.1-.04,.13-.06,.26-.07,.43,0,.16,.05,.28,.11,.3,.28,.03,.06,.06,.12,.09,.19,0,.01,.01,.02,.01,.03,.1-.04,.04,.02,.05,.23,.02,.1,.03,.21,.03,.32,0,0,0,0,0,0,0,0,0,0,0,0,0,.07,0,.15-.02,.22,.03,.06,.06,.09-.02,.11Z"/><path class="cls-9" d="M.2,28.58s0,0,0,0c.22,.04,.19,.12,.29,.25,.11,.08,.22,.1,.33,.1,.11-.06,.22-.03,.35-.03,.06,0,.12,0,.18,0,.07-.02,.12-.03,.2,.05h0c.08,0,.12,.05,.15,.1,.05,.04,.08,.1,.11,.17,.06,.06,.07,.17,.02,.33,0,0,0,0,0,0,0,.13-.05,.19-.08,.25-.01,.02-.03,.05-.04,.07,.02,.03-.05,.26-.19,.21,0,0,0,0,0,0-.01,.07-.09,.08-.24,.16,0,0,0,0,0,0,0,0-.02,0-.03,.01-.07,.04-.12,.12-.24,.11-.09,.04-.18,.07-.26,.1-.06,.05-.16,.06-.26,.08-.08,.06-.23,.06-.27,.04-.09,.05-.11,.02-.15,0-.04,0-.08,0-.11,0H-.06c-.05,.03-.11,0-.16-.03-.03,0-.06-.02-.09-.03,0,0,0,0,0,0-.03,0-.06-.02-.09-.04-.04-.02-.09-.04-.13-.07,0,0,0,0,0,0,0,0,0,0,0,0-.07-.05-.15-.11-.21-.19-.08-.09-.13-.19-.17-.3-.03-.08-.05-.18-.06-.28-.02-.06-.02-.09,0-.15,0-.05,0-.1,0-.15H-.98c-.02-.1,0-.13,.02-.16,0-.05,.02-.09,.03-.13H-.92c.02-.1,.05-.21,.12-.25,.07-.11,.14-.29,.28-.25,.04-.03,.08-.04,.12-.05,.08-.03,.16-.04,.24-.04,.09,0,.16,.02,.22,.05,.05,.01,.09,.04,.13,.08Z"/><path class="cls-9" d="M5.27,25.36c.11-.04,.22-.1,.33-.15,.03-.02,.05-.03,.07-.03,.07-.03,.15-.06,.22-.08,0,0,0,0,0,0,.07-.12,.23-.03,.31-.02,.1,.01,.16,.08,.21,.16,.04,0,.05,.09,.06,.18,0,.03,.01,.06,.01,.08,.01,.11,0,.23-.08,.32,0,0-.01,.02-.02,.03-.06,.09-.13,.17-.19,.24-.03,.04-.05,.06-.08,.07-.04,.04-.09,.07-.13,.1,0,0,0,0,0,0-.12,.14-.11,.11-.24,.13,0,0,0,0,0,0-.05,.02-.11,.04-.17,.06-.04,.02-.08,.03-.09,.03h0c-.09,.02-.18,.04-.27,.05,0,0,0,0,0,0-.04,.03-.07,.02-.11,0-.06,0-.11,0-.17,0,0,0,0,0,0,0,0,0,0,0,0,0-.09,0-.18,0-.27-.02-.08-.01-.16-.03-.24-.05,0,0,0,0,0,0,0,0,0,0,0,0-.08-.02-.15-.05-.23-.08,0,0,0,0,0,0-.02,.01-.03,0-.05-.02-.13-.06-.26-.13-.38-.22,0,0,0,0,0,0-.19-.13-.18,0-.2-.15,0,0,0,0,0,0-.06-.05-.12-.1-.18-.16,0,0,0,0,0,0-.05,0-.15-.03-.15-.15-.16-.1-.19-.05-.14-.18,0,0,0,0,0,0-.04-.06-.08-.13-.11-.2,0,0,0,0,0,0-.04,.02-.03-.02-.03-.07-.02-.04-.03-.09-.05-.13,0,0,0,0,0,0-.1-.18-.11-.16-.04-.22,0,0,0,0,0,0,0-.01,0-.03,0-.04-.03-.06-.1-.17,0-.19,0-.08,.03-.15,.06-.22,0-.04,0-.06,.03-.06,.03-.05,.06-.1,.1-.14,.02-.03,.05-.06,.07-.06h0s.02-.01,.03-.02c0,0,.02-.01,.03-.02,.09-.05,.2-.08,.31-.08,.05,0,.1,0,.16,.02,.02,0,.04,.01,.06,.02,0,0,.01,0,.02,0,.01,0,.03,.01,.04,.02,0,0,.01,0,.02,0,.02,0,.03,.02,.05,.03,0,0,0,0,0,0,.02,0,.03,.02,.05,.03,0,0,0,0,0,0,.06,.05,.15,.12,.16,.18,0,0,0,0,0,0,.05,.07,.08,.14,.12,.22h0c.04,.08,.07,.16,.1,.24,.06,.04,.06,.1,.06,.15,.05,.11,.1,.21,.16,.29,.05,.05,.12,.1,.16,.13,.01,0,.03,.01,.05,.02,.11-.16,.19,.03,.26,.03,.07-.11,.27-.07,.33-.07,0,0,.01,0,.02,0h0Z"/><path class="cls-3" d="M16.25,21.86c-.07-.01-.17-.02-.2-.02-.16,.07-.15-.11-.25,0,0,0-.07,0-.26,.03,.05,0-.27-.05-.25,.04,.02,.09-.1,.02-.27,.09-.06-.04-.2,.13-.18,.14-.02,.08-.05,.29-.09,.4-.01,.11,.05,.2,.06,.23,.03,.08,.06,.16,.1,.24,.05,.09,.11,.17,.16,.27,.03,.22,.07,.21,.18,.23,.1-.07,.2,.25,.23,.22,.08,.08,.14,.09,.25,.21,.07-.04,.18,.13,.27,.16,.2,.13,.15,.24,.26,.15v-2.42Z"/><path class="cls-9" d="M16.25,21.9c-.04,.16-.05,.33,0,.32v-.32Z"/><path class="cls-9" d="M14.19,21.98c-.1-.17,0-.12,.02-.26-.02,0,.05-.18,.07-.22-.07,0,.16-.23,.18-.26,0,0,0,0,0,0,.06-.07,.13-.13,.21-.18,0,0,0,0,0,0,0-.06,.05-.06,.11-.06,.04-.02,.08-.04,.13-.05,0,0,0,0,0,0,0-.03,.19-.12,.27-.03,0,0,0,0,0,0,.09,0,.18,.02,.27,.06,.12,.02,.19,.05,.26,.15,.08,.06,.17,.17,.23,.29,0,0,0,0,0,0,0,0,0,0,0,0,.06,.12,.09,.24,.04,.35,0,.02,0,.04-.03,.06-.03,.05-.07,.09-.12,.11-.06,.06-.19,.06-.25,.07-.14,.07-.17,.2-.21,.34,.04,0,0,.04-.01,.07,0,0,0,.02,0,.02,.05,.11,.04,.15-.14,.25-.07,.14-.14,.1-.23,.09-.03,0-.06,0-.08,0-.02,0-.04,0-.05,0-.02,0-.06,.01-.13-.02-.09-.02-.16-.06-.22-.11,0,0,0,0,0,0,0,0,0,0,0,0-.06-.05-.12-.11-.16-.18,0,0,0,0,0,0-.12-.09-.1-.19-.1-.22,0,0,0,0,0,0-.05-.06-.17-.18-.04-.25Z"/><path class="cls-9" d="M15.57,23.17s.03,0,0,0h0Z"/><path class="cls-9" d="M16.25,23.68s-.08-.04-.08,0c-.11-.1-.19-.21-.3-.3-.08-.15-.17-.16-.3-.2,0,0,0,0,0,0,0,0-.02,0-.03,0-.11-.11-.25-.09-.39-.01,0,0,0,0,0,0-.01,0-.05-.06-.14,.05-.02,0-.04,.02-.06,.03-.13,.08-.24,.18-.19,.24-.02,.05-.04,.1-.05,.15-.04,.06-.07,.11-.02,.18-.17,.06-.03,.24,.06,.3,0,0,0,0,0,0,.04,.1,.1,.19,.17,.27,0,0,0,0,0,0,0,0,.01,0,.02,.01,0,.01,.02,.02,.03,.03,.05,.07,0,.11,.19,.17,.07,.07,.11,.09,.15,.1,.04,.03,.09,.05,.13,.07,0,0,0,0,0,0,0,0,0,0,0,0,.1,.05,.2,.09,.3,.11,.08,.02,.16,.04,.26,.06,0,0,0,0,0,0,0,0,0,0,0,0,.08,.01,.17,.03,.26,.03,0,0,0,0,0,0v-1.29Z"/><path class="cls-9" d="M2.2,25.76c.09,0,.19,.03,.24,.08,.07,.03,.14,.06,.2,.1,0,0,0,0,0,0,.04,0,.06,.02,.08,.05,.04,.03,.08,.06,.12,.09,0,0,0,0,0,0,.11,.06,.2,.13,.18,.18,.03,.03,.05,.06,.08,.1,.03,.03,.06,.07,.08,.11,0,0,0,0,0,0,.05,.07,.09,.14,.12,.21,0,0,0,0,.02,.01,.07,.17,.21,.2,.09,.24,0,0,.01,.02,.01,.05,.03,.1,.05,.21,.06,.31,0,0,0,0,0,0,.01,.09,0,.14-.01,.19,0,.05-.02,.1-.03,.15-.03,.12-.09,.22-.18,.32-.07,.11-.18,.16-.3,.22-.27,.13-.61,.08-.84-.1-.01,0-.03-.02-.05-.04,0,0,0,0,0,0-.07-.07-.13-.15-.17-.24,0,0,0-.01,0-.02-.02-.05-.03-.11-.04-.17-.01-.06-.03-.12-.02-.2h0c-.06-.1-.02-.23-.04-.34,0-.01,0-.02,0-.03-.02-.06-.05-.11-.08-.15-.03-.02-.06-.03-.06-.04-.07-.03-.15-.04-.24,0,0,0,0,0,0,0-.07,.04-.14,.09-.2,.16-.07,.08-.13,.17-.17,.26,.03,.06-.1,.23-.13,.22-.02,.06-.08,.09-.14,.11-.03,.02-.07,.04-.11,.06-.08,.04-.16,.04-.22,.03-.02,0-.03,0-.05-.01-.08-.03-.15-.09-.2-.16,0,0,0,0,0,0-.05-.07-.1-.16-.13-.25,0,0,0,0,0,0-.04-.05-.04-.1-.04-.16,0-.03,0-.07,0-.1-.04-.1,0-.14,.02-.19,0-.02,.01-.05,.02-.07,0,0,0,0,0,0,0-.11,.06-.17,.11-.24,.02-.04,.04-.06,.05-.08,.08-.12,.19-.22,.31-.31,0,0,0,0,0,0,0,0,0,0,0,0,.02-.01,.04-.03,.05-.04,.04-.05,.08-.13,.17-.11,0,0,0,0,0,0,.03-.02,.05-.03,.08-.04,.05-.03,.06-.06,.15-.07,.08-.03,.16-.06,.24-.08,0,0,0,0,0,0,0,0,0,0,0,0,.08-.02,.16-.04,.24-.05,0,0,0,0,0,0,.08-.06,.09-.09,.25-.02,0,0,0,0,0,0,.08,0,.16,0,.24,.01,0,0,0,0,0,0,0,0,0,0,0,0,.08,0,.16,.02,.24,.04,0,0,0,0,0,0Z"/></g></g></g></g><circle class="cls-5" cx="15" cy="15" r="12.5"/><path class="cls-6" d="M15,2.5c6.9,0,12.5,5.6,12.5,12.5s-5.6,12.5-12.5,12.5S2.5,21.9,2.5,15,8.1,2.5,15,2.5m0-1.5C7.28,1,1,7.28,1,15s6.28,14,14,14,14-6.28,14-14S22.72,1,15,1h0Z"/></g></g></svg>