<svg xmlns="http://www.w3.org/2000/svg" viewBox="0 0 30 30"><defs><style>.cls-1{isolation:isolate;}.cls-2{fill:#d10910;}.cls-3,.cls-4,.cls-5,.cls-6,.cls-7,.cls-8{fill:#fff;}.cls-10,.cls-11,.cls-20,.cls-4,.cls-6{mix-blend-mode:multiply;}.cls-5{mix-blend-mode:overlay;}.cls-11,.cls-16,.cls-20,.cls-5,.cls-6,.cls-8{opacity:0.5;}.cls-13,.cls-23,.cls-7{opacity:0.3;}.cls-11,.cls-9{fill:#639930;}.cls-10{fill:#876f29;}.cls-12{fill:#e31d19;}.cls-13,.cls-16{fill:#e84861;}.cls-14{fill:#b21917;}.cls-15{fill:#89181a;}.cls-17{fill:#ca1f1d;}.cls-18{fill:#a01a18;}.cls-19,.cls-20{fill:#6b3e18;}.cls-21{fill:#a96a24;}.cls-22{fill:#cf8637;}.cls-23{fill:#ee8096;}.cls-24{fill:#985923;}.cls-25{fill:#d1d1d1;}</style></defs><g class="cls-1"><g id="Livello_1" data-name="Livello 1"><circle class="cls-2" cx="15" cy="15" r="12.5"/><path class="cls-3" d="M16.32,10.81a3.38,3.38,0,0,1-1-.14A.49.49,0,0,1,15,10.4a3.19,3.19,0,0,1,.09-2.84c.61-1,1.89-1.45,3.79-1.45.2,0,.41,0,.64,0a.5.5,0,0,1,.47.42c0,.11.36,2.7-1.67,3.78A4.55,4.55,0,0,1,16.32,10.81Z"/><path class="cls-3" d="M15.47,10.19s-1.78-3.86,4-3.56c0,0,.34,2.33-1.41,3.25A3.75,3.75,0,0,1,15.47,10.19Z"/><path class="cls-4" d="M15.32,10.75a.5.5,0,0,1-.38-.35l0-.17a.5.5,0,0,1,0-.38,5.84,5.84,0,0,1,.5-.76L15.21,8a.5.5,0,0,1,.37-.58l.13,0a.54.54,0,0,1,.4.2c0-.21-.07-.39-.07-.39a.49.49,0,0,1,.37-.57h.12A.5.5,0,0,1,17,7l.14.44h0l-.06-.58a.49.49,0,0,1,.41-.54h.08a.5.5,0,0,1,.49.38l0,.13a10.65,10.65,0,0,1,1.13-.58.43.43,0,0,1,.19,0,.5.5,0,0,1,.21,1l-.19.1a.47.47,0,0,1,.24.4.5.5,0,0,1-.46.52l-.19,0a.47.47,0,0,1,.13.33c0,.3,0,.42-.45.48a.48.48,0,0,1,.07.24.5.5,0,0,1-.46.52l-2,.17c-.32.37-.51.62-.52.63a.5.5,0,0,1-.4.19Z"/><path class="cls-4" d="M19.2,7.67H17.94a7.5,7.5,0,0,1,1.5-1,11.44,11.44,0,0,0-1.64.91l-.2-.8.09.87a10,10,0,0,0-.8.61l-.36-1.12s.22,1.24.21,1.25a6.65,6.65,0,0,0-.65.65c-.09-.23-.38-1.13-.38-1.13L16,9.22a6.24,6.24,0,0,0-.59.86l.05.17s.26-.33.68-.8h0l2.21-.19h-2c.2-.22.43-.46.68-.7l1.73,0-1.59-.1c.22-.21.46-.43.71-.63Z"/><path class="cls-5" d="M15.37,10.51a.52.52,0,0,1-.44-.34,3,3,0,0,1,.23-2.69c.61-.88,1.82-1.34,3.58-1.37h0a.5.5,0,0,1,.11,1,4.09,4.09,0,0,0-2,1.18,3.12,3.12,0,0,0-.57.8,3.92,3.92,0,0,0-.27.86.51.51,0,0,1-.1.21.35.35,0,0,0-.05.08.51.51,0,0,1-.45.28Z"/><path class="cls-5" d="M15.4,10c0-.06.07-.11.1-.16a4.4,4.4,0,0,1,.32-1,4,4,0,0,1,.65-.93,4.66,4.66,0,0,1,2.18-1.3l.1,0C14.53,6.67,15.15,9.29,15.4,10Z"/><path class="cls-6" d="M16.32,10.81a4.55,4.55,0,0,1-.53,0,.5.5,0,0,1-.38-.27.52.52,0,0,1,0-.47c.07-.11.14-.23.22-.34a9.22,9.22,0,0,1,1.47-1.57,9,9,0,0,1,1.95-1.2l.29-.13a.58.58,0,0,1,.19,0,.47.47,0,0,1,.28.09.53.53,0,0,1,.22.43,3.46,3.46,0,0,1-1.7,3.05A4.55,4.55,0,0,1,16.32,10.81Z"/><path class="cls-6" d="M19.27,7.37A8.92,8.92,0,0,0,17.43,8.5,9.21,9.21,0,0,0,16.05,10a2.9,2.9,0,0,0-.19.29,3.82,3.82,0,0,0,2.24-.39,3,3,0,0,0,1.44-2.62Z"/><path class="cls-3" d="M15,11.63a.47.47,0,0,1-.43-.33l0-.11a.43.43,0,0,1,0-.25,4,4,0,0,1,.51-1.31.51.51,0,0,1,.4-.23h0a.53.53,0,0,1,.4.19l.11.15a.5.5,0,0,1,0,.63,2.59,2.59,0,0,0-.39.83l-.06.17a.51.51,0,0,1-.44.26Z"/><path class="cls-3" d="M15.07,11.13a3,3,0,0,1,.51-1.08l-.11-.15A3.58,3.58,0,0,0,15,11Z"/><path class="cls-4" d="M15,11.63a.47.47,0,0,1-.43-.33l0-.11a.43.43,0,0,1,0-.25,4,4,0,0,1,.51-1.31.51.51,0,0,1,.4-.23h0a.53.53,0,0,1,.4.19l.11.15a.5.5,0,0,1,0,.63,2.59,2.59,0,0,0-.39.83l-.06.17a.51.51,0,0,1-.44.26Z"/><path class="cls-4" d="M15.07,11.13a3,3,0,0,1,.51-1.08l-.11-.15A3.58,3.58,0,0,0,15,11Z"/><path class="cls-3" d="M17.62,23.89a4.36,4.36,0,0,1-1.32-.23l-.21-.08a3,3,0,0,0-.75-.21h0l-.28,0-.1-.5v.5l-.28,0h-.08a3.42,3.42,0,0,0-.68.21l-.19.07a4.26,4.26,0,0,1-1.34.24,2.17,2.17,0,0,1-1.32-.39,11.65,11.65,0,0,1-2.67-3.84C7.34,17.23,7.2,14.94,8,13.21a4.44,4.44,0,0,1,2.82-2.44l.65-.15h0a6.2,6.2,0,0,1,1.23-.13,3.59,3.59,0,0,1,1.09.15,3.22,3.22,0,0,0,1.06.17,8.19,8.19,0,0,0,1.34-.15l.26-.05a4.39,4.39,0,0,1,.78-.08h.14a6.27,6.27,0,0,1,1.75.24A4.44,4.44,0,0,1,22,13.21c.83,1.73.69,4-.36,6.45a11.65,11.65,0,0,1-2.67,3.84,2.17,2.17,0,0,1-1.32.39Z"/><path class="cls-3" d="M19,11.25A6.24,6.24,0,0,0,17.37,11a4.18,4.18,0,0,0-.8.07h0l-.25.05a5.07,5.07,0,0,1-2.64,0,4.53,4.53,0,0,0-2.08,0h0c-.2,0-.4.08-.6.13C8.49,12,6.93,15,8.85,19.46a11.36,11.36,0,0,0,2.5,3.64,2.72,2.72,0,0,0,2.22.08,4,4,0,0,1,1-.31h0l.34,0h.12l.34,0h0a4,4,0,0,1,1,.31,2.72,2.72,0,0,0,2.22-.08,11.36,11.36,0,0,0,2.5-3.64C23.08,15,21.51,12,19,11.25Z"/><path class="cls-7" d="M12.7,22.49l-.42,0a7.5,7.5,0,0,1-.78-.18l-.21-.07-.35-.2L10.85,22a6.26,6.26,0,0,1-.7-.8c-.25-.35-.48-.72-.74-1.17a10.37,10.37,0,0,1-.57-1.17,10.7,10.7,0,0,1-.61-2.35A8.63,8.63,0,0,1,8.18,15a.31.31,0,0,1,0-.1c.09-.37.18-.7.25-1l.07-.18a4.11,4.11,0,0,1,.38-.76,2.75,2.75,0,0,1,.32-.34,2.48,2.48,0,0,1,.36-.24.67.67,0,0,1,.18-.07h.12l.14,0,.27.08a7.67,7.67,0,0,1,.9.55l.26.17a3.56,3.56,0,0,0,.79.38,2.63,2.63,0,0,0,.67.17,7.91,7.91,0,0,0,1.41.11h.36a4.64,4.64,0,0,0,.93-.12c.14,0,.27-.08.4-.12s.25-.09.38-.12l.17,0h.05a.48.48,0,0,1,.26.07l.12.09a.65.65,0,0,1,.08.09,2.29,2.29,0,0,1,.17.28,1.57,1.57,0,0,1,.09.34,1.2,1.2,0,0,1,0,.32,4.7,4.7,0,0,1-.28.95l-.08.21A4.46,4.46,0,0,0,16.74,17a12.83,12.83,0,0,0,.09,1.4,6.92,6.92,0,0,1,.06.9.51.51,0,0,1,0,.13l0,.16s-.06.16-.08.2l-.1.16c-.08.14-.16.26-.24.38a5.52,5.52,0,0,1-.79.82,8.08,8.08,0,0,1-1.6,1,8.5,8.5,0,0,1-.93.34,3.21,3.21,0,0,1-.39,0Z"/><path class="cls-7" d="M16.35,19.47s0-.1,0-.15a5.92,5.92,0,0,0-.05-.84,12.1,12.1,0,0,1-.1-1.47,5,5,0,0,1,.26-1.53,6.07,6.07,0,0,0,.33-1,.61.61,0,0,0,0-.19,1.89,1.89,0,0,0,0-.23l-.09-.16-.06-.06,0,0h-.08c-.27.07-.53.18-.8.25a5.19,5.19,0,0,1-1,.13,9.73,9.73,0,0,1-1.87-.1,3.49,3.49,0,0,1-.77-.2,5.2,5.2,0,0,1-.89-.43,11.79,11.79,0,0,0-1.06-.67l-.22-.07H9.81l-.26.18a1.36,1.36,0,0,0-.24.24A4.4,4.4,0,0,0,9,13.8l-.05.13c-.08.35-.17.7-.26,1.05a8.44,8.44,0,0,0,.06,1.42,10.15,10.15,0,0,0,.57,2.23,11.45,11.45,0,0,0,.55,1.11,11.68,11.68,0,0,0,.7,1.12,5.65,5.65,0,0,0,.65.73,2,2,0,0,0,.28.16l.14.06c.24.06.48.12.71.16A3.32,3.32,0,0,0,13,22a6.15,6.15,0,0,0,.85-.31,7.21,7.21,0,0,0,1.49-.88,5.3,5.3,0,0,0,.7-.72c.08-.11.15-.23.22-.35l.11-.17A.19.19,0,0,1,16.35,19.47Z"/><path class="cls-3" d="M17.62,23.89a4.36,4.36,0,0,1-1.32-.23l-.21-.08a3,3,0,0,0-.75-.21h0l-.28,0-.1-.5v.5l-.28,0h-.08a3.42,3.42,0,0,0-.68.21l-.19.07a4.26,4.26,0,0,1-1.34.24,2.17,2.17,0,0,1-1.32-.39A5.55,5.55,0,0,1,10,22.38a.5.5,0,0,1-.06-.5.5.5,0,0,1,.41-.3l.16,0,.14,0a5.48,5.48,0,0,0,1.55.22,6.48,6.48,0,0,0,1.06-.1,4.7,4.7,0,0,0,.63-.13A3.62,3.62,0,0,0,15.14,21l.25-.2a1.77,1.77,0,0,0,.42-.46l.12-.18a2.16,2.16,0,0,0,.17-.34,2.92,2.92,0,0,0,.2-.66,5.83,5.83,0,0,0,.06-.72c0-.19,0-.37,0-.56l0-.31,0-.48a4.34,4.34,0,0,1,0-.72,5.61,5.61,0,0,1,.27-1.09,5.52,5.52,0,0,1,.56-1,2.45,2.45,0,0,1,.34-.37l.29-.23a3.58,3.58,0,0,0,.34-.33,2.53,2.53,0,0,0,.41-.59,3.43,3.43,0,0,0,.16-.45,2.86,2.86,0,0,0,.09-.51,2.67,2.67,0,0,0,0-.4.38.38,0,0,1,0-.15A.53.53,0,0,1,19,10.9a.48.48,0,0,1,.26-.07.45.45,0,0,1,.16,0A4.46,4.46,0,0,1,22,13.35a8,8,0,0,1-.43,6.31,11.65,11.65,0,0,1-2.67,3.84,2.17,2.17,0,0,1-1.32.39Z"/><path class="cls-3" d="M19.25,11.33h0a2.48,2.48,0,0,1,0,.47,6.17,6.17,0,0,1-.1.62A3.39,3.39,0,0,1,19,13a3,3,0,0,1-.49.72,4.27,4.27,0,0,1-.38.36l-.29.24a2.33,2.33,0,0,0-.26.28,5.87,5.87,0,0,0-.5.88,6.27,6.27,0,0,0-.25,1,4.85,4.85,0,0,0,0,.66c0,.14,0,.29,0,.44s0,.21,0,.31,0,.4,0,.6a6.83,6.83,0,0,1-.06.79,3.06,3.06,0,0,1-.24.78,2.86,2.86,0,0,1-.21.43l-.11.15a2,2,0,0,1-.52.59,3.11,3.11,0,0,1-.28.23,4.21,4.21,0,0,1-1.42.67c-.23.06-.46.1-.69.14a7.46,7.46,0,0,1-1.05.1,5.91,5.91,0,0,1-1.77-.24l-.11,0a5.07,5.07,0,0,0,.95,1,2.72,2.72,0,0,0,2.22.08,4,4,0,0,1,1-.31h0l.34,0h.12l.34,0h0a4,4,0,0,1,1,.31,2.72,2.72,0,0,0,2.22-.08,11.36,11.36,0,0,0,2.5-3.64C23,15.19,21.61,12.17,19.25,11.33Z"/><path class="cls-3" d="M17.62,23.89a4.36,4.36,0,0,1-1.32-.23l-.21-.08a3,3,0,0,0-.75-.21h0l-.28,0-.1-.5v.5l-.28,0h-.08a3.42,3.42,0,0,0-.68.21l-.19.07a4.26,4.26,0,0,1-1.34.24,2.17,2.17,0,0,1-1.32-.39,4,4,0,0,1-.59-.55.5.5,0,0,1,0-.63.51.51,0,0,1,.4-.2.52.52,0,0,1,.21,0,2.78,2.78,0,0,0,.57.21,4.39,4.39,0,0,0,1,.11,6.07,6.07,0,0,0,1.91-.34A6.33,6.33,0,0,0,17,20.67,6.67,6.67,0,0,0,18.42,18a18.68,18.68,0,0,0,.52-2l.18-1a6.71,6.71,0,0,1,.22-.95,1.5,1.5,0,0,1,.15-.29,1,1,0,0,1,.15-.17l.19-.14.11,0a.65.65,0,0,1,.2,0h.17a1.27,1.27,0,0,1,.18.06,1.48,1.48,0,0,1,.33.2,3,3,0,0,1,.4.41,5.47,5.47,0,0,1,.45.82,6.1,6.1,0,0,1,.3,1.17,8.45,8.45,0,0,1,0,1.74,12.74,12.74,0,0,1-.43,1.89.71.71,0,0,1-.06.25,11.16,11.16,0,0,1-2.53,3.54,2.17,2.17,0,0,1-1.32.39Z"/><path class="cls-3" d="M21.05,19.57a12.34,12.34,0,0,0,.41-1.8,7.89,7.89,0,0,0,0-1.61,6.22,6.22,0,0,0-.27-1.05,4.38,4.38,0,0,0-.38-.71,3,3,0,0,0-.3-.32L20.32,14l-.13,0h-.05l-.06,0L20,14l-.07.08a1.14,1.14,0,0,0-.1.19,6.27,6.27,0,0,0-.21.88c-.05.32-.12.64-.18,1a21.7,21.7,0,0,1-.53,2.11A7.28,7.28,0,0,1,17.35,21a6.85,6.85,0,0,1-2.68,1.59,5.63,5.63,0,0,1-3.17.24,3,3,0,0,1-.66-.23,3.61,3.61,0,0,0,.51.48,2.72,2.72,0,0,0,2.22.08,4,4,0,0,1,1-.31h0l.34,0h.12l.34,0h0a4,4,0,0,1,1,.31,2.72,2.72,0,0,0,2.22-.08A11.06,11.06,0,0,0,21,19.74Z"/><path class="cls-8" d="M15,12.59s-.09,0-1.58-.36l-.65,0a.53.53,0,0,1-.44-.32.89.89,0,0,1,0-.66.73.73,0,0,1,.4-.37,1.13,1.13,0,0,1,.32,0,3.18,3.18,0,0,1,.88.19,3.74,3.74,0,0,0,1.06.23.75.75,0,0,0,.22,0A7.22,7.22,0,0,1,16.61,11c1,0,1.11.63,1.11.82a.5.5,0,0,1-.43.5c-1.38.17-2.12.25-2.23.25Z"/><path class="cls-8" d="M12.79,11.71h0s-.12-.3.11-.38c.42-.15,1.52.56,2.41.37s1.91-.33,1.91.14c0,0-2.1.26-2.17.25l-1.53-.34Z"/><path class="cls-3" d="M15.26,12.91a3.5,3.5,0,0,1-.82-.11L14,12.69c-.95-.25-1.43-.38-1.65-.7a.51.51,0,0,1-.07-.4.79.79,0,0,1,.8-.57l.21,0a4,4,0,0,1,.46.12,5.33,5.33,0,0,0,1.47.28h.22c.58-.06.85-.1,1-.13l.23,0h.1c.26,0,.86,0,.93.51s-.46.65-.72.73l-.41.13A4.09,4.09,0,0,1,15.26,12.91Z"/><path class="cls-3" d="M12.79,11.71s.06-.24.43-.18a6.9,6.9,0,0,0,2.3.39c.91-.09,1.06-.14,1.2-.15s1,0,.14.26a3.5,3.5,0,0,1-2.29.28A4.9,4.9,0,0,1,12.79,11.71Z"/><path class="cls-3" d="M15.27,12.94a1.61,1.61,0,0,1-.39,0l-1.52-.39a.58.58,0,0,1-.24-.14.66.66,0,0,1-.11-.62.6.6,0,0,1,.61-.35,2.89,2.89,0,0,1,.81.2l.69.2a5.3,5.3,0,0,0,.93-.23,1.48,1.48,0,0,1,.44-.07.73.73,0,0,1,.67.35.47.47,0,0,1,0,.4.5.5,0,0,1-.27.3A5.1,5.1,0,0,1,15.27,12.94Z"/><path class="cls-3" d="M13.49,12s-.13-.14.15-.13c.13,0,.94.28,1.45.41h.07a6.37,6.37,0,0,0,1-.25c.43-.13.52,0,.52,0a3.76,3.76,0,0,1-1.72.32C14.39,12.27,13.49,12,13.49,12Z"/><path class="cls-3" d="M15.14,13a.78.78,0,0,1-.31-.07.52.52,0,0,1-.29-.34h0c-.2-.8-1-3.2-2-3.75a.5.5,0,0,1-.24-.31,1.5,1.5,0,0,1,1.07-1.79l.15,0a.49.49,0,0,1,.38.18A7.14,7.14,0,0,1,15,8.6a.36.36,0,0,1,.14,0,.58.58,0,0,1,.47.27l.11.3a.28.28,0,0,1,0,.13,1,1,0,0,1-.24.86,7.08,7.08,0,0,0,.16,1.39,3,3,0,0,1,.08,1,.51.51,0,0,1-.42.38Z"/><path class="cls-3" d="M15,12.42s-.85-3.29-2.2-4.06a1,1,0,0,1,.73-1.19,6.41,6.41,0,0,1,1.2,2.32s.34-.51.4-.39l.08.22s0,.36-.07.44c-.43.36.17,2.33.08,2.68C15,12.47,15,12.41,15,12.42Z"/><path class="cls-6" d="M15.17,13a.5.5,0,0,1-.5-.46,8,8,0,0,0-.14-1,7.8,7.8,0,0,0-.36-1.19A9.79,9.79,0,0,0,13.51,9c-.12-.21-.25-.42-.37-.64L13,8.15a2.54,2.54,0,0,1-.16-.28.42.42,0,0,1,0-.1.7.7,0,0,1,0-.14A.58.58,0,0,1,13,6.91a2.17,2.17,0,0,1,.46-.22l.15,0a.49.49,0,0,1,.38.18A7.14,7.14,0,0,1,15,8.6a.36.36,0,0,1,.14,0,.58.58,0,0,1,.47.27l.11.3a.28.28,0,0,1,0,.13,1,1,0,0,1-.24.86,7.08,7.08,0,0,0,.16,1.39,3,3,0,0,1,.08,1,.51.51,0,0,1-.43.38Z"/><path class="cls-6" d="M15.17,9.76c.1-.08.07-.44.07-.44l-.08-.22c-.06-.12-.4.39-.4.39a6.41,6.41,0,0,0-1.2-2.32,1.53,1.53,0,0,0-.34.16.58.58,0,0,1,.08.22s0,.06,0,.09.17.28.25.43l.37.63a8.19,8.19,0,0,1,.69,1.43A7,7,0,0,1,15,11.41a9,9,0,0,1,.15,1h.08C15.34,12.09,14.74,10.12,15.17,9.76Z"/><path class="cls-3" d="M12.81,8.86a.48.48,0,0,1-.2,0,.51.51,0,0,1-.27-.29,1.44,1.44,0,0,1,1.15-1.89A.62.62,0,0,1,14,7a.81.81,0,0,1-.14.8,1.65,1.65,0,0,1-.87,1A.45.45,0,0,1,12.81,8.86Z"/><path class="cls-3" d="M13.42,7.56s.21-.21.14-.39-1.05.39-.75,1.19A1.12,1.12,0,0,0,13.42,7.56Z"/><path class="cls-8" d="M13.26,13.09c-.39-.05-2.35-.33-2.36-1.53a.49.49,0,0,1,0-.12c0-.08.2-.74,1.29-.74l.42,0a.5.5,0,0,1,.44.52.52.52,0,0,1-.48.48h-.06a2.74,2.74,0,0,0,.87.37.5.5,0,0,1,.42.56.49.49,0,0,1-.49.43Z"/><path class="cls-8" d="M12.56,11.23s-1.43.06-.6.72a3.22,3.22,0,0,0,1.36.64s-1.91-.22-1.92-1C11.4,11.55,11.5,11.1,12.56,11.23Z"/><path class="cls-8" d="M16.36,13.22a.5.5,0,0,1-.49-.44.48.48,0,0,1,.42-.55,2.73,2.73,0,0,0,.87-.37H17.1a.5.5,0,0,1-.48-.48.49.49,0,0,1,.44-.51l.42,0c1.09,0,1.28.66,1.29.73a.59.59,0,0,1,0,.13c0,1.2-2,1.48-2.37,1.53Z"/><path class="cls-8" d="M17.12,11.35s1.43.07.6.72a3.13,3.13,0,0,1-1.36.65s1.92-.22,1.93-1C18.29,11.68,18.18,11.22,17.12,11.35Z"/><path class="cls-3" d="M12.82,8.82a.53.53,0,0,1-.49-.35,1.27,1.27,0,0,1,.35-1.35.67.67,0,0,1,.5-.27.57.57,0,0,1,.45.24,1.24,1.24,0,0,1,.07,1,1.21,1.21,0,0,1-.56.63A.5.5,0,0,1,12.82,8.82Z"/><path class="cls-3" d="M13.05,7.46s.12-.17.17-.09a.86.86,0,0,1,0,.53.69.69,0,0,1-.3.35s-.11.1-.12.06A.77.77,0,0,1,13.05,7.46Z"/><path class="cls-7" d="M9.24,18.24l-.19,0a1.24,1.24,0,0,1-.23-.11A.81.81,0,0,1,8.68,18a.38.38,0,0,1-.09-.09l-.07-.12a3.47,3.47,0,0,1-.18-.6,10.69,10.69,0,0,1-.07-2.3,4.71,4.71,0,0,1,.21-1A4.81,4.81,0,0,1,8.86,13a.47.47,0,0,1,.19-.18l.19-.12.13-.09a.47.47,0,0,1,.28-.09h.12l.22,0,.17,0,.29.12a1.5,1.5,0,0,1,.33.23.47.47,0,0,1,.1.1l.12.22a2.57,2.57,0,0,1,.14.42,2.54,2.54,0,0,1,0,.44,2.58,2.58,0,0,1-.09.48,1.31,1.31,0,0,1-.12.26l-.44-.23.38.33-.1.09-.11.1a3.72,3.72,0,0,0-.42.56,3,3,0,0,0-.28.63,2.86,2.86,0,0,0-.11.71,1.71,1.71,0,0,0,0,.32v.22a1,1,0,0,1,0,.17.49.49,0,0,1,0,.11.59.59,0,0,1-.49.34Z"/><path class="cls-7" d="M10.56,13.53a1,1,0,0,0-.1-.17,1,1,0,0,0-.24-.16L10,13.11l-.09,0-.25,0h0a.57.57,0,0,0-.13.08,1.42,1.42,0,0,1-.23.14A5.93,5.93,0,0,0,9,14a4.2,4.2,0,0,0-.18.87,9.83,9.83,0,0,0,.06,2.17A3.31,3.31,0,0,0,9,17.5l.06.09.07.06.11.06.15,0,0-.05s0-.05,0-.08c0-.19,0-.38,0-.57a3.35,3.35,0,0,1,.14-.83,3.28,3.28,0,0,1,.33-.74,5.09,5.09,0,0,1,.48-.64,1.14,1.14,0,0,1,.17-.15l0,0,.08-.15c0-.12.05-.24.07-.36s0-.21,0-.31A2.81,2.81,0,0,0,10.56,13.53Z"/><path class="cls-3" d="M15.43,16.11a.67.67,0,0,1-.46-.27l-.09-.13A4.25,4.25,0,0,0,14.3,15a.94.94,0,0,1-.1-.1.57.57,0,0,1,.43-1c.58.07,1.24,1.36,1.29,1.54a.59.59,0,0,1-.09.48A.51.51,0,0,1,15.43,16.11Z"/><path class="cls-3" d="M14.61,14.55s-.13-.18,0-.16a3.69,3.69,0,0,1,.78,1.17s0,.11,0,0A5.87,5.87,0,0,0,14.61,14.55Z"/><path class="cls-9" d="M15.47,10.19s-1.78-3.86,4-3.56c0,0,.34,2.33-1.41,3.25A3.75,3.75,0,0,1,15.47,10.19Z"/><path class="cls-10" d="M19.2,7.67H17.94a8,8,0,0,1,1.5-1,11.44,11.44,0,0,0-1.64.91l-.2-.8.09.87a10,10,0,0,0-.8.61l-.36-1.12s.22,1.24.21,1.25a6.65,6.65,0,0,0-.65.65c-.09-.23-.38-1.13-.38-1.13L16,9.22a5.78,5.78,0,0,0-.59.87l.05.16s.26-.33.68-.8h0l2.21-.19h-2c.2-.22.43-.46.68-.7l1.73,0-1.59-.1c.22-.21.46-.43.71-.63Z"/><path class="cls-5" d="M15.4,10c0-.06.07-.11.1-.16a4.4,4.4,0,0,1,.32-1,4,4,0,0,1,.65-.93,4.56,4.56,0,0,1,2.18-1.29l.1,0C14.53,6.67,15.15,9.29,15.4,10Z"/><path class="cls-11" d="M19.27,7.37a8.55,8.55,0,0,0-1.84,1.14A8.74,8.74,0,0,0,16.05,10a2.9,2.9,0,0,0-.19.29,3.82,3.82,0,0,0,2.24-.39,3,3,0,0,0,1.44-2.62Z"/><path class="cls-9" d="M15.07,11.13a3,3,0,0,1,.51-1.08l-.11-.15A3.58,3.58,0,0,0,15,11Z"/><path class="cls-10" d="M15.07,11.13a3,3,0,0,1,.51-1.08l-.11-.15A3.58,3.58,0,0,0,15,11Z"/><path class="cls-12" d="M19,11.25A6.24,6.24,0,0,0,17.37,11a4.18,4.18,0,0,0-.8.07h0l-.25.05a5.07,5.07,0,0,1-2.64,0,4.53,4.53,0,0,0-2.08,0h0c-.2,0-.4.08-.6.13C8.49,12,6.93,15,8.85,19.46a11.36,11.36,0,0,0,2.5,3.64,2.72,2.72,0,0,0,2.22.08,4,4,0,0,1,1-.31h0l.34,0h.12l.34,0h0a4,4,0,0,1,1,.31,2.72,2.72,0,0,0,2.22-.08,11.36,11.36,0,0,0,2.5-3.64C23.07,15,21.51,12,19,11.25Z"/><path class="cls-13" d="M16.35,19.47s0-.1,0-.15a7.89,7.89,0,0,0-.05-.84,10.37,10.37,0,0,1-.1-1.47,5,5,0,0,1,.26-1.53,6.07,6.07,0,0,0,.33-1,.61.61,0,0,0,0-.19,1.89,1.89,0,0,0,0-.23l-.09-.16-.06-.06,0,0h-.08c-.27.07-.53.18-.8.25a5.19,5.19,0,0,1-1,.13,9.73,9.73,0,0,1-1.87-.1,3.49,3.49,0,0,1-.77-.2,5.2,5.2,0,0,1-.89-.43,11.79,11.79,0,0,0-1.06-.67l-.22-.07h0l0,0-.26.17a1.36,1.36,0,0,0-.24.24A4.4,4.4,0,0,0,9,13.8l-.05.13c-.08.35-.17.7-.26,1.05a8.44,8.44,0,0,0,.06,1.42,10.15,10.15,0,0,0,.57,2.23,11.45,11.45,0,0,0,.55,1.11,11.68,11.68,0,0,0,.7,1.12,5.65,5.65,0,0,0,.65.73l.28.17.14,0c.24.06.48.12.71.16A3.32,3.32,0,0,0,13,22a6.15,6.15,0,0,0,.85-.31,7.21,7.21,0,0,0,1.49-.88,5.3,5.3,0,0,0,.7-.72c.08-.11.15-.23.22-.35l.11-.17A.19.19,0,0,1,16.35,19.47Z"/><path class="cls-14" d="M19.25,11.33h0a2.48,2.48,0,0,1,0,.47,6.17,6.17,0,0,1-.1.62A3.39,3.39,0,0,1,19,13a3,3,0,0,1-.49.72,4.27,4.27,0,0,1-.38.36l-.29.24a1.73,1.73,0,0,0-.26.28,5.87,5.87,0,0,0-.5.88,6.27,6.27,0,0,0-.25,1,4.85,4.85,0,0,0,0,.66c0,.14,0,.29,0,.44s0,.21,0,.31,0,.4,0,.6a6.83,6.83,0,0,1-.06.79,3.06,3.06,0,0,1-.24.78,2.86,2.86,0,0,1-.21.43l-.11.15a2,2,0,0,1-.52.59,3.11,3.11,0,0,1-.28.23,4.21,4.21,0,0,1-1.42.67c-.23.06-.46.1-.69.14a7.46,7.46,0,0,1-1.05.1,5.91,5.91,0,0,1-1.77-.24l-.11,0a5.07,5.07,0,0,0,.95,1,2.72,2.72,0,0,0,2.22.08,4,4,0,0,1,1-.31h0l.34,0h.12l.34,0h0a4,4,0,0,1,1,.31,2.72,2.72,0,0,0,2.22-.08,11.36,11.36,0,0,0,2.5-3.64C23,15.19,21.61,12.17,19.25,11.33Z"/><path class="cls-15" d="M21.05,19.57a12.34,12.34,0,0,0,.41-1.8,7.89,7.89,0,0,0,0-1.61,6.22,6.22,0,0,0-.27-1.05,4.38,4.38,0,0,0-.38-.71,3,3,0,0,0-.3-.32L20.32,14l-.13,0h-.05l-.06,0L20,14l-.07.08a1.14,1.14,0,0,0-.1.19,6.27,6.27,0,0,0-.21.88c-.05.32-.12.64-.18,1a21.7,21.7,0,0,1-.53,2.11A7.28,7.28,0,0,1,17.35,21a6.85,6.85,0,0,1-2.68,1.59,5.63,5.63,0,0,1-3.17.24,3,3,0,0,1-.66-.23,3.61,3.61,0,0,0,.51.48,2.72,2.72,0,0,0,2.22.08,4,4,0,0,1,1-.31h0l.34,0h.12l.34,0h0a4,4,0,0,1,1,.31,2.72,2.72,0,0,0,2.22-.08A11.13,11.13,0,0,0,21,19.75Z"/><path class="cls-16" d="M12.79,11.71h0s-.12-.3.11-.38c.42-.15,1.52.56,2.41.37s1.91-.33,1.91.14c0,0-2.1.26-2.17.25l-1.53-.34Z"/><path class="cls-17" d="M12.79,11.71s.06-.24.43-.18a6.88,6.88,0,0,0,2.29.39c.92-.09,1.07-.14,1.21-.15s1,0,.14.26a3.51,3.51,0,0,1-2.29.28A4.9,4.9,0,0,1,12.79,11.71Z"/><path class="cls-18" d="M13.49,12s-.13-.14.15-.13c.13,0,.94.28,1.45.41h.07a6.37,6.37,0,0,0,1-.25c.43-.13.52,0,.52,0a3.76,3.76,0,0,1-1.72.32C14.39,12.27,13.49,12,13.49,12Z"/><path class="cls-19" d="M15,12.42s-.85-3.29-2.2-4.06a1,1,0,0,1,.73-1.19,6.41,6.41,0,0,1,1.2,2.32s.34-.51.4-.39l.08.22s0,.36-.07.44c-.43.36.17,2.33.08,2.68C15,12.47,15,12.41,15,12.42Z"/><path class="cls-20" d="M15.17,9.76c.1-.08.07-.44.07-.44l-.08-.22c-.06-.12-.4.39-.4.39a6.41,6.41,0,0,0-1.2-2.32,1.53,1.53,0,0,0-.34.16.58.58,0,0,1,.08.22s0,.06,0,.09.17.28.25.43l.37.63a8.19,8.19,0,0,1,.69,1.43A7,7,0,0,1,15,11.41a9,9,0,0,1,.15,1h.08C15.34,12.09,14.74,10.12,15.17,9.76Z"/><path class="cls-21" d="M13.42,7.56s.21-.21.14-.39-1.05.39-.75,1.19A1.12,1.12,0,0,0,13.42,7.56Z"/><path class="cls-16" d="M12.56,11.23s-1.43.06-.6.72a3.22,3.22,0,0,0,1.36.64s-1.91-.22-1.92-1C11.4,11.55,11.5,11.1,12.56,11.23Z"/><path class="cls-16" d="M17.12,11.36s1.43.06.6.72a3.17,3.17,0,0,1-1.36.64s1.92-.22,1.93-1C18.29,11.68,18.18,11.22,17.12,11.36Z"/><path class="cls-22" d="M13,7.46s.13-.17.18-.09a.87.87,0,0,1,0,.53.69.69,0,0,1-.3.35s-.11.1-.12.06A.78.78,0,0,1,13,7.46Z"/><path class="cls-23" d="M10.56,13.53a1,1,0,0,0-.1-.17,1,1,0,0,0-.24-.16L10,13.11l-.09,0-.25,0h0a.57.57,0,0,0-.13.08,1.42,1.42,0,0,1-.23.14A5.93,5.93,0,0,0,9,14a4.2,4.2,0,0,0-.18.87,9.83,9.83,0,0,0,.06,2.17A3.31,3.31,0,0,0,9,17.5l.06.09.07.06.11.06.15,0,0-.05s0-.05,0-.08c0-.19,0-.38,0-.57a3.35,3.35,0,0,1,.14-.83,3.28,3.28,0,0,1,.33-.74,5.09,5.09,0,0,1,.48-.64,1.14,1.14,0,0,1,.17-.15l0,0,.08-.15c0-.12.05-.24.07-.36s0-.21,0-.31A2.81,2.81,0,0,0,10.56,13.53Z"/><path class="cls-24" d="M14.61,14.55s-.13-.18,0-.15a3.52,3.52,0,0,1,.78,1.16s0,.11,0,0A5.87,5.87,0,0,0,14.61,14.55Z"/><path class="cls-25" d="M15,2.5A12.5,12.5,0,1,1,2.5,15,12.5,12.5,0,0,1,15,2.5M15,1A14,14,0,1,0,29,15,14,14,0,0,0,15,1Z"/></g></g></svg>