<svg id="Livello_1" data-name="Livello 1" xmlns="http://www.w3.org/2000/svg" xmlns:xlink="http://www.w3.org/1999/xlink" viewBox="0 0 30 30"><defs><style>.cls-1,.cls-11,.cls-4{fill:none;}.cls-2{clip-path:url(#clip-path);}.cls-10,.cls-3,.cls-6{fill:#c49e68;}.cls-10,.cls-11,.cls-4,.cls-6{stroke:#fff;stroke-miterlimit:10;}.cls-4{stroke-width:0.88px;}.cls-5{fill:#15171a;}.cls-6{stroke-width:0.22px;}.cls-7{fill:#aa1933;}.cls-8{fill:#3f84bc;}.cls-9{fill:#fff;}.cls-10{stroke-width:0.25px;}.cls-11{stroke-width:0.41px;}.cls-12{fill:#d1d1d1;}</style><clipPath id="clip-path"><path class="cls-1" d="M15,2.5A12.5,12.5,0,1,1,2.62,16.77,12.94,12.94,0,0,1,2.5,15,12.5,12.5,0,0,1,15,2.5Z"/></clipPath></defs><g class="cls-2"><path class="cls-3" d="M15,2.5A12.5,12.5,0,1,1,2.62,16.77,12.94,12.94,0,0,1,2.5,15,12.5,12.5,0,0,1,15,2.5Z"/><polyline class="cls-4" points="2.77 19.63 20.31 19.63 27.5 19.63"/><rect class="cls-5" x="2.63" y="18.53" width="24.73" height="9.06"/><rect class="cls-5" x="19.17" y="2.5" width="8.33" height="25.09"/><polygon class="cls-6" points="3.49 25.75 3.49 21.75 4.84 19.07 7.37 19.07 8.77 21.75 8.77 25.75 6.9 22.41 7.45 21.15 7.02 19.78 6.61 21.15 6.13 19.78 5.68 21.06 5.38 19.78 4.89 21.15 5.41 22.41 3.49 25.75"/><polygon class="cls-7" points="6.12 22.3 4 26.13 8.25 26.13 6.12 22.3"/><polygon class="cls-8" points="6.12 23.39 4.61 26.13 7.64 26.13 6.12 23.39"/><polygon class="cls-9" points="6.12 24.76 5.37 26.13 6.88 26.13 6.12 24.76"/><polygon class="cls-6" points="9.17 25.75 9.17 21.75 10.53 19.07 13.05 19.07 14.46 21.75 14.46 25.75 12.59 22.41 13.14 21.15 12.71 19.78 12.3 21.15 11.82 19.78 11.37 21.06 11.06 19.78 10.58 21.15 11.09 22.41 9.17 25.75"/><polygon class="cls-7" points="11.81 22.3 9.68 26.13 13.94 26.13 11.81 22.3"/><polygon class="cls-8" points="11.81 23.39 10.29 26.13 13.33 26.13 11.81 23.39"/><polygon class="cls-9" points="11.81 24.76 11.05 26.13 12.57 26.13 11.81 24.76"/><polygon class="cls-6" points="14.89 25.75 14.89 21.75 16.25 19.07 18.77 19.07 20.18 21.75 20.18 25.75 18.31 22.41 18.86 21.15 18.43 19.78 18.02 21.15 17.54 19.78 17.09 21.06 16.78 19.78 16.3 21.15 16.82 22.41 14.89 25.75"/><polygon class="cls-7" points="17.53 22.3 15.4 26.13 19.66 26.13 17.53 22.3"/><polygon class="cls-8" points="17.53 23.39 16.01 26.13 19.05 26.13 17.53 23.39"/><polygon class="cls-9" points="17.53 24.76 16.77 26.13 18.29 26.13 17.53 24.76"/><polygon class="cls-7" points="23.27 21.03 21.15 26.13 25.4 26.13 23.27 21.03"/><polygon class="cls-8" points="23.27 22.49 21.76 26.13 24.79 26.13 23.27 22.49"/><polygon class="cls-9" points="23.27 24.31 22.52 26.13 24.03 26.13 23.27 24.31"/><polygon class="cls-10" points="25.98 9.63 25.98 4.31 24.11 8.75 24.66 10.43 24.23 12.26 23.82 10.43 23.34 12.26 22.89 10.54 22.58 12.26 22.1 10.43 22.61 8.75 20.69 4.31 20.69 9.63 22.03 13.19 22.03 16.73 20.69 20.3 20.69 25.62 22.61 21.18 22.1 19.51 22.58 17.68 22.89 19.39 23.34 17.68 23.82 19.51 24.23 17.68 24.66 19.51 24.11 21.18 25.98 25.62 25.98 20.3 24.54 16.73 24.54 13.19 25.98 9.63"/><polygon class="cls-8" points="23.27 8.96 21.15 3.86 25.4 3.86 23.27 8.96"/><polygon class="cls-7" points="23.27 7.49 21.76 3.86 24.79 3.86 23.27 7.49"/><polygon class="cls-9" points="23.27 5.68 22.52 3.86 24.03 3.86 23.27 5.68"/><line class="cls-11" x1="22.03" y1="14.97" x2="20.69" y2="14.97"/><line class="cls-11" x1="20.69" y1="11.56" x2="20.69" y2="18.41"/><line class="cls-11" x1="20.69" y1="11.56" x2="21.36" y2="13.67"/><line class="cls-11" x1="20.69" y1="18.41" x2="21.36" y2="16.74"/><line class="cls-11" x1="24.54" y1="14.97" x2="25.98" y2="14.97"/><line class="cls-11" x1="25.98" y1="11.56" x2="25.98" y2="18.41"/><line class="cls-11" x1="25.98" y1="11.56" x2="25.26" y2="13.57"/><line class="cls-11" x1="25.98" y1="18.41" x2="25.26" y2="16.74"/></g><path class="cls-12" d="M15,2.5A12.5,12.5,0,1,1,2.5,15,12.5,12.5,0,0,1,15,2.5M15,1A14,14,0,1,0,29,15,14,14,0,0,0,15,1Z"/></svg>