<svg id="Livello_1" data-name="Livello 1" xmlns="http://www.w3.org/2000/svg" xmlns:xlink="http://www.w3.org/1999/xlink" viewBox="0 0 30 30"><defs><style>.cls-1,.cls-11,.cls-12,.cls-13,.cls-14,.cls-6,.cls-7,.cls-9{fill:none;}.cls-2{clip-path:url(#clip-path);}.cls-15,.cls-3{fill:#ede6d9;}.cls-4{fill:#601d23;}.cls-5{fill:#15171a;}.cls-14,.cls-15,.cls-6{stroke:#87836f;}.cls-11,.cls-12,.cls-13,.cls-14,.cls-15,.cls-6,.cls-7,.cls-9{stroke-miterlimit:10;}.cls-6{stroke-width:0.39px;}.cls-7,.cls-9{stroke:#4c2e80;}.cls-11,.cls-7{stroke-width:1.57px;}.cls-8{fill:#7a95af;}.cls-12,.cls-9{stroke-width:1.58px;}.cls-10{fill:#4c2e80;}.cls-11,.cls-12{stroke:#7a95af;}.cls-13{stroke:#000;stroke-width:0.39px;}.cls-14,.cls-15{stroke-width:0.51px;}.cls-16{fill:#87836f;}.cls-17{fill:#d1d1d1;}</style><clipPath id="clip-path"><path class="cls-1" d="M15,2.5A12.5,12.5,0,1,1,2.62,16.77,12.94,12.94,0,0,1,2.5,15,12.5,12.5,0,0,1,15,2.5Z"/></clipPath></defs><g class="cls-2"><path class="cls-3" d="M15,2.5A12.5,12.5,0,1,1,2.62,16.77,12.94,12.94,0,0,1,2.5,15,12.5,12.5,0,0,1,15,2.5Z"/><rect class="cls-4" x="2.64" y="20.63" width="24.86" height="6.87"/><rect class="cls-4" x="20.52" y="2.5" width="6.97" height="25"/><polygon class="cls-4" points="15 21.58 21.7 16.05 21.76 21.7 15 21.58"/><rect class="cls-5" x="17.73" y="21.36" width="3.28" height="5.41"/><polyline class="cls-6" points="18.37 22.09 18.37 23.14 20.36 23.14 20.36 22.09"/><line class="cls-6" x1="19.36" y1="22.09" x2="19.36" y2="26.04"/><line class="cls-6" x1="18.69" y1="24.07" x2="20.04" y2="24.07"/><polyline class="cls-6" points="18.37 26.04 18.37 25 20.36 25 20.36 26.04"/><rect class="cls-3" x="12.39" y="21.35" width="4.79" height="5.41"/><line class="cls-7" x1="12.39" y1="24.06" x2="17.19" y2="24.06"/><polygon class="cls-8" points="12.39 21.35 17.18 21.35 14.74 24.06 12.39 21.35"/><polygon class="cls-8" points="12.39 26.76 17.09 26.76 14.69 24 12.39 26.76"/><line class="cls-9" x1="14.74" y1="21.35" x2="14.74" y2="26.76"/><rect class="cls-5" x="8.57" y="21.35" width="3.28" height="5.41"/><polyline class="cls-6" points="9.21 22.09 9.21 23.13 11.21 23.13 11.21 22.09"/><line class="cls-6" x1="10.21" y1="22.08" x2="10.21" y2="26.03"/><line class="cls-6" x1="9.53" y1="24.06" x2="10.89" y2="24.06"/><polyline class="cls-6" points="9.21 26.03 9.21 24.99 11.21 24.99 11.21 26.03"/><rect class="cls-10" x="3.08" y="21.36" width="4.79" height="5.41"/><line class="cls-11" x1="3.08" y1="24.07" x2="7.87" y2="24.07"/><polygon class="cls-3" points="3.08 21.36 7.87 21.36 5.43 24.07 3.08 21.36"/><polygon class="cls-3" points="2.98 26.77 7.77 26.77 5.33 24.01 2.98 26.77"/><line class="cls-12" x1="5.43" y1="21.36" x2="5.43" y2="26.77"/><rect class="cls-10" x="21.65" y="21.35" width="4.79" height="5.41"/><line class="cls-11" x1="21.65" y1="24.06" x2="26.45" y2="24.06"/><polygon class="cls-3" points="21.65 21.35 26.45 21.35 24 24.06 21.65 21.35"/><polygon class="cls-3" points="21.55 26.76 26.35 26.76 23.9 24 21.55 26.76"/><line class="cls-12" x1="24" y1="21.35" x2="24" y2="26.76"/><polygon class="cls-4" points="8.81 20.78 11.61 20.78 10.18 19.17 8.81 20.78"/><polyline class="cls-13" points="13.74 20.15 13.74 19.1 15.74 19.1 15.74 20.15"/><line class="cls-13" x1="14.74" y1="20.15" x2="14.74" y2="18.08"/><polygon points="14.07 18.61 15.4 18.61 14.72 17.84 14.07 18.61"/><polyline class="cls-13" points="4.47 20.16 4.47 19.11 6.48 19.11 6.48 20.16"/><line class="cls-13" x1="5.48" y1="20.16" x2="5.48" y2="18.09"/><polygon points="4.81 18.61 6.14 18.61 5.46 17.85 4.81 18.61"/><rect class="cls-3" x="21.71" y="10.98" width="4.79" height="5.41"/><line class="cls-7" x1="21.71" y1="13.69" x2="26.5" y2="13.69"/><polygon class="cls-8" points="21.71 10.98 26.5 10.98 24.06 13.69 21.71 10.98"/><polygon class="cls-8" points="21.71 16.39 26.4 16.39 24.01 13.63 21.71 16.39"/><line class="cls-9" x1="24.06" y1="10.98" x2="24.06" y2="16.39"/><rect class="cls-10" x="21.76" y="0.61" width="4.79" height="5.41"/><line class="cls-11" x1="21.76" y1="3.32" x2="26.55" y2="3.32"/><polygon class="cls-3" points="21.76 0.61 26.55 0.61 24.11 3.31 21.76 0.61"/><polygon class="cls-3" points="21.76 6.02 26.45 6.02 24.06 3.26 21.76 6.02"/><line class="cls-12" x1="24.11" y1="0.61" x2="24.11" y2="6.02"/><rect class="cls-10" x="21.76" y="6.6" width="4.69" height="3.8"/><rect class="cls-8" x="21.76" y="16.97" width="4.69" height="3.8"/><rect class="cls-5" x="22.25" y="6.6" width="3.8" height="3.8"/><polyline class="cls-14" points="22.85 10 22.85 8.64 25.46 8.64 25.46 10"/><line class="cls-15" x1="24.15" y1="10" x2="24.15" y2="7.31"/><polygon class="cls-16" points="23.29 7.99 25.02 7.99 24.14 7 23.29 7.99"/><rect class="cls-5" x="22.24" y="16.97" width="3.8" height="3.8"/><polyline class="cls-14" points="22.84 20.38 22.84 19.01 25.45 19.01 25.45 20.38"/><line class="cls-14" x1="24.15" y1="20.38" x2="24.15" y2="17.68"/><polygon class="cls-16" points="23.28 18.37 25.01 18.37 24.13 17.37 23.28 18.37"/></g><path class="cls-17" d="M15,2.5A12.5,12.5,0,1,1,2.5,15,12.5,12.5,0,0,1,15,2.5M15,1A14,14,0,1,0,29,15,14,14,0,0,0,15,1Z"/></svg>