<?xml version="1.0" encoding="UTF-8"?>
<svg id="Livello_1" data-name="Livello 1" xmlns="http://www.w3.org/2000/svg" xmlns:xlink="http://www.w3.org/1999/xlink" viewBox="0 0 30 30">
  <defs>
    <style>
      .cls-1, .cls-2, .cls-3, .cls-4, .cls-5, .cls-6 {
        fill: none;
      }

      .cls-7 {
        clip-path: url(#clippath);
      }

      .cls-8 {
        fill: #32a594;
      }

      .cls-9 {
        fill: #d1d1d1;
      }

      .cls-10 {
        fill: #d3d0ce;
      }

      .cls-11 {
        fill: #4155b7;
      }

      .cls-2 {
        stroke-width: .1px;
      }

      .cls-2, .cls-3, .cls-4, .cls-5, .cls-6 {
        stroke-miterlimit: 10;
      }

      .cls-2, .cls-5, .cls-6 {
        stroke: #000;
      }

      .cls-3 {
        stroke: #4155b7;
      }

      .cls-3, .cls-4, .cls-5 {
        stroke-width: .25px;
      }

      .cls-4 {
        stroke: #32a594;
      }

      .cls-6 {
        stroke-width: .5px;
      }
    </style>
    <clipPath id="clippath">
      <circle class="cls-1" cx="15" cy="15" r="12.5"/>
    </clipPath>
  </defs>
  <g class="cls-7">
    <circle class="cls-10" cx="15" cy="15" r="12.5"/>
    <g>
      <polygon points="15 21.34 6.34 15 15 7.73 23.66 15.05 15 21.34"/>
      <polygon class="cls-11" points="15 20.09 7.93 15.04 15 8.98 22.07 14.96 15 20.09"/>
      <polygon class="cls-8" points="15 19.23 9.02 14.96 15 9.83 20.98 14.89 15 19.23"/>
      <polygon class="cls-10" points="15 17.89 10.73 14.84 15 11.18 19.27 14.79 15 17.89"/>
      <g>
        <line class="cls-6" x1="13.84" y1="14.53" x2="16.16" y2="14.53"/>
        <line class="cls-6" x1="15" y1="15.7" x2="15" y2="13.37"/>
      </g>
      <circle class="cls-10" cx="15" cy="14.53" r=".25"/>
    </g>
    <g>
      <polygon points="4.9 18.11 3.74 18.11 4.14 16.95 5.31 16.95 4.9 18.11"/>
      <polygon class="cls-8" points="5.51 16.37 4.35 16.37 4.75 15.21 5.92 15.21 5.51 16.37"/>
      <polygon class="cls-11" points="4.35 16.37 4.14 16.95 5.31 16.95 5.51 16.37 4.35 16.37"/>
    </g>
    <g>
      <polygon class="cls-8" points="4.76 14.79 5.92 14.79 5.52 13.63 4.35 13.63 4.76 14.79"/>
      <polygon points="4.15 13.05 5.3 13.05 4.91 11.89 3.74 11.89 4.15 13.05"/>
      <polygon class="cls-11" points="5.3 13.05 5.52 13.63 4.35 13.63 4.15 13.05 5.3 13.05"/>
    </g>
    <line class="cls-2" x1="7.05" y1="15" x2="1.97" y2="15"/>
    <g>
      <polygon class="cls-8" points="5.9 13.92 7.05 13.92 6.66 12.76 5.49 12.76 5.9 13.92"/>
      <polygon points="5.29 12.18 6.44 12.18 6.04 11.02 4.88 11.02 5.29 12.18"/>
      <polygon class="cls-11" points="6.44 12.18 6.66 12.76 5.49 12.76 5.29 12.18 6.44 12.18"/>
    </g>
    <g>
      <polygon points="6.04 18.98 4.88 18.98 5.28 17.82 6.45 17.82 6.04 18.98"/>
      <polygon class="cls-8" points="6.65 17.24 5.49 17.24 5.89 16.08 7.06 16.08 6.65 17.24"/>
      <polygon class="cls-11" points="5.49 17.24 5.28 17.82 6.45 17.82 6.65 17.24 5.49 17.24"/>
    </g>
    <g>
      <line class="cls-4" x1="7.82" y1="16.51" x2="9.8" y2="17.96"/>
      <line class="cls-3" x1="7.7" y1="16.69" x2="9.67" y2="18.14"/>
      <line class="cls-5" x1="7.57" y1="16.87" x2="9.54" y2="18.31"/>
    </g>
    <g>
      <line class="cls-4" x1="22.22" y1="16.51" x2="20.25" y2="17.96"/>
      <line class="cls-3" x1="22.35" y1="16.69" x2="20.37" y2="18.14"/>
      <line class="cls-5" x1="22.48" y1="16.87" x2="20.5" y2="18.31"/>
    </g>
    <g>
      <polygon points="25.37 18.11 26.53 18.11 26.13 16.95 24.96 16.95 25.37 18.11"/>
      <polygon class="cls-8" points="24.76 16.37 25.92 16.37 25.52 15.21 24.35 15.21 24.76 16.37"/>
      <polygon class="cls-11" points="25.92 16.37 26.13 16.95 24.96 16.95 24.76 16.37 25.92 16.37"/>
    </g>
    <g>
      <polygon class="cls-8" points="25.51 14.79 24.36 14.79 24.76 13.63 25.92 13.63 25.51 14.79"/>
      <polygon points="26.13 13.05 24.97 13.05 25.37 11.89 26.53 11.89 26.13 13.05"/>
      <polygon class="cls-11" points="24.97 13.05 24.76 13.63 25.92 13.63 26.13 13.05 24.97 13.05"/>
    </g>
    <line class="cls-2" x1="23.22" y1="15" x2="28.31" y2="15"/>
    <g>
      <polygon class="cls-8" points="24.38 13.92 23.22 13.92 23.62 12.76 24.78 12.76 24.38 13.92"/>
      <polygon points="24.99 12.18 23.83 12.18 24.23 11.02 25.39 11.02 24.99 12.18"/>
      <polygon class="cls-11" points="23.83 12.18 23.62 12.76 24.78 12.76 24.99 12.18 23.83 12.18"/>
    </g>
    <g>
      <polygon points="24.23 18.98 25.39 18.98 24.99 17.82 23.83 17.82 24.23 18.98"/>
      <polygon class="cls-8" points="23.62 17.24 24.78 17.24 24.38 16.08 23.21 16.08 23.62 17.24"/>
      <polygon class="cls-11" points="24.78 17.24 24.99 17.82 23.83 17.82 23.62 17.24 24.78 17.24"/>
    </g>
    <g>
      <line class="cls-4" x1="9.7" y1="11.8" x2="7.83" y2="13.37"/>
      <line class="cls-3" x1="9.56" y1="11.63" x2="7.69" y2="13.2"/>
      <line class="cls-5" x1="9.42" y1="11.46" x2="7.54" y2="13.04"/>
    </g>
    <g>
      <line class="cls-4" x1="22.25" y1="13.5" x2="20.37" y2="11.93"/>
      <line class="cls-3" x1="22.38" y1="13.34" x2="20.51" y2="11.76"/>
      <line class="cls-5" x1="22.53" y1="13.17" x2="20.65" y2="11.6"/>
    </g>
  </g>
  <path class="cls-9" d="m15,2.5c6.9,0,12.5,5.6,12.5,12.5s-5.6,12.5-12.5,12.5S2.5,21.9,2.5,15,8.1,2.5,15,2.5m0-1.5C7.28,1,1,7.28,1,15s6.28,14,14,14,14-6.28,14-14S22.72,1,15,1h0Z"/>
</svg>