<svg id="Livello_1" data-name="Livello 1" xmlns="http://www.w3.org/2000/svg" xmlns:xlink="http://www.w3.org/1999/xlink" viewBox="0 0 30 30"><defs><style>.cls-1{fill:none;}.cls-2{clip-path:url(#clip-path);}.cls-3{fill:#f7c2d0;}.cls-4{fill:#fff;}.cls-5{fill:#638c9b;}.cls-6{fill:#ebeae6;}.cls-7{fill:#d1d1d1;}</style><clipPath id="clip-path"><circle class="cls-1" cx="15" cy="15" r="12.5"/></clipPath></defs><g class="cls-2"><rect class="cls-3" x="13.6" y="13.7" width="25.18" height="2.8" transform="translate(41.29 -11.1) rotate(90)"/><rect class="cls-4" x="10.8" y="13.7" width="25.18" height="2.8" transform="translate(38.49 -8.3) rotate(90)"/><rect class="cls-5" x="8" y="13.7" width="25.18" height="2.8" transform="translate(35.69 -5.5) rotate(90)"/><rect class="cls-4" x="5.21" y="13.7" width="25.18" height="2.8" transform="translate(32.89 -2.7) rotate(90)"/><rect class="cls-3" x="2.41" y="13.7" width="25.18" height="2.8" transform="translate(30.1 0.1) rotate(90)"/><rect class="cls-4" x="-0.39" y="13.7" width="25.18" height="2.8" transform="translate(27.3 2.89) rotate(90)"/><rect class="cls-5" x="-3.19" y="13.7" width="25.18" height="2.8" transform="translate(24.5 5.69) rotate(90)"/><rect class="cls-4" x="-5.99" y="13.7" width="25.18" height="2.8" transform="translate(21.7 8.49) rotate(90)"/><rect class="cls-3" x="-8.78" y="13.7" width="25.18" height="2.8" transform="translate(18.9 11.29) rotate(90)"/></g><g class="cls-2"><path class="cls-3" d="M24.54,1,1,24.54l-7.25-7.25L17.29-6.29Z"/><path class="cls-6" d="M36.29,12.71,12.71,36.29,5.46,29,29,5.46Z"/></g><path class="cls-7" d="M15,2.5A12.5,12.5,0,1,1,2.5,15,12.5,12.5,0,0,1,15,2.5M15,1A14,14,0,1,0,29,15,14,14,0,0,0,15,1Z"/></svg>