<?xml version="1.0" encoding="UTF-8"?>
<svg id="Livello_1" data-name="Livello 1" xmlns="http://www.w3.org/2000/svg" xmlns:xlink="http://www.w3.org/1999/xlink" viewBox="0 0 30 30">
  <defs>
    <style>
      .cls-1 {
        clip-path: url(#clippath);
      }

      .cls-2, .cls-3, .cls-4 {
        fill: none;
      }

      .cls-2, .cls-5, .cls-6, .cls-7, .cls-8, .cls-9, .cls-10 {
        stroke-width: 0px;
      }

      .cls-11, .cls-8 {
        fill: #dabfa0;
      }

      .cls-12 {
        clip-path: url(#clippath-1);
      }

      .cls-3 {
        stroke: #dabfa0;
        stroke-width: .13px;
      }

      .cls-3, .cls-4 {
        stroke-miterlimit: 10;
      }

      .cls-4 {
        stroke: #542f2a;
        stroke-width: .44px;
      }

      .cls-6 {
        fill: #542f2a;
      }

      .cls-7 {
        fill: #d1d1d1;
      }

      .cls-9 {
        fill: #00a4ac;
      }

      .cls-10 {
        fill: #fff;
      }
    </style>
    <clipPath id="clippath">
      <circle class="cls-2" cx="15" cy="15" r="12.5"/>
    </clipPath>
    <clipPath id="clippath-1">
      <circle class="cls-8" cx="15" cy="15" r="12.5"/>
    </clipPath>
  </defs>
  <g class="cls-1">
    <g>
      <circle class="cls-11" cx="15" cy="15" r="12.5"/>
      <g class="cls-12">
        <circle class="cls-8" cx="15" cy="15" r="12.5"/>
      </g>
    </g>
    <polygon class="cls-5" points="4.92 5.27 6.03 5.52 8.62 7.9 6.57 9.7 8.62 11.47 6.57 13.22 8.62 15.04 6.57 16.86 8.62 18.63 6.54 20.41 8.62 22.18 6.57 23.98 8.58 25.75 2.42 25.75 2.42 5.27 4.92 5.27"/>
    <polygon class="cls-4" points="14.14 27.92 11.69 25.75 13.7 23.98 11.66 22.18 13.73 20.41 11.66 18.63 13.7 16.86 11.66 15.04 13.7 13.22 11.66 11.47 13.7 9.7 11.66 7.9 13.7 6.1 11.66 4.28 14.24 2.08 6.03 2.08 8.62 4.28 6.57 6.1 8.62 7.9 6.57 9.7 8.62 11.47 6.57 13.22 8.62 15.04 6.57 16.86 8.62 18.63 6.54 20.41 8.62 22.18 6.57 23.98 8.58 25.75 6.14 27.92 14.14 27.92"/>
    <polygon class="cls-5" points="10.12 6.68 11.19 6.16 10.12 5.65 9.09 6.16 10.12 6.68"/>
    <polygon class="cls-5" points="10.12 10.13 11.19 9.61 10.12 9.1 9.09 9.61 10.12 10.13"/>
    <polygon class="cls-5" points="10.12 13.79 11.19 13.27 10.12 12.76 9.09 13.27 10.12 13.79"/>
    <polygon class="cls-5" points="10.12 17.24 11.19 16.73 10.12 16.21 9.09 16.73 10.12 17.24"/>
    <polygon class="cls-5" points="10.12 20.99 11.19 20.48 10.12 19.97 9.09 20.48 10.12 20.99"/>
    <polygon class="cls-5" points="10.12 24.45 11.19 23.93 10.12 23.42 9.09 23.93 10.12 24.45"/>
    <polygon class="cls-6" points="23.7 25.99 26.76 23.98 23.97 22.18 26.8 20.41 23.97 18.63 26.76 16.86 23.97 15.04 26.76 13.22 23.97 11.47 26.76 9.7 23.97 7.9 26.76 6.1 23.97 4.28 23.44 4.28 23.16 25.99 23.7 25.99"/>
    <polygon class="cls-9" points="23.44 4.28 23.7 25.99 22.37 25.75 20.36 23.98 22.41 22.18 20.33 20.41 22.41 18.63 20.36 16.86 22.41 15.04 20.36 13.22 22.41 11.47 20.36 9.7 22.41 7.9 20.36 6.1 22.41 4.28 23.44 4.28"/>
    <polygon class="cls-4" points="20.2 27.92 22.64 25.75 20.63 23.98 22.68 22.18 20.6 20.41 22.68 18.63 20.63 16.86 22.68 15.04 20.63 13.22 22.68 11.47 20.63 9.7 22.68 7.9 20.63 6.1 22.68 4.28 20.09 2.08 27.77 2.08 24.24 4.28 27.03 6.1 24.24 7.9 27.03 9.7 24.24 11.47 27.03 13.22 24.24 15.04 27.03 16.86 24.24 18.63 27.07 20.41 24.24 22.18 27.03 23.98 24.29 25.75 27.62 27.92 20.2 27.92"/>
    <polygon class="cls-10" points="24.97 10.13 26.03 9.61 24.97 9.1 23.93 9.61 24.97 10.13"/>
    <polygon class="cls-10" points="24.97 13.92 26.03 13.41 24.97 12.9 23.93 13.41 24.97 13.92"/>
    <polygon class="cls-10" points="24.97 17.37 26.03 16.86 24.97 16.35 23.93 16.86 24.97 17.37"/>
    <polygon class="cls-10" points="24.97 20.99 26.03 20.48 24.97 19.97 23.93 20.48 24.97 20.99"/>
    <polygon class="cls-3" points="3.65 22.33 7.45 22.33 3.6 20.48 -.14 22.33 3.65 22.33"/>
    <polygon class="cls-3" points="3.65 18.58 7.45 18.58 3.6 16.73 -.14 18.58 3.65 18.58"/>
    <polygon class="cls-3" points="3.65 15 7.45 15 3.6 13.15 -.14 15 3.65 15"/>
    <polygon class="cls-3" points="3.65 11.42 7.45 11.42 3.6 9.57 -.14 11.42 3.65 11.42"/>
    <polygon class="cls-3" points="3.65 7.85 7.45 7.85 3.6 5.99 -.14 7.85 3.65 7.85"/>
    <polygon class="cls-5" points="27.48 23.93 24.24 22.18 27.08 20.41 24.24 18.63 27.03 16.86 24.24 15.04 27.03 13.22 24.24 11.47 27.03 9.7 24.24 7.9 27.03 6.1 24.24 4.28 28.78 4.28 27.48 23.93"/>
  </g>
  <path class="cls-7" d="M15,2.5c6.9,0,12.5,5.6,12.5,12.5s-5.6,12.5-12.5,12.5S2.5,21.9,2.5,15,8.1,2.5,15,2.5M15,1C7.28,1,1,7.28,1,15s6.28,14,14,14,14-6.28,14-14S22.72,1,15,1h0Z"/>
</svg>