<?xml version="1.0" encoding="UTF-8"?>
<svg id="Livello_1" data-name="Livello 1" xmlns="http://www.w3.org/2000/svg" xmlns:xlink="http://www.w3.org/1999/xlink" viewBox="0 0 30 30">
  <defs>
    <style>
      .cls-1 {
        clip-path: url(#clippath);
      }

      .cls-2, .cls-3 {
        fill: none;
      }

      .cls-2, .cls-4, .cls-5, .cls-6, .cls-7, .cls-8, .cls-9, .cls-10, .cls-11, .cls-12, .cls-13 {
        stroke-width: 0px;
      }

      .cls-14, .cls-5 {
        fill: #314046;
      }

      .cls-15 {
        clip-path: url(#clippath-1);
      }

      .cls-3 {
        stroke: #7e1b1b;
        stroke-miterlimit: 10;
        stroke-width: .44px;
      }

      .cls-6 {
        fill: #37221b;
      }

      .cls-7 {
        fill: #362119;
      }

      .cls-8 {
        fill: #d1d1d1;
      }

      .cls-9 {
        fill: #a32426;
      }

      .cls-10 {
        fill: #7e1b1b;
      }

      .cls-11 {
        fill: #e3c8aa;
      }

      .cls-12 {
        fill: #e8cec4;
      }

      .cls-13 {
        fill: #f6a78c;
      }
    </style>
    <clipPath id="clippath">
      <circle class="cls-2" cx="15" cy="15" r="12.5"/>
    </clipPath>
    <clipPath id="clippath-1">
      <circle class="cls-5" cx="15" cy="15" r="12.5"/>
    </clipPath>
  </defs>
  <g class="cls-1">
    <g>
      <circle class="cls-14" cx="15" cy="15" r="12.5"/>
      <g class="cls-15">
        <circle class="cls-5" cx="15" cy="15" r="12.5"/>
      </g>
    </g>
    <polygon class="cls-9" points="19.63 1.26 17.87 1.26 17.87 28.48 19.63 29.49 23.2 26.47 19.63 23.7 23.2 21.03 19.63 18.09 23.13 15.28 19.63 12.59 23.13 9.78 19.63 6.87 23.13 4.09 19.63 1.26"/>
    <rect class="cls-10" x="17.87" y="1.26" width=".42" height="27.22"/>
    <circle class="cls-12" cx="20.54" cy="4.11" r=".48"/>
    <circle class="cls-12" cx="20.54" cy="9.7" r=".48"/>
    <circle class="cls-12" cx="20.54" cy="15.3" r=".48"/>
    <circle class="cls-12" cx="20.54" cy="20.89" r=".48"/>
    <circle class="cls-12" cx="19.9" cy="26.54" r=".48"/>
    <polygon class="cls-13" points="16.96 4.19 13.39 1.18 17.87 1.26 17.87 31.33 16.24 32.34 13.39 29.41 16.96 26.63 13.39 23.8 16.96 21.02 13.39 18.19 16.96 15.41 13.39 12.58 16.96 9.8 13.39 6.97 16.96 4.19"/>
    <polyline class="cls-3" points="13.39 1.18 16.96 4.19 13.39 6.97 16.96 9.8 13.39 12.58 16.96 15.41 13.39 18.19 16.96 21.02 13.39 23.8 16.96 26.63 13.39 29.41"/>
    <polygon class="cls-6" points="23.2 4.04 19.63 6.87 23.2 9.65 19.63 12.48 23.2 15.26 19.63 18.09 23.2 20.87 19.63 23.7 23.2 26.48 28.58 26.48 28.58 4.11 23.2 4.04"/>
    <polyline class="cls-3" points="19.63 29.49 23.2 26.48 19.63 23.7 23.2 20.87 19.63 18.09 23.2 15.26 19.63 12.48 23.2 9.65 19.63 6.87 23.2 4.04 19.63 1.26"/>
    <g>
      <g>
        <path class="cls-4" d="M9.41,24.09s0,0,0,0l-.48-.23s0,0,0-.02v-.09s0-.01,0-.02l.48-.23h0s0,0,0,0h0v.11s0,.01,0,.02l-.37.17s0,0,0,0l.37.17s0,0,0,.02v.09s0,0,0,0Z"/>
        <path class="cls-4" d="M10,24.09s0,0,0,0l-.48-.23s0,0,0-.02v-.09s0-.01,0-.02l.48-.23h0s0,0,0,0h0v.11s0,.01,0,.02l-.37.17s0,0,0,0l.37.17s0,0,0,.02v.09s0,0,0,0Z"/>
        <path class="cls-4" d="M10.58,24.09s0,0,0,0l-.48-.23s0,0,0-.02v-.09s0-.01,0-.02l.48-.23h0s0,0,0,0h0v.11s0,.01,0,.02l-.37.17s0,0,0,0l.37.17s0,0,0,.02v.09s0,0,0,0Z"/>
      </g>
      <g>
        <path class="cls-4" d="M3.24,24.08s0,0,0,0l-.48-.23s0,0,0-.02v-.09s0-.01,0-.02l.48-.23h0s0,0,0,0h0v.11s0,.01,0,.02l-.37.17s0,0,0,0l.37.17s0,0,0,.02v.09s0,0,0,0Z"/>
        <path class="cls-4" d="M3.82,24.08s0,0,0,0l-.48-.23s0,0,0-.02v-.09s0-.01,0-.02l.48-.23h0s0,0,0,0h0v.11s0,.01,0,.02l-.37.17s0,0,0,0l.37.17s0,0,0,.02v.09s0,0,0,0Z"/>
        <path class="cls-4" d="M4.4,24.08s0,0,0,0l-.48-.23s0,0,0-.02v-.09s0-.01,0-.02l.48-.23h0s0,0,0,0h0v.11s0,.01,0,.02l-.37.17s0,0,0,0l.37.17s0,0,0,.02v.09s0,0,0,0Z"/>
      </g>
    </g>
    <g>
      <g>
        <path class="cls-11" d="M11.44,18.49s0,0,0,0l-.48-.23s0,0,0-.02v-.09s0-.01,0-.02l.48-.23h0s0,0,0,0h0v.11s0,.01,0,.02l-.37.17s0,0,0,0l.37.17s0,0,0,.02v.09s0,0,0,0Z"/>
        <path class="cls-11" d="M12.03,18.49s0,0,0,0l-.48-.23s0,0,0-.02v-.09s0-.01,0-.02l.48-.23h0s0,0,0,0h0v.11s0,.01,0,.02l-.37.17s0,0,0,0l.37.17s0,0,0,.02v.09s0,0,0,0Z"/>
        <path class="cls-11" d="M12.61,18.49s0,0,0,0l-.48-.23s0,0,0-.02v-.09s0-.01,0-.02l.48-.23h0s0,0,0,0h0v.11s0,.01,0,.02l-.37.17s0,0,0,0l.37.17s0,0,0,.02v.09s0,0,0,0Z"/>
      </g>
      <g>
        <path class="cls-11" d="M5.27,18.48s0,0,0,0l-.48-.23s0,0,0-.02v-.09s0-.01,0-.02l.48-.23h0s0,0,0,0h0v.11s0,.01,0,.02l-.37.17s0,0,0,0l.37.17s0,0,0,.02v.09s0,0,0,0Z"/>
        <path class="cls-11" d="M5.85,18.48s0,0,0,0l-.48-.23s0,0,0-.02v-.09s0-.01,0-.02l.48-.23h0s0,0,0,0h0v.11s0,.01,0,.02l-.37.17s0,0,0,0l.37.17s0,0,0,.02v.09s0,0,0,0Z"/>
        <path class="cls-11" d="M6.43,18.48s0,0,0,0l-.48-.23s0,0,0-.02v-.09s0-.01,0-.02l.48-.23h0s0,0,0,0h0v.11s0,.01,0,.02l-.37.17s0,0,0,0l.37.17s0,0,0,.02v.09s0,0,0,0Z"/>
      </g>
    </g>
    <g>
      <g>
        <path class="cls-4" d="M9.41,12.87s0,0,0,0l-.48-.23s0,0,0-.02v-.09s0-.01,0-.02l.48-.23h0s0,0,0,0h0v.11s0,.01,0,.02l-.37.17s0,0,0,0l.37.17s0,0,0,.02v.09s0,0,0,0Z"/>
        <path class="cls-4" d="M9.99,12.87s0,0,0,0l-.48-.23s0,0,0-.02v-.09s0-.01,0-.02l.48-.23h0s0,0,0,0h0v.11s0,.01,0,.02l-.37.17s0,0,0,0l.37.17s0,0,0,.02v.09s0,0,0,0Z"/>
        <path class="cls-4" d="M10.57,12.87s0,0,0,0l-.48-.23s0,0,0-.02v-.09s0-.01,0-.02l.48-.23h0s0,0,0,0h0v.11s0,.01,0,.02l-.37.17s0,0,0,0l.37.17s0,0,0,.02v.09s0,0,0,0Z"/>
      </g>
      <g>
        <path class="cls-4" d="M3.23,12.86s0,0,0,0l-.48-.23s0,0,0-.02v-.09s0-.01,0-.02l.48-.23h0s0,0,0,0h0v.11s0,.01,0,.02l-.37.17s0,0,0,0l.37.17s0,0,0,.02v.09s0,0,0,0Z"/>
        <path class="cls-4" d="M3.82,12.86s0,0,0,0l-.48-.23s0,0,0-.02v-.09s0-.01,0-.02l.48-.23h0s0,0,0,0h0v.11s0,.01,0,.02l-.37.17s0,0,0,0l.37.17s0,0,0,.02v.09s0,0,0,0Z"/>
        <path class="cls-4" d="M4.4,12.86s0,0,0,0l-.48-.23s0,0,0-.02v-.09s0-.01,0-.02l.48-.23h0s0,0,0,0h0v.11s0,.01,0,.02l-.37.17s0,0,0,0l.37.17s0,0,0,.02v.09s0,0,0,0Z"/>
      </g>
    </g>
    <g>
      <g>
        <path class="cls-11" d="M11.44,7.25s0,0,0,0l-.48-.23s0,0,0-.02v-.09s0-.01,0-.02l.48-.23h0s0,0,0,0h0v.11s0,.01,0,.02l-.37.17s0,0,0,0l.37.17s0,0,0,.02v.09s0,0,0,0Z"/>
        <path class="cls-11" d="M12.02,7.25s0,0,0,0l-.48-.23s0,0,0-.02v-.09s0-.01,0-.02l.48-.23h0s0,0,0,0h0v.11s0,.01,0,.02l-.37.17s0,0,0,0l.37.17s0,0,0,.02v.09s0,0,0,0Z"/>
        <path class="cls-11" d="M12.6,7.25s0,0,0,0l-.48-.23s0,0,0-.02v-.09s0-.01,0-.02l.48-.23h0s0,0,0,0h0v.11s0,.01,0,.02l-.37.17s0,0,0,0l.37.17s0,0,0,.02v.09s0,0,0,0Z"/>
      </g>
      <g>
        <path class="cls-11" d="M5.26,7.25s0,0,0,0l-.48-.23s0,0,0-.02v-.09s0-.01,0-.02l.48-.23h0s0,0,0,0h0v.11s0,.01,0,.02l-.37.17s0,0,0,0l.37.17s0,0,0,.02v.09s0,0,0,0Z"/>
        <path class="cls-11" d="M5.84,7.25s0,0,0,0l-.48-.23s0,0,0-.02v-.09s0-.01,0-.02l.48-.23h0s0,0,0,0h0v.11s0,.01,0,.02l-.37.17s0,0,0,0l.37.17s0,0,0,.02v.09s0,0,0,0Z"/>
        <path class="cls-11" d="M6.42,7.25s0,0,0,0l-.48-.23s0,0,0-.02v-.09s0-.01,0-.02l.48-.23h0s0,0,0,0h0v.11s0,.01,0,.02l-.37.17s0,0,0,0l.37.17s0,0,0,.02v.09s0,0,0,0Z"/>
      </g>
    </g>
    <rect class="cls-7" x="27.41" y="4.16" width="3.62" height="22.42"/>
    <g>
      <path class="cls-5" d="M24.34,12.92v4.68l5.16-2.42-5.16-2.27ZM25.08,13.82l3.2,1.38-3.2,1.47v-2.85Z"/>
      <path class="cls-5" d="M24.34,24.14v4.68l5.16-2.42-5.16-2.27ZM25.08,25.04l3.2,1.38-3.2,1.47v-2.85Z"/>
      <path class="cls-5" d="M24.34,1.76v4.68l5.16-2.42-5.16-2.27ZM25.08,2.66l3.2,1.38-3.2,1.47v-2.85Z"/>
      <g>
        <path class="cls-5" d="M26.18,8.2v3l3.3-1.55-3.3-1.45ZM26.65,8.77l2.05.88-2.05.94v-1.83Z"/>
        <path class="cls-5" d="M24.34,9.64l1.84,1.53v-2.97s-1.84,1.44-1.84,1.44ZM25.92,10.57l-1.14-.93,1.14-.88v1.81Z"/>
      </g>
      <g>
        <path class="cls-5" d="M26.19,19.39v3l3.3-1.55-3.3-1.45ZM26.66,19.96l2.05.88-2.05.94v-1.83Z"/>
        <path class="cls-5" d="M24.35,20.83l1.84,1.53v-2.97s-1.84,1.44-1.84,1.44ZM25.93,21.77l-1.14-.93,1.14-.88v1.81Z"/>
      </g>
      <path class="cls-5" d="M27.65,6.84l1.84,1.53v-2.97s-1.84,1.44-1.84,1.44ZM29.22,7.78l-1.14-.93,1.14-.88v1.81Z"/>
      <path class="cls-5" d="M27.65,12.46l1.84,1.53v-2.97s-1.84,1.44-1.84,1.44ZM29.22,13.4l-1.14-.93,1.14-.88v1.81Z"/>
      <path class="cls-5" d="M27.65,18.07l1.84,1.53v-2.97s-1.84,1.44-1.84,1.44ZM29.22,19.01l-1.14-.93,1.14-.88v1.81Z"/>
      <path class="cls-5" d="M27.65,23.69l1.84,1.53v-2.97s-1.84,1.44-1.84,1.44ZM29.22,24.62l-1.14-.93,1.14-.88v1.81Z"/>
    </g>
    <circle class="cls-2" cx="15" cy="15" r="12.5"/>
  </g>
  <path class="cls-8" d="M15,2.5c6.9,0,12.5,5.6,12.5,12.5s-5.6,12.5-12.5,12.5S2.5,21.9,2.5,15,8.1,2.5,15,2.5M15,1C7.28,1,1,7.28,1,15s6.28,14,14,14,14-6.28,14-14S22.72,1,15,1h0Z"/>
</svg>