<?xml version="1.0" encoding="UTF-8"?>
<svg id="Livello_1" data-name="Livello 1" xmlns="http://www.w3.org/2000/svg" xmlns:xlink="http://www.w3.org/1999/xlink" viewBox="0 0 30 30">
  <defs>
    <style>
      .cls-1 {
        clip-path: url(#clippath);
      }

      .cls-2, .cls-3, .cls-4 {
        fill: none;
      }

      .cls-2, .cls-5, .cls-6, .cls-7, .cls-8, .cls-9, .cls-10 {
        stroke-width: 0px;
      }

      .cls-3 {
        stroke: #411f14;
      }

      .cls-3, .cls-4 {
        stroke-miterlimit: 10;
        stroke-width: 1.33px;
      }

      .cls-4 {
        stroke: #a2663a;
      }

      .cls-5 {
        fill: #411f14;
      }

      .cls-6 {
        fill: #d1d1d1;
      }

      .cls-7 {
        fill: #cbcdcc;
      }

      .cls-8 {
        fill: #bbafa6;
      }

      .cls-9 {
        fill: #a2663a;
      }

      .cls-10 {
        fill: #00a7b9;
      }
    </style>
    <clipPath id="clippath">
      <path class="cls-2" d="M15,2.5c6.9,0,12.5,5.6,12.5,12.5s-5.6,12.5-12.5,12.5c-6.3,0-11.52-4.67-12.38-10.73-.08-.58-.12-1.17-.12-1.77,0-6.9,5.6-12.5,12.5-12.5Z"/>
    </clipPath>
  </defs>
  <g class="cls-1">
    <path class="cls-8" d="M15,2.5c6.9,0,12.5,5.6,12.5,12.5s-5.6,12.5-12.5,12.5c-6.3,0-11.52-4.67-12.38-10.73-.08-.58-.12-1.17-.12-1.77,0-6.9,5.6-12.5,12.5-12.5Z"/>
    <rect class="cls-5" x="15.33" y="2.5" width=".84" height="25.48"/>
    <g>
      <polygon class="cls-5" points="15.33 25.63 15.33 27.98 13.52 26.8 15.33 25.63"/>
      <polygon class="cls-5" points="15.33 23.27 15.33 25.63 13.52 24.45 15.33 23.27"/>
      <polygon class="cls-5" points="15.33 20.92 15.33 23.27 13.52 22.1 15.33 20.92"/>
      <polygon class="cls-5" points="15.33 18.57 15.33 20.92 13.52 19.75 15.33 18.57"/>
      <polygon class="cls-5" points="15.33 16.22 15.33 18.57 13.52 17.4 15.33 16.22"/>
      <polygon class="cls-5" points="15.33 13.96 15.33 16.31 13.52 15.14 15.33 13.96"/>
      <polygon class="cls-5" points="15.33 11.68 15.33 14.03 13.52 12.85 15.33 11.68"/>
      <polygon class="cls-5" points="15.33 9.35 15.33 11.7 13.52 10.53 15.33 9.35"/>
      <polygon class="cls-5" points="15.33 7 15.33 9.35 13.52 8.17 15.33 7"/>
      <polygon class="cls-5" points="15.33 4.65 15.33 7 13.52 5.82 15.33 4.65"/>
      <polygon class="cls-5" points="15.33 2.32 15.33 4.67 13.52 3.49 15.33 2.32"/>
    </g>
    <polygon class="cls-10" points="17.5 3.09 16.58 3.09 16.58 28.48 19.51 24.23 17.73 19.73 19.78 15.66 17.73 11.59 19.78 7.48 17.5 3.09"/>
    <rect class="cls-10" x="16.17" y="2.26" width=".84" height="25.48"/>
    <polygon class="cls-8" points="18.57 23.73 17.5 23.19 16.42 23.73 17.5 24.27 18.57 23.73"/>
    <polygon class="cls-8" points="18.57 15.55 17.5 15.01 16.42 15.55 17.5 16.08 18.57 15.55"/>
    <polygon class="cls-8" points="18.57 7.42 17.5 6.89 16.42 7.42 17.5 7.96 18.57 7.42"/>
    <g>
      <polygon class="cls-10" points="11.7 4.68 13.52 5.83 15.33 4.67 13.52 3.51 11.7 4.68"/>
      <polygon class="cls-9" points="12.32 4.68 13.52 5.44 14.71 4.67 13.52 3.9 12.32 4.68"/>
    </g>
    <g>
      <polygon class="cls-10" points="11.7 2.33 13.52 3.48 15.33 2.32 13.52 1.15 11.7 2.33"/>
      <polygon class="cls-9" points="12.32 2.33 13.52 3.09 14.71 2.32 13.52 1.55 12.32 2.33"/>
    </g>
    <g>
      <polygon class="cls-10" points="11.7 7.01 13.52 8.16 15.33 7 13.52 5.83 11.7 7.01"/>
      <polygon class="cls-9" points="12.32 7.01 13.52 7.77 14.71 7 13.52 6.23 12.32 7.01"/>
    </g>
    <g>
      <polygon class="cls-10" points="11.7 9.36 13.52 10.51 15.33 9.35 13.52 8.19 11.7 9.36"/>
      <polygon class="cls-9" points="12.32 9.36 13.52 10.12 14.71 9.35 13.52 8.58 12.32 9.36"/>
    </g>
    <g>
      <polygon class="cls-10" points="11.7 11.71 13.52 12.87 15.33 11.7 13.52 10.54 11.7 11.71"/>
      <polygon class="cls-9" points="12.32 11.71 13.52 12.47 14.71 11.7 13.52 10.93 12.32 11.71"/>
    </g>
    <g>
      <polygon class="cls-10" points="11.7 14.04 13.52 15.19 15.33 14.03 13.52 12.87 11.7 14.04"/>
      <polygon class="cls-9" points="12.32 14.04 13.52 14.8 14.71 14.03 13.52 13.26 12.32 14.04"/>
    </g>
    <g>
      <polygon class="cls-10" points="11.7 16.32 13.52 17.48 15.33 16.31 13.52 15.15 11.7 16.32"/>
      <polygon class="cls-9" points="12.32 16.32 13.52 17.08 14.71 16.31 13.52 15.54 12.32 16.32"/>
    </g>
    <g>
      <polygon class="cls-10" points="11.7 18.58 13.52 19.74 15.33 18.57 13.52 17.41 11.7 18.58"/>
      <polygon class="cls-9" points="12.32 18.58 13.52 19.34 14.71 18.57 13.52 17.8 12.32 18.58"/>
    </g>
    <g>
      <polygon class="cls-10" points="11.7 20.93 13.52 22.09 15.33 20.92 13.52 19.76 11.7 20.93"/>
      <polygon class="cls-9" points="12.32 20.93 13.52 21.69 14.71 20.92 13.52 20.15 12.32 20.93"/>
    </g>
    <g>
      <polygon class="cls-10" points="11.7 23.29 13.52 24.44 15.33 23.27 13.52 22.11 11.7 23.29"/>
      <polygon class="cls-9" points="12.32 23.28 13.52 24.04 14.71 23.27 13.52 22.51 12.32 23.28"/>
    </g>
    <g>
      <polygon class="cls-10" points="11.7 25.64 13.52 26.79 15.33 25.63 13.52 24.46 11.7 25.64"/>
      <polygon class="cls-9" points="12.32 25.63 13.52 26.39 14.71 25.63 13.52 24.86 12.32 25.63"/>
    </g>
    <g>
      <polygon class="cls-10" points="11.7 27.99 13.52 29.14 15.33 27.98 13.52 26.81 11.7 27.99"/>
      <polygon class="cls-9" points="12.32 27.99 13.52 28.75 14.71 27.98 13.52 27.21 12.32 27.99"/>
    </g>
    <polygon class="cls-7" points="19.78 3.09 17.19 2.5 19.78 7.48 17.73 11.59 19.78 15.66 17.73 19.73 19.78 23.73 17.73 27.68 19.78 31.79 21.85 31.36 20.02 27.68 22.06 23.73 20.02 19.73 22.06 15.66 20.02 11.59 22.06 7.48 19.78 3.09"/>
    <polyline class="cls-4" points="17.73 35.91 19.78 31.79 17.73 27.68 19.78 23.73 17.73 19.73 19.78 15.66 17.73 11.59 19.78 7.48 17.19 2.5 19.78 .96"/>
    <polyline class="cls-3" points="19.47 2.5 22.06 7.48 20.02 11.59 22.06 15.66 20.02 19.73 22.06 23.73 20.02 27.68 22.06 31.79 20.02 35.91"/>
    <rect class="cls-5" x="22.75" y="11.62" width="5.53" height="5.53"/>
    <g>
      <polygon class="cls-10" points="23.7 14.4 25.52 15.55 27.33 14.38 25.52 13.22 23.7 14.4"/>
      <polygon class="cls-9" points="24.32 14.39 25.52 15.15 26.72 14.38 25.52 13.62 24.32 14.39"/>
    </g>
    <rect class="cls-10" x="22.75" y="17.15" width="5.53" height="5.53"/>
    <rect class="cls-9" x="23.31" y="17.48" width="4.97" height="4.87"/>
    <polygon class="cls-7" points="23.31 17.48 23.31 22.34 25.79 19.91 23.31 17.48"/>
    <rect class="cls-5" x="22.75" y="22.67" width="5.53" height="5.53"/>
    <g>
      <polygon class="cls-10" points="23.7 25.45 25.52 26.6 27.33 25.44 25.52 24.27 23.7 25.45"/>
      <polygon class="cls-9" points="24.32 25.44 25.52 26.2 26.72 25.44 25.52 24.67 24.32 25.44"/>
    </g>
    <rect class="cls-10" x="22.75" y="6.1" width="5.53" height="5.53"/>
    <rect class="cls-9" x="23.31" y="6.43" width="4.97" height="4.87"/>
    <polygon class="cls-7" points="23.31 6.43 23.31 11.29 25.79 8.86 23.31 6.43"/>
    <rect class="cls-5" x="22.75" y=".57" width="5.53" height="5.53"/>
    <g>
      <polygon class="cls-10" points="23.7 3.35 25.52 4.5 27.33 3.33 25.52 2.17 23.7 3.35"/>
      <polygon class="cls-9" points="24.32 3.34 25.52 4.1 26.72 3.33 25.52 2.57 24.32 3.34"/>
    </g>
  </g>
  <path class="cls-6" d="M15,2.5c6.9,0,12.5,5.6,12.5,12.5s-5.6,12.5-12.5,12.5S2.5,21.9,2.5,15,8.1,2.5,15,2.5M15,1C7.28,1,1,7.28,1,15s6.28,14,14,14,14-6.28,14-14S22.72,1,15,1h0Z"/>
</svg>