<?xml version="1.0" encoding="UTF-8"?>
<svg id="Livello_1" data-name="Livello 1" xmlns="http://www.w3.org/2000/svg" xmlns:xlink="http://www.w3.org/1999/xlink" viewBox="0 0 30 30">
  <defs>
    <style>
      .cls-1 {
        clip-path: url(#clippath);
      }

      .cls-2, .cls-3, .cls-4, .cls-5, .cls-6 {
        fill: none;
      }

      .cls-2, .cls-7, .cls-8, .cls-9, .cls-10, .cls-11, .cls-12, .cls-13, .cls-14 {
        stroke-width: 0px;
      }

      .cls-3 {
        stroke: #e97f4c;
      }

      .cls-3, .cls-4 {
        stroke-width: 1.33px;
      }

      .cls-3, .cls-4, .cls-5, .cls-6 {
        stroke-miterlimit: 10;
      }

      .cls-4 {
        stroke: #411f14;
      }

      .cls-5 {
        stroke: #bbb29c;
        stroke-width: .22px;
      }

      .cls-6 {
        stroke: #23a4a0;
        stroke-width: .22px;
      }

      .cls-7 {
        fill: #6f5344;
      }

      .cls-8 {
        fill: #1d1d1b;
      }

      .cls-9 {
        fill: #411f14;
      }

      .cls-10 {
        fill: #23a4a0;
      }

      .cls-11 {
        fill: #d1d1d1;
      }

      .cls-12 {
        fill: #bbb29c;
      }

      .cls-13 {
        fill: #312828;
      }

      .cls-14 {
        fill: #e97f4c;
      }
    </style>
    <clipPath id="clippath">
      <path class="cls-2" d="M15,2.5c6.9,0,12.5,5.6,12.5,12.5s-5.6,12.5-12.5,12.5c-6.3,0-11.52-4.67-12.38-10.73-.08-.58-.12-1.17-.12-1.77,0-6.9,5.6-12.5,12.5-12.5Z"/>
    </clipPath>
  </defs>
  <g class="cls-1">
    <path class="cls-10" d="M15,2.5c6.9,0,12.5,5.6,12.5,12.5s-5.6,12.5-12.5,12.5c-6.3,0-11.52-4.67-12.38-10.73-.08-.58-.12-1.17-.12-1.77,0-6.9,5.6-12.5,12.5-12.5Z"/>
    <polygon class="cls-9" points="13.35 1.65 11.26 2.85 11.26 31.25 15.78 27.64 15.36 1.38 13.35 1.65"/>
    <rect class="cls-12" x="9.92" y="4.51" width="2.61" height="2.61" transform="translate(-.82 9.64) rotate(-45)"/>
    <polygon class="cls-7" points="15.33 25.63 15.33 27.98 13.52 26.8 15.33 25.63"/>
    <polygon class="cls-7" points="15.33 23.27 15.33 25.63 13.52 24.45 15.33 23.27"/>
    <polygon class="cls-7" points="15.33 20.92 15.33 23.27 13.52 22.1 15.33 20.92"/>
    <rect class="cls-9" x="15.33" y="2.5" width=".84" height="25.48"/>
    <polygon class="cls-7" points="15.33 18.57 15.33 20.92 13.52 19.75 15.33 18.57"/>
    <polygon class="cls-7" points="15.33 16.22 15.33 18.57 13.52 17.4 15.33 16.22"/>
    <polygon class="cls-7" points="15.33 13.96 15.33 16.31 13.52 15.14 15.33 13.96"/>
    <polygon class="cls-7" points="15.33 11.68 15.33 14.03 13.52 12.85 15.33 11.68"/>
    <polygon class="cls-7" points="15.33 9.35 15.33 11.7 13.52 10.53 15.33 9.35"/>
    <polygon class="cls-7" points="15.33 7 15.33 9.35 13.52 8.17 15.33 7"/>
    <polygon class="cls-7" points="15.33 4.65 15.33 7 13.52 5.82 15.33 4.65"/>
    <polygon class="cls-7" points="15.33 2.32 15.33 4.67 13.52 3.49 15.33 2.32"/>
    <rect class="cls-12" x="9.92" y="8.12" width="2.61" height="2.61" transform="translate(-3.37 10.7) rotate(-45)"/>
    <rect class="cls-12" x="9.92" y="11.72" width="2.61" height="2.61" transform="translate(-5.92 11.75) rotate(-45)"/>
    <rect class="cls-12" x="9.92" y="15.32" width="2.61" height="2.61" transform="translate(-8.46 12.81) rotate(-45)"/>
    <rect class="cls-12" x="9.92" y="18.94" width="2.61" height="2.61" transform="translate(-11.02 13.87) rotate(-45)"/>
    <rect class="cls-12" x="9.92" y="22.55" width="2.61" height="2.61" transform="translate(-13.58 14.93) rotate(-45)"/>
    <rect class="cls-12" x="9.92" y="26.15" width="2.61" height="2.61" transform="translate(-16.12 15.98) rotate(-45)"/>
    <rect class="cls-12" x="9.92" y=".92" width="2.61" height="2.61" transform="translate(1.72 8.59) rotate(-45)"/>
    <rect class="cls-13" x="10.47" y="1.46" width="1.52" height="1.52" transform="translate(1.72 8.59) rotate(-45)"/>
    <rect class="cls-14" x="10.87" y="1.87" width=".71" height=".71" transform="translate(1.72 8.59) rotate(-45)"/>
    <rect class="cls-13" x="10.47" y="5.06" width="1.52" height="1.52" transform="translate(-.82 9.64) rotate(-45)"/>
    <rect class="cls-14" x="10.87" y="5.46" width=".71" height=".71" transform="translate(-.82 9.64) rotate(-45)"/>
    <rect class="cls-13" x="10.47" y="8.66" width="1.52" height="1.52" transform="translate(-3.37 10.7) rotate(-45)"/>
    <rect class="cls-14" x="10.87" y="9.07" width=".71" height=".71" transform="translate(-3.37 10.7) rotate(-45)"/>
    <rect class="cls-13" x="10.5" y="12.26" width="1.52" height="1.52" transform="translate(-5.91 11.77) rotate(-45)"/>
    <rect class="cls-14" x="10.9" y="12.67" width=".71" height=".71" transform="translate(-5.91 11.77) rotate(-45)"/>
    <rect class="cls-13" x="10.5" y="15.83" width="1.52" height="1.52" transform="translate(-8.44 12.82) rotate(-45)"/>
    <rect class="cls-14" x="10.9" y="16.24" width=".71" height=".71" transform="translate(-8.44 12.82) rotate(-45)"/>
    <rect class="cls-13" x="10.5" y="19.48" width="1.52" height="1.52" transform="translate(-11.01 13.89) rotate(-45)"/>
    <rect class="cls-14" x="10.9" y="19.88" width=".71" height=".71" transform="translate(-11.01 13.89) rotate(-45)"/>
    <rect class="cls-13" x="10.5" y="23.07" width="1.52" height="1.52" transform="translate(-13.55 14.94) rotate(-45)"/>
    <rect class="cls-14" x="10.9" y="23.47" width=".71" height=".71" transform="translate(-13.55 14.94) rotate(-45)"/>
    <rect class="cls-13" x="10.5" y="26.66" width="1.52" height="1.52" transform="translate(-16.09 15.99) rotate(-45)"/>
    <rect class="cls-14" x="10.9" y="27.07" width=".71" height=".71" transform="translate(-16.09 15.99) rotate(-45)"/>
    <polygon class="cls-12" points="17.5 3.09 16.58 3.09 16.58 28.48 19.51 24.23 17.73 19.73 19.78 15.66 17.73 11.59 19.78 7.48 17.5 3.09"/>
    <polyline class="cls-4" points="21.05 2.5 23.64 7.48 21.6 11.59 23.64 15.66 21.6 19.73 23.64 23.73 21.6 27.68 23.64 31.79 21.6 35.91"/>
    <rect class="cls-10" x="16.17" y="2.26" width=".84" height="25.48"/>
    <polygon class="cls-9" points="17.5 3.09 18.34 2.32 22.78 4.27 23.89 7.48 22.14 11.59 23.89 15.66 22.14 19.73 23.89 23.73 22.53 26.8 17.7 27.68 19.23 24.23 17.7 19.73 19.46 15.66 17.7 11.59 19.46 7.48 17.5 3.09"/>
    <polyline class="cls-5" points="18.18 2.5 20.77 7.48 18.73 11.59 20.77 15.66 18.73 19.73 20.77 23.73 18.73 27.68 20.77 31.79 18.73 35.91"/>
    <polyline class="cls-3" points="19.47 2.5 22.06 7.48 20.02 11.59 22.06 15.66 20.02 19.73 22.06 23.73 20.02 27.68 22.06 31.79 20.02 35.91"/>
    <polyline class="cls-6" points="20.77 2.5 23.35 7.48 21.31 11.59 23.35 15.66 21.31 19.73 23.35 23.73 21.31 27.68 23.35 31.79 21.31 35.91"/>
    <rect class="cls-9" x="23.89" y="5.42" width="1.31" height="25.48"/>
    <line class="cls-5" x1="24.55" y1="5.42" x2="24.55" y2="30.9"/>
    <polygon class="cls-7" points="23.89 16.55 23.89 22.8 22.31 19.75 23.89 16.55"/>
    <polygon class="cls-7" points="23.89 8.45 23.89 14.66 22.24 11.56 23.89 8.45"/>
    <polygon class="cls-7" points="17.83 22.64 17.29 23.71 17.83 24.79 18.37 23.72 17.83 22.64"/>
    <polygon class="cls-7" points="17.83 14.47 17.29 15.54 17.83 16.62 18.37 15.55 17.83 14.47"/>
    <polygon class="cls-7" points="17.83 6.3 17.29 7.37 17.83 8.45 18.37 7.38 17.83 6.3"/>
    <g>
      <g>
        <path class="cls-14" d="M8.53,23.81s-.93-.59-1.66-.6c-.73-.01-.99.24-1.24.3s-.61.04-.61.22.18.15.32.07.24-.12.37-.02,1.37.76,2.81.02Z"/>
        <path class="cls-8" d="M8.53,23.81c-.79-.48-1.78-.83-2.65-.38-.21.17-.74.07-.83.3.03.3.4-.07.57-.01.88.52,2,.56,2.92.09h0ZM8.53,23.81c-.83.44-1.87.48-2.72.05-.14-.09-.27-.16-.41-.06-.12.09-.41.16-.39-.08.1-.28.62-.14.86-.33.88-.44,1.89-.08,2.67.41h0Z"/>
      </g>
      <g>
        <path class="cls-14" d="M7.26,23.69s-.53-.18-1.63-.17"/>
        <path class="cls-8" d="M7.26,23.69c-.53-.12-1.08-.15-1.63-.17.54-.03,1.1,0,1.63.17,0,0-.52-.17,0,0Z"/>
      </g>
    </g>
    <g>
      <g>
        <path class="cls-14" d="M8.53,20.19s-.93-.59-1.66-.6c-.73-.01-.99.24-1.24.3s-.61.04-.61.22.18.15.32.07.24-.12.37-.02,1.37.76,2.81.02Z"/>
        <path class="cls-8" d="M8.53,20.19c-.79-.48-1.78-.83-2.65-.38-.21.17-.74.07-.83.3.03.3.4-.07.57-.01.87.52,2,.56,2.92.09h0ZM8.53,20.19c-.83.44-1.87.48-2.72.05-.14-.09-.27-.16-.41-.06-.12.09-.41.16-.39-.08.1-.28.62-.14.86-.33.88-.44,1.89-.08,2.67.41h0Z"/>
      </g>
      <g>
        <path class="cls-14" d="M7.26,20.06s-.53-.18-1.63-.17"/>
        <path class="cls-8" d="M7.26,20.06c-.53-.12-1.08-.15-1.63-.17.54-.03,1.1,0,1.63.17,0,0-.52-.17,0,0Z"/>
      </g>
    </g>
    <g>
      <g>
        <path class="cls-14" d="M8.53,16.51s-.93-.59-1.66-.6-.99.24-1.24.3-.61.04-.61.22.18.15.32.07.24-.12.37-.02,1.37.76,2.81.02Z"/>
        <path class="cls-8" d="M8.53,16.51c-.79-.48-1.78-.83-2.65-.38-.21.17-.74.07-.83.3.03.3.4-.07.57-.01.87.52,2,.56,2.92.09h0ZM8.53,16.51c-.83.44-1.87.48-2.72.05-.14-.09-.27-.16-.41-.06-.12.09-.41.16-.39-.08.1-.28.62-.14.86-.33.88-.44,1.89-.08,2.67.41h0Z"/>
      </g>
      <g>
        <path class="cls-14" d="M7.26,16.38s-.53-.18-1.63-.17"/>
        <path class="cls-8" d="M7.26,16.38c-.53-.12-1.08-.15-1.63-.17.54-.03,1.1,0,1.63.17,0,0-.52-.17,0,0Z"/>
      </g>
    </g>
    <g>
      <g>
        <path class="cls-14" d="M8.53,12.99s-.93-.59-1.66-.6-.99.24-1.24.3-.61.04-.61.22.18.15.32.07.24-.12.37-.02,1.37.76,2.81.02Z"/>
        <path class="cls-8" d="M8.53,12.99c-.79-.48-1.78-.83-2.65-.38-.21.17-.74.07-.83.3.03.3.4-.07.57-.01.88.52,2,.56,2.92.09h0ZM8.53,12.99c-.83.44-1.87.48-2.72.05-.14-.09-.27-.16-.41-.06-.12.09-.41.16-.39-.08.1-.28.62-.14.86-.33.88-.44,1.89-.08,2.67.41h0Z"/>
      </g>
      <g>
        <path class="cls-14" d="M7.26,12.87s-.53-.18-1.63-.17"/>
        <path class="cls-8" d="M7.26,12.87c-.53-.12-1.08-.15-1.63-.17.54-.03,1.1,0,1.63.17,0,0-.52-.17,0,0Z"/>
      </g>
    </g>
    <g>
      <g>
        <path class="cls-14" d="M8.53,9.38s-.93-.59-1.66-.6-.99.24-1.24.3-.61.04-.61.22.18.15.32.07.24-.12.37-.02,1.37.76,2.81.02Z"/>
        <path class="cls-8" d="M8.53,9.38c-.79-.48-1.78-.83-2.65-.38-.21.17-.74.07-.83.3.03.3.4-.07.57-.01.87.52,2,.56,2.92.09h0ZM8.53,9.38c-.83.44-1.87.48-2.72.05-.14-.09-.27-.16-.41-.06-.12.09-.41.16-.39-.08.1-.28.62-.14.86-.33.88-.44,1.89-.08,2.67.41h0Z"/>
      </g>
      <g>
        <path class="cls-14" d="M7.26,9.25s-.53-.18-1.63-.17"/>
        <path class="cls-8" d="M7.26,9.25c-.53-.12-1.08-.15-1.63-.17.54-.03,1.1,0,1.63.17,0,0-.52-.17,0,0Z"/>
      </g>
    </g>
    <g>
      <g>
        <path class="cls-14" d="M8.53,5.76s-.93-.59-1.66-.6-.99.24-1.24.3-.61.04-.61.22.18.15.32.07.24-.12.37-.02,1.37.76,2.81.02Z"/>
        <path class="cls-8" d="M8.53,5.76c-.79-.48-1.78-.83-2.65-.38-.21.17-.74.07-.83.3.03.3.4-.07.57-.01.87.52,2,.56,2.92.09h0ZM8.53,5.76c-.83.44-1.87.48-2.72.05-.14-.09-.27-.16-.41-.06-.12.09-.41.16-.39-.08.1-.28.62-.14.86-.33.88-.44,1.89-.08,2.67.41h0Z"/>
      </g>
      <g>
        <path class="cls-14" d="M7.26,5.63s-.53-.18-1.63-.17"/>
        <path class="cls-8" d="M7.26,5.63c-.53-.12-1.08-.15-1.63-.17.54-.03,1.1,0,1.63.17,0,0-.52-.17,0,0Z"/>
      </g>
    </g>
    <polyline class="cls-4" points="17.19 2.5 19.78 7.48 17.73 11.59 19.78 15.66 17.73 19.73 19.78 23.73 17.73 27.68 19.78 31.79 17.73 35.91"/>
  </g>
  <path class="cls-11" d="M15,2.5c6.9,0,12.5,5.6,12.5,12.5s-5.6,12.5-12.5,12.5S2.5,21.9,2.5,15,8.1,2.5,15,2.5M15,1C7.28,1,1,7.28,1,15s6.28,14,14,14,14-6.28,14-14S22.72,1,15,1h0Z"/>
</svg>