<svg id="Livello_1" data-name="Livello 1" xmlns="http://www.w3.org/2000/svg" viewBox="0 0 30 30"><defs><style>.cls-1{fill:none;stroke:#000;stroke-miterlimit:10;stroke-width:0.5px;}.cls-2{fill:#d1d1d1;}</style></defs><path d="M4.26,15.57v1.25H3.54V13.27H4.75a1.14,1.14,0,0,1,.84.32,1.2,1.2,0,0,1,.32.85,1.13,1.13,0,0,1-.31.83,1.2,1.2,0,0,1-.86.3Zm0-.6h.49a.39.39,0,0,0,.32-.13.62.62,0,0,0,.11-.39A.72.72,0,0,0,5.07,14a.36.36,0,0,0-.31-.16h-.5Z"/><path d="M8.74,15.37a1.71,1.71,0,0,1-.34,1.11,1.19,1.19,0,0,1-.94.39,1.19,1.19,0,0,1-.94-.39,1.66,1.66,0,0,1-.35-1.1v-.61a1.78,1.78,0,0,1,.34-1.14,1.17,1.17,0,0,1,.94-.41,1.16,1.16,0,0,1,.94.4,1.76,1.76,0,0,1,.35,1.14ZM8,14.77a1.5,1.5,0,0,0-.14-.72.46.46,0,0,0-.43-.23A.45.45,0,0,0,7,14a1.4,1.4,0,0,0-.14.69v.64a1.33,1.33,0,0,0,.14.68.53.53,0,0,0,.85,0A1.42,1.42,0,0,0,8,15.39Z"/><path d="M10.6,15.89a.44.44,0,0,0-.11-.33,1.35,1.35,0,0,0-.4-.23,1.85,1.85,0,0,1-.77-.47,1,1,0,0,1-.24-.65.9.9,0,0,1,.32-.72,1.24,1.24,0,0,1,.81-.27,1.17,1.17,0,0,1,.59.14.92.92,0,0,1,.39.39,1.15,1.15,0,0,1,.14.57h-.72a.58.58,0,0,0-.1-.38.37.37,0,0,0-.31-.13.36.36,0,0,0-.29.11.41.41,0,0,0-.11.3.37.37,0,0,0,.12.26,1.55,1.55,0,0,0,.41.25,1.76,1.76,0,0,1,.76.46,1,1,0,0,1,.24.69.91.91,0,0,1-.3.73,1.18,1.18,0,0,1-.8.26,1.46,1.46,0,0,1-.63-.14,1,1,0,0,1-.44-.41A1.12,1.12,0,0,1,9,15.7h.72a.67.67,0,0,0,.12.45.5.5,0,0,0,.39.14C10.48,16.29,10.6,16.16,10.6,15.89Z"/><path d="M14,13.87h-.87v3h-.73v-3h-.86v-.6H14Z"/><path d="M16.05,15.28H14.94v1h1.32v.59h-2V13.27h2v.6H14.94v.84h1.11Z"/><path d="M17.6,15.52h-.36v1.3h-.72V13.27h1.15a1.13,1.13,0,0,1,.83.28,1,1,0,0,1,.3.79,1,1,0,0,1-.52,1l.62,1.46v0h-.77Zm-.36-.59h.41a.37.37,0,0,0,.32-.15.61.61,0,0,0,.11-.38c0-.36-.14-.53-.42-.53h-.42Z"/><path d="M19.89,16.82h-.72V13.27h.72Z"/><path d="M22.84,15.37a1.71,1.71,0,0,1-.33,1.11,1.33,1.33,0,0,1-1.88,0,1.61,1.61,0,0,1-.35-1.1v-.61a1.72,1.72,0,0,1,.34-1.14,1.29,1.29,0,0,1,1.88,0,1.71,1.71,0,0,1,.34,1.14Zm-.72-.6a1.52,1.52,0,0,0-.13-.72.48.48,0,0,0-.43-.23.45.45,0,0,0-.42.22,1.4,1.4,0,0,0-.14.69v.64a1.23,1.23,0,0,0,.14.68.46.46,0,0,0,.43.22.49.49,0,0,0,.42-.21,1.32,1.32,0,0,0,.13-.67Z"/><path d="M24.29,15.52h-.36v1.3h-.72V13.27h1.15a1.14,1.14,0,0,1,.83.28,1,1,0,0,1,.29.79,1,1,0,0,1-.51,1l.62,1.46v0h-.77Zm-.36-.59h.41a.37.37,0,0,0,.32-.15.61.61,0,0,0,.11-.38c0-.36-.14-.53-.42-.53h-.42Z"/><path d="M26.58,16.82h-.72V13.27h.72Z"/><circle class="cls-1" cx="15" cy="15" r="12.5"/><path class="cls-2" d="M15,2.5A12.5,12.5,0,1,1,2.5,15,12.5,12.5,0,0,1,15,2.5M15,1A14,14,0,1,0,29,15,14,14,0,0,0,15,1Z"/></svg>