<svg id="Livello_1" data-name="Livello 1" xmlns="http://www.w3.org/2000/svg" xmlns:xlink="http://www.w3.org/1999/xlink" viewBox="0 0 30 30"><defs><style>.cls-1{fill:none;}.cls-2{clip-path:url(#clip-path);}.cls-3{fill:#303131;}.cls-4{fill:#d8d7d7;}.cls-5{fill:#88be77;}.cls-6{fill:#d1494b;}.cls-7{fill:#85b16c;}.cls-8{fill:#c0bcb9;}.cls-9{fill:#879f59;}.cls-10{fill:#a1a7af;}.cls-11{fill:#c8c8c8;}.cls-12{fill:#7e97aa;}.cls-13{fill:#e79ea4;}.cls-14{fill:#d1d1d1;}</style><clipPath id="clip-path"><circle class="cls-1" cx="15" cy="15" r="12.5"/></clipPath></defs><g class="cls-2"><path class="cls-3" d="M14.31,2.59H18c-.08,1,.05,1.15,1.08,1.06.2.48.55.5,1,.32,0,.29.14.37.4.4a.85.85,0,0,1,.65.28,2.12,2.12,0,0,0,1.75.79l.1.57.1.48c.13,1.34,1.29,1.88,2.67,1.25h.4l.08.24c-.28,0-.76,0-.52.47s-.06.57-.09.84l-.26.11c-.16-.33-.38-.59-.77-.54s-.47.38-.61.66a3,3,0,0,0-.12,1.32,3.09,3.09,0,0,1-.26-.37.94.94,0,0,0-1.17-.54c-.65.17-.41.75-.46,1.19a.68.68,0,0,0-.38.9.85.85,0,0,0,.87.6l.61,0v.17a1.35,1.35,0,0,0-.55,1.52c.14.59.69.32,1.07.4.25.52.65.42,1.07.24a2,2,0,0,1,.52,1.47c-.3-.08-.56-.29-.89-.27-.14-.26-.41-.32-.65-.41a7.6,7.6,0,0,0-1.81-.5v0l-.13-.11-.56-.17-.39-.21c0-.3.09-.6.12-.91a.25.25,0,0,0-.2-.3c-.14,0-.33,0-.35.11-.09.45-.61.72-.53,1.23l-.4.12h-.82l.14-.81c.49-.26,0-.64.11-.95.12-.1.24-.31.34-.3.54.06.51-.31.56-.65.56-.17.75-.32.61-.49-.52-.6,0-.65.38-.72.67-.12.73-.26.34-.86a3.17,3.17,0,0,1-.19-.42,7,7,0,0,1,1.48-1.12c0,.1,0,.32.19.23s0-.22,0-.33c.51-.68-.19-1-.43-1.47L21.34,5.9c0-.25-.14-.33-.35-.33l-1-.48a2.11,2.11,0,0,0-.88-.42L17.3,4.21l-.82-.27-.15-.06A3.75,3.75,0,0,0,14.7,4l-.79.09c-.57-.11-.58.28-.6.66-.59.19-.94.07-.91-.64a2.58,2.58,0,0,0-.12-.59c.18,0,.49.15.52-.08.07-.45.5-.34.7-.56.21,0,0,.52.41.36A.58.58,0,0,0,14.31,2.59Zm6.62,10.68s.1-.1.08-.12-.08-.16-.15-.18-.15.06-.14.16S20.81,13.27,20.93,13.27ZM21,12.6c.1,0,.15,0,.14-.13a.15.15,0,0,0-.09-.07.55.55,0,0,0-.15.08Z"/><path class="cls-3" d="M19.05,27.42H15.94v-.53c.3-.71-.22-.73-.67-.81l0-.19a.9.9,0,0,1,.07-.37c.24-.37-.11-.42-.28-.5-.38-.16-.29.18-.33.36l-.64-.14c-.16-.12,0-.5-.38-.44-.16,0-.48,0-.44.19.08.35-.33.55-.17.87l-.25.08-.27-.09c0-.18-.05-.31-.25-.33.13-.31.12-.57-.25-.71l-.2-.32c0-.17.12-.42-.13-.48s-.11.19-.13.31l-.25,0-.08-.25h-.39a.08.08,0,0,1-.08,0c0-.07-.09-.08-.14,0l-.27,0v-.56h.05a3.84,3.84,0,0,0,2.81,0l.26.06c0,.1,0,.24.1.27s.16-.08.18-.18a1.13,1.13,0,0,1,.78.29l.59.66c0,.09,0,.12.11.11a.28.28,0,0,0,.12,0l.11.09,0-.09v0a1,1,0,0,0,1-.51l.11,0a.59.59,0,0,0,.69.06,1.48,1.48,0,0,1,.82-.19,1.42,1.42,0,0,0,.07.79c-.12.29-.5.52-.29.89a1,1,0,0,0,1,.48h.59A2.13,2.13,0,0,0,19.05,27.42Z"/><path class="cls-3" d="M12.28,3.53a2.58,2.58,0,0,1,.12.59c0,.71.32.83.91.64l.1.7-.05.66-1,.14c-.28-.42-.78-.49-1.19-.69a4.12,4.12,0,0,0,.27-.45c.32-.72.11-1-.68-1-.58-.42-.91-.39-1.34.16-.15.19-.26.41-.39.61L9,5.16H8.89c-.64-.53-1.28-.38-1.78.41-.25,0-.26.22-.25.42l-.13.13a.68.68,0,0,0-.55.32A2.79,2.79,0,0,1,5,7.34a.26.26,0,0,0-.2-.2.52.52,0,0,1,.31-.54c.79-.27.74-1,.9-1.6l.42-.37c.19,0,.36,0,.41-.24.35-.24.7-.48,1.06-.71s.39-.36.2-.67c-.07-.12-.21-.26,0-.42H9A1.72,1.72,0,0,0,10.87,3c.5.3,1-.09,1.51,0Z"/><path class="cls-3" d="M22.81,5.44a2.12,2.12,0,0,1-1.75-.79.85.85,0,0,0-.65-.28c-.26,0-.42-.11-.4-.4a2.13,2.13,0,0,0,.54-1.38H21c.57.54.9.54,1.49,0h1.49a.94.94,0,0,0,1.36,0h.27a2,2,0,0,0,1.07.18.85.85,0,0,1,.83.36V5.58c-.23,0-.43.19-.67.12-.29-.36.06-.89-.32-1.23,0-.26-.19-.39-.36-.53L26,3.82l-.11,0a.7.7,0,0,0-1-.28h-.42a1.09,1.09,0,0,0-.83.51,1.12,1.12,0,0,0-.52.72Z"/><path class="cls-3" d="M2.52,14.12V12H2.9l.05.41c-.05.19.07.26.22.32.25,1,.25,1,1.23.65.15.05.21-.06.29-.15l.81,0,.81.26a7.43,7.43,0,0,1,1.86,1l.57.71.28.49a.49.49,0,0,1,0,.12l0,0-.27.1-.12,0c-.22-.26-.57-.25-.83-.41,0-.19,0-.39-.12-.53s-.35-.14-.41.14H7.13c-.42,0-.63-.62-1.14-.39l-.14-.06c-.11-.18-.23-.31-.46-.25-.25-.46-.71-.28-1.08-.38a.32.32,0,0,0-.32.16l-.73.52C3,14.49,3,14,2.52,14.12Z"/><path class="cls-3" d="M27.46,25.25v1.08h-.14c-.08-.15-.19-.13-.3,0l-.36,0c-.19-.24-.38-.19-.57,0-.23,0-.47-.1-.66.1s-.71.55-.55,1.09H21.77c-.05-.4-.1-.8-.14-1.19l.52.38c.83.29,1.21.06,1.36-.82.43-.21.44-.44,0-.68l0-.41a1.52,1.52,0,0,1,.77-.27,2.12,2.12,0,0,1,.32.81c.19.67.31.7.93.33.37-.23.72-.56,1.22-.47C27,25.36,27.25,25.15,27.46,25.25Z"/><path class="cls-3" d="M25.11,16.4a2,2,0,0,0-.52-1.47,2.35,2.35,0,0,0,.29-1.49l.15,0a1.74,1.74,0,0,0,1.08.75L27.2,16c0,.31-.29.62,0,.94,0,.29-.11.66.3.81v.28c-.34,0-.66-.2-1-.12l-.5-.69a.57.57,0,0,0,0-.13c.1-.5.09-.51-.54-.55Z"/><path class="cls-3" d="M25.55,9.3c0-.27.27-.47.09-.84s.24-.42.52-.47c.24.13.34-.1.49-.19l.13.22c0,.11,0,.23.14.29l.11.11c-.07.37-.19.76.43.68v4.48c-.52-.15-.07-.74-.43-1,0-.92-.18-1.13-1.11-1.2-.13,0-.27,0-.35-.14A1.25,1.25,0,0,0,26,9.37l-.2-.11Z"/><path class="cls-4" d="M2.52,15.75v-.27c.43.09.31-.41.56-.53.25.06.52.39.7.23.57-.53,1.07-.27,1.58,0h0c0,.34.36.75,0,1s-.19.49-.19.76l-.11.12-.28,0c-.16,0-.32,0-.42.15s-.08.46-.13.69-.27.26-.46.19-.38-.1-.27-.36.13-.27.2-.41c.22,0,.18-.15.06-.26a2.3,2.3,0,0,1-.5-.7v-.26c.1-.2.26-.4,0-.63-.19.2-.08.42-.13.61C3,15.94,3,15.52,2.52,15.75Zm1.69-.17c-.21.16-.52.27-.54.55s.09.7.5.2c.06-.08.12.07.13.15s.2.2.2.12c0-.32.43-.47.31-.75S4.44,15.68,4.21,15.58Z"/><path class="cls-3" d="M2.52,7.47V6.93c.73-.31.87-.64.56-1.35-.11-.27.11-.22.22-.28.84-.48,1.1-1,.82-1.65.09-.17.29-.35,0-.5.16-.18.5-.21.45-.56h.27c.06.12.18.14.29.18a.39.39,0,0,0,.09.36c.21.5.72.37,1.1.51V3.7a.64.64,0,0,0-.52.12c-.15,0-.26,0-.25.21,0,.76-.2,1-.94.83-.25-.05-.41,0-.42.23,0,.59-.45,1-.7,1.44l0,.19,0,0C3,6.87,3,7.5,2.52,7.47Z"/><path class="cls-3" d="M2.52,20.77v-.54c.93-.16.83-1.24,1.49-1.65l.54,0c.45.13.89.29,1.34.39s.75.35.53.89a1,1,0,0,0-1-.14c-.7-.57-1.16-.41-1.41.44-.12.4.1.75,0,1.13A1.44,1.44,0,0,0,2.52,20.77Z"/><path class="cls-5" d="M4.12,3.65c.28.64,0,1.17-.82,1.65-.11.06-.33,0-.22.28.31.71.17,1-.56,1.35V3.81c.16,0,.26-.1.39-.16a1,1,0,0,0,.6-.12C3.67,3.77,3.91,3.64,4.12,3.65Z"/><path class="cls-3" d="M27.46,23.35v.54l-.41-.1a.13.13,0,0,0-.12-.05c-.9-.47-.89-.47-1.17.39a.87.87,0,0,1-.09.11c-.23-.13-.44-.34-.74-.23a1,1,0,0,1,.07-.83c.18-.27,0-.34-.24-.38-.2-.22-.63-.11-.72-.49,0-.2.05-.41.3-.46.24.31.5.52.9.27.14-.09.3-.08.3.1,0,.68.44.5.83.45A.89.89,0,0,0,27.46,23.35Z"/><path class="cls-6" d="M12.82,25.94l.25-.08c.09-.11.18-.24.35-.21a4.1,4.1,0,0,1,1.44.13h0c0,.34.39.68,0,1-.07-.06-.16-.11-.19-.19-.14-.31-.36-.35-.66-.27s-.25.28-.26.49c0,.38.27.32.51.36a2.78,2.78,0,0,1,.38.12.24.24,0,0,1-.06.11H13.09a1.13,1.13,0,0,1-.3-1v-.2Z"/><path class="cls-3" d="M26.45,17.94c.35-.08.67.12,1,.12v2.71c-.3.1-.69.06-.68.54h-.13c0-.44-.69-.53-.54-1l.8-.71c.23-.19.36-.38.1-.66s-.24-.53-.5-.7Z"/><path class="cls-3" d="M27,12.62c.36.22-.09.81.43,1V16H27.2c-.37-.62-.73-1.24-1.09-1.86.74-.09.73-.58.58-1.13Z"/><path class="cls-3" d="M8.62,27.42H7.94s0-.05,0-.08l0-1c0-.16.22-.3,0-.47-.22.1-.12.3-.15.46-.24-.47-.84-.53-1.29-1.08a1.44,1.44,0,0,0,1.66-.37,1.08,1.08,0,0,1,.87-.3l-.17.25c-.36.1-.22.44-.3.67a1,1,0,0,0,0,.88l.07.31C8.45,26.94,8.75,27.17,8.62,27.42Z"/><path class="cls-3" d="M4,18.58c-.66.41-.56,1.49-1.49,1.65V17.51c.16-.15.2,0,.29.11C2.85,18.39,3.58,18.3,4,18.58Z"/><path class="cls-7" d="M2.52,20.77A1.44,1.44,0,0,1,4,21.32H4c.1.3.21.58.55.68h0c0,.15,0,.31-.12.42A5,5,0,0,0,2.52,22Z"/><path class="cls-8" d="M2.52,25.65V24.7l.94,0c.21.12.42.23.62.36A1.63,1.63,0,0,1,5,26.18l-.18.17c-.44,0-.57-.52-1-.56s-.55-.76-.92-.08Z"/><path class="cls-9" d="M21.63,26.23l.14,1.19H20.41a2.77,2.77,0,0,0,.14-1c.23-.23.16-.61.43-.82l.25.14h0l.2.13A.25.25,0,0,1,21.63,26.23Z"/><path class="cls-9" d="M20.55,2.59A2.13,2.13,0,0,1,20,4c-.41.18-.76.16-1-.32.08-.36.35-.66.28-1.06Z"/><path class="cls-7" d="M20.55,26.47a2.77,2.77,0,0,1-.14,1H19.05a2.13,2.13,0,0,1,.41-1.22h0l.14-.14h.27C19.91,26.5,20.25,26.46,20.55,26.47Z"/><path class="cls-8" d="M8.07,2.59c-.16.16,0,.3,0,.42.19.31.05.5-.2.67s-.71.47-1.06.71l-.14,0V3.69l.14-.15c.5-.12.64-.5.67-1Z"/><path class="cls-9" d="M2.52,22a5,5,0,0,1,1.91.42l-.15.26h0a.25.25,0,0,0-.27.27H4c-.22,0-.38,0-.41.27H3.19a1.7,1.7,0,0,0-.67-.8Z"/><path class="cls-5" d="M19.33,2.59c.07.4-.2.7-.28,1.06-1,.09-1.16,0-1.08-1.06Z"/><path class="cls-9" d="M27.46,23.35a.89.89,0,0,1-1.09-.68l0-.25.45-.44h.62Z"/><path class="cls-4" d="M10.24,27.42h-.13v-.28c0-.45-.76-.7-.38-1.28.32.69.87.4,1.36.33a.44.44,0,0,1,.25.55c-.35-.06-.28.56-.48.41C10.41,26.84,10.38,27.19,10.24,27.42Z"/><path class="cls-10" d="M7.26,27.42h-1c.07-.34-.23-.41-.41-.57v-.63A4.65,4.65,0,0,1,7.4,27Z"/><path class="cls-11" d="M5.9,26.22v.63a.45.45,0,0,0-.4.57H5.09l0-.4-.26-.38v-.29L5,26.18C5.3,25.85,5.61,25.79,5.9,26.22Z"/><path class="cls-3" d="M2.52,11.68V9.78h.54a.31.31,0,0,1,.27.18l-.14.37a2.62,2.62,0,0,0-.29,1.5Z"/><path class="cls-3" d="M2.52,25.65l.39.06.3.66.12.21.12.25a.49.49,0,0,0-.26.59h-.4l0-.15a.05.05,0,0,0,0-.08c.11-.06.24-.12.16-.27s-.18-.06-.28,0l-.15,0Z"/><path class="cls-6" d="M27.46,5.85v2.3a.26.26,0,0,1-.3-.12,6.39,6.39,0,0,1-.25-1.44A1,1,0,0,1,27.46,5.85Z"/><path class="cls-3" d="M12.3,25.52c.2,0,.26.15.25.33s-.07.25.06.35l0,.26c0,.4,0,.78-.42,1h-.27l0-.52c-.14-.44.43-.59.41-1v-.39Z"/><path class="cls-12" d="M10.87,3A1.72,1.72,0,0,1,9,2.59h2.31Z"/><path class="cls-10" d="M27.46,5.85a1,1,0,0,0-.55.74c-.11.08-.19.23-.36.14.11-.39-.18-.48-.45-.58a.67.67,0,0,1,.69-.45c.24.07.44-.11.67-.12Z"/><path class="cls-7" d="M27.46,22h-.7a1.42,1.42,0,0,0,0-.68c0-.48.38-.44.68-.54Z"/><path class="cls-11" d="M12.28,3.53l.1-.53,0-.41H13.5v.3c-.2.22-.63.11-.7.56C12.77,3.68,12.46,3.51,12.28,3.53Z"/><path class="cls-12" d="M3.51,3.53a1,1,0,0,1-.6.12A1.44,1.44,0,0,0,3.21,3a1.27,1.27,0,0,0,.93-.41h.41c0,.35-.29.38-.45.56Z"/><path class="cls-6" d="M6.3,3.64c-.38-.14-.89,0-1.1-.51l0-.33.13-.21H5.9c0,.36,0,.82.55.81l0,.14Z"/><path class="cls-8" d="M27.05,23.79l.41.1v1.36c-.21-.1-.5.11-.67-.15A2,2,0,0,0,27.05,23.79Z"/><path class="cls-12" d="M24.88,27.42c-.16-.54.21-.81.55-1.09.15.22,0,.62.4.68l0,0-.15.39Z"/><path class="cls-13" d="M6.45,3.4c-.59,0-.5-.45-.55-.81h.95v.54h0C6.72,3.23,6.66,3.43,6.45,3.4Z"/><path class="cls-3" d="M3.08,15c-.25.12-.13.62-.56.53V14.12c.48-.13.5.37.74.56Z"/><path class="cls-3" d="M2.52,8.7V8.29l0,0h.06c.36.19.72.35,1-.1l.22-.26.28-.22L4.28,8a.69.69,0,0,1,0,.13.11.11,0,0,1-.08,0c-.42.2-.63.71-1.16.72A.68.68,0,0,0,2.52,8.7Z"/><path class="cls-3" d="M3.19,23.2h.28c-.14.35-.38.7,0,1l0,.05c-.45.06-.61-.39-.94-.55v-.4A.94.94,0,0,0,3.19,23.2Z"/><path class="cls-4" d="M2.63,8.28H2.57l0,0V7.47c.52,0,.49-.6.88-.73l.2.06A3.22,3.22,0,0,1,2.9,8Z"/><path class="cls-12" d="M10.1,27.14v.28H8.62c.13-.25-.17-.48,0-.73.25.2.45.64.82.14C9.55,27.16,9.83,27.15,10.1,27.14Z"/><path class="cls-4" d="M2.81,17.62c-.09-.06-.13-.26-.29-.11v-1l.7-.14,0,.67C2.93,17.17,2.94,17.45,2.81,17.62Z"/><path class="cls-3" d="M12.41,2.59l0,.41c-.5-.12-1,.27-1.51,0l.46-.38Z"/><path class="cls-3" d="M2.52,23.75c.33.16.49.61.94.55v.42l-.94,0Z"/><path class="cls-4" d="M4.14,2.59A1.27,1.27,0,0,1,3.21,3H2.52c0-.23-.09-.48.34-.42A9.1,9.1,0,0,0,4.14,2.59Z"/><path class="cls-8" d="M27.16,8a.26.26,0,0,0,.3.12V9.1c-.62.08-.5-.31-.43-.68,0-.08,0-.11-.11-.11s-.13-.18-.14-.29h.28Z"/><path class="cls-12" d="M3.22,16.42l-.7.14v-.81c.43-.23.47.19.66.39l.12,0a2.35,2.35,0,0,1,0,.26Z"/><path class="cls-7" d="M22.44,2.59c-.59.54-.92.54-1.49,0Z"/><path class="cls-4" d="M13.5,2.89v-.3h.81a.58.58,0,0,1-.4.66C13.53,3.41,13.71,2.93,13.5,2.89Z"/><path class="cls-3" d="M3.19,23.2a.94.94,0,0,1-.67.15v-1A1.7,1.7,0,0,1,3.19,23.2Z"/><path class="cls-4" d="M25.7,27.42l.15-.39.79-.09.28.48Z"/><path class="cls-3" d="M2.52,3h.69a1.44,1.44,0,0,1-.3.65c-.13.06-.23.2-.39.16Z"/><path class="cls-11" d="M2.52,8.7a.68.68,0,0,1,.54.17l0,.14,0,.33a.63.63,0,0,1-.52.17Z"/><path class="cls-3" d="M5.06,27l0,.4H3.87L3.66,27C4.12,27.07,4.58,27.32,5.06,27Z"/><path class="cls-10" d="M10.24,27.42c.14-.23.17-.58.61-.27.2.15.13-.47.48-.41v.68Z"/><path class="cls-10" d="M12.14,27.42c.46-.18.46-.56.42-1h.23a1.13,1.13,0,0,0,.3,1Z"/><path class="cls-3" d="M5.5,27.42a.45.45,0,0,1,.4-.57c.18.16.48.23.41.57Z"/><path class="cls-3" d="M25.29,2.59a.94.94,0,0,1-1.36,0Z"/><path class="cls-4" d="M11.33,27.42v-.53a.32.32,0,0,1,.51,0l0,.52Z"/><path class="cls-3" d="M27.2,16h.26V17h-.3C26.91,16.65,27.23,16.34,27.2,16Z"/><path class="cls-11" d="M7.53,2.59c0,.45-.17.83-.67,1,0-.13,0-.27,0-.41h0c.32,0,.39-.33.55-.54Z"/><path class="cls-3" d="M15.94,26.89v.53h-.68l0-.29C15.44,27,15.63,26.75,15.94,26.89Z"/><path class="cls-8" d="M3.66,27l.21.46H3.19a.49.49,0,0,1,.26-.59Z"/><path class="cls-12" d="M27.46,26.6c-.17.26.4.88-.41.82v-.25c.17-.09.13-.27.16-.42a.17.17,0,0,0,0-.1Z"/><path class="cls-8" d="M27.46,3.13a.85.85,0,0,0-.83-.36l0-.18C27,2.66,27.62,2.3,27.46,3.13Z"/><path class="cls-4" d="M7.4,2.59c-.16.21-.23.5-.55.54V2.59Z"/><path class="cls-11" d="M27.16,17h.3v.81C27.05,17.63,27.2,17.26,27.16,17Z"/><path class="cls-3" d="M26.65,2.59l0,.18a2,2,0,0,1-1.07-.18Z"/><path class="cls-10" d="M27.05,27.17v.25h-.13c-.1-.16-.19-.32-.28-.48v0l.4-.15Z"/><path class="cls-3" d="M2.52,9.51A.63.63,0,0,0,3,9.34l0,.43H2.52Z"/><path class="cls-3" d="M14.58,27.42a.24.24,0,0,0,.06-.11l.23-.31.25.14,0,0h0l-.2.29Z"/><path class="cls-8" d="M7.26,27.42,7.4,27l.52.35s0,.05,0,.08Z"/><path class="cls-3" d="M2.52,11.68l.38.14V12H2.52Z"/><path class="cls-12" d="M2.52,26.87l.15,0,.12.29a.05.05,0,0,1,0,.08l-.29-.12Z"/><path class="cls-10" d="M5.36,2.59a2.39,2.39,0,0,1-.13.21.13.13,0,0,0-.12,0c-.11,0-.23-.06-.29-.18Z"/><path class="cls-10" d="M15,27.42l.2-.29h0l0,.29Z"/><path class="cls-11" d="M2.52,27.15l.29.12,0,.15Q2.43,27.49,2.52,27.15Z"/><path class="cls-11" d="M27.46,26.6l-.22,0c0-.06,0-.12,0-.18l.13-.15h.14Z"/><path class="cls-4" d="M21.34,5.9,22,7a4.15,4.15,0,0,0-1.06.89c-.66-.25-1,0-1,.69a.14.14,0,0,1,0,.06c-.4.2-.67.6-1.13.71l-.23-.18a3.87,3.87,0,0,0-1.63-.82A10.62,10.62,0,0,1,18,5.78c.14-.32.21-.62.69-.54s.42-.27.41-.57a2.11,2.11,0,0,1,.88.42c-.23.4-.45.81-.68,1.22l-.13,0c-.36,0-.75.09-.85.51a.84.84,0,0,0,.34.81c.29.16.52-.25.77-.43a1.07,1.07,0,0,0,.22-.25A5.58,5.58,0,0,0,21,5.85Z"/><path class="cls-4" d="M13.36,6.12l.05-.66c.2,0,.53,0,.46-.31s.08-.7,0-1.05L14.7,4a5,5,0,0,1,.15,1.22,2,2,0,0,0-.34.22c-.2.23-.52.48-.33.81s.46.52.67.5.29-.49.39-.78c0-.12.08-.25.12-.37.18-.27.16-.64.44-.85.06.15.17.52.3.25s.52-.63.38-1.07l.82.27A6.16,6.16,0,0,0,17,5.68c-.25.05-.55-.25-.74.11s0,.6.2.87a13.61,13.61,0,0,1-.28,1.55,2.66,2.66,0,0,0-1.4-.06,10.71,10.71,0,0,1-1.27.13l-.18-.8Z"/><path class="cls-4" d="M18.51,14.93h.82l.12,1.17c-.11.1-.24.2-.34.31-.35.38-.6.6.08,1.07s.55,0,.65-.28a1.49,1.49,0,0,0,.14-.78c.31,0-.05-1,.65-.44,0,0,.13-.09.12-.11-.1-.4.42-.59.33-1l.56.17c0,.08,0,.13.13.11v0l-.13,1.36c-.23,0-.49-.22-.68.07s0,.51.14.74a1.7,1.7,0,0,0,.15.22,9.12,9.12,0,0,1-.3,1.47l-.4-.06c-.13-.11-.25-.06-.37,0h0l-1.63.14-.22-.07-.15-.66a2.53,2.53,0,0,0,0-.95l0-.68,0-.54h.26c.18-.08.36-.17.14-.4a1.8,1.8,0,0,0-.11-.89Z"/><path class="cls-4" d="M26.45,17.94l.06.25a1.7,1.7,0,0,0-.79.43c-.39-.48-.66,0-1,.12l-.1.92c-.37.21-.61.59-1,.73l-.21-.18c-.14-.39-.5-.44-.84-.52a1.11,1.11,0,0,0-.82-.27l-.13-.15c.24-.79.68-1.51.86-2.33a.29.29,0,0,1,.18-.18c.62-.08.71-.6.9-1,.24.09.51.15.65.41l-.3,1.3a1.38,1.38,0,0,0-.26-.06c-.3,0-.61.05-.71.38s.17.59.35.76.43-.16.64-.28.17-.2.25-.31c.24,0,.37-.18.56-.28.18.08.24.53.46.29s.66-.29.74-.68Z"/><path class="cls-9" d="M27,12.62,26.7,13c-.39-.17-.79-.34-1.17-.52s-.59-.33-.94-.14c-.14-.36-.33-.55-.65-.15h0a.29.29,0,0,0-.27.13h0a.85.85,0,0,0-.66.24l-.61,0a.85.85,0,0,1-.87-.6.68.68,0,0,1,.38-.9c.61-.05,1,.42,1.55.59.18.06.33.33.53.13s.08-.42,0-.63l-.18-.37a3,3,0,0,1,.12-1.32c.14-.28.25-.61.61-.66s.61.21.77.54v.36a5.18,5.18,0,0,0-.59,1.56c0,.14-.21.29-.07.42s.34,0,.5-.06a.48.48,0,0,0,.3-.42h.14c.08.14.22.13.35.14C26.85,11.49,27,11.7,27,12.62Z"/><path class="cls-8" d="M20.93,7.93A4.15,4.15,0,0,1,22,7c.24.46.94.79.43,1.47l-.14.1A7,7,0,0,0,20.8,9.73c-.61,0-.79.8-1.4.84l-.6-.93-.05-.25c.46-.11.73-.51,1.13-.71Q20.9,9,20.93,7.93Z"/><path class="cls-8" d="M23.57,15.72c-.19.44-.28,1-.9,1a.29.29,0,0,0-.18.18c-.18.82-.62,1.54-.86,2.33l-.55-.07-.14-.12a9.12,9.12,0,0,0,.3-1.47c.34-.06.66-.17.75-.54s-.18-.37-.36-.49l.13-1.36A7.6,7.6,0,0,1,23.57,15.72Z"/><path class="cls-8" d="M16.2,8.21a13.61,13.61,0,0,0,.28-1.55.81.81,0,0,0,.8-.46c.11-.25,0-.42-.26-.52a6.16,6.16,0,0,1,.28-1.47l1.76.46c0,.3-.08.62-.41.57s-.55.22-.69.54a10.62,10.62,0,0,0-1.07,2.61A1.51,1.51,0,0,1,16.2,8.21Z"/><path class="cls-5" d="M23.52,14.69c-.38-.08-.93.19-1.07-.4A1.35,1.35,0,0,1,23,12.77a1,1,0,0,0,.66-.41h0a.24.24,0,0,0,.27-.13h0c.25,0,.43.08.39.38C23.77,13.19,23.81,14,23.52,14.69Z"/><path class="cls-3" d="M19.4,10.57c.61,0,.79-.79,1.4-.84a3.17,3.17,0,0,0,.19.42c.39.6.33.74-.34.86-.39.07-.9.12-.38.72.14.17-.05.32-.61.49-.11-.19-.31-.08-.46-.14.06-.27-.28-.53-.08-.75s.06-.5-.11-.71Z"/><path class="cls-5" d="M23.79,10.85l.18.37c.09.21.19.45,0,.63s-.35-.07-.53-.13c-.53-.17-.94-.64-1.55-.59.05-.44-.19-1,.46-1.19a.94.94,0,0,1,1.17.54A3.09,3.09,0,0,0,23.79,10.85Z"/><path class="cls-9" d="M23.52,14.69c.29-.68.25-1.5.81-2.08l.55.83a2.35,2.35,0,0,1-.29,1.49C24.17,15.11,23.77,15.21,23.52,14.69Z"/><path class="cls-8" d="M19.45,16.11l-.12-1.17.4-.12a2.24,2.24,0,0,0,1-.13l.39.21c.09.39-.43.58-.33,1,0,0-.11.11-.12.11-.7-.55-.34.43-.65.44Z"/><path class="cls-12" d="M25.68,7.74c-1.38.63-2.54.09-2.67-1.25l.48,0,.6.35c.07.24-.52.45,0,.71s.46-.07.51-.36l.72,0c0,.26.2.29.4.26Z"/><path class="cls-8" d="M23.92,17.43l.3-1.3c.33,0,.59.19.89.27l.29.17,0,.36-.69.71c-.19.1-.32.29-.56.28A.86.86,0,0,1,23.92,17.43Z"/><path class="cls-8" d="M19.26,6.31c.23-.41.45-.82.68-1.22l1,.48,0,.28a5.58,5.58,0,0,1-1.34,1.08Z"/><path class="cls-8" d="M14.85,5.23A5,5,0,0,0,14.7,4a3.75,3.75,0,0,1,1.63-.13c-.18.05-.36.11-.4.34s-.13.35-.13.54h0c-.28.21-.26.58-.44.85Z"/><path class="cls-7" d="M25.29,9.77V9.41l.26-.11.22,0,.2.11a1.25,1.25,0,0,1-.4,1.91h-.14C25.42,10.77,25.69,10.24,25.29,9.77Z"/><path class="cls-3" d="M20.69,14.69a2.24,2.24,0,0,1-1,.13c-.08-.51.44-.78.53-1.23,0-.12.21-.15.35-.11a.25.25,0,0,1,.2.3C20.78,14.09,20.73,14.39,20.69,14.69Z"/><path class="cls-3" d="M25.68,7.74V7.46c.26-.22.18-.51.15-.79l.27-.52c.27.1.56.19.45.58,0,.11,0,.22,0,.33s0,.09,0,.13c-.19.14-.48.22-.41.56Z"/><path class="cls-10" d="M13.91,4.1c0,.35-.12.68,0,1.05s-.26.27-.46.31l-.1-.7C13.33,4.38,13.34,4,13.91,4.1Z"/><path class="cls-12" d="M22.81,5.44l.3-.69.44.14c-.2.37.37.52.25.87-.33,0-.68-.15-.89.25Z"/><path class="cls-8" d="M19.2,12.08c.15.06.35-.05.46.14-.05.34,0,.71-.56.65-.1,0-.22.2-.34.3h-.23s0-.07,0-.11l.12-.28c.14,0,.15-.18.17-.29C19.13,12.5,19.21,12.33,19.2,12.08Z"/><path class="cls-4" d="M22.91,6c.21-.4.56-.28.89-.25v.06l-.3.65-.48,0C23,6.33,22.94,6.17,22.91,6Z"/><path class="cls-4" d="M18.53,13.18h.23c-.1.31.38.69-.11.95h-.41a.45.45,0,0,0-.25-.42Z"/><path class="cls-11" d="M15.93,4.22c0-.23.22-.29.4-.34l.15.06c.14.44-.23.75-.38,1.07s-.24-.1-.3-.25h0C16,4.61,15.93,4.41,15.93,4.22Z"/><path class="cls-3" d="M18.24,14.13h.41l-.14.81-.12.06L18,15v-.58Z"/><path class="cls-11" d="M26.08,7.75c-.07-.34.22-.42.41-.56l.22,0,0,.31-.08.34c-.15.09-.25.32-.49.19Z"/><path class="cls-3" d="M23.66,12.36a1,1,0,0,1-.66.41V12.6A.85.85,0,0,1,23.66,12.36Z"/><path class="cls-3" d="M20.93,13.27c-.12,0-.2,0-.21-.14s.05-.18.14-.16.12.11.15.18S21,13.24,20.93,13.27Z"/><path class="cls-3" d="M21,12.6l-.1-.12a.55.55,0,0,1,.15-.08.15.15,0,0,1,.09.07C21.15,12.55,21.1,12.59,21,12.6Z"/><path class="cls-3" d="M21,5.85l0-.28c.21,0,.36.08.35.33Z"/><path class="cls-3" d="M22.28,8.61l.14-.1c0,.11.18.27,0,.33S22.33,8.71,22.28,8.61Z"/><path class="cls-3" d="M21.77,15.18c-.09,0-.13,0-.13-.11Z"/><path class="cls-4" d="M14.55,23.91a1.13,1.13,0,0,0-.78-.29.27.27,0,0,0-.28-.09l-.26-.06-.68-.14c.09-.95.55-1.81.69-2.74,0-.23.28-.21.4-.34a.9.9,0,0,0,.4-1h.4l0,0h0c.09.22.29.24.48.26l-.27,1.32c-.4-.07-.66.19-.94.4s-.2.35,0,.43.23.72.64.47a1,1,0,0,0,.62-.87c.34.05.4-.32.63-.43.13.07.21.36.42.12s.64-.29.92-.5l.15,0,.21.23.11.25a2.25,2.25,0,0,0-.86,1.09c-.74-.15-1,.23-.89.89A1.86,1.86,0,0,1,14.55,23.91Z"/><path class="cls-3" d="M17.47,21l-.11-.25c.35,0,.61-.35,1-.31.39.2.54.83,1.14.63l.23,0v.24a.86.86,0,0,0,.55.8,1.79,1.79,0,0,0-.4,1.37c-.11.05-.13.15-.14.26-.57-.11-1.16-.35-1.61.28a1.48,1.48,0,0,0-.82.19.59.59,0,0,1-.69-.06c.16-.33.52-.46.76-.7.08,0,.2,0,.23-.08s0-.15-.12-.19l.47-.53c.16,0,.38.1.44-.13s-.14-.13-.23-.16l.21-.51c0-.21,0-.4-.3-.38l0,0,0,0c0-.21-.1-.29-.3-.27Zm2,1.89c.13,0,.28-.11.24-.31s-.07-.29-.23-.27a.32.32,0,0,0-.32.35C19.13,22.85,19.26,22.9,19.43,22.92Z"/><path class="cls-8" d="M18.37,21.86l-.21.51-.21.29-.47.53-.11.27c-.24.24-.6.37-.76.7l-.11,0c-.56-.29-.78.08-1,.51v0h-.16a.28.28,0,0,1-.12,0l-.11-.11-.59-.66a1.86,1.86,0,0,0,1.17-.9c.84,0,.84,0,.89-.89A2.25,2.25,0,0,1,17.47,21l.3.18a.5.5,0,0,0,.3.27l0,0,0,0Z"/><path class="cls-5" d="M18.12,24c.45-.63,1-.39,1.61-.28.24.26.32.66.68.82h0l.13.14h0a.28.28,0,0,0,.14.28h0l-.1.28c-.78-.23-1.61-.17-2.38-.44A1.42,1.42,0,0,1,18.12,24Z"/><path class="cls-9" d="M18.19,24.82c.77.27,1.6.21,2.38.44-.1.13-.2.26-.29.4h0l-.14.13h0c-.18,0-.36,0-.39.26H19.6c-.08,0-.14.05-.14.14h-.59a1,1,0,0,1-1-.48C17.69,25.34,18.07,25.11,18.19,24.82Z"/><path class="cls-11" d="M10.42,23.44h-.05l-.26.06-.82.12L9,23.35,8.8,22c.22,0,.49,0,.58.24a.89.89,0,0,0,.78.63c.18,0,.28.21.36.38Z"/><path class="cls-12" d="M8.87,24.83,9,24.58A4.34,4.34,0,0,1,10.1,24h.28l.27,0h.14a.08.08,0,0,0,.08,0c.13.1.26.16.39,0,0,.09.05.17.08.25s-.4.26-.42.54l-.27-.14a1.25,1.25,0,0,0-.16-.35c-.14-.17-.33-.05-.49,0a.32.32,0,0,0-.23.36c0,.18.2.14.32.15l-.52.41h0C9.46,24.88,9.13,24.91,8.87,24.83Z"/><path class="cls-3" d="M10.42,23.44l.1-.2h1.22a1.32,1.32,0,0,0,.81.1l.68.14A3.84,3.84,0,0,1,10.42,23.44Z"/><path class="cls-8" d="M15.22,27.13h-.07l0,0,.15-1.06c.45.08,1,.1.67.81C15.63,26.75,15.44,27,15.22,27.13Z"/><path class="cls-10" d="M13.42,25.65c-.17,0-.26.1-.35.21-.16-.32.25-.52.17-.87,0-.17.28-.16.44-.19.35-.06.22.32.38.44C13.88,25.43,13.54,25.37,13.42,25.65Z"/><path class="cls-11" d="M10.92,24.83c0-.27.35-.3.42-.53l.25,0,.26.17a3.45,3.45,0,0,0,.2.32c-.2.08-.2.25-.21.42l-.25,0h0l-.14-.14h0c0-.3-.22-.27-.41-.27Z"/><path class="cls-8" d="M14.7,25.38c0-.18,0-.52.33-.36.17.08.52.13.28.5a.9.9,0,0,0-.07.37c-.15.07-.25-.07-.38-.11h0Z"/><path class="cls-3" d="M14.7,25.38l.16.4a4.1,4.1,0,0,0-1.44-.13c.12-.28.46-.22.64-.41Z"/><path class="cls-10" d="M15.54,24.69c.18-.43.4-.8,1-.51A1,1,0,0,1,15.54,24.69Z"/><path class="cls-12" d="M11.84,25.23c0-.17,0-.34.21-.42.37.14.38.4.25.71h-.06C11.93,25.66,12,25.34,11.84,25.23Z"/><path class="cls-3" d="M14.86,25.78c.13,0,.23.18.38.11l0,.19-.15,1.06L14.87,27v-.2C15.25,26.46,14.81,26.12,14.86,25.78Z"/><path class="cls-3" d="M11.85,24.49l-.26-.17c0-.12,0-.34.13-.31S11.83,24.32,11.85,24.49Z"/><path class="cls-3" d="M10.38,24H10.1V23.5l.26-.06Z"/><path class="cls-3" d="M13.49,23.53a.27.27,0,0,1,.28.09c0,.1,0,.23-.18.18S13.53,23.63,13.49,23.53Z"/><path class="cls-12" d="M12.61,26.2c-.13-.1-.09-.23-.06-.35l.27.09,0,.31Z"/><path class="cls-3" d="M11.26,24.05c-.13.16-.26.1-.39,0Z"/><path class="cls-3" d="M10.79,24h-.14C10.7,24,10.74,24,10.79,24Z"/><path class="cls-10" d="M15.14,24.57l.11.11C15.17,24.69,15.13,24.66,15.14,24.57Z"/><path class="cls-10" d="M15.37,24.72h.16l0,.09Z"/><path class="cls-11" d="M3.6,6.8l-.2-.06,0,0c0-.06.12-.12,0-.19.25-.47.68-.85.7-1.44,0-.25.17-.28.42-.23.74.16,1-.07.94-.83,0-.2.1-.22.25-.21s.24.36.44.28.08-.26.08-.4V3.64l.17-.1.25.15v.65c-.12.07-.24.14-.27.29L6,5c-.18.13-.34.29-.52.4-.42.26-.87.49-.85,1.09l-.43,0c-.3-.16-.44,0-.52.26Z"/><path class="cls-9" d="M11.2,5.57c.41.2.91.27,1.19.69-.05.22-.09.44-.13.66l-.4.42a8.48,8.48,0,0,0-2.2-.67l0-.42h0L10,6.11h0L10.24,6h0c.28,0,.58,0,.68-.4Z"/><path class="cls-9" d="M6.73,6.12,6.86,6l.25-.15,2.06.54h0v.15L9,6.8a1.1,1.1,0,0,0-.8.41c-.57.34-1.09,0-1.61-.16A2.28,2.28,0,0,1,6.73,6.12Z"/><path class="cls-5" d="M11.2,5.57h-.28a1.14,1.14,0,0,0-.68.4h0L10,6.12h0l-.25,0c0-.43.29-.74.39-1.13a1.8,1.8,0,0,0,.68-.9c.79,0,1,.27.68,1A4.12,4.12,0,0,1,11.2,5.57Z"/><path class="cls-5" d="M9.17,6.38,7.11,5.84V5.57c.5-.79,1.14-.94,1.78-.41C8.82,5.6,9.19,5.94,9.17,6.38Z"/><path class="cls-3" d="M6.73,6.12a2.28,2.28,0,0,0-.12.93l-.16,0c-.35,0-.42.3-.55.54a.53.53,0,0,1-.6.5c-.35,0-.67.07-1,.05a.69.69,0,0,0,0-.13c.19-.29.79-.14.74-.69a2.79,2.79,0,0,0,1.16-.9A.68.68,0,0,1,6.73,6.12Z"/><path class="cls-9" d="M10.79,4.13a1.8,1.8,0,0,1-.68.9,2,2,0,0,0-1-.13c.13-.2.24-.42.39-.61C9.88,3.74,10.21,3.71,10.79,4.13Z"/><path class="cls-3" d="M4.66,6.49c0-.6.43-.83.85-1.09.18-.11.34-.27.52-.4-.16.61-.11,1.33-.9,1.6a.52.52,0,0,0-.31.54.11.11,0,0,1-.13,0Z"/><path class="cls-3" d="M12.26,6.92c0-.22.08-.44.13-.66l1-.14V7.48C12.89,7.48,12.62,7.1,12.26,6.92Z"/><path class="cls-7" d="M9.06,4.9a2,2,0,0,1,1,.13c-.1.39-.41.7-.39,1.13,0,0,0,.06,0,.09h0c-.59-.14-.35-.8-.7-1.09Z"/><path class="cls-3" d="M9,5.16c.35.29.11,1,.7,1.09,0,.14,0,.28,0,.42.08.34.39.61.32,1l-.54-.75c0-.33-.26-.1-.4-.11H9l.14-.27c.06,0,.11-.1,0-.15h0c0-.44-.35-.78-.28-1.22Z"/><path class="cls-11" d="M4.69,7.16a.11.11,0,0,0,.13,0,.26.26,0,0,1,.2.2c.05.55-.55.4-.74.69L4.15,7.7v0l.14-.21h0C4.52,7.49,4.49,7.18,4.69,7.16Z"/><path class="cls-3" d="M6.45,4.63c0-.15.15-.22.27-.29l.14,0C6.81,4.62,6.64,4.63,6.45,4.63Z"/><path class="cls-3" d="M7.11,5.57v.27L6.86,6C6.85,5.79,6.86,5.61,7.11,5.57Z"/><path class="cls-12" d="M26.1,6.15l-.27.52-.4,0V6.53a.59.59,0,0,1,.13-.43,1,1,0,0,0-.24-1.65c-.49-.34-.84.09-1.25.18,0-.3-.33-.38-.44-.6a1.09,1.09,0,0,1,.83-.51l0,.63c.13-.24,1.07.1.46-.63a.7.7,0,0,1,1,.28c-.46.48.17.68.19,1.07.21-.14.22-.38.43-.4.38.34,0,.87.32,1.23A.67.67,0,0,0,26.1,6.15Z"/><path class="cls-4" d="M23.63,4c.11.22.42.3.44.6h0a.63.63,0,0,0-.46.28h-.06l-.44-.14A1.12,1.12,0,0,1,23.63,4Z"/><path class="cls-11" d="M26.47,4.47c-.21,0-.22.26-.43.4,0-.39-.65-.59-.19-1.07l.11,0,.15.12C26.28,4.08,26.47,4.21,26.47,4.47Z"/><path class="cls-11" d="M24.88,3.52c.61.73-.33.39-.46.63l0-.63Z"/><path class="cls-12" d="M26.11,3.94,26,3.82Z"/><path class="cls-4" d="M8.17,14.42a7.43,7.43,0,0,0-1.86-1A2.39,2.39,0,0,1,6.85,12c.56-.64,1.33-1,1.79-1.78l.65.32c.14.56-.34.93-.43,1.42a.88.88,0,0,0-.71,0c-.2.08-.52.06-.36.39s.19.65.65.41a2,2,0,0,0,.63-.35,9.05,9.05,0,0,0,1.45-1c.61.19.8.71,1,1.24-.48,0-.81.41-1.25.53-.71-.29-.74.27-.88.7A3.12,3.12,0,0,1,8.17,14.42Z"/><path class="cls-4" d="M2.9,12v-.13a2.62,2.62,0,0,1,.29-1.5c.25,0,.57.08.56-.35l.8,0a2,2,0,0,1-.14.91c-.41-.06-.6.27-.86.47s-.09.29.05.41c.37.35.67.29.89-.16.07-.14.15-.28.23-.41.38-.09.39-1,1-.46a1.3,1.3,0,0,0,.15-.2,2,2,0,0,0,.27-.82l.8.17-.53,1.3c-.45,0-.92-.06-.66.64L5.5,13.16l-.81,0c-.24-.22-.25,0-.29.15-1,.39-1,.39-1.23-.65A.24.24,0,0,0,3,12.36Z"/><path class="cls-3" d="M8.74,15.86l.27-.1.06,0,0,0a.49.49,0,0,0,0-.12c.33.07.52-.26.82-.27.46.33,1.07.39,1.48.81l0,.16c-.25.29-.11.48.16.63a3,3,0,0,0,1.18.44v.27c-.17.42.13.63.39.87a5,5,0,0,1-2-.49c-.5-.26-.88-.69-1.39-.93,0-.6-.48-.53-.81-.67Z"/><path class="cls-8" d="M8.17,14.42a3.12,3.12,0,0,0,1.19-.57c1,.11,1.05,0,.88-.7.44-.12.77-.52,1.25-.53s.36.45.62.6c.18.41-.18.53-.39.75a9.27,9.27,0,0,0-1.48,1l-.38.2c-.35-.45-.75.11-1.12-.06Z"/><path class="cls-10" d="M3.08,15l.18-.27L4,14.16c.22.16.25,0,.32-.16.37.1.83-.08,1.08.38-.29.08-.67.15-.14.47.13.08.1.23.11.36-.51-.3-1-.56-1.58,0C3.6,15.34,3.33,15,3.08,15Z"/><path class="cls-11" d="M5.5,13.16c.09-.46.19-.92.29-1.38a2.77,2.77,0,0,0,1-.11l.07.28a2.39,2.39,0,0,0-.54,1.47Z"/><path class="cls-3" d="M6,14.69c.51-.23.72.38,1.14.39-.19.3-.19.76-.68.8a.33.33,0,0,0-.17-.27C6.37,15.24,6.11,15,6,14.69Z"/><path class="cls-3" d="M6.45,15.88c.49,0,.49-.5.68-.8h.13a.52.52,0,0,0,.41-.14c.16.14.12.34.12.53-.4-.2-.56,0-.66.38-.14.1-.27.21-.4.32s-.3,0-.37-.19Z"/><path class="cls-3" d="M7.13,15.85c.1-.34.26-.58.66-.38s.61.15.83.41a1.76,1.76,0,0,0-.14.23C8.09,15.71,7.59,15.84,7.13,15.85Z"/><path class="cls-12" d="M6,14.69c.12.3.38.55.29.92l-.21.18-.39-.56a.73.73,0,0,1,.17-.6Z"/><path class="cls-3" d="M8.74,15.13c.37.17.77-.39,1.12.06l0,.16c-.3,0-.49.34-.82.27Z"/><path class="cls-4" d="M5.85,14.63a.73.73,0,0,0-.17.6l-.32,0h0c0-.13,0-.28-.11-.36-.53-.32-.15-.39.14-.47S5.74,14.45,5.85,14.63Z"/><path class="cls-3" d="M8.48,16.11l.14-.23.12,0,.15.58-.11.15A.94.94,0,0,1,8.48,16.11Z"/><path class="cls-3" d="M7.67,14.94a.52.52,0,0,1-.41.14C7.32,14.8,7.45,14.74,7.67,14.94Z"/><path class="cls-11" d="M4.4,13.33c0-.16,0-.37.29-.15C4.61,13.27,4.55,13.38,4.4,13.33Z"/><path class="cls-3" d="M4.31,14c-.07.13-.1.32-.32.16A.32.32,0,0,1,4.31,14Z"/><path class="cls-11" d="M3,12.36a.24.24,0,0,1,.22.32C3,12.62,2.9,12.55,3,12.36Z"/><path class="cls-11" d="M27.05,23.79a2,2,0,0,1-.26,1.31c-.5-.09-.85.24-1.22.47-.62.37-.74.34-.93-.33a2.12,2.12,0,0,0-.32-.81V24h.61c.3-.11.51.1.74.23a.39.39,0,0,0,.62.06c.22-.18.43-.37.64-.56A.13.13,0,0,1,27.05,23.79Z"/><path class="cls-9" d="M23.55,24.7l0,.41-.19.27h-.76a4.45,4.45,0,0,0-1.5-.14l.28-.4h0l.14-.28h0a.3.3,0,0,0,.27-.14l.13-.24C22.93,23.8,23.23,23.9,23.55,24.7Z"/><path class="cls-3" d="M23.55,24.7c-.32-.8-.62-.9-1.66-.51,0-.39.35-.71.31-1.12.66,0,1.18.63,1.89.41l.23.54v.41A1.52,1.52,0,0,0,23.55,24.7Z"/><path class="cls-5" d="M21.08,25.24a4.45,4.45,0,0,1,1.5.14c-.07.44.21,1-.43,1.23l-.52-.38a.25.25,0,0,0-.21-.31l-.2-.13h0Z"/><path class="cls-7" d="M22.15,26.61c.64-.23.36-.79.43-1.23h.76l.17.41C23.36,26.67,23,26.9,22.15,26.61Z"/><path class="cls-12" d="M26.63,26.91v0l-.79.09,0,0c0-.31.56-.39.26-.78.19-.18.38-.23.57,0S26.46,26.68,26.63,26.91Z"/><path class="cls-11" d="M26.09,26.23c.3.39-.31.47-.26.78-.41-.06-.25-.46-.4-.68C25.62,26.13,25.86,26.22,26.09,26.23Z"/><path class="cls-4" d="M26.63,26.91c-.17-.23.1-.45,0-.67l.36,0,.17.19c0,.06,0,.12,0,.18a.17.17,0,0,1,0,.1H27Z"/><path class="cls-3" d="M23.51,25.79l-.17-.41.19-.27C24,25.35,23.94,25.58,23.51,25.79Z"/><path class="cls-12" d="M27.19,26.47,27,26.28c.11-.09.22-.11.3,0Z"/><path class="cls-7" d="M24.59,12.38c.35-.19.64,0,.94.14s.78.35,1.17.52c.14.55.15,1-.59,1.13A1.76,1.76,0,0,1,25,13.43Z"/><path class="cls-11" d="M24.75,17.64l.69-.71c.22-.08.36.07.5.19a.57.57,0,0,1,0,.13c-.08.39-.5.43-.74.68S24.93,17.72,24.75,17.64Z"/><path class="cls-3" d="M24.59,12.38l.44,1h-.15l-.55-.83c0-.3-.14-.38-.39-.38C24.26,11.83,24.45,12,24.59,12.38Z"/><path class="cls-3" d="M25.94,17.12c-.14-.12-.28-.27-.5-.19l0-.36C26,16.61,26,16.62,25.94,17.12Z"/><path class="cls-10" d="M26.65,7.8l.08-.34.33.55h-.28Z"/><path class="cls-3" d="M26,9.37l-.2-.11Z"/><path class="cls-3" d="M26.92,8.31c.08,0,.12,0,.11.11Z"/><path class="cls-12" d="M2.81,17.62c.13-.17.12-.45.38-.53.13.19.38.17.56.29-.07.14-.14.27-.2.41s.11.31.27.36.4.1.46-.19-.09-.49.13-.69a.5.5,0,0,0,.55.24l.11.14c0,.27.28.27.47.32-.21.41-.69.37-1,.64l-.54,0C3.58,18.3,2.85,18.39,2.81,17.62Z"/><path class="cls-10" d="M5.36,15.21l.32,0,.39.56a.14.14,0,0,1-.05.1c-.11,0-.36,0-.16.13s.07.29,0,.44c-.24.16-.25.41-.28.66A.51.51,0,0,0,5.22,17c0-.27-.12-.5.19-.76S5.35,15.55,5.36,15.21Z"/><path class="cls-3" d="M4.21,15.58c.23.1.53.13.6.27s-.31.43-.31.75c0,.08-.17,0-.2-.12s-.07-.23-.13-.15c-.41.5-.51,0-.5-.2S4,15.74,4.21,15.58Z"/><path class="cls-11" d="M5.22,17a.51.51,0,0,1,.39.14l.07.36,0,.32h0a.13.13,0,0,0-.11.15v0c-.19,0-.42,0-.47-.32s0-.37,0-.55Z"/><path class="cls-10" d="M3.75,17.38c-.18-.12-.43-.1-.56-.29l0-.67h.09a2.3,2.3,0,0,0,.5.7C3.93,17.23,4,17.35,3.75,17.38Z"/><path class="cls-11" d="M5,17.51a.5.5,0,0,1-.55-.24c.1-.16.26-.16.42-.15Z"/><path class="cls-10" d="M3.3,16.16l-.12,0c0-.19-.06-.41.13-.61C3.56,15.76,3.4,16,3.3,16.16Z"/><path class="cls-10" d="M5,17.51l-.13-.39.28,0c0,.18,0,.37,0,.55Z"/><path class="cls-8" d="M3.51,3.53l.59-.38c.31.15.11.33,0,.5C3.91,3.64,3.67,3.77,3.51,3.53Z"/><path class="cls-4" d="M6.3,3.7c0,.14.07.35-.08.4s-.3-.17-.44-.28A.64.64,0,0,1,6.3,3.7Z"/><path class="cls-9" d="M5.11,2.77a.13.13,0,0,1,.12,0l0,.33A.39.39,0,0,1,5.11,2.77Z"/><path class="cls-4" d="M3.47,6.53c.09.07,0,.13,0,.19Z"/><path class="cls-3" d="M4.55,18.61c.3-.27.78-.23,1-.64v0l.11-.15H5.9c.14.18.06.8.55.27.29.1.62.19.6.59,0,.19-.16.43.15.47a.41.41,0,0,0,.52-.28.43.43,0,0,1,.73-.22c.21.17.36.07.52-.08s.14-.34,0-.51,0-.16,0-.25a8.28,8.28,0,0,1,2.27,1.07v.25a1.66,1.66,0,0,0-1.37.21,2.05,2.05,0,0,0-.94.24c-.63.12-.75.73-.27,1.35v.55A1,1,0,0,1,8,21.19a7.94,7.94,0,0,0-1.4-1l-.15-.33c.22-.54,0-.78-.53-.89S5,18.74,4.55,18.61Z"/><path class="cls-9" d="M4,21.32c.06-.38-.16-.73,0-1.13.25-.85.71-1,1.41-.44,0,.75-.33,1.47-.29,2.24L5,22.13,4.55,22h0c-.08-.3-.14-.63-.55-.68Z"/><path class="cls-5" d="M5.09,22c0-.77.26-1.49.29-2.24a1,1,0,0,1,1,.14l.15.33a1.74,1.74,0,0,1-.66,1.36.93.93,0,0,1-.82.41Z"/><path class="cls-3" d="M20.94,19.08l.14.12a.48.48,0,0,0,.68.22,1.11,1.11,0,0,1,.82.27c.14.4.49.45.84.52l.21.18a2.8,2.8,0,0,0,.5.85c.07.11.18.34.34.12.3-.43.84-.46,1.21-.76.13.49.6.53,1,.71h0a.5.5,0,0,0,.11.68h.08l-.45.44c-.44-.94-1.41-1.21-2.05-.57-.25,0-.27.26-.3.46l-.2,0-.59-.56c.32-.7-.3-.91-.68-1.14a21.93,21.93,0,0,0-2.19-1c-.25-.11-.23-.3-.24-.49h0a.28.28,0,0,0,.37,0Z"/><path class="cls-3" d="M24.34,21.85c.64-.64,1.61-.37,2.05.57l0,.25c-.39,0-.83.23-.83-.45,0-.18-.16-.19-.3-.1C24.84,22.37,24.58,22.16,24.34,21.85Z"/><path class="cls-8" d="M24.32,24l-.23-.54v-.27a1.54,1.54,0,0,0,.68-.41c.21,0,.42.11.24.38a1,1,0,0,0-.07.83Z"/><path class="cls-8" d="M26.93,23.74c-.21.19-.42.38-.64.56a.39.39,0,0,1-.62-.06.87.87,0,0,0,.09-.11C26,23.27,26,23.27,26.93,23.74Z"/><path class="cls-10" d="M24.76,22.8a1.54,1.54,0,0,1-.68.41c-.22-.28-.09-.64-.24-.93l.2,0C24.13,22.69,24.56,22.58,24.76,22.8Z"/><path class="cls-13" d="M14.86,26.8V27l-.23.31a2.78,2.78,0,0,0-.38-.12c-.24,0-.52,0-.51-.36,0-.21,0-.41.26-.49s.52,0,.66.27C14.7,26.69,14.79,26.74,14.86,26.8Z"/><path class="cls-11" d="M12.61,26.2l.18.05v.2h-.23Z"/><path class="cls-10" d="M25.72,18.62a1.7,1.7,0,0,1,.79-.43c.26.17.3.49.5.7s.13.47-.1.66l-.8.71-.28.1a.74.74,0,0,1-.29-.55l0-.9Z"/><path class="cls-3" d="M25.83,20.36l.28-.1c-.15.52.55.61.54,1-.37-.18-.84-.22-1-.71Z"/><path class="cls-3" d="M26.76,22a.5.5,0,0,1-.11-.68h.13A1.42,1.42,0,0,1,26.76,22Z"/><path class="cls-3" d="M5.91,21.58a1.74,1.74,0,0,0,.66-1.36,7.94,7.94,0,0,1,1.4,1,1,1,0,0,0,.65.26L8.8,22,9,23.35c-.1.11-.15.24,0,.34s.21,0,.29-.07l.82-.12V24A4.34,4.34,0,0,0,9,24.58a1.08,1.08,0,0,0-.87.3,1.44,1.44,0,0,1-1.66.37c.45.55,1,.61,1.29,1.08h.14l0,1L7.4,27a4.65,4.65,0,0,0-1.5-.77c-.29-.43-.6-.37-.91,0a1.63,1.63,0,0,0-.91-1.1c-.2-.13-.41-.24-.62-.36V24.3l0-.05.8.44c1,.87,1.27.61,1.33-.51,0-.28.18-.32.41-.29a1.11,1.11,0,0,0,1.28-.1c.32-.27.25-.63.1-1,.51-.66.36-1.07-.45-1.28C6.6,21.43,6.26,21.65,5.91,21.58Z"/><path class="cls-12" d="M8.53,26.38a1,1,0,0,1,0-.88c.38.11.65-.2,1-.26h0l0,.46h0L9.44,26v.17Z"/><path class="cls-4" d="M8.53,26.38l.9-.17v.62c-.37.5-.57.06-.82-.14Z"/><path class="cls-4" d="M9.56,25.24c-.34.06-.61.37-1,.26.08-.23-.06-.57.3-.67C9.13,24.91,9.46,24.88,9.56,25.24Z"/><path class="cls-3" d="M7.94,26.34H7.8c0-.16-.07-.36.15-.46C8.16,26,8,26.18,7.94,26.34Z"/><path class="cls-3" d="M4.55,22l.4.14.13,0,.14.16c-.3.15-.55.44-.94.4l.15-.26C4.58,22.3,4.53,22.14,4.55,22Z"/><path class="cls-3" d="M4,21.31c.41.05.47.38.55.68C4.21,21.89,4.1,21.61,4,21.31Z"/><path class="cls-6" d="M3.66,27l-.21-.13-.12-.25-.12-.21-.3-.66c.37-.68.62-.09.92.08-.3.47.21.56.37.83s.4,0,.6,0l.26.38C4.58,27.32,4.12,27.07,3.66,27Z"/><path class="cls-13" d="M4.8,26.64c-.2-.05-.38.35-.6,0s-.67-.36-.37-.83c.41,0,.54.56,1,.56Z"/><path class="cls-5" d="M20.55,26.47c-.3,0-.64,0-.68-.41l.27-.27h0l.14-.13h0c.23,0,.46-.28.7,0C20.71,25.86,20.78,26.24,20.55,26.47Z"/><path class="cls-3" d="M21,25.65c-.24-.27-.47,0-.7,0,.09-.14.19-.27.29-.4s.07-.19.1-.28H21l.41-.14-.28.4.15.55Z"/><path class="cls-3" d="M21.22,25.79l.2.13Z"/><path class="cls-3" d="M20.14,25.79l-.27.27h-.12C19.78,25.8,20,25.79,20.14,25.79Z"/><path class="cls-3" d="M19.46,26.2c0-.09.06-.12.14-.14Z"/><path class="cls-4" d="M6.72,3.69l-.25-.15,0-.14c.21,0,.27-.17.4-.27,0,.14,0,.28,0,.41Z"/><path class="cls-7" d="M4.28,22.67c.39,0,.64-.25.94-.4a.58.58,0,0,0,.55.28.42.42,0,0,1-.42.39c-.14,0-.26-.42-.41,0-.26,0-.32.24-.41.46-.18.42,0,.9-.23,1.3l-.8-.44c-.41-.34-.17-.69,0-1H3.6A.49.49,0,0,0,4,22.94H4c.16,0,.26-.09.27-.27Z"/><path class="cls-3" d="M4,22.94a.49.49,0,0,1-.41.27C3.63,23,3.79,22.92,4,22.94Z"/><path class="cls-3" d="M4.28,22.67c0,.18-.11.25-.27.27A.25.25,0,0,1,4.28,22.67Z"/><path class="cls-3" d="M11.08,26.19c-.49.07-1,.36-1.35-.33h0a4,4,0,0,0,.4-.22.65.65,0,0,1,1,.43Z"/><path class="cls-12" d="M11.08,26.19v-.12c.23,0,.47.07.65-.15h.52c0,.39-.55.54-.41,1a.32.32,0,0,0-.51,0v-.15A.44.44,0,0,0,11.08,26.19Z"/><path class="cls-10" d="M9.71,25.86h0c-.39.58.34.83.37,1.28-.27,0-.55,0-.68-.31s0-.41,0-.62V26a.33.33,0,0,0,.12-.32h0Z"/><path class="cls-3" d="M7,9.84l-.8-.17c-.33-.15-.63.13-.95.09,0-.29.06-.8-.24-.79s-.28.5-.29.81c0,0,0,.05,0,.07l-.16.08-.8,0-.42,0a.31.31,0,0,0-.27-.18c0-.15,0-.29,0-.43l0-.33H3.6l.11.1c.1.17.22.22.37.07s.29-.25.16-.45a.51.51,0,0,1,0-.57.11.11,0,0,0,.08,0c.33,0,.65-.1,1-.05a.53.53,0,0,0,.6-.5c.38,0,.57-.16.55-.54l.16,0c.52.18,1,.5,1.61.16l.13.11A1.81,1.81,0,0,0,7.83,8c-.37,1-.17,1.32.79,1.22l.13.3-.14.54Z"/><path class="cls-8" d="M3.33,10l.42,0c0,.43-.31.34-.56.35Z"/><path class="cls-11" d="M2.79,27.19l-.12-.29c.1,0,.22-.09.28,0S2.9,27.13,2.79,27.19Z"/><path class="cls-3" d="M3.21,26.37l.12.21Z"/><path class="cls-3" d="M27.06,8l-.33-.55c0-.1,0-.21,0-.31l-.2-.09c0-.11,0-.22,0-.33.17.09.25-.06.36-.14A6.39,6.39,0,0,0,27.16,8Z"/><path class="cls-10" d="M12.25,25.92h-.52l-.14-.67.25,0c.12.11.09.43.4.3Z"/><path class="cls-13" d="M3.6,6.8h.11a1,1,0,0,1,.16,1.13,2.75,2.75,0,0,0-.22.26L2.9,8A3.22,3.22,0,0,0,3.6,6.8Z"/><path class="cls-8" d="M3.6,9H3.08l0-.14c.53,0,.74-.52,1.16-.72a.51.51,0,0,0,0,.57c.13.2,0,.33-.16.45s-.27.1-.37-.07S3.69,9,3.6,9Z"/><path class="cls-6" d="M3.87,7.92a1,1,0,0,0-.16-1.13c.08-.27.22-.42.52-.26,0,.32,0,.63,0,1h0l-.14.21v0Z"/><path class="cls-6" d="M2.9,8l.75.2c-.3.45-.66.29-1,.1Z"/><path class="cls-11" d="M27,26.76h.18c0,.15,0,.33-.16.42Z"/><path class="cls-3" d="M8.61,10.05l.14-.54.55,0c.06.2-.17.56.25.55s.79-.11.91-.47c.19-.6.54-.5.94-.35a1.89,1.89,0,0,0,.94.07c.29,0,.59-.2.54-.49-.08-.59.27-.57.65-.58a10.71,10.71,0,0,0,1.27-.13,2.66,2.66,0,0,1,1.4.06,1.51,1.51,0,0,0,.69.18,3.87,3.87,0,0,1,1.63.82c0,.22,0,.41.28.43l.6.93-.39,0c-.07,0-.15-.06-.19,0-.44.23-.81.4-1-.29-.06-.21-.5-.13-.51,0-.08.42-.54.64-.54,1.08l-.26.12a.65.65,0,0,0-.16-.44c0-.42.16-.88-.23-1.23a.82.82,0,0,0-.69-.58.82.82,0,0,0-.74-.29c-.28,0-.58-.07-.81.18a.64.64,0,0,0-.66.37,1.3,1.3,0,0,0-.62.74c-.4.44-.29,1-.28,1.48a3.25,3.25,0,0,0,.93,1.48c-.17.22-.36,0-.53,0s-.42-.18-.59.07c-.26-.15-.25-.57-.62-.6-.17-.53-.36-1-1-1.24-.17-.64-.81-.61-1.23-.89l-.65-.32A.27.27,0,0,0,8.61,10.05Z"/><path class="cls-3" d="M19.26,6.31l.35.62a1.07,1.07,0,0,1-.22.25c-.25.18-.48.59-.77.43a.84.84,0,0,1-.34-.81c.1-.42.49-.46.85-.51Z"/><path class="cls-6" d="M20.93,7.93q0,1.07-1.05.75a.14.14,0,0,0,0-.06C19.93,7.91,20.27,7.68,20.93,7.93Z"/><path class="cls-3" d="M18.8,9.64c-.27,0-.29-.21-.28-.43l.23.18Z"/><path class="cls-3" d="M13.53,8.28c-.38,0-.73,0-.65.58,0,.29-.25.46-.54.49a1.89,1.89,0,0,1-.94-.07c-.4-.15-.75-.25-.94.35-.12.36-.55.47-.91.47s-.19-.35-.25-.55A1.77,1.77,0,0,0,10,8h.21c.41.36.82.71,1.4.32a.69.69,0,0,0,.23-1l.4-.42c.36.18.63.56,1.09.56Z"/><path class="cls-3" d="M14.85,5.23l.51.38c0,.12-.07.25-.12.37-.1.29-.05.73-.39.78s-.53-.27-.67-.5.13-.58.33-.81A2,2,0,0,1,14.85,5.23Z"/><path class="cls-6" d="M17,5.68c.22.1.37.27.26.52a.81.81,0,0,1-.8.46c-.17-.27-.38-.54-.2-.87S16.77,5.73,17,5.68Z"/><path class="cls-3" d="M14.5,19.31h0l0,0-.13-.56a.66.66,0,0,0,.58-.27l.09-.28.51.19c.94.32.94.32,1.39-.3.08.68.47,1,1.41,1l.22.07v.35l-.26,0c-.52.05-.1.34-.14.52a2.86,2.86,0,0,1-1.52-.42A2.52,2.52,0,0,0,14.5,19.31Z"/><path class="cls-3" d="M18.51,19.54v-.35l1.63-.14c0,.19,0,.38.24.49a21.93,21.93,0,0,1,2.19,1c.38.23,1,.44.68,1.14h-.13L23,21.6h-.06c-.15-.4-.38-.68-.87-.55-.33.06-.52-.27-.83-.29l-.25-.12c-.05-.13-.17-.13-.28-.14h-.05l-.2-.15h0c-.14-.5-.59-.52-1-.63A1.51,1.51,0,0,0,18.51,19.54Z"/><path class="cls-3" d="M18.1,16.29l0,.54c-.24.05-.39.18-.36.44s.21.23.39.24a2.53,2.53,0,0,1,0,.95c-.49,0-.62-.55-1-.69.1-.38-.12-.67-.28-1,.06-.31.24-.37.53-.27s.53.1.62-.27Z"/><path class="cls-3" d="M19.45,16.11l.53.32a1.49,1.49,0,0,1-.14.78c-.1.32,0,.73-.65.28s-.43-.69-.08-1.07C19.21,16.31,19.34,16.21,19.45,16.11Z"/><path class="cls-3" d="M17.11,17.77c.41.14.54.68,1,.69l.15.66c-.94-.08-1.33-.36-1.41-1Z"/><path class="cls-6" d="M21.63,16.58c.18.12.43.23.36.49s-.41.48-.75.54a1.7,1.7,0,0,1-.15-.22c-.14-.23-.33-.46-.14-.74S21.4,16.62,21.63,16.58Z"/><path class="cls-8" d="M18,15l.41,0a1.8,1.8,0,0,1,.11.89h-.26c0-.18,0-.38-.11-.54Z"/><path class="cls-3" d="M18.11,17.51c-.18,0-.37,0-.39-.24s.12-.39.36-.44Z"/><path class="cls-10" d="M18.24,15.89h.13v.39H18.1l-.11,0c0-.12,0-.25,0-.37Z"/><path class="cls-11" d="M18.36,16.28v-.39h.13C18.72,16.11,18.54,16.2,18.36,16.28Z"/><path class="cls-3" d="M20.54,19a.28.28,0,0,1-.37,0C20.29,19,20.41,18.91,20.54,19Z"/><path class="cls-8" d="M25.83,20.36l-.15.24c-.37.3-.91.33-1.21.76-.16.22-.27,0-.34-.12a2.8,2.8,0,0,1-.5-.85c.41-.14.65-.52,1-.73a1.72,1.72,0,0,1,.89.15A.74.74,0,0,0,25.83,20.36Z"/><path class="cls-3" d="M23.92,17.43a.86.86,0,0,0,.27.49c-.08.11-.14.25-.25.31s-.37.54-.64.28-.45-.43-.35-.76.41-.36.71-.38A1.38,1.38,0,0,1,23.92,17.43Z"/><path class="cls-6" d="M25.54,19.81a1.72,1.72,0,0,0-.89-.15c0-.3.07-.61.1-.92l.77.17Z"/><path class="cls-11" d="M25.52,18.91l-.77-.17c.31-.13.58-.6,1-.12C25.65,18.72,25.58,18.81,25.52,18.91Z"/><path class="cls-3" d="M23.42,20.21c-.35-.07-.7-.12-.84-.52C22.92,19.77,23.28,19.82,23.42,20.21Z"/><path class="cls-3" d="M21.76,19.42a.48.48,0,0,1-.68-.22l.55.07Z"/><path class="cls-5" d="M25.29,9.77c.4.47.13,1,.14,1.5a.48.48,0,0,1-.3.42c-.16.07-.34.2-.5.06s0-.28.07-.42A5.18,5.18,0,0,1,25.29,9.77Z"/><path class="cls-3" d="M23.94,12.23a.24.24,0,0,1-.27.13A.29.29,0,0,1,23.94,12.23Z"/><path class="cls-10" d="M16.75,11.32c0-.44.46-.66.54-1.08,0-.08.45-.16.51,0,.21.69.58.52,1,.29,0,0,.12,0,.19,0,.17.21.4.38.11.71s.14.48.08.75-.07.42-.36.42a.93.93,0,0,0-.19-1h0c0-.23-.08-.4-.35-.41h0a.77.77,0,0,0-1.18,0Z"/><path class="cls-10" d="M25.43,6.53v.11l-.15.56-.72,0c-.06-.17-.09-.38-.35-.37l0-.18A2.25,2.25,0,0,0,25.43,6.53Z"/><path class="cls-4" d="M24.21,6.8c.26,0,.29.2.35.37s-.14.55-.51.36.11-.47,0-.71h.12Z"/><path class="cls-11" d="M25.28,7.2l.15-.56.4,0c0,.28.11.57-.15.79C25.48,7.49,25.31,7.46,25.28,7.2Z"/><path class="cls-10" d="M23.49,6.47l.3-.65.13,0c0,.21.1.41.16.61v.35h0Z"/><path class="cls-4" d="M15.93,4.22c0,.19.05.39-.13.54C15.8,4.57,15.75,4.36,15.93,4.22Z"/><path class="cls-10" d="M26.51,7.06l.2.09-.22,0S26.5,7.1,26.51,7.06Z"/><path class="cls-8" d="M23.92,5.85l-.13,0V5.76c.12-.35-.45-.5-.25-.87h.06l.32.25.28.17,0,.4Z"/><path class="cls-3" d="M18.53,13.18l-.54.53-.37,0a2.6,2.6,0,0,0-.85-.29c-.2,0-.38,0-.43-.27l.16-.24a.53.53,0,0,1,.49.15.65.65,0,0,0,1,0l.14,0h.34l0,0S18.54,13.14,18.53,13.18Z"/><path class="cls-3" d="M18.65,11.53a.93.93,0,0,1,.19,1c0,.11,0,.24-.17.29l0,0Z"/><path class="cls-3" d="M18.67,12.79l-.12.28,0,0c0-.11,0-.22.14-.27Z"/><path class="cls-3" d="M16.34,13.18c.05.25.23.28.43.27.05.31-.29.72.13.91s.35-.43.64-.51c0,0,.05-.07.08-.11l.37,0a.45.45,0,0,1,.25.42l-.27.26a.4.4,0,0,0-.39.45c0,1-.11,1.15-1.14,1.42,0,.23.29.27.32.48l-1.25-.31c.35-.42.73-.84.5-1.44s-.72-.42-1.15-.47l-.28-.39c-.07-.12-.16-.14-.26,0-.46,0-.65.38-.85.71a1.78,1.78,0,0,0-1.2-.42c-.27,0-.43-.19-.55-.41.21-.22.57-.34.39-.75.17-.25.38-.12.59-.07s.36.22.53,0l.29.09c0,.1,0,.23.11.25s.09-.12.14-.18l.54,0c0,.18,0,.45.27.41s.11-.29.14-.45l.25-.08a1.22,1.22,0,0,0,0,.27c.07.19-.25.47.08.58s.54-.11.69-.39l.18-.36Z"/><path class="cls-3" d="M16.76,16.74c0-.21-.32-.25-.32-.48,1-.27,1.13-.39,1.14-1.42a.4.4,0,0,1,.39-.45V15l.15.38a.5.5,0,0,0-.13.53c0,.12,0,.25,0,.37-.09.37-.36.35-.62.27s-.47,0-.53.27Z"/><path class="cls-11" d="M12.55,23.33a1.32,1.32,0,0,1-.81-.1,4.27,4.27,0,0,0,.26-1.5c.35-.16.69-.35.68-.79s-.32-.29-.54-.33c0-.18,0-.37.13-.52.34-.23.77-.38.83-.89h.53c-.2.36,0,.7,0,1.05-.12.13-.36.11-.4.34C13.1,21.52,12.64,22.38,12.55,23.33Z"/><path class="cls-8" d="M14.71,20.89,15,19.57c.44.07.94,0,1.21.47l-.53.85c-.23.11-.29.48-.63.43Z"/><path class="cls-3" d="M16.19,20c-.27-.51-.77-.4-1.21-.47-.19,0-.39,0-.48-.26a2.52,2.52,0,0,1,2.09.36,2.86,2.86,0,0,0,1.52.42l.23.38c-.37,0-.63.28-1,.31l-.21-.23c0-.14.13-.3,0-.41s-.19,0-.26.11C16.66,20.13,16.47,20,16.19,20Z"/><path class="cls-3" d="M14.71,20.89l.32.43a1,1,0,0,1-.62.87c-.41.25-.36-.37-.64-.47s-.18-.29,0-.43S14.31,20.82,14.71,20.89Z"/><path class="cls-6" d="M16.61,22.12c-.05.94-.05.94-.89.89C15.65,22.35,15.87,22,16.61,22.12Z"/><path class="cls-11" d="M16.19,20c.28-.09.47.09.68.21l.13.26c-.28.21-.67.22-.92.5s-.29-.05-.42-.12Z"/><path class="cls-8" d="M13.64,20.25c0-.35-.21-.69,0-1.05l.14-.07.26.05v.11A.9.9,0,0,1,13.64,20.25Z"/><path class="cls-3" d="M14,19.29v-.11l0-.48.25,0,.13.56Z"/><path class="cls-3" d="M17,20.51l-.13-.26c.07-.09.16-.18.26-.11s0,.27,0,.41Z"/><path class="cls-9" d="M21,25h-.27a.32.32,0,0,0-.14-.28h0l-.13-.14h0a2.89,2.89,0,0,0-.54-1.08,1.79,1.79,0,0,1,.4-1.37l.41-.12c.2.12.36.33.66.23.64-.2.8.17.79.71-.09,0-.2,0-.26,0-.69-.46-.77,0-.77.51S21,24.46,21,25Z"/><path class="cls-12" d="M18.34,20.47l-.23-.38c0-.18-.38-.47.14-.52.12.3.08.89.66.35.11-.09.2,0,.3.08.28.1.2-.14.23-.27.39.11.84.13,1,.63H20.1c-.55-.14-.75.09-.62.73C18.88,21.3,18.73,20.67,18.34,20.47Z"/><path class="cls-3" d="M20.1,20.37h.31l.2.15h.05l.28.14.25.12c-.23.32-.67.28-.93.54l-.54,0v-.11A.4.4,0,0,0,20,20.9C20.18,20.75,20.09,20.55,20.1,20.37Z"/><path class="cls-3" d="M19.72,21.32l.54,0a1.11,1.11,0,0,0,.42.71l-.41.12A.86.86,0,0,1,19.72,21.32Z"/><path class="cls-11" d="M20.1,20.37c0,.18.08.38-.09.53s-.25,0-.3.18l-.23,0C19.35,20.46,19.55,20.23,20.1,20.37Z"/><path class="cls-3" d="M19.43,22.92c-.17,0-.3-.07-.31-.23a.32.32,0,0,1,.32-.35c.16,0,.21.15.23.27S19.56,22.88,19.43,22.92Z"/><path class="cls-3" d="M19.87,23.49a2.89,2.89,0,0,1,.54,1.08c-.36-.16-.44-.56-.68-.82C19.74,23.64,19.76,23.54,19.87,23.49Z"/><path class="cls-3" d="M18,22.66l.21-.29c.09,0,.27,0,.23.16S18.11,22.63,18,22.66Z"/><path class="cls-3" d="M18.37,21.86l-.3-.38C18.35,21.46,18.38,21.65,18.37,21.86Z"/><path class="cls-12" d="M19.71,21.08c.05-.15.16-.18.3-.18a.4.4,0,0,1-.29.31Z"/><path class="cls-3" d="M18.07,21.48a.5.5,0,0,1-.3-.27C18,21.19,18.09,21.27,18.07,21.48Z"/><path class="cls-3" d="M17.37,23.46l.11-.27c.08,0,.17.1.12.19S17.45,23.43,17.37,23.46Z"/><path class="cls-3" d="M20.54,24.7a.32.32,0,0,1,.14.28A.28.28,0,0,1,20.54,24.7Z"/><path class="cls-3" d="M20.41,24.57l.13.14Z"/><path class="cls-3" d="M20.28,25.66l-.14.13Z"/><path class="cls-4" d="M12,21.73a4.27,4.27,0,0,1-.26,1.5H10.52c-.08-.17-.18-.34-.36-.38a.89.89,0,0,1-.78-.63C9.29,22,9,22,8.8,22l-.18-.54V20.9c.22,0,.57.07.48-.32a3.05,3.05,0,0,0-.21-1,2.05,2.05,0,0,1,.94-.24L10,20.52a5.48,5.48,0,0,0-.35.49c-.14.23-.31.51-.07.74s.51.43.74.4.18-.45.26-.69a1.14,1.14,0,0,0,0-.73c.1-.55.86-.81.64-1.5.11-.1.32-.06.38-.25l.7.13,0,1c-.16.15-.12.34-.13.52-.53,0-.71.22-.48.71A2.25,2.25,0,0,0,12,21.73Z"/><path class="cls-3" d="M9.29,23.62c-.08.1-.19.15-.29.07s-.09-.23,0-.34Z"/><path class="cls-4" d="M11.59,25.25l.14.67c-.18.22-.42.15-.65.15a.65.65,0,0,0-1-.43,4,4,0,0,1-.4.22l-.16-.15c0-.16,0-.31,0-.46l.52-.41.56-.14.27.14h.13a.41.41,0,0,0,.41.27h0l.14.14Z"/><path class="cls-11" d="M10.65,24.7l-.56.14c-.12,0-.3,0-.32-.15a.32.32,0,0,1,.23-.36c.16,0,.35-.15.49,0A1.25,1.25,0,0,1,10.65,24.7Z"/><path class="cls-10" d="M11.46,25.11a.41.41,0,0,1-.41-.27C11.24,24.84,11.46,24.81,11.46,25.11Z"/><path class="cls-10" d="M11.6,25.25l-.14-.14Z"/><path class="cls-3" d="M4.28,7.48c0-.32,0-.63,0-1l.43,0,0,.67C4.49,7.18,4.52,7.49,4.28,7.48Z"/><path class="cls-5" d="M11.86,7.34a.69.69,0,0,1-.23,1c-.58.39-1,0-1.4-.32A.35.35,0,0,0,10,7.68h0c.07-.39-.24-.66-.32-1A8.48,8.48,0,0,1,11.86,7.34Z"/><path class="cls-3" d="M10.24,6a1.14,1.14,0,0,1,.68-.4C10.82,5.94,10.52,6,10.24,6Z"/><path class="cls-3" d="M10,6.12,10.24,6Z"/><path class="cls-3" d="M9.7,6.25s0-.06,0-.09l.25,0Z"/><path class="cls-3" d="M8.35,7.32l-.13-.11A1.1,1.1,0,0,1,9,6.8H9A1.3,1.3,0,0,1,8.35,7.32Z"/><path class="cls-5" d="M9.16,6.38c.11,0,.06.1,0,.15Z"/><path class="cls-3" d="M6.45,7.07c0,.38-.17.56-.55.54C6,7.37,6.1,7.09,6.45,7.07Z"/><path class="cls-5" d="M8.35,7.32A1.3,1.3,0,0,0,9,6.81c.14,0,.35-.22.4.11a16.87,16.87,0,0,1-.82,2.29C7.66,9.31,7.46,9,7.83,8A1.81,1.81,0,0,1,8.35,7.32Z"/><path class="cls-9" d="M8.62,9.21a16.87,16.87,0,0,0,.82-2.29l.54.75h0L10,8A1.77,1.77,0,0,1,9.3,9.55l-.55,0Z"/><path class="cls-3" d="M4.14,7.68l.14-.21Z"/><path class="cls-4" d="M24.21,5.32l-.28-.17c.05-.17.09-.35.14-.53h0c.41-.09.76-.52,1.25-.18a1,1,0,0,1,.24,1.65.59.59,0,0,0-.13.43,2.25,2.25,0,0,1-1.18.09l-.17-.16c-.06-.2-.11-.4-.16-.61l.25-.13c.1.66.4,0,.6.08s.13.47.34.12a.76.76,0,0,0,.15-.49.48.48,0,0,0-.48-.27A2.44,2.44,0,0,0,24.21,5.32Z"/><path class="cls-12" d="M24.07,4.62c-.05.18-.09.36-.14.53l-.32-.25A.63.63,0,0,1,24.07,4.62Z"/><path class="cls-8" d="M8.61,10.05a.27.27,0,0,1,0,.12c-.46.73-1.23,1.14-1.79,1.78,0-.09,0-.18-.07-.28,0-.27-.13-.41-.33-.53L7,9.84Z"/><path class="cls-8" d="M9.29,10.49c.42.28,1.06.25,1.23.89a9.05,9.05,0,0,1-1.45,1l-.21-.46C9,11.42,9.43,11.05,9.29,10.49Z"/><path class="cls-3" d="M8.86,11.91l.21.46a2,2,0,0,1-.63.35c-.46.24-.54-.16-.65-.41s.16-.31.36-.39A.88.88,0,0,1,8.86,11.91Z"/><path class="cls-6" d="M10.24,13.15c.17.74.09.81-.88.7C9.5,13.42,9.53,12.86,10.24,13.15Z"/><path class="cls-8" d="M5.23,9.76c.32,0,.62-.24.95-.09a2,2,0,0,1-.27.82,1.3,1.3,0,0,1-.15.2c-.65-.53-.66.37-1,.46a.31.31,0,0,0-.31-.31,2,2,0,0,0,.14-.91l.16-.08Z"/><path class="cls-3" d="M4.41,10.84a.31.31,0,0,1,.31.31c-.08.13-.16.27-.23.41-.22.45-.52.51-.89.16-.14-.12-.19-.29-.05-.41S4,10.78,4.41,10.84Z"/><path class="cls-6" d="M6.45,11.14c.2.12.37.26.33.53a2.77,2.77,0,0,1-1,.11C5.53,11.08,6,11.12,6.45,11.14Zm.1.35,0,0v0Z"/><path class="cls-3" d="M12.29,19.11l-.7-.13c-.1-.14-.25-.12-.4-.13a8.28,8.28,0,0,0-2.27-1.07l0-.27c.17-.33.62-.12.82-.4.51.24.89.67,1.39.93a5,5,0,0,0,2,.49h.25c0,.32.4.3.43.59l-.14.07H13.1A2,2,0,0,0,12.29,19.11Z"/><path class="cls-9" d="M12.69,17.39A3,3,0,0,1,11.51,17c-.27-.15-.41-.34-.16-.63l.15,0a1.62,1.62,0,0,1,.57.16c.6.14,1.08.59,1.71.67a.5.5,0,0,0,0,.12A2.48,2.48,0,0,1,12.69,17.39Z"/><path class="cls-9" d="M13.34,18.54h-.25c-.26-.24-.56-.45-.39-.87l1.48-.14h0c0,.23-.29.31-.25.55l0,.38Z"/><path class="cls-10" d="M9.7,17.11c-.2.28-.65.07-.82.4H8.67l-.15-.27,0-.28a.43.43,0,0,0,.29-.38l.11-.15C9.22,16.58,9.74,16.51,9.7,17.11Z"/><path class="cls-3" d="M9.84,15.35l0-.16.38-.2c.17.59.72.33,1.08.49l.09.13,0,.55h-.12C10.91,15.74,10.3,15.68,9.84,15.35Z"/><path class="cls-3" d="M14.18,17.52l-1.48.14v-.27a2.41,2.41,0,0,0,1.1-.15l.12-.14h.39Z"/><path class="cls-3" d="M11.32,16.16h.12l.06.13-.15,0Z"/><path class="cls-3" d="M9,15.74l0,0-.06,0Z"/><path class="cls-3" d="M11.32,15.48c-.36-.16-.91.1-1.08-.49a9.27,9.27,0,0,1,1.48-1c.12.22.28.43.55.41a1.78,1.78,0,0,1,1.2.42l0,.15-.67.28a.09.09,0,0,1-.09,0l-.12,0-.29-.07c-.23-.28-.37,0-.53.1l-.29.28Z"/><path class="cls-3" d="M6,15.89a.14.14,0,0,0,.05-.1l.21-.18a.33.33,0,0,1,.17.27l-.09.1C6.27,15.86,6.14,15.91,6,15.89Z"/><path class="cls-6" d="M8.78,16.59a.43.43,0,0,1-.29.38c-.11-.6-.48-.49-.87-.31a.24.24,0,0,0-.07.3s.08,0,.08,0a2.27,2.27,0,0,0,.06-.25c.34.28-.14.48-.1.88.32-.43.47.09.74,0l0,.34h0C7,18,6.74,17.83,6.7,16.54l0-.37c.13-.11.26-.22.4-.32.46,0,1-.14,1.35.26A.94.94,0,0,0,8.78,16.59Z"/><path class="cls-4" d="M6.73,16.17l0,.37c-.33.53-.54-.12-.81-.08,0-.15.2-.25,0-.44s0-.14.16-.13.25,0,.34.09S6.59,16.14,6.73,16.17Z"/><path class="cls-7" d="M21,25c0-.52.16-1,.15-1.55s.08-1,.77-.51c.06,0,.17,0,.26,0l.07.13c0,.41-.28.73-.31,1.12l-.13.24-.27.14h0a.35.35,0,0,0-.14.28h0Z"/><path class="cls-3" d="M21.35,24.84a.35.35,0,0,1,.14-.28Z"/><path class="cls-3" d="M21.49,24.57l.27-.14A.3.3,0,0,1,21.49,24.57Z"/><path class="cls-3" d="M22.2,23.07l-.07-.13c0-.54-.15-.91-.79-.71-.3.1-.46-.11-.66-.23a1.11,1.11,0,0,1-.42-.71c.26-.26.7-.22.93-.54.31,0,.5.35.83.29,0,.67.61.31.87.55H23l.16.12h.13l.59.56c.15.29,0,.65.24.93v.27C23.38,23.7,22.86,23.06,22.2,23.07Z"/><path class="cls-3" d="M5.89,16.46c.27,0,.48.61.81.08,0,1.29.27,1.49,1.66,1.38-.59.61-1,.55-1.8-.27,0-.94-.46.15-.64-.11l-.24-.06-.07-.36C5.64,16.87,5.65,16.62,5.89,16.46Z"/><path class="cls-12" d="M5.68,17.48l.24.06,0,.25H5.65Z"/><path class="cls-12" d="M5.65,17.8,5.54,18A.13.13,0,0,1,5.65,17.8Z"/><path class="cls-8" d="M6.56,17.65c.83.82,1.21.88,1.8.27h0a.49.49,0,0,0,.32-.41h.21l0,.27c0,.09,0,.2,0,.25s.23.32,0,.51-.31.25-.52.08a.43.43,0,0,0-.73.22.41.41,0,0,1-.52.28c-.31,0-.17-.28-.15-.47,0-.4-.31-.49-.6-.59A.55.55,0,0,1,6.56,17.65Z"/><path class="cls-8" d="M10,20.52l-.15-1.21a1.66,1.66,0,0,1,1.37-.21s0,.09,0,.13c.22.69-.54.95-.64,1.5Z"/><path class="cls-11" d="M8.89,19.55a3.05,3.05,0,0,1,.21,1c.09.39-.26.3-.48.32C8.14,20.28,8.26,19.67,8.89,19.55Z"/><path class="cls-11" d="M6.56,17.65a.55.55,0,0,0-.11.41C6,18.59,6,18,5.9,17.79l0-.25C6.1,17.8,6.51,16.71,6.56,17.65Z"/><path class="cls-3" d="M11.21,19.23s0-.09,0-.13v-.25c.15,0,.3,0,.4.13C11.53,19.17,11.32,19.13,11.21,19.23Z"/><path class="cls-5" d="M5.08,22.11l-.13,0L5.09,22h0S5.08,22.07,5.08,22.11Z"/><path class="cls-9" d="M5.08,22.11s0-.08,0-.12a.93.93,0,0,0,.82-.41c.35.07.69-.15,1.06,0,.81.21,1,.62.45,1.28l-1-.14-.68-.12a.58.58,0,0,1-.55-.28Z"/><path class="cls-9" d="M4.3,24.69c.23-.4,0-.88.23-1.3.09-.22.15-.42.41-.46l.43.41h0a.25.25,0,0,0,.27.28l.4.13v.14c-.23,0-.4,0-.41.29C5.57,25.3,5.35,25.56,4.3,24.69Z"/><path class="cls-7" d="M6,23.89v-.14c-.06-.43.35-.69.41-1.08l1,.14c.15.35.22.71-.1,1A1.11,1.11,0,0,1,6,23.89Z"/><path class="cls-4" d="M9.56,25.72a.33.33,0,0,1-.12.32Z"/><path class="cls-5" d="M6.45,22.67c-.06.39-.47.65-.41,1.08l-.4-.13c0-.15-.09-.28-.27-.28h0l0-.4a.42.42,0,0,0,.42-.39Z"/><path class="cls-3" d="M5.35,22.94l0,.4-.43-.41C5.09,22.52,5.21,23,5.35,22.94Z"/><path class="cls-3" d="M5.23,9.76l-.52.09s0,0,0-.07c0-.31-.06-.8.29-.81S5.21,9.47,5.23,9.76Z"/><path class="cls-3" d="M3.6,9c.09,0,.12,0,.11.1Z"/><path class="cls-6" d="M18.65,12.77c-.12.05-.13.16-.14.27h-.34c.14-.16,0-.39.07-.51.55-.56-.11-.56-.34-.65a.52.52,0,0,0-.72.34c-.1.3,0,.56.39.57.16,0,.31.17.46.27a.65.65,0,0,1-1,0,.53.53,0,0,0-.49-.15l0-.78v-.49l0-.23.26-.12.38-.2h1.18a.62.62,0,0,0,.35.41h0Z"/><path class="cls-4" d="M13.86,9.08c.23-.25.53-.16.81-.18,0,.25.22.48.07.74.84.6.93.81.67,1.52A.45.45,0,0,0,15,11c-.16-.74-.58-.4-1-.23h-.38a.38.38,0,0,1-.17-.31l.17-.27h0C14,9.88,13.87,9.47,13.86,9.08Z"/><path class="cls-12" d="M14.31,13.35l-.54,0-.25-.07-.29-.09a3.25,3.25,0,0,1-.93-1.48h.24c.12.32.32.31.57.14.17.21.33.45.66.4,0,.23-.48.29-.27.6a.51.51,0,0,0,.42.15c.41-.12.2-.48.24-.75a1.92,1.92,0,0,0,.8.28c0,.15,0,.33.19.43l-.08.21-.1.09-.25.08Z"/><path class="cls-10" d="M12.54,11.68H12.3c0-.51-.12-1,.28-1.48l.67.27h.22a.38.38,0,0,0,.17.31,1.62,1.62,0,0,0,0,.22c-.12.06-.24.13-.22.3.07.62.5.78,1,.82.27,0,.57,0,.5.4a1.92,1.92,0,0,1-.8-.28h-.39c-.33,0-.49-.19-.66-.4s.33-.5,0-.61A.41.41,0,0,0,12.54,11.68Z"/><path class="cls-4" d="M13.25,10.46l-.67-.27a1.3,1.3,0,0,1,.62-.74c.07.29.54.35.43.74h0C13.44,10.18,13.25,10.17,13.25,10.46Z"/><path class="cls-12" d="M13.63,10.19c.11-.39-.36-.45-.43-.74a.64.64,0,0,1,.66-.37C13.87,9.47,14,9.88,13.63,10.19Z"/><path class="cls-11" d="M15.41,9.19a.82.82,0,0,1,.69.58c-.28.07-.23.41-.44.54a1.87,1.87,0,0,0-.54-.79A.32.32,0,0,0,15.41,9.19Z"/><path class="cls-12" d="M15.66,10.31c.21-.13.16-.47.44-.54.39.35.21.81.23,1.23l-.24.06C16.26,10.63,15.87,10.53,15.66,10.31Z"/><path class="cls-12" d="M15.41,9.19a.32.32,0,0,1-.29.33l-.38.12c.15-.26-.08-.49-.07-.74A.82.82,0,0,1,15.41,9.19Z"/><path class="cls-4" d="M16.09,11.06l.24-.06a.65.65,0,0,1,.16.44l0,.23c-.11-.2-.75,0-.41-.51A.17.17,0,0,0,16.09,11.06Z"/><path class="cls-3" d="M10,8l0-.34a.35.35,0,0,1,.26.34Z"/><path class="cls-9" d="M14.18,17.52l.12-.41a3.71,3.71,0,0,0,1.21-.68l1.25.31.08.05c.16.31.38.6.28,1l-.24.31c-.45.62-.45.62-1.39.3L15,18.19l-.81-.68Z"/><path class="cls-3" d="M14.17,17.51l.81.68-.09.28c-.42.1-.65-.26-1-.41C13.88,17.82,14.18,17.74,14.17,17.51Z"/><path class="cls-8" d="M19.44,19.73c0,.13,0,.37-.23.27-.1,0-.19-.17-.3-.08-.58.54-.54-.05-.66-.35l.26,0A1.51,1.51,0,0,1,19.44,19.73Z"/><path class="cls-3" d="M13.92,18.06c.32.15.55.51,1,.41a.66.66,0,0,1-.58.27l-.25,0-.16-.26Z"/><path class="cls-10" d="M22.89,21.59c-.26-.24-.89.12-.87-.55C22.51,20.91,22.74,21.19,22.89,21.59Z"/><path class="cls-12" d="M20.94,20.63l-.28-.14C20.77,20.5,20.89,20.5,20.94,20.63Z"/><path class="cls-12" d="M20.61,20.5l-.2-.15Z"/><path class="cls-3" d="M23.12,21.72,23,21.6Z"/><path class="cls-11" d="M18,15.88a.5.5,0,0,1,.13-.53c.15.16.09.36.11.54Z"/><path class="cls-3" d="M18.31,11.13H17.13A.77.77,0,0,1,18.31,11.13Z"/><path class="cls-3" d="M18.66,11.54a.62.62,0,0,1-.35-.41C18.58,11.14,18.66,11.31,18.66,11.54Z"/><path class="cls-12" d="M24.08,6.46l.17.16a1.16,1.16,0,0,1,0,.18h-.13Z"/><path class="cls-3" d="M24.21,5.32a2.44,2.44,0,0,1,.57-.16.48.48,0,0,1,.48.27.76.76,0,0,1-.15.49c-.21.35-.25-.06-.34-.12s-.5.58-.6-.08Z"/><path class="cls-13" d="M18,13.05c-.15-.1-.3-.27-.46-.27-.43,0-.49-.27-.39-.57a.52.52,0,0,1,.72-.34c.23.09.89.09.34.65-.11.12.07.35-.07.51Z"/><path class="cls-11" d="M17.62,13.74s-.05.1-.08.11c-.29.08-.21.71-.64.51s-.08-.6-.13-.91A2.6,2.6,0,0,1,17.62,13.74Z"/><path class="cls-11" d="M16.47,12.16l0,.78-.16.24-.41.15-.17-.42C15.84,12.51,16.26,12.44,16.47,12.16Z"/><path class="cls-5" d="M15.51,16.43a3.71,3.71,0,0,1-1.21.68h0a2.23,2.23,0,0,1,.14-.77c.14-.51.48-1,.4-1.52v-.29c.43.05,1-.09,1.15.47S15.86,16,15.51,16.43Z"/><path class="cls-9" d="M14.86,14.52v.29c-.46,0-.87.39-1.37.26,0,0,0-.08,0-.12l0-.15c.2-.33.39-.69.85-.71l.26,0Z"/><path class="cls-3" d="M15.76,12.91l.17.42-.18.36c-.15.28-.38.49-.69.39s0-.39-.08-.58a1.22,1.22,0,0,1,0-.27l.1-.09c.2,0,.3-.05.32-.25h0Z"/><path class="cls-3" d="M14.31,13.35l.41,0c0,.16.08.41-.14.45S14.33,13.53,14.31,13.35Z"/><path class="cls-3" d="M13.52,13.24l.25.07c0,.06-.1.18-.14.18S13.53,13.34,13.52,13.24Z"/><path class="cls-3" d="M14.58,14.13l-.26,0C14.42,14,14.51,14,14.58,14.13Z"/><path class="cls-6" d="M12,21.73a2.25,2.25,0,0,1-.34-.41c-.23-.49-.05-.72.48-.71.22,0,.54,0,.54.33S12.35,21.57,12,21.73Z"/><path class="cls-8" d="M12.29,19.11a2,2,0,0,1,.81.09c-.06.51-.49.66-.83.89C12.27,19.76,12.28,19.44,12.29,19.11Z"/><path class="cls-3" d="M13.9,18.44l.16.26,0,.48-.26-.05c0-.29-.45-.27-.43-.59Z"/><path class="cls-3" d="M10,20.52l.59.21a1.14,1.14,0,0,1,0,.73c-.08.24,0,.66-.26.69s-.54-.21-.74-.4-.07-.51.07-.74A5.48,5.48,0,0,1,10,20.52Z"/><polygon class="cls-8" points="6.55 11.49 6.51 11.51 6.52 11.46 6.55 11.49"/><path class="cls-5" d="M12.27,15.1l.29.07a.17.17,0,0,0,.12,0,.09.09,0,0,0,.09,0l.74.79c0,.4.26.71.27,1.1-.63-.08-1.11-.53-1.71-.67a1.62,1.62,0,0,0-.57-.16l-.06-.13,0-.55,0-.13.29-.28Z"/><path class="cls-3" d="M13.78,17.12c0-.39-.32-.7-.27-1.1l.05,0a2.5,2.5,0,0,1,.35,1.1l-.12.14S13.78,17.16,13.78,17.12Z"/><path class="cls-13" d="M8.33,17.59c-.27.1-.42-.42-.74,0,0-.4.44-.6.1-.88l-.07-.06c.39-.18.76-.29.87.31l0,.28Z"/><path class="cls-3" d="M8.33,17.59l.19-.34.15.27a.49.49,0,0,1-.32.41Z"/><path class="cls-3" d="M11.45,15.48l0,.13-.09-.13Z"/><path class="cls-7" d="M13.91,17.1a2.5,2.5,0,0,0-.35-1.1c0-.31-.37-.59-.08-.93.5.13.91-.22,1.37-.26.08.56-.26,1-.4,1.52a2.23,2.23,0,0,0-.14.77Z"/><path class="cls-3" d="M13.48,15.07c-.29.34.1.62.08.93l-.05,0-.74-.79.67-.28S13.47,15,13.48,15.07Z"/><path class="cls-3" d="M12.27,15.1l-.53.1C11.9,15.08,12,14.82,12.27,15.1Z"/><path class="cls-3" d="M12.68,15.2a.17.17,0,0,1-.12,0Z"/><path class="cls-13" d="M7.69,16.72a2.27,2.27,0,0,1-.06.25s-.08,0-.08,0a.24.24,0,0,1,.07-.3Z"/><path class="cls-3" d="M5.37,23.34c.18,0,.23.13.27.28A.25.25,0,0,1,5.37,23.34Z"/><path class="cls-3" d="M15.76,12.91l-.37,0a1.37,1.37,0,0,0,.1-1.05c.28-.15.19-.61.57-.68-.34.55.3.31.41.51v.49C16.26,12.44,15.84,12.51,15.76,12.91Z"/><path class="cls-10" d="M16.06,11.16c-.38.07-.29.53-.57.68l-.28-.14a1,1,0,0,0,.2-.54c.26-.71.17-.92-.67-1.52l.38-.12a1.87,1.87,0,0,1,.54.79c.21.22.6.32.43.75A.17.17,0,0,1,16.06,11.16Z"/><path class="cls-3" d="M14,10.77c.39-.17.81-.51,1,.23-.47,0-.4.27-.22.56-.11.07-.29.17-.34,0-.1-.3-.19-.47-.5-.24l-.08-.24Z"/><path class="cls-8" d="M14.77,11.56c-.18-.29-.25-.54.22-.56a.45.45,0,0,1,.42.16,1,1,0,0,1-.2.54A.55.55,0,0,0,14.77,11.56Z"/><path class="cls-6" d="M14,10.77c-.06.11-.11.23-.17.34l-.2-.13a1.62,1.62,0,0,1,0-.22Z"/><path class="cls-12" d="M13.25,10.46c0-.29.19-.28.39-.28l-.17.27Z"/><path class="cls-4" d="M13.65,11l.2.13.08.24c.31-.23.4-.06.5.24.05.14.23,0,.34,0a.55.55,0,0,1,.44.14l.28.14a1.37,1.37,0,0,1-.1,1.05h0l-.24,0c-.16-.1-.15-.28-.19-.43.07-.44-.23-.39-.5-.4-.53,0-1-.2-1-.82C13.41,11.11,13.53,11,13.65,11Z"/><path class="cls-4" d="M13.77,12.22h.39c0,.27.17.63-.24.75a.51.51,0,0,1-.42-.15C13.29,12.51,13.73,12.45,13.77,12.22Z"/><path class="cls-4" d="M12.54,11.68a.41.41,0,0,1,.53-.47c.37.11,0,.4,0,.61C12.86,12,12.66,12,12.54,11.68Z"/><path class="cls-3" d="M15.15,12.93l.24,0c0,.2-.12.28-.32.25Z"/></g><path class="cls-14" d="M15,2.5A12.5,12.5,0,1,1,2.5,15,12.5,12.5,0,0,1,15,2.5M15,1A14,14,0,1,0,29,15,14,14,0,0,0,15,1Z"/></svg>