<svg id="Livello_1" data-name="Livello 1" xmlns="http://www.w3.org/2000/svg" viewBox="0 0 30 30"><defs><style>.cls-1{fill:none;stroke:#000;stroke-miterlimit:10;stroke-width:0.5px;}.cls-2{fill:#d1d1d1;}</style></defs><path d="M4.78,13v1.25H4.06V10.72H5.28a1.11,1.11,0,0,1,.84.33,1.17,1.17,0,0,1,.31.85,1.07,1.07,0,0,1-.31.82,1.15,1.15,0,0,1-.86.31Zm0-.6h.5a.38.38,0,0,0,.31-.14.54.54,0,0,0,.12-.39.7.7,0,0,0-.12-.42.38.38,0,0,0-.31-.16h-.5Z"/><path d="M9.13,12.82a1.62,1.62,0,0,1-.34,1.11,1.16,1.16,0,0,1-.93.4,1.15,1.15,0,0,1-.94-.4,1.59,1.59,0,0,1-.35-1.09v-.61a1.75,1.75,0,0,1,.34-1.15,1.16,1.16,0,0,1,.94-.41,1.17,1.17,0,0,1,.94.41,1.75,1.75,0,0,1,.34,1.13Zm-.72-.6a1.47,1.47,0,0,0-.13-.71.47.47,0,0,0-.43-.24.46.46,0,0,0-.42.23,1.37,1.37,0,0,0-.14.69v.63a1.27,1.27,0,0,0,.14.69.48.48,0,0,0,.43.22.45.45,0,0,0,.41-.22,1.29,1.29,0,0,0,.14-.67Z"/><path d="M10.87,13.34a.44.44,0,0,0-.11-.32,1.23,1.23,0,0,0-.41-.23,2,2,0,0,1-.77-.48,1,1,0,0,1-.23-.64A.9.9,0,0,1,9.67,11a1.16,1.16,0,0,1,.81-.28,1.21,1.21,0,0,1,.58.14,1,1,0,0,1,.4.39,1.2,1.2,0,0,1,.13.57h-.71a.61.61,0,0,0-.11-.38.38.38,0,0,0-.3-.13.41.41,0,0,0-.3.11.44.44,0,0,0-.1.3.4.4,0,0,0,.11.27,1.29,1.29,0,0,0,.42.24,1.87,1.87,0,0,1,.76.46,1.09,1.09,0,0,1,.23.7.92.92,0,0,1-.29.72,1.17,1.17,0,0,1-.81.27,1.33,1.33,0,0,1-.63-.15,1.06,1.06,0,0,1-.44-.4,1.24,1.24,0,0,1-.16-.62H10a.66.66,0,0,0,.12.44.47.47,0,0,0,.39.14C10.74,13.74,10.87,13.61,10.87,13.34Z"/><path d="M14.09,11.32h-.88v3h-.72v-3h-.86v-.6h2.46Z"/><path d="M16.06,12.74H14.94v.94h1.32v.6h-2V10.72h2v.6H14.94v.84h1.12Z"/><path d="M17.47,13h-.35v1.3H16.4V10.72h1.14a1.21,1.21,0,0,1,.84.28,1.07,1.07,0,0,1,.29.8,1,1,0,0,1-.51,1l.62,1.45v0H18Zm-.35-.6h.4a.41.41,0,0,0,.33-.14.65.65,0,0,0,.1-.38c0-.36-.14-.54-.41-.54h-.42Z"/><path d="M19.63,14.28h-.71V10.72h.71Z"/><path d="M22.46,12.82a1.62,1.62,0,0,1-.34,1.11,1.18,1.18,0,0,1-.94.4,1.16,1.16,0,0,1-.94-.4,1.58,1.58,0,0,1-.34-1.09v-.61a1.75,1.75,0,0,1,.34-1.15,1.27,1.27,0,0,1,1.87,0,1.7,1.7,0,0,1,.35,1.13Zm-.72-.6a1.46,1.46,0,0,0-.14-.71.45.45,0,0,0-.42-.24.49.49,0,0,0-.43.23,1.49,1.49,0,0,0-.14.69v.63a1.37,1.37,0,0,0,.14.69.49.49,0,0,0,.43.22.45.45,0,0,0,.42-.22,1.29,1.29,0,0,0,.14-.67Z"/><path d="M23.77,13h-.36v1.3H22.7V10.72h1.14a1.17,1.17,0,0,1,.83.28,1,1,0,0,1,.3.8,1,1,0,0,1-.52,1l.63,1.45v0H24.3Zm-.36-.6h.41a.39.39,0,0,0,.32-.14.59.59,0,0,0,.11-.38q0-.54-.42-.54h-.42Z"/><path d="M25.93,14.28h-.72V10.72h.72Z"/><path d="M4.86,18H4.5v1.3H3.79V15.72H4.93a1.17,1.17,0,0,1,.83.28,1,1,0,0,1,.3.8,1,1,0,0,1-.52,1l.63,1.45v0H5.39Zm-.36-.6h.41a.39.39,0,0,0,.32-.14.59.59,0,0,0,.11-.38q0-.54-.42-.54H4.5Z"/><path d="M8,18.55H7l-.19.73H6l1.11-3.56h.66l1.12,3.56H8.16ZM7.15,18h.66l-.33-1.27Z"/><path d="M9.92,15.72l.67,2.57.67-2.57h.93v3.56h-.72v-1l.07-1.49-.71,2.45h-.49l-.71-2.45.07,1.49v1H9V15.72Z"/><path d="M13.21,18v1.25h-.72V15.72H13.7a1.11,1.11,0,0,1,.84.33,1.18,1.18,0,0,1,.32.85,1.11,1.11,0,0,1-.31.82,1.16,1.16,0,0,1-.86.31Zm0-.6h.49a.4.4,0,0,0,.32-.14.59.59,0,0,0,.11-.39.77.77,0,0,0-.11-.42.38.38,0,0,0-.31-.16h-.5Z"/><path d="M17.56,17.82a1.67,1.67,0,0,1-.34,1.11,1.19,1.19,0,0,1-.94.4,1.16,1.16,0,0,1-.94-.4A1.64,1.64,0,0,1,15,17.84v-.61a1.81,1.81,0,0,1,.34-1.15,1.28,1.28,0,0,1,1.88,0,1.75,1.75,0,0,1,.35,1.13Zm-.72-.6a1.46,1.46,0,0,0-.14-.71.45.45,0,0,0-.43-.24.46.46,0,0,0-.42.23,1.37,1.37,0,0,0-.14.69v.63a1.37,1.37,0,0,0,.14.69.49.49,0,0,0,.43.22.45.45,0,0,0,.42-.22,1.4,1.4,0,0,0,.14-.67Z"/><path d="M20.28,19.28h-.72l-1-2.33v2.33h-.72V15.72h.72l1,2.34V15.72h.72Z"/><path d="M22.31,18.55h-1l-.19.73h-.76l1.12-3.56h.65l1.12,3.56H22.5Zm-.82-.6h.67l-.34-1.27Z"/><path d="M25.33,16.32h-.88v3h-.72v-3h-.86v-.6h2.46Z"/><path d="M26.21,19.28H25.5V15.72h.71Z"/><circle class="cls-1" cx="15" cy="15" r="12.5"/><path class="cls-2" d="M15,2.5A12.5,12.5,0,1,1,2.5,15,12.5,12.5,0,0,1,15,2.5M15,1A14,14,0,1,0,29,15,14,14,0,0,0,15,1Z"/></svg>