<svg id="Livello_1" data-name="Livello 1" xmlns="http://www.w3.org/2000/svg" viewBox="0 0 30 30"><defs><style>.cls-1,.cls-2{fill:none;}.cls-1{stroke:#000;stroke-miterlimit:10;stroke-width:0.5px;}.cls-3{fill:#d1d1d1;}</style></defs><circle class="cls-1" cx="15" cy="15" r="12.5"/><rect class="cls-2" x="3" y="3" width="24" height="24"/><path d="M8,9.56V20.44A1.56,1.56,0,0,0,9.56,22H20.44A1.56,1.56,0,0,0,22,20.44V9.56A1.56,1.56,0,0,0,20.44,8H9.56A1.56,1.56,0,0,0,8,9.56Z"/><path class="cls-3" d="M15,2.5A12.5,12.5,0,1,1,2.5,15,12.5,12.5,0,0,1,15,2.5M15,1A14,14,0,1,0,29,15,14,14,0,0,0,15,1Z"/></svg>