<svg id="Livello_1" data-name="Livello 1" xmlns="http://www.w3.org/2000/svg" viewBox="0 0 30 30"><defs><style>.cls-1{fill:none;stroke:#000;stroke-miterlimit:10;stroke-width:0.5px;}.cls-2{fill:#d1d1d1;}</style></defs><circle class="cls-1" cx="15" cy="15" r="12.5"/><path d="M5.12,15.43H4.69V17H3.83V12.73H5.2a1.4,1.4,0,0,1,1,.33,1.25,1.25,0,0,1,.35,1,1.25,1.25,0,0,1-.61,1.19L6.68,17v0H5.76Zm-.43-.71h.49a.43.43,0,0,0,.38-.18.69.69,0,0,0,.13-.45c0-.43-.16-.65-.5-.65h-.5Z"/><path d="M9.35,15.15H8v1.13H9.6V17H7.15V12.73H9.59v.71H8v1H9.35Z"/><path d="M13,16.51a1.51,1.51,0,0,1-.61.4,2,2,0,0,1-.79.14,1.45,1.45,0,0,1-1.14-.45A1.91,1.91,0,0,1,10,15.27V14.5a2.1,2.1,0,0,1,.38-1.36,1.39,1.39,0,0,1,1.13-.47,1.42,1.42,0,0,1,1,.34A1.63,1.63,0,0,1,13,14.09h-.84a1,1,0,0,0-.17-.56.54.54,0,0,0-.42-.15.57.57,0,0,0-.51.26,1.64,1.64,0,0,0-.16.81v.77a1.67,1.67,0,0,0,.17.85.64.64,0,0,0,.58.27.71.71,0,0,0,.41-.11l.08-.05V15.4h-.61v-.65H13Z"/><path d="M16.38,12.73v2.95a1.43,1.43,0,0,1-.37,1,1.45,1.45,0,0,1-1,.35,1.41,1.41,0,0,1-1-.36,1.37,1.37,0,0,1-.36-1V12.73h.86v2.93a.87.87,0,0,0,.12.52.51.51,0,0,0,.42.16.49.49,0,0,0,.43-.16.9.9,0,0,0,.11-.5V12.73Z"/><path d="M17.89,16.28H19.4V17H17V12.73h.86Z"/><path d="M22,16.12H20.82l-.23.87h-.91L21,12.73h.79L23.14,17h-.92Zm-1-.72h.8l-.4-1.52Z"/><path d="M24.83,15.43H24.4V17h-.86V12.73h1.38a1.42,1.42,0,0,1,1,.33,1.28,1.28,0,0,1,.35,1,1.26,1.26,0,0,1-.62,1.19L26.4,17v0h-.93Zm-.43-.71h.49a.46.46,0,0,0,.39-.18.75.75,0,0,0,.13-.45c0-.43-.17-.65-.5-.65H24.4Z"/><path class="cls-2" d="M15,2.5A12.5,12.5,0,1,1,2.5,15,12.5,12.5,0,0,1,15,2.5M15,1A14,14,0,1,0,29,15,14,14,0,0,0,15,1Z"/></svg>