<svg id="Livello_1" data-name="Livello 1" xmlns="http://www.w3.org/2000/svg" xmlns:xlink="http://www.w3.org/1999/xlink" viewBox="0 0 30 30"><defs><style>.cls-1{fill:none;}.cls-2{clip-path:url(#clip-path);}.cls-3{fill:#012169;}.cls-4{fill:#fff;}.cls-5{fill:#c8102e;}.cls-6{fill:#d1d1d1;}</style><clipPath id="clip-path"><circle class="cls-1" cx="15" cy="15" r="12.5"/></clipPath></defs><g class="cls-2"><path class="cls-3" d="M-1.67,2.5H31.67v25H-1.67Z"/><path class="cls-4" d="M2.24,2.5,15,11.93,27.6,2.5h4.07V5.73l-12.5,9.32,12.5,9.27V27.5H27.5L15,18.18,2.55,27.5H-1.67V24.38L10.78,15.1-1.67,5.83V2.5Z"/><path class="cls-5" d="M20.42,17.14l11.25,8.28V27.5L17.55,17.14Zm-9.59,1L11.15,20l-10,7.5H-1.67ZM31.67,2.5v.16l-13,9.79.1-2.29L29.06,2.5Zm-33.34,0,12.45,9.17H7.66l-9.33-7Z"/><path class="cls-4" d="M10.89,2.5v25h8.33V2.5ZM-1.67,10.83v8.34H31.67V10.83Z"/><path class="cls-5" d="M-1.67,12.55v5H31.67v-5Zm14.22-10v25h5V2.5Z"/></g><circle class="cls-4" cx="15" cy="15" r="9"/><path class="cls-6" d="M15,2.5A12.5,12.5,0,1,1,2.5,15,12.5,12.5,0,0,1,15,2.5M15,1A14,14,0,1,0,29,15,14,14,0,0,0,15,1Z"/></svg>