<svg id="Livello_1" data-name="Livello 1" xmlns="http://www.w3.org/2000/svg" xmlns:xlink="http://www.w3.org/1999/xlink" viewBox="0 0 30 30"><defs><style>.cls-1{fill:none;}.cls-2{fill:#8b9091;}.cls-3{clip-path:url(#clip-path);}.cls-4{clip-path:url(#clip-path-2);}.cls-5{clip-path:url(#clip-path-3);}.cls-6{fill:#fff;}.cls-7{fill:#ef88b6;}.cls-8{fill:#fbd760;}.cls-9{fill:#99d5ea;}.cls-10{fill:#d1d1d1;}</style><clipPath id="clip-path"><circle class="cls-1" cx="65" cy="65" r="12.5" transform="translate(-12.08 14.91) rotate(-11.98)"/></clipPath><clipPath id="clip-path-2"><rect class="cls-1" x="43.4" y="43.02" width="40.28" height="40.28"/></clipPath><clipPath id="clip-path-3"><rect class="cls-1" x="25.18" y="26.21" width="39.89" height="39.71"/></clipPath></defs><circle class="cls-2" cx="15" cy="15" r="12.5"/><g class="cls-3"><g class="cls-4"><g class="cls-5"><path class="cls-6" d="M27.1,29.2s.06,0,.09-.06a2.55,2.55,0,0,0,.61-.37.69.69,0,0,0,.11-.13h0a.57.57,0,0,1,1,.6.56.56,0,0,1-.79.19h0a.2.2,0,0,0-.13,0l-.25.08a1,1,0,0,1-.23.08.22.22,0,0,1-.21-.07c0-.07,0-.17-.12-.22h0A.08.08,0,0,1,27.1,29.2Z"/><path class="cls-7" d="M28,28.91h0v0h.13l0,0,0,0h0s0,0,0,0a.07.07,0,0,0,.09,0s0,0,0,0h-.07s0,0,0,0a.12.12,0,0,0,.06,0h-.09v0h0a.08.08,0,0,0,0,.06h-.06v0a.08.08,0,0,0,0,.09H28.2v0a0,0,0,0,0,0,0h-.1l0,0h0v0Z"/><path class="cls-7" d="M27.27,29.22h-.06l0,0h0v.05l0,0h0v0h.07Z"/><path class="cls-7" d="M28.41,28.87a0,0,0,0,1,0,0h0a0,0,0,0,1,0,0l0,0a0,0,0,0,0,0,0S28.4,28.89,28.41,28.87Z"/><path class="cls-7" d="M28.44,29a0,0,0,0,1,0,0s0,0,0,0h0s0,0,0,.05-.06,0-.07,0h0A.27.27,0,0,1,28.44,29Z"/><path class="cls-6" d="M32.07,32.12a1,1,0,0,0-.25-1,1,1,0,0,0-.81-.27c-1,0-1.17-.45-1.17-.45l-.93-1.7-.68.63a1.14,1.14,0,0,1,0,1.14,1.16,1.16,0,0,0-.18.83c.15,1,2.39,1.62,3.23,1.46A.94.94,0,0,0,32.07,32.12Z"/><path class="cls-8" d="M28.13,28.51l-.25-.92a0,0,0,1,1,.06,0l.44.88A.23.23,0,0,1,28.13,28.51Z"/><path class="cls-9" d="M29.3,30.3a1.06,1.06,0,0,0,.14.56.7.7,0,0,0,.48.32.56.56,0,0,1-.19-.44,1.1,1.1,0,0,1,.16-.47l.12-.21a.66.66,0,0,0,0-.55.51.51,0,0,0-.45-.29A5.68,5.68,0,0,0,29.3,30.3Z"/><path class="cls-7" d="M29.26,29.05a.21.21,0,0,1,0,.23.66.66,0,0,1-.15.19,1.32,1.32,0,0,0-.16.25,1.06,1.06,0,0,0-.09.25,1.09,1.09,0,0,0,0,.36.61.61,0,0,0,.25.37.6.6,0,0,0,.43.11.59.59,0,0,1-.13-.46,1.19,1.19,0,0,1,.16-.48,3.84,3.84,0,0,0,.18-.35.59.59,0,0,0,.06-.39.61.61,0,0,0-.25-.36.5.5,0,0,0-.2-.08.23.23,0,0,0-.21,0Z"/><path class="cls-8" d="M28.55,28.55a.4.4,0,0,1,.28.1.35.35,0,0,1,.05.3,1.3,1.3,0,0,1-.22.46,1.14,1.14,0,0,0-.1.19.58.58,0,0,0,0,.43.69.69,0,0,0,.47.34.53.53,0,0,1-.11-.24A.3.3,0,0,1,29,30a1.29,1.29,0,0,1,.26-.49,1.63,1.63,0,0,0,.17-.2.58.58,0,0,0-.07-.63.62.62,0,0,0-.44-.3.24.24,0,0,0-.24.09Z"/><path class="cls-9" d="M28.44,28.47a.25.25,0,0,0-.36-.3.4.4,0,0,0-.18.22c0,.09,0,.18-.09.27a.56.56,0,0,1-.11.2.15.15,0,0,1-.12.07.58.58,0,0,0,.54-.32C28.27,28.26,28.44,28.47,28.44,28.47Z"/><path class="cls-6" d="M28.56,28.62s.27-.12.19-.55c0,0-.42.11-.35.5Z"/><path class="cls-7" d="M28.58,28.59a.45.45,0,0,0,.1-.37s-.19,0-.27.32c0,0,0,0,0,0h0s0,0,0,0h0s0,0,0,0h0s0,0,0,0h0S28.57,28.61,28.58,28.59Z"/><path class="cls-7" d="M25.57,29.1a.23.23,0,0,1-.23.23.23.23,0,0,1-.24-.23.24.24,0,1,1,.47,0Z"/></g></g></g><path class="cls-10" d="M15,2.5A12.5,12.5,0,1,1,2.5,15,12.5,12.5,0,0,1,15,2.5M15,1A14,14,0,1,0,29,15,14,14,0,0,0,15,1Z"/></svg>