<svg id="Livello_1" data-name="Livello 1" xmlns="http://www.w3.org/2000/svg" xmlns:xlink="http://www.w3.org/1999/xlink" viewBox="0 0 30 30"><defs><style>.cls-1{fill:none;}.cls-2{clip-path:url(#clip-path);}.cls-3{clip-path:url(#clip-path-2);}.cls-4{clip-path:url(#clip-path-3);}.cls-5{fill:#fff;}.cls-6{fill:#ef88b6;}.cls-7{fill:#fbd760;}.cls-8{fill:#99d5ea;}.cls-9{fill:#e3e4e3;}.cls-10{clip-path:url(#clip-path-4);}.cls-11{fill:#d1d1d1;}.cls-12{fill:#6c4930;}</style><clipPath id="clip-path"><circle class="cls-1" cx="15" cy="65" r="12.5" transform="translate(-13.17 4.53) rotate(-11.98)"/></clipPath><clipPath id="clip-path-2"><rect class="cls-1" x="-6.6" y="43.02" width="40.28" height="40.28"/></clipPath><clipPath id="clip-path-3"><rect class="cls-1" x="15.08" y="26.21" width="39.89" height="39.71"/></clipPath><clipPath id="clip-path-4"><rect class="cls-1" x="-24.82" y="26.21" width="39.89" height="39.71"/></clipPath></defs><g class="cls-2"><g class="cls-3"><g class="cls-4"><path class="cls-5" d="M17,29.2s.06,0,.1-.06a2.49,2.49,0,0,0,.6-.37.69.69,0,0,0,.11-.13h0a.57.57,0,1,1,.18.79h0a.19.19,0,0,0-.13,0l-.26.08a.83.83,0,0,1-.22.08.25.25,0,0,1-.22-.07c-.05-.07-.05-.17-.11-.22h0A.08.08,0,0,1,17,29.2Z"/><path class="cls-6" d="M17.91,28.91h0l0,0h.13s0,0,0,0l.05,0h0s0,0,0,0a.06.06,0,0,0,.08,0s0,0,0,0h-.07s0,0,0,0a.12.12,0,0,0,.06,0h-.09s0,0,0,0h0s0,0,0,.06h-.06v0a.09.09,0,0,0,0,.09h-.07v0H18l0,0h0v0Z"/><path class="cls-6" d="M17.17,29.22H17.1s0,0,0,0h0a0,0,0,0,0,0,0v0s0,0,0,0h0v0h.07Z"/><path class="cls-6" d="M18.31,28.87s0,0,0,0h0a0,0,0,0,1,0,0l0,0a0,0,0,0,1,0,0S18.3,28.89,18.31,28.87Z"/><path class="cls-6" d="M18.34,29s0,0,0,0a0,0,0,0,1,0,0h0a0,0,0,0,1,0,.05s-.05,0-.07,0h0S18.32,29,18.34,29Z"/><path class="cls-5" d="M22,32.12a1,1,0,0,0-.26-1,1,1,0,0,0-.81-.27c-1,0-1.17-.45-1.17-.45l-.92-1.7-.68.63a1.13,1.13,0,0,1,0,1.14,1.08,1.08,0,0,0-.17.83c.14,1,2.38,1.62,3.23,1.46A1,1,0,0,0,22,32.12Z"/><path class="cls-7" d="M18,28.51l-.25-.92s.05-.06.06,0,.41.82.45.88A.24.24,0,0,1,18,28.51Z"/><path class="cls-8" d="M19.19,30.3a1,1,0,0,0,.15.56.68.68,0,0,0,.47.32.52.52,0,0,1-.18-.44,1.08,1.08,0,0,1,.15-.47,2.25,2.25,0,0,0,.12-.21.66.66,0,0,0,0-.55.51.51,0,0,0-.44-.29A6.35,6.35,0,0,0,19.19,30.3Z"/><path class="cls-6" d="M19.16,29.05a.24.24,0,0,1,0,.23,1.39,1.39,0,0,1-.15.19,1.38,1.38,0,0,0-.17.25,1.83,1.83,0,0,0-.08.25.73.73,0,0,0,0,.36.59.59,0,0,0,.24.37.61.61,0,0,0,.43.11.67.67,0,0,1-.13-.46,1.36,1.36,0,0,1,.16-.48,3.9,3.9,0,0,0,.19-.35.65.65,0,0,0,.05-.39.57.57,0,0,0-.25-.36.44.44,0,0,0-.2-.08.23.23,0,0,0-.21,0Z"/><path class="cls-7" d="M18.44,28.55a.4.4,0,0,1,.28.1.36.36,0,0,1,.06.3,1.3,1.3,0,0,1-.22.46,1.18,1.18,0,0,0-.11.19.64.64,0,0,0,0,.43.7.7,0,0,0,.48.34.46.46,0,0,1-.12-.24.3.3,0,0,1,0-.16,1.18,1.18,0,0,1,.27-.49,1.56,1.56,0,0,0,.16-.2.58.58,0,0,0-.06-.63.66.66,0,0,0-.45-.3.24.24,0,0,0-.24.09Z"/><path class="cls-8" d="M18.34,28.47a.29.29,0,0,0-.09-.27.28.28,0,0,0-.28,0,.38.38,0,0,0-.17.22c0,.09-.06.18-.09.27a.82.82,0,0,1-.12.2.15.15,0,0,1-.12.07.59.59,0,0,0,.55-.32C18.16,28.26,18.34,28.47,18.34,28.47Z"/><path class="cls-5" d="M18.45,28.62s.28-.12.2-.55c0,0-.43.11-.36.5Z"/><path class="cls-6" d="M18.48,28.59a.48.48,0,0,0,.1-.37s-.2,0-.28.32c0,0,0,0,0,0h0s0,0,0,0h0a0,0,0,0,0,0,0h0s0,0,0,0h0S18.47,28.61,18.48,28.59Z"/><path class="cls-6" d="M22.22,29.58,22,29.4a.1.1,0,0,0-.1,0l-.28.07a.11.11,0,0,1-.14-.15l.11-.26a.14.14,0,0,0,0-.11l-.16-.24a.11.11,0,0,1,.1-.17h.29a.09.09,0,0,0,.09,0l.18-.23a.11.11,0,0,1,.2,0l.07.28a.12.12,0,0,0,.07.07l.27.1a.11.11,0,0,1,0,.2l-.25.16a.11.11,0,0,0,0,.09v.29A.12.12,0,0,1,22.22,29.58Z"/><path class="cls-8" d="M25.18,26.45a.6.6,0,0,1-.49.95.58.58,0,0,1-.19,0,.62.62,0,0,0,.5.26.6.6,0,0,0,.6-.61A.59.59,0,0,0,25.18,26.45Z"/><path class="cls-6" d="M15.47,29.1a.24.24,0,0,1-.48,0,.24.24,0,0,1,.48,0Z"/><path class="cls-7" d="M22.08,26.45a.23.23,0,0,1-.23.24.24.24,0,1,1,0-.48A.23.23,0,0,1,22.08,26.45Z"/><path class="cls-9" d="M28,30a.86.86,0,0,0,0-.57s0,0,0-.06a.61.61,0,0,1,1.2-.22s.19.41-.37,1c0,0-.28.24-.17.51s.61,1.07.61,1.07l-.35.07A2.93,2.93,0,0,0,28,30.63C27.85,30.54,27.91,30.28,28,30Z"/><path class="cls-8" d="M26.33,28.51a.52.52,0,0,0,0,.54c.18.28.47.86,0,1.22s-1.07-.16-1.3-.44h0l.26.2a1.13,1.13,0,0,0,.43.2.47.47,0,0,0,.43-.15.55.55,0,0,0,0-.54c-.07-.18-.18-.35-.23-.53a.76.76,0,0,1,.1-.64.89.89,0,0,1,.57-.32.94.94,0,0,1,.5,0,1.23,1.23,0,0,1,.33.23C27.26,28.23,26.55,28.08,26.33,28.51Z"/><path class="cls-6" d="M26.4,30.27c.43-.36.14-.94,0-1.22a.52.52,0,0,1,0-.54c.22-.43.93-.28,1.19-.21h0l0,.08c-.09,0-.64-.2-.81.17a.45.45,0,0,0,0,.39A1.68,1.68,0,0,1,27,30.13a1.15,1.15,0,0,1-1.49.72,1,1,0,0,1-.28-.54l-.09-.48C25.33,30.11,25.88,30.68,26.4,30.27Z"/><path class="cls-7" d="M27,30.13A1.68,1.68,0,0,0,26.71,29a.45.45,0,0,1,0-.39c.17-.37.72-.2.81-.17v.05a.81.81,0,0,0-.31-.06.41.41,0,0,0-.27.13.43.43,0,0,0-.09.33,1.31,1.31,0,0,0,.12.33,2.71,2.71,0,0,1,.34.73,1.1,1.1,0,0,1-.34,1,1.09,1.09,0,0,1-1.05.21,1.22,1.22,0,0,1-.41-.27A1.15,1.15,0,0,0,27,30.13Z"/><path class="cls-5" d="M27,29.34a1,1,0,0,1,.4-1,1,1,0,0,1,.86-.18c1,.12,1.26-.3,1.26-.3l1.18-1.62.61.74a1.17,1.17,0,0,0-.17,1.16,1.17,1.17,0,0,1,.07.88c-.28,1-2.66,1.34-3.5,1.07A1,1,0,0,1,27,29.34Z"/><path class="cls-5" d="M27.43,30.51a.89.89,0,0,0,0-.58.14.14,0,0,1,0-.06.61.61,0,1,1,1.2-.22s.19.42-.37,1c0,0-.28.24-.17.51s.61,1.07.61,1.07l-.35.07a3,3,0,0,0-.85-1.21C27.29,31,27.35,30.78,27.43,30.51Z"/><path class="cls-5" d="M29.7,29.42h0a.07.07,0,0,0,0-.05.6.6,0,0,1,.48-.7.6.6,0,0,1,.7.48.86.86,0,0,1,0,.16h0a10,10,0,0,0-.29,1.23A3.64,3.64,0,0,0,30.84,32l-.35.06S29.74,29.54,29.7,29.42Z"/><path class="cls-8" d="M30.12,27.84a1.05,1.05,0,0,1-.22.56.73.73,0,0,1-.53.26.57.57,0,0,0,.25-.43,1.24,1.24,0,0,0-.1-.5,2.18,2.18,0,0,1-.09-.23.65.65,0,0,1,.06-.56.53.53,0,0,1,.5-.25A6,6,0,0,1,30.12,27.84Z"/><path class="cls-6" d="M30.32,26.56a.25.25,0,0,0,0,.24,1.59,1.59,0,0,0,.13.22,1.22,1.22,0,0,1,.14.28,2,2,0,0,1,.05.26.78.78,0,0,1,0,.37.65.65,0,0,1-.76.41.63.63,0,0,0,.2-.47,1.24,1.24,0,0,0-.1-.5c-.05-.13-.1-.25-.14-.39a.71.71,0,0,1,0-.41.62.62,0,0,1,.31-.33.56.56,0,0,1,.21-.06.26.26,0,0,1,.21.08Z"/></g><g class="cls-10"><path class="cls-8" d="M5.87,28.55a1.64,1.64,0,0,1,2.28.52l.31-.19A2,2,0,1,0,5,31l.31-.19A1.65,1.65,0,0,1,5.87,28.55Z"/><path class="cls-6" d="M5.87,28.55a1.65,1.65,0,0,0-.52,2.28l.31-.2a1.29,1.29,0,0,1,2.19-1.37l.3-.19A1.64,1.64,0,0,0,5.87,28.55Z"/><path class="cls-7" d="M6.07,28.85a1.29,1.29,0,0,0-.41,1.78l.3-.19a.93.93,0,0,1,1.58-1l.31-.19A1.3,1.3,0,0,0,6.07,28.85Z"/><path class="cls-5" d="M5,31.81a.59.59,0,0,0,.42-.13,1.18,1.18,0,0,0,.38-.42.28.28,0,0,0,.29.06.81.81,0,0,0,.26-.18A.48.48,0,0,0,6.44,31a.18.18,0,0,0-.06-.18.55.55,0,0,0,.29-.47.5.5,0,0,0-.29-.46.6.6,0,0,0-.58.05.77.77,0,0,0-.32.5.32.32,0,0,0-.37-.08.55.55,0,0,0-.27.31.36.36,0,0,0-.42.3.34.34,0,0,0,.34.37S4.57,31.75,5,31.81Z"/><path class="cls-5" d="M7.4,30.42a.63.63,0,0,0,.43-.13,1.25,1.25,0,0,0,.37-.42.28.28,0,0,0,.29.06.63.63,0,0,0,.26-.19.38.38,0,0,0,.12-.16c0-.07,0-.15-.06-.18a.56.56,0,0,0,.29-.48.49.49,0,0,0-.29-.45.6.6,0,0,0-.58.05.77.77,0,0,0-.32.5.32.32,0,0,0-.37-.08.55.55,0,0,0-.27.31.36.36,0,0,0-.42.3.34.34,0,0,0,.34.37S7,30.36,7.4,30.42Z"/><path class="cls-9" d="M8.47,29.67l-.15,0a.4.4,0,0,1-.22-.06h0a1.76,1.76,0,0,1-.32.39.55.55,0,0,1-.19.12.39.39,0,0,1-.39-.05.26.26,0,0,0,.25.3.63.63,0,0,0,.43-.13,1.25,1.25,0,0,0,.37-.42.28.28,0,0,0,.29.06.63.63,0,0,0,.26-.19.38.38,0,0,0,.12-.16.24.24,0,0,0,0-.12A1.47,1.47,0,0,1,8.47,29.67Z"/><path class="cls-7" d="M11.48,28.6l-.23-.19a.12.12,0,0,0-.1,0l-.28.08a.11.11,0,0,1-.13-.15l.1-.27a.09.09,0,0,0,0-.1l-.16-.24a.12.12,0,0,1,.1-.18l.29,0a.13.13,0,0,0,.1,0l.17-.23a.12.12,0,0,1,.2,0l.07.28a.11.11,0,0,0,.07.08l.28.1a.11.11,0,0,1,0,.2l-.25.15a.12.12,0,0,0-.05.1v.28A.11.11,0,0,1,11.48,28.6Z"/><path class="cls-6" d="M15.47,29.1a.24.24,0,0,1-.48,0,.24.24,0,0,1,.48,0Z"/><path class="cls-8" d="M7.89,26.45a.24.24,0,1,1-.24-.24A.24.24,0,0,1,7.89,26.45Z"/><path class="cls-8" d="M3.14,27.17,2.92,27a.12.12,0,0,0-.1,0L2.54,27a.11.11,0,0,1-.13-.15l.1-.27a.09.09,0,0,0,0-.1l-.16-.24a.12.12,0,0,1,.1-.18l.29,0a.1.1,0,0,0,.09,0L3,25.85a.12.12,0,0,1,.2,0l.07.28a.11.11,0,0,0,.07.08l.28.1a.11.11,0,0,1,0,.2l-.25.16a.11.11,0,0,0-.05.09v.29A.12.12,0,0,1,3.14,27.17Z"/><path class="cls-6" d="M.57,28.66a.24.24,0,0,1-.24.24.24.24,0,1,1,0-.47A.23.23,0,0,1,.57,28.66Z"/></g></g></g><path class="cls-11" d="M15,2.5A12.5,12.5,0,1,1,2.5,15,12.5,12.5,0,0,1,15,2.5M15,1A14,14,0,1,0,29,15,14,14,0,0,0,15,1Z"/><path d="M6.16,23.84A12.5,12.5,0,0,1,23.84,6.16Z"/><path class="cls-12" d="M6.16,23.84A12.5,12.5,0,0,0,23.84,6.16Z"/></svg>