<svg id="Livello_1" data-name="Livello 1" xmlns="http://www.w3.org/2000/svg" xmlns:xlink="http://www.w3.org/1999/xlink" viewBox="0 0 30 30"><defs><style>.cls-1{fill:none;}.cls-2{clip-path:url(#clip-path);}.cls-3{clip-path:url(#clip-path-2);}.cls-4{clip-path:url(#clip-path-3);}.cls-5{fill:#fbd760;}.cls-6{fill:#ef88b6;}.cls-7{fill:#d1d1d1;}.cls-8{fill:#e2c222;}</style><clipPath id="clip-path"><circle class="cls-1" cx="-35" cy="65" r="12.5" transform="translate(-14.26 -5.85) rotate(-11.98)"/></clipPath><clipPath id="clip-path-2"><rect class="cls-1" x="-56.6" y="43.02" width="40.28" height="40.28"/></clipPath><clipPath id="clip-path-3"><rect class="cls-1" x="-34.92" y="26.21" width="39.89" height="39.71"/></clipPath></defs><g class="cls-2"><g class="cls-3"><g class="cls-4"><path class="cls-5" d="M1.37,28.6l-.22-.19a.14.14,0,0,0-.11,0l-.27.08a.11.11,0,0,1-.14-.15l.11-.27a.12.12,0,0,0,0-.1l-.17-.24a.12.12,0,0,1,.11-.18l.28,0a.12.12,0,0,0,.1,0l.18-.23a.12.12,0,0,1,.2,0l.07.28a.1.1,0,0,0,.07.08l.27.1a.11.11,0,0,1,0,.2l-.24.15a.12.12,0,0,0-.05.1l0,.28A.11.11,0,0,1,1.37,28.6Z"/><path class="cls-6" d="M5.36,29.1a.23.23,0,0,1-.24.23.23.23,0,0,1-.23-.23.23.23,0,0,1,.23-.24A.24.24,0,0,1,5.36,29.1Z"/></g></g></g><path class="cls-7" d="M15,2.5A12.5,12.5,0,1,1,2.5,15,12.5,12.5,0,0,1,15,2.5M15,1A14,14,0,1,0,29,15,14,14,0,0,0,15,1Z"/><path d="M6.16,23.84A12.5,12.5,0,0,1,23.84,6.16Z"/><path class="cls-8" d="M6.16,23.84A12.5,12.5,0,0,0,23.84,6.16Z"/></svg>