<svg xmlns="http://www.w3.org/2000/svg" xmlns:xlink="http://www.w3.org/1999/xlink" viewBox="0 0 30 30"><defs><style>.cls-1{fill:none;}.cls-2{isolation:isolate;}.cls-3{clip-path:url(#clip-path);}.cls-4{fill:#ece5d3;}.cls-5{clip-path:url(#clip-path-2);}.cls-6{fill:#e0ad6e;}.cls-7{mix-blend-mode:multiply;opacity:0.35;}.cls-8{fill:#d7ac81;}.cls-9{fill:#f5ce94;}.cls-10{fill:#221e20;}.cls-11{fill:#7b212b;}.cls-12{fill:#d1d1d1;}</style><clipPath id="clip-path"><circle class="cls-1" cx="-285" cy="-35" r="12.5"/></clipPath><clipPath id="clip-path-2"><circle class="cls-1" cx="-35" cy="-35" r="12.5"/></clipPath></defs><g class="cls-2"><g id="Livello_1" data-name="Livello 1"><g class="cls-3"><rect class="cls-4" x="-988.08" y="-607.96" width="1500" height="1000"/></g><g class="cls-5"><rect class="cls-6" x="-75.98" y="-57.65" width="92.23" height="61.49"/><g class="cls-7"><path class="cls-8" d="M-9.76-23c1.93.73,3.89,1.48,5.85,2.12a8.67,8.67,0,0,1,6,6.69A21.9,21.9,0,0,0,4.68-7c1,1.45,2.77,1.65,4.1,2.68,1.64,1.28,2.37,4.07,2.6,6,.09.73.11,1.46.17,2.17h4.7V-1.73a12.89,12.89,0,0,0-2.19-3.12C12-7,8.83-8,6.8-10.17c-1.64-1.77-1.11-4.25-1.3-6.45a7.49,7.49,0,0,0-2.12-4.77c-1.79-1.72-4.21-2.44-6.59-3.05a25.79,25.79,0,0,1-3.38-.63c-1.23-.47-2.32-1.25-3.52-1.79s-3.46-1-2.93,1C-12.64-24.3-11.11-23.55-9.76-23Z"/><path class="cls-8" d="M-20.38-23c1.93.73,3.89,1.48,5.86,2.12a8.68,8.68,0,0,1,5.94,6.69A22.13,22.13,0,0,0-5.94-7c1,1.45,2.77,1.65,4.1,2.68C-.2-3.08.53-.29.76,1.67c.09.73.12,1.46.17,2.17H7A12.7,12.7,0,0,0,3.44-4.85C1.33-7-1.79-8-3.82-10.17c-1.64-1.77-1.11-4.25-1.3-6.45a7.44,7.44,0,0,0-2.12-4.77c-1.79-1.72-4.21-2.44-6.59-3.05a25.79,25.79,0,0,1-3.38-.63c-1.23-.47-2.32-1.25-3.52-1.79s-3.46-1-2.93,1C-23.26-24.3-21.73-23.55-20.38-23Z"/></g><path class="cls-9" d="M9.85-.54c.2-.15.18.13.29.06,0,.1.25.13.24.15s.3.32.19.21c.16.07-.05.24.14.25,0,0,.3.11.08.2s.12.21.1.2c0,.24.14.13.09.22s.24.2.08.22a.7.7,0,0,1,0,.43c-.19.24,0,.2-.1.25s0,.15-.17.24-.11.23-.21.21-.1,0-.2.19,0,.19-.17.15c0,.16,0,.11-.18.14s-.22.07-.2.12c-.16.06-.2.2-.22.08s-.28-.15-.22,0-.12,0-.22,0c0,.11-.11,0-.23-.13s0-.12-.18-.18a.25.25,0,0,1-.18-.19c.05-.1,0-.15-.2-.16S8.12,1.9,8.13,2c0-.08,0-.14,0-.27s.1-.29.07-.24c0-.14-.28-.25.08-.24,0-.08-.1-.19.09-.24,0-.15.11-.13.1-.23s.09-.14.11-.24.05-.11.1-.22S8.85.18,8.8.11,9,.08,9-.1s.11-.11.19-.19.15-.05.22-.15.25-.21.23-.08S9.78-.58,9.85-.54Z"/><path class="cls-9" d="M12.85,2.75a1.48,1.48,0,0,1-.07.26c0,.1,0,.24,0,.25s.07.12.14.28.2.23.2.2a.43.43,0,0,1,.16.1h1.45a1.15,1.15,0,0,0,.14-.17,1.86,1.86,0,0,0,.27-1.1A1.51,1.51,0,0,0,15,1.74a.72.72,0,0,0-.22-.2.65.65,0,0,0-.29-.11c-.13,0-.23,0-.25-.05s-.18.05-.22,0-.11.05-.22.08-.26.2-.22.14a1.13,1.13,0,0,0-.24.15c.07.1-.21,0-.25.15s-.25.15-.23.17c-.22.12-.08.26,0,.38C12.76,2.52,12.66,2.57,12.85,2.75Z"/><path class="cls-9" d="M6,3.06c.07,0,0,.18.1.31s0,.12.07.23a.6.6,0,0,1,.09.24H7.53s0-.09,0-.09-.09-.06-.15-.18c.11-.09-.19.06-.18-.18,0,0,0-.1-.18-.15s0-.07-.18-.17c0,.06-.22,0-.14-.16s-.17-.2-.2-.21a.89.89,0,0,0-.21-.17s-.17.05-.2,0,0,.16-.11.21S6.07,2.89,6,3.06Z"/><path class="cls-9" d="M.81-.22c0-.11-.07-.25.07-.3S1-.6,1-.78s.17-.1.17-.24.2-.15.2-.2c.16,0,.14-.12.22-.18s.14-.15.25-.17c.27-.05.17-.05.26-.14s.49.08.27-.12c.1-.11.15-.21.31-.1.08-.23.17.05.31,0s.23.1.31,0a.73.73,0,0,1,.32.06c.2.05.41.12.61.19a1.31,1.31,0,0,1,.27.12,1.43,1.43,0,0,1,.26.13A1.58,1.58,0,0,1,5-1.27c.08-.07.11.21.19.2,0,.14.08.13.16.21s.12.08.13.25.19.28.09.27.22.17,0,.31,0,.31,0,.35a.21.21,0,0,0-.07.27c0,.09-.12.16-.14.23S5.26.9,5.17,1s-.07.1-.23.16-.13.1-.24.14,0,.2-.26.15c0-.1-.09,0-.26.18,0,.17-.15.27-.33.27,0,0-.13.3-.36.2,0,0-.24,0-.28,0S3.1,2.08,3,2s-.12-.17-.23-.15-.17-.06-.22-.2-.12-.21-.2-.22a2.38,2.38,0,0,1-.18-.22C2.05,1.08,2,1.19,2,1s0-.13-.2-.22,0-.2-.19-.19-.22,0-.22-.18A.64.64,0,0,1,1.11.29C.93.08,1,.33.85.11.72.22,1-.12.81-.22Z"/><path class="cls-10" d="M8.43,2.72s0,0,0-.06a.74.74,0,0,1,0-.26h0a.58.58,0,0,1,.17-.29A.64.64,0,0,1,8.78,2,.24.24,0,0,1,9,1.93a1.71,1.71,0,0,1,.3-.05h.09c0-.06.17,0,.34-.05A2,2,0,0,0,10,1.63c.11-.09.16-.18.29-.12s.2,0,.31,0,.36,0,.37.18a.81.81,0,0,1,.29.29,1.27,1.27,0,0,1,.11.18h0c0,.07,0,.13.07.2v0a.37.37,0,0,1,0,.16v.08c.16.16,0,.17,0,.2h0A.46.46,0,0,1,11.4,3s0,0,0,0h0c0,.08-.1.12-.17.15a.43.43,0,0,1-.22.06h0a.57.57,0,0,1-.22,0h0a.15.15,0,0,1-.21-.08h0a.27.27,0,0,1-.17-.07A1.17,1.17,0,0,1,10.1,3,.33.33,0,0,0,10,3h0a.76.76,0,0,0-.22.11c-.06.07-.25.25-.36.23s-.23.19-.31.06,0,0-.07,0a.37.37,0,0,1-.22-.1s0,0,0,0A1.28,1.28,0,0,1,8.53,3C8.27,3.06,8.26,2.92,8.43,2.72Z"/><path class="cls-10" d="M12.15,3.26a.9.9,0,0,0,.06.22s0,.06,0,.06,0,.22.12.3h1.82A.23.23,0,0,0,14,3.69a.82.82,0,0,0-.17-.11l0,0c0-.05-.17-.19-.34-.13a.71.71,0,0,1-.3-.18A.53.53,0,0,1,13,3h0a.24.24,0,0,0,0-.29.52.52,0,0,0,0-.11.21.21,0,0,0,0-.15.34.34,0,0,0-.09-.13h0s-.07-.06-.08-.05a.2.2,0,0,0-.17,0l-.05,0c-.09,0-.07,0-.17.15l-.09.12c-.06.06-.12.09-.07.13h0a1.72,1.72,0,0,0-.07.21s0,0,0,.08v.09a.24.24,0,0,0,0,.2Z"/><path class="cls-10" d="M5.29,2.11h0s0,0,0,0a1.08,1.08,0,0,1,.4-.21.06.06,0,0,1,.07,0,.09.09,0,0,1,.08,0,.76.76,0,0,1,.2-.06h0c.15-.1.13-.12.32,0h0a.82.82,0,0,1,.28.07s0,0,0,0a.75.75,0,0,1,.19.17l0,0a.6.6,0,0,1,.15.41h0A.91.91,0,0,1,7,2.8a.17.17,0,0,1,0,.14,1.28,1.28,0,0,1-.11.2h0a.35.35,0,0,1-.3.19c-.12,0-.19,0-.32-.16A.61.61,0,0,0,5.93,3a.48.48,0,0,1-.35,0,.6.6,0,0,1-.19-.06c-.08,0-.16,0-.19-.2a.81.81,0,0,1,0-.3v0h0S5.2,2.21,5.29,2.11Z"/><path class="cls-10" d="M11.36,1.2l-.09.05c-.1.05-.22.11-.23.07a.64.64,0,0,1-.21,0h-.07c-.08,0-.28,0-.25-.06h0l-.11-.05c-.07,0-.13,0-.12-.07l-.07,0c-.05,0-.12,0-.13-.12h0L10,.82s0,0,0-.06h0A.47.47,0,0,1,9.85.67S9.76.61,9.76.53C9.61.46,9.67.39,9.62.28A.52.52,0,0,1,9.5,0a1.31,1.31,0,0,1-.09-.28.35.35,0,0,1,0-.2s0-.05,0-.08,0,0,0-.08h0l0-.08h0l0-.08h0a.25.25,0,0,1,0-.07h0a.66.66,0,0,1,.23-.24.35.35,0,0,1,.37,0c.07,0,.11,0,.17.08a.57.57,0,0,1,.15.12,1.84,1.84,0,0,1,.2.19.1.1,0,0,1,0,.06A.77.77,0,0,1,11-.55c.2,0,.32,0,.38,0a.69.69,0,0,1,.2,0,.3.3,0,0,1,.15.09A.79.79,0,0,1,12,.26a1.28,1.28,0,0,1-.41.76h0C11.45,1.15,11.48,1.22,11.36,1.2Z"/><path class="cls-10" d="M9.42,1.34s0,0-.05,0,0,.08-.2.14h0c-.11.09-.19.08-.31.13h0a.92.92,0,0,0-.28.15c0,.17,0,.13-.2.21a.65.65,0,0,1-.18.16l0,0c-.11.14-.11.17-.26.1h0c-.12.1-.12,0-.18,0l-.07-.06,0,0A.34.34,0,0,1,7.48,2a2,2,0,0,1-.05-.26s0,0,0,0a1.69,1.69,0,0,1,0-.32,0,0,0,0,1,0,0,2,2,0,0,1,0-.26l0-.07S7.47.92,7.59.82c0-.08.11-.25.1-.24h0l.12-.2v0s0-.06.08-.11L8,.15H8s.16-.22.18-.19h0a1.54,1.54,0,0,1,.19-.17A.67.67,0,0,1,8.48-.3c.06,0,.11-.1.16-.07h0a.63.63,0,0,1,.27,0H9a.38.38,0,0,1,.24.18c.11-.06.18.15.06.3s0,.05,0,.07a.91.91,0,0,0,0,.27c.06.11.15.34.12.31s.11.06.14.29a.25.25,0,0,1,0,.21.31.31,0,0,1-.05.1Z"/><path class="cls-10" d="M14.2,1.89l-.2.22s0,0-.06.05a.8.8,0,0,1-.17.15.27.27,0,0,1-.18.08.44.44,0,0,1-.32-.09h0c-.16-.06-.13-.07-.21-.27A1.08,1.08,0,0,1,13,1.75v0a1.43,1.43,0,0,1,0-.22h0a1.62,1.62,0,0,1,0-.22c0-.05,0-.1,0-.16s0-.09,0-.14,0-.23.06-.25h0a0,0,0,0,0,0,0,.76.76,0,0,1,.35-.4.23.23,0,0,1,.17-.07A1.49,1.49,0,0,1,14,.19h0a.34.34,0,0,1,.3,0h0l.26.1,0,0c.13,0,.24,0,.25.16h0l.2.2h0c.11,0,.15.11.16.24h0a1.33,1.33,0,0,1,.1.28c.05,0,0,.06,0,.12a.38.38,0,0,1,0,.1h0v.06c0,.05,0,.13,0,.16s-.18.35-.34.23a.58.58,0,0,1-.14,0l-.08,0h0a.27.27,0,0,1-.14-.05h-.09a.4.4,0,0,0-.28.1Z"/><path class="cls-10" d="M4.23,1,4.4,1l.19,0h0l.13,0h0A.76.76,0,0,0,4.91.78c.06-.11,0-.11.15-.22C5,.44,5.06.43,5.1.3s0-.22,0-.33,0-.09,0-.14S5-.29,5-.35A.21.21,0,0,1,5-.46V-.58a.47.47,0,0,1,.15-.35.24.24,0,0,1,.2,0l.11,0h0a.91.91,0,0,1,.27.18A2.28,2.28,0,0,1,6-.54v0l0,.07,0,0a1.41,1.41,0,0,1,.19.34s0,.09,0,.14,0,0,0,.06a.4.4,0,0,1,0,.15.13.13,0,0,1,0,.12V.52a.11.11,0,0,1,0,.11,1.55,1.55,0,0,1-.07.23c-.06.1,0,.18-.17.27h0s0,.06-.06.1l-.13.15s0,.07-.12.11l-.11.08h0c-.14.12-.2.16-.29.15s-.24.09-.29.07a1.53,1.53,0,0,1-.3,0c-.22.06-.25,0-.3-.05a.4.4,0,0,1-.27-.14l-.08-.06c-.07,0-.15-.06-.12-.12a.42.42,0,0,1-.13-.23C3.87,1,4.1,1,4.23,1Z"/><path class="cls-10" d="M.37.19C.27.2.25.1.24,0l0,0h0A1.13,1.13,0,0,1,.09-.21h0a.08.08,0,0,1,0,0A.26.26,0,0,1,0-.42C0-.5-.1-.52,0-.69A.28.28,0,0,1,.08-1S.1-1,.14-1.1L.2-1.21c0-.08.1-.16.16-.23h0a1.5,1.5,0,0,1,.42-.34A1,1,0,0,1,1-1.87H1a.93.93,0,0,1,.23,0h0a.88.88,0,0,1,.27.06h0c.07,0,.21.12.22.15s.09.13.06.32-.06.26-.14.29,0,.09,0,.07a2.64,2.64,0,0,1-.1.3c0,.1-.06.21-.08.31l0,.09v.07h0a.64.64,0,0,1,0,.07v0a.24.24,0,0,0,0,.08h0l0,.07V0a.09.09,0,0,1,0,.07h0l0,.07v0l0,.06h0A.46.46,0,0,1,1,.36C.91.4.88.44.78.4S.6.4.57.34.31.27.37.19Z"/><path class="cls-10" d="M1,1.3H1a1.49,1.49,0,0,0,0,.21c0,.22,0,.14.06.21a.38.38,0,0,0,.05.11L1.18,2h0a1.54,1.54,0,0,0,.17.19h0c.07.12,0,0,.21.16l.24.12h0l.25.09h0l.25.05.24,0h0s.08,0,.13,0h.1s.07,0,.12,0l.1,0a.26.26,0,0,0,.22-.08h0l0,0c.07,0,.17,0,.15-.09a.17.17,0,0,0,.15-.11l0,0,.08-.08a.39.39,0,0,0,.12-.19v-.1a.59.59,0,0,0,0-.13h0v0s0,0,0-.07,0-.07-.11-.15h0a.5.5,0,0,0-.29-.08H3.3c-.06,0-.14,0-.13,0H3.11A.34.34,0,0,1,3,1.29L2.9,1.24c0-.05-.06-.09-.12-.13h0a1,1,0,0,0-.14-.2c-.06-.1-.07-.2-.12-.29A1.27,1.27,0,0,0,2.11.09l0,0h0L2,0H2L2,0H1.64l0,0h0a.18.18,0,0,0-.07.05h0L1.44.19h0L1.31.33h0l0,0h0l0,.06s-.05.09-.08.14l0,.05c-.06,0-.06.18-.07.22A.08.08,0,0,0,1,.9l0,.17H1v0C1,1.16,1,1.23,1,1.3Zm2.26.9h0Z"/><path class="cls-9" d="M4.27,3.84a.75.75,0,0,0-.37-.31.66.66,0,0,0-.23,0c-.08,0-.24,0-.29,0s-.11.09-.3,0-.06.2-.26,0c0,0-.22.12-.26.1s-.24,0-.26.13a.53.53,0,0,0-.22.06Z"/><path class="cls-10" d="M2.68,3.84l0,0c.12-.07.11-.07.14-.19a.35.35,0,0,0-.07-.37.32.32,0,0,0-.23-.17A.46.46,0,0,0,2.27,3H2.14L2,3H2a1.1,1.1,0,0,0-.26.06H1.57l-.06,0h0l-.05,0h0l0,0h0l-.06,0h0l-.05,0h0l0,0h0l0,0a1.12,1.12,0,0,0-.36.42.14.14,0,0,1,0,.06Z"/><path class="cls-10" d="M5.32,3.84l-.16-.13a1.57,1.57,0,0,0-.29-.14c-.15-.12-.26-.16-.32-.07H4.44a.44.44,0,0,0-.19,0,.69.69,0,0,0-.19.1.27.27,0,0,0-.08.1.61.61,0,0,0,0,.12Z"/><path class="cls-9" d="M16.25-.45a.51.51,0,0,1-.1.09.31.31,0,0,0,0,.25.92.92,0,0,0,.12.21Z"/><path class="cls-10" d="M16.25-1.59l-.1,0H16L16-1.5h0l0,0h0l0,0h0l-.05,0h0l0,0h0l0,0h0l0,0a1.1,1.1,0,0,0-.35.42.58.58,0,0,0-.05.29h0a.33.33,0,0,0,.07.16.11.11,0,0,0,.09.07,1.46,1.46,0,0,0,.19.07c0,.11.18.17.16.1h0l0,0a.66.66,0,0,1,.18.34.48.48,0,0,0,.14.25.34.34,0,0,0,.15.07h0Z"/><path class="cls-10" d="M15.94,3.84s0,0,0-.07a.71.71,0,0,0,.1-.14h0c.05,0,.05-.09.08-.16s.09-.17.07-.17a.5.5,0,0,0,0-.16V2.72a.28.28,0,0,0-.05-.11.05.05,0,0,0,0,0h0A.21.21,0,0,0,16,2.39h0c0-.07,0-.07-.09-.08l-.09-.06a.9.9,0,0,0-.22-.06H15.4c-.14,0-.22,0-.23,0h0l-.08,0a.31.31,0,0,0-.12.07.6.6,0,0,0-.09.13.2.2,0,0,0,0,.09.44.44,0,0,0,.2.38c0,.09,0,.08.15.16a.17.17,0,0,0,.07.16v0a.34.34,0,0,1,0,.17h0a.58.58,0,0,1-.11.15h0L15,3.75h0l-.16.08a.18.18,0,0,0-.13,0Z"/><path class="cls-10" d="M7.18,3.63h0c0,.19.05.07.13.21h1.2V3.78a.07.07,0,0,0,0,0,1,1,0,0,0-.11-.28h0c0-.1-.1-.14-.16-.18l-.07-.06h0c0-.16-.14-.12-.25-.16L7.77,3c-.11,0-.16-.1-.2,0s-.22-.05-.24,0A.43.43,0,0,0,7.16,3a.13.13,0,0,0-.09.11c-.11.06-.11.19,0,.31S7.13,3.61,7.18,3.63Z"/><path class="cls-10" d="M-.59,1.7c0-.09-.06-.12-.11-.18a.62.62,0,0,1-.13-.24C-.88,1.1-.78,1-.58,1l.06,0h.07l.12.05h0l0,0h0a.41.41,0,0,1,.11.07h0l0,0h0c.08.05.19.1.21.19s.06.06.1.12l.08.1h0a1.76,1.76,0,0,1,.14.23h0c0,.08.07.16.09.23a1.18,1.18,0,0,1,0,.42h0a.59.59,0,0,1-.18.37.73.73,0,0,1-.74.2.74.74,0,0,1-.51-.58.63.63,0,0,1,.09-.4A.79.79,0,0,0-.59,1.7Z"/></g><circle class="cls-11" cx="15" cy="15" r="12.5"/><path class="cls-12" d="M15,2.5A12.5,12.5,0,1,1,2.5,15,12.5,12.5,0,0,1,15,2.5M15,1A14,14,0,1,0,29,15,14,14,0,0,0,15,1Z"/></g></g></svg>