<svg xmlns="http://www.w3.org/2000/svg" xmlns:xlink="http://www.w3.org/1999/xlink" viewBox="0 0 30 30"><defs><style>.cls-1{fill:none;}.cls-2{isolation:isolate;}.cls-3{clip-path:url(#clip-path);}.cls-4{fill:#ece5d3;}.cls-5{clip-path:url(#clip-path-2);}.cls-6{clip-path:url(#clip-path-3);}.cls-7{clip-path:url(#clip-path-4);}.cls-11,.cls-13,.cls-14,.cls-15,.cls-16,.cls-17,.cls-18,.cls-19,.cls-20,.cls-21,.cls-22,.cls-23,.cls-24,.cls-25,.cls-26,.cls-27,.cls-28,.cls-29,.cls-30,.cls-31,.cls-32,.cls-33,.cls-34,.cls-8{mix-blend-mode:multiply;}.cls-8{fill:url(#radial-gradient);}.cls-9{fill:#e34660;}.cls-10{fill:#fff;}.cls-11{fill:url(#radial-gradient-2);}.cls-12{fill:#4cb3e6;}.cls-13{fill:url(#radial-gradient-3);}.cls-14{fill:url(#radial-gradient-4);}.cls-15{fill:url(#radial-gradient-5);}.cls-16{fill:url(#radial-gradient-6);}.cls-17{fill:url(#radial-gradient-7);}.cls-18{fill:url(#radial-gradient-8);}.cls-19{fill:url(#radial-gradient-9);}.cls-20{fill:url(#radial-gradient-10);}.cls-21{fill:url(#radial-gradient-11);}.cls-22{fill:url(#radial-gradient-12);}.cls-23{fill:url(#radial-gradient-13);}.cls-24{fill:url(#radial-gradient-14);}.cls-25{fill:url(#radial-gradient-15);}.cls-26{fill:url(#radial-gradient-16);}.cls-27{fill:url(#radial-gradient-17);}.cls-28{fill:url(#radial-gradient-18);}.cls-29{fill:url(#radial-gradient-19);}.cls-30{fill:url(#radial-gradient-20);}.cls-31{fill:url(#radial-gradient-21);}.cls-32{fill:url(#radial-gradient-22);}.cls-33{fill:url(#radial-gradient-23);}.cls-34{fill:url(#radial-gradient-24);}.cls-35{fill:#1e2340;}.cls-36{clip-path:url(#clip-path-5);}.cls-37{fill:#436fb4;}.cls-38{fill:#d1d1d1;}</style><clipPath id="clip-path"><circle class="cls-1" cx="-135" cy="-35" r="12.5"/></clipPath><clipPath id="clip-path-2"><circle class="cls-1" cx="15" cy="-35" r="12.5"/></clipPath><clipPath id="clip-path-3"><rect class="cls-1" x="-4.92" y="-56.77" width="40.45" height="44.49"/></clipPath><clipPath id="clip-path-4"><rect class="cls-1" x="-6.28" y="-28.41" width="31.45" height="31.45" transform="translate(-6.35 -13.4) rotate(55.93)"/></clipPath><radialGradient id="radial-gradient" cx="144.96" cy="-2256.72" r="3.93" gradientTransform="matrix(-0.12, -0.99, -0.99, 0.12, -2221.69, 415.33)" gradientUnits="userSpaceOnUse"><stop offset="0"/><stop offset="0.02" stop-color="#0d0d0d"/><stop offset="0.14" stop-color="#454545"/><stop offset="0.25" stop-color="#777"/><stop offset="0.37" stop-color="#a1a1a1"/><stop offset="0.49" stop-color="#c3c3c3"/><stop offset="0.61" stop-color="#ddd"/><stop offset="0.74" stop-color="#f0f0f0"/><stop offset="0.86" stop-color="#fbfbfb"/><stop offset="1" stop-color="#fff"/></radialGradient><radialGradient id="radial-gradient-2" cx="-1056.2" cy="628.58" r="3.93" gradientTransform="matrix(-0.03, 1, 1, 0.03, -654.97, 1044.18)" xlink:href="#radial-gradient"/><radialGradient id="radial-gradient-3" cx="-686.46" cy="-2246.29" r="3.93" gradientTransform="matrix(-0.56, -0.83, -0.83, 0.56, -2228.75, 687.64)" xlink:href="#radial-gradient"/><radialGradient id="radial-gradient-4" cx="-1711.92" cy="-1690.03" r="3.93" gradientTransform="matrix(-0.99, -0.12, -0.12, 0.99, -1891.69, 1467.16)" xlink:href="#radial-gradient"/><radialGradient id="radial-gradient-5" cx="-729.57" cy="617.04" r="3.93" gradientTransform="matrix(0.12, 0.99, 0.99, -0.12, -513.9, 799.12)" xlink:href="#radial-gradient"/><radialGradient id="radial-gradient-6" cx="235.46" cy="-2081.28" r="3.93" gradientTransform="matrix(0.03, -1, -1, -0.03, -2080.63, 170.27)" xlink:href="#radial-gradient"/><radialGradient id="radial-gradient-7" cx="753.7" cy="-1549.01" r="3.93" gradientTransform="matrix(0.48, -0.88, -0.88, -0.48, -1710.87, -83.66)" xlink:href="#radial-gradient"/><radialGradient id="radial-gradient-8" cx="881.51" cy="-464.38" r="3.93" gradientTransform="matrix(0.93, -0.36, -0.36, -0.93, -981.47, -112.94)" xlink:href="#radial-gradient"/><radialGradient id="radial-gradient-9" cx="234.82" cy="-2078.17" r="3.93" gradientTransform="matrix(0.03, -1, -1, -0.03, -2080.63, 170.27)" xlink:href="#radial-gradient"/><radialGradient id="radial-gradient-10" cx="747.51" cy="-1549.51" r="3.93" gradientTransform="matrix(0.48, -0.88, -0.88, -0.48, -1710.87, -83.66)" xlink:href="#radial-gradient"/><radialGradient id="radial-gradient-11" cx="876.48" cy="-465.25" r="3.93" gradientTransform="matrix(0.93, -0.36, -0.36, -0.93, -981.47, -112.94)" xlink:href="#radial-gradient"/><radialGradient id="radial-gradient-12" cx="879.69" cy="-470.53" r="3.93" gradientTransform="matrix(0.93, -0.36, -0.36, -0.93, -981.47, -112.94)" xlink:href="#radial-gradient"/><radialGradient id="radial-gradient-13" cx="-1878.32" cy="-750.16" r="3.93" gradientTransform="matrix(-0.86, 0.5, 0.5, 0.86, -1228.36, 1593.11)" xlink:href="#radial-gradient"/><radialGradient id="radial-gradient-14" cx="233.09" cy="-2089.25" r="3.93" gradientTransform="matrix(0.03, -1, -1, -0.03, -2080.63, 170.27)" xlink:href="#radial-gradient"/><radialGradient id="radial-gradient-15" cx="-1861" cy="-761.29" r="3.93" gradientTransform="matrix(-0.86, 0.5, 0.5, 0.86, -1228.36, 1593.11)" xlink:href="#radial-gradient"/><radialGradient id="radial-gradient-16" cx="882.36" cy="-468.1" r="3.93" gradientTransform="matrix(0.93, -0.36, -0.36, -0.93, -981.47, -112.94)" xlink:href="#radial-gradient"/><radialGradient id="radial-gradient-17" cx="-1866.4" cy="-756.54" r="3.93" gradientTransform="matrix(-0.86, 0.5, 0.5, 0.86, -1228.36, 1593.11)" xlink:href="#radial-gradient"/><radialGradient id="radial-gradient-18" cx="-732.04" cy="625.7" r="3.93" gradientTransform="matrix(0.12, 0.99, 0.99, -0.12, -513.9, 799.12)" xlink:href="#radial-gradient"/><radialGradient id="radial-gradient-19" cx="-732.94" cy="628.62" r="3.93" gradientTransform="matrix(0.12, 0.99, 0.99, -0.12, -513.9, 799.12)" xlink:href="#radial-gradient"/><radialGradient id="radial-gradient-20" cx="237.26" cy="-2071.21" r="3.93" gradientTransform="matrix(0.03, -1, -1, -0.03, -2080.63, 170.27)" xlink:href="#radial-gradient"/><radialGradient id="radial-gradient-21" cx="749.17" cy="-1540.85" r="3.93" gradientTransform="matrix(0.48, -0.88, -0.88, -0.48, -1710.87, -83.66)" xlink:href="#radial-gradient"/><radialGradient id="radial-gradient-22" cx="750.29" cy="-1554.73" r="3.93" gradientTransform="matrix(0.48, -0.88, -0.88, -0.48, -1710.87, -83.66)" xlink:href="#radial-gradient"/><radialGradient id="radial-gradient-23" cx="743.75" cy="-1545.56" r="3.93" gradientTransform="matrix(0.48, -0.88, -0.88, -0.48, -1710.87, -83.66)" xlink:href="#radial-gradient"/><radialGradient id="radial-gradient-24" cx="875.61" cy="-456.62" r="3.93" gradientTransform="matrix(0.93, -0.36, -0.36, -0.93, -981.47, -112.94)" xlink:href="#radial-gradient"/><clipPath id="clip-path-5"><circle class="cls-1" cx="15" cy="15" r="12.5"/></clipPath></defs><g class="cls-2"><g id="Livello_1" data-name="Livello 1"><g class="cls-3"><rect class="cls-4" x="-838.08" y="-607.96" width="1500" height="1000"/></g><g class="cls-5"><g class="cls-6"><g class="cls-7"><circle class="cls-8" cx="1.59" cy="1.67" r="3.93"/><circle class="cls-9" cx="1.59" cy="1.67" r="2.16"/><path class="cls-10" d="M2.26,1.59c1,.72.05,1.61-.7,1.31A5.23,5.23,0,0,1,.21,1.84,4.78,4.78,0,0,1,1.27.5C1.92,0,3,.67,2.26,1.59Z"/><circle class="cls-11" cx="5.52" cy="7.62" r="3.93"/><circle class="cls-12" cx="5.52" cy="7.62" r="2.16"/><path class="cls-10" d="M5.28,9a.21.21,0,0,1-.19-.21l0-.47V8.21A.11.11,0,0,0,5,8.1a1.49,1.49,0,0,1-.47,0c-.2,0-.5-.13-.46-.33s.37-.08.52-.11a2,2,0,0,0,.59-.35.22.22,0,0,1,.16,0l1,0a.16.16,0,0,1,.13.07.78.78,0,0,1,.11.46v.73h0a.2.2,0,0,1-.32.15A.2.2,0,0,1,6,8.87a.2.2,0,0,1-.16-.09h0a.19.19,0,0,1-.2.19.2.2,0,0,1-.18-.12A.19.19,0,0,1,5.28,9Z"/><rect class="cls-10" x="5.48" y="6.1" width="0.82" height="1.33" rx="0.16" transform="translate(-1.06 12.44) rotate(-88.26)"/><circle class="cls-13" cx="16.53" cy="-2.11" r="3.93"/><circle class="cls-12" cx="16.53" cy="-2.11" r="2.16"/><circle class="cls-14" cx="12.86" cy="-2.23" r="3.93"/><circle class="cls-15" cx="11.54" cy="1.01" r="3.93"/><circle class="cls-9" cx="11.54" cy="1.01" r="2.16"/><path class="cls-10" d="M10.87,1.09c-.95-.72,0-1.61.71-1.3A5.35,5.35,0,0,1,12.92.84a4.93,4.93,0,0,1-1.06,1.35C11.21,2.66,10.12,2,10.87,1.09Z"/><circle class="cls-16" cx="6.88" cy="-1.64" r="3.93"/><circle class="cls-9" cx="6.88" cy="-1.64" r="2.16"/><circle class="cls-17" cx="9.81" cy="-1.55" r="3.93"/><circle class="cls-12" cx="9.81" cy="-1.55" r="2.16"/><circle class="cls-18" cx="8.34" cy="1.29" r="3.93"/><circle class="cls-9" cx="8.34" cy="1.29" r="2.16"/><path class="cls-10" d="M8.58,1.91C8.12,3,7,2.36,7.15,1.55A5.25,5.25,0,0,1,7.84,0,4.67,4.67,0,0,1,9.4.68C10,1.2,9.67,2.41,8.58,1.91Z"/><circle class="cls-19" cx="3.75" cy="-1.09" r="3.93"/><circle class="cls-9" cx="3.75" cy="-1.09" r="2.16"/><path class="cls-10" d="M4.42-1.07C5.26-.22,4.23.52,3.53.11A5.41,5.41,0,0,1,2.36-1.14,4.79,4.79,0,0,1,3.61-2.31C4.32-2.68,5.31-1.87,4.42-1.07Z"/><circle class="cls-20" cx="7.28" cy="4.12" r="3.93"/><circle class="cls-12" cx="7.28" cy="4.12" r="2.16"/><path class="cls-10" d="M8.14,3a.19.19,0,0,1,.07.27L8,3.65l0,0,0,.1A.11.11,0,0,0,8,3.94a1.52,1.52,0,0,1,.43.19c.16.14.39.34.26.5s-.37-.09-.52-.14a2,2,0,0,0-.67,0,.2.2,0,0,1-.17,0l-.87-.47a.2.2,0,0,1-.08-.13.81.81,0,0,1,.11-.46l.13-.23.22-.41h0a.19.19,0,0,1,.27-.07.3.3,0,0,1,.08.08.2.2,0,0,1,.33.11h0A.19.19,0,0,1,7.87,3,.21.21,0,0,1,8.14,3Z"/><rect class="cls-10" x="6.16" y="4.06" width="0.82" height="1.33" rx="0.16" transform="translate(-0.73 8.22) rotate(-61.32)"/><circle class="cls-21" cx="3.97" cy="3.92" r="3.93"/><circle class="cls-9" cx="3.97" cy="3.92" r="2.16"/><path class="cls-10" d="M4.22,4.54c-.46,1.1-1.55.45-1.44-.35a5.36,5.36,0,0,1,.69-1.57A4.8,4.8,0,0,1,5,3.31C5.66,3.83,5.3,5.05,4.22,4.54Z"/><circle class="cls-22" cx="8.87" cy="7.69" r="3.93"/><circle class="cls-12" cx="8.87" cy="7.69" r="2.16"/><path class="cls-10" d="M10.27,7.36a.19.19,0,0,1-.11.25l-.44.17h0l-.11,0A.12.12,0,0,0,9.52,8a1.3,1.3,0,0,1,.2.43c0,.2.08.5-.12.55s-.22-.31-.3-.44a2.12,2.12,0,0,0-.56-.4A.24.24,0,0,1,8.63,8l-.35-.92a.14.14,0,0,1,0-.14.77.77,0,0,1,.38-.28l.25-.1.44-.17h0a.2.2,0,0,1,.26.11.25.25,0,0,1,0,.12.2.2,0,0,1,.2.12.22.22,0,0,1,0,.18h0a.19.19,0,0,1,.25.11.2.2,0,0,1,0,.21A.19.19,0,0,1,10.27,7.36Z"/><rect class="cls-10" x="7.54" y="7.02" width="0.82" height="1.33" rx="0.16" transform="matrix(0.93, -0.36, 0.36, 0.93, -2.24, 3.39)"/><circle class="cls-23" cx="18.67" cy="0.66" r="3.93"/><circle class="cls-9" cx="18.67" cy="0.66" r="2.16"/><path class="cls-10" d="M18.33.08c.29-1.16,1.46-.68,1.48.13a5.29,5.29,0,0,1-.44,1.66,5,5,0,0,1-1.65-.44C17,1,17.19-.24,18.33.08Z"/><circle class="cls-24" cx="14.78" cy="0.97" r="3.93"/><circle class="cls-12" cx="14.78" cy="0.97" r="2.16"/><path class="cls-10" d="M15-.44a.19.19,0,0,1,.19.2V.23s0,0,0,0V.39a.1.1,0,0,0,.12.1,1.49,1.49,0,0,1,.47,0c.21.05.5.13.46.33s-.37.08-.52.11a2,2,0,0,0-.58.35.25.25,0,0,1-.16.06l-1,0a.17.17,0,0,1-.13-.07.87.87,0,0,1-.11-.46V.49l0-.47h0a.2.2,0,0,1,.2-.2l.11,0a.18.18,0,0,1,.19-.13.18.18,0,0,1,.16.08h0a.2.2,0,0,1,.2-.19.23.23,0,0,1,.18.13A.19.19,0,0,1,15-.44Z"/><rect class="cls-10" x="14.01" y="1.16" width="0.82" height="1.33" rx="0.16" transform="translate(12.15 16.18) rotate(-88.26)"/><circle class="cls-25" cx="-1.9" cy="-0.26" r="3.93"/><circle class="cls-9" cx="-1.9" cy="-0.26" r="2.16"/><circle class="cls-26" cx="10.48" cy="4.45" r="3.93"/><circle class="cls-9" cx="10.48" cy="4.45" r="2.16"/><path class="cls-10" d="M10.73,5.08c-.47,1.1-1.55.44-1.44-.36A5.36,5.36,0,0,1,10,3.15a5,5,0,0,1,1.56.7C12.17,4.36,11.81,5.58,10.73,5.08Z"/><circle class="cls-27" cx="5.15" cy="1.13" r="3.93"/><circle class="cls-12" cx="5.15" cy="1.13" r="2.16"/><path class="cls-10" d="M3.83,1.68a.19.19,0,0,1,.07-.27l.41-.24,0,0,.1,0a.12.12,0,0,0,0-.17A1.51,1.51,0,0,1,4.2.54C4.13.34,4,.05,4.23,0s.27.27.38.39a2,2,0,0,0,.6.31.19.19,0,0,1,.13.1l.5.86a.17.17,0,0,1,0,.14.82.82,0,0,1-.34.34l-.23.13-.4.24h0a.2.2,0,0,1-.27-.07.17.17,0,0,1,0-.12.18.18,0,0,1-.22-.09.15.15,0,0,1,0-.17h0A.21.21,0,0,1,4.07,2a.22.22,0,0,1,0-.22A.18.18,0,0,1,3.83,1.68Z"/><rect class="cls-10" x="5.66" y="0.32" width="0.82" height="1.33" rx="0.16" transform="translate(0.33 3.19) rotate(-30.16)"/><circle class="cls-28" cx="19.84" cy="-2.48" r="3.93"/><circle class="cls-29" cx="22.63" cy="-3.71" r="3.93"/><circle class="cls-30" cx="-3.13" cy="-3.75" r="3.93"/><circle class="cls-31" cx="0.48" cy="-1.49" r="3.93"/><circle class="cls-12" cx="0.48" cy="-1.49" r="2.16"/><circle class="cls-32" cx="13.19" cy="4.19" r="3.93"/><circle class="cls-12" cx="13.19" cy="4.19" r="2.16"/><path class="cls-10" d="M14.05,3a.21.21,0,0,1,.08.27l-.23.41,0,0-.06.1a.12.12,0,0,0,.06.16,1.11,1.11,0,0,1,.43.19c.16.14.39.34.26.5s-.36-.09-.51-.14a2.06,2.06,0,0,0-.68.05.25.25,0,0,1-.17,0l-.86-.48A.16.16,0,0,1,12.26,4a.77.77,0,0,1,.12-.46l.12-.23.23-.41h0A.21.21,0,0,1,13,2.8a.23.23,0,0,1,.08.09.21.21,0,0,1,.24,0,.25.25,0,0,1,.1.15h0a.2.2,0,0,1,.27-.08.21.21,0,0,1,.1.19A.19.19,0,0,1,14.05,3Z"/><rect class="cls-10" x="12.07" y="4.13" width="0.82" height="1.33" rx="0.16" transform="translate(2.29 13.44) rotate(-61.32)"/><circle class="cls-33" cx="2.01" cy="5.52" r="3.93"/><circle class="cls-12" cx="2.01" cy="5.52" r="2.16"/><path class="cls-10" d="M2.87,4.37a.19.19,0,0,1,.07.27l-.22.41,0,0,0,.1a.11.11,0,0,0,.06.15,1.52,1.52,0,0,1,.43.19c.16.14.39.34.26.5S3,5.94,2.88,5.89A2.09,2.09,0,0,0,2.2,6a.25.25,0,0,1-.17,0l-.87-.47a.2.2,0,0,1-.08-.13.77.77,0,0,1,.11-.45l.13-.24.23-.41h0a.2.2,0,0,1,.27-.08l.08.08a.18.18,0,0,1,.23,0,.16.16,0,0,1,.1.14h0a.19.19,0,0,1,.26-.08.21.21,0,0,1,.11.19A.19.19,0,0,1,2.87,4.37Z"/><rect class="cls-10" x="0.89" y="5.46" width="0.82" height="1.33" rx="0.16" transform="translate(-4.7 4.32) rotate(-61.32)"/><circle class="cls-34" cx="0.04" cy="-3.81" r="3.93"/></g></g></g><circle class="cls-35" cx="15" cy="15" r="12.5"/><g class="cls-36"><rect class="cls-37" x="7.66" y="14.76" width="28.76" height="4" transform="translate(1.89 35.76) rotate(-80.56)"/></g><path class="cls-38" d="M15,2.5A12.5,12.5,0,1,1,2.5,15,12.5,12.5,0,0,1,15,2.5M15,1A14,14,0,1,0,29,15,14,14,0,0,0,15,1Z"/></g></g></svg>