<svg xmlns="http://www.w3.org/2000/svg" xmlns:xlink="http://www.w3.org/1999/xlink" viewBox="0 0 30 30"><defs><style>.cls-1,.cls-12{fill:none;}.cls-2{isolation:isolate;}.cls-3{clip-path:url(#clip-path);}.cls-4{fill:#ece5d3;}.cls-5{clip-path:url(#clip-path-2);}.cls-6{fill:#e0ad6e;}.cls-7{mix-blend-mode:multiply;opacity:0.35;}.cls-8{fill:#d7ac81;}.cls-9{fill:#f5ce94;}.cls-10{fill:#221e20;}.cls-11{fill:#343841;}.cls-12{stroke:#d6431a;stroke-miterlimit:10;}.cls-13{fill:#d1d1d1;}</style><clipPath id="clip-path"><circle class="cls-1" cx="-235" cy="-35" r="12.5"/></clipPath><clipPath id="clip-path-2"><circle class="cls-1" cx="15" cy="-35" r="12.5"/></clipPath></defs><g class="cls-2"><g id="Livello_1" data-name="Livello 1"><g class="cls-3"><rect class="cls-4" x="-938.08" y="-607.96" width="1500" height="1000"/></g><g class="cls-5"><rect class="cls-6" x="-25.98" y="-57.65" width="92.23" height="61.49"/><g class="cls-7"><path class="cls-8" d="M0-19c1.93.73,3.89,1.48,5.86,2.12a8.71,8.71,0,0,1,5.95,6.69A21.88,21.88,0,0,0,14.4-3c1,1.45,2.78,1.65,4.1,2.68a7.68,7.68,0,0,1,2.26,4.13h5.86A13,13,0,0,0,23.78-.78C21.67-3,18.55-3.9,16.52-6.1c-1.63-1.77-1.11-4.25-1.3-6.45a7.44,7.44,0,0,0-2.12-4.77C11.31-19,8.89-19.76,6.51-20.37A27.88,27.88,0,0,1,3.13-21C1.9-21.47.81-22.25-.39-22.79s-3.46-1-2.93,1C-2.92-20.23-1.39-19.48,0-19Z"/><path class="cls-8" d="M-8.28-17.21c1.93.74,3.89,1.48,5.86,2.12A8.72,8.72,0,0,1,3.53-8.4,21.88,21.88,0,0,0,6.16-1.21c1,1.46,2.78,1.66,4.1,2.69a5.81,5.81,0,0,1,1.67,2.36H17.6A13,13,0,0,0,15.54,1c-2.11-2.2-5.23-3.13-7.26-5.33C6.65-6.11,7.17-8.59,7-10.79a7.5,7.5,0,0,0-2.13-4.77C3.07-17.27.65-18-1.73-18.6a26.1,26.1,0,0,1-3.38-.63c-1.23-.48-2.32-1.25-3.52-1.8s-3.46-1-2.93,1C-11.16-18.47-9.63-17.72-8.28-17.21Z"/><path class="cls-8" d="M-18.9-17.21C-17-16.47-15-15.73-13-15.09A8.7,8.7,0,0,1-7.09-8.4,21.68,21.68,0,0,0-4.45-1.21C-3.44.25-1.68.45-.36,1.48A5.81,5.81,0,0,1,1.31,3.84H7A12.63,12.63,0,0,0,4.92,1C2.82-1.21-.3-2.14-2.33-4.34-4-6.11-3.45-8.59-3.63-10.79a7.54,7.54,0,0,0-2.12-4.77c-1.8-1.71-4.21-2.44-6.6-3a26.1,26.1,0,0,1-3.38-.63C-17-19.71-18-20.48-19.25-21s-3.46-1-2.93,1C-21.78-18.47-20.25-17.72-18.9-17.21Z"/><path class="cls-8" d="M5.67-24.77c1.93.73,3.89,1.48,5.86,2.12a8.71,8.71,0,0,1,6,6.69,21.88,21.88,0,0,0,2.63,7.19c1,1.45,2.78,1.65,4.1,2.68,1.64,1.28,2.37,4.07,2.6,6a36.78,36.78,0,0,0,.41,3.89h5.66l0-.22a12.43,12.43,0,0,0-3.42-10.2c-2.11-2.2-5.23-3.12-7.26-5.32-1.63-1.77-1.11-4.25-1.29-6.45a7.5,7.5,0,0,0-2.13-4.77c-1.79-1.72-4.21-2.44-6.59-3.05a26.1,26.1,0,0,1-3.38-.63C7.61-27.27,6.52-28,5.32-28.59s-3.46-1-2.93,1C2.79-26,4.32-25.28,5.67-24.77Z"/><path class="cls-8" d="M27.81-23.07a7.59,7.59,0,0,0-2.12-4.77c-1.79-1.71-4.21-2.43-6.6-3a26.42,26.42,0,0,1-3.38-.63c-1.23-.48-2.32-1.25-3.52-1.79s-3.46-1-2.92,1c.4,1.54,1.93,2.29,3.27,2.8,1.94.73,3.9,1.47,5.86,2.12a8.67,8.67,0,0,1,6,6.69A21.55,21.55,0,0,0,27-13.49c1,1.46,2.77,1.66,4.09,2.69,1.65,1.28,2.38,4.07,2.61,6,.26,2.21,0,4.39,1.54,6.21,2.29,2.69,4.18,0,4.56-2.53a12.41,12.41,0,0,0-3.43-10.2c-2.1-2.2-5.22-3.13-7.25-5.32C27.47-18.38,28-20.87,27.81-23.07Z"/></g><g class="cls-7"><path class="cls-8" d="M29.62-23c1.93.73,3.89,1.48,5.86,2.12a8.68,8.68,0,0,1,5.94,6.69A22.13,22.13,0,0,0,44.06-7c1,1.45,2.77,1.65,4.1,2.68,1.64,1.28,2.37,4.07,2.6,6,.09.73.12,1.46.17,2.17h6a12.7,12.7,0,0,0-3.54-8.69C51.33-7,48.21-8,46.18-10.17c-1.64-1.77-1.11-4.25-1.3-6.45a7.44,7.44,0,0,0-2.12-4.77c-1.79-1.72-4.21-2.44-6.59-3.05a25.79,25.79,0,0,1-3.38-.63c-1.23-.47-2.32-1.25-3.52-1.79s-3.46-1-2.93,1C26.74-24.3,28.27-23.55,29.62-23Z"/><path class="cls-8" d="M22-18.27c1.93.74,3.89,1.48,5.85,2.12a8.67,8.67,0,0,1,6,6.69,21.9,21.9,0,0,0,2.64,7.19c1,1.46,2.77,1.66,4.1,2.68a7,7,0,0,1,2.06,3.43h5.78A13,13,0,0,0,45.8-.07c-2.11-2.2-5.23-3.13-7.26-5.33-1.64-1.77-1.11-4.25-1.3-6.45a7.49,7.49,0,0,0-2.12-4.77c-1.79-1.71-4.21-2.44-6.59-3a27.56,27.56,0,0,1-3.38-.63c-1.23-.48-2.32-1.26-3.52-1.8s-3.46-1-2.93,1C19.1-19.53,20.63-18.78,22-18.27Z"/></g><path class="cls-9" d="M27.22-.6c0-.09.14-.18.08-.26s.08-.07.12-.29a2.53,2.53,0,0,0,.15-.3c.1,0,.05-.11.2-.29S27.85-2,28-2s.24-.23.24-.21.23-.17.26-.15.12.06.28-.05a.48.48,0,0,1,.31,0c.15-.12.24,0,.32.1s.21.19.32.16.34.16.3.2l.26.22c.06.06.14.25.18.25.09.21.12.11.07.34-.14,0,.26.16,0,.33.07.16,0,.08.05.25s.14.14.14.24c.18.14.05.11.11.23,0-.07.11.06,0,.22s-.25.17-.16.18c-.07.13-.16.21-.25.12,0,.08-.22.13-.31.08a.45.45,0,0,1-.34,0c-.23,0-.24.1-.35,0A1,1,0,0,0,29,.6c-.21,0-.2,0-.3,0s-.18-.09-.22,0a.88.88,0,0,0-.37,0C27.9.48,28,.44,27.8.45A.58.58,0,0,0,27.51.3c-.05,0,0-.09-.2-.21-.07-.12-.15-.19-.11-.3C27.35-.16,27.12-.43,27.22-.6Z"/><path class="cls-9" d="M22.28,3.06c0,.09.13.22,0,.32s0,.09.05.3c0,0,0,.1,0,.16h2.15c.08-.09.08-.16.19-.2s.18-.17.23-.26.05-.13.21-.28.07-.11.17-.3,0-.11.09-.29-.1-.17,0-.32.16-.23,0-.32c0-.22-.1-.15-.08-.31s0-.21-.13-.28c-.05-.28,0-.14-.18-.27s-.1-.32-.27-.26-.14,0-.3-.13-.38-.05-.3,0-.18-.07-.3.09-.23.08-.29.16-.22.24-.28.22c-.07.15-.18.25-.25.25s-.15.11-.22.28-.24.21-.18.28,0,.26-.12.26a1.66,1.66,0,0,1-.1.29c0,.12-.07.23-.07.31S22.33,2.88,22.28,3.06Z"/><path class="cls-9" d="M29.65,3.84c0-.07-.1-.09,0-.18s.13-.17,0-.24-.08-.11-.07-.23,0-.16-.11-.21c0-.21,0-.1-.14-.2s-.09-.23-.23-.19-.12,0-.25-.1-.31,0-.25,0-.15,0-.25.07-.19.06-.24.12-.19.18-.23.16S27.7,3,27.64,3s-.13.08-.19.21-.2.16-.14.21,0,.19-.11.19a.9.9,0,0,1-.08.21Z"/><path class="cls-9" d="M12-.54c.21-.15.19.13.3.06,0,.1.25.13.24.15s.3.32.19.21c.16.07-.06.24.14.25,0,0,.29.11.07.2s.12.21.11.2c0,.24.14.13.09.22s.24.2.07.22a.77.77,0,0,1,0,.43c-.19.24,0,.2-.11.25s0,.15-.17.24-.1.23-.2.21-.11,0-.2.19,0,.19-.17.15c0,.16,0,.11-.19.14s-.21.07-.2.12c-.15.06-.19.2-.21.08s-.28-.15-.22,0-.12,0-.22,0c0,.11-.12,0-.23-.13s0-.12-.18-.18a.25.25,0,0,1-.18-.19c.05-.1,0-.15-.21-.16S10.29,1.9,10.3,2a2.39,2.39,0,0,1,0-.27c.1,0,.09-.29.06-.24,0-.14-.27-.25.09-.24,0-.08-.1-.19.09-.24,0-.15.1-.13.1-.23s.08-.14.1-.24,0-.11.11-.22S11,.18,11,.11s.19,0,.16-.21.11-.11.2-.19.15-.05.22-.15.25-.21.23-.08S12-.58,12-.54Z"/><path class="cls-9" d="M15,2.75A1.29,1.29,0,0,1,15,3c-.06.1,0,.24,0,.25s.07.12.13.28.2.23.2.2a.43.43,0,0,1,.16.1h1.46A1.15,1.15,0,0,0,17,3.67a1.86,1.86,0,0,0,.27-1.1,1.6,1.6,0,0,0-.12-.83.66.66,0,0,0-.23-.2.57.57,0,0,0-.29-.11c-.12,0-.22,0-.24-.05s-.18.05-.22,0-.12.05-.22.08-.26.2-.22.14a.91.91,0,0,0-.24.15c.07.1-.22,0-.26.15S15,2.08,15,2.1c-.21.12-.07.26,0,.38C14.93,2.52,14.82,2.57,15,2.75Z"/><path class="cls-9" d="M8.13,3.06c.07,0,0,.18.1.31s0,.12.07.23a.81.81,0,0,1,.09.24H9.7s0-.09,0-.09a.38.38,0,0,1-.15-.18c.12-.09-.18.06-.17-.18,0,0,0-.1-.18-.15s0-.07-.18-.17c0,.06-.22,0-.14-.16s-.17-.2-.2-.21a.89.89,0,0,0-.21-.17s-.18.05-.2,0,0,.16-.12.21S8.24,2.89,8.13,3.06Z"/><path class="cls-9" d="M3-.22c0-.11-.07-.25.07-.3s.12-.08.12-.26.17-.1.17-.24.19-.15.19-.2c.17,0,.15-.12.23-.18s.14-.15.25-.17c.26-.05.17-.05.26-.14s.48.08.27-.12c.09-.11.15-.21.3-.1.09-.23.18.05.32,0s.22.1.31,0a.66.66,0,0,1,.31.06,5.44,5.44,0,0,1,.61.19,1.39,1.39,0,0,1,.28.12,1.18,1.18,0,0,1,.25.13,1.77,1.77,0,0,1,.23.16c.07-.07.1.21.19.2,0,.14.07.13.16.21s.11.08.13.25.19.28.08.27.23.17,0,.31.06.31,0,.35a.21.21,0,0,0-.07.27c0,.09-.13.16-.14.23L7.33,1c-.14,0-.07.1-.22.16s-.13.1-.25.14.06.2-.25.15c0-.1-.09,0-.27.18,0,.17-.14.27-.33.27,0,0-.12.3-.36.2.06,0-.23,0-.28,0s-.11,0-.25-.1S5,1.83,4.89,1.85s-.16-.06-.21-.2-.12-.21-.2-.22a1.42,1.42,0,0,1-.18-.22c-.09-.13-.1,0-.17-.2s0-.13-.2-.22,0-.2-.19-.19-.22,0-.22-.18A.66.66,0,0,1,3.27.29C3.1.08,3.12.33,3,.11,2.88.22,3.16-.12,3-.22Z"/><path class="cls-9" d="M-1.3-.24c.2,0,.24-.07.19-.16S-1-.53-.9-.49s.26.07.22-.05.3,0,.24,0,.19.1.22,0,.1.14.23.07c.1.09.16,0,.28.12C.2-.32.41-.24.5-.19S.42-.07.65,0,.77.07.74.19.63.32.76.44.82.71.71.74.45.88.58,1.05c0,.19-.1.11-.22.23.15-.11-.23.2-.28.16s-.14.13-.31.07-.21-.06-.32,0-.26,0-.29-.13-.15-.12-.22-.19a.53.53,0,0,1-.2-.24c-.18-.08-.08-.1-.15-.29s-.06-.15-.07-.3.11-.21,0-.3S-1.45-.11-1.3-.24Z"/><path class="cls-10" d="M25.59,3.84l.05-.1a2.32,2.32,0,0,0,.13-.37,2.58,2.58,0,0,0,.08-.68,1.1,1.1,0,0,0-.17-.64.35.35,0,0,0-.44-.1.22.22,0,0,0-.15.12L25,2.26c-.13.17-.21.18-.21.37-.16,0-.12.17-.16.21h0a.55.55,0,0,0-.19.18c-.11,0-.1.08-.13.12l-.06.06h0a1.7,1.7,0,0,0-.19.19,1.9,1.9,0,0,0-.22.33l-.06.12Z"/><path class="cls-10" d="M23.33,1.63h-.1a.27.27,0,0,1-.12,0,.44.44,0,0,1-.17-.1h0a.56.56,0,0,1-.14-.16s-.07-.07-.06-.09a.19.19,0,0,1,0-.18.81.81,0,0,1,0-.22,1.36,1.36,0,0,1,0-.17.25.25,0,0,1,.06-.14A.54.54,0,0,1,23,.33a1.06,1.06,0,0,0,.16-.21,1.76,1.76,0,0,0,.17-.42.31.31,0,0,1,0-.12l.05-.09v0a.62.62,0,0,1,.14-.14.27.27,0,0,1,.21-.12l.11,0a.4.4,0,0,1,.32,0,.28.28,0,0,1,.13,0,1,1,0,0,1,.22.08h0s.05,0,.07,0a1.74,1.74,0,0,1,.26.15h0c.11,0,.34.08.3.25h0a.65.65,0,0,1,.26.29l.05.06c.07.06.19.13.15.24h0l0,.07a1.19,1.19,0,0,1,.08.22,2,2,0,0,1,.05.43.33.33,0,0,1-.12.4c0,.1,0,.25-.27.27s-.21.08-.33,0l-.14-.09a.29.29,0,0,1-.13-.12c-.1-.13-.21-.13-.25-.22h0c-.12,0-.19.06-.31-.07a.25.25,0,0,1-.24.08h0a.74.74,0,0,0-.19.16.4.4,0,0,1-.18.16.37.37,0,0,1-.14.07S23.39,1.64,23.33,1.63Z"/><path class="cls-10" d="M23.13,3.84l-.05-.06a1.1,1.1,0,0,1-.17-.32c.16,0,0-.06,0-.25s0-.15,0-.24a.08.08,0,0,0,0-.08h0A.16.16,0,0,0,23,2.74,1.6,1.6,0,0,1,23,2.53s0-.07,0-.11a.62.62,0,0,0,0-.13h0c.05-.13,0-.11,0-.17s0,0,0-.06h0a.5.5,0,0,0-.1-.19l-.07-.08c-.09-.11-.11-.24-.17-.09,0-.05-.29-.06-.26,0h0a.54.54,0,0,0-.21.16c-.13.14-.19.11-.15.25s0,.56-.18.81c0,0-.05,0,0,0a.43.43,0,0,1-.21.11h0l-.23.06a.76.76,0,0,0-.48.34.58.58,0,0,0-.06.36Z"/><path class="cls-10" d="M30.47,1.46h0l0,0a.49.49,0,0,1-.15.09l-.16,0a.09.09,0,0,1-.1,0h-.12a.16.16,0,0,1-.12,0h0l-.16,0a0,0,0,0,1-.06,0h0l-.23,0h0l-.15,0h-.08a5.16,5.16,0,0,0-.69,0,.15.15,0,0,1-.16,0,.21.21,0,0,1-.17,0H28s-.06,0-.13,0l-.18,0-.08,0-.14-.05h0l-.1-.05s-.09.05-.13-.07h0a2.6,2.6,0,0,1-.32-.26h0a2.34,2.34,0,0,1-.24-.31C26.52.6,26.48.5,26.48.51s0,0,0,0a1.19,1.19,0,0,1-.08-.2h0a1.46,1.46,0,0,1-.12-.51h0s0-.07,0-.26h0l0-.15s0-.08,0-.1a.66.66,0,0,1,.11-.2h0a.9.9,0,0,1,.15-.19h0a.23.23,0,0,1,.14-.12l.06,0h0a.75.75,0,0,1,.34-.13h0a.55.55,0,0,1,.35.08s.19.12.2.2h0c.1,0,.08.12.1.27s0,.12,0,.2,0,.07,0,.1c0,.19,0,.23,0,.3S28,0,27.9,0c.15,0,.18,0,.21.21l.09,0a.66.66,0,0,0,.21,0h0l.3,0c.14,0,.19-.13.31-.07h0l.14,0a.25.25,0,0,1,.16-.06,1.23,1.23,0,0,1,.76,0h0l.21.09a.82.82,0,0,1,.22.19c.05.06.11.06.13.21s.12.2.07.25a1.13,1.13,0,0,1,0,.26h0a2,2,0,0,1-.08.22,0,0,0,0,0,0,0l0,.05A.3.3,0,0,1,30.47,1.46Z"/><path class="cls-10" d="M28.23,2.9l0,.05c.06.1.08.16.18.14a.81.81,0,0,0,.31,0,.47.47,0,0,0,.12,0,.58.58,0,0,1,.19,0c-.05,0,.09,0,.18.07l.1.06.17.16c0,.13.12.17.18.24a.76.76,0,0,0,.11.14l0,0h.53a.71.71,0,0,0,.12-.23.41.41,0,0,0,.07-.25.75.75,0,0,0,0-.26h0a.61.61,0,0,0-.07-.24h0c.07,0,0-.2-.12-.23h0a.5.5,0,0,0-.17-.18h0A.8.8,0,0,0,30,2.3h0a1.09,1.09,0,0,0-.23-.09l-.27,0h0c.06-.05,0,0-.08,0h-.21c-.18-.16-.13,0-.27,0h0a.37.37,0,0,0-.25.1h0c-.12.07-.13,0-.17.15h0c-.08,0-.23.06-.15.23C28.16,2.88,28.2,2.89,28.23,2.9Z"/><path class="cls-10" d="M27.34,3.84a.64.64,0,0,0,.08-.14,3.18,3.18,0,0,0,.33-.3.51.51,0,0,0,.11-.25c0-.08.17,0-.07-.25a.62.62,0,0,0-.37-.16.21.21,0,0,0-.37.07h0a.56.56,0,0,0-.3.18h0a1.32,1.32,0,0,0-.28.3.6.6,0,0,0-.16.16.23.23,0,0,0,0,.23c-.06,0-.08.07-.07.14Z"/><path class="cls-9" d="M18.68,2.72c0,.09,0,.26,0,.22s.1.16,0,.22c.14.07,0,.08,0,.18a.26.26,0,0,0,0,.28l.09.22h1.53s.05-.07.07-.06.22-.07.18-.23,0-.14.13-.24.11-.19.06-.27.07-.21,0-.26c.05-.09-.1-.13-.13-.25s-.19-.15-.17-.16c-.18-.06-.1-.13-.2-.14s-.1,0-.23-.1-.05-.24-.22-.06c0,.07,0-.13-.2,0s-.26.29-.23,0a.17.17,0,0,0-.24.05c-.16.16-.13,0-.17.07s-.39.25-.23.32S18.5,2.59,18.68,2.72Z"/><path class="cls-10" d="M17.88,3.1v0c0,.09,0,.16,0,.17a.14.14,0,0,1,0,.06.18.18,0,0,0,.07.16v0a.15.15,0,0,0,.09.15l0,.06h0l.05.06h1a.48.48,0,0,0-.17-.18,1.23,1.23,0,0,1-.14-.25c0-.1,0-.06,0-.15v-.1c.06,0,0-.11,0-.18l0,0L19,2.76a.15.15,0,0,0,0-.08h0a1.14,1.14,0,0,0,.09-.26s0-.21,0-.24-.08-.09-.19-.09a.7.7,0,0,0-.25,0h0l-.12,0a.15.15,0,0,0-.11,0l-.05,0h0l0,0h0l0,0h0l0,0h0l0,0h0l-.07.08h0l0,0h0a.75.75,0,0,0-.1.2.26.26,0,0,0-.07.2v0h0s0,.14,0,.23Z"/><path class="cls-10" d="M19.34,1.73a.19.19,0,0,0-.1.12.14.14,0,0,0,0,.07s0,0,0,.06a.22.22,0,0,0,.06.14.73.73,0,0,0,.28.17s0,.09.08,0,.07,0,.13.07l.07.07a.86.86,0,0,0,.19.25c.27.25.62.13.92,0l.06,0h0a1,1,0,0,0,.22-.17c.07-.08.16-.17.13-.28s0-.19,0-.29a.47.47,0,0,0-.06-.15s0-.06-.07-.13h0a1.29,1.29,0,0,0-.16-.17s0-.05-.08-.05h0c-.11-.08-.11-.22-.32-.12,0,0-.11-.11-.24,0a1.09,1.09,0,0,0-.26,0h-.06a1.39,1.39,0,0,0-.19.06l-.11,0-.11.05-.18.1A.71.71,0,0,0,19.34,1.73Zm.81-.17h0Z"/><path class="cls-10" d="M20.2,0c.07.05,0,.17,0,.24v0h0a.75.75,0,0,1-.09.2.59.59,0,0,1-.15.2.11.11,0,0,1-.08.06l-.11.06s-.05,0-.1,0l-.12,0h0c-.05,0-.19,0-.24,0A.58.58,0,0,1,19,.79c-.09,0-.1,0-.11-.06L18.78.64c-.14-.06-.26-.13-.2-.2a1.47,1.47,0,0,1-.1-.13s0,0-.07-.08l0,0A.19.19,0,0,1,18.27,0h0c-.08-.08-.05-.07-.12-.24h0c0-.08-.13-.21-.08-.25a1.5,1.5,0,0,1,0-.22s0,0,0,0a.06.06,0,0,1,0-.07.77.77,0,0,1,0-.15c0-.06,0-.13.08-.23a.83.83,0,0,1,.13-.18h0a.42.42,0,0,1,.18-.08.19.19,0,0,1,.19.08s0,0,0,0h0s0,0,0,.05a.88.88,0,0,1,.05.15c0,.17.05.25,0,.25a1.05,1.05,0,0,0,0,.24.46.46,0,0,1,.05.14h0c.08.18.15.07.25.29a.4.4,0,0,0,.32,0,.15.15,0,0,1,.11-.06.45.45,0,0,1,.45,0,.18.18,0,0,1,.15.17h0a.47.47,0,0,1,0,.24Z"/><path class="cls-10" d="M-1.65,3.55s0,.05,0,.08a.43.43,0,0,0,.23.14.12.12,0,0,0,.1,0h.16c.12,0,.14,0,.18,0l.13,0h.06a.76.76,0,0,1,.26,0l.17.11H.91a.24.24,0,0,0,0-.14.31.31,0,0,0-.16-.31S.64,3.17.47,3.15L.28,3A.36.36,0,0,0,.19,2.9L.06,2.8a.28.28,0,0,0-.14-.1l-.08,0h0a.64.64,0,0,0-.24,0c0-.11-.14-.09-.25,0l-.24.07c-.13-.11-.23.1-.37.21s-.23.2-.3.31a.38.38,0,0,0-.07.33Z"/><path class="cls-10" d="M.64.65A.5.5,0,0,1,.31.47l0,0C.21.36.14.25.08.17A1,1,0,0,0-.13-.07h0A.56.56,0,0,0-.41-.2a.56.56,0,0,0-.36.06h0C-.81,0-1,.05-1,0L-1,0A.51.51,0,0,0-1.17.1h0a.12.12,0,0,1-.14,0A.15.15,0,0,1-1.4,0c-.07-.1-.05-.12,0-.18a1.21,1.21,0,0,1,0-.19.72.72,0,0,1,.07-.25s0,0,0-.05a.51.51,0,0,1,.09-.16h0A1.54,1.54,0,0,1-1.07-1h0l0,0a.83.83,0,0,1,.16-.12h0c0-.05,0-.05.08-.05l.15-.06h0c.09-.06.18-.1.24-.05a.43.43,0,0,1,.28,0H0c.08,0,.2,0,.21,0h0a1.72,1.72,0,0,1,.41.19c.05,0,.1,0,.11.07.19,0,.14.12.21.19h0a1.88,1.88,0,0,1,.16.23l0,.08a1,1,0,0,1,.08.28h0a.82.82,0,0,1,0,.38.37.37,0,0,1-.07.16C1,.49.83.67.64.65Z"/><path class="cls-9" d="M5.88,3.84s0,0-.16-.08-.08,0-.17-.11-.21-.1-.18-.13a.44.44,0,0,0-.19-.12s-.07-.14-.19,0a.91.91,0,0,0-.35.09c0,.09-.16.08-.19.07a.49.49,0,0,1-.2.08c-.18.11-.07.09-.17.06a.43.43,0,0,0-.2.06c-.11,0-.1.13-.19.09s0,0,0,0Z"/><path class="cls-10" d="M5,3.75a.07.07,0,0,0,0,.07H5v0H7.17a.69.69,0,0,0,0-.2h0c0-.14.07-.18-.06-.23a.59.59,0,0,0,0-.08c0-.08,0-.15-.12-.12H7a.58.58,0,0,0-.21-.07h0a.22.22,0,0,0-.14,0l-.09,0H6.48c-.08,0-.17,0-.19,0h0s-.15,0-.22,0a.6.6,0,0,1-.23,0,1.87,1.87,0,0,0-.22-.07c0-.14-.09-.14-.21-.11a.29.29,0,0,0-.16,0s0,0-.08,0A.31.31,0,0,0,5,3.2H5a.49.49,0,0,0-.06.17h0v0c0,.09,0,.12,0,.16A.83.83,0,0,0,5,3.75Z"/><path class="cls-10" d="M4.49,3.84a.46.46,0,0,1,0-.1h0l0-.1a.74.74,0,0,0,0-.26c0-.12,0-.24-.15-.25h0A.23.23,0,0,0,4.19,3L4.1,3a.29.29,0,0,0-.21,0,2.09,2.09,0,0,1-.34.08.22.22,0,0,0-.29,0h0A.68.68,0,0,0,3,3.19c-.14,0-.2.06-.17.14a.45.45,0,0,0-.11.17s0,0,0,.08a.58.58,0,0,0,0,.26Z"/><path class="cls-10" d="M13.53,1.2l-.1.05c-.09.05-.21.11-.22.07a.69.69,0,0,1-.21,0h-.07c-.08,0-.28,0-.26-.06h0l-.11-.05c-.06,0-.13,0-.11-.07l-.07,0c-.06,0-.12,0-.13-.12h0L12.11.82a.21.21,0,0,1,0-.06h0L12,.67s-.09-.06-.08-.14c-.16-.07-.09-.14-.14-.25A.62.62,0,0,1,11.66,0h0a2.29,2.29,0,0,1-.08-.28.28.28,0,0,1,0-.2.22.22,0,0,1,0-.08.25.25,0,0,1,0-.08h0s0-.05,0-.08h0l0-.08h0l0-.07h0a.53.53,0,0,1,.23-.24.35.35,0,0,1,.37,0c.07,0,.11,0,.16.08a.61.61,0,0,1,.16.12c.07.06.13.13.19.19a.17.17,0,0,1,.06.06.68.68,0,0,1,.31.13c.21,0,.32,0,.39,0a.63.63,0,0,1,.19,0,.29.29,0,0,1,.16.09.81.81,0,0,1,.27.69.9.9,0,0,1-.07.27h0A1.35,1.35,0,0,1,14,.79h0a1.59,1.59,0,0,1-.2.24C13.61,1.15,13.65,1.22,13.53,1.2Z"/><path class="cls-10" d="M10.6,2.72h0s0,0,0-.06a.74.74,0,0,1,0-.26h0a.64.64,0,0,1,.16-.29A.91.91,0,0,1,10.94,2a.28.28,0,0,1,.19-.07,1.81,1.81,0,0,1,.31-.05h.09c0-.06.16,0,.34-.05a2,2,0,0,0,.31-.19c.11-.09.16-.18.29-.12s.19,0,.31,0,.35,0,.37.18a1,1,0,0,1,.29.29l.11.18h0a.8.8,0,0,1,.07.2v0a.34.34,0,0,1,0,.16.25.25,0,0,1,0,.08c.16.16,0,.17,0,.2h0a.77.77,0,0,1-.07.16s0,0,0,0h0c0,.08-.11.12-.18.15a.42.42,0,0,1-.21.06h0a.55.55,0,0,1-.22,0h0a.15.15,0,0,1-.21-.08h0a.25.25,0,0,1-.17-.07A1,1,0,0,1,12.27,3a.34.34,0,0,0-.14,0h0a.76.76,0,0,0-.22.11c-.06.07-.25.25-.36.23s-.23.19-.31.06,0,0-.08,0a.37.37,0,0,1-.21-.1s0,0,0,0A.92.92,0,0,1,10.7,3h0C10.44,3.06,10.42,2.92,10.6,2.72Z"/><path class="cls-10" d="M11.64,1a.3.3,0,0,1,0,.21.4.4,0,0,1-.1.15c0,.06,0,.08-.2.14h0a1,1,0,0,1-.32.13h0a.92.92,0,0,0-.28.15c0,.17,0,.13-.21.21s-.14.14-.17.16l-.06,0c-.1.14-.1.17-.25.1h0c-.13.1-.13,0-.19,0l-.07-.06,0,0A.35.35,0,0,1,9.65,2,1.09,1.09,0,0,1,9.6,1.7s0,0,0,0a1.69,1.69,0,0,1,0-.32v0l.06-.26a.64.64,0,0,0,0-.07s0-.07.06-.17.11-.25.11-.24h0L10,.38v0h0s0-.06.07-.11l.08-.1h0c-.05,0,.16-.22.17-.19h0l.2-.17.13-.09c.07,0,.12-.1.17-.07h0a.61.61,0,0,1,.27,0h.06a.41.41,0,0,1,.24.18c.11-.06.17.15,0,.3a.17.17,0,0,1,0,.07,1.41,1.41,0,0,0-.05.27c.07.11.16.34.13.31S11.61.8,11.64,1Z"/><path class="cls-10" d="M14.38,3.48s0,.06,0,.06,0,.22.13.3h1.81a.22.22,0,0,0-.16-.15A.76.76,0,0,0,16,3.58l0,0c0-.05-.17-.19-.34-.13a.81.81,0,0,1-.31-.18A.6.6,0,0,1,15.2,3h0a.25.25,0,0,0,0-.29s0-.07,0-.11a.41.41,0,0,0,0-.15A.34.34,0,0,0,15,2.31h0s-.06-.06-.07-.05a.2.2,0,0,0-.17,0l0,0c-.1,0-.07,0-.17.15a.47.47,0,0,0-.09.12c-.06.06-.12.09-.07.13h0a.83.83,0,0,0-.06.21.22.22,0,0,0,0,.08s0,.06,0,.09a.3.3,0,0,0,0,.2A.9.9,0,0,0,14.38,3.48Z"/><path class="cls-10" d="M16.37,1.89h0l-.2.22s0,0-.06.05L16,2.28h0l-.05,0a.24.24,0,0,1-.18.08.42.42,0,0,1-.31-.09h0c-.16-.06-.13-.07-.22-.27a1.57,1.57,0,0,1-.1-.28v0a.78.78,0,0,1,0-.22h0a1.62,1.62,0,0,1,0-.22c0-.05,0-.1,0-.16a.68.68,0,0,1,0-.14c0-.17,0-.23.06-.25h0a0,0,0,0,1,0,0A.94.94,0,0,1,15.29.5h0a.63.63,0,0,1,.21-.18.25.25,0,0,1,.17-.07l.13,0h0l.3,0h0c.11,0,.18,0,.31,0l.25.1,0,0c.12,0,.24,0,.25.16h0a1.89,1.89,0,0,1,.2.2h0c.1,0,.15.11.16.24h0a1.33,1.33,0,0,1,.1.28s0,.06,0,.12,0,.11,0,.16,0,.13,0,.16h0c0,.11-.19.35-.34.23a.8.8,0,0,1-.15,0l-.08,0h0a.27.27,0,0,1-.13-.05h-.09a.39.39,0,0,0-.28.1Z"/><path class="cls-10" d="M6.39,1l.18,0,.18,0h0a.53.53,0,0,0,.12,0h0A.76.76,0,0,0,7.08.78c.06-.11,0-.11.14-.22h0c-.06-.12,0-.13,0-.26s0-.22,0-.33a.61.61,0,0,1,0-.14,1.09,1.09,0,0,1,0-.18.21.21,0,0,1,0-.11V-.58a.44.44,0,0,1,.15-.35.22.22,0,0,1,.19,0,.27.27,0,0,1,.12,0h0a1.06,1.06,0,0,1,.27.18,2.23,2.23,0,0,1,.21.22v0l.06.07,0,0a1.86,1.86,0,0,1,.19.34s0,.09,0,.14,0,0,0,.06l0,.15s0,.08,0,.12a.57.57,0,0,1,0,.13s0,0,0,.11a.62.62,0,0,1-.07.23c-.06.1,0,.18-.16.27h0s0,.06-.06.1l-.13.15S8,1.45,8,1.49l-.11.08h0c-.14.12-.21.16-.29.15s-.24.09-.29.07a1.63,1.63,0,0,1-.31,0c-.21.06-.24,0-.29-.05a.4.4,0,0,1-.27-.14l-.09-.06c-.06,0-.14-.06-.12-.12h0a.47.47,0,0,1-.12-.23C6,1,6.26,1,6.39,1Z"/><path class="cls-10" d="M2.54.19C2.44.2,2.42.1,2.4,0l0,0h0a2.25,2.25,0,0,1-.12-.21h0a.08.08,0,0,0,0,0,.28.28,0,0,1,0-.16c0-.08-.12-.1,0-.27A.29.29,0,0,1,2.25-1s0-.09,0-.14l.07-.11h0c0-.08.1-.16.16-.23h0a1.46,1.46,0,0,1,.41-.34,1.45,1.45,0,0,1,.22-.09h0a.85.85,0,0,1,.23,0h0a.76.76,0,0,1,.26.06h0c.07,0,.22.12.22.15s.1.13.07.32-.07.26-.15.29,0,.09,0,.07a2.65,2.65,0,0,1-.11.3c0,.1,0,.21-.07.31v.16h0a.25.25,0,0,0,0,.07v0a.24.24,0,0,1,0,.08h0a.14.14,0,0,1,0,.07V0l0,.07h0l0,.06v0l0,0h0a.37.37,0,0,1-.17.13C3.08.4,3,.44,3,.4S2.77.4,2.73.34,2.48.27,2.54.19Z"/><path class="cls-10" d="M3.15,1.3h0a1.49,1.49,0,0,0,0,.21c0,.22,0,.14.06.21a.22.22,0,0,0,0,.11L3.34,2h0a1.54,1.54,0,0,0,.17.19h0c.06.12.05,0,.21.16L4,2.44H4l.24.09h0l.26.05.23,0h0s.08,0,.13,0H5s.07,0,.12,0l.1,0a.26.26,0,0,0,.22-.08h0l.05,0c.06,0,.17,0,.15-.09a.18.18,0,0,0,.15-.11l0,0,.07-.08A.33.33,0,0,0,6,1.94l0,0v0H6a.71.71,0,0,0,0-.14H6v0a.19.19,0,0,0,0-.07s0-.07-.1-.15h0a.51.51,0,0,0-.3-.08H5.47c-.07,0-.14,0-.14,0h0a.3.3,0,0,1-.15-.07l-.06-.05A.77.77,0,0,0,5,1.11.93.93,0,0,0,4.8.91c0-.1-.07-.2-.11-.29A1.29,1.29,0,0,0,4.27.09l0,0h0l0,0h0l0,0H3.8l0,0h0l0,0h0l0,0h0L3.61.19h0L3.48.33h0l0,0h0a.21.21,0,0,0,0,.06.64.64,0,0,0-.08.14l0,.05c-.06,0-.07.18-.08.22A.43.43,0,0,0,3.2.9s0,.11,0,.17h0v0A1.48,1.48,0,0,0,3.15,1.3Zm2.26.9h0Z"/><path class="cls-10" d="M-1.31,1.51l0-.06a1.13,1.13,0,0,1-.12-.21A1,1,0,0,1-1.63.75a.19.19,0,0,1,0-.08.43.43,0,0,1,0-.11c.07-.05.07-.12.19-.15s.06-.09.2,0A.87.87,0,0,1-1,.52h0c.12-.06.12.09.18.15l.17.15A.48.48,0,0,0-.41.92c.07-.07.14,0,.24,0L.07.83c0-.06.11,0,.19,0H.32A.43.43,0,0,1,.54.9S.6.91.63,1a.39.39,0,0,1,.08.1h0c.06.06.07.09.1.22h0c0,.15.07.18,0,.24a.23.23,0,0,1,0,.14.41.41,0,0,1-.07.11.09.09,0,0,1-.07.1L.53,2c-.14.12-.05.23-.22.14h0c-.07.11-.13.06-.26.09L0,2.22a1.06,1.06,0,0,1-.31,0,.67.67,0,0,1-.35-.1A.56.56,0,0,1-.87,2L-.93,2c-.12-.05-.24-.19-.19-.21l-.16-.21Z"/><path class="cls-10" d="M9.34,3.63h0c0,.19.06.07.14.21h1.2a.13.13,0,0,0,0-.06s0,0,0,0a.77.77,0,0,0-.12-.28h0c0-.1-.1-.14-.16-.18l-.07-.06h0c0-.16-.14-.12-.25-.16L9.94,3c-.12,0-.17-.1-.21,0s-.22-.05-.24,0A.38.38,0,0,0,9.33,3a.14.14,0,0,0-.1.11h0c-.1.06-.1.19,0,.31S9.3,3.61,9.34,3.63Z"/><path class="cls-10" d="M7.45,2.12h0s0,0,0,0a1.12,1.12,0,0,1,.39-.21.07.07,0,0,1,.07,0,.12.12,0,0,1,.09,0,.76.76,0,0,1,.2-.06h0c.15-.1.12-.12.32,0h0a.82.82,0,0,1,.28.07h0a.52.52,0,0,1,.19.17l0,0a.65.65,0,0,1,.15.41h0a1.06,1.06,0,0,1-.05.43.15.15,0,0,1-.06.14.75.75,0,0,1-.1.2.38.38,0,0,1-.31.19c-.11,0-.18,0-.31-.16A.61.61,0,0,0,8.1,3a.48.48,0,0,1-.35,0,.66.66,0,0,1-.2-.06c-.07,0-.15,0-.18-.2a.64.64,0,0,1,0-.3v0S7.37,2.21,7.45,2.12Z"/><path class="cls-10" d="M1.57,1.7c0-.09-.05-.12-.1-.18a.51.51,0,0,1-.13-.24A.21.21,0,0,1,1.59,1l.06,0h.07l.11.05h0l0,0h0L2,1.17H2l0,0h0c.07.05.18.1.21.19s.06.06.1.12l.08.1h0a1.76,1.76,0,0,1,.14.23h0c0,.08.07.16.1.23a1,1,0,0,1,0,.55.49.49,0,0,1-.16.24.72.72,0,0,1-1.24-.38.69.69,0,0,1,.08-.4A.65.65,0,0,0,1.57,1.7Z"/></g><circle class="cls-11" cx="15.5" cy="14.5" r="12.5"/><line class="cls-12" x1="12.86" y1="1.9" x2="28.75" y2="16.97"/><line class="cls-12" x1="8.84" y1="3.03" x2="27.3" y2="20.55"/><path class="cls-13" d="M15.51,2a12.5,12.5,0,0,1,.32,25h-.34a12.5,12.5,0,0,1-.32-25h.34m0-1.5h-.38a14,14,0,0,0,.36,28h.38a14,14,0,0,0-.36-28Z"/></g></g></svg>