<svg xmlns="http://www.w3.org/2000/svg" xmlns:xlink="http://www.w3.org/1999/xlink" viewBox="0 0 30 30"><defs><style>.cls-1{fill:none;}.cls-2{isolation:isolate;}.cls-3{clip-path:url(#clip-path);}.cls-4{fill:#ece5d3;}.cls-5{clip-path:url(#clip-path-2);}.cls-6{clip-path:url(#clip-path-3);}.cls-7{clip-path:url(#clip-path-4);}.cls-8{fill:#e0ad6e;}.cls-9{mix-blend-mode:multiply;opacity:0.35;}.cls-10{fill:#d7ac81;}.cls-11{fill:#f5ce94;}.cls-12{fill:#221e20;}.cls-13{fill:#363d4d;}.cls-14{fill:#d1d1d1;}</style><clipPath id="clip-path"><circle class="cls-1" cx="-185" cy="-35" r="12.5"/></clipPath><clipPath id="clip-path-2"><circle class="cls-1" cx="-35" cy="-35" r="12.5"/></clipPath><clipPath id="clip-path-3"><rect class="cls-1" x="-54.92" y="-56.77" width="40.45" height="44.49"/></clipPath><clipPath id="clip-path-4"><circle class="cls-1" cx="65" cy="-35" r="12.5"/></clipPath></defs><g class="cls-2"><g id="Livello_1" data-name="Livello 1"><g class="cls-3"><rect class="cls-4" x="-888.08" y="-607.96" width="1500" height="1000"/></g><g class="cls-7"><rect class="cls-8" x="24.02" y="-57.65" width="92.23" height="61.49"/><g class="cls-9"><path class="cls-10" d="M31.66-6.58c-2.11-2.2-5.23-3.12-7.26-5.32a3.48,3.48,0,0,1-.38-.48v5a14.57,14.57,0,0,1,2.36,1.28C28-4.81,28.75-2,29,0a36.78,36.78,0,0,0,.41,3.89H35a1.7,1.7,0,0,0,0-.22A12.43,12.43,0,0,0,31.66-6.58Z"/></g><g class="cls-9"><path class="cls-10" d="M31.1-17.21C33-16.47,35-15.73,37-15.09A8.7,8.7,0,0,1,42.91-8.4a21.68,21.68,0,0,0,2.64,7.19c1,1.46,2.77,1.66,4.09,2.69a5.81,5.81,0,0,1,1.67,2.36H57A12.63,12.63,0,0,0,54.92,1c-2.1-2.2-5.22-3.13-7.25-5.33-1.64-1.77-1.12-4.25-1.3-6.45a7.54,7.54,0,0,0-2.12-4.77c-1.8-1.71-4.21-2.44-6.6-3a26.1,26.1,0,0,1-3.38-.63C33-19.71,32-20.48,30.75-21s-3.46-1-2.93,1C28.22-18.47,29.75-17.72,31.1-17.21Z"/><path class="cls-10" d="M45.83,2.58c-2-2.28-5.1-3.33-7-5.6-1.57-1.83-.95-4.29-1-6.5a7.58,7.58,0,0,0-1.93-4.85c-1.73-1.78-4.12-2.59-6.48-3.29A27.93,27.93,0,0,1,26-18.42a16.23,16.23,0,0,1-2-1.08V-16c1.48.63,3,1.25,4.49,1.81a8.66,8.66,0,0,1,5.68,6.91A21.62,21.62,0,0,0,36.55,0c1,1.5,2.7,1.77,4,2.85a4.18,4.18,0,0,1,.85,1h5.43A13.28,13.28,0,0,0,45.83,2.58Z"/></g><path class="cls-11" d="M29.39-.6c0-.09.13-.18.08-.26s.08-.07.11-.29a2.05,2.05,0,0,0,.16-.3c.09,0,0-.11.19-.29S30-2,30.15-2s.24-.23.25-.21.23-.17.26-.15.12.06.28-.05a.49.49,0,0,1,.31,0c.15-.12.23,0,.32.1s.2.19.32.16.33.16.3.2l.25.22c.06.06.15.25.19.25.09.21.12.11.07.34-.14,0,.26.16,0,.33.06.16,0,.08.05.25s.14.14.13.24c.19.14.06.11.11.23,0-.07.12.06,0,.22s-.25.17-.16.18c-.06.13-.16.21-.24.12,0,.08-.23.13-.31.08a.45.45,0,0,1-.34,0c-.24,0-.24.1-.36,0a.91.91,0,0,0-.33,0c-.21,0-.2,0-.3,0s-.18-.09-.22,0a.88.88,0,0,0-.37,0C30.07.48,30.13.44,30,.45A.55.55,0,0,0,29.68.3c-.05,0,0-.09-.21-.21-.06-.12-.14-.19-.1-.3C29.52-.16,29.29-.43,29.39-.6Z"/><path class="cls-11" d="M24.44,3.06c0,.09.13.22,0,.32s0,.09.06.3a.17.17,0,0,0,0,.16h2.16c.08-.09.08-.16.18-.2s.18-.17.24-.26.05-.13.21-.28.06-.11.16-.3,0-.11.1-.29-.1-.17,0-.32.15-.23,0-.32-.1-.15-.09-.31,0-.21-.12-.28c-.05-.28,0-.14-.18-.27s-.11-.32-.28-.26-.13,0-.29-.13-.38-.05-.31,0S26.11.54,26,.7s-.23.08-.29.16-.22.24-.28.22c-.07.15-.18.25-.25.25s-.16.11-.22.28-.25.21-.18.28,0,.26-.13.26a1.11,1.11,0,0,1-.1.29c0,.12-.06.23-.06.31S24.49,2.88,24.44,3.06Z"/><path class="cls-11" d="M31.82,3.84c0-.07-.1-.09,0-.18s.13-.17,0-.24-.08-.11-.06-.23,0-.16-.11-.21c0-.21,0-.1-.15-.2s-.09-.23-.23-.19-.11,0-.24-.1-.32,0-.26,0-.14,0-.24.07-.19.06-.25.12-.18.18-.23.16S29.86,3,29.8,3s-.12.08-.18.21-.2.16-.15.21,0,.19-.1.19a1.8,1.8,0,0,1-.08.21Z"/><path class="cls-12" d="M24.62-.55c0-.06.09-.08,0-.19h0a2.44,2.44,0,0,0,0-.27h0a2.56,2.56,0,0,0-.05-.27c0-.07,0-.07-.07-.23h0v0c0-.08,0-.15-.09-.19h0L24.29-2c.06,0,0-.17-.15-.2a.12.12,0,0,0-.05-.06L24-2.3V.51l0,0a1.17,1.17,0,0,0,.23-.21l.09-.11a.44.44,0,0,0,.06-.1h0a.2.2,0,0,0,.06-.12.69.69,0,0,0,.05-.13h0c.1-.16.09-.19.07-.27S24.62-.52,24.62-.55Z"/><path class="cls-12" d="M27.76,3.84a.47.47,0,0,1,0-.1c.05-.12.09-.24.13-.37A3.08,3.08,0,0,0,28,2.69a1,1,0,0,0-.18-.64.39.39,0,0,0-.1-.08l0,0a.3.3,0,0,0-.29,0,.22.22,0,0,0-.15.12l-.12.19c-.13.17-.21.18-.21.37-.16,0-.12.17-.17.21h0a.48.48,0,0,0-.19.18c-.11,0-.1.08-.13.12l-.25.25a1.89,1.89,0,0,0-.28.45Z"/><path class="cls-12" d="M25.49,1.63h-.1a.2.2,0,0,1-.11,0,.38.38,0,0,1-.17-.1h0A.46.46,0,0,1,25,1.33s-.06-.07-.05-.09a.17.17,0,0,1-.05-.18.55.55,0,0,1,0-.22,1.54,1.54,0,0,1,0-.17A.2.2,0,0,1,25,.53a.45.45,0,0,1,.16-.2l.12-.15a.15.15,0,0,0,0-.06,1.76,1.76,0,0,0,.17-.42s0-.08.05-.12l.05-.09v0a.86.86,0,0,1,.13-.14.31.31,0,0,1,.22-.12l.11,0a.42.42,0,0,1,.15,0h0c0-.15,0,0,0-.25s.07,0,0-.15c.14-.1.12-.23.26-.13s.29-.09.25.06c.11-.1.18.05.23.16s.13.16.19.24a.36.36,0,0,1,.12.27c0,.08,0,.13,0,.23a.14.14,0,0,1,.06.15h0a.65.65,0,0,1,.26.29h0l.05.06c.07.06.19.13.14.24a.16.16,0,0,1,0,.07c0,.08.06.15.08.22a1.53,1.53,0,0,1,0,.43.31.31,0,0,1-.11.4c0,.1,0,.25-.28.27s-.21.08-.32,0l-.15-.09A.27.27,0,0,1,27,1.44c-.1-.13-.21-.13-.25-.22h0c-.12,0-.19.06-.32-.07a.23.23,0,0,1-.23.08h0a.78.78,0,0,0-.2.16.38.38,0,0,1-.17.16.41.41,0,0,1-.15.07S25.55,1.64,25.49,1.63Z"/><path class="cls-12" d="M24.06,3l0,0v.84h1.27l-.05-.06a1.41,1.41,0,0,1-.17-.32c.17,0,0-.06,0-.25a1.2,1.2,0,0,1,0-.24.24.24,0,0,0,0-.08.13.13,0,0,0,0-.15l.06-.21h0c.05,0,0-.07,0-.11s0-.09,0-.13h0c.05-.13,0-.11,0-.17s0,0,0-.06h0a.37.37,0,0,0-.09-.19A.6.6,0,0,0,25,1.79c-.08-.11-.11-.24-.17-.09,0-.05-.29-.06-.25,0h0a.57.57,0,0,0-.22.16h0c-.12.14-.19.11-.14.25s0,.56-.18.81C24,2.94,24,3,24.06,3Z"/><path class="cls-12" d="M32.63,1.46h0s0,0,0,0a.49.49,0,0,1-.15.09l-.17,0a.09.09,0,0,1-.1,0h-.11a.17.17,0,0,1-.12,0h0l-.15,0a0,0,0,0,1-.06,0h0l-.23,0h0l-.15,0h-.09a5.31,5.31,0,0,0-.69,0,.13.13,0,0,1-.15,0,.21.21,0,0,1-.17,0h-.12s-.05,0-.12,0l-.18,0-.08,0-.14-.05h0l-.1-.05c-.05,0-.09.05-.13-.07h0a2,2,0,0,1-.57-.58,1.75,1.75,0,0,1-.13-.23h0a.05.05,0,0,1,0,0l-.09-.2h0a2.11,2.11,0,0,1-.12-.51h0s0-.07,0-.26h0l0-.15a.15.15,0,0,1,0-.1A2,2,0,0,1,28.6-1h0a1.46,1.46,0,0,1,.16-.19h0a.21.21,0,0,1,.14-.12.79.79,0,0,1,.4-.17h0a.58.58,0,0,1,.35.08s.18.12.2.2.08.12.09.27,0,.12,0,.2a.31.31,0,0,0,0,.1h0c0,.19,0,.23,0,.3s.16.25.11.28c.14,0,.18,0,.21.21l.09,0a.64.64,0,0,0,.2,0h0l.31,0c.14,0,.19-.13.31-.07h0l.14,0c.06,0,.12-.07.15-.06a1.23,1.23,0,0,1,.76,0h0a.67.67,0,0,1,.21.09.51.51,0,0,1,.21.17h0v0c.05.06.11.06.13.21s.12.2.07.25a.76.76,0,0,1,0,.26h0a.65.65,0,0,1-.08.22,0,0,0,0,1,0,0l0,.05A.25.25,0,0,1,32.63,1.46Z"/><path class="cls-12" d="M29.51,3.84l.08-.14.17-.15h0a.75.75,0,0,0,.16-.15A.51.51,0,0,0,30,3.15h0c0-.08.17,0-.08-.25a.6.6,0,0,0-.36-.16.21.21,0,0,0-.37.07h0a.58.58,0,0,0-.29.18h0a1.32,1.32,0,0,0-.28.3h0a.6.6,0,0,0-.16.16.21.21,0,0,0,0,.23c-.06,0-.08.07-.08.14Z"/></g><circle class="cls-13" cx="15" cy="15" r="12.5"/><path class="cls-14" d="M15,2.5A12.5,12.5,0,1,1,2.5,15,12.5,12.5,0,0,1,15,2.5M15,1A14,14,0,1,0,29,15,14,14,0,0,0,15,1Z"/></g></g></svg>