<svg id="Livello_1" data-name="Livello 1" xmlns="http://www.w3.org/2000/svg" xmlns:xlink="http://www.w3.org/1999/xlink" viewBox="0 0 30 30"><defs><style>.cls-1{fill:none;}.cls-2{clip-path:url(#clip-path);}.cls-3{fill:#fff;}.cls-4{fill:#caa875;}.cls-5{fill:#e0d9b9;}.cls-6{fill:#d1d1d1;}</style><clipPath id="clip-path"><circle class="cls-1" cx="15" cy="15" r="12.5"/></clipPath></defs><g class="cls-2"><circle cx="15" cy="15" r="12.5"/><rect x="13.71" y="2.09" width="0.43" height="25.82"/><rect class="cls-3" x="14.14" y="2.09" width="0.43" height="25.82"/><rect class="cls-4" x="14.57" y="2.09" width="0.43" height="25.82"/><rect class="cls-4" x="9.2" y="2.09" width="4.51" height="25.82" transform="translate(22.91 30) rotate(-180)"/><rect x="8.84" y="2.09" width="0.43" height="25.82" transform="translate(18.1 30) rotate(180)"/><rect class="cls-3" x="8.41" y="2.09" width="0.43" height="25.82" transform="translate(17.24 30) rotate(180)"/><rect class="cls-4" x="7.98" y="2.09" width="0.43" height="25.82" transform="translate(16.38 30) rotate(180)"/><polygon class="cls-5" points="23.31 24.5 20.08 24.5 20.08 20.16 21.69 21.4 23.31 20.16 23.31 24.5"/><polygon class="cls-5" points="24.6 27.91 18.78 27.91 18.78 21.82 21.69 24.22 24.6 21.82 24.6 27.91"/><polygon class="cls-5" points="25.76 27.91 17.62 27.91 17.62 23.71 21.69 26.12 25.76 23.71 25.76 27.91"/><polygon class="cls-5" points="22.48 22.33 20.9 22.33 20.9 17.98 21.69 19.23 22.48 17.98 22.48 22.33"/><polygon class="cls-4" points="22.6 25.25 20.78 25.25 20.78 21.85 21.69 22.82 22.6 21.85 22.6 25.25"/><polygon class="cls-4" points="23.33 27.91 20.06 27.91 20.06 23.15 21.69 25.03 23.33 23.15 23.33 27.91"/><polygon class="cls-4" points="23.98 27.91 19.4 27.91 19.4 24.63 21.69 26.51 23.98 24.63 23.98 27.91"/><polygon class="cls-4" points="22.14 23.55 21.25 23.55 21.25 20.16 21.69 21.13 22.14 20.16 22.14 23.55"/></g><path class="cls-6" d="M15,2.5A12.5,12.5,0,1,1,2.5,15,12.5,12.5,0,0,1,15,2.5M15,1A14,14,0,1,0,29,15,14,14,0,0,0,15,1Z"/></svg>