<svg id="Livello_1" data-name="Livello 1" xmlns="http://www.w3.org/2000/svg" xmlns:xlink="http://www.w3.org/1999/xlink" viewBox="0 0 30 30"><defs><style>.cls-1{fill:none;}.cls-2{clip-path:url(#clip-path);}.cls-3{fill:#232d58;}.cls-4{fill:#758fbb;stroke:#758fbb;stroke-miterlimit:10;stroke-width:0.35px;}.cls-5{fill:#e6e2dd;}.cls-6{fill:#3f539e;}.cls-7{fill:#15181b;}.cls-8{fill:#d1d1d1;}</style><clipPath id="clip-path"><path class="cls-1" d="M15,2.5A12.5,12.5,0,1,1,2.62,16.77,12.94,12.94,0,0,1,2.5,15,12.5,12.5,0,0,1,15,2.5Z"/></clipPath></defs><g class="cls-2"><path class="cls-3" d="M15,2.5A12.5,12.5,0,1,1,2.62,16.77,12.94,12.94,0,0,1,2.5,15,12.5,12.5,0,0,1,15,2.5Z"/><path class="cls-4" d="M24.71,18.46l-1.95-.81v-.51l1.95-.81v.61l-1.18.46,1.18.46Z"/><path class="cls-4" d="M15,17.88l1.19-.46L15,17v-.61l1.95.81v.51L15,18.48Z"/><polygon class="cls-5" points="19.8 7.1 15.98 9.51 19.77 11.82 23.74 9.51 19.8 7.1"/><polygon class="cls-5" points="19.8 8.89 15.98 11.3 19.77 13.62 23.74 11.3 19.8 8.89"/><polygon class="cls-5" points="19.8 11.82 15.98 14.24 19.77 16.55 23.74 14.24 19.8 11.82"/><polygon class="cls-5" points="19.8 13.52 15.98 15.93 19.77 18.24 23.74 15.93 19.8 13.52"/><polygon class="cls-5" points="19.8 16.55 15.98 18.96 19.77 21.27 23.74 18.96 19.8 16.55"/><polygon class="cls-5" points="19.8 18.34 15.98 20.75 19.77 23.07 23.74 20.75 19.8 18.34"/><polygon class="cls-5" points="19.8 21.27 15.98 23.68 19.77 26 23.74 23.68 19.8 21.27"/><polygon class="cls-5" points="19.8 22.97 15.98 25.38 19.77 27.69 23.74 25.38 19.8 22.97"/><path class="cls-4" d="M24.71,13.79,22.76,13v-.51l1.95-.81v.61l-1.19.46,1.19.46Z"/><path class="cls-4" d="M15,13.19l1.19-.46L15,12.27v-.61l1.95.81V13L15,13.79Z"/><path class="cls-4" d="M15,8.62l1.18-.45L15,7.71V7.1L17,7.91v.51L15,9.23Z"/><path class="cls-4" d="M15,22.66l1.19-.46L15,21.74v-.6L17,22v.5L15,23.26Z"/><path class="cls-4" d="M24.71,23.26l-1.95-.81V22l1.95-.81v.6l-1.19.46,1.19.46Z"/><path class="cls-4" d="M15,27.26l1.18-.46L15,26.34v-.6l1.94.81v.5L15,27.86Z"/><polygon class="cls-6" points="19.76 14 18.09 15.05 19.75 16.06 21.48 15.05 19.76 14"/><polygon class="cls-7" points="19.77 13.69 18.69 14.38 19.76 15.03 20.89 14.38 19.77 13.69"/><polygon class="cls-6" points="19.75 18.82 18.09 19.87 19.74 20.88 21.48 19.87 19.75 18.82"/><polygon class="cls-7" points="19.77 18.5 18.68 19.19 19.76 19.84 20.88 19.19 19.77 18.5"/><polygon class="cls-6" points="19.76 23.47 18.09 24.52 19.75 25.53 21.48 24.52 19.76 23.47"/><polygon class="cls-7" points="19.77 23.16 18.69 23.85 19.76 24.5 20.89 23.85 19.77 23.16"/><polygon class="cls-5" points="19.72 -0.26 15.9 2.15 19.69 4.47 23.66 2.15 19.72 -0.26"/><polygon class="cls-5" points="19.72 2.68 15.9 5.09 19.69 7.4 23.66 5.09 19.72 2.68"/><polygon class="cls-5" points="19.72 4.37 15.9 6.78 19.69 9.1 23.66 6.78 19.72 4.37"/><polygon class="cls-6" points="19.74 9.35 18.08 10.4 19.73 11.41 21.46 10.4 19.74 9.35"/><polygon class="cls-7" points="19.75 9.04 18.67 9.73 19.75 10.38 20.87 9.73 19.75 9.04"/><polygon class="cls-6" points="19.74 4.88 18.08 5.93 19.73 6.94 21.46 5.93 19.74 4.88"/><polygon class="cls-7" points="19.75 4.57 18.67 5.26 19.75 5.91 20.87 5.26 19.75 4.57"/><path class="cls-4" d="M15,4.05l1.18-.45L15,3.14V2.53L17,3.34v.51L15,4.66Z"/><path class="cls-4" d="M24.7,9.15l-1.95-.8V7.84L24.7,7v.61l-1.18.45,1.18.46Z"/></g><path class="cls-8" d="M15,2.5A12.5,12.5,0,1,1,2.5,15,12.5,12.5,0,0,1,15,2.5M15,1A14,14,0,1,0,29,15,14,14,0,0,0,15,1Z"/></svg>