<svg id="Livello_1" data-name="Livello 1" xmlns="http://www.w3.org/2000/svg" xmlns:xlink="http://www.w3.org/1999/xlink" viewBox="0 0 30 30"><defs><style>.cls-1{fill:none;}.cls-2{clip-path:url(#clip-path);}.cls-3{fill:#603b1f;}.cls-4{fill:#bcb69f;}.cls-5{fill:#3f539e;}.cls-6{fill:#947b5e;}.cls-7{fill:#fff;}.cls-8{fill:#d1d1d1;}</style><clipPath id="clip-path"><path class="cls-1" d="M15,2.5A12.5,12.5,0,1,1,2.62,16.77,12.94,12.94,0,0,1,2.5,15,12.5,12.5,0,0,1,15,2.5Z"/></clipPath></defs><g class="cls-2"><path class="cls-3" d="M15,2.5A12.5,12.5,0,1,1,2.62,16.77,12.94,12.94,0,0,1,2.5,15,12.5,12.5,0,0,1,15,2.5Z"/><rect class="cls-4" x="14.8" y="0.94" width="10.13" height="27.58"/><rect class="cls-5" x="16.2" y="0.94" width="2.23" height="27.58"/><polygon class="cls-6" points="18.43 18.97 16.2 20.1 16.2 24.88 18.43 23.74 18.43 18.97"/><polygon class="cls-7" points="18.43 14.19 16.2 15.33 16.2 20.1 18.43 18.97 18.43 14.19"/><polygon class="cls-6" points="18.44 4.65 16.21 5.79 16.21 10.56 18.44 9.43 18.44 4.65"/><polygon class="cls-7" points="18.44 -0.12 16.21 1.02 16.21 5.79 18.44 4.66 18.44 -0.12"/><rect class="cls-5" x="21.27" y="0.93" width="2.23" height="27.58"/><polygon class="cls-6" points="23.5 18.95 21.27 20.09 21.27 24.86 23.5 23.73 23.5 18.95"/><polygon class="cls-7" points="23.5 14.18 21.27 15.31 21.27 20.09 23.5 18.96 23.5 14.18"/><polygon class="cls-6" points="23.51 4.64 21.28 5.78 21.28 10.55 23.51 9.42 23.51 4.64"/><polygon class="cls-7" points="23.51 -0.13 21.28 1.01 21.28 5.78 23.51 4.65 23.51 -0.13"/><rect class="cls-3" x="19.06" y="21.15" width="0.5" height="3.06"/><rect class="cls-3" x="19.31" y="22.22" width="0.9" height="1.99"/><rect class="cls-3" x="19.76" y="23.23" width="0.9" height="1.99"/><rect class="cls-3" x="19.06" y="24.8" width="0.5" height="3.06"/><rect class="cls-3" x="19.31" y="24.8" width="0.9" height="1.99"/><rect class="cls-3" x="19.06" y="1.12" width="0.5" height="3.06"/><rect class="cls-3" x="19.31" y="2.19" width="0.9" height="1.99"/><rect class="cls-3" x="19.76" y="3.2" width="0.9" height="1.99"/><rect class="cls-3" x="19.06" y="4.76" width="0.5" height="3.06"/><rect class="cls-3" x="19.31" y="4.76" width="0.9" height="1.99"/><rect class="cls-3" x="20.16" y="11.14" width="0.5" height="3.06" transform="translate(40.81 25.33) rotate(-180)"/><rect class="cls-3" x="19.51" y="12.21" width="0.9" height="1.99" transform="translate(39.92 26.4) rotate(-180)"/><rect class="cls-3" x="19.06" y="13.21" width="0.9" height="1.99" transform="translate(39.02 28.41) rotate(-180)"/><rect class="cls-3" x="20.16" y="14.78" width="0.5" height="3.06" transform="translate(40.81 32.62) rotate(-180)"/><rect class="cls-3" x="19.51" y="14.78" width="0.9" height="1.99" transform="translate(39.92 31.55) rotate(-180)"/></g><path class="cls-8" d="M15,2.5A12.5,12.5,0,1,1,2.5,15,12.5,12.5,0,0,1,15,2.5M15,1A14,14,0,1,0,29,15,14,14,0,0,0,15,1Z"/></svg>