<svg id="Livello_1" data-name="Livello 1" xmlns="http://www.w3.org/2000/svg" xmlns:xlink="http://www.w3.org/1999/xlink" viewBox="0 0 30 30"><defs><style>.cls-1{fill:none;}.cls-2{clip-path:url(#clip-path);}.cls-3{fill:#33aaad;}.cls-4{fill:#15558a;}.cls-5{fill:#fff;}.cls-6{fill:#d1d1d1;}</style><clipPath id="clip-path"><circle class="cls-1" cx="15" cy="15" r="12.5"/></clipPath></defs><g class="cls-2"><circle class="cls-3" cx="15" cy="15" r="12.5"/><rect x="17.21" y="1.08" width="6.49" height="6.49" transform="translate(2.93 15.73) rotate(-45)"/><rect x="17.21" y="7.72" width="6.49" height="6.49" transform="translate(-1.76 17.68) rotate(-45)"/><rect x="17.21" y="14.17" width="6.49" height="6.49" transform="translate(-6.32 19.57) rotate(-45)"/><rect x="17.21" y="21.13" width="6.49" height="6.49" transform="translate(-11.24 21.61) rotate(-45)"/><rect class="cls-4" x="17.88" y="1.75" width="5.15" height="5.15" transform="translate(2.93 15.73) rotate(-45)"/><rect class="cls-4" x="17.98" y="8.49" width="4.97" height="4.97" transform="translate(-1.76 17.68) rotate(-45)"/><rect class="cls-4" x="17.88" y="14.83" width="5.16" height="5.16" transform="translate(-6.32 19.57) rotate(-45)"/><rect class="cls-4" x="17.78" y="21.69" width="5.37" height="5.37" transform="translate(-11.24 21.61) rotate(-45)"/><rect x="19.13" y="3" width="2.66" height="2.66" transform="translate(2.93 15.73) rotate(-45)"/><rect x="19.13" y="9.64" width="2.66" height="2.66" transform="translate(-1.76 17.68) rotate(-45)"/><rect x="19.13" y="16.08" width="2.66" height="2.66" transform="translate(-6.32 19.57) rotate(-45)"/><rect x="19.13" y="23.05" width="2.66" height="2.66" transform="translate(-11.24 21.61) rotate(-45)"/><polygon points="15.54 5.85 15.54 9.6 15.83 9.6 17.53 7.72 15.83 5.85 15.54 5.85"/><polygon class="cls-5" points="15.83 5.85 15.83 9.6 17.71 7.72 15.83 5.85"/><polygon points="15.53 12.32 15.53 16.08 15.82 16.08 17.52 14.2 15.82 12.32 15.53 12.32"/><polygon class="cls-5" points="15.82 12.32 15.82 16.08 17.7 14.2 15.82 12.32"/><polygon points="15.54 19.01 15.54 22.77 15.83 22.77 17.53 20.89 15.83 19.01 15.54 19.01"/><polygon class="cls-5" points="15.83 19.01 15.83 22.77 17.71 20.89 15.83 19.01"/><polygon points="15.54 27.09 15.54 30.84 15.82 30.84 17.52 28.97 15.82 27.09 15.54 27.09"/><polygon class="cls-5" points="15.82 27.09 15.82 30.84 17.7 28.97 15.82 27.09"/><polygon points="25.07 5.77 25.07 9.53 24.79 9.53 23.09 7.65 24.79 5.77 25.07 5.77"/><polygon class="cls-5" points="24.79 5.77 24.79 9.53 22.91 7.65 24.79 5.77"/><polygon points="25.09 12.32 25.09 16.08 24.81 16.08 23.11 14.2 24.81 12.32 25.09 12.32"/><polygon class="cls-5" points="24.81 12.32 24.81 16.08 22.93 14.2 24.81 12.32"/><polygon points="25.07 19.01 25.07 22.77 24.79 22.77 23.09 20.89 24.79 19.01 25.07 19.01"/><polygon class="cls-5" points="24.79 19.01 24.79 22.77 22.91 20.89 24.79 19.01"/><polygon points="15.54 8.15 15.54 7.3 16.7 7.3 16.37 7.72 16.7 8.15 15.54 8.15"/><polygon points="15.53 14.63 15.53 13.77 16.69 13.77 16.36 14.2 16.69 14.63 15.53 14.63"/><polygon points="15.61 21.32 15.61 20.46 16.76 20.46 16.43 20.89 16.76 21.32 15.61 21.32"/><polygon points="15.54 29.39 15.54 28.54 16.69 28.54 16.36 28.97 16.69 29.39 15.54 29.39"/><polygon points="25.02 21.32 25.02 20.46 23.87 20.46 24.2 20.89 23.87 21.32 25.02 21.32"/><polygon points="25.09 14.63 25.09 13.77 23.94 13.77 24.27 14.2 23.94 14.63 25.09 14.63"/><polygon points="25.02 8.15 25.02 7.3 23.87 7.3 24.2 7.72 23.87 8.15 25.02 8.15"/><polygon points="20.46 16.14 20.46 18.69 20.27 18.69 19.11 17.41 20.27 16.14 20.46 16.14"/><polygon class="cls-5" points="20.27 16.14 20.27 18.69 18.99 17.41 20.27 16.14"/><polygon points="20.46 17.7 20.46 17.12 19.68 17.12 19.9 17.41 19.68 17.7 20.46 17.7"/><polygon points="20.46 16.14 20.46 18.69 20.65 18.69 21.81 17.41 20.65 16.14 20.46 16.14"/><polygon class="cls-5" points="20.65 16.14 20.65 18.69 21.93 17.41 20.65 16.14"/><polygon points="20.46 17.7 20.46 17.12 21.25 17.12 21.02 17.41 21.25 17.7 20.46 17.7"/><polygon points="20.46 23.1 20.46 25.65 20.27 25.65 19.11 24.38 20.27 23.1 20.46 23.1"/><polygon class="cls-5" points="20.27 23.1 20.27 25.65 18.99 24.38 20.27 23.1"/><polygon points="20.46 24.67 20.46 24.08 19.68 24.08 19.9 24.38 19.68 24.67 20.46 24.67"/><polygon points="20.46 23.1 20.46 25.65 20.65 25.65 21.81 24.38 20.65 23.1 20.46 23.1"/><polygon class="cls-5" points="20.65 23.1 20.65 25.65 21.93 24.38 20.65 23.1"/><polygon points="20.46 24.67 20.46 24.08 21.25 24.08 21.02 24.38 21.25 24.67 20.46 24.67"/><polygon points="20.46 9.69 20.46 12.25 20.27 12.25 19.11 10.97 20.27 9.69 20.46 9.69"/><polygon class="cls-5" points="20.27 9.69 20.27 12.25 18.99 10.97 20.27 9.69"/><polygon points="20.46 11.26 20.46 10.68 19.68 10.68 19.9 10.97 19.68 11.26 20.46 11.26"/><polygon points="20.46 9.69 20.46 12.25 20.65 12.25 21.81 10.97 20.65 9.69 20.46 9.69"/><polygon class="cls-5" points="20.65 9.69 20.65 12.25 21.93 10.97 20.65 9.69"/><polygon points="20.46 11.26 20.46 10.68 21.25 10.68 21.02 10.97 21.25 11.26 20.46 11.26"/><polygon points="20.46 3.05 20.46 5.61 20.27 5.61 19.11 4.33 20.27 3.05 20.46 3.05"/><polygon class="cls-5" points="20.27 3.05 20.27 5.61 18.99 4.33 20.27 3.05"/><polygon points="20.46 4.62 20.46 4.04 19.68 4.04 19.9 4.33 19.68 4.62 20.46 4.62"/><polygon points="20.46 3.05 20.46 5.61 20.65 5.61 21.81 4.33 20.65 3.05 20.46 3.05"/><polygon class="cls-5" points="20.65 3.05 20.65 5.61 21.93 4.33 20.65 3.05"/><polygon points="20.46 4.62 20.46 4.04 21.25 4.04 21.02 4.33 21.25 4.62 20.46 4.62"/></g><path class="cls-6" d="M15,2.5A12.5,12.5,0,1,1,2.5,15,12.5,12.5,0,0,1,15,2.5M15,1A14,14,0,1,0,29,15,14,14,0,0,0,15,1Z"/></svg>