<svg id="Livello_1" data-name="Livello 1" xmlns="http://www.w3.org/2000/svg" xmlns:xlink="http://www.w3.org/1999/xlink" viewBox="0 0 30 30"><defs><style>.cls-1{fill:none;}.cls-2{clip-path:url(#clip-path);}.cls-3{fill:#a08b68;}.cls-4{fill:#a8756d;}.cls-5{fill:#3b3c3f;}.cls-6{fill:#fff;}.cls-7{fill:#e4c38c;}.cls-10,.cls-11,.cls-8{fill:#1d1d1b;}.cls-8{stroke:#896450;stroke-width:0.11px;}.cls-11,.cls-16,.cls-17,.cls-8{stroke-miterlimit:10;}.cls-9{fill:#b37873;}.cls-11{stroke:#fff;stroke-width:0.08px;}.cls-12,.cls-16{fill:#816d4d;}.cls-13{fill:#896450;}.cls-14{fill:#d9d8d4;}.cls-15{fill:#e2a397;}.cls-16,.cls-17{stroke:#1d1d1b;stroke-width:0.04px;}.cls-17{fill:#987266;}.cls-18{fill:#d3d0c9;}.cls-19{fill:#39383b;}.cls-20{fill:#d4d5d3;}.cls-21{fill:#d1d1d1;}</style><clipPath id="clip-path"><path class="cls-1" d="M15,2.5A12.5,12.5,0,1,1,2.62,16.77,12.94,12.94,0,0,1,2.5,15,12.5,12.5,0,0,1,15,2.5Z"/></clipPath></defs><g class="cls-2"><path class="cls-3" d="M15,2.5A12.5,12.5,0,1,1,2.62,16.77,12.94,12.94,0,0,1,2.5,15,12.5,12.5,0,0,1,15,2.5Z"/><rect class="cls-4" x="7.81" y="1.82" width="1.31" height="26.36"/><rect class="cls-5" x="9.12" y="1.82" width="2.62" height="26.36"/><rect class="cls-6" x="7.15" y="1.82" width="0.66" height="26.36"/><rect class="cls-7" x="12.54" y="1.82" width="16.78" height="26.36"/><rect class="cls-8" x="16.39" y="3.46" width="9.54" height="9.54" transform="translate(0.38 17.38) rotate(-45)"/><rect class="cls-9" x="17.49" y="4.56" width="7.35" height="7.35" transform="translate(0.38 17.38) rotate(-45)"/><rect class="cls-10" x="17.91" y="4.97" width="6.51" height="6.51" transform="translate(0.38 17.38) rotate(-45)"/><rect class="cls-9" x="18.25" y="5.32" width="5.82" height="5.82" transform="translate(0.38 17.38) rotate(-45)"/><rect class="cls-8" x="19.1" y="6.17" width="4.13" height="4.13" transform="translate(0.38 17.38) rotate(-45)"/><rect class="cls-11" x="19.67" y="6.73" width="2.99" height="2.99" transform="translate(0.38 17.38) rotate(-45)"/><rect class="cls-9" x="20.03" y="7.09" width="2.27" height="2.27" transform="translate(0.38 17.38) rotate(-45)"/><rect class="cls-10" x="20.42" y="7.49" width="1.48" height="1.48" transform="translate(0.38 17.38) rotate(-45)"/><rect class="cls-12" x="20.61" y="7.68" width="1.11" height="1.11" transform="translate(0.38 17.38) rotate(-45)"/><rect class="cls-10" x="20.76" y="7.83" width="0.8" height="0.8" transform="translate(0.38 17.38) rotate(-45)"/><rect class="cls-6" x="20.9" y="7.97" width="0.53" height="0.53" transform="translate(0.38 17.38) rotate(-45)"/><rect class="cls-9" x="20.97" y="8.03" width="0.39" height="0.39" transform="translate(0.38 17.38) rotate(-45)"/><polygon class="cls-12" points="15.04 3.97 13.01 8.01 15.04 12.11 17.06 8.04 15.04 3.97"/><polygon class="cls-10" points="15.04 4.88 13.46 8.02 15.04 11.21 16.61 8.04 15.04 4.88"/><polygon class="cls-13" points="15.04 5.18 13.61 8.02 15.04 10.91 16.46 8.04 15.04 5.18"/><polygon class="cls-14" points="15.04 5.68 13.86 8.03 15.04 10.4 16.21 8.04 15.04 5.68"/><polygon class="cls-9" points="15.04 6.04 14.04 8.03 15.04 10.04 16.03 8.04 15.04 6.04"/><polygon class="cls-15" points="15.04 6.72 14.38 8.03 15.04 9.37 15.69 8.04 15.04 6.72"/><rect class="cls-16" x="15.51" y="6.8" width="2.68" height="2.68" transform="translate(-0.82 14.3) rotate(-45)"/><rect class="cls-17" x="15.85" y="7.14" width="2" height="2" transform="translate(-0.82 14.3) rotate(-45)"/><rect class="cls-9" x="16.17" y="7.46" width="1.36" height="1.36" transform="translate(-0.82 14.3) rotate(-45)"/><rect class="cls-13" x="16.43" y="7.73" width="0.83" height="0.83" transform="translate(-0.82 14.3) rotate(-45)"/><rect class="cls-16" x="24.18" y="6.89" width="2.68" height="2.68" transform="translate(1.65 20.45) rotate(-45)"/><rect class="cls-17" x="24.52" y="7.23" width="2" height="2" transform="translate(1.65 20.45) rotate(-45)"/><rect class="cls-9" x="24.84" y="7.55" width="1.36" height="1.36" transform="translate(1.65 20.45) rotate(-45)"/><rect class="cls-13" x="25.1" y="7.81" width="0.83" height="0.83" transform="translate(1.65 20.45) rotate(-45)"/><polygon class="cls-18" points="18.9 7.46 18.49 7.88 18.38 7.36 18.9 7.46"/><polygon class="cls-18" points="19.31 7.03 18.9 7.45 18.79 6.92 19.31 7.03"/><polygon class="cls-18" points="19.71 6.63 19.3 7.04 19.19 6.52 19.71 6.63"/><polygon class="cls-18" points="20.11 6.22 19.71 6.63 19.59 6.11 20.11 6.22"/><polygon class="cls-18" points="20.53 5.81 20.12 6.22 20 5.7 20.53 5.81"/><polygon class="cls-18" points="20.93 5.39 20.52 5.8 20.41 5.28 20.93 5.39"/><polygon class="cls-18" points="23.32 7.41 23.73 7.82 23.84 7.3 23.32 7.41"/><polygon class="cls-18" points="22.91 6.97 23.32 7.39 23.43 6.87 22.91 6.97"/><polygon class="cls-18" points="22.51 6.57 22.91 6.99 23.03 6.46 22.51 6.57"/><polygon class="cls-18" points="22.1 6.16 22.51 6.58 22.63 6.06 22.1 6.16"/><polygon class="cls-18" points="21.69 5.75 22.1 6.17 22.21 5.65 21.69 5.75"/><polygon class="cls-18" points="21.29 5.33 21.7 5.74 21.81 5.22 21.29 5.33"/><polygon class="cls-18" points="18.84 8.91 18.43 8.5 18.32 9.02 18.84 8.91"/><polygon class="cls-18" points="19.25 9.34 18.84 8.93 18.73 9.45 19.25 9.34"/><polygon class="cls-18" points="19.65 9.74 19.24 9.33 19.13 9.85 19.65 9.74"/><polygon class="cls-18" points="20.05 10.15 19.65 9.74 19.53 10.26 20.05 10.15"/><polygon class="cls-18" points="20.47 10.56 20.06 10.15 19.94 10.67 20.47 10.56"/><polygon class="cls-18" points="20.87 10.99 20.46 10.57 20.34 11.09 20.87 10.99"/><polygon class="cls-18" points="23.32 9.09 23.73 8.68 23.84 9.2 23.32 9.09"/><polygon class="cls-18" points="22.91 9.52 23.32 9.11 23.43 9.63 22.91 9.52"/><polygon class="cls-18" points="22.51 9.93 22.91 9.51 23.03 10.03 22.51 9.93"/><polygon class="cls-18" points="22.1 10.34 22.51 9.92 22.63 10.44 22.1 10.34"/><polygon class="cls-18" points="21.69 10.74 22.1 10.33 22.21 10.85 21.69 10.74"/><polygon class="cls-18" points="21.29 11.17 21.7 10.76 21.81 11.28 21.29 11.17"/><rect class="cls-8" x="16.4" y="17" width="9.54" height="9.54" transform="translate(-9.19 21.35) rotate(-45)"/><rect class="cls-9" x="17.5" y="18.1" width="7.35" height="7.35" transform="translate(-9.19 21.35) rotate(-45)"/><rect class="cls-10" x="17.92" y="18.51" width="6.51" height="6.51" transform="translate(-9.19 21.35) rotate(-45)"/><rect class="cls-9" x="18.26" y="18.86" width="5.82" height="5.82" transform="translate(-9.19 21.35) rotate(-45)"/><rect class="cls-8" x="19.11" y="19.71" width="4.13" height="4.13" transform="translate(-9.19 21.35) rotate(-45)"/><rect class="cls-11" x="19.68" y="20.27" width="2.99" height="2.99" transform="translate(-9.19 21.35) rotate(-45)"/><rect class="cls-9" x="20.04" y="20.63" width="2.27" height="2.27" transform="translate(-9.19 21.35) rotate(-45)"/><rect class="cls-10" x="20.43" y="21.03" width="1.48" height="1.48" transform="translate(-9.19 21.35) rotate(-45)"/><rect class="cls-12" x="20.62" y="21.22" width="1.11" height="1.11" transform="translate(-9.19 21.35) rotate(-45)"/><rect class="cls-10" x="20.77" y="21.37" width="0.8" height="0.8" transform="translate(-9.19 21.35) rotate(-45)"/><rect class="cls-6" x="20.91" y="21.51" width="0.53" height="0.53" transform="translate(-9.19 21.35) rotate(-45)"/><rect class="cls-9" x="20.98" y="21.57" width="0.39" height="0.39" transform="translate(-9.19 21.35) rotate(-45)"/><polygon class="cls-12" points="15.05 17.51 13.02 21.55 15.05 25.65 17.07 21.58 15.05 17.51"/><polygon class="cls-10" points="15.05 18.42 13.47 21.56 15.05 24.75 16.62 21.58 15.05 18.42"/><polygon class="cls-13" points="15.05 18.72 13.62 21.56 15.05 24.45 16.47 21.58 15.05 18.72"/><polygon class="cls-14" points="15.05 19.22 13.87 21.57 15.05 23.95 16.22 21.58 15.05 19.22"/><polygon class="cls-9" points="15.05 19.59 14.05 21.57 15.05 23.58 16.04 21.58 15.05 19.59"/><polygon class="cls-15" points="15.04 20.26 14.38 21.57 15.04 22.91 15.7 21.58 15.04 20.26"/><rect class="cls-16" x="15.51" y="20.34" width="2.68" height="2.68" transform="translate(-10.4 18.27) rotate(-45)"/><rect class="cls-17" x="15.86" y="20.68" width="2" height="2" transform="translate(-10.4 18.27) rotate(-45)"/><rect class="cls-9" x="16.18" y="21" width="1.36" height="1.36" transform="translate(-10.4 18.27) rotate(-45)"/><rect class="cls-13" x="16.44" y="21.27" width="0.83" height="0.83" transform="translate(-10.4 18.27) rotate(-45)"/><rect class="cls-16" x="24.18" y="20.43" width="2.68" height="2.68" transform="translate(-7.92 24.42) rotate(-45)"/><rect class="cls-17" x="24.53" y="20.77" width="2" height="2" transform="translate(-7.92 24.42) rotate(-45)"/><rect class="cls-9" x="24.84" y="21.09" width="1.36" height="1.36" transform="translate(-7.92 24.42) rotate(-45)"/><rect class="cls-13" x="25.11" y="21.35" width="0.83" height="0.83" transform="translate(-7.92 24.42) rotate(-45)"/><polygon class="cls-18" points="18.91 21 18.5 21.42 18.39 20.9 18.91 21"/><polygon class="cls-18" points="19.32 20.57 18.91 20.99 18.79 20.46 19.32 20.57"/><polygon class="cls-18" points="19.72 20.17 19.31 20.58 19.2 20.06 19.72 20.17"/><polygon class="cls-18" points="20.12 19.76 19.72 20.17 19.6 19.65 20.12 19.76"/><polygon class="cls-18" points="20.53 19.35 20.13 19.77 20.01 19.24 20.53 19.35"/><polygon class="cls-18" points="20.94 18.93 20.53 19.34 20.41 18.82 20.94 18.93"/><polygon class="cls-18" points="23.33 20.95 23.73 21.36 23.85 20.84 23.33 20.95"/><polygon class="cls-18" points="22.92 20.52 23.32 20.93 23.44 20.41 22.92 20.52"/><polygon class="cls-18" points="22.52 20.11 22.92 20.53 23.04 20.01 22.52 20.11"/><polygon class="cls-18" points="22.11 19.7 22.52 20.12 22.64 19.6 22.11 19.7"/><polygon class="cls-18" points="21.7 19.3 22.11 19.71 22.22 19.19 21.7 19.3"/><polygon class="cls-18" points="21.3 18.87 21.7 19.28 21.82 18.76 21.3 18.87"/><polygon class="cls-18" points="18.85 22.45 18.44 22.04 18.32 22.56 18.85 22.45"/><polygon class="cls-18" points="19.26 22.88 18.85 22.47 18.73 22.99 19.26 22.88"/><polygon class="cls-18" points="19.66 23.29 19.25 22.87 19.14 23.39 19.66 23.29"/><polygon class="cls-18" points="20.06 23.69 19.66 23.28 19.54 23.8 20.06 23.69"/><polygon class="cls-18" points="20.47 24.1 20.07 23.69 19.95 24.21 20.47 24.1"/><polygon class="cls-18" points="20.88 24.53 20.47 24.11 20.35 24.64 20.88 24.53"/><polygon class="cls-18" points="23.33 22.63 23.73 22.22 23.85 22.74 23.33 22.63"/><polygon class="cls-18" points="22.92 23.07 23.32 22.65 23.44 23.17 22.92 23.07"/><polygon class="cls-18" points="22.52 23.47 22.92 23.05 23.04 23.57 22.52 23.47"/><polygon class="cls-18" points="22.11 23.88 22.52 23.46 22.64 23.98 22.11 23.88"/><polygon class="cls-18" points="21.7 24.29 22.11 23.87 22.22 24.39 21.7 24.29"/><polygon class="cls-18" points="21.3 24.71 21.7 24.3 21.82 24.82 21.3 24.71"/><rect class="cls-19" x="18.46" y="12.29" width="5.41" height="5.41" transform="translate(-4.4 19.36) rotate(-45)"/><rect class="cls-10" x="19.06" y="12.89" width="4.21" height="4.21" transform="translate(-4.4 19.36) rotate(-45)"/><rect class="cls-20" x="19.5" y="13.32" width="3.33" height="3.33" transform="translate(-4.4 19.36) rotate(-45)"/><rect class="cls-20" x="19.5" y="13.32" width="3.33" height="3.33" transform="translate(-4.4 19.36) rotate(-45)"/><rect class="cls-10" x="19.96" y="13.79" width="2.4" height="2.4" transform="translate(-4.4 19.36) rotate(-45)"/><rect class="cls-13" x="20.38" y="14.2" width="1.58" height="1.58" transform="translate(-4.4 19.36) rotate(-45)"/><circle class="cls-20" cx="21.16" cy="14.99" r="0.42"/><polygon class="cls-5" points="13.39 17.65 13.39 12.3 15.36 14.97 13.39 17.65"/></g><path class="cls-21" d="M15,2.5A12.5,12.5,0,1,1,2.5,15,12.5,12.5,0,0,1,15,2.5M15,1A14,14,0,1,0,29,15,14,14,0,0,0,15,1Z"/></svg>