<svg id="Livello_1" data-name="Livello 1" xmlns="http://www.w3.org/2000/svg" xmlns:xlink="http://www.w3.org/1999/xlink" viewBox="0 0 30 30"><defs><style>.cls-1{fill:none;}.cls-2{clip-path:url(#clip-path);}.cls-3{fill:#d3cfcf;}.cls-4{fill:#63c0cf;}.cls-5{fill:#3f2d2d;}.cls-6{fill:#4aa4bb;}.cls-7{fill:#cf4940;}.cls-8{fill:#d93930;}.cls-9{fill:#5dbdcc;}.cls-10{fill:#71c9d1;}.cls-11{fill:#e3dbdc;}.cls-12{fill:#cdc9cb;}.cls-13{fill:#c0382f;}.cls-14{fill:#ad362e;}.cls-15{fill:#57b7c8;}.cls-16{fill:#692d28;}.cls-17{fill:#464345;}.cls-18{fill:#d2c0c1;}.cls-19{fill:#dae4e7;}.cls-20{fill:#2f363a;}.cls-21{fill:#30383b;}.cls-22{fill:#443737;}.cls-23{fill:#53a8be;}.cls-24{fill:#f78467;}.cls-25{fill:#8fced3;}.cls-26{fill:#3e3636;}.cls-27{fill:#dbe3e5;}.cls-28{fill:#c1d3d6;}.cls-29{fill:#bbdde0;}.cls-30{fill:#d45045;}.cls-31{fill:#2c3f44;}.cls-32{fill:#2e4247;}.cls-33{fill:#4ba7c0;}.cls-34{fill:#d05654;}.cls-35{fill:#68332f;}.cls-36{fill:#482826;}.cls-37{fill:#a6d0d4;}.cls-38{fill:#578992;}.cls-39{fill:#469db6;}.cls-40{fill:#f55c4c;}.cls-41{fill:#ec4033;}.cls-42{fill:#eb9583;}.cls-43{fill:#64b7cf;}.cls-44{fill:#ecd9d8;}.cls-45{fill:#ed4a39;}.cls-46{fill:#55b8ca;}.cls-47{fill:#506367;}.cls-48{fill:#506063;}.cls-49{fill:#60b5cc;}.cls-50{fill:#355f69;}.cls-51{fill:#558991;}.cls-52{fill:#f66250;}.cls-53{fill:#588891;}.cls-54{fill:#e3847c;}.cls-55{fill:#e0d1d1;}.cls-56{fill:#3b6e78;}.cls-57{fill:#f1c1ba;}.cls-58{fill:#d5dadc;}.cls-59{fill:#f7775d;}.cls-60{fill:#73c1d8;}.cls-61{fill:#e6a89f;}.cls-62{fill:#e0b8b6;}.cls-63{fill:#f0c8c3;}.cls-64{fill:#f15e47;}.cls-65{fill:#9e3f39;}.cls-66{fill:#3f9cb5;}.cls-67{fill:#9c413b;}.cls-68{fill:#b93c33;}.cls-69{fill:#e5afa9;}.cls-70{fill:#fb8166;}.cls-71{fill:#7d3630;}.cls-72{fill:#edb0a7;}.cls-73{fill:#7b3731;}.cls-74{fill:#ee5e47;}.cls-75{fill:#5dbccd;}.cls-76{fill:#70bfd7;}.cls-77{fill:#588f99;}.cls-78{fill:#6dbed6;}.cls-79{fill:#d1d1d1;}</style><clipPath id="clip-path"><circle class="cls-1" cx="15" cy="15" r="12.5"/></clipPath></defs><g class="cls-2"><g id="IMp4QX"><path class="cls-3" d="M-7.86,8.6l-.43-2.43A2.37,2.37,0,0,1-6.7,5.86c1.93,0,3.81.14,5.7.23,4.45.2,9,0,13.47.09q9,.3,17.91.67c1.57.06,3.15.07,4.71.15a3.84,3.84,0,0,1,1.31.2l.43,2.42a3.25,3.25,0,0,1-2.11.25c-7.46-.26-14.94-.47-22.42-.69C6.91,9,1.44,9.1-4,8.94A11.84,11.84,0,0,1-7.86,8.6Z"/><path class="cls-4" d="M-6.48,16.36l-.35-1.94a1.83,1.83,0,0,1,1.31-.34c4.68,0,9.37,0,14,.22a5.89,5.89,0,0,1,1.22.16,10.1,10.1,0,0,0,2.84.25c3,0,5.86.11,8.8.14a30.7,30.7,0,0,1,3.46,0c.49.06,1.18,0,1,.47s-.82.51-1.4.51c-3,0-5.88,0-8.82-.07a16.13,16.13,0,0,1-2.8-.07,45.69,45.69,0,0,0,5.47.1c2.37.08,4.75.14,7.17,0a1.73,1.73,0,0,1,.51,0c.36,0,.82.1.75.4s-.54.4-.93.43a5.24,5.24,0,0,0-1.92.29,53.72,53.72,0,0,1-6.94.08C9.7,17,2.52,16.74-4.69,16.62A4.27,4.27,0,0,1-6.48,16.36Z"/><path class="cls-5" d="M40.08,27.9l.2,1.14a5.36,5.36,0,0,1-2.74.52c-3.11.29-6.22.42-9.33.69-5.49.47-11,.77-16.44,1.14-4.8.32-9.58.54-14.35.72a2.37,2.37,0,0,1-1.15-.22l-.2-1.13a2.16,2.16,0,0,1,1.43-.4c5-.12,10.09-.39,15.15-.73,4.59-.31,9.17-.46,13.76-.92,4-.41,8-.55,12.07-.92A3.67,3.67,0,0,1,40.08,27.9Z"/><path class="cls-6" d="M37.41,12.86l.2,1.13a11.72,11.72,0,0,1-3.81.16c-5.17,0-10.34,0-15.47-.18-8-.21-15.94-.4-24-.46A2.71,2.71,0,0,1-7,13.29l-.2-1.13a3.17,3.17,0,0,1,1.86-.28c9.2,0,18.32.3,27.46.53q7.07.16,14.17.22A2.65,2.65,0,0,1,37.41,12.86Z"/><path class="cls-7" d="M-7.86,8.6c9.9.18,19.85.21,29.7.56,5,.18,10,.31,15,.46l.15.81a3.12,3.12,0,0,1-1.87.27c-8-.22-15.94-.4-23.88-.68C7.3,9.88,3.32,9.89-.65,9.87c-2,0-3.95.08-5.86-.09a5.27,5.27,0,0,1-1.18-.21Z"/><path class="cls-8" d="M-4.47,27.69l-.18-1a5.22,5.22,0,0,1,2.42-.3c5.73,0,11.54-.55,17.3-.81,2.85-.12,5.69-.23,8.53-.43,2.32-.17,4.67-.42,7-.7,2.09-.25,4.16-.47,6.22-.52.85,0,1.75-.39,2.54-.1l.17,1a2.71,2.71,0,0,1-1.67.5c-4,.27-8.07.66-12.11,1-9.25.81-18.45,1.24-27.64,1.54A6.44,6.44,0,0,1-4.47,27.69Z"/><path class="cls-9" d="M23.89,16.78c.24-.47.8-.31,1.23-.36a3.07,3.07,0,0,0,1.59-.31c-5.34-.13-10.63.13-15.65-.43,4.89-.34,9.61.15,14.52-.29a4.44,4.44,0,0,0-2.23-.34c-4.34.09-8.61-.08-12.89-.18a1.24,1.24,0,0,1-.89-.21,2.25,2.25,0,0,1,1.69-.28c4.38.14,8.81.1,13.21.18.21,0,.43,0,.65,0,2.9.12,5.83.13,8.78.07a23.19,23.19,0,0,1,3.85.21l.38,2.1a9.13,9.13,0,0,1-3.28.59c-2.25.17-4.44,0-6.68.15a1.33,1.33,0,0,1-1-.23c-.11-.2.07-.33.35-.43a.9.9,0,0,0,.22-.06c-.89,0-1.78.07-2.67.1C24.62,17,24.1,17.12,23.89,16.78Z"/><path class="cls-10" d="M27.21,17.35c3.13-.14,6.18.19,9.38-.33.5-.08,1-.08,1.54-.12l0,.33a9.8,9.8,0,0,1-3.69.47c-5.17.16-10.33.3-15.49.38-7.18.11-14.2-.29-21.34-.28-1.33,0-2.82.21-3.94-.31l-.2-1.13c3.19,0,6.4,0,9.58.11,6,.14,12.05.25,18.1.29l2.69,0,5.81-.1c-.86.45-1.47.23-2,.42a28,28,0,0,1-3.49.22A15.82,15.82,0,0,1,27.21,17.35Z"/><path class="cls-11" d="M36.4,7.2a55.63,55.63,0,0,1-6.6-.11C26,7,22.25,6.88,18.51,6.7c-4.71-.23-9.45-.35-14.25-.24C.43,6.54-3.23,6.18-7,6.13c-.42,0-.85,0-1.28,0l-.15-.81a5.89,5.89,0,0,1,2.77-.23c6.71.32,13.56.16,20.31.33,4.81.13,9.54.47,14.36.53,2.1,0,4.11.26,6.21.26a1.53,1.53,0,0,1,1.08.3Z"/><path class="cls-12" d="M-3.41,33.67l-.18-1a2.9,2.9,0,0,1,1.27-.24c9.41-.29,18.88-1,28.34-1.66,3.71-.27,7.42-.47,11.15-.92,1.07.05,2.24-.35,3.25,0l.09.48a5.91,5.91,0,0,1-3,.75c-3.32.34-6.65.6-10,.91-4.57.42-9.12.62-13.69,1-3.36.28-6.71.4-10.06.58-1.93.11-3.86.19-5.8.27A3.28,3.28,0,0,1-3.41,33.67Z"/><path class="cls-13" d="M-4.47,27.69l6.19-.23c6.54-.22,13.1-.62,19.67-1.06,4.36-.29,8.73-.78,13.09-1.14,1.68-.15,3.36-.15,5.05-.43l.12.65c-1.17.69-2.48.49-3.74.63-4.37.3-8.75.75-13.13,1.14-3.65.33-7.31.56-11,.72-4.66.21-9.32.4-14,.53a5.23,5.23,0,0,1-2.22-.17Z"/><path class="cls-14" d="M-4.36,28.33c3.48-.13,7-.22,10.44-.39,5.42-.27,10.84-.44,16.27-.94,4.54-.42,9.06-.69,13.6-1.19-.06.82-1.07.79-1.81.85-1.58.13-3.17.24-4.76.35-.5,0-.32.26-.53.34a8.62,8.62,0,0,1-2.55.42c-3.64.36-7.28.66-10.91.8-2.67.11-5.36.37-8,.47a17.78,17.78,0,0,1-3-.07c-.12-.39-.62-.27-1.09-.26a61.15,61.15,0,0,1-6.62.11,3,3,0,0,1-.93-.16Z"/><path class="cls-15" d="M-9.41-.14c-.12-.65-.68-1.47-.22-1.89s2-.42,3-.61l.52-.09c2-.08,4,0,6,.08a2.92,2.92,0,0,1,1.31.17.32.32,0,0,1,.14.21,1.47,1.47,0,0,1-.18.49c-.19.47-.4.93.53,1.09.3,0,.34.26.1.47C1.16.13.34-.12-.27.27a28.93,28.93,0,0,1-5.1,0C-6.3.23-7.23.17-8.15.13A2.73,2.73,0,0,1-9.41-.14Z"/><path class="cls-16" d="M4.28,28.8c3.28,0,6.6-.25,9.92-.45,2.46-.15,4.91-.23,7.37-.42s4.93-.47,7.39-.71a11.31,11.31,0,0,1,3.59-.45c1.94-.11,3.9-.47,5.82-.44a2.25,2.25,0,0,1,1.48.28l0,.16a2.77,2.77,0,0,1-1.67.46c-3.18.29-6.34.35-9.53.73a3.71,3.71,0,0,0-1.22.31,102.65,102.65,0,0,1-12.8.9,8.46,8.46,0,0,0-.88.1,52.1,52.1,0,0,1-7.86.41,4.19,4.19,0,0,0-1.69-.15c-2.49.19-4.95.17-7.44.29a2.43,2.43,0,0,1-.92-.19l-.09-.49c.95-.51,1.85-.16,2.77-.24,1.6-.13,3.19-.13,4.79-.22A1.52,1.52,0,0,1,4.28,28.8Z"/><path class="cls-17" d="M-5.62,21.22l-.12-.65a4.71,4.71,0,0,1,2.5-.24c5.32.07,10.64.12,16,.12,3.45,0,7-.27,10.46-.41,4.71-.2,9.4-.28,14.14-.75a1.63,1.63,0,0,1,1.24.2l.06.33a3,3,0,0,1-1.43.44c-2.14.4-4.24.24-6.36.51-6.63.2-13.3.62-19.89.7q-7.79.09-15.5-.1A3.1,3.1,0,0,1-5.62,21.22Z"/><path class="cls-18" d="M-3.73,31.89c14.23-.47,28.53-1.6,42.83-2.73L40.28,29l.06.32c-.46.45-1.13.39-1.74.48-2.6.32-5.2.43-7.8.64q-9.63.75-19.25,1.35-7.14.45-14.26.71a2.21,2.21,0,0,1-.93-.16Z"/><path class="cls-19" d="M-6,19l-.09-.48a2.18,2.18,0,0,1,1.56-.32c7.33.06,14.59.36,22,.28,4.23,0,8.51-.26,12.74-.31,2.24,0,4.48-.32,6.72-.4a3.52,3.52,0,0,1,1.44.15l.06.33a2.49,2.49,0,0,1-1.56.41c-8.93.61-17.8.83-26.6.81-5,0-10.06-.13-15.09-.21A2.42,2.42,0,0,1-6,19Z"/><path class="cls-20" d="M37.12,11.24l.06.33a2.7,2.7,0,0,1-1.84.27c-5.28-.09-10.55-.23-15.82-.36C11.41,11.27,3.31,11-4.88,11c-.91,0-1.95.15-2.61-.34l-.08-.48a1.34,1.34,0,0,1,1-.22c4.91.17,9.89.06,14.81.21q10.16.29,20.33.55c2.38.06,4.77.08,7.14.16A2.34,2.34,0,0,1,37.12,11.24Z"/><path class="cls-21" d="M35.86,4.12l.08.49a2.15,2.15,0,0,1-1.58.28C28,4.66,21.58,4.4,15.18,4.17,10.61,4,5.92,4.2,1.36,4c-3-.12-6-.2-9-.32a2.61,2.61,0,0,1-1.13-.26l-.09-.48a1.67,1.67,0,0,1,1.21-.2c1.78,0,3.53.14,5.32.15,4.4.13,8.77.35,13.24.28,5.55-.09,10.94.31,16.41.48,2.24.08,4.49.13,6.72.25A7.65,7.65,0,0,1,35.86,4.12Z"/><path class="cls-22" d="M36,4.93l.09.49a4.13,4.13,0,0,1-1.9.26C28.84,5.38,23.4,5.31,18.05,5c-1.8-.1-3.66.1-5.46,0a6.89,6.89,0,0,1-1.23-.1c-2.57-.23-5.28,0-7.89-.09-3.6-.16-7.23-.27-10.89-.28a2.45,2.45,0,0,1-1.22-.31l-.08-.49a9.94,9.94,0,0,1,3.64-.06C1.59,4,8.35,4,15.1,4.05c2.9,0,5.75.23,8.63.36,3.67.16,7.38.2,11,.41A5.42,5.42,0,0,1,36,4.93Z"/><path class="cls-23" d="M35.54,2.34l.09.49a2,2,0,0,1-1.5.16,8.2,8.2,0,0,0-2.94-.12,6.7,6.7,0,0,1-1.41,0c-4.9-.09-9.7-.47-14.6-.57-4.3-.08-8.65,0-12.92-.15a4.52,4.52,0,0,1-1-.08,4.74,4.74,0,0,0-1.64-.3c-.38,0-.83-.09-.7-.41s.59-.36,1-.37c1,0,2,0,3,.07,3.57.17,7.23.06,10.82.19,6.52,0,12.92.44,19.36.71A8.39,8.39,0,0,1,35.54,2.34Z"/><path class="cls-24" d="M-5,24.61-5.13,24a2,2,0,0,1,1.42-.4c5.15.09,10.36-.06,15.57-.31,4.83-.23,9.66-.48,14.48-.62a6.66,6.66,0,0,0,1.4-.11c.42-.05.89-.14,1,.22-.51.5-1.42.39-2,.73a31,31,0,0,1-5.31.41c-5.21.16-10.45.46-15.68.71-3.11.15-6.21.23-9.27.18A4.6,4.6,0,0,1-5,24.61Z"/><path class="cls-25" d="M38.3,17.87c-6.09.53-12.1.56-18.12.72-8.55.24-16.93-.13-25.38-.22a5.63,5.63,0,0,0-.91.1L-6.2,18c1.18-.57,2.29-.23,3.38-.22,5.76,0,11.48.26,17.24.29s11.47-.19,17.22-.3c2.19-.05,4.4-.39,6.57-.36Z"/><path class="cls-26" d="M-7.69,9.57l5.11,0q10.2.08,20.33.38c6.23.19,12.47.33,18.71.49l.52,0,.08.49A11,11,0,0,1,34,11c-6.88-.13-13.75-.32-20.62-.53-5.5-.17-11-.19-16.58-.3a16.86,16.86,0,0,1-4.47-.26Z"/><path class="cls-27" d="M-5.88,19.76-6,19.27a7.38,7.38,0,0,1,2.42-.13c6.66.05,13.25.36,20,.18,5.83-.14,11.64-.18,17.53-.64a35.45,35.45,0,0,1,4.48-.16l.06.32a2.67,2.67,0,0,1-1.68.5c-4.15.24-8.31.48-12.44.56-4.34.08-8.73.4-13,.35C5.94,20.19.55,20.2-4.81,20.07A1.62,1.62,0,0,1-5.88,19.76Z"/><path class="cls-28" d="M-5.88,19.76c6.75.16,13.51.3,20.33.18,5.45-.09,10.91-.2,16.39-.53a58.12,58.12,0,0,0,7.63-.57l.11.65c-2.14.15-4.29.27-6.44.45-3,.27-6,.24-9,.33.07-.09.21-.12.31-.17s-.09,0-.14,0c-5.48.3-10.94.54-16.32.38-3.78-.12-7.62,0-11.41-.11a6,6,0,0,1-1.36-.11Z"/><path class="cls-29" d="M38.21,17.39a61.1,61.1,0,0,1-6.59.51c-4.84.06-9.72.31-14.56.34-5.83,0-11.58-.19-17.38-.23L-6.2,18l-.08-.49c5,.07,10.07.12,15.08.27s10.08.09,15.16,0c4.72-.09,9.46-.21,14.22-.52Z"/><path class="cls-30" d="M36.17,5.9l.06.33a4.47,4.47,0,0,1-2.13.12C30.4,6,26.56,6.1,22.82,5.89c-4.66-.25-9.35-.45-14.11-.4-3.85,0-7.66-.06-11.47-.16-1.9,0-3.81-.07-5.7-.13l-.09-.49c.44-.39,1-.23,1.45-.22,3.91,0,7.79.18,11.67.31,1.86.06,3.76-.07,5.63-.07,3.14.3,6.47,0,9.62.28,4.25.34,8.64.25,12.9.54a13.56,13.56,0,0,0,2.3,0A1.45,1.45,0,0,1,36.17,5.9Z"/><path class="cls-31" d="M37.24,11.89l0,.32a2.29,2.29,0,0,1-1.69.34c-6-.11-12-.26-18-.37-7-.13-13.91-.48-21-.37-1.33,0-2.82.22-3.94-.3L-7.43,11c2.17-.17,4.25,0,6.37,0,10.21,0,20.28.45,30.43.64C32,11.71,34.68,11.61,37.24,11.89Z"/><path class="cls-32" d="M-8.92,2.61-9,2.13A3,3,0,0,1-7.24,2c1.75.15,3.58,0,5.33.19,4.85.22,9.74.37,14.67.3,4-.05,7.81.26,11.72.37,2.76.07,5.5.18,8.26.27.73,0,1.44.06,2.14.13a3.19,3.19,0,0,1,.86.24l.09.48a44.49,44.49,0,0,1-5.31-.12c-5.74-.1-11.35-.56-17.12-.57C8.28,3.27,3.18,3.21-1.87,3-4.22,2.86-6.66,3-8.92,2.61Z"/><path class="cls-33" d="M-6.91,13.94-7,13.61a16.71,16.71,0,0,1,4.56-.14c6.15,0,12.23.24,18.35.35s12.42.26,18.67.24a7.9,7.9,0,0,1,3.06.26l0,.32a41.75,41.75,0,0,1-5.24.07c-2.4,0-4.79,0-7.15-.06-6.23,0-12.43-.11-18.6-.35-4-.15-8-.14-12-.16A3.67,3.67,0,0,1-6.91,13.94Z"/><path class="cls-34" d="M-3.64,32.38c9.44-.33,18.92-1,28.41-1.64,4.19-.3,8.4-.71,12.58-.86.38,0,.77-.13,1.16-.19-.24.5-.83.35-1.31.42-3,.41-6,.51-9,.74-10.37.81-20.74,1.53-31.06,1.88-.25,0-.5,0-.76,0Z"/><path class="cls-35" d="M40.08,27.9l-7.78.56c-4.92.37-9.85.8-14.76,1.11-6.78.42-13.57.92-20.3,1-.38,0-.78.1-1.17.15L-4,30.27a4.65,4.65,0,0,1,2.14-.33c4.83-.18,9.63-.25,14.48-.57s9.64-.48,14.47-1c4-.47,8-.56,12.07-1a1.94,1.94,0,0,1,.85.09Z"/><path class="cls-36" d="M40,27.42c-3,.51-5.87.49-8.81.73-4.49.38-9,.78-13.48,1.08-7.26.48-14.5.84-21.72,1L-4.07,30a.85.85,0,0,1,.44-.2c3.21,0,6.48-.36,9.66-.27l7.23-.32A.75.75,0,0,0,14,28.8a.27.27,0,0,1,.37-.15c1.52.66,3.41.16,5.14.08,2.67-.12,5.36-.39,8-.6a5.11,5.11,0,0,1,2.51-.4c3.23-.26,6.45-.48,9.67-.68a.46.46,0,0,1,.23.05Z"/><path class="cls-37" d="M38.41,18.52c-2.95.36-5.88.47-8.8.58-5,.19-10.09.4-15.1.42-5.87,0-11.7-.12-17.54-.19-1,0-2,0-2.94-.06L-6,19c5.62.08,11.25.17,16.88.23,7.08.07,14.27-.34,21.4-.5,2-.05,4.06-.32,6.1-.48Z"/><path class="cls-38" d="M37.24,11.89c-4.58,0-9.13-.08-13.68-.18C15,11.5,6.5,11.21-2.09,11.17A39.37,39.37,0,0,1-7.43,11l-.06-.32c5.15.25,10.42.07,15.6.22q11.13.33,22.3.57c2.25,0,4.47.2,6.77.08Z"/><path class="cls-39" d="M13.69,1.57C8.89,1.42,4,1.49-.8,1.33c.57.45,1.73.08,2.22.58C.54,2.42-.25,2-1.1,2.1-3.3,2-5.48,1.94-7.67,1.85A4.09,4.09,0,0,1-9.1,1.64L-9.3.51A6.45,6.45,0,0,1-6.17.34c5.44.15,10.8.51,16.3.5a10.37,10.37,0,0,1,3.65.34A.32.32,0,0,1,13.69,1.57Z"/><path class="cls-40" d="M39.36,23.86c-2.26.52-4.49.31-6.74.64-2.77.41-5.54.53-8.31.85-2.5.29-5,.29-7.5.43-3.46.2-6.92.46-10.37.61-3.7.15-7.42.37-11.09.33l0-.33A2.28,2.28,0,0,1-3.15,26c7.18.07,14.47-.55,21.71-.87,3.92-.18,7.87-.43,11.8-.94,2.53-.33,5-.5,7.53-.64a3.05,3.05,0,0,1,1.44.16Z"/><path class="cls-41" d="M39.33,23.7c-5.77.12-11.6,1.19-17.39,1.45-8.49.39-17,1.17-25.48,1.09a9.7,9.7,0,0,0-1.16.15l-.06-.32a2.1,2.1,0,0,1,1.43-.4c6.62.07,13.36-.52,20-.85,2.68-.13,5.35-.22,8-.42,3-.22,6-.61,9-.93a26.39,26.39,0,0,1,5.52-.26Z"/><path class="cls-42" d="M38.84,21l0,.16a3.39,3.39,0,0,1-1.93.56c-2.42.24-4.83.69-7.26.84a10.65,10.65,0,0,0-2.44.18c-2.28.1-4.54.13-6.82.22-5.27.21-10.58.58-15.83.65-3,.05-6,.07-9,.08a2.05,2.05,0,0,1-.81-.16L-5.31,23a6.71,6.71,0,0,1,3-.25c4.88,0,9.76,0,14.69-.22,4.58-.23,9.16-.44,13.72-.57.43,0,.85,0,1.28,0,3-.4,6-.42,8.93-1A4.83,4.83,0,0,1,38.84,21Z"/><path class="cls-43" d="M37.67,14.32C22.76,14.19,8,13.68-7,13.61L-7,13.29c6.08-.06,12.09.15,18.12.25,5.82.1,11.6.34,17.46.3,3,0,6,.1,9.06.15Z"/><path class="cls-44" d="M-5.42,22.35l-.09-.49a2.77,2.77,0,0,1,1.84-.28c5.09,0,10.17.14,15.29,0,5.6-.14,11.24-.51,16.83-.6a26,26,0,0,0,3.12-.28,13.71,13.71,0,0,1,1.92,0c.61.09.78.27.09.59a23.5,23.5,0,0,1-3.72.4,79.93,79.93,0,0,1-8,.35c-3.05.11-6.12.3-9.17.43-4,.17-8,0-12.06.09-1.58,0-3.17,0-4.74,0A4.1,4.1,0,0,1-5.42,22.35Z"/><path class="cls-45" d="M-4.85,25.58l-.06-.32A6.4,6.4,0,0,1-2.25,25q4.17-.07,8.36-.24c3.49-.15,7-.44,10.49-.56,3-.1,5.94-.21,8.93-.44,2.38-.18,4.77-.48,7.15-.81,1.87-.26,3.72-.31,5.59-.45a1.75,1.75,0,0,1,.89.22l.06.32a9.72,9.72,0,0,1-2.81.3c-3.34.18-6.67.74-10,1.07-2,.2-4,.23-6,.33-5,.25-9.92.55-14.87.79-3.23.16-6.44.26-9.63.23A2.09,2.09,0,0,1-4.85,25.58Z"/><path class="cls-46" d="M34.94-1l.43,2.42a1.61,1.61,0,0,1-1.2.24c-1.36-.1-2.68-.26-4-.44A3.42,3.42,0,0,0,28.51.83c-.5-.06-1.12,0-1.42-.31,0-.14.05-.26.19-.39.52-.45.92-.88.16-1.28-.22-.11,0-.29.2-.41a1.84,1.84,0,0,1,.74-.14c.74.07,1.48.13,2.22.22.32,0,.83,0,.85.23.08.65.92.53,1.55.62.08.11.22-.1.1,0s-.06,0-.11,0c-.43-.31-.14-.5.4-.58A2.82,2.82,0,0,1,34.94-1Z"/><path class="cls-47" d="M36,4.93c-2.74.15-5.34-.14-8-.24-7.92-.31-15.84-.57-23.86-.57-4.06,0-8.06-.25-12.09-.38-.26,0-.52,0-.77,0l-.06-.32c4.79.14,9.55.43,14.38.4,9.29-.06,18.36.53,27.55.74a12.35,12.35,0,0,0,2.79.05Z"/><path class="cls-48" d="M-7.63,9.89c4.19.27,8.51.11,12.75.21l21,.56,10.93.26.06.32c-4.08-.1-8.16-.19-12.23-.3-4.45-.12-8.89-.26-13.35-.36-4.11-.1-8.24-.16-12.36-.23l-6.75-.13Z"/><path class="cls-49" d="M13.63,1.25C10.31,1,6.84,1.15,3.48,1-.76.8-5,.67-9.3.51l0-.32a10.91,10.91,0,0,1,3.6,0C-4,.21-2.25.31-.46.28A56.86,56.86,0,0,1,5.25.45C9.12.51,13,.5,16.87.57,19.93.62,22.9.92,26,1a31.52,31.52,0,0,1,5.27.29c.43.08,1,.05.5.53a23.91,23.91,0,0,1-4.06,0c-3.91.06-7.64-.43-11.53-.45A8.05,8.05,0,0,1,13.63,1.25Z"/><path class="cls-50" d="M37.41,12.86c-9.17,0-18.25-.28-27.35-.51q-8.61-.21-17.29-.19l-.06-.33a9,9,0,0,1,3-.15c9.31,0,18.56.32,27.82.55,4.3.11,8.62.12,12.92.23a2.43,2.43,0,0,1,.86.08Z"/><path class="cls-51" d="M37.35,12.54c-2.22,0-4.46,0-6.67,0-9.11-.19-18.22-.43-27.33-.62-3.53-.08-7.09-.06-10.64-.08l0-.32c11.82,0,23.53.41,35.28.66,3.1.07,6.18.22,9.35,0Z"/><path class="cls-52" d="M-4.85,25.58c8.24.06,16.6-.62,24.9-.93,4.5-.17,9-.66,13.48-1.23,1.89-.24,3.79-.25,5.69-.37l0,.16c-2,.41-4.05.31-6.09.56-3.37.42-6.76.87-10.12,1-8,.32-16.16,1-24.19,1.18a16.15,16.15,0,0,0-3.6.12Z"/><path class="cls-53" d="M-1.89,2.85C-.06,2.9,1.76,3,3.59,3c4.82.07,9.7,0,14.47.21C24,3.47,30,3.52,35.83,4l0,.16A61.47,61.47,0,0,1,29.62,4c-6.7-.11-13.25-.68-20-.55-4.06.08-8-.14-12-.3C-2.48,2.82-2.21,2.81-1.89,2.85Z"/><path class="cls-54" d="M-8.46,5.2a28.85,28.85,0,0,1,5.73,0c5.45.26,11,0,16.49.2,6.36.21,12.69.49,19,.74,1.14,0,2.29,0,3.44.08l.06.32C30,6.31,23.66,6.08,17.36,5.82,12.62,5.62,7.81,5.66,3,5.63c-3.84,0-7.64-.18-11.46-.27Z"/><path class="cls-33" d="M31.67,1.7a3.84,3.84,0,0,0-2.28-.39C21.78,1.15,14.31.6,6.6.74,4.22.78,1.89.55-.47.44-.44.29-.3.18-.11.1A3.11,3.11,0,0,1,1.42,0C7.24.25,13.16.18,19,.24A7.87,7.87,0,0,1,21.5.47C24,.62,26.63.62,29.15.8A2.67,2.67,0,0,1,30.2,1c1.75.09,3.37.46,5.17.41l.06.33c-.61.41-1.33.16-2,.35C32.83,2,32,2.24,31.67,1.7Z"/><path class="cls-55" d="M-5.62,21.22c2.6-.18,5.15-.09,7.68,0,8.28.2,16.69-.28,25.06-.54l3.61-.1c.1.07.1.16,0,.24a19.3,19.3,0,0,1-4.88.36c-4.27.08-8.56.32-12.84.53-3.3.16-6.51,0-9.77,0-2.48,0-5,.1-7.44,0a4.55,4.55,0,0,1-1.35-.14Z"/><path class="cls-56" d="M-1,1.88l2.43,0c4.12.19,8.31.18,12.5.18,5.35,0,10.5.53,15.84.57a7.86,7.86,0,0,0,1.53-.05c1,.11,2,0,3,.16l1.37.06.11.65a1.38,1.38,0,0,1-.83,0,16.17,16.17,0,0,0-4.33-.33c-6.5-.14-12.87-.66-19.44-.6-3.72,0-7.4-.08-11.06-.23-.41,0-.9.07-1.16-.19A.2.2,0,0,1-1,1.88Z"/><path class="cls-57" d="M-5.22,23.48c3.65,0,7.29-.07,10.94-.13,6.69-.11,13.47-.67,20.17-.76l1.15,0c0,.41-.44.28-.75.3-4.15.16-8.29.25-12.44.5-6.07.36-12.09.48-18.08.47a4.77,4.77,0,0,0-.9.13Z"/><path class="cls-58" d="M-5.79,20.25a41.52,41.52,0,0,1,6-.05c7.93,0,15.81.28,24-.33-.34.36-.77.26-1.07.4-1.94.09-3.89.2-5.82.28-7.38.32-14.6,0-21.89,0H-5.74Z"/><path class="cls-59" d="M39.16,22.73a79.72,79.72,0,0,0-8.95.79c-3.22.42-6.41.68-9.6.8-4.74.18-9.48.4-14.23.73A2,2,0,0,1,6,25a.93.93,0,0,1,.63-.44c2.51-.31,5-.36,7.49-.48,3.79-.17,7.58-.33,11.37-.46,1.1,0,2.23-.4,3.36-.45,3.07-.33,6.14-.88,9.22-1a2.54,2.54,0,0,1,1,.08Z"/><path class="cls-60" d="M-6.91,13.94c10.83,0,21.46.57,32.27.57.09.14.06.22-.22.21a33,33,0,0,1-4.09.06c-3.49,0-7-.11-10.45-.16-.34,0-.68,0-1,0-3.4-.29-6.89-.29-10.39-.29a48.31,48.31,0,0,0-6,.05Z"/><path class="cls-61" d="M-5.42,22.35c3.69,0,7.4-.13,11.06-.08,4.74.07,9.54-.24,14.34-.46,2.41-.11,4.82-.14,7.23-.2a13.38,13.38,0,0,0,2.59-.21c-.16.59-.95.4-1.44.59-2.37.15-4.72.16-7.08.24-3.39.1-6.81.36-10.2.46-5.1.15-10.17.14-15.23.12a4.67,4.67,0,0,1-1.21-.14Z"/><path class="cls-62" d="M-5.57,21.54c5.47,0,10.93.14,16.42.08,3.63,0,7.33-.33,11-.48,2.33-.1,4.65-.16,7-.21a10.67,10.67,0,0,0,2-.21,1.72,1.72,0,0,1,.86-.08c.22.05.48.16,0,.28a71.12,71.12,0,0,1-9.18.47c-4.51.11-9.08.54-13.56.52l-13.46-.1c-.29,0-.6,0-.9.05Z"/><path class="cls-63" d="M-5.36,22.67c3.76,0,7.53-.06,11.28,0,5.47,0,11-.48,16.53-.6,1.93,0,3.87-.13,5.81-.2-.12.47-.6.33-1,.35-5.06.12-10.14.36-15.22.6C6.21,23.07.46,23-5.31,23Z"/><path class="cls-64" d="M28.82,23.4c-2.37.33-4.72.39-7.08.49-4.76.2-9.53.45-14.3.69-.3,0-.6.09-.9.13a76,76,0,0,1-8.23.3A14.21,14.21,0,0,1-5,24.94L-5,24.61a23.05,23.05,0,0,1,4-.1c7,0,14.11-.66,21.13-.86,2.19-.06,4.37-.12,6.58-.37a7.51,7.51,0,0,1,2.93-.3C29.61,23.33,29,23.19,28.82,23.4Z"/><path class="cls-65" d="M36.17,5.9c-2.65-.12-5.28-.31-8-.33-4,0-7.84-.35-11.78-.49-2.07-.08-4.21.07-6.21-.21a2.22,2.22,0,0,1,1.29-.24A11.45,11.45,0,0,0,15,4.74c2.94-.16,5.67.18,8.5.26,4.2.11,8.38.27,12.57.42Z"/><path class="cls-66" d="M31.67,1.7a4.84,4.84,0,0,0,1.92.15,3.82,3.82,0,0,1,1.9.17l0,.32a37.4,37.4,0,0,1-4.76-.22c-5.73-.07-11.3-.65-17.09-.55l-.06-.32a67.16,67.16,0,0,1,8.77.17Z"/><path class="cls-67" d="M11.51,4.63l-1.29.24c-5.09.34-10,0-14.94-.14-1.27,0-2.55,0-3.83,0l-.09-.48c6.65.1,13.22.49,19.94.34A.73.73,0,0,1,11.51,4.63Z"/><path class="cls-68" d="M39.85,26.61c-3.18,0-6.41.36-9.62.56a4.54,4.54,0,0,1-1.27,0L28.17,27A49.87,49.87,0,0,1,34,26.42c.71-.06,1.5,0,1.93-.61l3.7-.33Z"/><path class="cls-69" d="M27.26,22.19c.35-.09.76-.08,1-.35.51-.14,1.12-.08,1.54-.44l3.7-.33a23.08,23.08,0,0,1,2.88-.64,6.12,6.12,0,0,1,2.38,0l.08.49-11,1.28A3.08,3.08,0,0,1,27.26,22.19Z"/><path class="cls-59" d="M29.58,23.1c-1-.12-2,.22-2.92.18a6.72,6.72,0,0,1,2.06-.53,2.6,2.6,0,0,1,1.46-.4c2.5-.12,5-.68,7.48-.87a2.3,2.3,0,0,1,1.3.12l.08.48a6.27,6.27,0,0,1-2.39.24c-2,.2-4,.5-6.06.76A3.12,3.12,0,0,1,29.58,23.1Z"/><path class="cls-70" d="M-5,24.94a10.2,10.2,0,0,1,2.69-.14c2.94-.05,5.87-.06,8.81-.09L6,25c-3.67.23-7.31.3-10.94.28Z"/><path class="cls-13" d="M4.28,28.8c-2.85.21-5.69.36-8.5.34l-.08-.48c1-.33,1.92,0,2.9,0,2-.1,3.88-.14,5.82-.21.25,0,.54-.09.67.1C4.9,28.76,4.55,28.71,4.28,28.8Z"/><path class="cls-71" d="M39.93,27.1c-3.11.4-6.2.47-9.3.74l-3.11.29c-.3-.46.37-.38.64-.4,3.3-.27,6.61-.53,9.91-.75a15.67,15.67,0,0,0,1.81-.21Z"/><path class="cls-72" d="M39,21.6a46,46,0,0,0-5.83.57c-1.47.14-2.94.38-4.41.58-.77-.21-1.66.34-2.43.12.27-.07.59-.1.75-.3,3.09-.44,6.18-.57,9.27-1.1.83-.14,1.71-.22,2.56-.36Z"/><path class="cls-4" d="M25.14,14.72l.22-.21,12.36.13,0,.16a33,33,0,0,1-5,0A60.61,60.61,0,0,1,25.14,14.72Z"/><path class="cls-73" d="M6,29.48c-2.11.27-4.17.19-6.26.33-1.29.08-2.56.1-3.84.14l-.06-.32c3-.24,6-.11,9.05-.41A1.49,1.49,0,0,1,6,29.48Z"/><path class="cls-74" d="M29.58,23.1a74.11,74.11,0,0,1,9.46-1l0,.16c-2.94.36-5.88.52-8.82,1-.47.08-.95.1-1.43.15A1.33,1.33,0,0,1,29.58,23.1Z"/><path class="cls-4" d="M27.21,17.35l-3.71.16c-.3,0-.71.06-.68-.19s.45-.2.71-.2l4.17,0Z"/><path class="cls-75" d="M21.32.7A13,13,0,0,0,19.11.44,62.53,62.53,0,0,0,12.52.29C9.39.16,6.2.26,3.09.1,2.6.07,1.88.2,1.82-.31c-.09-.07-.16-.19-.29-.21C.2-.73.07-1.43,1.22-2.2a2.41,2.41,0,0,1,1.71-.32c5.64.32,11.41.22,17.08.4,2.32.07,4.61.26,6.91.41.32,0,.73,0,.72.29l-.07.08c-.21.45,1.58-.16.78.74A7,7,0,0,1,27.17.5c-.42.34-.9.17-1.33.18C24.33.7,22.86.55,21.32.7Z"/><path class="cls-76" d="M1.82-.31A36.62,36.62,0,0,0,8.24,0c3.39.09,6.81.1,10.22.16.27,0,.77-.13.65.25L9.54.42C6.82.4,4.1.4,1.44.2.9.16.33.21-.22.21A.78.78,0,0,0-.27.07C.35-.46,1.13-.13,1.82-.31Z"/><path class="cls-77" d="M-2,2.38l0-.18L-1,2a22.55,22.55,0,0,0,4.14.23c5.4.12,10.84.15,16.23.31,5,.14,10,.41,15,.62a2.35,2.35,0,0,1,.73.07c.24.1-.08.15-.19.21-8.7-.26-17.29-.87-26.11-.77C5.15,2.75,1.59,2.54-2,2.38Z"/><path class="cls-78" d="M21.32.7c.06-.46.5-.28.84-.28l5,.08,2.65.16c.26,0,.7-.05.38.3C27.23.92,24.25.88,21.32.7Z"/></g></g><path class="cls-79" d="M15,2.5A12.5,12.5,0,1,1,2.5,15,12.5,12.5,0,0,1,15,2.5M15,1A14,14,0,1,0,29,15,14,14,0,0,0,15,1Z"/></svg>