<svg id="Livello_1" data-name="Livello 1" xmlns="http://www.w3.org/2000/svg" xmlns:xlink="http://www.w3.org/1999/xlink" viewBox="0 0 30 30"><defs><style>.cls-1{fill:none;}.cls-2{clip-path:url(#clip-path);}.cls-3{fill:#a7c9ae;}.cls-4{fill:#39ddc4;}.cls-5{fill:#fff;}.cls-6{fill:#d1d1d1;}</style><clipPath id="clip-path"><circle class="cls-1" cx="15" cy="15" r="12.5"/></clipPath></defs><g class="cls-2"><rect x="2.5" y="2.5" width="25" height="25"/><polygon class="cls-3" points="6.25 5.38 6.25 3.62 5 2.73 3.75 3.62 3.75 5.38 5 6.27 6.25 5.38"/><polygon class="cls-4" points="6.25 10.38 6.25 8.62 5 7.73 3.75 8.62 3.75 10.38 5 11.27 6.25 10.38"/><polygon class="cls-4" points="11.25 5.38 11.25 3.62 10 2.73 8.75 3.62 8.75 5.38 10 6.27 11.25 5.38"/><polygon class="cls-3" points="11.25 10.38 11.25 8.62 10 7.73 8.75 8.62 8.75 10.38 10 11.27 11.25 10.38"/><path class="cls-5" d="M7.5,7.61,6.44,6.86,7.5,6.11l1.06.75Z"/><path class="cls-5" d="M12.5,7.61l-1.06-.75,1.06-.75,1.06.75Z"/><polygon class="cls-3" points="16.25 5.38 16.25 3.62 15 2.73 13.75 3.62 13.75 5.38 15 6.27 16.25 5.38"/><polygon class="cls-4" points="16.25 10.38 16.25 8.62 15 7.73 13.75 8.62 13.75 10.38 15 11.27 16.25 10.38"/><polygon class="cls-4" points="21.25 5.38 21.25 3.62 20 2.73 18.75 3.62 18.75 5.38 20 6.27 21.25 5.38"/><polygon class="cls-3" points="21.25 10.38 21.25 8.62 20 7.73 18.75 8.62 18.75 10.38 20 11.27 21.25 10.38"/><polygon class="cls-3" points="26.25 5.38 26.25 3.62 25 2.73 23.75 3.62 23.75 5.38 25 6.27 26.25 5.38"/><polygon class="cls-3" points="6.25 26.39 6.25 24.61 5 23.73 3.75 24.61 3.75 26.39 5 27.27 6.25 26.39"/><polygon class="cls-4" points="11.25 26.39 11.25 24.61 10 23.73 8.75 24.61 8.75 26.39 10 27.27 11.25 26.39"/><polygon class="cls-3" points="16.25 26.39 16.25 24.61 15 23.73 13.75 24.61 13.75 26.39 15 27.27 16.25 26.39"/><polygon class="cls-4" points="21.25 26.39 21.25 24.61 20 23.73 18.75 24.61 18.75 26.39 20 27.27 21.25 26.39"/><polygon class="cls-3" points="26.25 26.39 26.25 24.61 25 23.73 23.75 24.61 23.75 26.39 25 27.27 26.25 26.39"/><polygon class="cls-4" points="26.25 10.38 26.25 8.62 25 7.73 23.75 8.62 23.75 10.38 25 11.27 26.25 10.38"/><path class="cls-5" d="M17.5,7.61l-1.06-.75,1.06-.75,1.06.75Z"/><path class="cls-5" d="M22.5,7.61l-1.06-.75,1.06-.75,1.06.75Z"/><path class="cls-5" d="M7.5,13.11l-1.06-.75,1.06-.75,1.06.75Z"/><path class="cls-5" d="M12.5,13.11l-1.06-.75,1.06-.75,1.06.75Z"/><path class="cls-5" d="M17.5,13.11l-1.06-.75,1.06-.75,1.06.75Z"/><path class="cls-5" d="M22.5,13.11l-1.06-.75,1.06-.75,1.06.75Z"/><polygon class="cls-3" points="6.25 15.88 6.25 14.12 5 13.23 3.75 14.12 3.75 15.88 5 16.77 6.25 15.88"/><polygon class="cls-4" points="6.25 20.89 6.25 19.11 5 18.23 3.75 19.11 3.75 20.89 5 21.77 6.25 20.89"/><polygon class="cls-4" points="11.25 15.88 11.25 14.12 10 13.23 8.75 14.12 8.75 15.88 10 16.77 11.25 15.88"/><polygon class="cls-3" points="11.25 20.89 11.25 19.11 10 18.23 8.75 19.11 8.75 20.89 10 21.77 11.25 20.89"/><path class="cls-5" d="M7.5,18.11l-1.06-.75,1.06-.75,1.06.75Z"/><path class="cls-5" d="M12.5,18.11l-1.06-.75,1.06-.75,1.06.75Z"/><polygon class="cls-3" points="16.25 15.88 16.25 14.12 15 13.23 13.75 14.12 13.75 15.88 15 16.77 16.25 15.88"/><polygon class="cls-4" points="16.25 20.89 16.25 19.11 15 18.23 13.75 19.11 13.75 20.89 15 21.77 16.25 20.89"/><polygon class="cls-4" points="21.25 15.88 21.25 14.12 20 13.23 18.75 14.12 18.75 15.88 20 16.77 21.25 15.88"/><polygon class="cls-3" points="21.25 20.89 21.25 19.11 20 18.23 18.75 19.11 18.75 20.89 20 21.77 21.25 20.89"/><polygon class="cls-3" points="26.25 15.88 26.25 14.12 25 13.23 23.75 14.12 23.75 15.88 25 16.77 26.25 15.88"/><polygon class="cls-4" points="26.25 20.89 26.25 19.11 25 18.23 23.75 19.11 23.75 20.89 25 21.77 26.25 20.89"/><path class="cls-5" d="M17.5,18.11l-1.06-.75,1.06-.75,1.06.75Z"/><path class="cls-5" d="M22.5,18.11l-1.06-.75,1.06-.75,1.06.75Z"/><path class="cls-5" d="M7.5,23.61l-1.06-.75,1.06-.75,1.06.75Z"/><path class="cls-5" d="M12.5,23.61l-1.06-.75,1.06-.75,1.06.75Z"/><path class="cls-5" d="M17.5,23.61l-1.06-.75,1.06-.75,1.06.75Z"/><path class="cls-5" d="M22.5,23.61l-1.06-.75,1.06-.75,1.06.75Z"/></g><path class="cls-6" d="M15,2.5A12.5,12.5,0,1,1,2.5,15,12.5,12.5,0,0,1,15,2.5M15,1A14,14,0,1,0,29,15,14,14,0,0,0,15,1Z"/></svg>