<svg id="Livello_1" data-name="Livello 1" xmlns="http://www.w3.org/2000/svg" xmlns:xlink="http://www.w3.org/1999/xlink" viewBox="0 0 30 30"><defs><style>.cls-1{fill:none;}.cls-2{clip-path:url(#clip-path);}.cls-3{fill:#333;}.cls-4{fill:#d1d1d1;}</style><clipPath id="clip-path"><circle class="cls-1" cx="15" cy="15" r="12.5"/></clipPath></defs><g class="cls-2"><rect x="0.5" y="0.5" width="29" height="29"/><polygon class="cls-3" points="6 9.29 8.18 16 15.23 16 9.53 20.15 11.71 26.85 6 22.71 0.29 26.85 2.47 20.15 -3.23 16 3.82 16 6 9.29"/><polygon class="cls-3" points="15 16.36 16.51 21 21.39 21 17.44 23.87 18.95 28.51 15 25.64 11.05 28.51 12.56 23.87 8.62 21 13.49 21 15 16.36"/><polygon class="cls-3" points="15 8.48 15.24 9.21 16 9.21 15.38 9.66 15.62 10.38 15 9.94 14.38 10.38 14.62 9.66 14 9.21 14.76 9.21 15 8.48"/><polygon class="cls-3" points="19 8.3 19.55 10 21.34 10 19.89 11.05 20.45 12.75 19 11.7 17.55 12.75 18.11 11.05 16.66 10 18.45 10 19 8.3"/><polygon class="cls-3" points="23 10.84 23.38 12 24.6 12 23.61 12.72 23.99 13.88 23 13.16 22.01 13.88 22.39 12.72 21.4 12 22.62 12 23 10.84"/><polygon class="cls-3" points="21 14.41 21.24 15.14 22 15.14 21.38 15.59 21.62 16.31 21 15.86 20.38 16.31 20.62 15.59 20 15.14 20.76 15.14 21 14.41"/></g><path class="cls-4" d="M15,2.5A12.5,12.5,0,1,1,2.5,15,12.5,12.5,0,0,1,15,2.5M15,1A14,14,0,1,0,29,15,14,14,0,0,0,15,1Z"/></svg>