<svg id="Livello_1" data-name="Livello 1" xmlns="http://www.w3.org/2000/svg" xmlns:xlink="http://www.w3.org/1999/xlink" viewBox="0 0 30 30"><defs><style>.cls-1{fill:none;}.cls-2{clip-path:url(#clip-path);}.cls-3{fill:#bb0f31;}.cls-4{stroke:#fff;stroke-width:5px;}.cls-4,.cls-5{stroke-miterlimit:40;}.cls-5{stroke:#042867;stroke-width:3.75px;}.cls-6{fill:#fff;}.cls-7{fill:#d1d1d1;}</style><clipPath id="clip-path"><circle class="cls-1" cx="15" cy="15" r="12.5"/></clipPath></defs><g class="cls-2"><rect class="cls-3" x="-5.86" y="2.51" width="41.67" height="25"/><path class="cls-4" d="M-5.86,2.51l41.67,25m-41.67,0,41.67-25"/><path class="cls-5" d="M-5.86,2.51l41.67,25m-41.67,0,41.67-25"/><g id="s6"><path id="s" class="cls-6" d="M3.86,7.09,4.6,9.35,2.67,8H5.05L3.13,9.35Z"/><path id="s-2" data-name="s" class="cls-6" d="M9.42,10.43l.73,2.26-1.92-1.4h2.38l-1.93,1.4Z"/><path id="s-3" data-name="s" class="cls-6" d="M20.53,17.09l.73,2.26L19.34,18h2.38l-1.93,1.39Z"/><path id="s-4" data-name="s" class="cls-6" d="M26.08,20.43l.74,2.26-1.92-1.4h2.37l-1.92,1.4Z"/></g><g id="s6-2" data-name="s6"><path id="s-5" data-name="s" class="cls-6" d="M26.08,7.09l-.73,2.26L27.27,8H24.9l1.92,1.39Z"/><path id="s-6" data-name="s" class="cls-6" d="M20.53,10.43l-.74,2.26,1.93-1.4H19.34l1.92,1.4Z"/><path id="s-7" data-name="s" class="cls-6" d="M9.42,17.09l-.74,2.26L10.61,18H8.23l1.92,1.39Z"/><path id="s-8" data-name="s" class="cls-6" d="M3.86,20.43l-.73,2.26,1.92-1.4H2.67l1.93,1.4Z"/></g><path id="s-9" data-name="s" class="cls-6" d="M15,13.76,15.71,16l-1.93-1.4h2.38L14.24,16Z"/></g><path class="cls-7" d="M15,2.5A12.5,12.5,0,1,1,2.5,15,12.5,12.5,0,0,1,15,2.5M15,1A14,14,0,1,0,29,15,14,14,0,0,0,15,1Z"/></svg>