<?xml version="1.0" encoding="UTF-8"?>
<svg id="Livello_1" data-name="Livello 1" xmlns="http://www.w3.org/2000/svg" xmlns:xlink="http://www.w3.org/1999/xlink" viewBox="0 0 30 30">
  <defs>
    <style>
      .cls-1 {
        fill: none;
      }

      .cls-2 {
        clip-path: url(#clippath);
      }

      .cls-3 {
        fill: #ece5d3;
      }

      .cls-4 {
        fill: #d1d1d1;
      }

      .cls-5 {
        fill: #e089bd;
      }

      .cls-6 {
        fill: #072144;
      }
    </style>
    <clipPath id="clippath">
      <circle class="cls-1" cx="-185" cy="-135" r="12.5"/>
    </clipPath>
  </defs>
  <g class="cls-2">
    <rect class="cls-3" x="-888.08" y="-707.96" width="1500" height="1000"/>
  </g>
  <path class="cls-4" d="m15,2.5c6.9,0,12.5,5.6,12.5,12.5s-5.6,12.5-12.5,12.5S2.5,21.9,2.5,15,8.1,2.5,15,2.5m0-1.5C7.28,1,1,7.28,1,15s6.28,14,14,14,14-6.28,14-14S22.72,1,15,1h0Z"/>
  <g>
    <path class="cls-4" d="m15,2.5c6.9,0,12.5,5.6,12.5,12.5s-5.6,12.5-12.5,12.5S2.5,21.9,2.5,15,8.1,2.5,15,2.5m0-1.5C7.28,1,1,7.28,1,15s6.28,14,14,14,14-6.28,14-14S22.72,1,15,1h0Z"/>
    <path class="cls-6" d="m6.16,23.84C1.28,18.96,1.28,11.04,6.16,6.16c4.88-4.88,12.8-4.88,17.68,0L6.16,23.84Z"/>
    <path class="cls-5" d="m6.16,23.84c4.88,4.88,12.8,4.88,17.68,0s4.88-12.8,0-17.68L6.16,23.84Z"/>
  </g>
</svg>