<svg id="Livello_1" data-name="Livello 1" xmlns="http://www.w3.org/2000/svg" viewBox="0 0 30 30"><defs><style>.cls-1{fill:none;stroke:#000;stroke-miterlimit:10;stroke-width:0.5px;}.cls-2{fill:#d1d1d1;}</style></defs><circle class="cls-1" cx="15" cy="15" r="12.5"/><path d="M12,13.44H10.93V17h-.86V13.44H9v-.71h3Z"/><path d="M14.17,16.12H13l-.22.87h-.92l1.34-4.26H14L15.32,17H14.4Zm-1-.72H14l-.4-1.52Z"/><path d="M16.58,16.28h1.51V17H15.72V12.73h.86Z"/><path d="M19.45,16.28H21V17H18.59V12.73h.86Z"/><path class="cls-2" d="M15,2.5A12.5,12.5,0,1,1,2.5,15,12.5,12.5,0,0,1,15,2.5M15,1A14,14,0,1,0,29,15,14,14,0,0,0,15,1Z"/></svg>