<?xml version="1.0" encoding="UTF-8"?>
<svg id="Livello_1" data-name="Livello 1" xmlns="http://www.w3.org/2000/svg" xmlns:xlink="http://www.w3.org/1999/xlink" viewBox="0 0 30 30">
  <defs>
    <style>
      .cls-1 {
        fill: none;
      }

      .cls-2 {
        clip-path: url(#clippath);
      }

      .cls-3 {
        fill: #fff;
      }

      .cls-4 {
        fill: #31af9a;
      }

      .cls-5 {
        fill: #c30000;
      }

      .cls-6 {
        fill: #d1d1d1;
      }

      .cls-7 {
        fill: #184c42;
      }

      .cls-8 {
        opacity: .3;
      }
    </style>
    <clipPath id="clippath">
      <circle class="cls-1" cx="15" cy="15" r="12.5"/>
    </clipPath>
  </defs>
  <path class="cls-6" d="m15,2.5c6.9,0,12.5,5.6,12.5,12.5s-5.6,12.5-12.5,12.5S2.5,21.9,2.5,15,8.1,2.5,15,2.5m0-1.5C7.28,1,1,7.28,1,15s6.28,14,14,14,14-6.28,14-14S22.72,1,15,1h0Z"/>
  <g class="cls-2">
    <circle class="cls-4" cx="15" cy="15" r="12.5"/>
    <circle class="cls-1" cx="15" cy="15" r="12.5"/>
    <polygon class="cls-7" points="13.29 13.39 13.66 13.22 14.68 13.54 13.66 13.85 13.29 13.63 13.29 13.39"/>
    <polyline class="cls-7" points="14.91 15.05 14.77 14.65 14.07 15.05 14.68 14.34 14.07 14.74 14.29 14.34 14.07 14.43 14.07 14.04 14.95 13.73 15.88 14.06 15.88 14.43 15.66 14.34 15.88 14.74 15.3 14.39 15.88 15.05 15.17 14.65 15.08 15.05 14.99 15.32"/>
    <polygon class="cls-3" points="14.68 14.2 14.97 13.85 15.25 14.2 14.97 14.59 14.68 14.2"/>
    <polyline class="cls-7" points="15.03 11.97 15.16 12.37 15.87 11.97 15.25 12.68 15.87 12.28 15.65 12.68 15.87 12.59 15.87 12.98 14.99 13.3 14.06 12.96 14.06 12.59 14.28 12.68 14.06 12.28 14.63 12.63 14.06 11.97 14.76 12.37 14.85 11.97 14.94 11.71"/>
    <polygon class="cls-3" points="15.25 12.83 14.96 13.17 14.69 12.82 14.96 12.44 15.25 12.83"/>
    <polygon class="cls-7" points="16.79 13.74 16.41 13.91 15.39 13.58 16.41 13.28 16.79 13.5 16.79 13.74"/>
    <g>
      <polygon class="cls-3" points="10.62 17.96 12.29 19.2 10.62 20.54 10.62 17.96"/>
      <polygon class="cls-3" points="11.17 17.52 13.4 19.19 11.17 20.98 11.17 17.52"/>
      <polygon class="cls-3" points="11.78 17.01 14.66 19.17 11.78 21.48 11.78 17.01"/>
      <polygon class="cls-3" points="12.61 16.38 16.3 19.15 12.61 22.11 12.61 16.38"/>
      <polygon class="cls-3" points="13.22 15.75 17.68 19.1 13.22 22.68 13.22 15.75"/>
      <polygon class="cls-3" points="13.74 15.25 18.85 19.08 13.74 23.18 13.74 15.25"/>
      <polygon class="cls-3" points="14.46 15 18.85 19.07 14.46 23.43 14.46 15"/>
      <polygon class="cls-3" points="19.38 17.87 17.71 19.12 19.38 20.45 19.38 17.87"/>
      <polygon class="cls-3" points="18.83 17.43 16.6 19.11 18.83 20.89 18.83 17.43"/>
      <polygon class="cls-3" points="18.22 16.93 15.34 19.09 18.22 21.4 18.22 16.93"/>
      <polygon class="cls-3" points="17.39 16.3 13.7 19.07 17.39 22.03 17.39 16.3"/>
      <polygon class="cls-3" points="16.78 15.67 12.32 19.02 16.78 22.59 16.78 15.67"/>
      <polygon class="cls-3" points="16.26 15.17 11.15 19 16.26 23.1 16.26 15.17"/>
      <polygon class="cls-3" points="15.54 14.92 11.15 18.99 15.54 23.35 15.54 14.92"/>
    </g>
    <g>
      <polygon class="cls-3" points="10.59 6.66 12.25 7.91 10.59 9.24 10.59 6.66"/>
      <polygon class="cls-3" points="11.14 6.22 13.37 7.89 11.14 9.68 11.14 6.22"/>
      <polygon class="cls-3" points="11.74 5.72 14.62 7.88 11.74 10.18 11.74 5.72"/>
      <polygon class="cls-3" points="12.57 5.09 16.26 7.86 12.57 10.81 12.57 5.09"/>
      <polygon class="cls-3" points="13.18 4.46 17.64 7.8 13.18 11.38 13.18 4.46"/>
      <polygon class="cls-3" points="13.71 3.96 18.82 7.79 13.71 11.88 13.71 3.96"/>
      <polygon class="cls-3" points="14.42 3.7 18.82 7.78 14.42 12.14 14.42 3.7"/>
      <polygon class="cls-3" points="19.34 6.58 17.68 7.83 19.34 9.16 19.34 6.58"/>
      <polygon class="cls-3" points="18.79 6.14 16.56 7.81 18.79 9.6 18.79 6.14"/>
      <polygon class="cls-3" points="18.18 5.63 15.3 7.79 18.18 10.1 18.18 5.63"/>
      <polygon class="cls-3" points="17.35 5.01 13.66 7.77 17.35 10.73 17.35 5.01"/>
      <polygon class="cls-3" points="16.74 4.38 12.28 7.72 16.74 11.3 16.74 4.38"/>
      <polygon class="cls-3" points="16.22 3.87 11.11 7.7 16.22 11.8 16.22 3.87"/>
      <polygon class="cls-3" points="15.5 3.62 11.11 7.7 15.5 12.05 15.5 3.62"/>
    </g>
    <polygon class="cls-7" points="7.49 19.12 7.86 18.95 8.88 19.28 7.86 19.59 7.49 19.36 7.49 19.12"/>
    <polyline class="cls-7" points="9.11 20.79 8.98 20.39 8.27 20.79 8.89 20.08 8.27 20.48 8.49 20.08 8.27 20.17 8.27 19.78 9.15 19.46 10.08 19.79 10.08 20.17 9.86 20.08 10.08 20.48 9.51 20.12 10.08 20.79 9.37 20.39 9.29 20.79 9.2 21.05"/>
    <polygon class="cls-5" points="8.88 19.93 9.18 19.59 9.45 19.94 9.18 20.32 8.88 19.93"/>
    <polyline class="cls-7" points="9.23 17.71 9.37 18.11 10.07 17.71 9.45 18.41 10.07 18.02 9.85 18.41 10.07 18.33 10.07 18.71 9.19 19.03 8.26 18.7 8.26 18.33 8.48 18.41 8.26 18.02 8.84 18.37 8.26 17.71 8.97 18.11 9.06 17.71 9.14 17.44"/>
    <polygon class="cls-5" points="9.46 18.56 9.17 18.91 8.89 18.56 9.17 18.17 9.46 18.56"/>
    <rect class="cls-7" x="13.23" y="18.14" width="3.61" height="2.28" transform="translate(30.07 38.56) rotate(-180)"/>
    <polygon class="cls-3" points="14.1 19.53 14.1 19.05 14.32 19.05 14.32 18.82 14.57 18.82 14.57 18.57 14.8 18.57 14.8 18.34 15.28 18.34 15.28 18.57 15.53 18.57 15.53 18.82 15.76 18.82 15.76 19.05 16.01 19.05 16.01 19.53 15.76 19.53 15.76 19.78 15.53 19.78 15.53 20 15.28 20 15.28 20.26 14.8 20.26 14.8 20 14.57 20 14.57 19.78 14.32 19.78 14.32 19.53 14.1 19.53"/>
    <polygon class="cls-5" points="14.22 19.5 14.22 19.08 14.42 19.08 14.42 18.89 14.64 18.89 14.64 18.67 14.83 18.67 14.83 18.47 15.25 18.47 15.25 18.67 15.47 18.67 15.47 18.89 15.66 18.89 15.66 19.08 15.88 19.08 15.88 19.5 15.66 19.5 15.66 19.71 15.47 19.71 15.47 19.91 15.25 19.91 15.25 20.13 14.83 20.13 14.83 19.91 14.64 19.91 14.64 19.71 14.42 19.71 14.42 19.5 14.22 19.5"/>
    <polygon class="cls-4" points="14.66 19.39 14.66 19.2 14.75 19.2 14.75 19.1 14.85 19.1 14.85 19 14.95 19 14.95 18.91 15.15 18.91 15.15 19 15.25 19 15.25 19.1 15.34 19.1 15.34 19.2 15.45 19.2 15.45 19.39 15.34 19.39 15.34 19.5 15.25 19.5 15.25 19.59 15.15 19.59 15.15 19.69 14.95 19.69 14.95 19.59 14.85 19.59 14.85 19.5 14.75 19.5 14.75 19.39 14.66 19.39"/>
    <polygon class="cls-3" points="14.81 19.36 14.81 19.24 14.86 19.24 14.86 19.18 14.93 19.18 14.93 19.11 14.99 19.11 14.99 19.05 15.11 19.05 15.11 19.11 15.17 19.11 15.17 19.18 15.23 19.18 15.23 19.24 15.3 19.24 15.3 19.36 15.23 19.36 15.23 19.42 15.17 19.42 15.17 19.48 15.11 19.48 15.11 19.55 14.99 19.55 14.99 19.48 14.93 19.48 14.93 19.42 14.86 19.42 14.86 19.36 14.81 19.36"/>
    <rect class="cls-5" x="15.76" y="19.84" width=".54" height=".54"/>
    <rect class="cls-5" x="15.76" y="18.22" width=".54" height=".54"/>
    <rect class="cls-5" x="13.78" y="19.82" width=".54" height=".54"/>
    <rect class="cls-5" x="13.78" y="18.2" width=".54" height=".54"/>
    <rect class="cls-5" x="13.23" y="18.74" width=".54" height="1.07"/>
    <rect class="cls-5" x="16.3" y="18.76" width=".54" height="1.07"/>
    <rect class="cls-3" x="16.34" y="18.82" width=".16" height=".96" transform="translate(32.85 38.6) rotate(-180)"/>
    <rect class="cls-4" x="16.53" y="18.82" width=".16" height=".96" transform="translate(33.23 38.6) rotate(-180)"/>
    <rect class="cls-3" x="13.58" y="18.8" width=".16" height=".96"/>
    <rect class="cls-4" x="13.38" y="18.8" width=".16" height=".96"/>
    <rect class="cls-7" x="14.81" y="20.42" width=".49" height=".54"/>
    <rect class="cls-7" x="14.81" y="17.6" width=".49" height=".54"/>
    <rect class="cls-7" x="15.78" y="20.42" width=".49" height=".54"/>
    <polygon class="cls-7" points="13.23 20.42 10.62 19.32 13.23 18.14 13.23 20.42"/>
    <rect class="cls-7" x="13.8" y="20.42" width=".49" height=".54"/>
    <rect class="cls-7" x="15.78" y="17.6" width=".49" height=".54"/>
    <rect class="cls-7" x="13.85" y="17.6" width=".49" height=".54"/>
    <polygon class="cls-5" points="13.23 19.93 13.23 18.66 11.83 19.3 13.23 19.93"/>
    <polygon class="cls-7" points="13.19 19.24 13.19 18.78 12.2 19.22 13.19 19.24"/>
    <polyline class="cls-7" points="12.2 19.33 13.19 19.32 13.19 19.77"/>
    <polygon class="cls-7" points="16.84 18.14 19.46 19.24 16.84 20.42 16.84 18.14"/>
    <polygon class="cls-5" points="16.84 19.93 16.84 18.67 18.24 19.31 16.84 19.93"/>
    <polygon class="cls-7" points="16.89 19.34 16.89 19.79 17.88 19.35 16.89 19.34"/>
    <polyline class="cls-7" points="17.88 19.24 16.89 19.26 16.89 18.81"/>
    <polygon class="cls-7" points="10.99 19.47 10.62 19.65 9.6 19.32 10.62 19.01 10.99 19.24 10.99 19.47"/>
    <g>
      <polygon class="cls-3" points="-1.19 18.12 .47 19.37 -1.19 20.7 -1.19 18.12"/>
      <polygon class="cls-3" points="-.64 17.68 1.59 19.36 -.64 21.14 -.64 17.68"/>
      <polygon class="cls-3" points="-.04 17.18 2.84 19.34 -.04 21.65 -.04 17.18"/>
      <polygon class="cls-3" points=".79 16.55 4.48 19.32 .79 22.28 .79 16.55"/>
      <polygon class="cls-3" points="1.4 15.92 5.87 19.27 1.4 22.84 1.4 15.92"/>
      <polygon class="cls-3" points="1.93 15.42 7.04 19.25 1.93 23.35 1.93 15.42"/>
      <polygon class="cls-3" points="2.65 15.17 7.04 19.24 2.65 23.6 2.65 15.17"/>
      <polygon class="cls-3" points="7.56 18.04 5.9 19.29 7.56 20.62 7.56 18.04"/>
      <polygon class="cls-3" points="7.01 17.6 4.78 19.27 7.01 21.06 7.01 17.6"/>
      <polygon class="cls-3" points="6.4 17.1 3.52 19.26 6.4 21.56 6.4 17.1"/>
      <polygon class="cls-3" points="5.57 16.47 1.88 19.23 5.57 22.19 5.57 16.47"/>
      <polygon class="cls-3" points="4.96 15.84 .5 19.18 4.96 22.76 4.96 15.84"/>
      <polygon class="cls-3" points="4.44 15.33 -.67 19.17 4.44 23.26 4.44 15.33"/>
      <polygon class="cls-3" points="3.72 15.08 -.67 19.16 3.72 23.51 3.72 15.08"/>
    </g>
    <rect class="cls-7" x="1.64" y="18.18" width="3.61" height="2.28"/>
    <polygon class="cls-3" points="4.39 19.07 4.39 19.55 4.16 19.55 4.16 19.78 3.91 19.78 3.91 20.03 3.68 20.03 3.68 20.26 3.2 20.26 3.2 20.03 2.95 20.03 2.95 19.78 2.72 19.78 2.72 19.55 2.47 19.55 2.47 19.07 2.72 19.07 2.72 18.82 2.95 18.82 2.95 18.6 3.2 18.6 3.2 18.34 3.68 18.34 3.68 18.6 3.91 18.6 3.91 18.82 4.16 18.82 4.16 19.07 4.39 19.07"/>
    <polygon class="cls-5" points="4.26 19.1 4.26 19.52 4.06 19.52 4.06 19.71 3.84 19.71 3.84 19.93 3.65 19.93 3.65 20.13 3.23 20.13 3.23 19.93 3.02 19.93 3.02 19.71 2.82 19.71 2.82 19.52 2.6 19.52 2.6 19.1 2.82 19.1 2.82 18.89 3.02 18.89 3.02 18.69 3.23 18.69 3.23 18.47 3.65 18.47 3.65 18.69 3.84 18.69 3.84 18.89 4.06 18.89 4.06 19.1 4.26 19.1"/>
    <polygon class="cls-4" points="3.82 19.21 3.82 19.4 3.73 19.4 3.73 19.5 3.63 19.5 3.63 19.6 3.53 19.6 3.53 19.69 3.34 19.69 3.34 19.6 3.23 19.6 3.23 19.5 3.14 19.5 3.14 19.4 3.04 19.4 3.04 19.21 3.14 19.21 3.14 19.1 3.23 19.1 3.23 19.01 3.34 19.01 3.34 18.91 3.53 18.91 3.53 19.01 3.63 19.01 3.63 19.1 3.73 19.1 3.73 19.21 3.82 19.21"/>
    <polygon class="cls-3" points="3.67 19.24 3.67 19.36 3.62 19.36 3.62 19.42 3.55 19.42 3.55 19.49 3.49 19.49 3.49 19.55 3.37 19.55 3.37 19.49 3.31 19.49 3.31 19.42 3.25 19.42 3.25 19.36 3.18 19.36 3.18 19.24 3.25 19.24 3.25 19.18 3.31 19.18 3.31 19.12 3.37 19.12 3.37 19.05 3.49 19.05 3.49 19.12 3.55 19.12 3.55 19.18 3.62 19.18 3.62 19.24 3.67 19.24"/>
    <rect class="cls-5" x="2.18" y="18.22" width=".54" height=".54"/>
    <rect class="cls-5" x="2.18" y="19.84" width=".54" height=".54"/>
    <rect class="cls-5" x="4.16" y="18.24" width=".54" height=".54"/>
    <rect class="cls-5" x="4.16" y="19.86" width=".54" height=".54"/>
    <rect class="cls-5" x="4.71" y="18.78" width=".54" height="1.07"/>
    <rect class="cls-5" x="1.64" y="18.76" width=".54" height="1.07"/>
    <rect class="cls-3" x="1.97" y="18.82" width=".16" height=".96"/>
    <rect class="cls-4" x="1.78" y="18.82" width=".16" height=".96"/>
    <rect class="cls-3" x="4.74" y="18.84" width=".16" height=".96" transform="translate(9.65 38.64) rotate(-180)"/>
    <rect class="cls-4" x="4.93" y="18.84" width=".16" height=".96" transform="translate(10.03 38.64) rotate(-180)"/>
    <rect class="cls-7" x="3.18" y="17.64" width=".49" height=".54"/>
    <rect class="cls-7" x="3.18" y="20.46" width=".49" height=".54"/>
    <rect class="cls-7" x="2.21" y="17.64" width=".49" height=".54"/>
    <polygon class="cls-7" points="5.25 18.18 7.86 19.28 5.25 20.46 5.25 18.18"/>
    <rect class="cls-7" x="4.19" y="17.64" width=".49" height=".54"/>
    <rect class="cls-7" x="2.21" y="20.46" width=".49" height=".54"/>
    <rect class="cls-7" x="4.14" y="20.46" width=".49" height=".54"/>
    <polygon class="cls-5" points="5.25 18.67 5.25 19.94 6.65 19.3 5.25 18.67"/>
    <polygon class="cls-7" points="5.29 19.36 5.29 19.82 6.28 19.38 5.29 19.36"/>
    <polyline class="cls-7" points="6.28 19.27 5.29 19.28 5.29 18.83"/>
    <polygon class="cls-7" points="1.64 20.46 -.97 19.36 1.64 18.18 1.64 20.46"/>
    <polygon class="cls-5" points="1.64 18.67 1.64 19.93 .24 19.29 1.64 18.67"/>
    <polygon class="cls-7" points="1.59 19.26 1.59 18.81 .6 19.24 1.59 19.26"/>
    <polyline class="cls-7" points=".6 19.35 1.59 19.34 1.59 19.79"/>
    <g class="cls-8">
      <polygon class="cls-7" points="4.74 12.29 6.41 13.53 4.74 14.87 4.74 12.29"/>
      <polygon class="cls-7" points="5.29 11.85 7.52 13.52 5.29 15.31 5.29 11.85"/>
      <polygon class="cls-7" points="5.9 11.34 8.78 13.5 5.9 15.81 5.9 11.34"/>
      <polygon class="cls-7" points="6.73 10.71 10.42 13.48 6.73 16.44 6.73 10.71"/>
      <polygon class="cls-7" points="7.34 10.08 11.8 13.43 7.34 17 7.34 10.08"/>
      <polygon class="cls-7" points="7.86 9.58 12.97 13.41 7.86 17.51 7.86 9.58"/>
      <polygon class="cls-7" points="8.58 9.33 12.97 13.4 8.58 17.76 8.58 9.33"/>
      <polygon class="cls-7" points="13.49 12.2 11.83 13.45 13.49 14.78 13.49 12.2"/>
      <polygon class="cls-7" points="12.95 11.76 10.72 13.44 12.95 15.22 12.95 11.76"/>
      <polygon class="cls-7" points="12.34 11.26 9.46 13.42 12.34 15.73 12.34 11.26"/>
      <polygon class="cls-7" points="11.51 10.63 7.82 13.4 11.51 16.36 11.51 10.63"/>
      <polygon class="cls-7" points="10.9 10 6.44 13.35 10.9 16.92 10.9 10"/>
      <polygon class="cls-7" points="10.37 9.5 5.26 13.33 10.37 17.43 10.37 9.5"/>
      <polygon class="cls-7" points="9.66 9.25 5.26 13.32 9.66 17.68 9.66 9.25"/>
    </g>
    <rect class="cls-7" x="8.98" y="11.9" width=".49" height=".54"/>
    <rect class="cls-7" x="8" y="11.9" width=".49" height=".54"/>
    <rect class="cls-7" x="9.99" y="11.9" width=".49" height=".54"/>
    <rect class="cls-7" x="7.44" y="12.44" width="3.61" height="2.28"/>
    <polygon class="cls-3" points="10.18 13.34 10.18 13.82 9.96 13.82 9.96 14.04 9.7 14.04 9.7 14.29 9.48 14.29 9.48 14.52 9 14.52 9 14.29 8.75 14.29 8.75 14.04 8.52 14.04 8.52 13.82 8.27 13.82 8.27 13.34 8.52 13.34 8.52 13.09 8.75 13.09 8.75 12.86 9 12.86 9 12.61 9.48 12.61 9.48 12.86 9.7 12.86 9.7 13.09 9.96 13.09 9.96 13.34 10.18 13.34"/>
    <polygon class="cls-5" points="10.05 13.37 10.05 13.78 9.86 13.78 9.86 13.98 9.64 13.98 9.64 14.2 9.44 14.2 9.44 14.39 9.03 14.39 9.03 14.2 8.81 14.2 8.81 13.98 8.62 13.98 8.62 13.78 8.4 13.78 8.4 13.37 8.62 13.37 8.62 13.15 8.81 13.15 8.81 12.95 9.03 12.95 9.03 12.74 9.44 12.74 9.44 12.95 9.64 12.95 9.64 13.15 9.86 13.15 9.86 13.37 10.05 13.37"/>
    <polygon class="cls-4" points="9.62 13.47 9.62 13.67 9.53 13.67 9.53 13.76 9.42 13.76 9.42 13.86 9.33 13.86 9.33 13.96 9.13 13.96 9.13 13.86 9.03 13.86 9.03 13.76 8.94 13.76 8.94 13.67 8.83 13.67 8.83 13.47 8.94 13.47 8.94 13.37 9.03 13.37 9.03 13.27 9.13 13.27 9.13 13.17 9.33 13.17 9.33 13.27 9.42 13.27 9.42 13.37 9.53 13.37 9.53 13.47 9.62 13.47"/>
    <polygon class="cls-3" points="9.47 13.51 9.47 13.63 9.41 13.63 9.41 13.69 9.35 13.69 9.35 13.75 9.29 13.75 9.29 13.81 9.17 13.81 9.17 13.75 9.1 13.75 9.1 13.69 9.04 13.69 9.04 13.63 8.98 13.63 8.98 13.51 9.04 13.51 9.04 13.44 9.1 13.44 9.1 13.38 9.17 13.38 9.17 13.32 9.29 13.32 9.29 13.38 9.35 13.38 9.35 13.44 9.41 13.44 9.41 13.51 9.47 13.51"/>
    <rect class="cls-5" x="7.98" y="12.48" width=".54" height=".54"/>
    <rect class="cls-5" x="7.98" y="14.1" width=".54" height=".54"/>
    <rect class="cls-5" x="9.96" y="12.5" width=".54" height=".54"/>
    <rect class="cls-5" x="9.96" y="14.12" width=".54" height=".54"/>
    <rect class="cls-5" x="10.5" y="13.05" width=".54" height="1.07"/>
    <rect class="cls-5" x="7.44" y="13.03" width=".54" height="1.07"/>
    <rect class="cls-3" x="7.77" y="13.09" width=".16" height=".96"/>
    <rect class="cls-4" x="7.58" y="13.09" width=".16" height=".96"/>
    <rect class="cls-3" x="10.54" y="13.11" width=".16" height=".96" transform="translate(21.24 27.17) rotate(-180)"/>
    <rect class="cls-4" x="10.73" y="13.11" width=".16" height=".96" transform="translate(21.62 27.17) rotate(-180)"/>
    <rect class="cls-7" x="8.98" y="14.72" width=".49" height=".54"/>
    <polygon class="cls-7" points="11.04 12.44 13.66 13.54 11.04 14.72 11.04 12.44"/>
    <rect class="cls-7" x="8" y="14.72" width=".49" height=".54"/>
    <rect class="cls-7" x="9.94" y="14.72" width=".49" height=".54"/>
    <polygon class="cls-5" points="11.04 12.94 11.04 14.2 12.44 13.56 11.04 12.94"/>
    <polygon class="cls-7" points="11.09 13.63 11.09 14.08 12.08 13.64 11.09 13.63"/>
    <polyline class="cls-7" points="12.08 13.53 11.09 13.54 11.09 13.09"/>
    <polygon class="cls-7" points="7.44 14.72 4.82 13.62 7.44 12.44 7.44 14.72"/>
    <polygon class="cls-5" points="7.44 12.93 7.44 14.2 6.04 13.56 7.44 12.93"/>
    <polygon class="cls-7" points="7.39 13.52 7.39 13.07 6.4 13.51 7.39 13.52"/>
    <polyline class="cls-7" points="6.4 13.62 7.39 13.6 7.39 14.06"/>
    <g class="cls-8">
      <polygon class="cls-7" points="16.72 12.35 18.38 13.59 16.72 14.93 16.72 12.35"/>
      <polygon class="cls-7" points="17.27 11.91 19.5 13.58 17.27 15.37 17.27 11.91"/>
      <polygon class="cls-7" points="17.87 11.4 20.75 13.56 17.87 15.87 17.87 11.4"/>
      <polygon class="cls-7" points="18.7 10.77 22.39 13.54 18.7 16.5 18.7 10.77"/>
      <polygon class="cls-7" points="19.31 10.15 23.78 13.49 19.31 17.07 19.31 10.15"/>
      <polygon class="cls-7" points="19.84 9.64 24.95 13.47 19.84 17.57 19.84 9.64"/>
      <polygon class="cls-7" points="20.55 9.39 24.95 13.46 20.55 17.82 20.55 9.39"/>
      <polygon class="cls-7" points="25.47 12.26 23.81 13.51 25.47 14.84 25.47 12.26"/>
      <polygon class="cls-7" points="24.92 11.82 22.69 13.5 24.92 15.28 24.92 11.82"/>
      <polygon class="cls-7" points="24.31 11.32 21.43 13.48 24.31 15.79 24.31 11.32"/>
      <polygon class="cls-7" points="23.48 10.69 19.79 13.46 23.48 16.42 23.48 10.69"/>
      <polygon class="cls-7" points="22.87 10.06 18.41 13.41 22.87 16.98 22.87 10.06"/>
      <polygon class="cls-7" points="22.35 9.56 17.24 13.39 22.35 17.49 22.35 9.56"/>
      <polygon class="cls-7" points="21.63 9.31 17.24 13.38 21.63 17.74 21.63 9.31"/>
    </g>
    <rect class="cls-7" x="19.03" y="12.41" width="3.61" height="2.28" transform="translate(41.67 27.09) rotate(-180)"/>
    <polygon class="cls-3" points="19.89 13.79 19.89 13.31 20.12 13.31 20.12 13.09 20.37 13.09 20.37 12.83 20.6 12.83 20.6 12.61 21.07 12.61 21.07 12.83 21.33 12.83 21.33 13.09 21.55 13.09 21.55 13.31 21.8 13.31 21.8 13.79 21.55 13.79 21.55 14.04 21.33 14.04 21.33 14.27 21.07 14.27 21.07 14.52 20.6 14.52 20.6 14.27 20.37 14.27 20.37 14.04 20.12 14.04 20.12 13.79 19.89 13.79"/>
    <polygon class="cls-5" points="20.02 13.76 20.02 13.35 20.22 13.35 20.22 13.15 20.43 13.15 20.43 12.93 20.63 12.93 20.63 12.74 21.04 12.74 21.04 12.93 21.26 12.93 21.26 13.15 21.46 13.15 21.46 13.35 21.67 13.35 21.67 13.76 21.46 13.76 21.46 13.98 21.26 13.98 21.26 14.17 21.04 14.17 21.04 14.39 20.63 14.39 20.63 14.17 20.43 14.17 20.43 13.98 20.22 13.98 20.22 13.76 20.02 13.76"/>
    <polygon class="cls-4" points="20.45 13.66 20.45 13.46 20.55 13.46 20.55 13.37 20.65 13.37 20.65 13.26 20.74 13.26 20.74 13.17 20.94 13.17 20.94 13.26 21.05 13.26 21.05 13.37 21.14 13.37 21.14 13.46 21.24 13.46 21.24 13.66 21.14 13.66 21.14 13.76 21.05 13.76 21.05 13.85 20.94 13.85 20.94 13.96 20.74 13.96 20.74 13.85 20.65 13.85 20.65 13.76 20.55 13.76 20.55 13.66 20.45 13.66"/>
    <polygon class="cls-3" points="20.6 13.62 20.6 13.5 20.66 13.5 20.66 13.44 20.73 13.44 20.73 13.38 20.78 13.38 20.78 13.32 20.91 13.32 20.91 13.38 20.97 13.38 20.97 13.44 21.03 13.44 21.03 13.5 21.09 13.5 21.09 13.62 21.03 13.62 21.03 13.69 20.97 13.69 20.97 13.74 20.91 13.74 20.91 13.81 20.78 13.81 20.78 13.74 20.73 13.74 20.73 13.69 20.66 13.69 20.66 13.62 20.6 13.62"/>
    <rect class="cls-5" x="21.55" y="14.1" width=".54" height=".54"/>
    <rect class="cls-5" x="21.55" y="12.48" width=".54" height=".54"/>
    <rect class="cls-5" x="19.57" y="14.08" width=".54" height=".54"/>
    <rect class="cls-5" x="19.57" y="12.46" width=".54" height=".54"/>
    <rect class="cls-5" x="19.03" y="13.01" width=".54" height="1.07"/>
    <rect class="cls-5" x="22.09" y="13.03" width=".54" height="1.07"/>
    <rect class="cls-3" x="22.14" y="13.09" width=".16" height=".96" transform="translate(44.44 27.13) rotate(-180)"/>
    <rect class="cls-4" x="22.33" y="13.09" width=".16" height=".96" transform="translate(44.82 27.13) rotate(-180)"/>
    <rect class="cls-3" x="19.37" y="13.06" width=".16" height=".96"/>
    <rect class="cls-4" x="19.18" y="13.06" width=".16" height=".96"/>
    <rect class="cls-7" x="20.6" y="14.68" width=".49" height=".54"/>
    <rect class="cls-7" x="20.6" y="11.86" width=".49" height=".54"/>
    <rect class="cls-7" x="21.58" y="14.68" width=".49" height=".54"/>
    <polygon class="cls-7" points="19.03 14.68 16.41 13.58 19.03 12.41 19.03 14.68"/>
    <rect class="cls-7" x="19.6" y="14.68" width=".49" height=".54"/>
    <rect class="cls-7" x="21.58" y="11.86" width=".49" height=".54"/>
    <rect class="cls-7" x="19.65" y="11.86" width=".49" height=".54"/>
    <polygon class="cls-5" points="19.03 14.19 19.03 12.93 17.63 13.56 19.03 14.19"/>
    <polygon class="cls-7" points="18.98 13.5 18.98 13.05 17.99 13.49 18.98 13.5"/>
    <polyline class="cls-7" points="17.99 13.6 18.98 13.58 18.98 14.04"/>
    <polygon class="cls-7" points="22.64 12.41 25.25 13.51 22.64 14.68 22.64 12.41"/>
    <polygon class="cls-5" points="22.64 14.2 22.64 12.93 24.03 13.57 22.64 14.2"/>
    <polygon class="cls-7" points="22.69 13.6 22.69 14.06 23.68 13.62 22.69 13.6"/>
    <polyline class="cls-7" points="23.68 13.51 22.69 13.52 22.69 13.07"/>
    <polygon class="cls-7" points="24.95 13.38 25.32 13.21 26.34 13.53 25.32 13.84 24.95 13.61 24.95 13.38"/>
    <polygon class="cls-7" points="18.95 19.11 19.32 18.94 20.34 19.27 19.32 19.58 18.95 19.35 18.95 19.11"/>
    <polyline class="cls-7" points="20.45 20.84 20.32 20.44 19.61 20.84 20.23 20.13 19.61 20.53 19.83 20.13 19.61 20.22 19.61 19.83 20.5 19.51 21.42 19.85 21.42 20.22 21.2 20.13 21.42 20.53 20.85 20.17 21.42 20.84 20.72 20.44 20.63 20.84 20.54 21.1"/>
    <polygon class="cls-5" points="20.23 19.98 20.52 19.64 20.79 19.99 20.52 20.37 20.23 19.98"/>
    <polyline class="cls-7" points="20.58 17.76 20.71 18.16 21.41 17.76 20.8 18.47 21.41 18.07 21.19 18.47 21.41 18.38 21.41 18.77 20.53 19.08 19.6 18.75 19.6 18.38 19.82 18.47 19.6 18.07 20.18 18.42 19.6 17.76 20.31 18.16 20.4 17.76 20.49 17.49"/>
    <polygon class="cls-5" points="20.8 18.61 20.51 18.96 20.24 18.61 20.51 18.22 20.8 18.61"/>
    <polygon class="cls-7" points="22.17 19.44 21.8 19.61 20.78 19.28 21.8 18.98 22.17 19.2 22.17 19.44"/>
    <g>
      <polygon class="cls-3" points="22.1 18.12 23.76 19.37 22.1 20.7 22.1 18.12"/>
      <polygon class="cls-3" points="22.65 17.68 24.88 19.36 22.65 21.14 22.65 17.68"/>
      <polygon class="cls-3" points="23.26 17.18 26.14 19.34 23.26 21.65 23.26 17.18"/>
      <polygon class="cls-3" points="24.09 16.55 27.78 19.32 24.09 22.28 24.09 16.55"/>
      <polygon class="cls-3" points="24.7 15.92 29.16 19.27 24.7 22.84 24.7 15.92"/>
      <polygon class="cls-3" points="25.22 15.42 30.33 19.25 25.22 23.35 25.22 15.42"/>
      <polygon class="cls-3" points="25.94 15.17 30.33 19.24 25.94 23.6 25.94 15.17"/>
      <polygon class="cls-3" points="30.85 18.04 29.19 19.29 30.85 20.62 30.85 18.04"/>
      <polygon class="cls-3" points="30.3 17.6 28.07 19.27 30.3 21.06 30.3 17.6"/>
      <polygon class="cls-3" points="29.7 17.1 26.82 19.26 29.7 21.56 29.7 17.1"/>
      <polygon class="cls-3" points="28.87 16.47 25.18 19.23 28.87 22.19 28.87 16.47"/>
      <polygon class="cls-3" points="28.26 15.84 23.79 19.18 28.26 22.76 28.26 15.84"/>
      <polygon class="cls-3" points="27.73 15.33 22.62 19.17 27.73 23.26 27.73 15.33"/>
      <polygon class="cls-3" points="27.01 15.08 22.62 19.16 27.01 23.51 27.01 15.08"/>
    </g>
    <rect class="cls-7" x="24.41" y="18.11" width="3.61" height="2.28" transform="translate(52.43 38.49) rotate(-180)"/>
    <polygon class="cls-3" points="25.27 19.49 25.27 19.01 25.5 19.01 25.5 18.79 25.75 18.79 25.75 18.54 25.98 18.54 25.98 18.31 26.46 18.31 26.46 18.54 26.71 18.54 26.71 18.79 26.94 18.79 26.94 19.01 27.19 19.01 27.19 19.49 26.94 19.49 26.94 19.74 26.71 19.74 26.71 19.97 26.46 19.97 26.46 20.22 25.98 20.22 25.98 19.97 25.75 19.97 25.75 19.74 25.5 19.74 25.5 19.49 25.27 19.49"/>
    <polygon class="cls-5" points="25.4 19.46 25.4 19.05 25.6 19.05 25.6 18.85 25.82 18.85 25.82 18.63 26.01 18.63 26.01 18.44 26.43 18.44 26.43 18.63 26.64 18.63 26.64 18.85 26.84 18.85 26.84 19.05 27.06 19.05 27.06 19.46 26.84 19.46 26.84 19.68 26.64 19.68 26.64 19.88 26.43 19.88 26.43 20.09 26.01 20.09 26.01 19.88 25.82 19.88 25.82 19.68 25.6 19.68 25.6 19.46 25.4 19.46"/>
    <polygon class="cls-4" points="25.84 19.36 25.84 19.16 25.93 19.16 25.93 19.07 26.03 19.07 26.03 18.96 26.13 18.96 26.13 18.87 26.32 18.87 26.32 18.96 26.43 18.96 26.43 19.07 26.52 19.07 26.52 19.16 26.63 19.16 26.63 19.36 26.52 19.36 26.52 19.46 26.43 19.46 26.43 19.56 26.32 19.56 26.32 19.66 26.13 19.66 26.13 19.56 26.03 19.56 26.03 19.46 25.93 19.46 25.93 19.36 25.84 19.36"/>
    <polygon class="cls-3" points="25.99 19.32 25.99 19.2 26.04 19.2 26.04 19.14 26.11 19.14 26.11 19.08 26.17 19.08 26.17 19.02 26.29 19.02 26.29 19.08 26.35 19.08 26.35 19.14 26.41 19.14 26.41 19.2 26.48 19.2 26.48 19.32 26.41 19.32 26.41 19.39 26.35 19.39 26.35 19.45 26.29 19.45 26.29 19.51 26.17 19.51 26.17 19.45 26.11 19.45 26.11 19.39 26.04 19.39 26.04 19.32 25.99 19.32"/>
    <rect class="cls-5" x="26.94" y="19.81" width=".54" height=".54"/>
    <rect class="cls-5" x="26.94" y="18.18" width=".54" height=".54"/>
    <rect class="cls-5" x="24.95" y="19.79" width=".54" height=".54"/>
    <rect class="cls-5" x="24.95" y="18.17" width=".54" height=".54"/>
    <rect class="cls-5" x="24.41" y="18.71" width=".54" height="1.07"/>
    <rect class="cls-5" x="27.48" y="18.73" width=".54" height="1.07"/>
    <rect class="cls-3" x="27.52" y="18.79" width=".16" height=".96" transform="translate(55.21 38.53) rotate(-180)"/>
    <rect class="cls-4" x="27.71" y="18.79" width=".16" height=".96" transform="translate(55.59 38.53) rotate(-180)"/>
    <rect class="cls-3" x="24.76" y="18.77" width=".16" height=".96"/>
    <rect class="cls-4" x="24.56" y="18.77" width=".16" height=".96"/>
    <rect class="cls-7" x="25.99" y="20.39" width=".49" height=".54"/>
    <rect class="cls-7" x="25.99" y="17.57" width=".49" height=".54"/>
    <rect class="cls-7" x="26.96" y="20.39" width=".49" height=".54"/>
    <polygon class="cls-7" points="24.41 20.39 21.8 19.28 24.41 18.11 24.41 20.39"/>
    <rect class="cls-7" x="24.98" y="20.39" width=".49" height=".54"/>
    <rect class="cls-7" x="26.96" y="17.57" width=".49" height=".54"/>
    <rect class="cls-7" x="25.03" y="17.57" width=".49" height=".54"/>
    <polygon class="cls-5" points="24.41 19.89 24.41 18.63 23.01 19.27 24.41 19.89"/>
    <polygon class="cls-7" points="24.37 19.2 24.37 18.75 23.38 19.19 24.37 19.2"/>
    <polyline class="cls-7" points="23.38 19.3 24.37 19.28 24.37 19.74"/>
    <polygon class="cls-7" points="28.02 18.11 30.63 19.21 28.02 20.39 28.02 18.11"/>
    <polygon class="cls-5" points="28.02 19.9 28.02 18.63 29.42 19.27 28.02 19.9"/>
    <polygon class="cls-7" points="28.07 19.31 28.07 19.76 29.06 19.32 28.07 19.31"/>
    <polyline class="cls-7" points="29.06 19.21 28.07 19.23 28.07 18.77"/>
    <polygon class="cls-7" points="28.44 13.74 28.07 13.91 27.05 13.58 28.07 13.28 28.44 13.5 28.44 13.74"/>
    <polygon class="cls-7" points="30.69 14.68 28.07 13.58 30.69 12.41 30.69 14.68"/>
    <polygon class="cls-7" points="1.44 13.4 1.81 13.23 2.83 13.56 1.81 13.87 1.44 13.64 1.44 13.4"/>
    <polyline class="cls-7" points="3.05 15.06 2.92 14.67 2.21 15.06 2.83 14.36 2.21 14.75 2.43 14.36 2.21 14.44 2.21 14.06 3.1 13.74 4.02 14.07 4.02 14.44 3.8 14.36 4.02 14.75 3.45 14.4 4.02 15.06 3.32 14.67 3.23 15.06 3.14 15.33"/>
    <polygon class="cls-3" points="2.83 14.21 3.12 13.87 3.39 14.22 3.12 14.6 2.83 14.21"/>
    <polyline class="cls-7" points="3.18 11.98 3.31 12.38 4.02 11.98 3.4 12.69 4.02 12.29 3.79 12.69 4.02 12.6 4.02 12.99 3.13 13.31 2.2 12.98 2.2 12.6 2.43 12.69 2.2 12.29 2.78 12.65 2.2 11.98 2.91 12.38 3 11.98 3.09 11.72"/>
    <polygon class="cls-3" points="3.4 12.84 3.11 13.18 2.84 12.83 3.11 12.45 3.4 12.84"/>
    <polygon class="cls-7" points="4.93 13.75 4.56 13.92 3.54 13.6 4.56 13.29 4.93 13.52 4.93 13.75"/>
    <g>
      <polygon class="cls-3" points="10.62 6.62 12.28 7.87 10.62 9.2 10.62 6.62"/>
      <polygon class="cls-3" points="11.17 6.18 13.4 7.86 11.17 9.64 11.17 6.18"/>
      <polygon class="cls-3" points="11.78 5.68 14.66 7.84 11.78 10.15 11.78 5.68"/>
      <polygon class="cls-3" points="12.61 5.05 16.3 7.82 12.61 10.78 12.61 5.05"/>
      <polygon class="cls-3" points="13.22 4.42 17.68 7.77 13.22 11.34 13.22 4.42"/>
      <polygon class="cls-3" points="13.74 3.92 18.85 7.75 13.74 11.85 13.74 3.92"/>
      <polygon class="cls-3" points="14.46 3.67 18.85 7.74 14.46 12.1 14.46 3.67"/>
      <polygon class="cls-3" points="19.37 6.54 17.71 7.79 19.37 9.12 19.37 6.54"/>
      <polygon class="cls-3" points="18.83 6.1 16.59 7.77 18.83 9.56 18.83 6.1"/>
      <polygon class="cls-3" points="18.22 5.6 15.34 7.76 18.22 10.06 18.22 5.6"/>
      <polygon class="cls-3" points="17.39 4.97 13.7 7.74 17.39 10.69 17.39 4.97"/>
      <polygon class="cls-3" points="16.78 4.34 12.32 7.68 16.78 11.26 16.78 4.34"/>
      <polygon class="cls-3" points="16.25 3.84 11.14 7.67 16.25 11.76 16.25 3.84"/>
      <polygon class="cls-3" points="15.54 3.58 11.14 7.66 15.54 12.01 15.54 3.58"/>
    </g>
    <polygon class="cls-7" points="7.49 7.79 7.86 7.62 8.88 7.95 7.86 8.26 7.49 8.03 7.49 7.79"/>
    <polyline class="cls-7" points="9.11 9.45 8.97 9.06 8.27 9.45 8.89 8.75 8.27 9.14 8.49 8.75 8.27 8.83 8.27 8.45 9.15 8.13 10.08 8.46 10.08 8.83 9.86 8.75 10.08 9.14 9.5 8.79 10.08 9.45 9.37 9.06 9.28 9.45 9.19 9.72"/>
    <polygon class="cls-5" points="8.88 8.6 9.17 8.26 9.45 8.61 9.17 8.99 8.88 8.6"/>
    <polyline class="cls-7" points="9.23 6.37 9.36 6.77 10.07 6.37 9.45 7.08 10.07 6.68 9.85 7.08 10.07 6.99 10.07 7.38 9.19 7.7 8.26 7.37 8.26 6.99 8.48 7.08 8.26 6.68 8.83 7.04 8.26 6.37 8.97 6.77 9.05 6.37 9.14 6.11"/>
    <polygon class="cls-5" points="9.45 7.23 9.16 7.57 8.89 7.22 9.16 6.84 9.45 7.23"/>
    <rect class="cls-7" x="13.23" y="6.81" width="3.61" height="2.28" transform="translate(30.07 15.9) rotate(-180)"/>
    <polygon class="cls-3" points="14.09 8.19 14.09 7.72 14.32 7.72 14.32 7.49 14.57 7.49 14.57 7.24 14.8 7.24 14.8 7.01 15.28 7.01 15.28 7.24 15.53 7.24 15.53 7.49 15.75 7.49 15.75 7.72 16 7.72 16 8.19 15.75 8.19 15.75 8.45 15.53 8.45 15.53 8.67 15.28 8.67 15.28 8.92 14.8 8.92 14.8 8.67 14.57 8.67 14.57 8.45 14.32 8.45 14.32 8.19 14.09 8.19"/>
    <polygon class="cls-5" points="14.22 8.16 14.22 7.75 14.42 7.75 14.42 7.55 14.64 7.55 14.64 7.34 14.83 7.34 14.83 7.14 15.24 7.14 15.24 7.34 15.46 7.34 15.46 7.55 15.66 7.55 15.66 7.75 15.88 7.75 15.88 8.16 15.66 8.16 15.66 8.38 15.46 8.38 15.46 8.58 15.24 8.58 15.24 8.79 14.83 8.79 14.83 8.58 14.64 8.58 14.64 8.38 14.42 8.38 14.42 8.16 14.22 8.16"/>
    <polygon class="cls-4" points="14.65 8.06 14.65 7.86 14.75 7.86 14.75 7.77 14.85 7.77 14.85 7.67 14.95 7.67 14.95 7.57 15.14 7.57 15.14 7.67 15.25 7.67 15.25 7.77 15.34 7.77 15.34 7.86 15.44 7.86 15.44 8.06 15.34 8.06 15.34 8.16 15.25 8.16 15.25 8.26 15.14 8.26 15.14 8.36 14.95 8.36 14.95 8.26 14.85 8.26 14.85 8.16 14.75 8.16 14.75 8.06 14.65 8.06"/>
    <polygon class="cls-3" points="14.8 8.03 14.8 7.9 14.86 7.9 14.86 7.84 14.93 7.84 14.93 7.78 14.98 7.78 14.98 7.72 15.11 7.72 15.11 7.78 15.17 7.78 15.17 7.84 15.23 7.84 15.23 7.9 15.29 7.9 15.29 8.03 15.23 8.03 15.23 8.09 15.17 8.09 15.17 8.15 15.11 8.15 15.11 8.21 14.98 8.21 14.98 8.15 14.93 8.15 14.93 8.09 14.86 8.09 14.86 8.03 14.8 8.03"/>
    <rect class="cls-5" x="15.75" y="8.51" width=".54" height=".54"/>
    <rect class="cls-5" x="15.75" y="6.89" width=".54" height=".54"/>
    <rect class="cls-5" x="13.77" y="8.49" width=".54" height=".54"/>
    <rect class="cls-5" x="13.77" y="6.87" width=".54" height=".54"/>
    <rect class="cls-5" x="13.23" y="7.41" width=".54" height="1.07"/>
    <rect class="cls-5" x="16.3" y="7.43" width=".54" height="1.07"/>
    <rect class="cls-3" x="16.34" y="7.49" width=".16" height=".96" transform="translate(32.84 15.93) rotate(-180)"/>
    <rect class="cls-4" x="16.53" y="7.49" width=".16" height=".96" transform="translate(33.22 15.93) rotate(-180)"/>
    <rect class="cls-3" x="13.57" y="7.47" width=".16" height=".96"/>
    <rect class="cls-4" x="13.38" y="7.47" width=".16" height=".96"/>
    <rect class="cls-7" x="14.8" y="9.09" width=".49" height=".54"/>
    <rect class="cls-7" x="14.8" y="6.27" width=".49" height=".54"/>
    <rect class="cls-7" x="15.78" y="9.09" width=".49" height=".54"/>
    <polygon class="cls-7" points="13.23 9.09 10.62 7.99 13.23 6.81 13.23 9.09"/>
    <rect class="cls-7" x="13.8" y="9.09" width=".49" height=".54"/>
    <rect class="cls-7" x="15.78" y="6.27" width=".49" height=".54"/>
    <rect class="cls-7" x="13.85" y="6.27" width=".49" height=".54"/>
    <polygon class="cls-5" points="13.23 8.59 13.23 7.33 11.83 7.97 13.23 8.59"/>
    <polygon class="cls-7" points="13.18 7.91 13.18 7.45 12.2 7.89 13.18 7.91"/>
    <polyline class="cls-7" points="12.2 8 13.18 7.99 13.18 8.44"/>
    <polygon class="cls-7" points="16.84 6.81 19.45 7.91 16.84 9.09 16.84 6.81"/>
    <polygon class="cls-5" points="16.84 8.6 16.84 7.33 18.24 7.97 16.84 8.6"/>
    <polygon class="cls-7" points="16.89 8.01 16.89 8.46 17.88 8.02 16.89 8.01"/>
    <polyline class="cls-7" points="17.88 7.91 16.89 7.93 16.89 7.47"/>
    <polygon class="cls-7" points="10.99 8.14 10.62 8.31 9.59 7.99 10.62 7.68 10.99 7.91 10.99 8.14"/>
    <g>
      <polygon class="cls-3" points="-1.19 6.79 .47 8.04 -1.19 9.37 -1.19 6.79"/>
      <polygon class="cls-3" points="-.65 6.35 1.58 8.02 -.65 9.81 -.65 6.35"/>
      <polygon class="cls-3" points="-.04 5.85 2.84 8.01 -.04 10.31 -.04 5.85"/>
      <polygon class="cls-3" points=".79 5.22 4.48 7.98 .79 10.94 .79 5.22"/>
      <polygon class="cls-3" points="1.4 4.59 5.86 7.93 1.4 11.51 1.4 4.59"/>
      <polygon class="cls-3" points="1.93 4.09 7.04 7.92 1.93 12.01 1.93 4.09"/>
      <polygon class="cls-3" points="2.64 3.83 7.04 7.91 2.64 12.26 2.64 3.83"/>
      <polygon class="cls-3" points="7.56 6.71 5.89 7.95 7.56 9.29 7.56 6.71"/>
      <polygon class="cls-3" points="7.01 6.27 4.78 7.94 7.01 9.73 7.01 6.27"/>
      <polygon class="cls-3" points="6.4 5.76 3.52 7.92 6.4 10.23 6.4 5.76"/>
      <polygon class="cls-3" points="5.57 5.13 1.88 7.9 5.57 10.86 5.57 5.13"/>
      <polygon class="cls-3" points="4.96 4.51 .5 7.85 4.96 11.43 4.96 4.51"/>
      <polygon class="cls-3" points="4.44 4 -.67 7.83 4.44 11.93 4.44 4"/>
      <polygon class="cls-3" points="3.72 3.75 -.67 7.82 3.72 12.18 3.72 3.75"/>
    </g>
    <rect class="cls-7" x="1.64" y="6.85" width="3.61" height="2.28"/>
    <polygon class="cls-3" points="4.38 7.74 4.38 8.22 4.16 8.22 4.16 8.45 3.9 8.45 3.9 8.7 3.68 8.7 3.68 8.92 3.2 8.92 3.2 8.7 2.95 8.7 2.95 8.45 2.72 8.45 2.72 8.22 2.47 8.22 2.47 7.74 2.72 7.74 2.72 7.49 2.95 7.49 2.95 7.26 3.2 7.26 3.2 7.01 3.68 7.01 3.68 7.26 3.9 7.26 3.9 7.49 4.16 7.49 4.16 7.74 4.38 7.74"/>
    <polygon class="cls-5" points="4.25 7.77 4.25 8.18 4.06 8.18 4.06 8.38 3.84 8.38 3.84 8.6 3.64 8.6 3.64 8.79 3.23 8.79 3.23 8.6 3.01 8.6 3.01 8.38 2.82 8.38 2.82 8.18 2.6 8.18 2.6 7.77 2.82 7.77 2.82 7.55 3.01 7.55 3.01 7.36 3.23 7.36 3.23 7.14 3.64 7.14 3.64 7.36 3.84 7.36 3.84 7.55 4.06 7.55 4.06 7.77 4.25 7.77"/>
    <polygon class="cls-4" points="3.82 7.87 3.82 8.07 3.73 8.07 3.73 8.16 3.62 8.16 3.62 8.27 3.53 8.27 3.53 8.36 3.33 8.36 3.33 8.27 3.23 8.27 3.23 8.16 3.14 8.16 3.14 8.07 3.03 8.07 3.03 7.87 3.14 7.87 3.14 7.77 3.23 7.77 3.23 7.68 3.33 7.68 3.33 7.57 3.53 7.57 3.53 7.68 3.62 7.68 3.62 7.77 3.73 7.77 3.73 7.87 3.82 7.87"/>
    <polygon class="cls-3" points="3.67 7.91 3.67 8.03 3.61 8.03 3.61 8.09 3.55 8.09 3.55 8.15 3.49 8.15 3.49 8.21 3.37 8.21 3.37 8.15 3.3 8.15 3.3 8.09 3.25 8.09 3.25 8.03 3.18 8.03 3.18 7.91 3.25 7.91 3.25 7.84 3.3 7.84 3.3 7.79 3.37 7.79 3.37 7.72 3.49 7.72 3.49 7.79 3.55 7.79 3.55 7.84 3.61 7.84 3.61 7.91 3.67 7.91"/>
    <rect class="cls-5" x="2.18" y="6.89" width=".54" height=".54"/>
    <rect class="cls-5" x="2.18" y="8.51" width=".54" height=".54"/>
    <rect class="cls-5" x="4.16" y="6.9" width=".54" height=".54"/>
    <rect class="cls-5" x="4.16" y="8.53" width=".54" height=".54"/>
    <rect class="cls-5" x="4.7" y="7.45" width=".54" height="1.07"/>
    <rect class="cls-5" x="1.64" y="7.43" width=".54" height="1.07"/>
    <rect class="cls-3" x="1.97" y="7.49" width=".16" height=".96"/>
    <rect class="cls-4" x="1.78" y="7.49" width=".16" height=".96"/>
    <rect class="cls-3" x="4.74" y="7.51" width=".16" height=".96" transform="translate(9.64 15.98) rotate(-180)"/>
    <rect class="cls-4" x="4.93" y="7.51" width=".16" height=".96" transform="translate(10.02 15.98) rotate(-180)"/>
    <rect class="cls-7" x="3.18" y="6.31" width=".49" height=".54"/>
    <rect class="cls-7" x="3.18" y="9.13" width=".49" height=".54"/>
    <rect class="cls-7" x="2.21" y="6.31" width=".49" height=".54"/>
    <polygon class="cls-7" points="5.24 6.85 7.86 7.95 5.24 9.13 5.24 6.85"/>
    <rect class="cls-7" x="4.19" y="6.31" width=".49" height=".54"/>
    <rect class="cls-7" x="2.21" y="9.13" width=".49" height=".54"/>
    <rect class="cls-7" x="4.14" y="9.13" width=".49" height=".54"/>
    <polygon class="cls-5" points="5.24 7.34 5.24 8.61 6.64 7.97 5.24 7.34"/>
    <polygon class="cls-7" points="5.29 8.03 5.29 8.48 6.28 8.04 5.29 8.03"/>
    <polyline class="cls-7" points="6.28 7.93 5.29 7.95 5.29 7.49"/>
    <polygon class="cls-7" points="1.64 9.13 -.98 8.02 1.64 6.85 1.64 9.13"/>
    <polygon class="cls-5" points="1.64 7.33 1.64 8.6 .24 7.96 1.64 7.33"/>
    <polygon class="cls-7" points="1.59 7.93 1.59 7.47 .6 7.91 1.59 7.93"/>
    <polyline class="cls-7" points=".6 8.02 1.59 8.01 1.59 8.46"/>
    <g class="cls-8">
      <polygon class="cls-7" points="4.74 .95 6.4 2.2 4.74 3.53 4.74 .95"/>
      <polygon class="cls-7" points="5.29 .51 7.52 2.19 5.29 3.97 5.29 .51"/>
      <polygon class="cls-7" points="5.9 0 8.78 2.17 5.9 4.48 5.9 0"/>
      <polygon class="cls-7" points="6.72 -.62 10.42 2.15 6.72 5.11 6.72 -.62"/>
      <polygon class="cls-7" points="7.34 -1.25 11.8 2.1 7.34 5.67 7.34 -1.25"/>
      <polygon class="cls-7" points="7.86 -1.75 12.97 2.08 7.86 6.18 7.86 -1.75"/>
      <polygon class="cls-7" points="8.58 -2 12.97 2.07 8.58 6.43 8.58 -2"/>
      <polygon class="cls-7" points="13.49 .87 11.83 2.12 13.49 3.45 13.49 .87"/>
      <polygon class="cls-7" points="12.94 .43 10.71 2.1 12.94 3.89 12.94 .43"/>
      <polygon class="cls-7" points="12.34 -.07 9.46 2.09 12.34 4.39 12.34 -.07"/>
      <polygon class="cls-7" points="11.51 -.7 7.82 2.06 11.51 5.02 11.51 -.7"/>
      <polygon class="cls-7" points="10.9 -1.33 6.43 2.01 10.9 5.59 10.9 -1.33"/>
      <polygon class="cls-7" points="10.37 -1.83 5.26 2 10.37 6.09 10.37 -1.83"/>
      <polygon class="cls-7" points="9.65 -2.09 5.26 1.99 9.65 6.34 9.65 -2.09"/>
    </g>
    <g class="cls-8">
      <polygon class="cls-7" points="16.72 1.01 18.38 2.26 16.72 3.59 16.72 1.01"/>
      <polygon class="cls-7" points="17.26 .57 19.49 2.25 17.26 4.03 17.26 .57"/>
      <polygon class="cls-7" points="17.87 .07 20.75 2.23 17.87 4.54 17.87 .07"/>
      <polygon class="cls-7" points="18.7 -.56 22.39 2.21 18.7 5.17 18.7 -.56"/>
      <polygon class="cls-7" points="19.31 -1.19 23.77 2.16 19.31 5.73 19.31 -1.19"/>
      <polygon class="cls-7" points="19.84 -1.69 24.95 2.14 19.84 6.24 19.84 -1.69"/>
      <polygon class="cls-7" points="20.55 -1.94 24.95 2.13 20.55 6.49 20.55 -1.94"/>
      <polygon class="cls-7" points="25.47 .93 23.8 2.18 25.47 3.51 25.47 .93"/>
      <polygon class="cls-7" points="24.92 .49 22.69 2.16 24.92 3.95 24.92 .49"/>
      <polygon class="cls-7" points="24.31 -.01 21.43 2.15 24.31 4.45 24.31 -.01"/>
      <polygon class="cls-7" points="23.48 -.64 19.79 2.13 23.48 5.08 23.48 -.64"/>
      <polygon class="cls-7" points="22.87 -1.27 18.41 2.07 22.87 5.65 22.87 -1.27"/>
      <polygon class="cls-7" points="22.35 -1.77 17.24 2.06 22.35 6.15 22.35 -1.77"/>
      <polygon class="cls-7" points="21.63 -2.03 17.24 2.05 21.63 6.4 21.63 -2.03"/>
    </g>
    <polygon class="cls-7" points="18.95 7.78 19.32 7.61 20.34 7.94 19.32 8.24 18.95 8.02 18.95 7.78"/>
    <polyline class="cls-7" points="20.45 9.5 20.32 9.11 19.61 9.5 20.23 8.8 19.61 9.2 19.83 8.8 19.61 8.89 19.61 8.5 20.49 8.18 21.42 8.51 21.42 8.89 21.2 8.8 21.42 9.2 20.85 8.84 21.42 9.5 20.71 9.11 20.63 9.5 20.54 9.77"/>
    <polygon class="cls-5" points="20.22 8.65 20.52 8.31 20.79 8.66 20.52 9.04 20.22 8.65"/>
    <polyline class="cls-7" points="20.57 6.43 20.71 6.82 21.41 6.43 20.79 7.13 21.41 6.74 21.19 7.13 21.41 7.04 21.41 7.43 20.53 7.75 19.6 7.42 19.6 7.04 19.82 7.13 19.6 6.74 20.18 7.09 19.6 6.43 20.31 6.82 20.4 6.43 20.48 6.16"/>
    <polygon class="cls-5" points="20.8 7.28 20.51 7.62 20.23 7.27 20.51 6.89 20.8 7.28"/>
    <polygon class="cls-7" points="22.17 8.11 21.79 8.28 20.77 7.95 21.79 7.64 22.17 7.87 22.17 8.11"/>
    <g>
      <polygon class="cls-3" points="22.1 6.79 23.76 8.04 22.1 9.37 22.1 6.79"/>
      <polygon class="cls-3" points="22.65 6.35 24.88 8.02 22.65 9.81 22.65 6.35"/>
      <polygon class="cls-3" points="23.25 5.85 26.13 8.01 23.25 10.31 23.25 5.85"/>
      <polygon class="cls-3" points="24.08 5.22 27.77 7.98 24.08 10.94 24.08 5.22"/>
      <polygon class="cls-3" points="24.69 4.59 29.16 7.93 24.69 11.51 24.69 4.59"/>
      <polygon class="cls-3" points="25.22 4.09 30.33 7.92 25.22 12.01 25.22 4.09"/>
      <polygon class="cls-3" points="25.94 3.83 30.33 7.91 25.94 12.26 25.94 3.83"/>
      <polygon class="cls-3" points="30.85 6.71 29.19 7.95 30.85 9.29 30.85 6.71"/>
      <polygon class="cls-3" points="30.3 6.27 28.07 7.94 30.3 9.73 30.3 6.27"/>
      <polygon class="cls-3" points="29.69 5.76 26.81 7.92 29.69 10.23 29.69 5.76"/>
      <polygon class="cls-3" points="28.86 5.13 25.17 7.9 28.86 10.86 28.86 5.13"/>
      <polygon class="cls-3" points="28.25 4.51 23.79 7.85 28.25 11.43 28.25 4.51"/>
      <polygon class="cls-3" points="27.73 4 22.62 7.83 27.73 11.93 27.73 4"/>
      <polygon class="cls-3" points="27.01 3.75 22.62 7.82 27.01 12.18 27.01 3.75"/>
    </g>
    <rect class="cls-7" x="24.41" y="6.78" width="3.61" height="2.28" transform="translate(52.43 15.83) rotate(-180)"/>
    <polygon class="cls-3" points="25.27 8.16 25.27 7.68 25.5 7.68 25.5 7.45 25.75 7.45 25.75 7.2 25.98 7.2 25.98 6.98 26.45 6.98 26.45 7.2 26.71 7.2 26.71 7.45 26.93 7.45 26.93 7.68 27.18 7.68 27.18 8.16 26.93 8.16 26.93 8.41 26.71 8.41 26.71 8.64 26.45 8.64 26.45 8.89 25.98 8.89 25.98 8.64 25.75 8.64 25.75 8.41 25.5 8.41 25.5 8.16 25.27 8.16"/>
    <polygon class="cls-5" points="25.4 8.13 25.4 7.72 25.6 7.72 25.6 7.52 25.81 7.52 25.81 7.3 26.01 7.3 26.01 7.11 26.42 7.11 26.42 7.3 26.64 7.3 26.64 7.52 26.84 7.52 26.84 7.72 27.06 7.72 27.06 8.13 26.84 8.13 26.84 8.35 26.64 8.35 26.64 8.54 26.42 8.54 26.42 8.76 26.01 8.76 26.01 8.54 25.81 8.54 25.81 8.35 25.6 8.35 25.6 8.13 25.4 8.13"/>
    <polygon class="cls-4" points="25.83 8.03 25.83 7.83 25.93 7.83 25.93 7.74 26.03 7.74 26.03 7.63 26.12 7.63 26.12 7.54 26.32 7.54 26.32 7.63 26.43 7.63 26.43 7.74 26.52 7.74 26.52 7.83 26.62 7.83 26.62 8.03 26.52 8.03 26.52 8.13 26.43 8.13 26.43 8.22 26.32 8.22 26.32 8.33 26.12 8.33 26.12 8.22 26.03 8.22 26.03 8.13 25.93 8.13 25.93 8.03 25.83 8.03"/>
    <polygon class="cls-3" points="25.98 7.99 25.98 7.87 26.04 7.87 26.04 7.81 26.11 7.81 26.11 7.75 26.16 7.75 26.16 7.69 26.29 7.69 26.29 7.75 26.35 7.75 26.35 7.81 26.41 7.81 26.41 7.87 26.47 7.87 26.47 7.99 26.41 7.99 26.41 8.06 26.35 8.06 26.35 8.11 26.29 8.11 26.29 8.18 26.16 8.18 26.16 8.11 26.11 8.11 26.11 8.06 26.04 8.06 26.04 7.99 25.98 7.99"/>
    <rect class="cls-5" x="26.93" y="8.47" width=".54" height=".54"/>
    <rect class="cls-5" x="26.93" y="6.85" width=".54" height=".54"/>
    <rect class="cls-5" x="24.95" y="8.45" width=".54" height=".54"/>
    <rect class="cls-5" x="24.95" y="6.83" width=".54" height=".54"/>
    <rect class="cls-5" x="24.41" y="7.37" width=".54" height="1.07"/>
    <rect class="cls-5" x="27.47" y="7.4" width=".54" height="1.07"/>
    <rect class="cls-3" x="27.52" y="7.45" width=".16" height=".96" transform="translate(55.2 15.87) rotate(-180)"/>
    <rect class="cls-4" x="27.71" y="7.45" width=".16" height=".96" transform="translate(55.58 15.87) rotate(-180)"/>
    <rect class="cls-3" x="24.75" y="7.43" width=".16" height=".96"/>
    <rect class="cls-4" x="24.56" y="7.43" width=".16" height=".96"/>
    <rect class="cls-7" x="25.98" y="9.05" width=".49" height=".54"/>
    <rect class="cls-7" x="25.98" y="6.23" width=".49" height=".54"/>
    <rect class="cls-7" x="26.96" y="9.05" width=".49" height=".54"/>
    <polygon class="cls-7" points="24.41 9.05 21.79 7.95 24.41 6.78 24.41 9.05"/>
    <rect class="cls-7" x="24.98" y="9.05" width=".49" height=".54"/>
    <rect class="cls-7" x="26.96" y="6.23" width=".49" height=".54"/>
    <rect class="cls-7" x="25.03" y="6.23" width=".49" height=".54"/>
    <polygon class="cls-5" points="24.41 8.56 24.41 7.29 23.01 7.93 24.41 8.56"/>
    <polygon class="cls-7" points="24.36 7.87 24.36 7.42 23.38 7.86 24.36 7.87"/>
    <polyline class="cls-7" points="23.38 7.97 24.36 7.95 24.36 8.41"/>
    <polygon class="cls-7" points="28.02 6.78 30.63 7.88 28.02 9.05 28.02 6.78"/>
    <polygon class="cls-5" points="28.02 8.57 28.02 7.3 29.42 7.94 28.02 8.57"/>
    <polygon class="cls-7" points="28.07 7.97 28.07 8.43 29.06 7.99 28.07 7.97"/>
    <polyline class="cls-7" points="29.06 7.88 28.07 7.89 28.07 7.44"/>
    <polygon class="cls-7" points="13.45 24.87 13.82 24.7 14.84 25.03 13.82 25.34 13.45 25.11 13.45 24.87"/>
    <polyline class="cls-7" points="15.06 26.53 14.93 26.14 14.22 26.53 14.84 25.83 14.22 26.22 14.45 25.83 14.22 25.91 14.22 25.53 15.11 25.21 16.04 25.54 16.04 25.91 15.81 25.83 16.04 26.22 15.46 25.87 16.04 26.53 15.33 26.14 15.24 26.53 15.15 26.8"/>
    <polygon class="cls-3" points="14.84 25.68 15.13 25.34 15.4 25.69 15.13 26.07 14.84 25.68"/>
    <polyline class="cls-7" points="15.19 23.45 15.32 23.85 16.03 23.45 15.41 24.16 16.03 23.76 15.81 24.16 16.03 24.07 16.03 24.46 15.14 24.78 14.22 24.45 14.22 24.07 14.44 24.16 14.22 23.76 14.79 24.12 14.22 23.45 14.92 23.85 15.01 23.45 15.1 23.19"/>
    <polygon class="cls-3" points="15.41 24.31 15.12 24.65 14.85 24.3 15.12 23.92 15.41 24.31"/>
    <polygon class="cls-7" points="16.94 25.22 16.57 25.39 15.55 25.07 16.57 24.76 16.94 24.99 16.94 25.22"/>
    <g class="cls-8">
      <polygon class="cls-7" points="4.9 23.77 6.56 25.02 4.9 26.35 4.9 23.77"/>
      <polygon class="cls-7" points="5.45 23.33 7.68 25 5.45 26.79 5.45 23.33"/>
      <polygon class="cls-7" points="6.06 22.83 8.94 24.98 6.06 27.29 6.06 22.83"/>
      <polygon class="cls-7" points="6.89 22.2 10.58 24.96 6.89 27.92 6.89 22.2"/>
      <polygon class="cls-7" points="7.5 21.57 11.96 24.91 7.5 28.49 7.5 21.57"/>
      <polygon class="cls-7" points="8.02 21.06 13.13 24.9 8.02 28.99 8.02 21.06"/>
      <polygon class="cls-7" points="8.74 20.81 13.13 24.89 8.74 29.24 8.74 20.81"/>
      <polygon class="cls-7" points="13.65 23.69 11.99 24.93 13.65 26.27 13.65 23.69"/>
      <polygon class="cls-7" points="13.1 23.25 10.87 24.92 13.1 26.71 13.1 23.25"/>
      <polygon class="cls-7" points="12.5 22.74 9.62 24.9 12.5 27.21 12.5 22.74"/>
      <polygon class="cls-7" points="11.67 22.11 7.98 24.88 11.67 27.84 11.67 22.11"/>
      <polygon class="cls-7" points="11.06 21.48 6.59 24.83 11.06 28.4 11.06 21.48"/>
      <polygon class="cls-7" points="10.53 20.98 5.42 24.81 10.53 28.91 10.53 20.98"/>
      <polygon class="cls-7" points="9.81 20.73 5.42 24.8 9.81 29.16 9.81 20.73"/>
    </g>
    <rect class="cls-7" x="7.59" y="23.93" width="3.61" height="2.28"/>
    <polygon class="cls-3" points="10.34 24.82 10.34 25.3 10.11 25.3 10.11 25.52 9.86 25.52 9.86 25.78 9.63 25.78 9.63 26 9.16 26 9.16 25.78 8.91 25.78 8.91 25.52 8.68 25.52 8.68 25.3 8.43 25.3 8.43 24.82 8.68 24.82 8.68 24.57 8.91 24.57 8.91 24.34 9.16 24.34 9.16 24.09 9.63 24.09 9.63 24.34 9.86 24.34 9.86 24.57 10.11 24.57 10.11 24.82 10.34 24.82"/>
    <polygon class="cls-5" points="10.21 24.85 10.21 25.26 10.01 25.26 10.01 25.46 9.8 25.46 9.8 25.68 9.6 25.68 9.6 25.87 9.19 25.87 9.19 25.68 8.97 25.68 8.97 25.46 8.77 25.46 8.77 25.26 8.56 25.26 8.56 24.85 8.77 24.85 8.77 24.63 8.97 24.63 8.97 24.44 9.19 24.44 9.19 24.22 9.6 24.22 9.6 24.44 9.8 24.44 9.8 24.63 10.01 24.63 10.01 24.85 10.21 24.85"/>
    <polygon class="cls-4" points="9.78 24.95 9.78 25.15 9.68 25.15 9.68 25.24 9.58 25.24 9.58 25.35 9.49 25.35 9.49 25.44 9.29 25.44 9.29 25.35 9.19 25.35 9.19 25.24 9.09 25.24 9.09 25.15 8.99 25.15 8.99 24.95 9.09 24.95 9.09 24.85 9.19 24.85 9.19 24.76 9.29 24.76 9.29 24.65 9.49 24.65 9.49 24.76 9.58 24.76 9.58 24.85 9.68 24.85 9.68 24.95 9.78 24.95"/>
    <polygon class="cls-3" points="9.63 24.99 9.63 25.11 9.57 25.11 9.57 25.17 9.51 25.17 9.51 25.23 9.45 25.23 9.45 25.29 9.33 25.29 9.33 25.23 9.26 25.23 9.26 25.17 9.2 25.17 9.2 25.11 9.14 25.11 9.14 24.99 9.2 24.99 9.2 24.92 9.26 24.92 9.26 24.87 9.33 24.87 9.33 24.8 9.45 24.8 9.45 24.87 9.51 24.87 9.51 24.92 9.57 24.92 9.57 24.99 9.63 24.99"/>
    <rect class="cls-5" x="8.14" y="23.97" width=".54" height=".54"/>
    <rect class="cls-5" x="8.14" y="25.59" width=".54" height=".54"/>
    <rect class="cls-5" x="10.12" y="23.98" width=".54" height=".54"/>
    <rect class="cls-5" x="10.12" y="25.61" width=".54" height=".54"/>
    <rect class="cls-5" x="10.66" y="24.53" width=".54" height="1.07"/>
    <rect class="cls-5" x="7.59" y="24.51" width=".54" height="1.07"/>
    <rect class="cls-3" x="7.93" y="24.57" width=".16" height=".96"/>
    <rect class="cls-4" x="7.74" y="24.57" width=".16" height=".96"/>
    <rect class="cls-3" x="10.69" y="24.59" width=".16" height=".96" transform="translate(21.55 50.14) rotate(-180)"/>
    <rect class="cls-4" x="10.89" y="24.59" width=".16" height=".96" transform="translate(21.94 50.14) rotate(-180)"/>
    <polygon class="cls-7" points="11.2 23.93 13.82 25.03 11.2 26.2 11.2 23.93"/>
    <polygon class="cls-5" points="11.2 24.42 11.2 25.69 12.6 25.05 11.2 24.42"/>
    <polygon class="cls-7" points="11.25 25.11 11.25 25.56 12.24 25.12 11.25 25.11"/>
    <polyline class="cls-7" points="12.24 25.01 11.25 25.03 11.25 24.57"/>
    <polygon class="cls-7" points="7.59 26.2 4.98 25.1 7.59 23.93 7.59 26.2"/>
    <polygon class="cls-5" points="7.59 24.41 7.59 25.68 6.2 25.04 7.59 24.41"/>
    <polygon class="cls-7" points="7.54 25.01 7.54 24.55 6.56 24.99 7.54 25.01"/>
    <polyline class="cls-7" points="6.56 25.1 7.54 25.09 7.54 25.54"/>
    <g class="cls-8">
      <polygon class="cls-7" points="16.88 23.83 18.54 25.08 16.88 26.41 16.88 23.83"/>
      <polygon class="cls-7" points="17.42 23.39 19.65 25.06 17.42 26.85 17.42 23.39"/>
      <polygon class="cls-7" points="18.03 22.89 20.91 25.05 18.03 27.35 18.03 22.89"/>
      <polygon class="cls-7" points="18.86 22.26 22.55 25.02 18.86 27.98 18.86 22.26"/>
      <polygon class="cls-7" points="19.47 21.63 23.93 24.97 19.47 28.55 19.47 21.63"/>
      <polygon class="cls-7" points="20 21.12 25.11 24.96 20 29.05 20 21.12"/>
      <polygon class="cls-7" points="20.71 20.87 25.11 24.95 20.71 29.3 20.71 20.87"/>
      <polygon class="cls-7" points="25.63 23.75 23.96 24.99 25.63 26.33 25.63 23.75"/>
      <polygon class="cls-7" points="25.08 23.31 22.85 24.98 25.08 26.77 25.08 23.31"/>
      <polygon class="cls-7" points="24.47 22.8 21.59 24.96 24.47 27.27 24.47 22.8"/>
      <polygon class="cls-7" points="23.64 22.17 19.95 24.94 23.64 27.9 23.64 22.17"/>
      <polygon class="cls-7" points="23.03 21.55 18.57 24.89 23.03 28.47 23.03 21.55"/>
      <polygon class="cls-7" points="22.51 21.04 17.4 24.87 22.51 28.97 22.51 21.04"/>
      <polygon class="cls-7" points="21.79 20.79 17.4 24.86 21.79 29.22 21.79 20.79"/>
    </g>
    <rect class="cls-7" x="19.19" y="23.89" width="3.61" height="2.28" transform="translate(41.98 50.06) rotate(-180)"/>
    <polygon class="cls-3" points="20.05 25.27 20.05 24.8 20.28 24.8 20.28 24.57 20.53 24.57 20.53 24.32 20.75 24.32 20.75 24.09 21.23 24.09 21.23 24.32 21.48 24.32 21.48 24.57 21.71 24.57 21.71 24.8 21.96 24.8 21.96 25.27 21.71 25.27 21.71 25.52 21.48 25.52 21.48 25.75 21.23 25.75 21.23 26 20.75 26 20.75 25.75 20.53 25.75 20.53 25.52 20.28 25.52 20.28 25.27 20.05 25.27"/>
    <polygon class="cls-5" points="20.18 25.24 20.18 24.83 20.37 24.83 20.37 24.63 20.59 24.63 20.59 24.42 20.79 24.42 20.79 24.22 21.2 24.22 21.2 24.42 21.42 24.42 21.42 24.63 21.62 24.63 21.62 24.83 21.83 24.83 21.83 25.24 21.62 25.24 21.62 25.46 21.42 25.46 21.42 25.66 21.2 25.66 21.2 25.87 20.79 25.87 20.79 25.66 20.59 25.66 20.59 25.46 20.37 25.46 20.37 25.24 20.18 25.24"/>
    <polygon class="cls-4" points="20.61 25.14 20.61 24.94 20.7 24.94 20.7 24.85 20.81 24.85 20.81 24.75 20.9 24.75 20.9 24.65 21.1 24.65 21.1 24.75 21.2 24.75 21.2 24.85 21.3 24.85 21.3 24.94 21.4 24.94 21.4 25.14 21.3 25.14 21.3 25.24 21.2 25.24 21.2 25.34 21.1 25.34 21.1 25.44 20.9 25.44 20.9 25.34 20.81 25.34 20.81 25.24 20.7 25.24 20.7 25.14 20.61 25.14"/>
    <polygon class="cls-3" points="20.76 25.1 20.76 24.98 20.82 24.98 20.82 24.92 20.88 24.92 20.88 24.86 20.94 24.86 20.94 24.8 21.06 24.8 21.06 24.86 21.13 24.86 21.13 24.92 21.19 24.92 21.19 24.98 21.25 24.98 21.25 25.1 21.19 25.1 21.19 25.17 21.13 25.17 21.13 25.23 21.06 25.23 21.06 25.29 20.94 25.29 20.94 25.23 20.88 25.23 20.88 25.17 20.82 25.17 20.82 25.1 20.76 25.1"/>
    <rect class="cls-5" x="21.71" y="25.59" width=".54" height=".54"/>
    <rect class="cls-5" x="21.71" y="23.97" width=".54" height=".54"/>
    <rect class="cls-5" x="19.73" y="25.57" width=".54" height=".54"/>
    <rect class="cls-5" x="19.73" y="23.95" width=".54" height=".54"/>
    <rect class="cls-5" x="19.19" y="24.49" width=".54" height="1.07"/>
    <rect class="cls-5" x="22.25" y="24.51" width=".54" height="1.07"/>
    <rect class="cls-3" x="22.3" y="24.57" width=".16" height=".96" transform="translate(44.76 50.09) rotate(-180)"/>
    <rect class="cls-4" x="22.49" y="24.57" width=".16" height=".96" transform="translate(45.14 50.09) rotate(-180)"/>
    <rect class="cls-3" x="19.53" y="24.55" width=".16" height=".96"/>
    <rect class="cls-4" x="19.34" y="24.55" width=".16" height=".96"/>
    <polygon class="cls-7" points="19.19 26.17 16.57 25.07 19.19 23.89 19.19 26.17"/>
    <polygon class="cls-5" points="19.19 25.67 19.19 24.41 17.79 25.05 19.19 25.67"/>
    <polygon class="cls-7" points="19.14 24.99 19.14 24.53 18.15 24.97 19.14 24.99"/>
    <polyline class="cls-7" points="18.15 25.08 19.14 25.07 19.14 25.52"/>
    <polygon class="cls-7" points="22.79 23.89 25.41 24.99 22.79 26.17 22.79 23.89"/>
    <polygon class="cls-5" points="22.79 25.68 22.79 24.41 24.19 25.05 22.79 25.68"/>
    <polygon class="cls-7" points="22.84 25.09 22.84 25.54 23.83 25.1 22.84 25.09"/>
    <polyline class="cls-7" points="23.83 24.99 22.84 25.01 22.84 24.55"/>
    <polygon class="cls-7" points="25.11 24.86 25.48 24.69 26.5 25.02 25.48 25.32 25.11 25.1 25.11 24.86"/>
    <polygon class="cls-7" points="28.6 25.22 28.23 25.39 27.21 25.07 28.23 24.76 28.6 24.99 28.6 25.22"/>
    <polygon class="cls-7" points="30.84 26.17 28.23 25.07 30.84 23.89 30.84 26.17"/>
    <polygon class="cls-7" points="1.59 24.88 1.96 24.71 2.99 25.04 1.96 25.35 1.59 25.12 1.59 24.88"/>
    <polyline class="cls-7" points="3.21 26.55 3.08 26.15 2.37 26.55 2.99 25.84 2.37 26.24 2.59 25.84 2.37 25.93 2.37 25.54 3.25 25.22 4.18 25.55 4.18 25.93 3.96 25.84 4.18 26.24 3.61 25.88 4.18 26.55 3.48 26.15 3.39 26.55 3.3 26.81"/>
    <polygon class="cls-3" points="2.99 25.69 3.28 25.35 3.55 25.7 3.28 26.08 2.99 25.69"/>
    <polyline class="cls-7" points="3.33 23.47 3.47 23.86 4.17 23.47 3.55 24.17 4.17 23.78 3.95 24.17 4.17 24.09 4.17 24.47 3.29 24.79 2.36 24.46 2.36 24.09 2.58 24.17 2.36 23.78 2.94 24.13 2.36 23.47 3.07 23.86 3.16 23.47 3.25 23.2"/>
    <polygon class="cls-3" points="3.56 24.32 3.27 24.67 2.99 24.32 3.27 23.93 3.56 24.32"/>
    <polygon class="cls-7" points="5.09 25.23 4.72 25.41 3.7 25.08 4.72 24.77 5.09 25 5.09 25.23"/>
  </g>
</svg>