<svg id="Livello_1" data-name="Livello 1" xmlns="http://www.w3.org/2000/svg" viewBox="0 0 30 30"><defs><style>.cls-1{fill:#010101;}.cls-2,.cls-3{fill:none;}.cls-3{stroke:#000;stroke-miterlimit:10;stroke-width:0.5px;}.cls-4{fill:#d1d1d1;}</style></defs><path class="cls-1" d="M15.26,6.05c-4.74,0-8.76,4.67-7.55,9.25a29.17,29.17,0,0,0,1,3.06,2,2,0,0,0,.22,2.45,5.78,5.78,0,0,0,1.71,1.25c.5-.08,2-.16,1.89,1.41q.27.11.54.18V23h.22v.68a7,7,0,0,0,1,.18V23h.22v.88c.3,0,.61,0,.93,0h0V23h.22V24q.48,0,.93-.06V23h.22v.82a4.94,4.94,0,0,0,.9-.19V23h.22v.57l.38-.14c-.25-2,1.73-1.63,2-1.58a5.34,5.34,0,0,0,1.82-1.28,2,2,0,0,0,.15-2.53s0,0-.07-.06c.25-.72.46-1.5.67-2.36A8.1,8.1,0,0,0,15.26,6.05ZM13.45,17.79c-.82.6-1.7,1.73-2.79,1.07s-1.11-3.08-.47-4,3.68-.63,4.09.07A2.76,2.76,0,0,1,13.45,17.79Zm2.89,2.91c-.1.31-.72-.09-1-.29-.28.2-.9.6-1,.29a12.08,12.08,0,0,1,.78-3,.33.33,0,0,1,.12-.14.08.08,0,0,1,.09-.05h0a.08.08,0,0,1,.09.05.33.33,0,0,1,.12.14A12.08,12.08,0,0,1,16.34,20.7Zm3.87-2c-1,.73-2-.35-2.85-.88a2.76,2.76,0,0,1-1-2.85c.36-.72,3.48-1.12,4.08-.34S21.25,17.94,20.21,18.67Z"/><path class="cls-2" d="M3,3.09H27v24H3Z"/><circle class="cls-3" cx="15" cy="15" r="12.5"/><path class="cls-4" d="M15,2.5A12.5,12.5,0,1,1,2.5,15,12.5,12.5,0,0,1,15,2.5M15,1A14,14,0,1,0,29,15,14,14,0,0,0,15,1Z"/></svg>