<svg id="Livello_1" data-name="Livello 1" xmlns="http://www.w3.org/2000/svg" viewBox="0 0 30 30"><defs><style>.cls-1{fill:#5d6060;}.cls-2{fill:#030303;}.cls-3{fill:#131213;}.cls-4{fill:#312f30;}.cls-5{fill:#fea7b8;}.cls-6{fill:#8eb8e8;}.cls-7{fill:#cdcdd1;}.cls-8{fill:#fda7b8;}.cls-9{fill:#acabae;}.cls-10{fill:#c6c6c8;}.cls-11{fill:#faa8b8;}.cls-12{fill:#bebec3;}.cls-13{fill:#9a9a9f;}.cls-14{fill:#b6b6b8;}.cls-15{fill:#e2e2e4;}.cls-16{fill:#f8f8f9;}.cls-17{fill:#ececee;}.cls-18{fill:#d8d8da;}.cls-19{fill:#e0e0e3;}.cls-20{fill:#f2f2f3;}.cls-21{fill:#fca7b8;}.cls-22{fill:#acacb0;}.cls-23{fill:#fcfcfc;}.cls-24{fill:#dadadd;}.cls-25{fill:#e5e5e8;}.cls-26{fill:#c8c8cd;}.cls-27{fill:#9a999f;}.cls-28{fill:#bfbfc1;}.cls-29{fill:#fafafb;}.cls-30{fill:#d6d6d8;}.cls-31{fill:#fbaab9;}.cls-32{fill:#facf63;}.cls-33{fill:#bdbec2;}.cls-34{fill:#bebcc2;}.cls-35{fill:#bbbbc0;}.cls-36{fill:#facf64;}.cls-37{fill:#d1d1d3;}.cls-38{fill:#acacb1;}.cls-39{fill:#afafb1;}.cls-40{fill:#9d9da1;}.cls-41{fill:#8fb9e7;}.cls-42{fill:#f7ce64;}.cls-43{fill:#8db8e5;}.cls-44{fill:#a7a6ab;}.cls-45{fill:#c4c3c8;}.cls-46{fill:#eaeaec;}.cls-47{fill:#dfdfe1;}.cls-48{fill:#f0eff0;}.cls-49{fill:#e4e4e5;}.cls-50{fill:#9f9ea3;}.cls-51{fill:#a09fa4;}.cls-52{fill:#f4f4f6;}.cls-53{fill:#f0c961;}.cls-54{fill:#aeafb3;}.cls-55{fill:#eac860;}.cls-56{fill:#d9d9db;}.cls-57{fill:#b6b5b8;}.cls-58{fill:#f7f7f8;}.cls-59{fill:#9f9fa4;}.cls-60{fill:#cacacc;}.cls-61{fill:#cdcccf;}.cls-62{fill:#f5aaba;}.cls-63{fill:#514947;}.cls-64{fill:#dddddf;}.cls-65{fill:#a6a5aa;}.cls-66{fill:#b8b9bd;}.cls-67{fill:#c9c8ce;}.cls-68{fill:#babbbd;}.cls-69{fill:#d2d1d5;}.cls-70{fill:#3f464f;}.cls-71{fill:#bdbdbf;}.cls-72{fill:#ddc562;}.cls-73{fill:#404853;}.cls-74{fill:#8daed5;}.cls-75{fill:#556b81;}.cls-76{fill:#abacae;}.cls-77{fill:#7d7d7c;}.cls-78{fill:#855c67;}.cls-79{fill:#3d3d3f;}.cls-80{fill:#9c9b9f;}.cls-81{fill:#c5c3c2;}.cls-82{fill:#a9a8ad;}.cls-83{fill:#fdd064;}.cls-84{fill:#fccf63;}.cls-85{fill:#757577;}.cls-86{fill:#0a0a0a;}.cls-87{fill:#0c0c0e;}.cls-88{fill:#d4d3d4;}.cls-89{fill:#d0d0d0;}.cls-90{fill:#d1d1d1;}</style></defs><circle class="cls-1" cx="15" cy="15" r="12.5"/><path class="cls-2" d="M18.37,6c.16,0,.1.12.11.2s-.13.23-.21.34a2.27,2.27,0,0,0-.4.69l0,0a4,4,0,0,0-.62,1c-.24.44-.67.72-.88,1.18a2,2,0,0,1-.51.57l-.08.06c-.19.2-.18.32.05.47a3,3,0,0,0,1,.44,1.59,1.59,0,0,0,1.48-.43l.45-.44c0,.25-.18.42-.24.63a4.26,4.26,0,0,1-.52.52,2.63,2.63,0,0,1-1,.37,2.28,2.28,0,0,1-.69,0,2.76,2.76,0,0,1-1.3-.44.46.46,0,0,0-.14-.07.18.18,0,0,0-.21,0c-.05.06,0,.1,0,.16.08.53.58.63.93.88.07,0,.13.13.23.13a4.88,4.88,0,0,1,1.08.89,2,2,0,0,1,.54,1.39,1.67,1.67,0,0,1-.17.68c0,.06-.06.11-.15.1s-.13-.07-.09-.16a1.16,1.16,0,0,0,0-.18,1,1,0,0,0-.55-1.1,3.07,3.07,0,0,0-1-.38,3.31,3.31,0,0,0,.29.53c.22.36.46.72.69,1.08a.81.81,0,0,1,.1.21c0,.16.16.26.25.38a3.29,3.29,0,0,1,.52.81,2,2,0,0,1,0,.26,3.18,3.18,0,0,1-.69,1.12,1,1,0,0,1-1.28.16,1.1,1.1,0,0,1-.47-.29,2.65,2.65,0,0,0-1.3-.71,13.72,13.72,0,0,1-1.53-.51c-.13-.05-.17,0-.15.12.07.47.15.94.21,1.41,0,.12.1.18.21.21.27.08.54.14.82.2l.11,0c.05,0,.12,0,.12.1s-.08.06-.13.07a3.28,3.28,0,0,1-.94.05c-.15,0-.19.05-.14.19,0,.54.06,1.07.06,1.61,0,.35,0,.7-.06,1,0,.15-.07.31-.12.46s-.15.29-.35.25-.1,0-.09.1a4.9,4.9,0,0,1,0,1.21,7.59,7.59,0,0,1-.94,2.12,2,2,0,0,0-.27.65c-.08.09-.08,0-.08,0,0-.33,0-.66,0-1,0,0,0-.09,0-.13s0-.2.17-.17a.21.21,0,0,0,.2-.06l.12-.1s.07-.08.07-.12a4.68,4.68,0,0,0,.08-1.24,5.53,5.53,0,0,0-1.64-2.9C8.86,20,8.25,19.51,7.64,19a.07.07,0,0,0-.07,0,1.48,1.48,0,0,0,.42.74c.23.27.45.54.68.79s.54.51.79.78a5.69,5.69,0,0,1,1.14,1.57A3.92,3.92,0,0,1,11,24c0,.06,0,.14,0,.16s-.09,0-.12-.09a.57.57,0,0,0-.12-.15.12.12,0,0,1,0-.08.87.87,0,0,0-.06-.32,4.73,4.73,0,0,0-1.34-2,7.92,7.92,0,0,1,1.26,2.06c0,.08,0,.15-.09.15s-.34,0-.45-.14a12.45,12.45,0,0,0-1-1.16,2.62,2.62,0,0,0,.59.95,1.45,1.45,0,0,1,.19.23c0,.09.13.14.15.24s0,.22-.18.14A9.21,9.21,0,0,0,8.94,23a1.42,1.42,0,0,1-.31-.84.4.4,0,0,0-.09-.27,4,4,0,0,1-.64-1.24,2.8,2.8,0,0,1,0-.58.17.17,0,0,0-.07-.18,2.6,2.6,0,0,1-.46-.72.58.58,0,0,1-.08-.33.9.9,0,0,0-.2-.63,7.25,7.25,0,0,1-.7-2,7.83,7.83,0,0,1,.16-3c0-.08,0-.17.05-.25a4.71,4.71,0,0,1,.16-.62,2.16,2.16,0,0,1,.52-.74,20.39,20.39,0,0,1,2-1l.2-.13c.07-.11.2-.15.3-.22a.18.18,0,0,0,.07-.24c-.06-.16-.13-.31-.18-.47A7.1,7.1,0,0,1,9.84,7.8.23.23,0,0,1,10,7.62c.07-.21.12-.42.19-.63s.18-.27.37-.18a4,4,0,0,1,.52.57,3.92,3.92,0,0,1,.55,1.47c0,.15.08.23.25.21s.28.11.4,0,0-.26,0-.4a1.64,1.64,0,0,1,.24-.52c.11-.17.2-.34.31-.5s.15-.19.3-.15a3.79,3.79,0,0,1,.25.74c0,.08,0,.16.09.28a1.43,1.43,0,0,0,.29-1.32,1.44,1.44,0,0,1,.57,1.08,1.86,1.86,0,0,1-.12.81c0,.08-.06.15,0,.22s.12,0,.18-.06a2.89,2.89,0,0,0,.79-.65c.31-.3.68-.56,1-.86a2.1,2.1,0,0,0,.47-.47.55.55,0,0,1,.2-.17C17.42,6.79,17.82,6.3,18.37,6Z"/><path class="cls-3" d="M10.83,25a.17.17,0,0,1-.22.09c-.18-.05-.19,0-.18.17a.21.21,0,0,1,0,.08l0,0c0-.09,0-.24-.11-.24s-.09.14-.14.21,0,.21-.17.33v-.75a.09.09,0,0,1,0-.12c.11,0,.15.07.23.09A1,1,0,0,0,10.83,25Z"/><path class="cls-4" d="M10,24.73v.13a1.12,1.12,0,0,1-.32-.93c.2.08.08-.14.16-.16a.05.05,0,0,1,.07,0c0,.1,0,.19-.05.29s.1.34.14.51A.17.17,0,0,1,10,24.73Z"/><path class="cls-5" d="M9.28,12a2.19,2.19,0,0,0,.42,1.29c.05.08,0,.17,0,.25a5,5,0,0,0,0,2.49,3.48,3.48,0,0,0,2.11,2.3.67.67,0,0,1,.29.15,4.42,4.42,0,0,1-2.71-1.11,2.8,2.8,0,0,1-.81-1.72,5.68,5.68,0,0,1,.52-3.46C9.16,12.17,9.17,12.09,9.28,12Z"/><path class="cls-6" d="M11.31,24.09A4.33,4.33,0,0,0,11,22.35a5.3,5.3,0,0,0-1.08-1.61A18.59,18.59,0,0,0,8,19a3.36,3.36,0,0,1-1-1.4c0-.09-.07-.19-.12-.28s0-.09,0-.12.08,0,.12,0l.75.67A25.78,25.78,0,0,1,10,20a6,6,0,0,1,1.44,2.57A2.33,2.33,0,0,1,11.31,24.09Z"/><path class="cls-7" d="M12.69,16.47a1.86,1.86,0,0,1-1.3-.72.08.08,0,0,1,.11,0c.15.13.26,0,.38,0a.46.46,0,0,1,.45-.09.14.14,0,0,1,.08.09,2,2,0,0,1,.17-.46c.05-.1.15-.12.25-.15s.24,0,.33-.13,0-.08.08-.09c.36-.17.66-.45,1-.64s.4-.27.62-.38a.48.48,0,0,0,.24-.23c0-.07.08-.06.12,0a3.76,3.76,0,0,1,.36.61s0,.08,0,.11.08.23,0,.34a.74.74,0,0,1-.19.16c-.64.31-1.21.76-1.83,1.13A7.73,7.73,0,0,1,12.69,16.47Z"/><path class="cls-8" d="M17.72,11.16a2.51,2.51,0,0,1-2.41-.08A12.82,12.82,0,0,0,12.52,10c-.2-.05-.2-.2-.21-.36a.38.38,0,0,1,.3-.42,1.74,1.74,0,0,1,1.53.27l1.11.87a4,4,0,0,0,1.44.78,1.71,1.71,0,0,0,.95,0S17.72,11.09,17.72,11.16Z"/><path class="cls-6" d="M9.74,13a2.07,2.07,0,0,1,0-2.16A3.69,3.69,0,0,1,11.17,9.4a1.13,1.13,0,0,1,.74-.13c.11,0,.17.05.17.19a1.15,1.15,0,0,0,.1.48.21.21,0,0,1,0,.25A2,2,0,0,1,11,11a2.91,2.91,0,0,0-.39.12,1.23,1.23,0,0,0-.82,1.09,3.37,3.37,0,0,0,0,.71S9.84,13,9.74,13Z"/><path class="cls-6" d="M8.22,16.06C8.06,16.11,8,16,7.89,16a1.4,1.4,0,0,1-.95-1.07c-.06-.31-.17-.61-.23-.92a.61.61,0,0,1,.07-.45l.28.39c0-.27,0-.53,0-.79A1.47,1.47,0,0,1,8,12l1.12-.24a7.83,7.83,0,0,0-.41.82s-.1.07-.15.1-.35.21-.52.33a1.78,1.78,0,0,0-.75,1.74,1.49,1.49,0,0,0,.6,1C8,15.89,8.1,16,8.22,16.06Z"/><path class="cls-9" d="M13.94,11.08l.42.07c.17,0,.12.2.18.3s0,.09-.07.05-.2,0-.29,0c-.31.19-.61.42-.92.61s-.63.42-1,.58a1.39,1.39,0,0,0-.34.24.44.44,0,0,0-.09.11.41.41,0,0,1-.42.28.28.28,0,0,0-.13,0l-.27.14c-.12.06-.24.13-.19.3s0,.05-.05,0a1.81,1.81,0,0,1-.41-.32c-.15-.13,0-.28,0-.42s0,.08.06,0a17.61,17.61,0,0,1,2.11-1.41l1-.64a.21.21,0,0,1,.17,0C13.77,11.08,13.85,11.14,13.94,11.08Z"/><path class="cls-10" d="M10.63,12.44a4.49,4.49,0,0,1,.53-.87.46.46,0,0,1,.14-.2l.08-.08s0,.06-.08.08-.1.13-.18.15a4.06,4.06,0,0,0-1,1.61,1.47,1.47,0,0,1,.41-1.77,1.87,1.87,0,0,1,.51-.2,2.07,2.07,0,0,0,1.28-.86.22.22,0,0,1,.29-.1c.16.05.33.11.5.15s.14.09.07.19-.07.14-.11.22c0,.29-.24.32-.4.4-.33.14-.57.39-.89.54a8.65,8.65,0,0,0-.76.47,1.18,1.18,0,0,0-.25.3s-.06.09-.12,0S10.62,12.47,10.63,12.44Z"/><path class="cls-11" d="M10.91,24a4.62,4.62,0,0,0-.43-1.3A7.76,7.76,0,0,0,8.9,20.78a11.06,11.06,0,0,1-1.18-1.37,1.12,1.12,0,0,1-.23-.62l.77.66a13.58,13.58,0,0,1,2,2.05,4.34,4.34,0,0,1,.86,2,3.58,3.58,0,0,1,0,.57s0,.1,0,.11-.08,0-.09-.09S10.94,24,10.91,24Z"/><path class="cls-12" d="M15.23,13.61c-.14,0-.12.15-.21.21s-.45.26-.66.4a11.05,11.05,0,0,1-1.09.68.09.09,0,0,0-.06.09.57.57,0,0,1-.45-.81c-.12,0-.18.09-.27.07s-.07-.09,0-.14a.48.48,0,0,1,.11-.09A1,1,0,0,0,13,13.6c.18.05.34.14.53.18s.38-.07.37-.32a1.27,1.27,0,0,1,0-.28s0-.08.05-.08a2.58,2.58,0,0,0,.87-.49c.06,0,0,.12.05.16C14.92,13.07,15.11,13.32,15.23,13.61Z"/><path class="cls-13" d="M11.92,12.94a.3.3,0,0,1,.12-.13c.33-.19.66-.37,1-.57s.69-.46,1-.69c.15-.09.29-.28.48-.06v0a2.19,2.19,0,0,1,.2.8c-.06,0-.13,0-.2,0a5.52,5.52,0,0,1-1,.63,1.51,1.51,0,0,0-.41.06.45.45,0,0,0-.34.39c-.09.13-.18.24-.36.13a.37.37,0,0,0-.2-.09A.37.37,0,0,1,11.92,12.94Z"/><path class="cls-14" d="M10.63,12.44s0,.09.06,0c.19-.4.61-.53,1-.76s.41-.23.6-.38A1.79,1.79,0,0,1,13,11c.11,0,0-.17.1-.21s0,.12,0,.17,0,.09.07.07a1.47,1.47,0,0,1,.83.08c0,.14-.15,0-.22,0s-.13,0-.19.06-.25.14-.37.22a10.77,10.77,0,0,1-1.28.83c-.46.25-.86.6-1.3.87a1.41,1.41,0,0,0-.18.14v-.11A1.68,1.68,0,0,1,10.63,12.44Z"/><path class="cls-15" d="M14.46,17.09a6.5,6.5,0,0,0-.85-.28s-.08,0-.08-.07.06-.06.1-.06a.55.55,0,0,0,.46-.2,2.9,2.9,0,0,1,.66-.38,6.66,6.66,0,0,0,.82-.57.75.75,0,0,1,.17-.14.63.63,0,0,0,.34-.34,2.12,2.12,0,0,1,.44.62c0,.2-.16.29-.32.38a16.07,16.07,0,0,0-1.4.92A.73.73,0,0,1,14.46,17.09Z"/><path class="cls-16" d="M16.92,16.19c.32.37.34.51.13.92a2.52,2.52,0,0,1-.51.7.75.75,0,0,1-1,.08,3.19,3.19,0,0,1-.5-.39c0-.12.09-.09.13-.05s.17,0,.25,0A3.12,3.12,0,0,1,16,17a.2.2,0,0,0,.11-.27c0-.1-.06-.2,0-.29s.07.12.11.17.07.13.15.11.09-.1.11-.17a.78.78,0,0,0,0-.14c0-.14.07-.17.17-.07s.07.11.13.05,0-.1,0-.14v0s-.08-.1,0-.14S16.88,16.17,16.92,16.19Z"/><path class="cls-17" d="M16.92,16.19l-.1-.05c0,.07,0,.09.07.13s0,.17,0,.23-.09-.06-.14-.06-.09-.26-.13,0c-.07,0-.07-.06-.1-.1s-.08-.14-.17-.1-.07.11-.06.19,0,.17,0,.24,0-.1-.07-.17a.33.33,0,0,0,0,.24.22.22,0,0,1-.13.33,3.07,3.07,0,0,0-.66.42c-.11.07-.17.1-.26,0s-.08-.05-.11,0l-.56-.41V17c.2.08.33-.08.45-.18A12.27,12.27,0,0,1,16.19,16a1.48,1.48,0,0,0,.33-.33c0,.05.09.08.08.15s.1.17.2.21A.28.28,0,0,1,16.92,16.19Z"/><path class="cls-18" d="M12.69,16.47a.14.14,0,0,1,.11-.13,4,4,0,0,0,1-.56A12.42,12.42,0,0,0,15,15c.15-.12.37-.13.51-.28s.22-.21.07-.37,0-.07,0-.1c.07.14.21.24.25.4s0,0,0,0c.1.33.11.34-.18.53a3.92,3.92,0,0,1-.89.56,2.07,2.07,0,0,0-.53.36,3,3,0,0,1-1.13.54A.84.84,0,0,1,12.69,16.47Z"/><path class="cls-19" d="M10.5,19.62l-.75-1c0-.08,0-.11.06-.09a.42.42,0,0,0,.46-.23s.05-.1.12-.05a8,8,0,0,0,1.37.4c-.09,0-.17,0-.24,0a1,1,0,0,1,.28,0c.13,0,.16.12.06.19a11.11,11.11,0,0,1-1,.75C10.68,19.75,10.6,19.66,10.5,19.62Z"/><path class="cls-20" d="M10.5,19.62c.38.1.6-.19.87-.36s.25-.26.42-.32.09-.05.08-.1-.07-.06-.12-.07l-.38-.08h.39c.06.08.25,0,.25.15s0,.31,0,.46a7.86,7.86,0,0,1,0,1.61c-.09-.09-.05-.21-.06-.32a1.92,1.92,0,0,0,0-.24c0-.07,0-.15,0-.18s-.14,0-.19.08l-.2.17c-.28.22-.4.21-.65-.07Z"/><path class="cls-21" d="M17.25,14.23a2.49,2.49,0,0,0-1.71-.94.28.28,0,0,1-.24-.18,5.23,5.23,0,0,1-.37-1s0-.09,0-.16a5.75,5.75,0,0,1,2.12,1.73A1.62,1.62,0,0,1,17.25,14.23Z"/><path class="cls-22" d="M12.44,13.45c.18.15.21-.09.33-.12s.2.14.19.29-.23.3-.36.44-.17,0-.11.16-.21.17-.36.14a2.65,2.65,0,0,0-.3-.11c0,.1,0,.2,0,.29s-.08.12-.14.16-.4.23-.61.33a.25.25,0,0,0-.11.12c-.11-.08-.1,0-.09.08s.06.31.08.47a2.3,2.3,0,0,1-.55-.91c0-.07,0-.16.09-.12a.2.2,0,0,0,.18-.05,9.45,9.45,0,0,1,.86-.53s.11-.05.07-.13c.16-.21.31,0,.48,0C12.12,13.73,12.12,13.48,12.44,13.45Z"/><path class="cls-23" d="M11,20.35s0-.09.05,0c.23.26.35.27.61,0a1.49,1.49,0,0,1,.27-.23c.14-.07.21-.08.2.11s0,.45,0,.68h0c-.07.16,0,.33,0,.5a2.09,2.09,0,0,1-.08.49c0,.09,0,.21-.15.21a.28.28,0,0,1-.24-.22c-.05-.16-.1-.33-.16-.49A9.88,9.88,0,0,0,11,20.35Z"/><path class="cls-24" d="M13.09,16.64s0-.07.06-.08a3,3,0,0,0,1.26-.66,3,3,0,0,1,.49-.28,5.91,5.91,0,0,0,.93-.64c.06,0,0-.09,0-.14s-.09-.14,0-.22a2.61,2.61,0,0,1,.24.43.28.28,0,0,1-.21.32,2,2,0,0,0-.55.41,3.8,3.8,0,0,1-.93.55c-.15.07-.25.23-.42.3s-.2.15-.36.1,0,.05,0,.08Z"/><path class="cls-25" d="M10.12,10A1.65,1.65,0,0,1,9.93,9a14.7,14.7,0,0,1,.35-1.85c.07-.25.11-.26.29-.07a2.86,2.86,0,0,1,.69,1.25c.05.2.09.41.15.61s0,.12-.07.15-.19.06-.19-.11a2.4,2.4,0,0,0-.57-1.62c-.15-.16-.16-.16-.23,0a4.2,4.2,0,0,0-.18.87,1.35,1.35,0,0,0,.28,1.11c.09.09.1.17,0,.26A3.5,3.5,0,0,0,10.12,10Z"/><path class="cls-26" d="M10.55,17.21a2.38,2.38,0,0,1-.48-.81s0-.08,0-.11.09,0,.12,0,.13.06.21,0l.28-.15a.22.22,0,0,0,.14-.22s0-.1.06-.1a5,5,0,0,1,.57.73c0,.11.11.12.16.2s.08.13,0,.16a2.16,2.16,0,0,0-.59.29c-.14.09-.24.13-.36,0A.06.06,0,0,0,10.55,17.21Z"/><path class="cls-27" d="M11.64,14s.1,0,.1,0a.21.21,0,0,1-.09.1,5.17,5.17,0,0,0-.93.55c-.07.05-.14.11-.23.05s-.05,0-.05,0v.06a1.84,1.84,0,0,1-.16-.73c0-.1,0-.12.12-.1a1.34,1.34,0,0,0,.49,0c0-.09-.09-.09-.09-.15,0-.25.12-.4.48-.49.22.1.29.2.24.41S11.53,14,11.64,14Z"/><path class="cls-28" d="M7.53,14.25A1.32,1.32,0,0,1,8,13.32a3,3,0,0,1,.62-.41A8.4,8.4,0,0,0,8.38,14c0,.12,0,.25-.06.37a1.28,1.28,0,0,1,0,.19c-.05,0-.08,0-.08-.05s-.14-.12-.24-.06a1.53,1.53,0,0,0-.33.29s-.06.08-.12.06,0-.07,0-.11A2.36,2.36,0,0,1,7.53,14.25Z"/><path class="cls-29" d="M7.12,16.93a2.39,2.39,0,0,1-.62-1.4,3.08,3.08,0,0,1,.09-1.13,9.68,9.68,0,0,0,.78,2c-.11.15-.08.35-.15.52S7.17,17,7.12,16.93Z"/><path class="cls-30" d="M10.55,17.21c0-.13.09,0,.11,0s.15.09.26,0a1.77,1.77,0,0,1,.68-.32c0-.14-.23-.15-.16-.31a.79.79,0,0,1,.38.62,8.24,8.24,0,0,0,.11.85c0,.11,0,.14-.11.09A3.6,3.6,0,0,1,10.55,17.21Z"/><path class="cls-31" d="M10.49,7.54a1.5,1.5,0,0,1,.35.57,2.84,2.84,0,0,1,.17,1,.48.48,0,0,1-.31.35l-.07,0a1.52,1.52,0,0,1-.3-.54A2.73,2.73,0,0,1,10.49,7.54Z"/><path class="cls-32" d="M16.21,9.29a2.6,2.6,0,0,1-.62.62.49.49,0,0,1-.65-.06c-.12-.09-.23-.19-.35-.27s-.09-.15,0-.22a.55.55,0,0,1,.59-.11,1.31,1.31,0,0,0,.71.06Z"/><path class="cls-33" d="M11,15.15c0-.06,0-.11.07-.15s.45-.25.68-.37c0,0,.06-.05.06-.09s.09.17,0,.27a1,1,0,0,1-.17.24c-.07.07-.06.11.05.12h.15a.42.42,0,0,1,.44.45.58.58,0,0,0-.49.16c-.12.12-.2.13-.31,0s-.09,0-.13-.05A2.73,2.73,0,0,1,11,15.15Z"/><path class="cls-34" d="M8.62,16.56a5.27,5.27,0,0,0,.53.88c0,.07,0,.09.06.13s0,.11,0,.15-.06.18,0,.26.12.09.07.18A13.53,13.53,0,0,1,7.94,16.8c0-.09.06-.07.1-.08s.31-.07.37-.25S8.54,16.4,8.62,16.56Z"/><path class="cls-35" d="M10.87,15.87c0,.1,0,.24-.07.31a4.3,4.3,0,0,1-.52.28c-.08,0-.13-.1-.2-.17v.11a2,2,0,0,1-.21-.63.38.38,0,0,1,0-.21c.2,0,.32,0,.47-.21,0,0,.05-.14.13,0A3.17,3.17,0,0,1,10.87,15.87Z"/><path class="cls-36" d="M16.84,8.44A1.26,1.26,0,0,1,15.26,9c-.09,0-.1-.06,0-.12a1.34,1.34,0,0,1,.53-.42s.06,0,.08,0A2,2,0,0,0,16.84,8.44Z"/><path class="cls-37" d="M9.31,18.16A.25.25,0,0,0,9.18,18c-.1-.09-.17-.16,0-.28s0-.14-.06-.2-.08-.1,0-.07a4.39,4.39,0,0,0,1.07.75l.17.1c-.11.08-.13.23-.29.29s-.18.11-.3,0,0,0-.05.05Z"/><path class="cls-38" d="M13.53,12.89a.27.27,0,0,1,.14-.12,3.37,3.37,0,0,0,.88-.56c.11-.09.14,0,.19,0a1.82,1.82,0,0,1,.08.52c-.05,0,0-.08,0-.1-.28.14-.48.43-.83.45,0,0,0,0-.06.06A1.12,1.12,0,0,1,13.53,12.89Z"/><path class="cls-39" d="M7.53,14.25v.53A2.17,2.17,0,0,1,8,14.4c.2-.12.22-.11.25.11a.16.16,0,0,0,0,.07,2.72,2.72,0,0,1,0,.57c0,.06,0,.1-.08.08a.56.56,0,0,0-.38.08c.11.12.11.13,0,.16A1.25,1.25,0,0,1,7.53,14.25Z"/><path class="cls-40" d="M9.82,15.56a4.8,4.8,0,0,1,0-1.69s0-.1.08-.09.13.05.14.14.06.33.1.49.11.38.17.58a.6.6,0,0,1-.31.28C9.85,15.32,9.91,15.49,9.82,15.56Z"/><path class="cls-41" d="M10.43,23.53a10.26,10.26,0,0,0-1.31-2.18,4.31,4.31,0,0,1,1.48,2.13c0,.06,0,.13,0,.16S10.48,23.57,10.43,23.53Z"/><path class="cls-42" d="M16,8.27a.82.82,0,0,1,.87-.51h.22c.05,0,.14,0,.16,0s0,.14-.08.19A1.4,1.4,0,0,1,16,8.27Z"/><path class="cls-43" d="M9.66,23.57a3.68,3.68,0,0,1-.8-1.18c0-.05-.06-.08,0-.12s.08,0,.09.05a7.51,7.51,0,0,1,1,1.17c.05.09,0,.14-.08.18S9.73,23.62,9.66,23.57Z"/><path class="cls-44" d="M8.62,16.56c-.07,0-.14-.26-.19,0,0,.09-.19.15-.31.18s-.13,0-.18,0a4.09,4.09,0,0,1-.54-.87,5.44,5.44,0,0,0,1.12.47C8.6,16.42,8.62,16.48,8.62,16.56Z"/><path class="cls-45" d="M8.3,17.52a3,3,0,0,1,.6.53.15.15,0,0,1,0,.17.35.35,0,0,0,0,.34s0,.1-.05.1a9.63,9.63,0,0,1-.83-.73A2,2,0,0,1,8.3,17.52Z"/><path class="cls-46" d="M7.12,16.93a.2.2,0,0,0,.09-.17.39.39,0,0,1,.16-.41l.45.65c0,.12-.05.25-.06.38s-.08.15-.18.06A2.79,2.79,0,0,1,7.12,16.93Z"/><path class="cls-47" d="M13.61,8.66A1.45,1.45,0,0,0,14,7.83a.66.66,0,0,1,.14.38,2.07,2.07,0,0,1-.07.74c-.05.16-.12.22-.28.12a.25.25,0,0,0-.09,0A.35.35,0,0,1,13.61,8.66Z"/><path class="cls-48" d="M10.83,25a.61.61,0,0,1-.64-.14c-.14-.15-.14-.17,0-.22a1,1,0,0,0,.41-.27.45.45,0,0,1,.2,0c.23.11.25.28.07.56Z"/><path class="cls-49" d="M7.9,11.85c-.16.09-.35.1-.51.2a1.22,1.22,0,0,0-.46.79,1.57,1.57,0,0,0,0,.23c-.2-.42.18-1.21.84-1.59,0,0,.1,0,.09,0S7.84,11.74,7.9,11.85Z"/><path class="cls-18" d="M7.58,17.44c.14,0,.17-.05.15-.15s-.05-.23.09-.29l.48.52c-.05.14,0,.32-.2.41A3.46,3.46,0,0,1,7.58,17.44Z"/><path class="cls-50" d="M7.85,15.47s.05,0,.05,0c0-.26.11-.36.4-.25v-.82a0,0,0,0,1,0,0,6.41,6.41,0,0,0,.11,1.56A2.24,2.24,0,0,1,7.85,15.47Z"/><path class="cls-51" d="M8.93,18.66s.06-.05,0-.07-.12-.28-.05-.44,0-.06,0-.1a3.52,3.52,0,0,1,.53.56c.13.24.12.31-.09.41A2.35,2.35,0,0,1,8.93,18.66Z"/><path class="cls-52" d="M8.44,21.4a1.73,1.73,0,0,1-.33-1.2,5.64,5.64,0,0,1,.51.63,1.83,1.83,0,0,0-.09.52S8.5,21.42,8.44,21.4Z"/><path class="cls-24" d="M10.84,20.75a8.76,8.76,0,0,0-1-1.25c0-.1,0-.21.12-.24a7,7,0,0,1,.93,1.4C10.9,20.71,10.9,20.75,10.84,20.75Z"/><path class="cls-53" d="M17,7.57c-.07,0-.2,0-.23-.08s.08-.14.14-.19a.65.65,0,0,1,.61-.19c.17,0,.14.08.06.18A.67.67,0,0,1,17,7.57Z"/><path class="cls-54" d="M9.82,15.56a.3.3,0,0,1,.25-.37c.11,0,.11-.19.24-.2s.15.19.16.32c0,0-.06,0-.08,0s-.21.23-.35.31-.12,0-.16-.08l0,.19A.52.52,0,0,1,9.82,15.56Z"/><path class="cls-15" d="M8.44,21.4c.1-.09.05-.2.05-.29a.29.29,0,0,1,.13-.28c.15.18.14.43.28.61a.81.81,0,0,0,0,.35c0,.06,0,.08-.08,0A1.58,1.58,0,0,1,8.44,21.4Z"/><path class="cls-55" d="M14.58,10.92a.7.7,0,0,1-.48,0,3.8,3.8,0,0,0-.67-.14s-.16,0-.13-.07,0-.25.19-.2C13.84,10.61,14.18,10.76,14.58,10.92Z"/><path class="cls-56" d="M12.78,8.13a5.06,5.06,0,0,0,.09.68c0,.21-.17.15-.26.19s-.13-.06-.14-.13A1.13,1.13,0,0,1,12.78,8.13Z"/><path class="cls-57" d="M10,19.26c-.06.07,0,.17-.12.24L9.34,19c.11-.11.2-.22.06-.36l0-.05A3,3,0,0,1,10,19.26Z"/><path class="cls-58" d="M10.63,23.81l0,0a.36.36,0,0,1,.12.28c-.13.19-.18.17-.38.06s-.2-.29-.32-.41a.09.09,0,0,1,0-.11.41.41,0,0,1,.22,0C10.44,23.68,10.59,23.64,10.63,23.81Z"/><path class="cls-59" d="M8.33,11.19a1.18,1.18,0,0,1,.33-.12c.11.07.22.36.14.47s0,0,0,.06.05,0,.06.05a3.14,3.14,0,0,1-.61.12A.5.5,0,0,0,8.33,11.19Z"/><path class="cls-60" d="M9.31,11.32c0,.09,0,.19-.11.25-.27,0-.27,0-.27-.22a.86.86,0,0,0,0-.23c0-.1,0-.16.07-.2a.94.94,0,0,1,.24-.13.77.77,0,0,1,0,.47S9.27,11.32,9.31,11.32Z"/><path class="cls-61" d="M8.78,21.83c.05,0,.06,0,0-.07a.24.24,0,0,1,.08-.32l.33.47c.06.2,0,.25-.06.34A3.08,3.08,0,0,1,8.78,21.83Z"/><path class="cls-62" d="M13,7.84c.07.25.15.5.22.75s-.08.19-.17.22S13,8.71,13,8.65a2.15,2.15,0,0,1,0-.8Z"/><path class="cls-63" d="M10.76,24.13a1.31,1.31,0,0,0-.09-.28c.14,0,.11.2.22.25s0-.09,0-.13.06.14.15.17a3.56,3.56,0,0,0,0-.65,1.23,1.23,0,0,1,0,.54c0,.25-.09.49-.09.73a.16.16,0,0,1-.12.17.84.84,0,0,0,.06-.14c0-.16.06-.31-.14-.38S10.76,24.23,10.76,24.13Z"/><path class="cls-39" d="M9,10.92S8.9,11,8.93,11s0,.36.05.54H9.2a.6.6,0,0,1-.29.08l-.16,0a.78.78,0,0,0-.09-.56A1.33,1.33,0,0,1,9,10.92Z"/><path class="cls-64" d="M9.31,11.32s-.09.07-.08,0,0-.37,0-.55a2.3,2.3,0,0,1,.47-.25C9.58,10.83,9.39,11.05,9.31,11.32Z"/><path class="cls-65" d="M9.17,22.25c.09-.11,0-.23.06-.34a2.43,2.43,0,0,1,.44.61.27.27,0,0,1-.13.13A3.51,3.51,0,0,1,9.17,22.25Z"/><path class="cls-66" d="M8.33,11.19c.05,0,.15,0,.1.11s0,.09,0,.13.05.29-.15.34h0a.27.27,0,0,1-.13-.28.79.79,0,0,0,0-.22A.54.54,0,0,1,8.33,11.19Z"/><path class="cls-67" d="M8.12,11.27c.09,0,.07.06.06.12a.57.57,0,0,0,.08.38.28.28,0,0,1-.2,0c-.18-.1-.2-.16-.13-.45A.48.48,0,0,1,8.12,11.27Z"/><path class="cls-68" d="M9.54,22.65c0-.08.07-.1.13-.13a1.9,1.9,0,0,1,.39.76C9.9,23.05,9.7,22.87,9.54,22.65Z"/><path class="cls-69" d="M7.93,11.36s.08,0,.05.06a.29.29,0,0,0,.08.39.19.19,0,0,1-.16,0c-.15-.08-.29-.16-.11-.34l-.06,0A.41.41,0,0,1,7.93,11.36Z"/><path class="cls-70" d="M10.35,23.68h-.24a.54.54,0,0,1-.16.14.11.11,0,0,1-.08,0l0,0c-.07-.06-.15-.1-.17-.2.15.13.24.09.29-.08.1.18.31.05.45.15C10.39,23.67,10.37,23.67,10.35,23.68Z"/><path class="cls-71" d="M13.61,8.66a.8.8,0,0,0,.08.37l-.4-.09Z"/><path class="cls-72" d="M17.55,6.85A1.78,1.78,0,0,1,18,6.51C17.93,6.78,17.83,6.86,17.55,6.85Z"/><path class="cls-73" d="M10.35,23.68l.05,0c.11,0,0-.08,0-.11l.15.09,0-.14c0,.11.11.21,0,.33A.72.72,0,0,0,10.35,23.68Z"/><path class="cls-74" d="M10,13.41l.22.27c-.13,0-.31,0-.31-.22C9.93,13.43,10,13.39,10,13.41Z"/><path class="cls-75" d="M10,13.41l-.09.05c0-.19-.15-.28-.17-.44s0-.09.06-.13Z"/><path class="cls-76" d="M10.84,20.75s0-.06,0-.09.1.22.17.32S11,21,11,21Z"/><path class="cls-77" d="M11,21l.06-.05a1.08,1.08,0,0,1,.14.36A.91.91,0,0,1,11,21Z"/><path class="cls-20" d="M12.05,21.41c0-.17-.06-.34,0-.5A1.69,1.69,0,0,1,12.05,21.41Z"/><path class="cls-78" d="M17.72,11.16l-.08-.05a1.14,1.14,0,0,1,.27-.12A.26.26,0,0,1,17.72,11.16Z"/><path class="cls-16" d="M16.8,16c-.15,0-.16-.12-.2-.21S16.75,15.94,16.8,16Z"/><path class="cls-39" d="M8.34,14.38h0A1.11,1.11,0,0,1,8.38,14,1.11,1.11,0,0,1,8.34,14.38Z"/><path class="cls-79" d="M11.32,11.4l-.16.17,0-.05a.61.61,0,0,1,.15-.17S11.32,11.36,11.32,11.4Z"/><path class="cls-19" d="M12.05,19.3a.81.81,0,0,1,0-.46A1.41,1.41,0,0,1,12.05,19.3Z"/><path class="cls-80" d="M10.63,24.41a.42.42,0,0,1-.37.27c-.19,0-.13.09-.07.18s-.12-.1-.2-.13l0-.08c.08-.25.33-.23.51-.32S10.65,24.24,10.63,24.41Z"/><path class="cls-81" d="M10.48,24.37a.27.27,0,0,1-.16.08c-.12,0-.24,0-.27.18l-.09,0c0-.19-.21-.34-.16-.56s.17,0,.26,0A.64.64,0,0,0,10.48,24.37Z"/><path class="cls-82" d="M10.07,24.13l-.27,0c0-.1.08-.18.07-.28H10c.06.05.09.13.17.16s.09,0,.08.09S10.14,24.14,10.07,24.13Z"/><path class="cls-83" d="M12.32,15.63a1.19,1.19,0,0,0-.08-.16.37.37,0,0,0-.42-.25h-.16s-.1,0-.12-.05,0-.08.05-.11.13-.16.2-.23a.21.21,0,0,0,0-.29c0-.12-.08-.24,0-.37.24,0,.46.31.71.05l.09,0c.06,0,.12-.12.19-.08s0,.15,0,.22a.4.4,0,0,0,.21.52l.21.15c-.06.13-.19.11-.29.12a.43.43,0,0,0-.38.34c0,.06,0,.11-.07.17S12.38,15.72,12.32,15.63Z"/><path class="cls-84" d="M11.64,14l-.15,0c-.05,0-.1,0-.07-.07a.4.4,0,0,0-.15-.57c0-.08.09-.08.15-.08a.33.33,0,0,0,.38-.24c0-.05,0-.11.12-.11.06.25.16.45.47.44,0,0,0,0,0,.07-.19.1-.32.23-.27.47,0,0,.05.1,0,.13s-.09,0-.13,0S11.78,13.84,11.64,14Z"/><path class="cls-85" d="M11.32,11.4l-.05-.05a.39.39,0,0,1,.2-.15A.46.46,0,0,1,11.32,11.4Z"/><path class="cls-86" d="M13.53,12.89a.93.93,0,0,1,.36.29,1.84,1.84,0,0,1,0,.4.27.27,0,0,1-.36.26,1.89,1.89,0,0,1-.6-.22l-.19-.29a.23.23,0,0,1,.09-.27A.75.75,0,0,1,13.53,12.89Z"/><path class="cls-87" d="M16.24,16.67a.44.44,0,0,0,0-.25c0-.1,0-.21.08-.25a.18.18,0,0,1,.26.14.69.69,0,0,1,.05.13.31.31,0,0,1,0,.19c0,.08,0,.19-.15.2S16.3,16.73,16.24,16.67Z"/><path class="cls-88" d="M10.07,24.13l.14-.11C10,24,9.94,24,10,23.8s.08-.11.16-.11,0,.1.06.12a.11.11,0,0,1,.09.14c0,.19.21.15.27.29s.17,0,.23-.11c.05.09,0,.21.07.28h-.2c0-.14-.1,0-.15,0C10.26,24.43,10.14,24.33,10.07,24.13Z"/><path class="cls-89" d="M13.45,13.3c0,.07-.06.12-.14.11a.12.12,0,0,1-.12-.12.13.13,0,0,1,.14-.12A.13.13,0,0,1,13.45,13.3Z"/><path class="cls-90" d="M15,2.5A12.5,12.5,0,1,1,2.5,15,12.5,12.5,0,0,1,15,2.5M15,1A14,14,0,1,0,29,15,14,14,0,0,0,15,1Z"/></svg>