<svg id="Livello_1" data-name="Livello 1" xmlns="http://www.w3.org/2000/svg" xmlns:xlink="http://www.w3.org/1999/xlink" viewBox="0 0 30 30"><defs><style>.cls-1{fill:none;}.cls-2{clip-path:url(#clip-path);}.cls-3{fill:#a362a4;}.cls-4{clip-path:url(#clip-path-2);}.cls-5{clip-path:url(#clip-path-3);}.cls-6{fill:#ef88b6;}.cls-7{fill:#99d5ea;}.cls-8{fill:#fbd760;}.cls-9{fill:#fff;}.cls-10{fill:#e3e4e3;}.cls-11{clip-path:url(#clip-path-4);}.cls-12{clip-path:url(#clip-path-5);}.cls-13{clip-path:url(#clip-path-6);}.cls-14{fill:#d1d1d1;}</style><clipPath id="clip-path"><circle class="cls-1" cx="15" cy="15" r="12.5" transform="translate(-2.79 3.44) rotate(-11.98)"/></clipPath><clipPath id="clip-path-2"><rect class="cls-1" x="-6.6" y="-6.98" width="40.28" height="40.28"/></clipPath><clipPath id="clip-path-3"><rect class="cls-1" x="15.08" y="-23.79" width="39.89" height="39.71"/></clipPath><clipPath id="clip-path-4"><rect class="cls-1" x="15.08" y="15.92" width="39.89" height="39.71"/></clipPath><clipPath id="clip-path-5"><rect class="cls-1" x="-24.82" y="-23.79" width="39.89" height="39.71"/></clipPath><clipPath id="clip-path-6"><rect class="cls-1" x="-24.82" y="15.92" width="39.89" height="39.71"/></clipPath></defs><g class="cls-2"><rect class="cls-3" x="-6.6" y="-6.98" width="40.28" height="40.28"/><g class="cls-4"><g class="cls-5"><path class="cls-6" d="M30.32,16.27a.26.26,0,0,0,0,.24,1.59,1.59,0,0,0,.13.22,1.47,1.47,0,0,1,.14.28,2,2,0,0,1,.05.26.81.81,0,0,1,0,.38.62.62,0,0,1-.3.34.61.61,0,0,1-.46.06.63.63,0,0,0,.2-.46,1.29,1.29,0,0,0-.1-.51c-.05-.13-.1-.25-.14-.38a.72.72,0,0,1,0-.41.61.61,0,0,1,.31-.34.56.56,0,0,1,.21-.06.3.3,0,0,1,.21.08Z"/><path class="cls-7" d="M25.82,8.33a1.65,1.65,0,0,1,2.28.52l.31-.19A2,2,0,1,0,25,10.8l.31-.19A1.65,1.65,0,0,1,25.82,8.33Z"/><path class="cls-6" d="M25.82,8.33a1.65,1.65,0,0,0-.52,2.28l.3-.19A1.3,1.3,0,0,1,26,8.64a1.28,1.28,0,0,1,1.78.41l.31-.2A1.65,1.65,0,0,0,25.82,8.33Z"/><path class="cls-8" d="M26,8.64a1.3,1.3,0,0,0-.41,1.78l.31-.19a.93.93,0,1,1,1.58-1l.3-.19A1.28,1.28,0,0,0,26,8.64Z"/><path class="cls-9" d="M24.92,11.59a.58.58,0,0,0,.42-.12,1.27,1.27,0,0,0,.38-.42.28.28,0,0,0,.29,0,.58.58,0,0,0,.26-.18.39.39,0,0,0,.11-.17.16.16,0,0,0-.06-.18.54.54,0,0,0,.3-.47.52.52,0,0,0-.29-.46.63.63,0,0,0-.58.06.74.74,0,0,0-.32.49.33.33,0,0,0-.38-.07.49.49,0,0,0-.26.3.38.38,0,0,0-.42.31.34.34,0,0,0,.34.37S24.52,11.53,24.92,11.59Z"/><path class="cls-10" d="M26,10.85l-.15,0a.37.37,0,0,1-.23-.05h0v0a2,2,0,0,1-.33.39.57.57,0,0,1-.18.12.41.41,0,0,1-.4-.06.27.27,0,0,0,.26.3.58.58,0,0,0,.42-.12,1.27,1.27,0,0,0,.38-.42.28.28,0,0,0,.29,0,.58.58,0,0,0,.26-.18.39.39,0,0,0,.11-.17.17.17,0,0,0,0-.12A1.11,1.11,0,0,1,26,10.85Z"/><path class="cls-9" d="M27.35,10.2a.58.58,0,0,0,.42-.12,1.27,1.27,0,0,0,.38-.42.28.28,0,0,0,.29.05.58.58,0,0,0,.26-.18.32.32,0,0,0,.11-.17.16.16,0,0,0-.06-.18.54.54,0,0,0,.3-.47.52.52,0,0,0-.29-.46.6.6,0,0,0-.58.06.78.78,0,0,0-.32.49.33.33,0,0,0-.38-.07.52.52,0,0,0-.26.3.37.37,0,0,0-.42.31.34.34,0,0,0,.34.36S27,10.14,27.35,10.2Z"/><path class="cls-10" d="M28.42,9.46l-.15,0A.37.37,0,0,1,28,9.44h0v0a2,2,0,0,1-.33.39.57.57,0,0,1-.18.12.41.41,0,0,1-.4-.06.27.27,0,0,0,.26.3.58.58,0,0,0,.42-.12,1.27,1.27,0,0,0,.38-.42.28.28,0,0,0,.29.05.58.58,0,0,0,.26-.18.32.32,0,0,0,.11-.17.24.24,0,0,0,0-.12A1.5,1.5,0,0,1,28.42,9.46Z"/><path class="cls-6" d="M28.15,14.52a.24.24,0,0,1-.48,0,.24.24,0,0,1,.48,0Z"/><path class="cls-7" d="M27.83,6.23a.23.23,0,0,1-.23.24.24.24,0,0,1-.24-.24A.23.23,0,0,1,27.6,6,.23.23,0,0,1,27.83,6.23Z"/><path class="cls-8" d="M25.75,14.91a.24.24,0,1,1-.48,0,.24.24,0,0,1,.48,0Z"/><path class="cls-8" d="M22.2,10.38a.23.23,0,0,1-.24.23.23.23,0,0,1-.23-.23.23.23,0,0,1,.23-.24A.24.24,0,0,1,22.2,10.38Z"/><path class="cls-10" d="M21,2.51a.88.88,0,0,1,.1-.55.14.14,0,0,0,0-.06.58.58,0,0,0-.38-.74.59.59,0,0,0-.74.38s-.23.37.22,1c0,0,.24.26.11.5a11.79,11.79,0,0,1-.73,1l.34.1s.48-.86,1-1.05C21,3,21,2.77,21,2.51Z"/><path class="cls-7" d="M19.41,4.09a.37.37,0,0,1,.15,0l.34.1a.56.56,0,0,1,0,.17.1.1,0,0,1-.12.06l-.34-.11A.1.1,0,0,1,19.41,4.09Z"/><path class="cls-7" d="M17.51,3.58a.34.34,0,0,1,.15,0l.33.1a.43.43,0,0,1,0,.17.1.1,0,0,1-.12.06l-.34-.11A.1.1,0,0,1,17.51,3.58Z"/><path class="cls-10" d="M19.07,1.22h0s0,0,0,0a.57.57,0,0,0-.37-.73A.58.58,0,0,0,18,.82.77.77,0,0,0,18,1h0a11,11,0,0,1,.12,1.22,3.62,3.62,0,0,1-.42,1.35l.33.1Z"/><path class="cls-7" d="M22.75,1.27a.55.55,0,0,1-.1.52c-.21.24-.56.76-.19,1.17s1.05,0,1.3-.27h0l-.28.16a.94.94,0,0,1-.43.13.42.42,0,0,1-.39-.18.55.55,0,0,1,0-.54A4.57,4.57,0,0,0,23,1.78a.71.71,0,0,0,0-.62.94.94,0,0,0-.51-.39.82.82,0,0,0-.49,0,1.2,1.2,0,0,0-.34.17C21.88.89,22.58.83,22.75,1.27Z"/><path class="cls-6" d="M22.46,3c-.37-.41,0-.93.19-1.17a.55.55,0,0,0,.1-.52c-.17-.44-.87-.38-1.12-.35h0l0,.09c.09,0,.65-.12.76.26a.39.39,0,0,1-.07.36,1.65,1.65,0,0,0-.39,1.1,1.12,1.12,0,0,0,1.33.88,1,1,0,0,0,.34-.49l.15-.44C23.51,2.93,22.91,3.41,22.46,3Z"/><path class="cls-8" d="M21.94,2.74a1.65,1.65,0,0,1,.39-1.1.39.39,0,0,0,.07-.36C22.29.9,21.73,1,21.64,1v0a.76.76,0,0,1,.3,0,.37.37,0,0,1,.25.15.42.42,0,0,1,0,.33,1,1,0,0,1-.16.3,3,3,0,0,0-.41.65,1,1,0,0,0,1.18,1.35,1.11,1.11,0,0,0,.42-.21A1.12,1.12,0,0,1,21.94,2.74Z"/><path class="cls-9" d="M22,2a1,1,0,0,0-.26-1A1,1,0,0,0,20.9.71c-1,0-1.17-.44-1.17-.44l-.92-1.7-.68.63a1.11,1.11,0,0,1,0,1.13,1.11,1.11,0,0,0-.17.84c.14,1,2.38,1.61,3.23,1.46A1,1,0,0,0,22,2Z"/><path class="cls-9" d="M21.44,3.05a.87.87,0,0,1,.09-.55l0,0a.59.59,0,1,0-1.13-.37s-.23.38.23,1a.48.48,0,0,1,.1.51c-.14.24-.72.95-.72.95l.33.11s.48-.87,1-1.06C21.51,3.57,21.48,3.32,21.44,3.05Z"/><path class="cls-7" d="M19.89,4.63a.34.34,0,0,1,.15,0l.33.11a.37.37,0,0,1,0,.16.09.09,0,0,1-.12.06l-.34-.11A.1.1,0,0,1,19.89,4.63Z"/><path class="cls-7" d="M17.83,4.08A.56.56,0,0,1,18,4l.33.11a.3.3,0,0,1,0,.16.1.1,0,0,1-.12.07l-.34-.11A.1.1,0,0,1,17.83,4.08Z"/><path class="cls-9" d="M19.4,1.72h0s0,0,0-.05a.58.58,0,0,0-1.1-.35.4.4,0,0,0,0,.15h0a8.85,8.85,0,0,1,.12,1.22A3.42,3.42,0,0,1,18,4l.33.11Z"/><path class="cls-7" d="M19.19.16a1,1,0,0,0,.15.56.71.71,0,0,0,.47.32.54.54,0,0,1-.18-.45,1.18,1.18,0,0,1,.15-.47,1.32,1.32,0,0,0,.12-.2.66.66,0,0,0,0-.55.52.52,0,0,0-.44-.3A6.53,6.53,0,0,0,19.19.16Z"/><path class="cls-6" d="M19.16-1.1a.26.26,0,0,1,0,.24A1.39,1.39,0,0,1,19-.67a1.38,1.38,0,0,0-.17.25,2.25,2.25,0,0,0-.08.24.77.77,0,0,0,0,.37A.62.62,0,0,0,19,.56a.61.61,0,0,0,.43.11A.7.7,0,0,1,19.28.2a1.38,1.38,0,0,1,.16-.47c.06-.12.14-.23.19-.35A.66.66,0,0,0,19.68-1a.55.55,0,0,0-.25-.36.46.46,0,0,0-.2-.09.31.31,0,0,0-.21.05Z"/><path class="cls-8" d="M18.44-1.6a.41.41,0,0,1,.28.11.36.36,0,0,1,.06.3,1.39,1.39,0,0,1-.22.46,1.18,1.18,0,0,0-.11.19.61.61,0,0,0,0,.42.69.69,0,0,0,.48.35A.5.5,0,0,1,18.82,0a.29.29,0,0,1,0-.16,1.16,1.16,0,0,1,.27-.5,1.46,1.46,0,0,0,.16-.19.6.6,0,0,0-.06-.64.68.68,0,0,0-.45-.29.26.26,0,0,0-.24.08Z"/><path class="cls-10" d="M17.12,11.65a.94.94,0,0,0,.47-.34l0-.05a.61.61,0,0,1,.86,0,.6.6,0,0,1,0,.86s-.24.39-1.07.27c0,0-.36-.1-.52.14a11.55,11.55,0,0,0-.56,1.1l-.25-.26A2.88,2.88,0,0,0,16.62,12C16.61,11.83,16.86,11.73,17.12,11.65Z"/><path class="cls-7" d="M16.36,13.81a.32.32,0,0,0,0-.16l-.25-.26a.54.54,0,0,0-.15.08.1.1,0,0,0,0,.14l.26.27A.1.1,0,0,0,16.36,13.81Z"/><path class="cls-7" d="M17.7,15.35a.29.29,0,0,0,0-.16l-.25-.26a.41.41,0,0,0-.15.08.1.1,0,0,0,0,.14l.26.26A.1.1,0,0,0,17.7,15.35Z"/><path class="cls-10" d="M19.18,12.83h0l0,0a.6.6,0,0,1,.85,0,.59.59,0,0,1,0,.84l-.13.1h0a8.6,8.6,0,0,0-1.19.44,3.77,3.77,0,0,0-1.06,1l-.25-.26Z"/><path class="cls-7" d="M17.46,9.43a.56.56,0,0,0-.44.33c-.13.3-.45.87-1,.71s-.46-1-.35-1.33h0l0,.33a1,1,0,0,0,.08.46.49.49,0,0,0,.35.28.55.55,0,0,0,.48-.28,5,5,0,0,1,.31-.49.77.77,0,0,1,.59-.26.88.88,0,0,1,.58.29.93.93,0,0,1,.25.44,1.08,1.08,0,0,1,0,.4C18.21,10.06,17.94,9.38,17.46,9.43Z"/><path class="cls-6" d="M16,10.47c.54.16.86-.41,1-.71a.56.56,0,0,1,.44-.33c.48,0,.75.63.83.88h0l-.09,0c0-.09-.18-.65-.59-.58a.45.45,0,0,0-.31.23c-.12.24-.44.76-.84.86A1.14,1.14,0,0,1,15,10a1,1,0,0,1,.29-.53l.35-.34C15.57,9.49,15.4,10.26,16,10.47Z"/><path class="cls-8" d="M16.46,10.85c.4-.1.72-.62.84-.86a.45.45,0,0,1,.31-.23c.41-.07.57.49.59.58h0a.9.9,0,0,0-.13-.28.38.38,0,0,0-.26-.16.4.4,0,0,0-.32.11,1.1,1.1,0,0,0-.2.28,2.8,2.8,0,0,1-.43.68,1.06,1.06,0,0,1-1,.28A1.05,1.05,0,0,1,15,10.5,1,1,0,0,1,15,10,1.14,1.14,0,0,0,16.46,10.85Z"/><path class="cls-9" d="M22.14,13.77a.49.49,0,0,0,0-.12,2.59,2.59,0,0,1,.07-.73.77.77,0,0,1,.07-.16h0a.59.59,0,0,0-.21-.82.58.58,0,0,0-.79.19.59.59,0,0,0,.18.83h0a.65.65,0,0,1,0,.13c0,.1,0,.19,0,.28a.72.72,0,0,0,0,.25.22.22,0,0,0,.16.16c.08,0,.18,0,.25,0l0,0S22.12,13.81,22.14,13.77Z"/><path class="cls-6" d="M22,12.79H21.9v-.07a0,0,0,0,1,0,0v-.1h0v0s-.05,0,0-.07a.08.08,0,0,0,0,.05v0h0l0,0h0a.11.11,0,0,1,0,0h0v0h.06s0,0-.09,0h.07s-.1,0-.1,0h.1v0s0,0,0,0h0l0,0H22Z"/><path class="cls-6" d="M22,13.61h0v0s0,0,0,0l0,0h0s0,0,0,0h0v0h0Z"/><path class="cls-6" d="M21.84,12.4s0,0,0,0h0s0,0,0,0,0,0,0,0h0Z"/><path class="cls-6" d="M21.71,12.43a0,0,0,0,0,0,0h0a0,0,0,0,0,0,0s0,0,0,0a.21.21,0,0,0,0,.08h0Z"/><path class="cls-9" d="M17.16,10.48a1,1,0,0,1,1-.22,1.08,1.08,0,0,1,.63.63c.45.89.94.88.94.88l2,.09-.27.92a1.15,1.15,0,0,0-1.06.5,1.12,1.12,0,0,1-.7.54c-1,.33-2.59-1.48-2.83-2.33A1,1,0,0,1,17.16,10.48Z"/><path class="cls-9" d="M16.4,11.46a.94.94,0,0,0,.47-.34l0,0a.61.61,0,0,1,.86,0,.6.6,0,0,1,0,.86s-.24.39-1.07.27c0,0-.36-.1-.52.14a11.55,11.55,0,0,0-.56,1.1l-.25-.26a2.88,2.88,0,0,0,.54-1.38C15.89,11.63,16.14,11.54,16.4,11.46Z"/><path class="cls-7" d="M15.64,13.62a.29.29,0,0,0,0-.16l-.25-.26a.35.35,0,0,0-.15.08.1.1,0,0,0,0,.14l.26.26A.1.1,0,0,0,15.64,13.62Z"/><path class="cls-7" d="M17.09,15.27a.32.32,0,0,0,0-.16l-.25-.26a.54.54,0,0,0-.15.08.1.1,0,0,0,0,.14l.26.27A.1.1,0,0,0,17.09,15.27Z"/><path class="cls-9" d="M18.57,12.75h0l0,0a.6.6,0,0,1,.84.86l-.13.1h0a10.17,10.17,0,0,0-1.19.44,3.77,3.77,0,0,0-1.06,1l-.25-.26Z"/><path class="cls-8" d="M22.31,12.5l1-.19a0,0,0,0,0,0-.07h-1A.26.26,0,0,0,22.31,12.5Z"/><path class="cls-7" d="M20.11,12.23a1.08,1.08,0,0,1-.59.12.71.71,0,0,1-.5-.3.53.53,0,0,0,.49,0,1,1,0,0,0,.36-.36c.05-.07.09-.14.14-.2a.67.67,0,0,1,.51-.26.54.54,0,0,1,.48.28A6.51,6.51,0,0,1,20.11,12.23Z"/><path class="cls-6" d="M21.29,11.69a.24.24,0,0,0-.21.11A1,1,0,0,0,21,12a.92.92,0,0,1-.16.27,1.14,1.14,0,0,1-.19.19.8.8,0,0,1-.33.17.62.62,0,0,1-.46-.06.63.63,0,0,1-.29-.35.62.62,0,0,0,.49-.09,1.27,1.27,0,0,0,.37-.36,4,4,0,0,1,.24-.33.61.61,0,0,1,.34-.23.57.57,0,0,1,.44.07.39.39,0,0,1,.17.14.25.25,0,0,1,.05.22Z"/><path class="cls-8" d="M22.08,12.12a.41.41,0,0,0-.22-.21.36.36,0,0,0-.3.09,1.2,1.2,0,0,0-.33.41,1.18,1.18,0,0,1-.13.18.61.61,0,0,1-.4.19.72.72,0,0,1-.54-.29.45.45,0,0,0,.28,0,.42.42,0,0,0,.14-.09,1.32,1.32,0,0,0,.34-.47,1,1,0,0,1,.1-.24.61.61,0,0,1,.62-.23.65.65,0,0,1,.48.28.25.25,0,0,1,0,.26Z"/><path class="cls-7" d="M22.2,12.19a.27.27,0,0,1,.45.2.45.45,0,0,1-.12.26c-.07.07-.15.13-.22.21a.8.8,0,0,0-.13.19s0,.11,0,.15a.6.6,0,0,1,0-.65C22.48,12.25,22.2,12.19,22.2,12.19Z"/><path class="cls-9" d="M22,12.15s0-.31.42-.43a.46.46,0,0,1-.3.55Z"/><path class="cls-6" d="M22,12.11a.52.52,0,0,1,.31-.26s.09.17-.17.4a0,0,0,0,1,0,0h0s0,0,0,0h0s0,0,0,0v0l0,0h0S22,12.13,22,12.11Z"/><path class="cls-7" d="M14.84,3.08A1.41,1.41,0,0,1,15.53,5l.29.13a1.73,1.73,0,1,0-3.15-1.45l.29.13A1.41,1.41,0,0,1,14.84,3.08Z"/><path class="cls-6" d="M14.84,3.08A1.41,1.41,0,0,0,13,3.77l.28.13a1.11,1.11,0,1,1,2,.93l.28.13A1.41,1.41,0,0,0,14.84,3.08Z"/><path class="cls-8" d="M14.71,3.36a1.11,1.11,0,0,0-1.47.54l.28.13A.8.8,0,1,1,15,4.7l.28.13A1.11,1.11,0,0,0,14.71,3.36Z"/><path class="cls-9" d="M14.21,5.05a.51.51,0,0,0,.29.25,1.12,1.12,0,0,0,.48.07.22.22,0,0,0,.1.23.46.46,0,0,0,.25.1.33.33,0,0,0,.17,0,.13.13,0,0,0,.1-.13.48.48,0,0,0,.48,0,.42.42,0,0,0,.19-.42A.51.51,0,0,0,16,4.76a.65.65,0,0,0-.51,0,.26.26,0,0,0-.12-.3.41.41,0,0,0-.34,0,.33.33,0,0,0-.42-.16.3.3,0,0,0-.1.42S14.07,4.74,14.21,5.05Z"/><path class="cls-10" d="M15.25,5.47l-.1-.09a.33.33,0,0,1-.06-.19,0,0,0,0,0,0,0h0a1.24,1.24,0,0,1-.43,0A1,1,0,0,1,14.45,5a.35.35,0,0,1-.14-.31.22.22,0,0,0-.1.32.51.51,0,0,0,.29.25,1.12,1.12,0,0,0,.48.07.22.22,0,0,0,.1.23.46.46,0,0,0,.25.1.33.33,0,0,0,.17,0,.11.11,0,0,0,.08-.07A.87.87,0,0,1,15.25,5.47Z"/><path class="cls-7" d="M23.09,7l-.22-.18a.1.1,0,0,0-.1,0l-.28.08a.12.12,0,0,1-.14-.15l.11-.27a.14.14,0,0,0,0-.11l-.16-.24a.11.11,0,0,1,.1-.17l.29,0a.12.12,0,0,0,.09,0L23,5.64a.11.11,0,0,1,.2,0l.07.28a.12.12,0,0,0,.07.07l.27.1a.12.12,0,0,1,0,.21l-.24.15a.11.11,0,0,0-.05.09v.29A.12.12,0,0,1,23.09,7Z"/><path class="cls-8" d="M17.56,6.14a.69.69,0,0,1,.11.35.6.6,0,0,1-.61.6l-.18,0a.59.59,0,0,0,.49.26.6.6,0,0,0,.61-.6A.62.62,0,0,0,17.56,6.14Z"/><path class="cls-6" d="M20.51,8.45a.23.23,0,0,1-.23.24.24.24,0,0,1,0-.48A.23.23,0,0,1,20.51,8.45Z"/><path class="cls-7" d="M25,13.13a.24.24,0,0,1-.48,0,.24.24,0,0,1,.48,0Z"/><path class="cls-8" d="M28.38,11.22a.24.24,0,1,1-.24-.24A.24.24,0,0,1,28.38,11.22Z"/><path class="cls-10" d="M28-.13A.86.86,0,0,0,28-.7a.35.35,0,0,0,0-.06.61.61,0,0,1,.49-.72.61.61,0,0,1,.71.49s.19.42-.37,1.05c0,0-.28.23-.17.5s.61,1.08.61,1.08l-.35.06A2.92,2.92,0,0,0,28,.49C27.85.4,27.91.14,28-.13Z"/><path class="cls-7" d="M29.37,1.7a.37.37,0,0,0-.15-.06l-.35.06a.45.45,0,0,0,0,.17A.1.1,0,0,0,29,2l.37-.07A.1.1,0,0,0,29.37,1.7Z"/><path class="cls-7" d="M26.33-1.63a.52.52,0,0,0,0,.54c.18.27.47.86,0,1.22S25.33,0,25.1-.31h0l.26.2a1,1,0,0,0,.43.19.46.46,0,0,0,.43-.14.56.56,0,0,0,0-.55A5,5,0,0,1,26-1.15a.74.74,0,0,1,.1-.63.89.89,0,0,1,.57-.32.78.78,0,0,1,.5,0,1.46,1.46,0,0,1,.33.22C27.26-1.92,26.55-2.06,26.33-1.63Z"/><path class="cls-6" d="M26.4.13c.43-.36.14-.95,0-1.22a.52.52,0,0,1,0-.54c.22-.43.93-.29,1.19-.22h0l0,.09c-.09,0-.64-.21-.81.17a.42.42,0,0,0,0,.38A1.69,1.69,0,0,1,27,0a1.17,1.17,0,0,1-1.49.73,1,1,0,0,1-.28-.55L25.1-.31C25.33,0,25.88.54,26.4.13Z"/><path class="cls-8" d="M27,0a1.69,1.69,0,0,0-.25-1.18.42.42,0,0,1,0-.38c.17-.38.72-.2.81-.17v0a.81.81,0,0,0-.31-.05.41.41,0,0,0-.27.13.42.42,0,0,0-.09.33,1.24,1.24,0,0,0,.12.32,3,3,0,0,1,.34.73,1.11,1.11,0,0,1-.34,1,1.11,1.11,0,0,1-1.05.2,1.06,1.06,0,0,1-.41-.26A1.17,1.17,0,0,0,27,0Z"/><path class="cls-9" d="M27-.81a1,1,0,0,1,.4-1A1,1,0,0,1,28.29-2c1,.12,1.26-.3,1.26-.3l1.18-1.62.61.74A1.16,1.16,0,0,0,31.17-2a1.17,1.17,0,0,1,.07.88C31-.08,28.58.24,27.74,0A1,1,0,0,1,27-.81Z"/><path class="cls-9" d="M27.43.36a.86.86,0,0,0,0-.57.14.14,0,0,1,0-.06A.61.61,0,0,1,27.88-1a.61.61,0,0,1,.71.49s.19.41-.37,1c0,0-.28.24-.17.51s.61,1.07.61,1.07l-.35.07A3,3,0,0,0,27.46,1C27.29.89,27.35.63,27.43.36Z"/><path class="cls-7" d="M28.81,2.2a.32.32,0,0,0-.15-.07l-.35.07a.38.38,0,0,0,0,.16.09.09,0,0,0,.11.08l.37-.06A.1.1,0,0,0,28.81,2.2Z"/><path class="cls-9" d="M29.7-.73h0a.11.11,0,0,0,0-.05.6.6,0,0,1,.48-.69.6.6,0,0,1,.7.48.76.76,0,0,1,0,.15h0A9.51,9.51,0,0,0,30.59.4a3.56,3.56,0,0,0,.25,1.43l-.35.07Z"/><path class="cls-6" d="M25.51,4.94a.56.56,0,0,1,.35.09.59.59,0,0,1,.2.83.53.53,0,0,1-.12.14.62.62,0,0,0,.48-.29.61.61,0,0,0-.2-.83A.6.6,0,0,0,25.51,4.94Z"/></g><g class="cls-11"><path class="cls-7" d="M25.82,28.19a1.65,1.65,0,0,1,2.28.52l.31-.19A2,2,0,1,0,25,30.66l.31-.19A1.65,1.65,0,0,1,25.82,28.19Z"/><path class="cls-6" d="M25.82,28.19a1.65,1.65,0,0,0-.52,2.28l.3-.19A1.31,1.31,0,0,1,26,28.49a1.29,1.29,0,0,1,1.78.41l.31-.19A1.65,1.65,0,0,0,25.82,28.19Z"/><path class="cls-8" d="M26,28.49a1.31,1.31,0,0,0-.41,1.79l.31-.2a.93.93,0,0,1,.29-1.28,1,1,0,0,1,1.29.29l.3-.19A1.29,1.29,0,0,0,26,28.49Z"/><path class="cls-9" d="M24.92,31.45a.54.54,0,0,0,.42-.13,1.24,1.24,0,0,0,.38-.41A.3.3,0,0,0,26,31a.68.68,0,0,0,.26-.18.45.45,0,0,0,.11-.17.15.15,0,0,0-.06-.18.54.54,0,0,0,.3-.47.51.51,0,0,0-.29-.46.6.6,0,0,0-.58.05.74.74,0,0,0-.32.5.33.33,0,0,0-.38-.08.53.53,0,0,0-.26.31.36.36,0,0,0-.42.3.34.34,0,0,0,.34.37S24.52,31.39,24.92,31.45Z"/><path class="cls-9" d="M27.35,30.06a.54.54,0,0,0,.42-.13,1.24,1.24,0,0,0,.38-.41.3.3,0,0,0,.29.05.68.68,0,0,0,.26-.18.36.36,0,0,0,.11-.17.15.15,0,0,0-.06-.18.54.54,0,0,0,.3-.47.51.51,0,0,0-.29-.46.6.6,0,0,0-.58.05.77.77,0,0,0-.32.5.33.33,0,0,0-.38-.08.57.57,0,0,0-.26.31.36.36,0,0,0-.42.3.34.34,0,0,0,.34.37S27,30,27.35,30.06Z"/><path class="cls-10" d="M28.42,29.31l-.15,0a.46.46,0,0,1-.23-.06h0a1.55,1.55,0,0,1-.33.39.59.59,0,0,1-.18.13.44.44,0,0,1-.4-.06.27.27,0,0,0,.26.3.54.54,0,0,0,.42-.13,1.24,1.24,0,0,0,.38-.41.3.3,0,0,0,.29.05.68.68,0,0,0,.26-.18.36.36,0,0,0,.11-.17.24.24,0,0,0,0-.12A1.47,1.47,0,0,1,28.42,29.31Z"/><path class="cls-7" d="M27.83,26.09a.23.23,0,0,1-.23.24.24.24,0,0,1,0-.48A.23.23,0,0,1,27.83,26.09Z"/><path class="cls-8" d="M22.2,30.23a.24.24,0,0,1-.24.24.23.23,0,0,1-.23-.24A.23.23,0,0,1,22,30,.23.23,0,0,1,22.2,30.23Z"/><path class="cls-10" d="M21,22.36a.84.84,0,0,1,.1-.54.14.14,0,0,0,0-.06A.58.58,0,0,0,20.7,21a.59.59,0,0,0-.74.38s-.23.37.22,1a.5.5,0,0,1,.11.51,11.22,11.22,0,0,1-.73.95l.34.11s.48-.87,1-1.06C21,22.89,21,22.63,21,22.36Z"/><path class="cls-7" d="M19.41,24a.55.55,0,0,1,.15-.05l.34.11a.49.49,0,0,1,0,.16.09.09,0,0,1-.12.06l-.34-.11A.09.09,0,0,1,19.41,24Z"/><path class="cls-7" d="M17.51,23.44a.46.46,0,0,1,.15-.05l.33.11a.39.39,0,0,1,0,.16.11.11,0,0,1-.12.07l-.34-.11A.1.1,0,0,1,17.51,23.44Z"/><path class="cls-10" d="M19.07,21.08h0s0,0,0,0a.56.56,0,0,0-.37-.72.57.57,0,0,0-.73.37.77.77,0,0,0,0,.15h0a10.53,10.53,0,0,1,.12,1.22,3.53,3.53,0,0,1-.42,1.34l.33.11Z"/><path class="cls-7" d="M22.75,21.13a.53.53,0,0,1-.1.51c-.21.25-.56.77-.19,1.17s1.05,0,1.3-.26h0l-.28.16a.94.94,0,0,1-.43.13.45.45,0,0,1-.39-.19.53.53,0,0,1,0-.53,4.57,4.57,0,0,0,.29-.47A.73.73,0,0,0,23,21a.93.93,0,0,0-.51-.38.91.91,0,0,0-.49,0,1.59,1.59,0,0,0-.34.18C21.88,20.74,22.58,20.69,22.75,21.13Z"/><path class="cls-6" d="M22.46,22.81c-.37-.4,0-.92.19-1.17a.53.53,0,0,0,.1-.51c-.17-.44-.87-.39-1.12-.35h0l0,.09c.09,0,.65-.12.76.26a.41.41,0,0,1-.07.37,1.63,1.63,0,0,0-.39,1.1,1.12,1.12,0,0,0,1.33.88,1,1,0,0,0,.34-.49l.15-.44C23.51,22.79,22.91,23.26,22.46,22.81Z"/><path class="cls-8" d="M21.94,22.6a1.63,1.63,0,0,1,.39-1.1.41.41,0,0,0,.07-.37c-.11-.38-.67-.28-.76-.26v0a.76.76,0,0,1,.3,0,.38.38,0,0,1,.25.16.39.39,0,0,1,0,.32.87.87,0,0,1-.16.3,3,3,0,0,0-.41.66,1,1,0,0,0,.2,1,1,1,0,0,0,1,.33,1,1,0,0,0,.42-.2A1.12,1.12,0,0,1,21.94,22.6Z"/><path class="cls-9" d="M17,18.91l.1-.05a2.9,2.9,0,0,0,.6-.38.69.69,0,0,0,.11-.13h0a.57.57,0,1,1,.18.79h0a.27.27,0,0,0-.13,0l-.26.08a.83.83,0,0,1-.22.08.22.22,0,0,1-.22-.07c-.05-.07-.05-.17-.11-.21l0,0A.08.08,0,0,1,17,18.91Z"/><path class="cls-6" d="M17.91,18.62v0h.17l.05,0v0h0a.06.06,0,0,0,.08,0,0,0,0,0,1,0,0h-.07a0,0,0,0,0,0,0,.12.12,0,0,0,.06,0h-.09a0,0,0,0,1,0,0h0s0,0,0,.07h-.07a.08.08,0,0,0,0,.08h-.08v0h-.15v0h0v0h0Z"/><path class="cls-6" d="M17.17,18.93h-.09v0s0,0,0,0,0,0,0,0h0v0a0,0,0,0,1,0,0h.07Z"/><path class="cls-6" d="M18.31,18.59a0,0,0,0,1,0,0h0a0,0,0,0,1,0,0s0,0,0,0l0,0h0S18.3,18.6,18.31,18.59Z"/><path class="cls-6" d="M18.34,18.72a0,0,0,0,1,0,0s0,0,0,0h0a0,0,0,0,1,0,.06l-.07,0h0S18.32,18.74,18.34,18.72Z"/><path class="cls-9" d="M22,21.83a1,1,0,0,0-.26-1,1,1,0,0,0-.81-.27c-1,0-1.17-.45-1.17-.45l-.92-1.7-.68.64a1.1,1.1,0,0,1,0,1.13A1.11,1.11,0,0,0,18,21c.14,1,2.38,1.61,3.23,1.46A1,1,0,0,0,22,21.83Z"/><path class="cls-9" d="M21.44,22.91a.87.87,0,0,1,.09-.55l0-.06a.59.59,0,0,0-.38-.74.6.6,0,0,0-.75.38s-.23.37.23,1c0,0,.24.26.1.5s-.72,1-.72,1l.33.1s.48-.86,1-1.05C21.51,23.43,21.48,23.17,21.44,22.91Z"/><path class="cls-7" d="M19.89,24.49a.34.34,0,0,1,.15,0l.33.1a.43.43,0,0,1,0,.17.1.1,0,0,1-.12.06l-.34-.11A.1.1,0,0,1,19.89,24.49Z"/><path class="cls-7" d="M17.83,23.93a.4.4,0,0,1,.16,0l.33.11a.3.3,0,0,1,0,.16.09.09,0,0,1-.12.06l-.34-.11A.1.1,0,0,1,17.83,23.93Z"/><path class="cls-9" d="M19.4,21.58h0s0,0,0,0A.58.58,0,0,0,19,20.8a.58.58,0,0,0-.73.38.4.4,0,0,0,0,.15h0a8.67,8.67,0,0,1,.12,1.21A3.43,3.43,0,0,1,18,23.89l.33.11Z"/><path class="cls-8" d="M18,18.23l-.25-.93s.05-.06.06,0,.41.83.45.88A.26.26,0,0,1,18,18.23Z"/><path class="cls-7" d="M19.19,20a1,1,0,0,0,.15.56.67.67,0,0,0,.47.31.52.52,0,0,1-.18-.44,1.08,1.08,0,0,1,.15-.47,2.12,2.12,0,0,0,.12-.2.66.66,0,0,0,0-.55.52.52,0,0,0-.44-.3A6.53,6.53,0,0,0,19.19,20Z"/><path class="cls-6" d="M19.16,18.76a.24.24,0,0,1,0,.23,1.49,1.49,0,0,1-.15.2,1.31,1.31,0,0,0-.17.24,2.41,2.41,0,0,0-.08.25.73.73,0,0,0,0,.36.64.64,0,0,0,.24.38.73.73,0,0,0,.43.11.72.72,0,0,1-.13-.47,1.25,1.25,0,0,1,.16-.47c.06-.12.14-.23.19-.36a.65.65,0,0,0,.05-.39.6.6,0,0,0-.25-.36.44.44,0,0,0-.2-.08.27.27,0,0,0-.21.05Z"/><path class="cls-8" d="M18.44,18.26a.37.37,0,0,1,.28.11.33.33,0,0,1,.06.29,1.3,1.3,0,0,1-.22.46l-.11.19a.64.64,0,0,0,0,.43.67.67,0,0,0,.48.34.46.46,0,0,1-.12-.24.3.3,0,0,1,0-.16,1.18,1.18,0,0,1,.27-.49,1.46,1.46,0,0,0,.16-.19.6.6,0,0,0-.06-.64.73.73,0,0,0-.45-.3.24.24,0,0,0-.24.09Z"/><path class="cls-7" d="M18.34,18.18a.27.27,0,0,0-.37-.3.38.38,0,0,0-.17.22c0,.09-.06.18-.09.27a.82.82,0,0,1-.12.2s-.07.08-.12.07a.57.57,0,0,0,.55-.32C18.16,18,18.34,18.18,18.34,18.18Z"/><path class="cls-9" d="M18.45,18.34s.28-.12.2-.56c0,0-.43.11-.36.51Z"/><path class="cls-6" d="M18.48,18.31a.5.5,0,0,0,.1-.38s-.2,0-.28.32c0,0,0,0,0,0h0s0,0,0,0h0s0,0,0,0h0s0,0,0,0h0A0,0,0,0,0,18.48,18.31Z"/><path class="cls-7" d="M17.46,29.29a.56.56,0,0,0-.44.33c-.13.3-.45.87-1,.7s-.46-1-.35-1.32h0l0,.33a1.09,1.09,0,0,0,.08.47.46.46,0,0,0,.35.27.56.56,0,0,0,.48-.27,5,5,0,0,1,.31-.49.75.75,0,0,1,.59-.27.89.89,0,0,1,.58.3.85.85,0,0,1,.25.44,1.08,1.08,0,0,1,0,.4C18.21,29.91,17.94,29.24,17.46,29.29Z"/><path class="cls-6" d="M16,30.32c.54.17.86-.4,1-.7a.56.56,0,0,1,.44-.33c.48-.05.75.62.83.88h0l-.09,0c0-.1-.18-.65-.59-.58a.45.45,0,0,0-.31.23c-.12.24-.44.76-.84.86A1.15,1.15,0,0,1,15,29.87a1.06,1.06,0,0,1,.29-.54l.35-.33C15.57,29.34,15.4,30.12,16,30.32Z"/><path class="cls-8" d="M16.46,30.71c.4-.1.72-.62.84-.86a.45.45,0,0,1,.31-.23c.41-.07.57.48.59.58h0a.9.9,0,0,0-.13-.28.35.35,0,0,0-.26-.16.4.4,0,0,0-.32.11,1.1,1.1,0,0,0-.2.28,3,3,0,0,1-.43.68,1.06,1.06,0,0,1-1,.28,1.08,1.08,0,0,1-.75-.76,1,1,0,0,1,0-.49A1.15,1.15,0,0,0,16.46,30.71Z"/><path class="cls-7" d="M14.84,22.93a1.41,1.41,0,0,1,.69,1.88l.29.13a1.73,1.73,0,0,0-3.15-1.44l.29.13A1.42,1.42,0,0,1,14.84,22.93Z"/><path class="cls-6" d="M14.84,22.93a1.42,1.42,0,0,0-1.88.7l.28.13a1.11,1.11,0,0,1,2,.92l.28.13A1.41,1.41,0,0,0,14.84,22.93Z"/><path class="cls-8" d="M14.71,23.22a1.1,1.1,0,0,0-1.47.54l.28.13a.8.8,0,0,1,1.45.66l.28.13A1.1,1.1,0,0,0,14.71,23.22Z"/><path class="cls-9" d="M14.21,24.91a.5.5,0,0,0,.29.24,1.13,1.13,0,0,0,.48.08.23.23,0,0,0,.1.23.55.55,0,0,0,.25.1.33.33,0,0,0,.17,0c.06,0,.11-.07.1-.12a.51.51,0,0,0,.48,0,.43.43,0,0,0,.19-.43.53.53,0,0,0-.31-.39.65.65,0,0,0-.51,0,.28.28,0,0,0-.12-.31.44.44,0,0,0-.34,0,.31.31,0,0,0-.42-.16.29.29,0,0,0-.1.41S14.07,24.59,14.21,24.91Z"/><path class="cls-10" d="M15.25,25.32a.28.28,0,0,1-.1-.09.3.3,0,0,1-.06-.18s0,0,0,0h0a1.54,1.54,0,0,1-.43-.05.58.58,0,0,1-.18-.08.34.34,0,0,1-.14-.3.22.22,0,0,0-.1.32.5.5,0,0,0,.29.24,1.13,1.13,0,0,0,.48.08.23.23,0,0,0,.1.23.55.55,0,0,0,.25.1.33.33,0,0,0,.17,0,.1.1,0,0,0,.08-.06A1.06,1.06,0,0,1,15.25,25.32Z"/><path class="cls-6" d="M22.22,19.29,22,19.11a.12.12,0,0,0-.1,0l-.28.08a.12.12,0,0,1-.14-.15l.11-.27a.14.14,0,0,0,0-.11l-.16-.24a.11.11,0,0,1,.1-.17l.29,0a.12.12,0,0,0,.09-.05l.18-.22a.11.11,0,0,1,.2,0l.07.28a.18.18,0,0,0,.07.08l.27.1a.11.11,0,0,1,0,.2l-.25.15a.12.12,0,0,0,0,.09v.29A.12.12,0,0,1,22.22,19.29Z"/><path class="cls-7" d="M23.09,26.81l-.22-.19a.12.12,0,0,0-.1,0l-.28.08a.11.11,0,0,1-.14-.15l.11-.27a.12.12,0,0,0,0-.1l-.16-.24a.11.11,0,0,1,.1-.18l.29,0a.11.11,0,0,0,.09,0l.18-.23a.12.12,0,0,1,.2,0l.07.28a.11.11,0,0,0,.07.08l.27.1a.11.11,0,0,1,0,.2l-.24.16a.11.11,0,0,0-.05.09v.29A.12.12,0,0,1,23.09,26.81Z"/><path class="cls-8" d="M17.56,26a.65.65,0,0,1,.11.34.61.61,0,0,1-.61.61.57.57,0,0,1-.18,0,.62.62,0,0,0,.49.26A.6.6,0,0,0,17.56,26Z"/><path class="cls-7" d="M25.18,16.16a.6.6,0,0,1-.49.95.58.58,0,0,1-.19,0,.6.6,0,1,0,.68-.92Z"/><path class="cls-6" d="M20.51,28.31a.23.23,0,0,1-.23.23.24.24,0,1,1,0-.47A.23.23,0,0,1,20.51,28.31Z"/><path class="cls-6" d="M15.47,18.81a.24.24,0,1,1-.24-.24A.24.24,0,0,1,15.47,18.81Z"/><path class="cls-8" d="M22.08,16.16a.23.23,0,0,1-.23.24.24.24,0,0,1-.24-.24.23.23,0,0,1,.24-.23A.23.23,0,0,1,22.08,16.16Z"/><path class="cls-10" d="M28,19.73a.89.89,0,0,0,0-.58s0,0,0-.06a.6.6,0,0,1,.49-.71.61.61,0,0,1,.71.49s.19.42-.37,1c0,0-.28.24-.17.51s.61,1.07.61,1.07l-.35.07A3,3,0,0,0,28,20.34C27.85,20.25,27.91,20,28,19.73Z"/><path class="cls-7" d="M29.37,21.56a.5.5,0,0,0-.15-.07l-.35.07a.41.41,0,0,0,0,.17.09.09,0,0,0,.11.07l.37-.06A.1.1,0,0,0,29.37,21.56Z"/><path class="cls-7" d="M26.33,18.22a.52.52,0,0,0,0,.54c.18.28.47.87,0,1.23s-1.07-.16-1.3-.44v0l.26.21a1.11,1.11,0,0,0,.43.19.49.49,0,0,0,.43-.14.56.56,0,0,0,0-.55,5,5,0,0,1-.23-.53.76.76,0,0,1,.1-.64.89.89,0,0,1,.57-.32.85.85,0,0,1,.5,0,1.19,1.19,0,0,1,.33.22C27.26,17.94,26.55,17.79,26.33,18.22Z"/><path class="cls-6" d="M26.4,20c.43-.36.14-.95,0-1.23a.52.52,0,0,1,0-.54c.22-.43.93-.28,1.19-.21h0l0,.09c-.09,0-.64-.21-.81.17a.43.43,0,0,0,0,.38A1.69,1.69,0,0,1,27,19.84a1.15,1.15,0,0,1-1.49.72,1,1,0,0,1-.28-.54l-.09-.47C25.33,19.83,25.88,20.39,26.4,20Z"/><path class="cls-8" d="M27,19.84a1.69,1.69,0,0,0-.25-1.18.43.43,0,0,1,0-.38c.17-.38.72-.2.81-.17v0a.65.65,0,0,0-.31,0,.36.36,0,0,0-.27.12.44.44,0,0,0-.09.33,1.18,1.18,0,0,0,.12.33,3,3,0,0,1,.34.73,1.07,1.07,0,0,1-1.39,1.22,1.22,1.22,0,0,1-.41-.27A1.15,1.15,0,0,0,27,19.84Z"/><path class="cls-9" d="M27,19.05a1,1,0,0,1,.4-1,1,1,0,0,1,.86-.18c1,.12,1.26-.29,1.26-.29L30.73,16l.61.74a1.17,1.17,0,0,0-.17,1.16,1.16,1.16,0,0,1,.07.88c-.28,1-2.66,1.34-3.5,1.07A1,1,0,0,1,27,19.05Z"/><path class="cls-9" d="M27.43,20.22a.86.86,0,0,0,0-.57.14.14,0,0,1,0-.06.62.62,0,0,1,.49-.72.61.61,0,0,1,.71.49s.19.42-.37,1.05c0,0-.28.23-.17.5A11.84,11.84,0,0,0,28.66,22l-.35.06a3,3,0,0,0-.85-1.21C27.29,20.75,27.35,20.49,27.43,20.22Z"/><path class="cls-7" d="M28.81,22.05a.37.37,0,0,0-.15-.06l-.35.06a.45.45,0,0,0,0,.17.1.1,0,0,0,.11.08l.37-.07A.1.1,0,0,0,28.81,22.05Z"/><path class="cls-9" d="M29.7,19.13h0a.09.09,0,0,0,0-.05.6.6,0,0,1,1.18-.22.92.92,0,0,1,0,.16h0a10.43,10.43,0,0,0-.29,1.23,3.64,3.64,0,0,0,.25,1.44l-.35.07Z"/><path class="cls-7" d="M30.12,17.56a1,1,0,0,1-.22.55.73.73,0,0,1-.53.26.57.57,0,0,0,.25-.43,1.24,1.24,0,0,0-.1-.5,2,2,0,0,1-.09-.22.67.67,0,0,1,.06-.57.52.52,0,0,1,.5-.24A5.87,5.87,0,0,1,30.12,17.56Z"/><path class="cls-6" d="M30.32,16.27a.26.26,0,0,0,0,.24,1.59,1.59,0,0,0,.13.22,1.47,1.47,0,0,1,.14.28,2,2,0,0,1,.05.26.81.81,0,0,1,0,.38.62.62,0,0,1-.3.34.61.61,0,0,1-.46.06.63.63,0,0,0,.2-.46,1.29,1.29,0,0,0-.1-.51c-.05-.13-.1-.25-.14-.38a.72.72,0,0,1,0-.41.61.61,0,0,1,.31-.34.56.56,0,0,1,.21-.06.3.3,0,0,1,.21.08Z"/><path class="cls-6" d="M25.51,24.8a.62.62,0,0,1,.35.08.6.6,0,0,1,.2.83.41.41,0,0,1-.12.14.6.6,0,0,0,.28-1.11A.6.6,0,0,0,25.51,24.8Z"/></g><g class="cls-12"><path class="cls-10" d="M8,9.8a.89.89,0,0,0,0-.58.14.14,0,0,1,0-.06.61.61,0,1,1,1.2-.22s.19.42-.37,1c0,0-.28.24-.17.51s.61,1.07.61,1.07l-.35.07a3,3,0,0,0-.85-1.21C7.9,10.33,8,10.07,8,9.8Z"/><path class="cls-7" d="M9.42,11.63a.5.5,0,0,0-.15-.07l-.35.07a.45.45,0,0,0,0,.17.1.1,0,0,0,.11.08l.37-.07A.1.1,0,0,0,9.42,11.63Z"/><path class="cls-7" d="M11.45,11.36a.37.37,0,0,0-.15-.06l-.36.06a.45.45,0,0,0,0,.17.1.1,0,0,0,.12.08l.36-.07A.1.1,0,0,0,11.45,11.36Z"/><path class="cls-10" d="M10.16,8.74h0a.06.06,0,0,1,0,0,.6.6,0,1,1,1.18-.22.43.43,0,0,1,0,.16h0a10.32,10.32,0,0,0-.28,1.23,3.64,3.64,0,0,0,.25,1.44l-.36.06S10.19,8.86,10.16,8.74Z"/><path class="cls-7" d="M6.38,8.29a.57.57,0,0,0,0,.55c.18.27.48.86,0,1.22s-1.07-.16-1.3-.44h0l.26.2a1.09,1.09,0,0,0,.43.19.48.48,0,0,0,.43-.14.56.56,0,0,0,0-.55,5,5,0,0,1-.23-.53.74.74,0,0,1,.1-.63.9.9,0,0,1,.57-.33.85.85,0,0,1,.5,0,1.27,1.27,0,0,1,.33.22C7.32,8,6.6,7.86,6.38,8.29Z"/><path class="cls-6" d="M6.45,10.06c.44-.36.14-1,0-1.22a.57.57,0,0,1,0-.55c.22-.43.94-.28,1.19-.21h0l0,.09c-.1,0-.65-.21-.81.17a.4.4,0,0,0,0,.38A1.69,1.69,0,0,1,7,9.91a1.16,1.16,0,0,1-1.49.73,1.16,1.16,0,0,1-.28-.55l-.09-.47C5.38,9.9,5.93,10.46,6.45,10.06Z"/><path class="cls-8" d="M7,9.91a1.69,1.69,0,0,0-.25-1.18.4.4,0,0,1,0-.38c.16-.38.71-.2.81-.17l0,0a.79.79,0,0,0-.3-.05A.45.45,0,0,0,7,8.29a.4.4,0,0,0-.08.33A.77.77,0,0,0,7,9a3.41,3.41,0,0,1,.33.73A1.06,1.06,0,0,1,5.94,10.9a1.14,1.14,0,0,1-.42-.26A1.16,1.16,0,0,0,7,9.91Z"/><path class="cls-9" d="M12.58,6.79a.31.31,0,0,0-.09-.07,2.6,2.6,0,0,1-.57-.47.71.71,0,0,1-.1-.14h0a.59.59,0,0,0-.8-.28.58.58,0,0,0-.28.76.59.59,0,0,0,.79.31h0a.33.33,0,0,1,.13,0c.08,0,.17.07.25.12a.91.91,0,0,0,.22.11.21.21,0,0,0,.23,0c.06-.06.07-.17.15-.21h0S12.6,6.83,12.58,6.79Z"/><path class="cls-6" d="M11.68,6.37h-.17l0,0,0,0h0l0,0h0a.05.05,0,0,1-.08,0,.07.07,0,0,0,0,0h.08l0,0h0v0h0s0,0,0,.07h.07c0,.06-.06.08-.06.08h.09s0,0,0,0h.19v0Z"/><path class="cls-6" d="M12.39,6.79h.09a0,0,0,0,1,0,0s0,0,0,0v0l0,0h0s0,0,0,0v0h-.07Z"/><path class="cls-6" d="M11.27,6.28a0,0,0,0,0,0,0h0a0,0,0,0,0,0,0l0,0h0S11.28,6.29,11.27,6.28Z"/><path class="cls-6" d="M11.22,6.41s0,0,0,0l0,0h0a0,0,0,0,0,0,.06.11.11,0,0,0,.07,0h0S11.24,6.43,11.22,6.41Z"/><path class="cls-9" d="M7.08,9.12a1,1,0,0,1,.4-1A1,1,0,0,1,8.35,8c1,.12,1.25-.3,1.25-.3l1.18-1.62.61.74a1.13,1.13,0,0,0-.16,1.15,1.17,1.17,0,0,1,.06.89c-.28,1-2.66,1.33-3.5,1.06A1,1,0,0,1,7.08,9.12Z"/><path class="cls-9" d="M7.49,10.29a.92.92,0,0,0,0-.57s0,0,0-.06A.61.61,0,0,1,7.93,9a.6.6,0,0,1,.71.49s.2.41-.36,1c0,0-.28.24-.18.51a12.3,12.3,0,0,0,.62,1.07l-.36.06a3,3,0,0,0-.85-1.21C7.34,10.82,7.41,10.56,7.49,10.29Z"/><path class="cls-7" d="M8.86,12.12a.3.3,0,0,0-.14-.06l-.36.06a.45.45,0,0,0,0,.17.1.1,0,0,0,.12.08l.36-.07A.1.1,0,0,0,8.86,12.12Z"/><path class="cls-7" d="M11,11.83a.5.5,0,0,0-.15-.07l-.35.07a.41.41,0,0,0,0,.17.1.1,0,0,0,.12.07L11,12A.1.1,0,0,0,11,11.83Z"/><path class="cls-9" d="M9.76,9.2h0a.09.09,0,0,1,0,0,.6.6,0,1,1,1.17-.22.45.45,0,0,1,0,.16h0a10.2,10.2,0,0,0-.29,1.24,3.77,3.77,0,0,0,.25,1.43l-.35.07S9.79,9.33,9.76,9.2Z"/><path class="cls-8" d="M11.61,6,12,5s0-.06-.06,0l-.57.85A.25.25,0,0,0,11.61,6Z"/><path class="cls-7" d="M10.17,7.63a1,1,0,0,1-.22.55.7.7,0,0,1-.53.26A.57.57,0,0,0,9.67,8a1.09,1.09,0,0,0-.1-.5,1.45,1.45,0,0,1-.09-.22.71.71,0,0,1,.06-.57.53.53,0,0,1,.5-.24A5.87,5.87,0,0,1,10.17,7.63Z"/><path class="cls-6" d="M10.38,6.34a.25.25,0,0,0,0,.25,1,1,0,0,0,.14.21,1.43,1.43,0,0,1,.13.28.8.8,0,0,1,.05.26.81.81,0,0,1,0,.38.71.71,0,0,1-.31.35.63.63,0,0,1-.45,0,.64.64,0,0,0,.19-.46,1.23,1.23,0,0,0-.09-.5c-.05-.13-.11-.26-.15-.39a.64.64,0,0,1,0-.41.62.62,0,0,1,.3-.34A.55.55,0,0,1,10.35,6a.3.3,0,0,1,.2.08Z"/><path class="cls-8" d="M11.18,5.93a.39.39,0,0,0-.3.07.36.36,0,0,0-.1.3,1.35,1.35,0,0,0,.17.5A.74.74,0,0,1,11,7a.59.59,0,0,1-.06.43.7.7,0,0,1-.53.29.57.57,0,0,0,.15-.23.49.49,0,0,0,0-.17,1.33,1.33,0,0,0-.21-.54,1,1,0,0,1-.14-.22.6.6,0,0,1,.15-.64.64.64,0,0,1,.49-.25.26.26,0,0,1,.24.12Z"/><path class="cls-7" d="M11.3,5.86a.26.26,0,0,1,.12-.26.3.3,0,0,1,.29,0,.41.41,0,0,1,.15.25c0,.1,0,.2.05.29a.88.88,0,0,0,.1.22s.06.09.11.09A.59.59,0,0,1,11.61,6C11.5,5.67,11.3,5.86,11.3,5.86Z"/><path class="cls-9" d="M11.16,6s-.27-.16-.13-.59a.48.48,0,0,1,.3.56Z"/><path class="cls-6" d="M11.13,6a.54.54,0,0,1-.05-.4s.2,0,.24.37c0,0,0,0,0,0h0s0,0,0,0h0s0,0,0,0h0S11.14,6,11.13,6Z"/><path class="cls-6" d="M16,10.47c.54.16.86-.41,1-.71a.56.56,0,0,1,.44-.33c.48,0,.75.63.83.88h0l-.09,0c0-.09-.18-.65-.59-.58a.45.45,0,0,0-.31.23c-.12.24-.44.76-.84.86A1.14,1.14,0,0,1,15,10a1,1,0,0,1,.29-.53l.35-.34C15.57,9.49,15.4,10.26,16,10.47Z"/><path class="cls-8" d="M16.46,10.85c.4-.1.72-.62.84-.86a.45.45,0,0,1,.31-.23c.41-.07.57.49.59.58h0a.9.9,0,0,0-.13-.28.38.38,0,0,0-.26-.16.4.4,0,0,0-.32.11,1.1,1.1,0,0,0-.2.28,2.8,2.8,0,0,1-.43.68,1.06,1.06,0,0,1-1,.28A1.05,1.05,0,0,1,15,10.5,1,1,0,0,1,15,10,1.14,1.14,0,0,0,16.46,10.85Z"/><path class="cls-7" d="M5.87-1.6a1.66,1.66,0,0,1,2.28.52l.31-.19a2,2,0,0,0-2.78-.64A2,2,0,0,0,5,.88l.31-.2A1.65,1.65,0,0,1,5.87-1.6Z"/><path class="cls-6" d="M5.87-1.6A1.65,1.65,0,0,0,5.35.68L5.66.49a1.29,1.29,0,0,1,.41-1.78,1.29,1.29,0,0,1,1.78.41l.3-.2A1.66,1.66,0,0,0,5.87-1.6Z"/><path class="cls-8" d="M6.07-1.29A1.29,1.29,0,0,0,5.66.49L6,.3A.93.93,0,0,1,6.26-1a.93.93,0,0,1,1.28.29l.31-.19A1.29,1.29,0,0,0,6.07-1.29Z"/><path class="cls-9" d="M5,1.66a.54.54,0,0,0,.42-.12,1.18,1.18,0,0,0,.38-.42.28.28,0,0,0,.29.06A.7.7,0,0,0,6.32,1,.41.41,0,0,0,6.44.82.18.18,0,0,0,6.38.65.58.58,0,0,0,6.67.17a.52.52,0,0,0-.29-.46.63.63,0,0,0-.58.06.78.78,0,0,0-.32.49A.32.32,0,0,0,5.11.19a.5.5,0,0,0-.27.3A.38.38,0,0,0,4.42.8a.35.35,0,0,0,.34.37S4.57,1.61,5,1.66Z"/><path class="cls-10" d="M6,.92a.4.4,0,0,1-.15,0,.37.37,0,0,1-.23,0h0s0,0,0,0a1.75,1.75,0,0,1-.33.39.57.57,0,0,1-.18.12.39.39,0,0,1-.39,0A.25.25,0,0,0,5,1.66a.54.54,0,0,0,.42-.12,1.18,1.18,0,0,0,.38-.42.28.28,0,0,0,.29.06A.7.7,0,0,0,6.32,1,.32.32,0,0,0,6.43.82a.17.17,0,0,0,0-.12A1.26,1.26,0,0,1,6,.92Z"/><path class="cls-9" d="M7.4.27A.62.62,0,0,0,7.83.15,1.35,1.35,0,0,0,8.2-.27a.26.26,0,0,0,.29.05A.53.53,0,0,0,8.75-.4a.41.41,0,0,0,.12-.17.18.18,0,0,0-.06-.18.55.55,0,0,0,.29-.47.52.52,0,0,0-.29-.46.63.63,0,0,0-.58.06.78.78,0,0,0-.32.49.31.31,0,0,0-.37-.07.5.5,0,0,0-.27.3.38.38,0,0,0-.42.31.35.35,0,0,0,.34.37S7,.22,7.4.27Z"/><path class="cls-10" d="M8.47-.47l-.15,0a.33.33,0,0,1-.22,0h0l0,0a2.37,2.37,0,0,1-.32.39A.76.76,0,0,1,7.54,0a.41.41,0,0,1-.39,0A.26.26,0,0,0,7.4.27.62.62,0,0,0,7.83.15,1.35,1.35,0,0,0,8.2-.27a.26.26,0,0,0,.29.05A.53.53,0,0,0,8.75-.4a.41.41,0,0,0,.12-.17.25.25,0,0,0,0-.12A1.26,1.26,0,0,1,8.47-.47Z"/><path class="cls-7" d="M14.84,3.08A1.41,1.41,0,0,1,15.53,5l.29.13a1.73,1.73,0,1,0-3.15-1.45l.29.13A1.41,1.41,0,0,1,14.84,3.08Z"/><path class="cls-6" d="M14.84,3.08A1.41,1.41,0,0,0,13,3.77l.28.13a1.11,1.11,0,1,1,2,.93l.28.13A1.41,1.41,0,0,0,14.84,3.08Z"/><path class="cls-8" d="M14.71,3.36a1.11,1.11,0,0,0-1.47.54l.28.13A.8.8,0,1,1,15,4.7l.28.13A1.11,1.11,0,0,0,14.71,3.36Z"/><path class="cls-9" d="M12.08,4a.49.49,0,0,0,.28.25,1.15,1.15,0,0,0,.48.07.26.26,0,0,0,.1.24.69.69,0,0,0,.25.1h.18a.13.13,0,0,0,.09-.13.48.48,0,0,0,.48,0,.45.45,0,0,0,.2-.42.55.55,0,0,0-.32-.39.62.62,0,0,0-.5,0,.26.26,0,0,0-.12-.3.43.43,0,0,0-.35-.05.32.32,0,0,0-.41-.16.3.3,0,0,0-.11.42S11.93,3.65,12.08,4Z"/><path class="cls-10" d="M13.11,4.38A.76.76,0,0,1,13,4.29.28.28,0,0,1,13,4.1s0,0,0,0h0A1.27,1.27,0,0,1,12.49,4,.67.67,0,0,1,12.31,4a.34.34,0,0,1-.14-.31.22.22,0,0,0-.09.32.49.49,0,0,0,.28.25,1.15,1.15,0,0,0,.48.07.26.26,0,0,0,.1.24.69.69,0,0,0,.25.1h.18a.24.24,0,0,0,.08-.06A1.11,1.11,0,0,1,13.11,4.38Z"/><path class="cls-9" d="M14.21,5.05a.51.51,0,0,0,.29.25,1.12,1.12,0,0,0,.48.07.22.22,0,0,0,.1.23.46.46,0,0,0,.25.1.33.33,0,0,0,.17,0,.13.13,0,0,0,.1-.13.48.48,0,0,0,.48,0,.42.42,0,0,0,.19-.42A.51.51,0,0,0,16,4.76a.65.65,0,0,0-.51,0,.26.26,0,0,0-.12-.3.41.41,0,0,0-.34,0,.33.33,0,0,0-.42-.16.3.3,0,0,0-.1.42S14.07,4.74,14.21,5.05Z"/><path class="cls-10" d="M15.25,5.47l-.1-.09a.33.33,0,0,1-.06-.19,0,0,0,0,0,0,0h0a1.24,1.24,0,0,1-.43,0A1,1,0,0,1,14.45,5a.35.35,0,0,1-.14-.31.22.22,0,0,0-.1.32.51.51,0,0,0,.29.25,1.12,1.12,0,0,0,.48.07.22.22,0,0,0,.1.23.46.46,0,0,0,.25.1.33.33,0,0,0,.17,0,.11.11,0,0,0,.08-.07A.87.87,0,0,1,15.25,5.47Z"/><path class="cls-6" d="M5.56,14.87a.66.66,0,0,1,.36.08.61.61,0,0,1,.2.83.64.64,0,0,1-.13.15.63.63,0,0,0,.48-.29.59.59,0,0,0-.2-.83A.6.6,0,0,0,5.56,14.87Z"/><path class="cls-6" d="M13.33,13.74a.24.24,0,0,1-.48,0,.24.24,0,0,1,.48,0Z"/><path class="cls-6" d="M8.2,4.59A.24.24,0,0,1,8,4.83a.24.24,0,0,1,0-.48A.24.24,0,0,1,8.2,4.59Z"/><path class="cls-7" d="M12.63,1.67a.24.24,0,0,1-.24.24.23.23,0,0,1-.23-.24.23.23,0,0,1,.23-.23A.23.23,0,0,1,12.63,1.67Z"/><path class="cls-7" d="M13.91,9.86a.24.24,0,1,1-.47,0,.23.23,0,0,1,.23-.23A.23.23,0,0,1,13.91,9.86Z"/><path class="cls-8" d="M5.8,5a.24.24,0,0,1-.24.24A.23.23,0,0,1,5.33,5a.23.23,0,0,1,.23-.23A.23.23,0,0,1,5.8,5Z"/><path class="cls-8" d="M2.25.45A.23.23,0,0,1,2,.68.23.23,0,0,1,1.78.45.24.24,0,0,1,2,.21.23.23,0,0,1,2.25.45Z"/><path class="cls-8" d="M10.71,14.72a.24.24,0,0,1-.24.24.24.24,0,0,1,0-.48A.24.24,0,0,1,10.71,14.72Z"/><path class="cls-10" d="M1,12.43a.85.85,0,0,1,.09-.54l0-.06a.59.59,0,0,0-.38-.74.6.6,0,0,0-.75.38s-.23.37.23,1c0,0,.24.27.1.51a11.64,11.64,0,0,1-.72,1l.33.11s.48-.86,1-1.06C1.09,13,1.06,12.7,1,12.43Z"/><path class="cls-7" d="M2.8,11.2a.52.52,0,0,1-.1.52c-.21.24-.56.76-.19,1.16s1.05,0,1.3-.26h0l-.27.16a1,1,0,0,1-.44.13.43.43,0,0,1-.39-.19.54.54,0,0,1,0-.53c.09-.16.21-.3.29-.47a.77.77,0,0,0,0-.63.86.86,0,0,0-.51-.38.88.88,0,0,0-.48,0,1.45,1.45,0,0,0-.35.18C1.94,10.81,2.64,10.76,2.8,11.2Z"/><path class="cls-6" d="M2.51,12.88c-.37-.4,0-.92.19-1.16a.52.52,0,0,0,.1-.52c-.16-.44-.86-.39-1.12-.35h0l0,.09c.09,0,.64-.12.75.27a.39.39,0,0,1-.07.36A1.65,1.65,0,0,0,2,12.67a1.12,1.12,0,0,0,1.34.88,1.12,1.12,0,0,0,.34-.49l.14-.44C3.56,12.86,3,13.34,2.51,12.88Z"/><path class="cls-8" d="M2,12.67a1.65,1.65,0,0,1,.39-1.1.39.39,0,0,0,.07-.36c-.11-.39-.66-.29-.75-.27v0A.71.71,0,0,1,2,11a.36.36,0,0,1,.25.16.36.36,0,0,1,0,.32,1.05,1.05,0,0,1-.15.3,2.89,2.89,0,0,0-.41.66,1.05,1.05,0,0,0,.19,1,1,1,0,0,0,1,.32,1,1,0,0,0,.43-.2A1.12,1.12,0,0,1,2,12.67Z"/><path class="cls-9" d="M2,11.91a.94.94,0,0,0-.25-1A1,1,0,0,0,1,10.64c-1,0-1.16-.44-1.16-.44l-.93-1.71-.68.64a1.12,1.12,0,0,1,0,1.13A1.13,1.13,0,0,0-2,11.1c.15,1,2.39,1.61,3.23,1.46A1,1,0,0,0,2,11.91Z"/><path class="cls-9" d="M1.49,13a.88.88,0,0,1,.1-.55s0,0,0,0a.59.59,0,0,0-.38-.75A.59.59,0,0,0,.49,12s-.24.38.22,1.05a.48.48,0,0,1,.1.51c-.14.24-.72.95-.72.95l.33.11s.49-.87,1-1.06C1.56,13.5,1.53,13.25,1.49,13Z"/><path class="cls-7" d="M-.06,14.56a.34.34,0,0,1,.15,0l.33.11a.37.37,0,0,1,0,.16.09.09,0,0,1-.12.06L0,14.74A.1.1,0,0,1-.06,14.56Z"/><path class="cls-7" d="M-.75,10.09a1,1,0,0,0,.14.56A.69.69,0,0,0-.14,11a.51.51,0,0,1-.18-.44,1,1,0,0,1,.16-.47A2,2,0,0,0,0,9.85.66.66,0,0,0,0,9.3.5.5,0,0,0-.48,9,5.83,5.83,0,0,0-.75,10.09Z"/><path class="cls-6" d="M2.28,9.37l-.23-.19a.11.11,0,0,0-.1,0l-.28.08a.11.11,0,0,1-.13-.15l.1-.27a.09.09,0,0,0,0-.1l-.16-.24a.12.12,0,0,1,.1-.18l.29,0a.18.18,0,0,0,.1,0l.17-.23a.11.11,0,0,1,.2,0l.07.28s0,.06.08.08l.27.1a.11.11,0,0,1,0,.2l-.25.15a.12.12,0,0,0,0,.09v.29A.11.11,0,0,1,2.28,9.37Z"/><path class="cls-7" d="M3.14,16.88l-.22-.18a.08.08,0,0,0-.1,0l-.28.07a.11.11,0,0,1-.13-.15l.1-.26a.11.11,0,0,0,0-.11L2.34,16a.11.11,0,0,1,.1-.17h.29a.08.08,0,0,0,.09,0L3,15.56a.12.12,0,0,1,.2,0l.07.28a.11.11,0,0,0,.07.08l.28.1a.11.11,0,0,1,0,.2l-.25.16a.11.11,0,0,0-.05.09v.29A.12.12,0,0,1,3.14,16.88Z"/><path class="cls-7" d="M5.24,6.23a.68.68,0,0,1,.1.35.6.6,0,0,1-.6.6l-.18,0a.59.59,0,0,0,.49.26.61.61,0,0,0,.19-1.18Z"/><path class="cls-8" d="M2.14,6.23a.24.24,0,0,1-.48,0,.24.24,0,0,1,.48,0Z"/><path class="cls-10" d="M-.77,2.9h0l0,0a.59.59,0,0,1,.84,0,.59.59,0,0,1,0,.84L0,3.82H0a10.15,10.15,0,0,0-1.18.44,3.61,3.61,0,0,0-1.06,1L-2.52,5Z"/><path class="cls-9" d="M2.19,3.84s0-.08,0-.12A2.6,2.6,0,0,1,2.28,3a.52.52,0,0,1,.06-.16h0a.59.59,0,0,0-1-.63A.59.59,0,0,0,1.53,3h0v0a.18.18,0,0,1,0,.13,2.51,2.51,0,0,1,0,.27,1.07,1.07,0,0,0,0,.25.2.2,0,0,0,.16.16c.09,0,.18,0,.25,0l0,0S2.17,3.88,2.19,3.84Z"/><path class="cls-6" d="M2,2.86H2a0,0,0,0,0,0,0h0a0,0,0,0,0,0,0V2.7a.07.07,0,0,1,0-.05v0h0a0,0,0,0,0,0,0,.07.07,0,0,1,0-.08.06.06,0,0,0,0,.06h0s0,0,0,0h0a.11.11,0,0,1,0,0h.07a.08.08,0,0,1-.08,0H1.9a.08.08,0,0,1-.1,0h.09v0s0,0,0,0h0l0,0H2Z"/><path class="cls-6" d="M2.09,3.69h0a0,0,0,0,1,0,0v0s0,0,0,0a0,0,0,0,1,0,0h0l0,0h0v0h0Z"/><path class="cls-6" d="M1.89,2.47s0,0,0,0h0s0,0,0,0,0,0,0,0,0,0,0,.05h0Z"/><path class="cls-6" d="M1.76,2.5s0,0,0,0h0s0,0,0,0a0,0,0,0,0-.05,0,.09.09,0,0,0,0,.07s0,0,0,0S1.75,2.52,1.76,2.5Z"/><path class="cls-9" d="M-2.79.55a1,1,0,0,1,1-.21c.2,0,.42.22.62.62.45.89,1,.89,1,.89l2,.08-.28.92a1.15,1.15,0,0,0-1.06.5,1.16,1.16,0,0,1-.7.55C-1.23,4.23-2.8,2.42-3,1.56A1,1,0,0,1-2.79.55Z"/><path class="cls-8" d="M2.36,2.57l1-.19a0,0,0,0,0,0-.07h-1A.26.26,0,0,0,2.36,2.57Z"/><path class="cls-7" d="M.16,2.3a1.07,1.07,0,0,1-.58.12.73.73,0,0,1-.51-.3.53.53,0,0,0,.49,0,1.06,1.06,0,0,0,.37-.36l.13-.2a.73.73,0,0,1,.51-.26.54.54,0,0,1,.48.28A6.51,6.51,0,0,1,.16,2.3Z"/><path class="cls-6" d="M1.35,1.76a.24.24,0,0,0-.22.11A2.4,2.4,0,0,0,1,2.1a1.17,1.17,0,0,1-.15.27l-.19.19a.84.84,0,0,1-.34.17.64.64,0,0,1-.45,0,.68.68,0,0,1-.3-.35.65.65,0,0,0,.49-.1,1.27,1.27,0,0,0,.37-.36,4,4,0,0,1,.24-.33A.65.65,0,0,1,1,1.31a.6.6,0,0,1,.45.07.55.55,0,0,1,.17.14.36.36,0,0,1,.05.22Z"/><path class="cls-8" d="M2.14,2.2A.37.37,0,0,0,1.91,2a.33.33,0,0,0-.3.08,1.49,1.49,0,0,0-.33.41.83.83,0,0,1-.13.18.61.61,0,0,1-.4.19.72.72,0,0,1-.53-.28.66.66,0,0,0,.28,0,.41.41,0,0,0,.13-.1A1.14,1.14,0,0,0,1,2a1.73,1.73,0,0,1,.1-.24.62.62,0,0,1,.63-.23.68.68,0,0,1,.47.28.25.25,0,0,1,0,.26Z"/><path class="cls-7" d="M2.25,2.26a.28.28,0,0,1,.29,0,.29.29,0,0,1,.16.25.37.37,0,0,1-.12.26,2.08,2.08,0,0,0-.21.21.72.72,0,0,0-.14.2.17.17,0,0,0,0,.14.59.59,0,0,1,.06-.65C2.53,2.32,2.25,2.26,2.25,2.26Z"/><path class="cls-9" d="M2.06,2.22s0-.31.42-.43a.46.46,0,0,1-.3.55Z"/><path class="cls-6" d="M2.08,2.18a.47.47,0,0,1,.3-.26s.09.18-.17.4a0,0,0,0,1,0,0h0s0,0,0,0h0a0,0,0,0,1,0,0h0s0,0,0,0h0S2.07,2.2,2.08,2.18Z"/><path class="cls-7" d="M5,3.2a.24.24,0,0,1-.24.24.23.23,0,0,1-.23-.24A.23.23,0,0,1,4.79,3,.23.23,0,0,1,5,3.2Z"/><path class="cls-8" d="M8.43,1.29a.24.24,0,0,1-.24.24.24.24,0,0,1,0-.48A.24.24,0,0,1,8.43,1.29Z"/></g><g class="cls-13"><path class="cls-10" d="M8,29.65a.86.86,0,0,0,0-.57A.14.14,0,0,1,8,29a.61.61,0,1,1,1.2-.22s.19.41-.37,1c0,0-.28.24-.17.51s.61,1.07.61,1.07l-.35.07a3,3,0,0,0-.85-1.22C7.9,30.18,8,29.92,8,29.65Z"/><path class="cls-10" d="M10.16,28.59h0a.07.07,0,0,1,0-.05.6.6,0,1,1,1.18-.21.38.38,0,0,1,0,.15h0a10.58,10.58,0,0,0-.28,1.24,3.56,3.56,0,0,0,.25,1.43l-.36.07S10.19,28.72,10.16,28.59Z"/><path class="cls-7" d="M6.38,28.15a.55.55,0,0,0,0,.54c.18.28.48.86,0,1.23s-1.07-.17-1.3-.44v0l.26.2a1.29,1.29,0,0,0,.43.2.48.48,0,0,0,.43-.14.56.56,0,0,0,0-.55c-.07-.18-.18-.35-.23-.53a.76.76,0,0,1,.1-.64.89.89,0,0,1,.57-.32.94.94,0,0,1,.5,0,1.3,1.3,0,0,1,.33.23C7.32,27.87,6.6,27.72,6.38,28.15Z"/><path class="cls-6" d="M6.45,29.92c.44-.37.14-1,0-1.23a.55.55,0,0,1,0-.54c.22-.43.94-.28,1.19-.21h0l0,.09c-.1,0-.65-.21-.81.16a.41.41,0,0,0,0,.39A1.68,1.68,0,0,1,7,29.77a1.15,1.15,0,0,1-1.49.72A1.12,1.12,0,0,1,5.24,30l-.09-.47C5.38,29.75,5.93,30.32,6.45,29.92Z"/><path class="cls-8" d="M7,29.77a1.68,1.68,0,0,0-.25-1.18.41.41,0,0,1,0-.39c.16-.37.71-.2.81-.16l0,0a.63.63,0,0,0-.3,0,.36.36,0,0,0-.28.12.39.39,0,0,0-.08.33.82.82,0,0,0,.12.33,3.41,3.41,0,0,1,.33.73,1.06,1.06,0,0,1-1.38,1.22,1.17,1.17,0,0,1-.42-.27A1.15,1.15,0,0,0,7,29.77Z"/><path class="cls-9" d="M12.58,26.65a.34.34,0,0,0-.09-.08,2.3,2.3,0,0,1-.57-.46.71.71,0,0,1-.1-.14h0a.59.59,0,0,0-1.08.49.59.59,0,0,0,.79.3h0a.33.33,0,0,1,.13,0,1.42,1.42,0,0,1,.25.12.91.91,0,0,0,.22.11.24.24,0,0,0,.23-.05c.06-.06.07-.16.15-.2h0A.09.09,0,0,0,12.58,26.65Z"/><path class="cls-6" d="M11.68,26.23h-.2s0,0,0,0v0h0s0,0,0,0a.06.06,0,0,1-.08,0,.05.05,0,0,0,0,0h0s0,0,0,0h0l0,0a.07.07,0,0,1-.06,0h.11a.09.09,0,0,1,0,.07h.06s0,0,0,0-.06.09-.06.09h.09s0,0,0,0h.18v0h0Z"/><path class="cls-6" d="M12.39,26.65h0s0,0,0,0h0s0,0,0,0a0,0,0,0,1,0,0s0,0,0,0l0,0h0a0,0,0,0,0,0,0h-.07Z"/><path class="cls-6" d="M11.27,26.14s0,0,0,0,0,0,0,0h0a0,0,0,0,0,0,0s0,0,0,0h0S11.28,26.15,11.27,26.14Z"/><path class="cls-6" d="M11.22,26.27s0,0,0,0l0,0h0s0,0,0,.06l.07,0h0S11.24,26.29,11.22,26.27Z"/><path class="cls-9" d="M7.08,29a1,1,0,0,1,.4-1,1,1,0,0,1,.87-.18c1,.12,1.25-.3,1.25-.3l1.18-1.62.61.74a1.15,1.15,0,0,0-.16,1.16,1.15,1.15,0,0,1,.06.88c-.28,1-2.66,1.34-3.5,1.07A1,1,0,0,1,7.08,29Z"/><path class="cls-9" d="M7.49,30.15a1,1,0,0,0,0-.58s0,0,0-.06a.61.61,0,0,1,1.2-.22s.2.42-.36,1c0,0-.28.24-.18.51s.62,1.08.62,1.08L8.36,32a3,3,0,0,0-.85-1.21C7.34,30.68,7.41,30.42,7.49,30.15Z"/><path class="cls-9" d="M9.76,29.06h0a.09.09,0,0,1,0,0,.6.6,0,1,1,1.17-.22.43.43,0,0,1,0,.16h0a10,10,0,0,0-.29,1.23,3.85,3.85,0,0,0,.25,1.44l-.35.06S9.79,29.18,9.76,29.06Z"/><path class="cls-8" d="M11.61,25.81l.38-.92s0-.06-.06,0l-.57.84A.24.24,0,0,0,11.61,25.81Z"/><path class="cls-7" d="M10.17,27.48A1,1,0,0,1,10,28a.73.73,0,0,1-.53.26.57.57,0,0,0,.25-.43,1.09,1.09,0,0,0-.1-.5,2.18,2.18,0,0,1-.09-.23.69.69,0,0,1,.06-.56.56.56,0,0,1,.5-.25A6,6,0,0,1,10.17,27.48Z"/><path class="cls-6" d="M10.38,26.2a.23.23,0,0,0,0,.24,1,1,0,0,0,.14.22,1.43,1.43,0,0,1,.13.28,1.18,1.18,0,0,1,0,.63.67.67,0,0,1-.31.35.59.59,0,0,1-.45.06.66.66,0,0,0,.19-.46A1.25,1.25,0,0,0,10,27c-.05-.13-.11-.25-.15-.39a.61.61,0,0,1,0-.4.59.59,0,0,1,.3-.34.55.55,0,0,1,.22-.06.26.26,0,0,1,.2.08Z"/><path class="cls-8" d="M11.18,25.78a.39.39,0,0,0-.3.08.35.35,0,0,0-.1.29,1.29,1.29,0,0,0,.17.5.86.86,0,0,1,.07.21.61.61,0,0,1-.06.44.7.7,0,0,1-.53.29.57.57,0,0,0,.15-.23.48.48,0,0,0,0-.17,1.33,1.33,0,0,0-.21-.54,1,1,0,0,1-.14-.22.61.61,0,0,1,.15-.65.66.66,0,0,1,.49-.24.26.26,0,0,1,.24.12Z"/><path class="cls-7" d="M11.3,25.72a.25.25,0,0,1,.12-.26.26.26,0,0,1,.29,0,.38.38,0,0,1,.15.25c0,.09,0,.19.05.29a1.07,1.07,0,0,0,.1.22.13.13,0,0,0,.11.08.57.57,0,0,1-.51-.4C11.5,25.52,11.3,25.72,11.3,25.72Z"/><path class="cls-9" d="M11.16,25.86s-.27-.16-.13-.59a.47.47,0,0,1,.3.56Z"/><path class="cls-6" d="M11.13,25.83a.55.55,0,0,1-.05-.4s.2,0,.24.36c0,0,0,0,0,0h0a0,0,0,0,1,0,0h0a0,0,0,0,0,0,0h0S11.14,25.84,11.13,25.83Z"/><path class="cls-6" d="M16,30.32c.54.17.86-.4,1-.7a.56.56,0,0,1,.44-.33c.48-.05.75.62.83.88h0l-.09,0c0-.1-.18-.65-.59-.58a.45.45,0,0,0-.31.23c-.12.24-.44.76-.84.86A1.15,1.15,0,0,1,15,29.87a1.06,1.06,0,0,1,.29-.54l.35-.33C15.57,29.34,15.4,30.12,16,30.32Z"/><path class="cls-8" d="M16.46,30.71c.4-.1.72-.62.84-.86a.45.45,0,0,1,.31-.23c.41-.07.57.48.59.58h0a.9.9,0,0,0-.13-.28.35.35,0,0,0-.26-.16.4.4,0,0,0-.32.11,1.1,1.1,0,0,0-.2.28,3,3,0,0,1-.43.68,1.06,1.06,0,0,1-1,.28,1.08,1.08,0,0,1-.75-.76,1,1,0,0,1,0-.49A1.15,1.15,0,0,0,16.46,30.71Z"/><path class="cls-7" d="M5.87,18.26a1.65,1.65,0,0,1,2.28.52l.31-.19A2,2,0,1,0,5,20.73l.31-.19A1.65,1.65,0,0,1,5.87,18.26Z"/><path class="cls-6" d="M5.87,18.26a1.65,1.65,0,0,0-.52,2.28l.31-.19A1.29,1.29,0,0,1,7.85,19l.3-.19A1.65,1.65,0,0,0,5.87,18.26Z"/><path class="cls-8" d="M6.07,18.57a1.28,1.28,0,0,0-.41,1.78l.3-.2a.93.93,0,1,1,1.58-1l.31-.2A1.29,1.29,0,0,0,6.07,18.57Z"/><path class="cls-9" d="M5,21.52a.54.54,0,0,0,.42-.13A1.15,1.15,0,0,0,5.77,21a.28.28,0,0,0,.29.05.58.58,0,0,0,.26-.18.48.48,0,0,0,.12-.17.18.18,0,0,0-.06-.18A.55.55,0,0,0,6.67,20a.51.51,0,0,0-.29-.46.63.63,0,0,0-.58.05.8.8,0,0,0-.32.5A.32.32,0,0,0,5.11,20a.55.55,0,0,0-.27.31.37.37,0,0,0-.42.31.34.34,0,0,0,.34.36S4.57,21.46,5,21.52Z"/><path class="cls-10" d="M6,20.77a.42.42,0,0,1-.15,0,.37.37,0,0,1-.23,0s0,0,0,0h0a1.55,1.55,0,0,1-.33.39.59.59,0,0,1-.18.13.39.39,0,0,1-.39-.06.25.25,0,0,0,.25.3.54.54,0,0,0,.42-.13A1.15,1.15,0,0,0,5.77,21a.28.28,0,0,0,.29.05.58.58,0,0,0,.26-.18.36.36,0,0,0,.11-.17.17.17,0,0,0,0-.12A1.23,1.23,0,0,1,6,20.77Z"/><path class="cls-9" d="M7.4,20.13A.58.58,0,0,0,7.83,20a1.22,1.22,0,0,0,.37-.41.3.3,0,0,0,.29.05.61.61,0,0,0,.26-.18.48.48,0,0,0,.12-.17c0-.07,0-.15-.06-.18a.55.55,0,0,0,.29-.47.51.51,0,0,0-.29-.46.63.63,0,0,0-.58.05.8.8,0,0,0-.32.5.32.32,0,0,0-.37-.08.55.55,0,0,0-.27.31.37.37,0,0,0-.42.31.34.34,0,0,0,.34.36S7,20.07,7.4,20.13Z"/><path class="cls-10" d="M8.47,19.38a.42.42,0,0,1-.15,0,.4.4,0,0,1-.22-.05s0,0,0,0h0a1.76,1.76,0,0,1-.32.39.8.8,0,0,1-.19.13.41.41,0,0,1-.39-.06.26.26,0,0,0,.25.3A.58.58,0,0,0,7.83,20a1.22,1.22,0,0,0,.37-.41.3.3,0,0,0,.29.05.61.61,0,0,0,.26-.18.48.48,0,0,0,.12-.17.25.25,0,0,0,0-.12A1.23,1.23,0,0,1,8.47,19.38Z"/><path class="cls-7" d="M14.84,22.93a1.41,1.41,0,0,1,.69,1.88l.29.13a1.73,1.73,0,0,0-3.15-1.44l.29.13A1.42,1.42,0,0,1,14.84,22.93Z"/><path class="cls-6" d="M14.84,22.93a1.42,1.42,0,0,0-1.88.7l.28.13a1.11,1.11,0,0,1,2,.92l.28.13A1.41,1.41,0,0,0,14.84,22.93Z"/><path class="cls-8" d="M14.71,23.22a1.1,1.1,0,0,0-1.47.54l.28.13a.8.8,0,0,1,1.45.66l.28.13A1.1,1.1,0,0,0,14.71,23.22Z"/><path class="cls-9" d="M12.08,23.82a.45.45,0,0,0,.28.24,1.16,1.16,0,0,0,.48.08.24.24,0,0,0,.1.23.55.55,0,0,0,.25.1.37.37,0,0,0,.18,0c.05,0,.1-.07.09-.12a.51.51,0,0,0,.48,0,.45.45,0,0,0,.2-.43.59.59,0,0,0-.32-.39.62.62,0,0,0-.5,0,.28.28,0,0,0-.12-.31.47.47,0,0,0-.35,0,.31.31,0,0,0-.41-.16.3.3,0,0,0-.11.42S11.93,23.5,12.08,23.82Z"/><path class="cls-10" d="M13.11,24.24a.43.43,0,0,1-.09-.1A.26.26,0,0,1,13,24a0,0,0,0,0,0,0h0a1.58,1.58,0,0,1-.43-.05.71.71,0,0,1-.18-.08.33.33,0,0,1-.14-.3.22.22,0,0,0-.09.32.45.45,0,0,0,.28.24,1.16,1.16,0,0,0,.48.08.24.24,0,0,0,.1.23.55.55,0,0,0,.25.1.37.37,0,0,0,.18,0,.16.16,0,0,0,.08-.06A1.35,1.35,0,0,1,13.11,24.24Z"/><path class="cls-9" d="M14.21,24.91a.5.5,0,0,0,.29.24,1.13,1.13,0,0,0,.48.08.23.23,0,0,0,.1.23.55.55,0,0,0,.25.1.33.33,0,0,0,.17,0c.06,0,.11-.07.1-.12a.51.51,0,0,0,.48,0,.43.43,0,0,0,.19-.43.53.53,0,0,0-.31-.39.65.65,0,0,0-.51,0,.28.28,0,0,0-.12-.31.44.44,0,0,0-.34,0,.31.31,0,0,0-.42-.16.29.29,0,0,0-.1.41S14.07,24.59,14.21,24.91Z"/><path class="cls-10" d="M15.25,25.32a.28.28,0,0,1-.1-.09.3.3,0,0,1-.06-.18s0,0,0,0h0a1.54,1.54,0,0,1-.43-.05.58.58,0,0,1-.18-.08.34.34,0,0,1-.14-.3.22.22,0,0,0-.1.32.5.5,0,0,0,.29.24,1.13,1.13,0,0,0,.48.08.23.23,0,0,0,.1.23.55.55,0,0,0,.25.1.33.33,0,0,0,.17,0,.1.1,0,0,0,.08-.06A1.06,1.06,0,0,1,15.25,25.32Z"/><path class="cls-8" d="M11.48,18.31l-.23-.18a.1.1,0,0,0-.1,0l-.28.08a.11.11,0,0,1-.13-.15l.1-.27a.09.09,0,0,0,0-.1l-.16-.24a.12.12,0,0,1,.1-.18l.29,0a.13.13,0,0,0,.1,0l.17-.23a.12.12,0,0,1,.2,0l.07.28a.11.11,0,0,0,.07.08l.28.1a.11.11,0,0,1,0,.2l-.25.16a.11.11,0,0,0-.05.09v.29A.11.11,0,0,1,11.48,18.31Z"/><path class="cls-6" d="M15.47,18.81a.24.24,0,1,1-.24-.24A.24.24,0,0,1,15.47,18.81Z"/><path class="cls-6" d="M8.2,24.45a.23.23,0,0,1-.24.23.23.23,0,0,1-.23-.23A.23.23,0,0,1,8,24.21.24.24,0,0,1,8.2,24.45Z"/><path class="cls-7" d="M12.63,21.53a.24.24,0,0,1-.24.24.24.24,0,0,1,0-.48A.24.24,0,0,1,12.63,21.53Z"/><path class="cls-7" d="M13.91,29.72a.24.24,0,1,1-.24-.24A.24.24,0,0,1,13.91,29.72Z"/><path class="cls-7" d="M7.89,16.16a.24.24,0,1,1-.48,0,.24.24,0,0,1,.48,0Z"/><path class="cls-8" d="M5.8,24.84a.24.24,0,0,1-.24.24.24.24,0,0,1,0-.48A.24.24,0,0,1,5.8,24.84Z"/><path class="cls-8" d="M2.25,20.3a.23.23,0,0,1-.23.24.24.24,0,0,1-.24-.24A.23.23,0,0,1,2,20.07.23.23,0,0,1,2.25,20.3Z"/><path class="cls-9" d="M2,31.76a1,1,0,0,0-.25-1A1,1,0,0,0,1,30.5c-1,0-1.16-.45-1.16-.45l-.93-1.7-.68.63a1.14,1.14,0,0,1,0,1.14A1.1,1.1,0,0,0-2,31c.15,1,2.39,1.62,3.23,1.46A.94.94,0,0,0,2,31.76Z"/><path class="cls-7" d="M-.75,29.94a1,1,0,0,0,.14.56.7.7,0,0,0,.47.32.52.52,0,0,1-.18-.44,1,1,0,0,1,.16-.47A1.39,1.39,0,0,0,0,29.7a.64.64,0,0,0,0-.54.49.49,0,0,0-.44-.3A5.68,5.68,0,0,0-.75,29.94Z"/><path class="cls-6" d="M2.28,29.22,2.05,29S2,29,2,29l-.28.08A.11.11,0,0,1,1.54,29l.1-.27a.11.11,0,0,0,0-.11l-.16-.24a.11.11,0,0,1,.1-.17h.29a.1.1,0,0,0,.1,0l.17-.23a.12.12,0,0,1,.2.05l.07.28a.11.11,0,0,0,.08.07l.27.1a.11.11,0,0,1,0,.2l-.25.16a.11.11,0,0,0,0,.09v.29A.11.11,0,0,1,2.28,29.22Z"/><path class="cls-7" d="M5.24,26.09a.68.68,0,0,1,.1.35.6.6,0,0,1-.6.6.57.57,0,0,1-.18,0,.59.59,0,0,0,.49.26.61.61,0,0,0,.19-1.18Z"/><path class="cls-8" d="M2.14,26.09a.24.24,0,1,1-.24-.24A.24.24,0,0,1,2.14,26.09Z"/><path class="cls-10" d="M-.77,22.76h0s0,0,0,0a.6.6,0,0,1,.84,0,.6.6,0,0,1,0,.85.38.38,0,0,1-.13.09H0a8.57,8.57,0,0,0-1.18.44,3.47,3.47,0,0,0-1.06,1l-.25-.26Z"/><path class="cls-9" d="M2.19,23.7a.25.25,0,0,0,0-.12,2.56,2.56,0,0,1,.08-.73.44.44,0,0,1,.06-.16h0a.59.59,0,0,0-1-.63.58.58,0,0,0,.19.82h0a.22.22,0,0,1,0,.13,2.7,2.7,0,0,1,0,.28,1,1,0,0,0,0,.24.22.22,0,0,0,.16.17c.09,0,.18,0,.25,0l0,0A.09.09,0,0,0,2.19,23.7Z"/><path class="cls-6" d="M2,22.71H2l0,0h0s0,0,0,0v-.06a.13.13,0,0,1,0-.06v0h0s0,0,0,0-.05,0,0-.07a0,0,0,0,0,0,.05v0h0a.11.11,0,0,1,0,0h.07a.08.08,0,0,1-.08,0H1.9a.08.08,0,0,1-.1,0h.09v0s0,0,0,0v0h0l0,0H2Z"/><path class="cls-6" d="M2.09,23.54h0v0a0,0,0,0,1,0,0v0l0,0h0v0h0Z"/><path class="cls-6" d="M1.89,22.32a0,0,0,0,0,0,0h0a0,0,0,0,0,0,0s0,0,0,.05a0,0,0,0,0,0,0S1.89,22.34,1.89,22.32Z"/><path class="cls-6" d="M1.76,22.36a0,0,0,0,0,0-.05h0s0,0,0,0-.05,0-.05,0a.11.11,0,0,0,0,.08h0S1.75,22.38,1.76,22.36Z"/><path class="cls-9" d="M-2.79,20.41a1,1,0,0,1,1-.22c.2,0,.42.22.62.63.45.89,1,.88,1,.88l2,.09-.28.92a1.15,1.15,0,0,0-1.06.5,1.1,1.1,0,0,1-.7.54c-1,.33-2.58-1.48-2.82-2.33A1,1,0,0,1-2.79,20.41Z"/><path class="cls-8" d="M2.36,22.43l1-.2s0-.06,0-.06h-1A.26.26,0,0,0,2.36,22.43Z"/><path class="cls-7" d="M.16,22.16a1,1,0,0,1-.58.11A.69.69,0,0,1-.93,22a.56.56,0,0,0,.49,0,1.16,1.16,0,0,0,.37-.36,1.37,1.37,0,0,1,.13-.2.69.69,0,0,1,.51-.26.52.52,0,0,1,.48.28A6.51,6.51,0,0,1,.16,22.16Z"/><path class="cls-6" d="M1.35,21.62a.24.24,0,0,0-.22.11A1.63,1.63,0,0,0,1,22a1.35,1.35,0,0,1-.15.26,1.8,1.8,0,0,1-.19.2,1,1,0,0,1-.34.17.59.59,0,0,1-.45-.06.61.61,0,0,1-.3-.35.65.65,0,0,0,.49-.09,1.27,1.27,0,0,0,.37-.36c.08-.11.15-.23.24-.34A.79.79,0,0,1,1,21.16a.65.65,0,0,1,.45.07.8.8,0,0,1,.17.15.33.33,0,0,1,.05.22Z"/><path class="cls-8" d="M2.14,22.05a.43.43,0,0,0-.23-.21.36.36,0,0,0-.3.08,1.7,1.7,0,0,0-.33.42,1.18,1.18,0,0,1-.13.18.61.61,0,0,1-.4.19.72.72,0,0,1-.53-.29.53.53,0,0,0,.28,0,.38.38,0,0,0,.13-.09A1.21,1.21,0,0,0,1,21.86a1.73,1.73,0,0,1,.1-.24.64.64,0,0,1,.63-.24.69.69,0,0,1,.47.29.25.25,0,0,1,0,.26Z"/><path class="cls-7" d="M2.25,22.12a.28.28,0,0,1,.29-.05.28.28,0,0,1,.16.24.42.42,0,0,1-.12.27c-.07.07-.15.13-.21.2a.9.9,0,0,0-.14.2.2.2,0,0,0,0,.15.6.6,0,0,1,.06-.66C2.53,22.18,2.25,22.12,2.25,22.12Z"/><path class="cls-9" d="M2.06,22.08s0-.31.42-.44c0,0,.1.45-.3.56Z"/><path class="cls-6" d="M2.08,22a.47.47,0,0,1,.3-.26s.09.17-.17.4c0,0,0,0,0,0h0a0,0,0,0,0,0,0h0s0,0,0,0v0a0,0,0,0,0,0,0h0S2.07,22.06,2.08,22Z"/><path class="cls-7" d="M3.14,16.88l-.22-.18a.08.08,0,0,0-.1,0l-.28.07a.11.11,0,0,1-.13-.15l.1-.26a.11.11,0,0,0,0-.11L2.34,16a.11.11,0,0,1,.1-.17h.29a.08.08,0,0,0,.09,0L3,15.56a.12.12,0,0,1,.2,0l.07.28a.11.11,0,0,0,.07.08l.28.1a.11.11,0,0,1,0,.2l-.25.16a.11.11,0,0,0-.05.09v.29A.12.12,0,0,1,3.14,16.88Z"/><path class="cls-6" d="M.57,18.38a.23.23,0,0,1-.24.23.23.23,0,0,1-.24-.23.24.24,0,0,1,.24-.24A.24.24,0,0,1,.57,18.38Z"/><path class="cls-7" d="M5,23.06a.24.24,0,0,1-.24.24.24.24,0,0,1,0-.48A.24.24,0,0,1,5,23.06Z"/><path class="cls-8" d="M8.43,21.15a.23.23,0,0,1-.24.23A.23.23,0,0,1,8,21.15a.23.23,0,0,1,.23-.24A.24.24,0,0,1,8.43,21.15Z"/></g></g></g><path class="cls-14" d="M15,2.5A12.5,12.5,0,1,1,2.5,15,12.5,12.5,0,0,1,15,2.5M15,1A14,14,0,1,0,29,15,14,14,0,0,0,15,1Z"/></svg>