<svg id="Livello_1" data-name="Livello 1" xmlns="http://www.w3.org/2000/svg" xmlns:xlink="http://www.w3.org/1999/xlink" viewBox="0 0 30 30"><defs><style>.cls-1{fill:none;}.cls-2{clip-path:url(#clip-path);}.cls-3{clip-path:url(#clip-path-2);}.cls-4{fill:#bd3d44;}.cls-4,.cls-5,.cls-6{fill-rule:evenodd;}.cls-5{fill:#fff;}.cls-6{fill:#192f5d;}.cls-7{fill:#d1d1d1;}</style><clipPath id="clip-path"><circle class="cls-1" cx="15" cy="15" r="12.5"/></clipPath><clipPath id="clip-path-2"><rect class="cls-1" x="-1.67" y="2.5" width="33.33" height="25"/></clipPath></defs><g class="cls-2"><g class="cls-3"><path class="cls-4" d="M-1.67,2.5h47.5V4.42H-1.67Zm0,3.85h47.5V8.27H-1.67Zm0,3.84h47.5v1.93H-1.67Zm0,3.85h47.5V16H-1.67Zm0,3.85h47.5v1.92H-1.67Zm0,3.84h47.5v1.92H-1.67Zm0,3.85h47.5V27.5H-1.67Z"/><path class="cls-5" d="M-1.67,4.42h47.5V6.35H-1.67Zm0,3.85h47.5v1.92H-1.67Zm0,3.84h47.5V14H-1.67Zm0,3.85h47.5v1.93H-1.67Zm0,3.85h47.5v1.92H-1.67Zm0,3.84h47.5v1.93H-1.67Z"/><path class="cls-6" d="M-1.67,2.5h19V16h-19Z"/><path class="cls-5" d="M-.09,3.08l.18.53H.65L.2,3.94l.17.53-.46-.33-.44.33.17-.53-.46-.33h.57Zm3.17,0,.17.53h.57l-.46.33.17.53-.45-.33-.45.33.17-.53-.45-.33h.56Zm3.17,0,.17.53H7l-.45.33.17.53-.46-.33-.45.33L6,3.94l-.45-.33h.56Zm3.17,0,.17.53h.56l-.46.33.18.53-.45-.33L9,4.47l.18-.53-.46-.33h.56Zm3.16,0,.18.53h.55l-.45.33.17.53-.45-.33-.45.33.17-.53-.45-.33h.56Zm3.17,0,.17.53h.56L16,3.94l.17.53-.45-.33-.45.33.17-.53L15,3.61h.56ZM1.5,4.42,1.67,5h.56l-.45.32L2,5.82l-.44-.33-.46.33.16-.54L.77,5h.56Zm3.17,0L4.84,5H5.4l-.46.32.18.54-.45-.33-.46.33.18-.54L3.93,5h.56Zm3.16,0L8,5h.56l-.46.32.17.54-.45-.33-.45.33.17-.54L7.1,5h.56Zm3.17,0,.17.54h.56l-.45.32.17.54L11,5.49l-.45.33.17-.54L10.27,5h.56Zm3.17,0,.17.54h.56l-.45.32.17.54-.45-.33-.46.33.17-.54L13.44,5H14ZM-.09,5.77l.18.54H.65L.2,6.64l.17.53-.46-.33-.44.33.17-.54L-.82,6.3h.57Zm3.17,0,.17.53h.57l-.46.33.17.53-.45-.33-.45.33.17-.53L2.35,6.3h.56Zm3.17,0,.17.53H7l-.45.33.17.53-.46-.33-.45.33L6,6.63,5.51,6.3h.56Zm3.17,0,.17.53h.56l-.46.33.18.53-.45-.33L9,7.16l.18-.53L8.68,6.3h.56Zm3.16,0,.18.53h.55l-.45.33.17.53-.45-.33-.45.33.17-.53-.45-.33h.56Zm3.17,0,.17.53h.56L16,6.63l.17.53-.45-.33-.45.33.17-.53L15,6.3h.56ZM1.5,7.11l.17.54h.56L1.78,8,2,8.51,1.5,8.18l-.45.33L1.22,8,.77,7.65h.56Zm3.17,0,.17.54H5.4L4.94,8l.18.54-.45-.33-.46.33L4.39,8l-.46-.32h.56Zm3.16,0L8,7.65h.56L8.11,8l.17.54-.45-.33-.45.33L7.55,8,7.1,7.65h.56Zm3.17,0,.17.54h.56L11.28,8l.17.54L11,8.18l-.45.33L10.72,8l-.45-.32h.56Zm3.17,0,.17.54h.56L14.45,8l.17.54-.45-.33-.46.33L13.88,8l-.44-.32H14ZM-.09,8.46.09,9H.65L.2,9.32l.17.54-.46-.33-.44.32.17-.53L-.82,9h.57Zm3.17,0L3.25,9h.57l-.46.33.17.53-.45-.32-.45.32.17-.53L2.35,9h.56Zm3.17,0L6.42,9H7l-.45.33.17.54-.46-.33-.45.32L6,9.32,5.51,9h.56Zm3.17,0L9.59,9h.56l-.46.33.18.54-.45-.33L9,9.85l.18-.53L8.68,9h.56Zm3.16,0,.18.53h.55l-.45.33.17.54-.45-.33-.45.32.17-.53L11.85,9h.56Zm3.17,0,.17.53h.56L16,9.32l.17.54-.45-.33-.45.32.17-.53L15,9h.56ZM1.5,9.81l.17.53h.56l-.45.33L2,11.2l-.45-.33-.45.33.17-.54-.45-.32h.56Zm3.17,0,.17.53H5.4l-.46.33.18.53-.45-.33-.46.33.18-.54-.46-.32h.56Zm3.16,0,.18.53h.56l-.46.33.17.53-.45-.33-.45.33.17-.54-.45-.32h.56Zm3.17,0,.17.53h.56l-.45.33.17.53L11,10.87l-.45.33.17-.54-.45-.32h.56Zm3.17,0,.17.53h.56l-.45.33.17.53-.45-.33-.46.33.17-.54-.44-.32H14ZM-.09,11.15l.18.54H.65L.2,12l.17.52-.46-.32-.44.32L-.36,12l-.46-.33h.57Zm3.17,0,.17.54h.57L3.36,12l.18.52-.46-.32-.45.32L2.81,12l-.46-.33h.56Zm3.17,0,.17.54H7L6.53,12l.17.52-.46-.32-.45.32L6,12l-.45-.33h.56Zm3.17,0,.17.54h.56L9.69,12l.18.52-.45-.32L9,12.54,9.14,12l-.46-.33h.56Zm3.16,0,.18.54h.55l-.45.33.17.52-.45-.32-.45.32L12.3,12l-.45-.33h.56Zm3.17,0,.17.54h.56L16,12l.17.52-.45-.32-.45.32.17-.53L15,11.68h.56ZM1.5,12.5l.17.53h.56l-.45.33L2,13.9l-.45-.34-.45.33.17-.53L.77,13h.56Zm3.17,0,.17.53H5.4l-.46.33.18.54-.45-.34-.46.33.18-.53L3.93,13h.56Zm3.16,0L8,13h.56l-.46.33.17.54-.45-.34-.45.33.17-.53L7.1,13h.56Zm3.17,0,.17.53h.56l-.45.33.17.54L11,13.56l-.45.33.17-.53L10.27,13h.56Zm3.17,0,.17.53h.56l-.45.33.17.54-.45-.34-.46.33.17-.53L13.44,13H14ZM-.09,13.85l.18.53H.65l-.45.33.17.53-.46-.33-.44.33.17-.54-.46-.33h.57Zm3.17,0,.17.53h.57l-.46.33.18.53-.46-.33-.45.33.18-.54-.46-.33h.56Zm3.17,0,.17.53H7l-.44.33.17.53-.46-.33-.45.33L6,14.7l-.45-.33h.56Zm3.17,0,.17.53h.56l-.46.33.18.53-.45-.33L9,15.24l.18-.54-.46-.33h.56Zm3.16,0,.18.53h.55l-.45.33.17.53-.45-.33-.45.33.17-.54-.45-.33h.56Zm3.17,0,.17.53h.56l-.45.33.17.53-.45-.33-.45.33.17-.54L15,14.37h.56Z"/></g></g><path class="cls-7" d="M15,2.5A12.5,12.5,0,1,1,2.5,15,12.5,12.5,0,0,1,15,2.5M15,1A14,14,0,1,0,29,15,14,14,0,0,0,15,1Z"/></svg>