<svg xmlns="http://www.w3.org/2000/svg" viewBox="0 0 30 30"><defs><style>.cls-1{isolation:isolate;}.cls-2{fill:#ffefbf;}.cls-3,.cls-4,.cls-5,.cls-7{fill:#fff;}.cls-14,.cls-15,.cls-4,.cls-5,.cls-6{opacity:0.2;}.cls-15,.cls-17,.cls-5,.cls-7{mix-blend-mode:overlay;}.cls-17,.cls-7{opacity:0.5;}.cls-8{fill:#63311d;}.cls-9{fill:#35180f;}.cls-10{fill:#996548;}.cls-11{fill:#1e0b06;}.cls-12{fill:#edd056;}.cls-13{fill:#f4b467;}.cls-14,.cls-16{fill:#90b200;}.cls-15,.cls-17{fill:#8e000e;}.cls-18{fill:#efd770;}.cls-19{fill:#f4d038;}.cls-20{fill:#f2ba1c;}.cls-21{fill:#fff0b0;}.cls-22{fill:#ffe05f;}.cls-23{fill:#d1d1d1;}</style></defs><g class="cls-1"><g id="Livello_1" data-name="Livello 1"><circle class="cls-2" cx="15" cy="15" r="12.5"/><path class="cls-3" d="M5.47,20.81a1,1,0,0,1-.75-.54,1.36,1.36,0,0,1,0-1.15A2.8,2.8,0,0,1,6.37,17.9a16.6,16.6,0,0,1,2.44-.65c.55-.12,1.11-.24,1.65-.4A11,11,0,0,0,14,15.2c.2-.15.4-.31.59-.48a8.94,8.94,0,0,1,1.08-.81l.47-.29a13.46,13.46,0,0,1,1.32-.75,10.9,10.9,0,0,1,2.28-.76,5.11,5.11,0,0,1,1.1-.15h.4a5.06,5.06,0,0,1,1,.12.77.77,0,0,1,.58.73.75.75,0,0,1-.52.72,5,5,0,0,1-.53.11l-.34.08-.27.07-.7.17a10.27,10.27,0,0,0-1.67.47,11.77,11.77,0,0,0-3,1.75,12.42,12.42,0,0,1-3.37,1.94A28.87,28.87,0,0,1,9.18,19l-.92.21c-.54.13-1.09.27-1.66.35-.23,0-.47.07-.54.17a.22.22,0,0,0,0,.16.59.59,0,0,1,0,.6.68.68,0,0,1-.53.32Z"/><path class="cls-3" d="M5.56,20.32a.67.67,0,0,1-.39-1,2.37,2.37,0,0,1,1.38-1c1.3-.49,2.71-.65,4.05-1a11.66,11.66,0,0,0,3.67-1.73c.55-.41,1-.9,1.63-1.26a16.43,16.43,0,0,1,1.74-1,10,10,0,0,1,2.18-.73,4.12,4.12,0,0,1,1.11-.14,6.53,6.53,0,0,1,1.17.11.26.26,0,0,1,0,.49c-.28.08-.57.11-.85.18s-.61.18-.94.24A10.73,10.73,0,0,0,18.6,14a12.15,12.15,0,0,0-3.14,1.82,11.65,11.65,0,0,1-3.24,1.87,34,34,0,0,1-3.63,1c-.68.16-1.37.34-2.06.45a1.21,1.21,0,0,0-.87.36.7.7,0,0,0,0,.75A.09.09,0,0,1,5.56,20.32Z"/><path class="cls-3" d="M10.73,17.79a.5.5,0,0,1-.49-.42.48.48,0,0,1,.34-.56l.68-.22a9.3,9.3,0,0,0,1.79-.54.52.52,0,0,1,.24-.4A5.71,5.71,0,0,0,14,15.2a.91.91,0,0,1,.16-.11,15,15,0,0,0,2-1.22,13.16,13.16,0,0,1,2.19-1.3A8.06,8.06,0,0,1,20.61,12l.26,0h.34a5.06,5.06,0,0,1,1,.12.77.77,0,0,1,.56.57.48.48,0,0,1-.1.42.49.49,0,0,1-.39.19,5.48,5.48,0,0,0-1.35.16,10.45,10.45,0,0,0-2.67,1.08c-.54.3-1.06.62-1.58.93a18.17,18.17,0,0,1-4,2,7.23,7.23,0,0,1-1.95.35Z"/><path class="cls-3" d="M18,14.08A31.87,31.87,0,0,1,12.55,17a6.76,6.76,0,0,1-1.82.32l.69-.23a12.13,12.13,0,0,0,3.9-1.6,19.82,19.82,0,0,1,5.49-2.72l.32-.07a7.16,7.16,0,0,0-2.59.55c-1.54.64-2.74,1.87-4.25,2.57a6.67,6.67,0,0,1-.74.29c.24-.15.48-.3.72-.48l.08-.06a15.38,15.38,0,0,0,2-1.26A12.87,12.87,0,0,1,18.48,13a7.13,7.13,0,0,1,2.18-.55l.24,0h0a6.53,6.53,0,0,1,1.17.11.27.27,0,0,1,.19.2,6.12,6.12,0,0,0-1.46.17A10.85,10.85,0,0,0,18,14.08Z"/><path class="cls-3" d="M6.21,19.63a.49.49,0,0,1-.44-.27.5.5,0,0,1,.1-.6A7.31,7.31,0,0,1,10,17.4l.31,0c.72-.09,1.45-.19,2.16-.32h.09a.5.5,0,0,1,.19,1l-.32.12c-.24.09-.48.17-.73.24l-.17,0-1,.14a16.38,16.38,0,0,0-1.71.25,5.65,5.65,0,0,0-1.91.71.62.62,0,0,1-.19.07l-.32.05Z"/><path class="cls-3" d="M8.64,18.3a6.22,6.22,0,0,0-2.07.77h0l-.32.05c1.07-1,2.75-1.1,4.12-1.27.73-.09,1.47-.19,2.19-.32l-.3.12-.7.23-.29,0C10.36,18.05,9.49,18.13,8.64,18.3Z"/><path class="cls-3" d="M5.52,20.81H5.39a2.18,2.18,0,0,1-.27-.11A.57.57,0,0,1,5,20.54c-.5-.73,0-1.58.7-2.06A7.08,7.08,0,0,1,8.39,17.4c.65-.14,1.31-.23,1.95-.31l.91-.13a14.58,14.58,0,0,0,2.55-.61l.16,0a.49.49,0,0,1,.45.29.5.5,0,0,1-.19.64c-.32.19-.65.36-1,.52s-.47.13-.67.17a19.8,19.8,0,0,1-2,.32,13.52,13.52,0,0,0-3.11.65,4.26,4.26,0,0,0-1.19.62l-.15.14L6,19.79c-.08.12-.1.21-.07.28a.55.55,0,0,1,0,.31.51.51,0,0,1-.22.35A.53.53,0,0,1,5.52,20.81Z"/><path class="cls-3" d="M11.33,17.46A16,16,0,0,0,14,16.83a10.54,10.54,0,0,1-.94.5l-.56.13c-1.72.38-3.53.36-5.19,1a4.65,4.65,0,0,0-1.32.7,1.34,1.34,0,0,0-.21.2l-.08.09a.16.16,0,0,0,0,.07.76.76,0,0,0-.11.78v0a.34.34,0,0,1-.15-.06c-.33-.48.18-1.08.58-1.36a6.66,6.66,0,0,1,2.54-1C9.43,17.69,10.38,17.6,11.33,17.46Z"/><path class="cls-3" d="M16,15.52a.57.57,0,0,1-.5-.33.56.56,0,0,1,.1-.58,7.32,7.32,0,0,1,1.93-1.29,10,10,0,0,1,2.13-.84h.14a.58.58,0,0,1,.53.43.61.61,0,0,1-.32.61c-.68.28-1.34.56-1.95.88-.28.15-.55.32-.83.49a9.84,9.84,0,0,1-1,.58A.53.53,0,0,1,16,15.52Z"/><path class="cls-3" d="M16,15a6.82,6.82,0,0,1,1.8-1.2,9.29,9.29,0,0,1,2-.79c.05,0,.07,0,0,.08-.67.28-1.34.56-2,.9s-1.19.75-1.81,1.07C16,15,16,15,16,15Z"/><path class="cls-3" d="M19.54,14.14a.55.55,0,0,1-.34-1,4,4,0,0,1,2.37-.68.58.58,0,0,1,.62.5.57.57,0,0,1-.43.57c-.34.07-.69.15-1,.24l-.4.13a4.37,4.37,0,0,1-.68.2Z"/><path class="cls-3" d="M20.6,13.31c-.35.09-.69.25-1.05.33a.05.05,0,0,1,0-.09A3.55,3.55,0,0,1,21.64,13c.05,0,.07.07,0,.08C21.31,13.14,21,13.21,20.6,13.31Z"/><path class="cls-3" d="M12.43,17.65a.57.57,0,0,1-.52-.4.58.58,0,0,1,.23-.61,4.61,4.61,0,0,1,.86-.38l.14-.05A4.32,4.32,0,0,1,14,16a.68.68,0,0,1,.59.39.6.6,0,0,1-.23.61,3.59,3.59,0,0,1-.81.36l-.1,0a4.57,4.57,0,0,1-.94.27Z"/><path class="cls-3" d="M12.43,17.15a.05.05,0,0,1,0-.09,4.93,4.93,0,0,1,.82-.35,3.51,3.51,0,0,1,.84-.24,0,0,0,0,1,0,.07,4.17,4.17,0,0,1-.81.36A4.15,4.15,0,0,1,12.43,17.15Z"/><path class="cls-3" d="M5.23,20a.57.57,0,0,1-.53-.45,1,1,0,0,1,.57-1A3.47,3.47,0,0,1,6.44,18h.13a.58.58,0,0,1,.52.38.6.6,0,0,1-.21.61l-.49.3a3.26,3.26,0,0,0-.76.56A.6.6,0,0,1,5.23,20Z"/><path class="cls-3" d="M5.19,19.5c0-.24.26-.41.42-.52a2.64,2.64,0,0,1,.95-.47,0,0,0,0,1,0,.08,6.81,6.81,0,0,0-1.33.94A0,0,0,0,1,5.19,19.5Z"/><path class="cls-3" d="M7.1,19.32a.57.57,0,0,1-.52-.42.59.59,0,0,1,.3-.61A7.31,7.31,0,0,1,9,17.58a.67.67,0,0,1,.6.41.55.55,0,0,1-.26.62,7.25,7.25,0,0,1-2.18.7Z"/><path class="cls-3" d="M7.11,18.82c-.05,0-.05-.06,0-.08a7.19,7.19,0,0,1,2-.66c.05,0,.08.07,0,.09A7.19,7.19,0,0,1,7.11,18.82Z"/><path class="cls-3" d="M13.19,17.75a.51.51,0,0,1-.43-.26.49.49,0,0,1,.16-.66l.71-.5c.38-.28.75-.57,1.12-.86l1-.8a9.77,9.77,0,0,1,5.09-2.18c.22,0,.44,0,.67,0s.49,0,.74,0a.5.5,0,0,1,.33.84.75.75,0,0,1-.34.21,4.36,4.36,0,0,1-.52.11l-.34.08-.27.07-.7.17a10.27,10.27,0,0,0-1.67.47,11.77,11.77,0,0,0-3,1.75,13.73,13.73,0,0,1-2.35,1.5A.43.43,0,0,1,13.19,17.75Z"/><path class="cls-3" d="M13.93,16.73c.73-.54,1.43-1.11,2.15-1.66A9.45,9.45,0,0,1,20.91,13a7.39,7.39,0,0,1,1.33,0,.3.3,0,0,1-.11.07c-.28.08-.57.11-.85.18s-.61.18-.94.24A10.73,10.73,0,0,0,18.6,14a12.15,12.15,0,0,0-3.14,1.82,13.69,13.69,0,0,1-2.27,1.46C13.44,17.08,13.69,16.91,13.93,16.73Z"/><path class="cls-3" d="M19.46,13.41a.56.56,0,0,1-.52-.42.58.58,0,0,1,.28-.62,15.83,15.83,0,0,0,1.42-.77l.22-.15a11.39,11.39,0,0,1,1.37-.79.51.51,0,0,1,.22,0,.53.53,0,0,1,.48.34.51.51,0,0,1-.14.57,12.09,12.09,0,0,1-1.34,1l-.39.26a3.25,3.25,0,0,1-1.56.67Z"/><path class="cls-3" d="M21,12.21a12.38,12.38,0,0,0,1.51-1.06s0,0,0,0a11.9,11.9,0,0,0-1.54.9,14.66,14.66,0,0,1-1.46.8s0,.1,0,.09A3.32,3.32,0,0,0,21,12.21Z"/><path class="cls-3" d="M8.68,20.07a.76.76,0,0,1-.49-.18,1.76,1.76,0,0,1-.1-2.35A4.71,4.71,0,0,1,9.87,16a27.17,27.17,0,0,1,4.75-2c.89-.31,1.8-.62,2.67-1a36.61,36.61,0,0,0,3.64-1.76l1.35-.77.39-.23L23.2,10a12.66,12.66,0,0,1,1.31-.73.76.76,0,0,1,.26-.06.66.66,0,0,1,.6.41.61.61,0,0,1-.16.67,12.89,12.89,0,0,1-1.48,1.13l-.31.22c-.6.42-1.22.82-1.84,1.22a29.69,29.69,0,0,1-3.44,1.91c-1.13.53-2.31.95-3.45,1.36l-.15,0a24.28,24.28,0,0,0-3.38,1.42,5.3,5.3,0,0,0-1.35.9,1.64,1.64,0,0,0-.29.64,3.5,3.5,0,0,1-.14.46.75.75,0,0,1-.7.5Z"/><path class="cls-3" d="M9.45,18.13a5.7,5.7,0,0,1,1.47-1,25.43,25.43,0,0,1,3.45-1.45c1.2-.43,2.4-.85,3.56-1.39a31,31,0,0,0,3.38-1.88c.61-.4,1.23-.79,1.82-1.21a14.94,14.94,0,0,0,1.74-1.31c.11-.1,0-.25-.15-.2-.63.3-1.2.68-1.8,1s-1.16.69-1.75,1c-1.2.65-2.42,1.26-3.68,1.79-2.44,1-5.06,1.62-7.37,2.94a4.31,4.31,0,0,0-1.61,1.35c-.3.46-.53,1.29,0,1.69a.25.25,0,0,0,.41-.11A3.37,3.37,0,0,1,9.45,18.13Z"/><path class="cls-3" d="M8.68,20.07a.78.78,0,0,1-.49-.18A1.07,1.07,0,0,1,8,19.75a.68.68,0,0,1-.12-.26,2.92,2.92,0,0,1,.85-2.4,9.62,9.62,0,0,1,1.83-1.45c.48-.24.91-.43,1.35-.61a.43.43,0,0,1,.19,0l.18,0,.53-.21c.76-.28,1.54-.53,2.31-.78s1.4-.44,2.09-.69l.16-.06a17.71,17.71,0,0,0,4-1.85c.43-.29.82-.61,1.22-.93l.91-.73c.33-.19.61-.35.91-.49a.5.5,0,0,1,.21,0,.51.51,0,0,1,.44.26.5.5,0,0,1-.17.66,14,14,0,0,0-1.54,1.18,14.66,14.66,0,0,1-1.65,1.26,21.17,21.17,0,0,1-3.94,1.8l-.15,0c-.74.28-1.49.52-2.25.76s-1.31.41-2,.65a7.64,7.64,0,0,0-3.24,2,4.18,4.18,0,0,0-1,1.84.49.49,0,0,1-.38.38l-.15,0Z"/><path class="cls-3" d="M8.73,19.56a4.72,4.72,0,0,1,1.09-2.07,8.28,8.28,0,0,1,3.44-2.11c1.39-.5,2.81-.89,4.2-1.41a22,22,0,0,0,4-1.8c1.13-.71,2.06-1.73,3.19-2.44-.28.14-.55.29-.82.45-.72.53-1.39,1.15-2.14,1.66a18.56,18.56,0,0,1-4.27,2c-1.45.54-2.95.94-4.39,1.48a8.53,8.53,0,0,0-3.33,2,5,5,0,0,0-1.17,2c0-1.6,1.72-2.64,2.91-3.4l.7-.42c-.43.18-.85.37-1.27.57a8.56,8.56,0,0,0-1.73,1.37,2.45,2.45,0,0,0-.73,2l.1.09A.25.25,0,0,0,8.73,19.56Z"/><path class="cls-3" d="M10.12,18.09a.5.5,0,0,1-.37-.84A8.74,8.74,0,0,1,11,16.14a7.86,7.86,0,0,1,2.36-1.08,6.72,6.72,0,0,1,1.06-.49c.47-.17.94-.33,1.41-.47L16.1,14c1.22-.39,2.49-.79,3.7-1.27a.41.41,0,0,1,.19,0,.5.5,0,0,1,.25.94L19,14.31l-.36.13-1.34.44a.52.52,0,0,1-.3.35l-1.54.58-1.11.25a7.4,7.4,0,0,0-2.74,1.14l-.39.31-.1.06c-.25.14-.51.28-.76.44A.53.53,0,0,1,10.12,18.09Z"/><path class="cls-3" d="M16,14.57c-.46.15-.93.3-1.39.47a6.54,6.54,0,0,0-1,.48,7.59,7.59,0,0,0-3.48,2.07c.26-.17.54-.32.81-.46h0l.43-.33a7.88,7.88,0,0,1,2.91-1.22l1.05-.23c.51-.18,1-.37,1.52-.58-.86.24-1.73.42-2.61.61.58-.21,1.16-.4,1.74-.58.85-.27,1.69-.54,2.53-.83l.3-.1c.4-.21.8-.42,1.19-.65C18.69,13.73,17.35,14.15,16,14.57Z"/><path class="cls-3" d="M17.54,14.44A.6.6,0,0,1,17,14a.61.61,0,0,1,.34-.61,6.09,6.09,0,0,1,.83-.25c.17-.05.35-.09.52-.15l.17-.06A7.56,7.56,0,0,0,20,12.49a.64.64,0,0,1,.23-.05.52.52,0,0,1,.25,1l-.15.08a6.82,6.82,0,0,1-1.21.6,4.59,4.59,0,0,1-1.53.35Z"/><path class="cls-3" d="M20.23,12.94a9.83,9.83,0,0,1-1.37.51c-.44.15-.9.22-1.32.4a0,0,0,0,0,0,.09,4,4,0,0,0,1.4-.32A8.65,8.65,0,0,0,20.24,13S20.24,12.93,20.23,12.94Z"/><path class="cls-3" d="M8.64,19.19a.58.58,0,0,1-.42-.2.57.57,0,0,1-.11-.44,3.72,3.72,0,0,1,1.1-1.8,4.28,4.28,0,0,1,1.75-1,.41.41,0,0,1,.16,0,.53.53,0,0,1,.23,1,4.24,4.24,0,0,0-2,1.86l-.26.4a.56.56,0,0,1-.44.24Z"/><path class="cls-3" d="M8.67,18.67a8.45,8.45,0,0,1,1-1.43,5.16,5.16,0,0,1,1.44-1s0,0,0,0a3.77,3.77,0,0,0-1.55.92,3.15,3.15,0,0,0-1,1.53A0,0,0,0,0,8.67,18.67Z"/><path class="cls-3" d="M8.43,19.87A.59.59,0,0,1,8,19.63a1.5,1.5,0,0,1-.06-1.41,3.38,3.38,0,0,1,.65-1A.61.61,0,0,1,9,17a.55.55,0,0,1,.47.27.57.57,0,0,1,0,.54,4.81,4.81,0,0,0-.44.81,1.45,1.45,0,0,0,0,.53v.22a.6.6,0,0,1-.55.54Z"/><path class="cls-3" d="M8.48,19.32a2.39,2.39,0,0,1,.09-.92,4.85,4.85,0,0,1,.48-.9s0-.06,0,0a2.9,2.9,0,0,0-.63.92,1.08,1.08,0,0,0,0,1A.05.05,0,0,0,8.48,19.32Z"/><path class="cls-3" d="M8.68,20.07A1.28,1.28,0,0,1,8.41,20a.5.5,0,0,1-.32-.5,3.25,3.25,0,0,1,.08-.58,2.57,2.57,0,0,1,.67-1.28,5.59,5.59,0,0,1,1.07-.83A15.21,15.21,0,0,1,11.25,16a12.72,12.72,0,0,1,2.84-1c.47-.13.93-.26,1.39-.42l.38-.13a8.66,8.66,0,0,1,1.19-.35h.11a.61.61,0,0,1,.48.27.49.49,0,0,1,0,.41.52.52,0,0,1-.28.3c-.91.39-1.86.73-2.77,1.05a24.61,24.61,0,0,0-3.47,1.45,5.3,5.3,0,0,0-1.35.9,1.64,1.64,0,0,0-.29.64,3.5,3.5,0,0,1-.14.46.75.75,0,0,1-.7.5Z"/><path class="cls-3" d="M9.45,18.13a5.7,5.7,0,0,1,1.47-1,25.43,25.43,0,0,1,3.45-1.45c1-.34,1.91-.67,2.84-1.07a0,0,0,0,0-.06,0,11.47,11.47,0,0,0-1.51.47c-.47.15-.94.29-1.42.42a12,12,0,0,0-2.73,1c-.43.23-.85.49-1.26.76a5.69,5.69,0,0,0-1,.8,2.11,2.11,0,0,0-.54,1,4.08,4.08,0,0,0-.07.52.24.24,0,0,0,.32-.16A3.37,3.37,0,0,1,9.45,18.13Z"/><path class="cls-3" d="M17.54,13.92a.58.58,0,0,1-.52-.39.59.59,0,0,1,.21-.62c.22-.14.44-.25.66-.37a5.75,5.75,0,0,0,.69-.42,4,4,0,0,0,1-1A.53.53,0,0,1,20,10.9a.54.54,0,0,1,.49.74,3.67,3.67,0,0,1-1.17,1.41,4.05,4.05,0,0,1-1.72.87Z"/><path class="cls-3" d="M19,12.65a3.14,3.14,0,0,0,1-1.21,0,0,0,0,0-.05,0,4.42,4.42,0,0,1-1.12,1.12c-.43.32-.93.51-1.37.8a.05.05,0,0,0,0,.09A3.3,3.3,0,0,0,19,12.65Z"/><path class="cls-3" d="M7.83,20a.67.67,0,0,1-.54-.25.64.64,0,0,1-.12-.55,6.1,6.1,0,0,1,1.15-2.11A9.89,9.89,0,0,1,10,15.32,14,14,0,0,1,15,13.1c.57-.17,1.14-.34,1.7-.53A7.14,7.14,0,0,0,19.48,11a1.18,1.18,0,0,0,.41-1,.49.49,0,0,0-.22-.32.61.61,0,0,0-.3-.11.69.69,0,0,1-.2,0,.61.61,0,0,1-.58-.44.57.57,0,0,1,.26-.65,1.56,1.56,0,0,1,.9-.3h.19a1.82,1.82,0,0,1,1,.52,2.29,2.29,0,0,1,.45,2.27c-.43,1.42-1.87,2.28-3.07,2.86A19.94,19.94,0,0,1,15.45,15l-.78.24a10.47,10.47,0,0,0-3.3,1.54A11.51,11.51,0,0,0,9.9,18.2c-.17.2-.35.38-.53.57l-.27.28a4.15,4.15,0,0,1-.92.81.88.88,0,0,1-.35.1Z"/><path class="cls-3" d="M21,10.93a1.8,1.8,0,0,0-.33-1.78,1.31,1.31,0,0,0-.74-.37,1,1,0,0,0-.77.21c-.09.06,0,.2.09.17a1,1,0,0,1,.75.16,1,1,0,0,1,.43.64,1.67,1.67,0,0,1-.54,1.42,7.49,7.49,0,0,1-3,1.66c-2.22.77-4.62,1.16-6.5,2.67a9.61,9.61,0,0,0-1.61,1.64,5.46,5.46,0,0,0-1.06,1.93c0,.15.15.22.26.16a4.13,4.13,0,0,0,.82-.74c.27-.27.53-.55.79-.83a11.41,11.41,0,0,1,1.53-1.5,10.85,10.85,0,0,1,3.46-1.62,27.25,27.25,0,0,0,3.62-1.27C19.24,13,20.58,12.17,21,10.93Z"/><path class="cls-3" d="M7.74,19.94a.38.38,0,0,1-.21-.05.63.63,0,0,1-.36-.73,6.1,6.1,0,0,1,1.15-2.11A9.24,9.24,0,0,1,9.27,16a14,14,0,0,1,5.38-2.31l1.27-.36a8,8,0,0,0,3.58-1.78,1.84,1.84,0,0,0,.56-1.39,1,1,0,0,0-.67-.87.5.5,0,0,1,0-1,1.66,1.66,0,0,1,.32,0H20l.19.05a1.92,1.92,0,0,1,.95,1.19,2.9,2.9,0,0,1-.24,2.16,6.51,6.51,0,0,1-3.69,2.48c-.72.25-1.46.45-2.18.65s-1.45.39-2.15.64a7.45,7.45,0,0,0-3.58,2.32A7.73,7.73,0,0,0,8.2,19.64a.5.5,0,0,1-.28.27A.57.57,0,0,1,7.74,19.94Z"/><path class="cls-3" d="M12.67,15c1.42-.5,2.9-.8,4.32-1.29a6.12,6.12,0,0,0,3.42-2.26,2,2,0,0,0-.5-2.65h0a1,1,0,0,0-.34,0,1.48,1.48,0,0,1,1,1.3,2.29,2.29,0,0,1-.68,1.78,8.42,8.42,0,0,1-3.8,1.92c-2.2.65-4.65,1.09-6.45,2.55a7.83,7.83,0,0,0-.9,1,5.46,5.46,0,0,0-1.06,1.93.14.14,0,0,0,.08.16,8.31,8.31,0,0,1,1.12-2A8.07,8.07,0,0,1,12.67,15Z"/><path class="cls-3" d="M20.73,11.94a.54.54,0,0,1-.22,0,.51.51,0,0,1-.24-.65l.06-.16a2,2,0,0,0-.07-1.31,1.63,1.63,0,0,0-.3-.51.5.5,0,0,1,0-.64.46.46,0,0,1,.37-.18.5.5,0,0,1,.26.08A1.65,1.65,0,0,1,21,8.8a2.27,2.27,0,0,1,.46,2.27,2.59,2.59,0,0,1-.27.62A.5.5,0,0,1,20.73,11.94Z"/><path class="cls-3" d="M20.72,9.58a2.47,2.47,0,0,1,.09,1.65,1.8,1.8,0,0,1-.08.21,2.31,2.31,0,0,0,.22-.51,1.8,1.8,0,0,0-.33-1.78,1.39,1.39,0,0,0-.27-.21A2.38,2.38,0,0,1,20.72,9.58Z"/><path class="cls-3" d="M10.83,15.85a.51.51,0,0,1-.28-.92A15.61,15.61,0,0,1,15,13.1l.64-.19.41-.09a5,5,0,0,0,3.09-1.4,1,1,0,0,1,.13-.16l.24-.23.15-.17a.51.51,0,0,1,.39-.19.54.54,0,0,1,.25.06.5.5,0,0,1,.22.62C19.86,13,18.2,13.52,17,13.81l-.75.17a24.36,24.36,0,0,0-3.87,1.13,12.42,12.42,0,0,0-1.31.67A.55.55,0,0,1,10.83,15.85Z"/><path class="cls-3" d="M12.2,14.65a30.25,30.25,0,0,1,4.69-1.33A4.09,4.09,0,0,0,20,11.17a1.68,1.68,0,0,1-.18.21l-.27.26-.06.08c-.86,1.15-2.43,1.38-3.76,1.67a17.52,17.52,0,0,0-4.92,2A10.4,10.4,0,0,1,12.2,14.65Z"/><path class="cls-3" d="M7.86,20a.51.51,0,0,1-.45-.72,8.53,8.53,0,0,1,2.05-2.7,8.71,8.71,0,0,1,3.6-1.94c.37-.1.74-.18,1.11-.26h.11a.5.5,0,0,1,.15,1,14.42,14.42,0,0,0-1.69.65,7.8,7.8,0,0,0-2.44,1.42,8.15,8.15,0,0,0-1.72,2.15.47.47,0,0,1-.13.15,1.65,1.65,0,0,1-.27.19.75.75,0,0,1-.25.09Z"/><path class="cls-3" d="M13.19,15.08A8.3,8.3,0,0,0,9.8,16.91a8,8,0,0,0-1.94,2.55l.06,0,.22-.16A8.63,8.63,0,0,1,10,17a8,8,0,0,1,2.56-1.5,13.17,13.17,0,0,1,1.75-.67C13.91,14.9,13.55,15,13.19,15.08Z"/><path class="cls-3" d="M19.88,9.78a.48.48,0,0,1-.24-.06.65.65,0,0,0-.22-.08.49.49,0,0,1-.23-.11A.38.38,0,0,0,19,9.44.52.52,0,0,1,18.67,9a.5.5,0,0,1,.24-.49l.23-.13a.52.52,0,0,1,.21,0,.45.45,0,0,1,.2,0,1.76,1.76,0,0,1,.73.58.48.48,0,0,1,0,.62A.46.46,0,0,1,19.88,9.78Z"/><path class="cls-3" d="M19.51,9.15a1.16,1.16,0,0,1,.37.13,1.27,1.27,0,0,0-.53-.42.81.81,0,0,0-.18.1A.83.83,0,0,1,19.51,9.15Z"/><path class="cls-3" d="M19.35,13.18a.59.59,0,0,1-.5-.33.56.56,0,0,1,.11-.58l.26-.25a3.45,3.45,0,0,0,.74-.9,2.9,2.9,0,0,0,.29-1.47.5.5,0,0,1,.14-.38.51.51,0,0,1,.87.21,3,3,0,0,1-.18,2.12,2.75,2.75,0,0,1-1.58,1.56l-.15,0Z"/><path class="cls-3" d="M20.63,11.39a2.49,2.49,0,0,0,.15-1.78s0,0,0,0a3.54,3.54,0,0,1-.34,1.72,5.11,5.11,0,0,1-1.09,1.28s0,.07,0,.06A2.24,2.24,0,0,0,20.63,11.39Z"/><path class="cls-3" d="M8.67,18.19a.55.55,0,0,1-.46-.27.53.53,0,0,1,0-.52,5.8,5.8,0,0,1,4-2.57.63.63,0,0,1,.61.44.54.54,0,0,1-.37.58,6.29,6.29,0,0,0-1.85.83A9,9,0,0,0,9,18a.52.52,0,0,1-.37.16Z"/><path class="cls-3" d="M12.32,15.36s0,0,0,0a5.35,5.35,0,0,0-3.66,2.34s0,0,0,0a9.8,9.8,0,0,1,1.65-1.43A7.2,7.2,0,0,1,12.32,15.36Z"/><path class="cls-3" d="M8.41,19.22A.6.6,0,0,1,8,19a.58.58,0,0,1-.15-.41,2.1,2.1,0,0,1,.84-1.38,7.76,7.76,0,0,1,1.16-.8l.27-.17a.57.57,0,0,1,.29-.08.53.53,0,0,1,.31,1,13.66,13.66,0,0,0-1.12.89,2.52,2.52,0,0,0-.4.4A1.31,1.31,0,0,0,9,18.7c-.06.1-.12.2-.19.3a.63.63,0,0,1-.44.22Z"/><path class="cls-3" d="M8.45,18.7c.13-.18.23-.38.37-.56a3.41,3.41,0,0,1,.47-.46c.37-.32.75-.63,1.15-.92,0,0,0-.08,0-.05A9,9,0,0,0,9,17.63a1.64,1.64,0,0,0-.68,1A.05.05,0,0,0,8.45,18.7Z"/><path class="cls-3" d="M11.42,16a.58.58,0,0,1-.5-.32.56.56,0,0,1,.1-.58A3.5,3.5,0,0,1,13.07,14a.65.65,0,0,1,.58.41.54.54,0,0,1-.26.59c-.15.09-.32.17-.48.25l-.42.21-.33.19a4.91,4.91,0,0,1-.5.28A.5.5,0,0,1,11.42,16Z"/><path class="cls-3" d="M13.13,14.52a3,3,0,0,0-1.74.92s0,.09,0,.07c.27-.14.54-.32.81-.47s.61-.29.91-.46C13.19,14.57,13.16,14.52,13.13,14.52Z"/><path class="cls-3" d="M15.45,14a.51.51,0,0,1-.5-.41A.5.5,0,0,1,15.3,13l1.36-.43A7.14,7.14,0,0,0,19.48,11a1.18,1.18,0,0,0,.41-1,.49.49,0,0,0-.22-.32.61.61,0,0,0-.3-.11.69.69,0,0,1-.2,0,.61.61,0,0,1-.58-.44.57.57,0,0,1,.26-.65A.34.34,0,0,1,19,8.51a1.87,1.87,0,0,1,.51-.07,1.79,1.79,0,0,1,1.31.7,2,2,0,0,1-.35,2.65,7,7,0,0,1-2.56,1.58,8.63,8.63,0,0,1-2.4.61Z"/><path class="cls-3" d="M20.09,11.44a1.5,1.5,0,0,0,.3-2,1.3,1.3,0,0,0-.89-.5,2,2,0,0,0-.39.05h0c-.09.06,0,.2.09.17a1,1,0,0,1,.75.16,1,1,0,0,1,.43.64,1.67,1.67,0,0,1-.54,1.42,7.49,7.49,0,0,1-3,1.66c-.46.16-.92.3-1.38.44a8.26,8.26,0,0,0,2.26-.58A6.81,6.81,0,0,0,20.09,11.44Z"/><path class="cls-3" d="M8.08,19.83a.51.51,0,0,1-.43-.76,3.71,3.71,0,0,1,.28-.41L8,18.5c.22-.32.45-.63.69-.94a10.35,10.35,0,0,1,1.61-1.67,6.91,6.91,0,0,1,2.1-1.16,10,10,0,0,1,1.07-.29,5.41,5.41,0,0,1,.58-.12l.25,0h0a.49.49,0,0,1,.49.41.51.51,0,0,1-.34.57,10,10,0,0,0-3.14,1.49A11.51,11.51,0,0,0,9.9,18.2c-.17.2-.35.38-.53.57l-.27.28a5.71,5.71,0,0,1-.72.68A.54.54,0,0,1,8.08,19.83Z"/><path class="cls-3" d="M8.08,19.33a4.36,4.36,0,0,0,.66-.63c.27-.27.53-.55.79-.83a11.41,11.41,0,0,1,1.53-1.5,10.56,10.56,0,0,1,3.3-1.57l-.2,0a5.12,5.12,0,0,0-.54.1c-.34.08-.69.17-1,.28a6.53,6.53,0,0,0-1.95,1.08,10.46,10.46,0,0,0-1.53,1.59c-.23.3-.45.61-.67.92S8.19,19.14,8.08,19.33Z"/><path class="cls-3" d="M16.33,22.09A.55.55,0,0,1,16,22a.5.5,0,0,1-.16-.5,7.23,7.23,0,0,0,.26-1.71,5.08,5.08,0,0,0-.34-1.64c-.07-.22-.15-.44-.24-.68a4.61,4.61,0,0,1-.86,1.73c-.15.18-.31.36-.47.53s-.25.27-.36.41a4.86,4.86,0,0,0-.8,1.56.5.5,0,0,1-.42.34h-.06a.5.5,0,0,1-.42-.23,3.45,3.45,0,0,1-.43-2.44,4.66,4.66,0,0,1,1-2.13c.16-.2.35-.4.54-.6a4.2,4.2,0,0,0,1-1.39,6.27,6.27,0,0,0-1.18-1.18,7.9,7.9,0,0,1-1.22-1.17A6.9,6.9,0,0,1,10.63,9.7a.49.49,0,0,1,.18-.47.46.46,0,0,1,.32-.11l.18,0a6.94,6.94,0,0,1,4.17,4.47l.37-.46a7.6,7.6,0,0,1,2.38-2.06l.26-.14a3.83,3.83,0,0,0,.66-.39,1,1,0,0,0,.41-.61A.48.48,0,0,1,20,9.52h0a.49.49,0,0,1,.48.38,3.87,3.87,0,0,1-.6,2.87,6.13,6.13,0,0,1-1.51,1.71,3.9,3.9,0,0,0,.74-.36l.37-.25a3.76,3.76,0,0,1,1.17-.63l.13,0a.52.52,0,0,1,.29.09.49.49,0,0,1,.21.37A2.66,2.66,0,0,1,20,16.1a3.56,3.56,0,0,1-1.86.49,4.48,4.48,0,0,1-.64-.05l.13.19a4.12,4.12,0,0,1,.69,2.88,3.17,3.17,0,0,1-1.81,2.44A.65.65,0,0,1,16.33,22.09Z"/><path class="cls-3" d="M15.15,14.64a6.28,6.28,0,0,0-4-5,6.27,6.27,0,0,0,1.18,3c.74.95,1.93,1.52,2.53,2.57-.14.92-1.11,1.67-1.7,2.39a4.27,4.27,0,0,0-.94,1.92,2.89,2.89,0,0,0,.36,2.07,5.22,5.22,0,0,1,.89-1.72c.27-.32.57-.62.83-.94a4.37,4.37,0,0,0,.85-3.46A12.55,12.55,0,0,1,16.24,18a6,6,0,0,1,.37,1.81,7.18,7.18,0,0,1-.28,1.83,2.67,2.67,0,0,0,1.52-2.06A3.66,3.66,0,0,0,17.23,17a5.83,5.83,0,0,0-2-1.78,8,8,0,0,0,2.2.8,3.38,3.38,0,0,0,2.28-.35,2.17,2.17,0,0,0,1.08-2,5.56,5.56,0,0,0-1.4.83,4.43,4.43,0,0,1-4,.3,3.7,3.7,0,0,0,2.38-.55,5.23,5.23,0,0,0,1.71-1.79A3.37,3.37,0,0,0,20.05,10a1.42,1.42,0,0,1-.59.94,6.57,6.57,0,0,1-1,.58,7.23,7.23,0,0,0-2.23,1.92C15.86,14,15.17,14.77,15.15,14.64Z"/><path class="cls-3" d="M16.36,22.06A.51.51,0,0,1,16,22a.49.49,0,0,1-.19-.49l.09-.42A.69.69,0,0,1,16,20.9a3.12,3.12,0,0,0,.29-.58,4.84,4.84,0,0,0,.3-1.4,3.67,3.67,0,0,0-.25-1.35,2.38,2.38,0,0,0-.29-.6,2.09,2.09,0,0,0-.22-.28,2.62,2.62,0,0,1-.22-.25.56.56,0,0,1-.06-.56.58.58,0,0,1,.48-.3.52.52,0,0,1,.27.07A3.31,3.31,0,0,1,17.51,17a3.91,3.91,0,0,1,.4,1.85,4.23,4.23,0,0,1-.5,2,6.12,6.12,0,0,1-.63,1,.45.45,0,0,1-.19.15A.59.59,0,0,1,16.36,22.06Z"/><path class="cls-3" d="M16.06,16.08s-.06,0,0,.05c.15.2.33.36.46.57a3.81,3.81,0,0,1,.35.7,4.46,4.46,0,0,1,.27,1.54,5.5,5.5,0,0,1-.33,1.55,3.83,3.83,0,0,1-.34.67c0,.14-.06.28-.1.43l.06,0a6.52,6.52,0,0,0,.58-.93,3.81,3.81,0,0,0,.44-1.75,3.43,3.43,0,0,0-.34-1.61A2.86,2.86,0,0,0,16.06,16.08Z"/><path class="cls-3" d="M17.47,16.26a2.61,2.61,0,0,1-.85-.14.64.64,0,0,1-.37-.62.56.56,0,0,1,.51-.5l.57,0a5.14,5.14,0,0,0,1.13-.14,4.33,4.33,0,0,0,1.42-.72,5.14,5.14,0,0,0,.6-.55.52.52,0,0,1,.37-.16.43.43,0,0,1,.19,0,.5.5,0,0,1,.31.47,2.07,2.07,0,0,1-.06.5.58.58,0,0,1-.14.24,6.3,6.3,0,0,1-.55.48,5.56,5.56,0,0,1-1.89.93,4.74,4.74,0,0,1-1.24.2Z"/><path class="cls-3" d="M20.18,14.51a4.72,4.72,0,0,1-1.58.8,9,9,0,0,1-1.79.19.08.08,0,0,0,0,.15,3,3,0,0,0,1.79-.07,5.22,5.22,0,0,0,1.72-.85,5.08,5.08,0,0,0,.5-.44,1.67,1.67,0,0,0,.05-.39A5.51,5.51,0,0,1,20.18,14.51Z"/><path class="cls-3" d="M14.71,15a.5.5,0,0,1-.44-.26c-.21-.39-.44-.77-.66-1.15l-.3-.52a8.78,8.78,0,0,0-.71-1.11,9,9,0,0,0-1.06-1.14l-.3-.26c-.15-.12-.29-.25-.43-.38a.49.49,0,0,1-.15-.27l0-.19a.53.53,0,0,1,.18-.46.48.48,0,0,1,.32-.11l.18,0c.22.09.43.18.64.29l.1.07c.12.1.42.39.42.39a8.84,8.84,0,0,1,1.13,1.21,10.59,10.59,0,0,1,1.24,2.35c.11.26.22.53.34.79a.51.51,0,0,1,0,.49.52.52,0,0,1-.43.23Z"/><path class="cls-3" d="M11.16,9.79c.23.22.48.42.72.64A9.68,9.68,0,0,1,13,11.62,12.24,12.24,0,0,1,13.86,13c.28.48.57,1,.85,1.47,0,0,0,0,0,0a15,15,0,0,0-1.52-3.05,9.66,9.66,0,0,0-1.07-1.15l-.41-.37a6.28,6.28,0,0,0-.59-.27Z"/><path class="cls-3" d="M12.58,22a.5.5,0,0,1-.48-.34,3.88,3.88,0,0,1,.08-2.75,5.47,5.47,0,0,1,1.08-1.54,9.69,9.69,0,0,0,1.15-1.48.55.55,0,0,1,.89-.08.62.62,0,0,1,.12.44,4.14,4.14,0,0,1-1.21,2.07,5.94,5.94,0,0,0-.73.91,2.87,2.87,0,0,0-.36,2,.46.46,0,0,1,0,.26l0,.15a.51.51,0,0,1-.47.34Z"/><path class="cls-3" d="M13.05,19c.57-1,1.7-1.65,1.87-2.81,0-.05-.06-.06-.08,0a10.92,10.92,0,0,1-1.19,1.54,5.43,5.43,0,0,0-1,1.41,3.36,3.36,0,0,0-.06,2.4,1.42,1.42,0,0,1,.05-.16A3.38,3.38,0,0,1,13.05,19Z"/><path class="cls-3" d="M15.67,15a.51.51,0,0,1-.21-1A8.86,8.86,0,0,0,17,13.16,13.69,13.69,0,0,0,18.26,12a5,5,0,0,0,1-1.26,2.23,2.23,0,0,0,.16-.43.54.54,0,0,1,.05-.11.75.75,0,0,0,.08-.24A.48.48,0,0,1,20,9.52h0a.49.49,0,0,1,.48.38,3.05,3.05,0,0,1,.08.81.59.59,0,0,1,0,.13,5.23,5.23,0,0,1-1.31,2,11.79,11.79,0,0,1-1.54,1.38,5.53,5.53,0,0,1-1.83.76l-.11,0-.14,0Z"/><path class="cls-3" d="M20.05,10a1,1,0,0,1-.13.42,3.28,3.28,0,0,1-.2.52,5.72,5.72,0,0,1-1.1,1.39,15.4,15.4,0,0,1-1.34,1.21,8.92,8.92,0,0,1-1.61.94s0,0,0,0a5.51,5.51,0,0,0,1.78-.72,11.63,11.63,0,0,0,1.48-1.32,4.78,4.78,0,0,0,1.18-1.79A2.15,2.15,0,0,0,20.05,10Z"/><path class="cls-4" d="M16,17.78a.5.5,0,0,1-.46-.32l0,0a.48.48,0,0,1-.44.27H15a3.07,3.07,0,0,1-.74-.26,2.61,2.61,0,0,1-.62-.42.51.51,0,0,1,0-.71,3.24,3.24,0,0,0,.73-1.07,5.75,5.75,0,0,0-1.1-1.11.5.5,0,0,1-.12-.63,3.11,3.11,0,0,1,.92-1,2.08,2.08,0,0,1,.38-.22.43.43,0,0,1,.19,0,.5.5,0,0,1,.45.27,6.43,6.43,0,0,1,.45,1.14l.37-.46.26-.33a.5.5,0,0,1,.38-.17.45.45,0,0,1,.25.07,2.77,2.77,0,0,1,.74.6,3.42,3.42,0,0,1,.58.88.5.5,0,0,1,0,.5l.09.06a.48.48,0,0,1,.17.37A2.55,2.55,0,0,1,18,16.25a.51.51,0,0,1-.46.29H17.5a.5.5,0,0,1-.09.58,2.53,2.53,0,0,1-1,.59,1.44,1.44,0,0,1-.36.07Z"/><path class="cls-4" d="M16.24,13.46c-.38.51-1.07,1.31-1.09,1.18a5.18,5.18,0,0,0-.56-1.93,1.64,1.64,0,0,0-.29.16,2.64,2.64,0,0,0-.77.86,5.48,5.48,0,0,1,1.31,1.41,3.13,3.13,0,0,1-.89,1.5,2.15,2.15,0,0,0,.5.35,2.74,2.74,0,0,0,.63.21,4.73,4.73,0,0,0,.05-1.8A11,11,0,0,1,16,17.28a1.47,1.47,0,0,0,.29-.05,1.93,1.93,0,0,0,.75-.45l0,0a6.37,6.37,0,0,0-1.78-1.53,8,8,0,0,0,2.2.8h.09a2,2,0,0,0,.2-.89,4.4,4.4,0,0,1-2.35-.3,3.65,3.65,0,0,0,2.19-.44,3.77,3.77,0,0,0-.5-.75,2.62,2.62,0,0,0-.62-.5Z"/><path class="cls-5" d="M12.51,21.81a.5.5,0,0,1-.49-.49,2.14,2.14,0,0,1-.16-.39,6,6,0,0,1-.11-.84,2.9,2.9,0,0,1,0-.83,3.32,3.32,0,0,1,.27-.77,3.78,3.78,0,0,1,.46-.86,4.64,4.64,0,0,1,.81-.79l.29-.24a2.52,2.52,0,0,0,.63-.77,1.39,1.39,0,0,0,.16-.61v-.08a6.25,6.25,0,0,0-1.25-1.33c-.3-.28-.61-.55-.88-.84a7.52,7.52,0,0,1-1.41-2.27c-.09-.33-.15-.61-.2-.89a.48.48,0,0,1,.19-.47.45.45,0,0,1,.31-.11.43.43,0,0,1,.19,0,6.69,6.69,0,0,1,2.61,2,8.16,8.16,0,0,1,1.34,2.57c.27-.32.56-.61.82-.87a10.61,10.61,0,0,1,.86-.78,6.76,6.76,0,0,1,.7-.49l.13-.09c.44-.3.88-.61,1.3-.94.2-.14.25-.21.25-.24a.5.5,0,0,1,.4-.4h.09a.54.54,0,0,1,.43.23,1.18,1.18,0,0,1,.13,1,5.43,5.43,0,0,1-2.31,3,4,4,0,0,1-.85.5l.42.05h0a3.42,3.42,0,0,0,1.28-.34,3.36,3.36,0,0,0,1.37-.89.51.51,0,0,1,.39-.19.45.45,0,0,1,.25.07.49.49,0,0,1,.22.61,3.6,3.6,0,0,1-2.63,2.15,4.07,4.07,0,0,1-.79.08,4.34,4.34,0,0,1-.8-.08l.07.08a3.61,3.61,0,0,1,.91,1.75,4.26,4.26,0,0,1,0,1,3.27,3.27,0,0,1-.89,2.34.45.45,0,0,1-.34.14.48.48,0,0,1-.36-.16.5.5,0,0,1-.06-.61c0-.07,0-.21,0-.27v-.14c0-.2,0-.39,0-.58A5.7,5.7,0,0,0,16,17.76a5.63,5.63,0,0,0-.57-1.09,6,6,0,0,1-.39,1,6.64,6.64,0,0,1-.53,1,8.88,8.88,0,0,1-.55.7,6.87,6.87,0,0,0-.52.66A2.63,2.63,0,0,0,13,21.34a.49.49,0,0,1-.49.47Z"/><path class="cls-5" d="M19.41,11.11c-.44.33-.88.65-1.33,1-.27.18-.55.36-.8.56a9.59,9.59,0,0,0-.81.75,8.07,8.07,0,0,0-1.16,1.32h0a.61.61,0,0,0-.24.15,7.86,7.86,0,0,0-1.47-3.23,6.35,6.35,0,0,0-2.41-1.89,7.25,7.25,0,0,0,.17.78,7,7,0,0,0,1.3,2.12A14.73,14.73,0,0,1,14.88,15c0,.06,0,.12,0,.18v.06a1.86,1.86,0,0,1-.21.83,3.16,3.16,0,0,1-.74.92,6.75,6.75,0,0,0-1,1,3.75,3.75,0,0,0-.4.77,2.61,2.61,0,0,0-.24.66,2.73,2.73,0,0,0,0,.7,6.76,6.76,0,0,0,.1.77c0,.19.18.3.17.49a3.18,3.18,0,0,1,.54-1.57c.32-.48.75-.88,1.08-1.36a6,6,0,0,0,.48-.9,4.85,4.85,0,0,0,.44-1.28,4.72,4.72,0,0,0,0-.92c.05,0,.14.31.21.33s0,0,0,0a7.69,7.69,0,0,1,1.18,1.94,6.27,6.27,0,0,1,.39,2.27,4.46,4.46,0,0,1,0,.63c0,.13,0,.53-.11.62a2.88,2.88,0,0,0,.73-2,3.53,3.53,0,0,0,0-.92,3.13,3.13,0,0,0-.78-1.51,4.33,4.33,0,0,0-1.31-1c.19,0,.29-.16.36-.36v0a3.85,3.85,0,0,0,2.73.51,3.07,3.07,0,0,0,2.26-1.84,3.8,3.8,0,0,1-1.56,1,3.91,3.91,0,0,1-1.49.38,7.08,7.08,0,0,1-1.12-.19,2.61,2.61,0,0,0-.55-.08,1.23,1.23,0,0,0-.25.06.38.38,0,0,0-.09-.37l-.06,0a2.41,2.41,0,0,1,.73-.24,4.71,4.71,0,0,0,.52-.09,2.8,2.8,0,0,0,1-.5,5.08,5.08,0,0,0,2.11-2.73.64.64,0,0,0-.07-.6A.94.94,0,0,1,19.41,11.11Z"/><path class="cls-5" d="M17.11,20.69a1.89,1.89,0,0,1-.67-.12.5.5,0,0,1-.34-.5,1.61,1.61,0,0,0,0-.31,3.26,3.26,0,0,0-.06-.62.51.51,0,0,1,.19-.49.47.47,0,0,1,.3-.1.38.38,0,0,1,.21.05.71.71,0,0,0,.28.06h0a1.28,1.28,0,0,0,.61-.17.5.5,0,0,1,.74.41,3.31,3.31,0,0,1,0,.71,3.2,3.2,0,0,1-.15.61.49.49,0,0,1-.25.28,1.82,1.82,0,0,1-.5.16A1.84,1.84,0,0,1,17.11,20.69Z"/><path class="cls-5" d="M17,19.16a1.12,1.12,0,0,1-.47-.11,4.17,4.17,0,0,1,.07.71,1.93,1.93,0,0,1,0,.34,1.48,1.48,0,0,0,.75.07,1.6,1.6,0,0,0,.37-.12,2.92,2.92,0,0,0,.16-1.12A1.67,1.67,0,0,1,17,19.16Z"/><path class="cls-5" d="M19.72,16.19a.58.58,0,0,1-.19,0,.52.52,0,0,1-.31-.35,1.29,1.29,0,0,0-.4-.71.47.47,0,0,1-.17-.43.49.49,0,0,1,.26-.39l.26-.15.33-.22a.5.5,0,0,1,.29-.09.43.43,0,0,1,.19,0,1.82,1.82,0,0,1,.94,1,.5.5,0,0,1-.05.49,2.91,2.91,0,0,1-.85.79A.53.53,0,0,1,19.72,16.19Z"/><path class="cls-5" d="M19.14,14.71a1.69,1.69,0,0,1,.57,1l.05,0a2.33,2.33,0,0,0,.7-.66,1.37,1.37,0,0,0-.67-.71l-.35.24Z"/><path class="cls-5" d="M18.93,13.8a.52.52,0,0,1-.39-.2,2.18,2.18,0,0,0-.25-.28,2.46,2.46,0,0,0-1-.63.5.5,0,0,1-.35-.38.51.51,0,0,1,.18-.49c.22-.17.45-.34.69-.49a.5.5,0,0,1,.27-.07.47.47,0,0,1,.16,0,2.34,2.34,0,0,1,1.32,1.25l.1.27a.52.52,0,0,1-.07.45c-.09.13-.19.26-.29.38a.52.52,0,0,1-.38.17Z"/><path class="cls-5" d="M18.64,13c.11.11.21.22.31.34.09-.11.18-.22.26-.34a1.43,1.43,0,0,0-.08-.22,1.76,1.76,0,0,0-1-1,5.87,5.87,0,0,0-.65.46A3,3,0,0,1,18.64,13Z"/><path class="cls-5" d="M13.42,20.31a.46.46,0,0,1-.23-.06A3,3,0,0,1,12,19L12,18.89a.44.44,0,0,1,0-.39,4.85,4.85,0,0,1,.55-1,.52.52,0,0,1,.41-.21l.13,0a.5.5,0,0,1,.37.43,2,2,0,0,0,.29.89,2.21,2.21,0,0,0,.37.45.5.5,0,0,1,.16.34.46.46,0,0,1-.13.36l-.28.32A.53.53,0,0,1,13.42,20.31Z"/><path class="cls-5" d="M12.48,18.81a2.52,2.52,0,0,0,1,1v0l.3-.34a2.75,2.75,0,0,1-.46-.56,2.65,2.65,0,0,1-.36-1.1,4.6,4.6,0,0,0-.5.89A.61.61,0,0,0,12.48,18.81Z"/><path class="cls-5" d="M11.89,12.56a.5.5,0,0,1-.36-.24,6.5,6.5,0,0,1-.61-1.39.49.49,0,0,1,.2-.57,2.78,2.78,0,0,1,.64-.33,3.22,3.22,0,0,1,.68-.17h.07a.47.47,0,0,1,.28.09,7,7,0,0,1,1.13,1,.5.5,0,0,1-.29.84,2.41,2.41,0,0,0-1.32.66.52.52,0,0,1-.35.14Z"/><path class="cls-5" d="M13.56,11.27a6.47,6.47,0,0,0-1.05-.91,2.34,2.34,0,0,0-.58.14,2.31,2.31,0,0,0-.54.28A5.88,5.88,0,0,0,12,12.06,2.93,2.93,0,0,1,13.56,11.27Z"/><g class="cls-6"><path class="cls-3" d="M16.33,22.09A.55.55,0,0,1,16,22a.5.5,0,0,1-.16-.5c.05-.23.11-.46.15-.69a.5.5,0,0,1,.4-.39,7.9,7.9,0,0,0,.87-.22.39.39,0,0,1,.15,0,.49.49,0,0,1,.42.77,3,3,0,0,1-1.31,1.13A.65.65,0,0,1,16.33,22.09Z"/><path class="cls-3" d="M16.49,20.88c0,.24-.1.47-.16.71a2.49,2.49,0,0,0,1.09-.94A9,9,0,0,1,16.49,20.88Z"/><path class="cls-3" d="M11.26,11a.51.51,0,0,1-.43-.32c-.08-.31-.15-.63-.2-1a.49.49,0,0,1,.18-.46.46.46,0,0,1,.32-.11l.18,0a6.87,6.87,0,0,1,1,.5.5.5,0,0,1,.24.52.48.48,0,0,1-.4.4,1,1,0,0,0-.39.16.58.58,0,0,1-.45.24Z"/><path class="cls-3" d="M11.32,10.51a.64.64,0,0,1,.13-.15,1.21,1.21,0,0,1,.63-.28,6.37,6.37,0,0,0-.95-.46A7.06,7.06,0,0,0,11.32,10.51Z"/><path class="cls-3" d="M12.56,22a.5.5,0,0,1-.42-.23,3.4,3.4,0,0,1-.43-2.42.5.5,0,0,1,.41-.41h.08a.47.47,0,0,1,.43.25,2.57,2.57,0,0,0,.6.75l.09.06a.49.49,0,0,1,.14.65,5.47,5.47,0,0,0-.42,1,.5.5,0,0,1-.42.34Z"/><path class="cls-3" d="M12.92,20.34a2.9,2.9,0,0,1-.72-.88,2.9,2.9,0,0,0,.36,2.06A5.28,5.28,0,0,1,13,20.43Z"/><path class="cls-3" d="M19.61,12.77a.52.52,0,0,1-.44-.34,3.05,3.05,0,0,0-.48-.91.5.5,0,0,1-.1-.41.49.49,0,0,1,.25-.33,3.37,3.37,0,0,0,.31-.21,1,1,0,0,0,.41-.61A.48.48,0,0,1,20,9.52h0a.49.49,0,0,1,.48.38,3.7,3.7,0,0,1-.45,2.6.5.5,0,0,1-.44.27Z"/><path class="cls-3" d="M19.46,11a2.26,2.26,0,0,1-.38.25,3.63,3.63,0,0,1,.57,1.06,3.21,3.21,0,0,0,.4-2.25A1.42,1.42,0,0,1,19.46,11Z"/><path class="cls-3" d="M20.7,15.09a.49.49,0,0,1-.38-.19l0,0a.37.37,0,0,0-.27-.13h-.13a.52.52,0,0,1-.47-.28.5.5,0,0,1,.15-.62,3.83,3.83,0,0,1,1.14-.61l.13,0a.52.52,0,0,1,.29.09.49.49,0,0,1,.21.37,2.37,2.37,0,0,1-.17,1.1.5.5,0,0,1-.39.3Z"/><path class="cls-3" d="M20.7,14.59a1.74,1.74,0,0,0,.14-.87,3.25,3.25,0,0,0-1,.54.85.85,0,0,1,.82.29Z"/></g><path class="cls-5" d="M16.92,18.79a1.24,1.24,0,0,1-.86-.47c-.11-.13-.22-.25-.32-.38a.36.36,0,0,1-.08-.15c0-.11-.08-.23-.13-.34a4.45,4.45,0,0,1-.43,1.06.46.46,0,0,1-.43.26.34.34,0,0,1-.14,0,1.33,1.33,0,0,1-.84-.85,3.44,3.44,0,0,1-.27-1.2.49.49,0,0,1,.13-.36,3.2,3.2,0,0,0,.76-1.11,6.17,6.17,0,0,0-1.17-1.17.48.48,0,0,1-.15-.22l-.06-.16a1.91,1.91,0,0,1-.08-.88,1.09,1.09,0,0,1,.78-.86.82.82,0,0,1,.22,0,1.4,1.4,0,0,1,.84.33c.12.1.24.2.35.31a.71.71,0,0,1,.1.14,6.84,6.84,0,0,1,.34.92l.37-.46a6.91,6.91,0,0,1,.61-.71.49.49,0,0,1,.36-.15h0a1.48,1.48,0,0,1,1.21.7,1.64,1.64,0,0,1,0,1.59l.24-.06.14,0a.51.51,0,0,1,.44.26,1.14,1.14,0,0,1,0,1.09,1.52,1.52,0,0,1-.79.68.48.48,0,0,1-.2,0h0l-.29,0,.13.19a3.59,3.59,0,0,1,.27.47.47.47,0,0,1,0,.33,3.31,3.31,0,0,1-.12.42,1.1,1.1,0,0,1-.71.81Z"/><path class="cls-5" d="M16.24,13.46c-.38.51-1.07,1.31-1.09,1.18a5.1,5.1,0,0,0-.46-1.72,2.61,2.61,0,0,0-.31-.27.75.75,0,0,0-.64-.22.56.56,0,0,0-.39.46,1.26,1.26,0,0,0,.06.64c0,.05,0,.1.05.15a5.47,5.47,0,0,1,1.38,1.46,3.19,3.19,0,0,1-.92,1.54,2.85,2.85,0,0,0,.23,1,.9.9,0,0,0,.52.56,4.5,4.5,0,0,0,.46-2.87,11.43,11.43,0,0,1,1,2.23l.3.36c.15.16.36.34.57.28s.3-.28.37-.48.07-.24.1-.37a3.38,3.38,0,0,0-.24-.41,5.83,5.83,0,0,0-2-1.78,8,8,0,0,0,2.2.8l.37,0a1,1,0,0,0,.55-.46.63.63,0,0,0,0-.61,4.37,4.37,0,0,1-3-.15,3.67,3.67,0,0,0,2.13-.41,1.19,1.19,0,0,0,.08-1.19,1,1,0,0,0-.81-.45A7.21,7.21,0,0,0,16.24,13.46Z"/><path class="cls-5" d="M15.71,17a.52.52,0,0,1-.32-.11.45.45,0,0,1-.2,0l-.17,0-.13-.06a1.91,1.91,0,0,1-.78-.66.5.5,0,0,1,0-.56,2.42,2.42,0,0,0,.21-.43,3.45,3.45,0,0,0-.31-.38.51.51,0,0,1-.05-.61L14.1,14a1.88,1.88,0,0,1,.75-.56.63.63,0,0,1,.19,0,.46.46,0,0,1,.23.05.46.46,0,0,1,.18.16l.06-.07a.49.49,0,0,1,.38-.18l.15,0a1.78,1.78,0,0,1,1,.81,1.59,1.59,0,0,1,.16.4.45.45,0,0,1,0,.28.5.5,0,0,1,.08.27,2.45,2.45,0,0,1,0,.27,2.42,2.42,0,0,1-.13.56.4.4,0,0,1-.15.19.5.5,0,0,1-.09.24l-.11.12a1.6,1.6,0,0,1-1,.47Z"/><path class="cls-5" d="M16.77,15.4c0-.07,0-.15,0-.22a4.51,4.51,0,0,1-1.36-.33,3.36,3.36,0,0,0,1.3-.09,1.36,1.36,0,0,0-.11-.28,1.27,1.27,0,0,0-.72-.58c-.35.43-.73.84-.74.74a5.37,5.37,0,0,0-.11-.7,1.39,1.39,0,0,0-.55.4l-.12.17a3.23,3.23,0,0,1,.47.63,2,2,0,0,1-.32.79,1.41,1.41,0,0,0,.58.5l.09,0a4.75,4.75,0,0,0-.06-1.06,11,11,0,0,1,.58,1.13,1,1,0,0,0,.71-.32.27.27,0,0,0,.07-.08,7,7,0,0,0-1.21-.9,11.92,11.92,0,0,0,1.38.59A1.53,1.53,0,0,0,16.77,15.4Z"/><path class="cls-7" d="M15.23,16.16a.43.43,0,0,1-.2-.07.44.44,0,0,1-.26-.17,1.14,1.14,0,0,1-.33-.52,1,1,0,0,1,.1-.65,1.16,1.16,0,0,1,.49-.53,1,1,0,0,1,.42-.09,1.09,1.09,0,0,1,.46.1,1.64,1.64,0,0,1,.39.27.49.49,0,0,1,.16.45h0a.52.52,0,0,1-.2.5l-.11.07-.12.09-.13.13-.25.27a.48.48,0,0,1-.36.16Z"/><path class="cls-7" d="M15.42,14.85a3.37,3.37,0,0,0,.55,0,1.65,1.65,0,0,0-.27-.19.52.52,0,0,0-.44,0A.59.59,0,0,0,15,15a.46.46,0,0,0-.07.3c0,.14.16.22.24.33a.76.76,0,0,0,0-.21c.06.09.11.18.16.27l.25-.28-.26-.16.29.14.11-.11a1,1,0,0,1,.19-.16L16,15A5.1,5.1,0,0,1,15.42,14.85Z"/><path class="cls-3" d="M18.51,18.45a.51.51,0,0,1-.43-.24,2.11,2.11,0,0,0-1-.66l-.21-.1a5.3,5.3,0,0,1-2.12-1.66.89.89,0,0,1-.09-.89,1.06,1.06,0,0,1,.83-.61h.14a2.07,2.07,0,0,1,.75.18l.5.2a10.49,10.49,0,0,0,1.59.57,2,2,0,0,0,.36,0,.42.42,0,0,0,.2,0,.45.45,0,0,1,.2,0,.51.51,0,0,1,.39.19.5.5,0,0,1,0,.61A2.8,2.8,0,0,0,19,17.9a.51.51,0,0,1-.35.52A.4.4,0,0,1,18.51,18.45Z"/><path class="cls-3" d="M18.51,18a3,3,0,0,0-1.4-.95,4.88,4.88,0,0,1-1.92-1.5.47.47,0,0,1,.39-.71,1.56,1.56,0,0,1,.67.15,13.7,13.7,0,0,0,2.14.78,1.36,1.36,0,0,0,.87,0A3.36,3.36,0,0,0,18.51,18Z"/><path class="cls-5" d="M18.26,18.15a.51.51,0,0,1-.34-.13,3,3,0,0,0-.82-.47l-.2-.1a5.3,5.3,0,0,1-2.12-1.66.89.89,0,0,1-.09-.89,1.06,1.06,0,0,1,.83-.61h.14a2.07,2.07,0,0,1,.75.18l.5.2a10.49,10.49,0,0,0,1.59.57,2,2,0,0,0,.36,0,.42.42,0,0,0,.2,0,.45.45,0,0,1,.2,0,.5.5,0,0,1,.41.79l-.12.14a1.44,1.44,0,0,0-.33.32.53.53,0,0,1-.39.18h0a5.19,5.19,0,0,1-1.24-.28l.15.09a4.46,4.46,0,0,1,.66.44,1.12,1.12,0,0,1,.4.66.5.5,0,0,1-.25.53A.44.44,0,0,1,18.26,18.15Z"/><path class="cls-5" d="M18.39,15.72a13.7,13.7,0,0,1-2.14-.78,1.56,1.56,0,0,0-.67-.15.47.47,0,0,0-.39.71A4.88,4.88,0,0,0,17.11,17a4.62,4.62,0,0,1,1.15.65.67.67,0,0,0-.23-.38,7.8,7.8,0,0,0-.91-.58c-.37-.25-.74-.51-1.1-.78a1.66,1.66,0,0,1-.57-.61.27.27,0,0,1,0-.13.19.19,0,0,1,.19-.15.55.55,0,0,1,.25.07,9.7,9.7,0,0,0,3,1.05,2.45,2.45,0,0,1,.4-.39l0,0A1.36,1.36,0,0,1,18.39,15.72Z"/><path class="cls-3" d="M19.64,19.26a.82.82,0,0,1-.51-.16l-.05,0H19a1.19,1.19,0,0,1-.54-.12,2,2,0,0,1-.9-2.52,2.45,2.45,0,0,1,1.81-1.36.92.92,0,0,1,.44.1,1.24,1.24,0,0,1,.4.32.47.47,0,0,0,.09.1h.21a1,1,0,0,1,.57,1.69.7.7,0,0,1,.07.39.83.83,0,0,1-.56.66l0,0a1.18,1.18,0,0,1,0,.27A.91.91,0,0,1,19.64,19.26Z"/><path class="cls-3" d="M18.67,18.49a.67.67,0,0,0,.31.07.75.75,0,0,1,.26,0,1.25,1.25,0,0,1,.19.15.4.4,0,0,0,.59-.21c0-.14,0-.3.07-.42s.53-.2.55-.45-.17-.31-.13-.46a.55.55,0,0,1,.17-.2.53.53,0,0,0,.14-.52.56.56,0,0,0-.4-.36,1.45,1.45,0,0,1-.3,0c-.22-.07-.33-.34-.54-.44-.52-.26-1.38.57-1.57,1A1.5,1.5,0,0,0,18.67,18.49Z"/><path class="cls-3" d="M19.5,18.6a.51.51,0,0,1-.17,0c-.94-.32-1.46-.86-1.48-1.51A1.3,1.3,0,0,1,19,15.74h0a1.79,1.79,0,0,1,1.21.48.53.53,0,0,1,.15.54.49.49,0,0,1-.44.34.27.27,0,0,0-.13.2,1.25,1.25,0,0,0,.13.6.49.49,0,0,1-.09.54A.5.5,0,0,1,19.5,18.6Z"/><path class="cls-3" d="M18.35,17a.8.8,0,0,1,.7-.8,1.25,1.25,0,0,1,.87.37.69.69,0,0,0-.59.6,1.55,1.55,0,0,0,.17.89C19,17.94,18.36,17.61,18.35,17Z"/><path class="cls-5" d="M19.64,19.26a.82.82,0,0,1-.51-.16l-.05,0H19a1.19,1.19,0,0,1-.54-.12,2,2,0,0,1-1-1.21.52.52,0,0,1,.33-.62l.15,0a.5.5,0,0,1,.47.33.8.8,0,0,0,.25.36.36.36,0,0,0,.21.1.8.8,0,0,1,.33-.08l.14,0h.06a.83.83,0,0,1,.06-.21.6.6,0,0,1,.19-.22.64.64,0,0,1,0-.37.56.56,0,0,1,.14-.3,1,1,0,0,1-.33-.34.37.37,0,0,0-.31-.17H19a.54.54,0,0,1-.22.05.52.52,0,0,1-.45-.25.47.47,0,0,1,.11-.64,1.64,1.64,0,0,1,.91-.33.92.92,0,0,1,.44.1,1.24,1.24,0,0,1,.4.32.47.47,0,0,0,.09.1h.21a1,1,0,0,1,.57,1.69.7.7,0,0,1,.07.39.83.83,0,0,1-.56.66l0,0a1.18,1.18,0,0,1,0,.27.91.91,0,0,1-.87.64Z"/><path class="cls-5" d="M20.12,16.05c-.22-.07-.33-.34-.54-.44a.87.87,0,0,0-.84.19l.14-.05a.87.87,0,0,1,.89.26c.09.11.16.27.3.32a1.57,1.57,0,0,1,.23,0,.29.29,0,0,1,.12.47c-.1.1-.29.14-.31.28s.26.34.17.51-.3.09-.36.22,0,.19,0,.29a.32.32,0,0,1-.16.34.33.33,0,0,1-.38,0c-.05-.05-.09-.12-.17-.14a.31.31,0,0,0-.18.05.76.76,0,0,1-.71-.19,1.24,1.24,0,0,1-.4-.57,1.44,1.44,0,0,0,.72.9.67.67,0,0,0,.31.07.75.75,0,0,1,.26,0,1.25,1.25,0,0,1,.19.15.4.4,0,0,0,.59-.21c0-.14,0-.3.07-.42s.53-.2.55-.45-.17-.31-.13-.46a.55.55,0,0,1,.17-.2.53.53,0,0,0,.14-.52.56.56,0,0,0-.4-.36A1.45,1.45,0,0,1,20.12,16.05Z"/><path class="cls-5" d="M19,18.37a.5.5,0,0,1-.24-.06,1.47,1.47,0,0,1-.89-1.25A1.3,1.3,0,0,1,19,15.74h0a1.52,1.52,0,0,1,.88.25.5.5,0,0,1,.23.52.51.51,0,0,1-.41.4.5.5,0,0,0-.37.26.46.46,0,0,0,0,.44.49.49,0,0,1-.06.61A.48.48,0,0,1,19,18.37Z"/><path class="cls-5" d="M18.91,17a1,1,0,0,1,.75-.55,1,1,0,0,0-.61-.17.8.8,0,0,0-.7.8,1,1,0,0,0,.63.83A1,1,0,0,1,18.91,17Z"/><path class="cls-5" d="M19.58,17.23a.45.45,0,0,1-.16,0l-.92-.34a.49.49,0,0,1-.32-.39.49.49,0,0,1,.19-.48,1.27,1.27,0,0,1,.64-.25h0a1.79,1.79,0,0,1,1.21.48.53.53,0,0,1,.15.54.48.48,0,0,1-.44.34A.59.59,0,0,1,19.58,17.23Z"/><path class="cls-5" d="M18.67,16.39l.93.35a.48.48,0,0,1,.32-.13,1.25,1.25,0,0,0-.87-.37A.75.75,0,0,0,18.67,16.39Z"/><path class="cls-5" d="M19.5,18.6a.51.51,0,0,1-.17,0c-.93-.32-1.46-.85-1.48-1.51a.47.47,0,0,1,.24-.44.48.48,0,0,1,.26-.07.5.5,0,0,1,.24.06l.56.3.49.33a.49.49,0,0,1,.19.3,2.52,2.52,0,0,0,.12.36.49.49,0,0,1-.09.54A.5.5,0,0,1,19.5,18.6Z"/><path class="cls-5" d="M18.89,17.34l-.54-.29c0,.56.68.89,1.15,1.05a2.69,2.69,0,0,1-.16-.45A4.5,4.5,0,0,0,18.89,17.34Z"/><path class="cls-3" d="M12.89,13.47a.5.5,0,0,1-.24-.06,2.15,2.15,0,0,1-.74-.66,1.44,1.44,0,0,1-.39-.94.58.58,0,0,1,.55-.54.57.57,0,0,1,.29.08,1.61,1.61,0,0,1,.53.59l.07.12.11.16a2.38,2.38,0,0,1,.31.5.54.54,0,0,1-.49.75Z"/><path class="cls-3" d="M12.1,11.78s-.08,0-.08,0a1,1,0,0,0,.29.63,1.89,1.89,0,0,0,.56.53s.07,0,.05-.05a3.7,3.7,0,0,0-.38-.59A1.58,1.58,0,0,0,12.1,11.78Z"/><path class="cls-3" d="M12,12.18a.53.53,0,0,1-.24-.06.91.91,0,0,1-.4-.41.62.62,0,0,1,.17-.88.65.65,0,0,1,.3-.09.64.64,0,0,1,.57.4,1.22,1.22,0,0,1,.15.42.61.61,0,0,1-.13.43.63.63,0,0,1-.42.19Z"/><path class="cls-3" d="M11.77,11.26c-.07,0,0,.15,0,.21a.44.44,0,0,0,.18.2,0,0,0,0,0,.07-.05.75.75,0,0,0-.09-.25C11.91,11.31,11.85,11.21,11.77,11.26Z"/><path class="cls-3" d="M17.41,13.55a.53.53,0,0,1-.49-.75,2.85,2.85,0,0,1,.71-1,1.43,1.43,0,0,1,.92-.48l.22,0a.56.56,0,0,1,.37.32.62.62,0,0,1,0,.5,2.33,2.33,0,0,1-.53.55l-.1.08-.49.4-.24.19a.57.57,0,0,1-.33.11Z"/><path class="cls-3" d="M18.64,11.89c-.26-.07-.5.18-.67.33a2.41,2.41,0,0,0-.59.79,0,0,0,0,0,.05,0c.24-.2.49-.38.72-.58a2.29,2.29,0,0,0,.52-.51S18.68,11.89,18.64,11.89Z"/><path class="cls-3" d="M18.86,12.39a.7.7,0,0,1-.5-.27.63.63,0,0,1,0-.55.79.79,0,0,1,.69-.48l.15,0a.59.59,0,0,1,.45.63.78.78,0,0,1-.71.65Z"/><path class="cls-3" d="M19.05,11.6c-.11,0-.23.09-.27.18s0,.11.08.11.25-.09.26-.2A.09.09,0,0,0,19.05,11.6Z"/><path class="cls-3" d="M18.23,14.23a.58.58,0,0,1-.55-.4.68.68,0,0,1,.18-.65,2.28,2.28,0,0,0,.22-.22,1,1,0,0,1,.4-.33.44.44,0,0,1,.23-.06.61.61,0,0,1,.56.56,1.28,1.28,0,0,1-.73,1A.69.69,0,0,1,18.23,14.23Z"/><path class="cls-3" d="M18.69,13.08a.66.66,0,0,0-.23.21,2.47,2.47,0,0,1-.28.28.09.09,0,0,0,.1.14c.2-.12.49-.32.49-.58A.06.06,0,0,0,18.69,13.08Z"/><path class="cls-3" d="M17.28,16.4h-.13a3.4,3.4,0,0,1-.34-.12.35.35,0,0,0-.14-.06,1.77,1.77,0,0,0-.31-.08l-.2,0a1.25,1.25,0,0,1-1-.58.6.6,0,0,1,.21-.74.76.76,0,0,1,.44-.13,1.93,1.93,0,0,1,.83.26l.24.14.23.13.11,0a2.48,2.48,0,0,1,.39.21.53.53,0,0,1-.31,1Z"/><path class="cls-3" d="M16.88,15.63c-.17-.08-.33-.19-.5-.28s-.56-.28-.76-.15a.09.09,0,0,0,0,.11c.1.21.47.25.67.3s.39.06.58.12a3.34,3.34,0,0,0,.44.17s0,0,0-.06A3.29,3.29,0,0,0,16.88,15.63Z"/><path class="cls-3" d="M17.68,16.74a.85.85,0,0,1-.56-.26.62.62,0,0,1-.15-.63.54.54,0,0,1,.52-.36.94.94,0,0,1,.61.19.59.59,0,0,1,.17.66.61.61,0,0,1-.57.4Z"/><path class="cls-3" d="M17.49,16a.07.07,0,0,0,0,.12.38.38,0,0,0,.24.13.1.1,0,0,0,.08-.18A.47.47,0,0,0,17.49,16Z"/><path class="cls-3" d="M16.81,20.42a.63.63,0,0,1-.44-.21.62.62,0,0,1-.11-.46,1.17,1.17,0,0,0,0-.29,1,1,0,0,1,.08-.59.59.59,0,0,1,.49-.29.63.63,0,0,1,.32.1.92.92,0,0,1,.32.8,1.43,1.43,0,0,1-.18.63.64.64,0,0,1-.51.31Z"/><path class="cls-3" d="M16.81,19.11c-.06.1,0,.23,0,.34a1.81,1.81,0,0,1,0,.4c0,.07.09.09.12,0a1,1,0,0,0,.13-.42c0-.13,0-.29-.11-.37A.05.05,0,0,0,16.81,19.11Z"/><path class="cls-3" d="M16.8,19.34a.59.59,0,0,1-.55-.36.75.75,0,0,1-.06-.32.69.69,0,0,1,.15-.48.63.63,0,0,1,.44-.21.61.61,0,0,1,.44.19.67.67,0,0,1,.17.47.88.88,0,0,1-.05.33.64.64,0,0,1-.54.38Z"/><path class="cls-3" d="M16.72,18.5a.25.25,0,0,0,0,.15.3.3,0,0,0,0,.13.1.1,0,0,0,.17,0,.76.76,0,0,0,0-.15.18.18,0,0,0,0-.14A.08.08,0,0,0,16.72,18.5Z"/><path class="cls-3" d="M12.91,20.68a.61.61,0,0,1-.42-.19.57.57,0,0,1-.12-.42A2.9,2.9,0,0,1,12.75,19a2.77,2.77,0,0,1,.79-1,.7.7,0,0,1,.32-.09.58.58,0,0,1,.47.23.65.65,0,0,1,.09.49,2.19,2.19,0,0,1-.45.78l-.11.14a3.33,3.33,0,0,0-.45.74.55.55,0,0,1-.5.37Z"/><path class="cls-3" d="M13.81,18.44a2.45,2.45,0,0,0-.64.81,2.48,2.48,0,0,0-.31.89,0,0,0,0,0,.08,0,3.46,3.46,0,0,1,.52-.89,2.33,2.33,0,0,0,.48-.76C14,18.44,13.87,18.4,13.81,18.44Z"/><path class="cls-3" d="M19.71,18.9a.62.62,0,0,1-.45-.23.6.6,0,0,1-.09-.47.73.73,0,0,1,.13-.52.67.67,0,0,1,.46-.22.61.61,0,0,1,.39.15.72.72,0,0,1,.22.38.82.82,0,0,1,0,.35.7.7,0,0,1-.56.55Z"/><path class="cls-3" d="M19.67,18.05a.68.68,0,0,1,0,.14.74.74,0,0,1,0,.14s0,.07.07.06a.22.22,0,0,0,.16-.17.28.28,0,0,0,0-.13.16.16,0,0,0-.07-.11A.09.09,0,0,0,19.67,18.05Z"/><path class="cls-3" d="M19.74,18.36a.59.59,0,0,1-.55-.49.66.66,0,0,1,0-.14,1.38,1.38,0,0,1,0-.2.71.71,0,0,1,.49-.46l.14,0a.61.61,0,0,1,.52.32.57.57,0,0,1,0,.64.69.69,0,0,1-.25.22l0,0a.33.33,0,0,1-.13.07Z"/><path class="cls-3" d="M19.82,17.56a.16.16,0,0,0-.13.12.15.15,0,0,0,0,.07s0,0,0,.07a0,0,0,0,0,.09,0s0,0,0,0h0l.11-.08a.13.13,0,0,0,0-.12A.12.12,0,0,0,19.82,17.56Z"/><path class="cls-3" d="M20,18a.49.49,0,0,1-.5-.49.57.57,0,0,1,.14-.37A.51.51,0,0,1,20,17a.51.51,0,0,1,0,1Z"/><path class="cls-3" d="M20,17.51s0,0,0,0Z"/><path class="cls-3" d="M20,18.14a.3.3,0,0,1-.13,0h0a.44.44,0,0,1-.15-.08.49.49,0,0,1-.18-.17.62.62,0,0,1-.08-.44s.05-.15.05-.16.05-.12.06-.13a.59.59,0,0,1,1.06,0l0,0a1.29,1.29,0,0,1,.06.21.74.74,0,0,1,0,.21,1.51,1.51,0,0,1-.13.29.68.68,0,0,1-.31.22l-.15,0H20Z"/><path class="cls-3" d="M20.2,17.38a.1.1,0,0,0-.18,0v0h0a.1.1,0,0,1,0,0v0s0,0,0,0h0v0a.08.08,0,0,0,.06.09s0,0,0,0h.07l.08-.05a.3.3,0,0,0,0-.1v0s0,0,0,0Z"/><path class="cls-3" d="M20,17.65a.65.65,0,0,1-.53-.3.83.83,0,0,1-.11-.46.73.73,0,0,1,.69-.68l.14,0a.61.61,0,0,1,.47.52.65.65,0,0,1-.08.41.72.72,0,0,1-.22.36.69.69,0,0,1-.36.13Z"/><path class="cls-3" d="M20.08,16.72c-.12,0-.21.11-.22.21a.24.24,0,0,0,0,.15.1.1,0,0,0,.14.05.12.12,0,0,0,.05-.08V17h0a.17.17,0,0,0,0-.12A.12.12,0,0,0,20.08,16.72Z"/><path class="cls-3" d="M20.25,16.46h0S20.26,16.44,20.25,16.46Z"/><path class="cls-3" d="M20.25,16.46h0S20.26,16.44,20.25,16.46Z"/><path class="cls-3" d="M20.21,17.29a.88.88,0,0,1-.28-.12.73.73,0,0,1-.23-.47,1,1,0,0,1,0-.17.83.83,0,0,1,0-.13s0,0,0-.06l.05-.1a.63.63,0,0,1,.56-.36.85.85,0,0,1,.31.09l0,0a.72.72,0,0,1,.25.3.86.86,0,0,1,.05.23.71.71,0,0,1-.09.4.75.75,0,0,1-.35.33,1.11,1.11,0,0,1-.25.05Z"/><path class="cls-3" d="M20.43,16.41a.11.11,0,0,0-.18,0l0,0h0v0a.13.13,0,0,1,0,.06s0,.08,0,.11a.07.07,0,0,0,0,.07l0,0s0,0,0,0h.07a.23.23,0,0,0,.11-.11.21.21,0,0,0,0-.13.14.14,0,0,0,0-.07.09.09,0,0,0,0-.06Z"/><path class="cls-3" d="M18.29,18.25a.62.62,0,0,1-.42-.2,1.66,1.66,0,0,1-.06-2,1.7,1.7,0,0,1,1.27-.73.92.92,0,0,1,.78.42.61.61,0,0,1,0,.57.54.54,0,0,1-.49.3h-.24a.35.35,0,0,0-.37.22,1.14,1.14,0,0,0,0,.77.62.62,0,0,1-.09.48A.59.59,0,0,1,18.29,18.25Z"/><path class="cls-3" d="M18.22,16.3a1.16,1.16,0,0,0,0,1.43,0,0,0,0,0,.07,0,1.68,1.68,0,0,1,0-1.13.89.89,0,0,1,1.05-.48c.05,0,.08,0,.06-.09C19.14,15.53,18.44,16,18.22,16.3Z"/><path class="cls-3" d="M8.15,18a.59.59,0,0,1-.45-.23.57.57,0,0,1,0-.49,4.17,4.17,0,0,1,1.11-1.61A7.63,7.63,0,0,1,9.57,15l.11-.08a2.34,2.34,0,0,1,.94-.49h0a.57.57,0,0,1,.55.9,1.92,1.92,0,0,1-.66.54l-.15.1a6.37,6.37,0,0,0-.75.53,3.85,3.85,0,0,0-1,1.2.58.58,0,0,1-.48.28Z"/><path class="cls-3" d="M10.7,14.91a2.38,2.38,0,0,0-.84.49A7.51,7.51,0,0,0,9.1,16a3.8,3.8,0,0,0-1,1.42s.05.06.07,0A4.3,4.3,0,0,1,9.33,16.1a8.68,8.68,0,0,1,.79-.56A2.43,2.43,0,0,0,10.8,15C10.84,15,10.76,14.9,10.7,14.91Z"/><path class="cls-3" d="M11.86,14.9a.87.87,0,0,1-.32-.06.58.58,0,0,1-.32-.35.6.6,0,0,1,.1-.49,1.38,1.38,0,0,1,.9-.44.62.62,0,0,1,.62.49c0,.14.06.6-.62.8a1.55,1.55,0,0,1-.36.05Z"/><path class="cls-3" d="M11.72,14.31a0,0,0,0,0,0,.07.6.6,0,0,0,.35,0c.09,0,.29-.09.27-.22S11.79,14.21,11.72,14.31Z"/><path class="cls-3" d="M21.26,9.64a.85.85,0,0,1-.41-.15,1.41,1.41,0,0,1-.24-.27l-.08-.1A1,1,0,0,0,20.31,9a.57.57,0,0,1-.45-.54.56.56,0,0,1,.49-.52l.24,0a1.26,1.26,0,0,1,.69.19,1.14,1.14,0,0,1,.6.91.76.76,0,0,1-.17.45.64.64,0,0,1-.45.19Z"/><path class="cls-3" d="M21,8.52a.92.92,0,0,0-.63-.11,0,0,0,0,0,0,.08,1,1,0,0,1,.46.25c.13.11.2.26.32.37a.13.13,0,0,0,.21-.1A.65.65,0,0,0,21,8.52Z"/><path class="cls-3" d="M21.51,10.64a.59.59,0,0,1-.58-.46.9.9,0,0,1,0-.44v0a.61.61,0,0,1,.11-.39.68.68,0,0,1,.47-.24.57.57,0,0,1,.5.29l.1.17a1.07,1.07,0,0,1,.07.32.77.77,0,0,1-.47.73A.78.78,0,0,1,21.51,10.64Z"/><path class="cls-3" d="M21.59,9.63a.08.08,0,0,0-.15.06,0,0,0,0,1,0,0h0a.06.06,0,0,1,0,0s0,.06,0,.1a.38.38,0,0,0,0,.21.09.09,0,0,0,.12.07.26.26,0,0,0,.16-.25.7.7,0,0,0,0-.14Z"/><path class="cls-3" d="M15.79,22.1a.55.55,0,0,1-.43-.22.53.53,0,0,1-.08-.46,6.5,6.5,0,0,0,.18-1.06,3,3,0,0,0,0-.42,4.11,4.11,0,0,1,.08-.77.59.59,0,0,1,.53-.43.61.61,0,0,1,.53.38,2.94,2.94,0,0,1,0,1.38,5,5,0,0,1-.38,1.27.53.53,0,0,1-.48.33Z"/><path class="cls-3" d="M16.06,19.28c-.08.37,0,.77-.1,1.14a8.48,8.48,0,0,1-.2,1.14s0,.05.05,0a5.1,5.1,0,0,0,.35-1.15,2.62,2.62,0,0,0,0-1.15A0,0,0,0,0,16.06,19.28Z"/><path class="cls-3" d="M16,19.18a.56.56,0,0,1-.48-.31,1.89,1.89,0,0,1-.15-.46,1,1,0,0,1,0-.58.58.58,0,0,1,.51-.39.63.63,0,0,1,.44.22,1,1,0,0,1,.2.52,2.8,2.8,0,0,1,0,.5.59.59,0,0,1-.55.5Z"/><path class="cls-3" d="M16,18a0,0,0,0,0-.08,0,.74.74,0,0,0,0,.33,2,2,0,0,0,.11.35,0,0,0,0,0,.08,0,2,2,0,0,0,0-.35A.65.65,0,0,0,16,18Z"/><path class="cls-3" d="M11.91,21.39a.6.6,0,0,1-.52-.35,2.73,2.73,0,0,1,0-2.19.6.6,0,0,1,.48-.28.58.58,0,0,1,.41.18.6.6,0,0,1,.14.41l0,.22a3.7,3.7,0,0,0,0,1.33.56.56,0,0,1-.1.47.59.59,0,0,1-.43.21Z"/><path class="cls-3" d="M11.85,19.09a2.22,2.22,0,0,0,0,1.77.06.06,0,0,0,.11,0,4.91,4.91,0,0,1,0-1.71C11.94,19.07,11.87,19.05,11.85,19.09Z"/><path class="cls-3" d="M14.18,11.85a.59.59,0,0,1-.41-.18,9,9,0,0,0-1.25-1.18A4.92,4.92,0,0,0,11.1,9.6a.53.53,0,0,1,.16-1l.14,0a5.5,5.5,0,0,1,1.79.93l.17.13a3.29,3.29,0,0,1,1.34,1.48.54.54,0,0,1-.07.49.6.6,0,0,1-.45.23Z"/><path class="cls-3" d="M12.89,9.92a5.18,5.18,0,0,0-1.63-.85,0,0,0,0,0,0,0,5.55,5.55,0,0,1,1.59,1,9.61,9.61,0,0,1,1.31,1.24s.1,0,.08-.05C14,10.68,13.39,10.29,12.89,9.92Z"/><path class="cls-3" d="M14.89,13a.62.62,0,0,1-.3-.09.81.81,0,0,1-.32-.42l-.07-.16a1,1,0,0,1-.07-.15.59.59,0,0,1,0-.55.56.56,0,0,1,.48-.28.61.61,0,0,1,.41.19,1.12,1.12,0,0,1,.4,1,.63.63,0,0,1-.54.41Z"/><path class="cls-3" d="M14.66,11.88c-.05-.05-.12,0-.09.07s.09.21.14.31a.55.55,0,0,0,.15.24.07.07,0,0,0,.09,0C15,12.24,14.79,12,14.66,11.88Z"/><path class="cls-8" d="M5.47,20.32a.67.67,0,0,1-.39-1,2.37,2.37,0,0,1,1.38-1c1.3-.49,2.71-.65,4.05-1a11.66,11.66,0,0,0,3.67-1.73c.55-.41,1-.9,1.63-1.26a17.2,17.2,0,0,1,1.74-1,10.66,10.66,0,0,1,2.17-.73,4.25,4.25,0,0,1,1.12-.14,6.53,6.53,0,0,1,1.17.11.26.26,0,0,1,0,.49c-.28.08-.57.11-.85.18s-.62.18-.94.24a10.45,10.45,0,0,0-1.74.49,12.37,12.37,0,0,0-3.15,1.82,11.45,11.45,0,0,1-3.23,1.87,32.35,32.35,0,0,1-3.63,1c-.68.16-1.37.35-2.06.45a1.26,1.26,0,0,0-.88.37.7.7,0,0,0,0,.74A.09.09,0,0,1,5.47,20.32Z"/><path class="cls-9" d="M17.93,14.08A31.42,31.42,0,0,1,12.46,17a6.83,6.83,0,0,1-1.82.32l.69-.23a12.22,12.22,0,0,0,3.9-1.6,19.9,19.9,0,0,1,5.48-2.72l.33-.07a7.16,7.16,0,0,0-2.59.55c-1.54.64-2.74,1.87-4.25,2.57a6.67,6.67,0,0,1-.74.29,7.5,7.5,0,0,0,.72-.48l.08-.06a14.39,14.39,0,0,0,2-1.26A12.74,12.74,0,0,1,18.39,13a7.43,7.43,0,0,1,2.18-.55l.24,0h0a6.53,6.53,0,0,1,1.17.11.27.27,0,0,1,.19.2,6.06,6.06,0,0,0-1.46.17A11.06,11.06,0,0,0,17.93,14.08Z"/><path class="cls-9" d="M8.55,18.3a6.36,6.36,0,0,0-2.07.77h0l-.32.05c1.07-1,2.75-1.1,4.12-1.27.73-.09,1.46-.18,2.19-.31l-.3.11-.7.23-.29,0C10.27,18.05,9.4,18.13,8.55,18.3Z"/><path class="cls-9" d="M11.23,17.46a14.92,14.92,0,0,0,2.64-.63c-.31.18-.62.35-.94.5l-.56.14a36.26,36.26,0,0,0-5.19,1,4.65,4.65,0,0,0-1.32.7,1.45,1.45,0,0,0-.22.21l-.08.09,0,.06a.76.76,0,0,0-.11.78s0,0,0,0l-.14,0c-.33-.49.18-1.09.58-1.37a6.82,6.82,0,0,1,2.54-1C9.34,17.69,10.29,17.6,11.23,17.46Z"/><path class="cls-10" d="M15.91,15a6.82,6.82,0,0,1,1.8-1.2,9.74,9.74,0,0,1,2-.79c.05,0,.08.06,0,.08-.67.28-1.34.56-2,.9S16.59,14.7,16,15C15.93,15,15.88,15,15.91,15Z"/><path class="cls-10" d="M20.51,13.31c-.35.1-.69.25-1.05.33a.05.05,0,0,1,0-.09A3.55,3.55,0,0,1,21.55,13a0,0,0,0,1,0,.09C21.21,13.14,20.86,13.21,20.51,13.31Z"/><path class="cls-10" d="M12.34,17.15s-.06-.06,0-.08a4.46,4.46,0,0,1,.81-.36,4.31,4.31,0,0,1,.85-.24s.06.05,0,.08a4.83,4.83,0,0,1-.81.35A4.15,4.15,0,0,1,12.34,17.15Z"/><path class="cls-10" d="M5.1,19.5c0-.24.26-.41.42-.52a2.68,2.68,0,0,1,.94-.47s.09,0,0,.08a6.81,6.81,0,0,0-1.33.94S5.11,19.54,5.1,19.5Z"/><path class="cls-10" d="M7,18.82s0-.06,0-.08a7.19,7.19,0,0,1,2-.66c.05,0,.08.07,0,.1A6.8,6.8,0,0,1,7,18.82Z"/><path class="cls-11" d="M13.84,16.73c.73-.53,1.42-1.11,2.15-1.65A9.38,9.38,0,0,1,20.82,13a7.39,7.39,0,0,1,1.33,0,.21.21,0,0,1-.11.07c-.28.08-.57.11-.85.18s-.62.18-.94.24a10.45,10.45,0,0,0-1.74.49,12.37,12.37,0,0,0-3.15,1.82,13.6,13.6,0,0,1-2.26,1.46C13.35,17.08,13.6,16.91,13.84,16.73Z"/><path class="cls-10" d="M20.86,12.21a12.38,12.38,0,0,0,1.51-1.06s0,0,0,0a13.17,13.17,0,0,0-1.54.9,12.87,12.87,0,0,1-1.46.8s0,.1,0,.09A3.32,3.32,0,0,0,20.86,12.21Z"/><path class="cls-8" d="M9.36,18.13a5.7,5.7,0,0,1,1.47-1,24.9,24.9,0,0,1,3.45-1.45c1.2-.42,2.4-.85,3.56-1.39a29.37,29.37,0,0,0,3.38-1.88c.61-.39,1.22-.79,1.82-1.21a16.84,16.84,0,0,0,1.74-1.31c.11-.1,0-.25-.15-.19-.63.29-1.2.67-1.8,1s-1.16.69-1.75,1c-1.2.65-2.43,1.26-3.68,1.79-2.44,1-5.06,1.62-7.37,2.94a4.31,4.31,0,0,0-1.61,1.35c-.3.46-.53,1.29,0,1.69a.25.25,0,0,0,.41-.11A3.37,3.37,0,0,1,9.36,18.13Z"/><path class="cls-9" d="M8.64,19.56A4.53,4.53,0,0,1,9.73,17.5a8.2,8.2,0,0,1,3.44-2.12c1.39-.5,2.81-.89,4.19-1.41a20.56,20.56,0,0,0,4-1.8c1.13-.71,2.06-1.73,3.19-2.44-.28.14-.55.29-.82.45-.72.54-1.39,1.15-2.14,1.67a19.65,19.65,0,0,1-4.27,2c-1.45.53-3,.93-4.39,1.47a8.46,8.46,0,0,0-3.33,2,5.15,5.15,0,0,0-1.17,2c0-1.61,1.72-2.65,2.91-3.4l.7-.43c-.43.18-.85.37-1.27.57A8.56,8.56,0,0,0,9,17.43a2.46,2.46,0,0,0-.73,2l.1.09A.25.25,0,0,0,8.64,19.56Z"/><path class="cls-9" d="M15.93,14.57c-.46.15-.93.3-1.39.47a6.54,6.54,0,0,0-1,.48A7.59,7.59,0,0,0,10,17.59c.26-.17.54-.32.81-.46h0c.13-.11.28-.22.43-.33a7.88,7.88,0,0,1,2.91-1.22l1.05-.23c.51-.18,1-.37,1.52-.58-.86.24-1.73.42-2.61.61.57-.21,1.16-.4,1.74-.58.84-.27,1.69-.53,2.53-.82l.3-.11c.4-.2.79-.42,1.19-.65C18.6,13.73,17.26,14.15,15.93,14.57Z"/><path class="cls-10" d="M20.14,12.94a9.88,9.88,0,0,1-1.37.52c-.44.14-.9.21-1.32.39a0,0,0,0,0,0,.09,4,4,0,0,0,1.4-.32A9.16,9.16,0,0,0,20.15,13S20.15,12.94,20.14,12.94Z"/><path class="cls-10" d="M8.58,18.67a7.92,7.92,0,0,1,1-1.43,5.16,5.16,0,0,1,1.44-1s0,0,0,0a3.71,3.71,0,0,0-1.55.92,3.19,3.19,0,0,0-1,1.53C8.5,18.69,8.55,18.71,8.58,18.67Z"/><path class="cls-10" d="M8.39,19.32a2.41,2.41,0,0,1,.09-.92A4.58,4.58,0,0,1,9,17.5s0-.06-.05,0a3.42,3.42,0,0,0-.63.92,1.11,1.11,0,0,0,0,1A.05.05,0,0,0,8.39,19.32Z"/><path class="cls-11" d="M9.36,18.13a5.7,5.7,0,0,1,1.47-1,24.9,24.9,0,0,1,3.45-1.45c1-.34,1.9-.67,2.83-1.07a0,0,0,0,0-.06,0,11.81,11.81,0,0,0-1.5.47c-.47.16-.94.3-1.42.42a12.5,12.5,0,0,0-2.73,1c-.43.23-.85.49-1.26.76a5.69,5.69,0,0,0-1,.8,2,2,0,0,0-.54,1,4.08,4.08,0,0,0-.07.52.24.24,0,0,0,.32-.16A3.37,3.37,0,0,1,9.36,18.13Z"/><path class="cls-10" d="M18.94,12.66a3.17,3.17,0,0,0,1-1.22s0,0-.05,0a4.42,4.42,0,0,1-1.12,1.12c-.43.32-.93.51-1.37.8a.05.05,0,0,0,0,.09A3.38,3.38,0,0,0,18.94,12.66Z"/><path class="cls-8" d="M20.86,10.93a1.8,1.8,0,0,0-.33-1.77,1.26,1.26,0,0,0-.74-.38A1.07,1.07,0,0,0,19,9c-.1.06,0,.2.09.17a1,1,0,0,1,.75.16,1,1,0,0,1,.43.65,1.66,1.66,0,0,1-.54,1.41,7.52,7.52,0,0,1-3,1.66c-2.21.77-4.61,1.17-6.49,2.67a9.67,9.67,0,0,0-1.62,1.64,5.59,5.59,0,0,0-1,1.93c0,.15.15.22.26.16a4.38,4.38,0,0,0,.82-.73l.79-.84A11.41,11.41,0,0,1,11,16.37a11.3,11.3,0,0,1,3.46-1.62,26.35,26.35,0,0,0,3.62-1.27C19.14,13,20.49,12.17,20.86,10.93Z"/><path class="cls-9" d="M12.57,15c1.43-.5,2.91-.8,4.33-1.29a6.07,6.07,0,0,0,3.42-2.26,2,2,0,0,0-.5-2.65h0a1,1,0,0,0-.34,0,1.48,1.48,0,0,1,1,1.3,2.29,2.29,0,0,1-.68,1.78A8.33,8.33,0,0,1,16,13.79c-2.2.65-4.65,1.09-6.45,2.55a9.65,9.65,0,0,0-.91,1,5.59,5.59,0,0,0-1,1.93.13.13,0,0,0,.08.16,8.36,8.36,0,0,1,1.11-2A8.07,8.07,0,0,1,12.57,15Z"/><path class="cls-9" d="M20.63,9.58a2.6,2.6,0,0,1,.09,1.65l-.08.21a2.31,2.31,0,0,0,.22-.51,1.8,1.8,0,0,0-.33-1.77A1.09,1.09,0,0,0,20.26,9,2.32,2.32,0,0,1,20.63,9.58Z"/><path class="cls-9" d="M12.11,14.66a29.21,29.21,0,0,1,4.69-1.34,4.07,4.07,0,0,0,3.13-2.15l-.18.21a3.45,3.45,0,0,1-.28.26.35.35,0,0,1,0,.08c-.86,1.15-2.43,1.38-3.76,1.67a17.83,17.83,0,0,0-4.92,2A9.25,9.25,0,0,1,12.11,14.66Z"/><path class="cls-9" d="M13.1,15.08a8.24,8.24,0,0,0-3.39,1.83,8,8,0,0,0-1.94,2.55l.06,0,.22-.16A8.43,8.43,0,0,1,9.88,17a7.88,7.88,0,0,1,2.56-1.5,13.17,13.17,0,0,1,1.75-.67C13.82,14.9,13.46,15,13.1,15.08Z"/><path class="cls-9" d="M19.42,9.15a1,1,0,0,1,.36.13,1.19,1.19,0,0,0-.52-.42l-.18.1A.83.83,0,0,1,19.42,9.15Z"/><path class="cls-10" d="M20.54,11.39a2.54,2.54,0,0,0,.15-1.78s0,0,0,0a3.52,3.52,0,0,1-.34,1.72,5,5,0,0,1-1.09,1.28s0,.07,0,.06A2.24,2.24,0,0,0,20.54,11.39Z"/><path class="cls-10" d="M12.23,15.36s0,0,0,0a5.33,5.33,0,0,0-3.66,2.34s0,0,0,0a9.31,9.31,0,0,1,1.65-1.42A7.23,7.23,0,0,1,12.23,15.36Z"/><path class="cls-10" d="M8.36,18.7c.13-.18.23-.38.37-.56a4,4,0,0,1,.46-.46c.38-.32.76-.63,1.16-.92,0,0,0-.08,0-.05a9.65,9.65,0,0,0-1.37.92,1.66,1.66,0,0,0-.67,1A.05.05,0,0,0,8.36,18.7Z"/><path class="cls-10" d="M13,14.52a3,3,0,0,0-1.74.92s0,.09,0,.07c.28-.14.54-.32.82-.47s.61-.29.9-.46C13.1,14.57,13.07,14.52,13,14.52Z"/><path class="cls-11" d="M20,11.44a1.51,1.51,0,0,0,.3-2,1.3,1.3,0,0,0-.89-.5A1.92,1.92,0,0,0,19,9h0c-.1.06,0,.2.09.17a1,1,0,0,1,.75.16,1,1,0,0,1,.43.65,1.66,1.66,0,0,1-.54,1.41,7.52,7.52,0,0,1-3,1.66c-.45.16-.91.3-1.37.44a8.35,8.35,0,0,0,2.26-.58A6.81,6.81,0,0,0,20,11.44Z"/><path class="cls-11" d="M8,19.33a5.51,5.51,0,0,0,.66-.62l.79-.84A11.41,11.41,0,0,1,11,16.37a10.79,10.79,0,0,1,3.3-1.57l-.2,0a3.45,3.45,0,0,0-.54.11,8.48,8.48,0,0,0-1,.27,6.53,6.53,0,0,0-1.95,1.08A10.09,10.09,0,0,0,9,17.88c-.23.29-.46.6-.67.91S8.1,19.14,8,19.33Z"/><path class="cls-12" d="M15.06,14.64a6.28,6.28,0,0,0-4-5,6.25,6.25,0,0,0,1.17,3c.75.95,1.94,1.52,2.54,2.57-.15.92-1.11,1.67-1.71,2.39a4.36,4.36,0,0,0-.93,1.92,2.89,2.89,0,0,0,.36,2.07,5.22,5.22,0,0,1,.89-1.72c.26-.32.57-.61.83-.94A4.37,4.37,0,0,0,15,15.4,13.13,13.13,0,0,1,16.15,18a6,6,0,0,1,.37,1.81,7.12,7.12,0,0,1-.28,1.83,2.7,2.7,0,0,0,1.52-2.05A3.68,3.68,0,0,0,17.14,17a5.94,5.94,0,0,0-2-1.78,8,8,0,0,0,2.2.8,3.38,3.38,0,0,0,2.28-.35,2.17,2.17,0,0,0,1.08-2,6.14,6.14,0,0,0-1.41.83,4.38,4.38,0,0,1-4,.3,3.65,3.65,0,0,0,2.38-.55,5.15,5.15,0,0,0,1.71-1.79A3.37,3.37,0,0,0,20,10a1.42,1.42,0,0,1-.59.94,7.1,7.1,0,0,1-1,.58,7.23,7.23,0,0,0-2.23,1.92C15.76,14,15.07,14.77,15.06,14.64Z"/><path class="cls-13" d="M16,16.08s-.07,0-.05.05c.15.2.34.36.47.57a3.23,3.23,0,0,1,.34.7A4.1,4.1,0,0,1,17,18.94a5.16,5.16,0,0,1-.32,1.55,3.51,3.51,0,0,1-.34.67c0,.14-.06.29-.1.43l.06,0a6.52,6.52,0,0,0,.58-.93,3.81,3.81,0,0,0,.44-1.75A3.32,3.32,0,0,0,17,17.27,2.83,2.83,0,0,0,16,16.08Z"/><path class="cls-13" d="M20.09,14.51a4.72,4.72,0,0,1-1.58.8,9,9,0,0,1-1.79.19.08.08,0,0,0,0,.15,3,3,0,0,0,1.78-.07,5,5,0,0,0,1.72-.85,4.23,4.23,0,0,0,.51-.44,1.67,1.67,0,0,0,.05-.39A5.51,5.51,0,0,1,20.09,14.51Z"/><path class="cls-13" d="M11.06,9.79l.73.64a10.51,10.51,0,0,1,1.12,1.19A12.24,12.24,0,0,1,13.77,13c.28.48.57,1,.84,1.47,0,0,0,0,0,0a15.5,15.5,0,0,0-1.52-3.05A9.66,9.66,0,0,0,12,10.26l-.41-.37A6.28,6.28,0,0,0,11,9.62,1,1,0,0,0,11.06,9.79Z"/><path class="cls-13" d="M13,19c.56-1,1.7-1.64,1.87-2.81,0-.05-.06-.06-.08,0a10.92,10.92,0,0,1-1.19,1.54,5,5,0,0,0-1,1.41,3.42,3.42,0,0,0-.07,2.4l.06-.15A3.41,3.41,0,0,1,13,19Z"/><path class="cls-13" d="M20,10a.91.91,0,0,1-.14.42,2.5,2.5,0,0,1-.19.52,5.53,5.53,0,0,1-1.11,1.39,15.27,15.27,0,0,1-1.33,1.21,8.92,8.92,0,0,1-1.61.94s0,0,0,0a5.51,5.51,0,0,0,1.78-.72,11.63,11.63,0,0,0,1.48-1.32A4.82,4.82,0,0,0,20,10.69,2.19,2.19,0,0,0,20,10Z"/><path class="cls-14" d="M16.15,13.46c-.39.51-1.08,1.31-1.09,1.18a5.25,5.25,0,0,0-.57-1.93,2.19,2.19,0,0,0-.29.17,2.58,2.58,0,0,0-.76.85,5.48,5.48,0,0,1,1.31,1.41,3.13,3.13,0,0,1-.89,1.5,2.15,2.15,0,0,0,.5.35,2.34,2.34,0,0,0,.63.21,4.73,4.73,0,0,0,0-1.8,11,11,0,0,1,.87,1.88,1.47,1.47,0,0,0,.29-.05,1.93,1.93,0,0,0,.75-.45l0,0a6.37,6.37,0,0,0-1.78-1.53,8,8,0,0,0,2.2.8h.09a2,2,0,0,0,.2-.89,4.3,4.3,0,0,1-2.35-.3,3.61,3.61,0,0,0,2.18-.44,3.07,3.07,0,0,0-.5-.75,2.39,2.39,0,0,0-.61-.5Z"/><path class="cls-15" d="M19.32,11.11c-.44.33-.88.65-1.33,1-.28.18-.55.36-.81.56s-.55.49-.81.75a8.51,8.51,0,0,0-1.15,1.32h-.05a.57.57,0,0,0-.23.15,8,8,0,0,0-1.47-3.23,6.31,6.31,0,0,0-2.42-1.89q.07.39.18.78a6.88,6.88,0,0,0,1.3,2.12A14.24,14.24,0,0,1,14.78,15a1.1,1.1,0,0,1,0,.18v.06a1.86,1.86,0,0,1-.21.83,3,3,0,0,1-.75.92,6.7,6.7,0,0,0-1,1,4,4,0,0,0-.41.76,3,3,0,0,0-.23.66,3.28,3.28,0,0,0,0,.7,4.92,4.92,0,0,0,.11.77c0,.19.17.3.17.49A3.18,3.18,0,0,1,13,19.74c.32-.48.75-.88,1.08-1.36a6,6,0,0,0,.48-.9A4.91,4.91,0,0,0,15,16.21a4.82,4.82,0,0,0,0-.93s.14.32.21.33,0,0,0,0a7.69,7.69,0,0,1,1.18,1.94,6.31,6.31,0,0,1,.39,2.27,4.46,4.46,0,0,1,0,.63c0,.13,0,.53-.11.62a2.93,2.93,0,0,0,.73-2,3.53,3.53,0,0,0,0-.92,3.11,3.11,0,0,0-.79-1.51,4.29,4.29,0,0,0-1.3-1c.18,0,.29-.16.35-.36v0a3.89,3.89,0,0,0,2.74.51,3.09,3.09,0,0,0,2.26-1.84,3.7,3.7,0,0,1-1.56,1,3.91,3.91,0,0,1-1.49.38,7.08,7.08,0,0,1-1.12-.19,2.61,2.61,0,0,0-.55-.08c-.05,0-.15,0-.25.06a.4.4,0,0,0-.09-.37l-.06,0a2.41,2.41,0,0,1,.73-.24c.17,0,.35,0,.52-.08a3.12,3.12,0,0,0,1-.51,5.08,5.08,0,0,0,2.11-2.73.64.64,0,0,0-.07-.6A.94.94,0,0,1,19.32,11.11Z"/><path class="cls-5" d="M16.92,19.16a1.12,1.12,0,0,1-.47-.11,4.17,4.17,0,0,1,.07.71c0,.11,0,.23,0,.34a1.48,1.48,0,0,0,.75.07,1.23,1.23,0,0,0,.37-.12,2.84,2.84,0,0,0,.16-1.12A1.67,1.67,0,0,1,16.92,19.16Z"/><path class="cls-5" d="M19.05,14.71a1.69,1.69,0,0,1,.57,1l.05,0a2.33,2.33,0,0,0,.7-.66,1.37,1.37,0,0,0-.67-.71l-.36.24A2.69,2.69,0,0,1,19.05,14.71Z"/><path class="cls-5" d="M18.55,13a3.17,3.17,0,0,1,.3.34,2.88,2.88,0,0,0,.27-.34,2,2,0,0,0-.08-.22,1.79,1.79,0,0,0-1-1,5.87,5.87,0,0,0-.65.46A3,3,0,0,1,18.55,13Z"/><path class="cls-5" d="M12.39,18.82a2.54,2.54,0,0,0,.95,1l0,0,.3-.34a2.75,2.75,0,0,1-.46-.56,2.65,2.65,0,0,1-.36-1.1,4.6,4.6,0,0,0-.5.89A.69.69,0,0,0,12.39,18.82Z"/><path class="cls-5" d="M13.47,11.27a6.92,6.92,0,0,0-1.05-.91,2.34,2.34,0,0,0-.58.14,2.77,2.77,0,0,0-.54.28,5.88,5.88,0,0,0,.57,1.28A2.93,2.93,0,0,1,13.47,11.27Z"/><g class="cls-6"><path class="cls-16" d="M16.4,20.88c0,.24-.1.47-.16.71a2.43,2.43,0,0,0,1.09-.94A9,9,0,0,1,16.4,20.88Z"/><path class="cls-16" d="M11.22,10.51a.67.67,0,0,1,.14-.15,1.25,1.25,0,0,1,.63-.28,7.53,7.53,0,0,0-1-.46C11.08,9.92,11.15,10.21,11.22,10.51Z"/><path class="cls-16" d="M12.83,20.35a2.94,2.94,0,0,1-.72-.89,2.85,2.85,0,0,0,.36,2.06,5.84,5.84,0,0,1,.46-1.09Z"/><path class="cls-16" d="M19.37,11a2.26,2.26,0,0,1-.38.25,3.63,3.63,0,0,1,.57,1.06A3.2,3.2,0,0,0,20,10,1.42,1.42,0,0,1,19.37,11Z"/><path class="cls-16" d="M20.61,14.59a1.74,1.74,0,0,0,.14-.87,3.25,3.25,0,0,0-1,.54.85.85,0,0,1,.82.29Z"/></g><path class="cls-15" d="M16.15,13.46c-.39.51-1.08,1.31-1.09,1.18a4.89,4.89,0,0,0-.47-1.72,1.93,1.93,0,0,0-.3-.27.82.82,0,0,0-.64-.22.59.59,0,0,0-.4.47,1.35,1.35,0,0,0,.07.63c0,.05,0,.1,0,.15a5.8,5.8,0,0,1,1.38,1.46,3.19,3.19,0,0,1-.92,1.54,2.85,2.85,0,0,0,.23,1,.88.88,0,0,0,.52.56A4.49,4.49,0,0,0,15,15.4a12.06,12.06,0,0,1,1,2.23l.3.36c.15.17.35.34.57.29s.3-.29.37-.49.07-.24.1-.37a3.38,3.38,0,0,0-.24-.41,5.94,5.94,0,0,0-2-1.78,8,8,0,0,0,2.2.8l.37,0a1.1,1.1,0,0,0,.55-.47.64.64,0,0,0,0-.6,4.42,4.42,0,0,1-3-.16,3.59,3.59,0,0,0,2.13-.41,1.19,1.19,0,0,0,.08-1.19,1,1,0,0,0-.81-.45A7.21,7.21,0,0,0,16.15,13.46Z"/><path class="cls-15" d="M16.67,15.4a1.5,1.5,0,0,0,0-.22,4.24,4.24,0,0,1-1.36-.33,3.36,3.36,0,0,0,1.3-.09,1.13,1.13,0,0,0-.12-.28,1.22,1.22,0,0,0-.71-.58c-.35.43-.73.84-.74.74a5.37,5.37,0,0,0-.11-.7,1.29,1.29,0,0,0-.55.41l-.12.16a3.56,3.56,0,0,1,.47.63,2.16,2.16,0,0,1-.32.79,1.34,1.34,0,0,0,.58.5l.08,0A4.21,4.21,0,0,0,15,15.4a11,11,0,0,1,.58,1.13,1.08,1.08,0,0,0,.71-.32l.07-.08a7.6,7.6,0,0,0-1.21-.9,10.41,10.41,0,0,0,1.38.59A1.51,1.51,0,0,0,16.67,15.4Z"/><path class="cls-17" d="M15.33,14.85a3.33,3.33,0,0,0,.55,0,1.38,1.38,0,0,0-.28-.19.56.56,0,0,0-.44,0,.62.62,0,0,0-.26.31.48.48,0,0,0-.07.31c0,.13.16.22.24.32l0-.21c.06.09.11.18.16.27l.25-.28-.26-.16.29.14.11-.11a1,1,0,0,1,.19-.16l.1-.06A5.1,5.1,0,0,1,15.33,14.85Z"/><path class="cls-18" d="M18.42,18A3,3,0,0,0,17,17a4.79,4.79,0,0,1-1.92-1.5c-.22-.3.06-.67.39-.71a1.44,1.44,0,0,1,.67.16,14.75,14.75,0,0,0,2.14.77,1.36,1.36,0,0,0,.87,0A3.31,3.31,0,0,0,18.42,18Z"/><path class="cls-15" d="M18.3,15.72A14.75,14.75,0,0,1,16.16,15a1.44,1.44,0,0,0-.67-.16c-.33,0-.61.41-.39.71A4.79,4.79,0,0,0,17,17a4.62,4.62,0,0,1,1.15.65.67.67,0,0,0-.23-.38,7.8,7.8,0,0,0-.91-.58q-.57-.37-1.11-.78a1.72,1.72,0,0,1-.56-.61.19.19,0,0,1,0-.13.21.21,0,0,1,.19-.15.78.78,0,0,1,.25.07,9.45,9.45,0,0,0,3,1.05,2.46,2.46,0,0,1,.4-.39l0,0A1.36,1.36,0,0,1,18.3,15.72Z"/><path class="cls-19" d="M18.58,18.49a.66.66,0,0,0,.3.07,1.15,1.15,0,0,1,.26,0,1,1,0,0,1,.2.15.4.4,0,0,0,.59-.21c0-.14,0-.3.07-.42s.53-.2.55-.45-.17-.3-.13-.46a.55.55,0,0,1,.17-.2.51.51,0,0,0-.26-.87,2.72,2.72,0,0,1-.3,0c-.23-.07-.33-.34-.54-.44-.52-.26-1.38.57-1.57,1A1.48,1.48,0,0,0,18.58,18.49Z"/><path class="cls-20" d="M18.26,17a.79.79,0,0,1,.7-.8,1.25,1.25,0,0,1,.86.37.7.7,0,0,0-.58.61,1.59,1.59,0,0,0,.16.88C18.94,17.94,18.27,17.61,18.26,17Z"/><path class="cls-15" d="M20,16.05c-.23-.07-.33-.34-.54-.44a.87.87,0,0,0-.84.19l.14-.05a.89.89,0,0,1,.89.26c.09.11.16.27.3.32a1.85,1.85,0,0,1,.23,0,.3.3,0,0,1,.12.47c-.1.1-.29.14-.31.28s.26.35.17.51-.3.09-.36.22,0,.2,0,.29a.36.36,0,0,1-.16.35.35.35,0,0,1-.38,0c-.05-.05-.1-.12-.17-.14a.31.31,0,0,0-.18.05.78.78,0,0,1-.71-.18,1.32,1.32,0,0,1-.4-.58,1.44,1.44,0,0,0,.72.9.66.66,0,0,0,.3.07,1.15,1.15,0,0,1,.26,0,1,1,0,0,1,.2.15.4.4,0,0,0,.59-.21c0-.14,0-.3.07-.42s.53-.2.55-.45-.17-.3-.13-.46a.55.55,0,0,1,.17-.2.51.51,0,0,0-.26-.87A2.72,2.72,0,0,1,20,16.05Z"/><path class="cls-15" d="M18.82,17a1,1,0,0,1,.74-.55,1,1,0,0,0-.6-.17.79.79,0,0,0-.7.8,1,1,0,0,0,.63.83A1,1,0,0,1,18.82,17Z"/><path class="cls-15" d="M18.58,16.39l.93.35a.48.48,0,0,1,.31-.13,1.25,1.25,0,0,0-.86-.37A.75.75,0,0,0,18.58,16.39Z"/><path class="cls-15" d="M18.8,17.34l-.54-.29c0,.56.68.89,1.14,1.05a3.39,3.39,0,0,1-.15-.45C19.11,17.54,19,17.44,18.8,17.34Z"/><path class="cls-21" d="M12,11.78a0,0,0,0,0-.08,0,.94.94,0,0,0,.28.62,1.91,1.91,0,0,0,.57.53,0,0,0,0,0,.05-.05,5.36,5.36,0,0,0-.38-.59A1.58,1.58,0,0,0,12,11.78Z"/><path class="cls-21" d="M11.68,11.26c-.07,0,0,.15,0,.21a.39.39,0,0,0,.18.2,0,0,0,0,0,.07-.05.77.77,0,0,0-.1-.25C11.82,11.31,11.76,11.21,11.68,11.26Z"/><path class="cls-21" d="M18.55,11.89c-.26-.07-.5.18-.67.34a2.27,2.27,0,0,0-.59.78s0,.06.05,0l.72-.58a2.51,2.51,0,0,0,.52-.51S18.59,11.9,18.55,11.89Z"/><path class="cls-21" d="M19,11.6c-.11,0-.23.09-.27.18a.08.08,0,0,0,.08.11c.1,0,.25-.08.26-.2A.1.1,0,0,0,19,11.6Z"/><path class="cls-21" d="M18.6,13.08a.58.58,0,0,0-.23.21,2.47,2.47,0,0,1-.28.28.09.09,0,1,0,.1.14c.2-.12.49-.31.49-.58C18.68,13.09,18.63,13.07,18.6,13.08Z"/><path class="cls-21" d="M16.79,15.63c-.17-.08-.33-.19-.5-.27s-.56-.29-.76-.16a.09.09,0,0,0,0,.11c.1.21.46.25.67.3a3.63,3.63,0,0,1,.57.13c.15,0,.29.12.44.16a0,0,0,0,0,0-.06A3.29,3.29,0,0,0,16.79,15.63Z"/><path class="cls-21" d="M17.4,16a.07.07,0,0,0,0,.12.38.38,0,0,0,.24.13.1.1,0,0,0,.08-.18A.47.47,0,0,0,17.4,16Z"/><path class="cls-21" d="M16.72,19.11a.59.59,0,0,0,0,.35,1.72,1.72,0,0,1,0,.39.06.06,0,0,0,.12,0,1.13,1.13,0,0,0,.13-.43c0-.13,0-.29-.11-.37A.05.05,0,0,0,16.72,19.11Z"/><path class="cls-21" d="M16.63,18.5a.25.25,0,0,0,0,.15.36.36,0,0,0,0,.14c0,.06.14.08.16,0a.39.39,0,0,0,0-.15.18.18,0,0,0,0-.14A.08.08,0,0,0,16.63,18.5Z"/><path class="cls-21" d="M13.72,18.44a2.56,2.56,0,0,0-.64.81,2.31,2.31,0,0,0-.31.89s.06.07.08,0a3.14,3.14,0,0,1,.52-.88,2.44,2.44,0,0,0,.48-.76C13.87,18.44,13.77,18.41,13.72,18.44Z"/><path class="cls-22" d="M19.58,18.05a.68.68,0,0,1,0,.14s0,.09,0,.14a.06.06,0,0,0,.06.07.24.24,0,0,0,.17-.18.24.24,0,0,0,0-.12.2.2,0,0,0-.07-.12A.09.09,0,0,0,19.58,18.05Z"/><path class="cls-22" d="M19.73,17.56a.16.16,0,0,0-.13.12.17.17,0,0,0,0,.07s0,0,0,.07a0,0,0,0,0,.09,0s0,0,0,0h0l.11-.08a.13.13,0,0,0,0-.12A.12.12,0,0,0,19.73,17.56Z"/><path class="cls-22" d="M19.88,17.51s0,0,0,0Z"/><path class="cls-22" d="M20.11,17.38a.1.1,0,0,0-.18,0v.08a.08.08,0,0,0,0,0h0v0a.07.07,0,0,0,.06.09H20l.08-.05a.36.36,0,0,0,0-.09v0s0,0,0,0Z"/><path class="cls-22" d="M20,16.72c-.11,0-.2.11-.21.21a.29.29,0,0,0,0,.16.1.1,0,0,0,.14,0,.12.12,0,0,0,.05-.08V17h0a.2.2,0,0,0,0-.13A.12.12,0,0,0,20,16.72Z"/><path class="cls-22" d="M20.16,16.46h0S20.17,16.44,20.16,16.46Z"/><path class="cls-22" d="M20.34,16.41a.12.12,0,0,0-.18,0l0,0s0,0,0,0v0s0,0,0,.06,0,.08,0,.12a.09.09,0,0,0,0,.07h0s0,0,0,0h.07a.2.2,0,0,0,.11-.11.31.31,0,0,0,0-.13.14.14,0,0,0,0-.07.09.09,0,0,0,0-.06Z"/><path class="cls-22" d="M18.12,16.3a1.18,1.18,0,0,0,0,1.43s.1,0,.08,0a1.72,1.72,0,0,1,0-1.12.91.91,0,0,1,1.06-.49.06.06,0,0,0,.05-.09C19.05,15.53,18.35,16,18.12,16.3Z"/><path class="cls-10" d="M10.61,14.91a2.38,2.38,0,0,0-.84.49A7.51,7.51,0,0,0,9,16a3.8,3.8,0,0,0-1,1.42s.05.06.07,0A4.3,4.3,0,0,1,9.24,16.1a9.29,9.29,0,0,1,.79-.56A2.25,2.25,0,0,0,10.7,15C10.75,15,10.67,14.9,10.61,14.91Z"/><path class="cls-10" d="M11.62,14.31s0,.06,0,.07a.53.53,0,0,0,.35,0c.09,0,.29-.09.26-.22S11.7,14.21,11.62,14.31Z"/><path class="cls-10" d="M20.93,8.52a.92.92,0,0,0-.63-.11s-.05.07,0,.08a1.12,1.12,0,0,1,.47.25c.13.11.2.26.32.37a.13.13,0,0,0,.21-.1A.65.65,0,0,0,20.93,8.52Z"/><path class="cls-10" d="M21.5,9.63c-.05-.07-.17,0-.15.06a0,0,0,0,1,0,0h0a.08.08,0,0,0,0,0s0,.07,0,.1a.38.38,0,0,0,0,.21.09.09,0,0,0,.12.07.23.23,0,0,0,.15-.25.34.34,0,0,0,0-.14Z"/><path class="cls-12" d="M16,19.28c-.08.37-.05.77-.1,1.14a8.48,8.48,0,0,1-.2,1.14,0,0,0,0,0,.05,0,5.1,5.1,0,0,0,.35-1.15,2.62,2.62,0,0,0,0-1.15A0,0,0,0,0,16,19.28Z"/><path class="cls-12" d="M15.87,18a0,0,0,0,0-.08,0,.74.74,0,0,0,0,.33,1.1,1.1,0,0,0,.11.35s.07,0,.08,0a1.38,1.38,0,0,0,0-.35A.53.53,0,0,0,15.87,18Z"/><path class="cls-12" d="M11.76,19.09a2.22,2.22,0,0,0,0,1.77.06.06,0,0,0,.11,0,4.91,4.91,0,0,1,0-1.71A.05.05,0,0,0,11.76,19.09Z"/><path class="cls-12" d="M12.8,9.92a5.05,5.05,0,0,0-1.63-.84s0,0,0,0a5.37,5.37,0,0,1,1.58,1,10.35,10.35,0,0,1,1.32,1.24s.09,0,.08-.05A3.39,3.39,0,0,0,12.8,9.92Z"/><path class="cls-12" d="M14.57,11.88c-.05-.05-.12,0-.09.07s.09.21.14.32a.57.57,0,0,0,.15.23.07.07,0,0,0,.09,0C14.92,12.24,14.7,12,14.57,11.88Z"/><path class="cls-23" d="M15,2.5A12.5,12.5,0,1,1,2.5,15,12.5,12.5,0,0,1,15,2.5M15,1A14,14,0,1,0,29,15,14,14,0,0,0,15,1Z"/></g></g></svg>