<svg id="Livello_1" data-name="Livello 1" xmlns="http://www.w3.org/2000/svg" xmlns:xlink="http://www.w3.org/1999/xlink" viewBox="0 0 30 30"><defs><style>.cls-1{fill:none;}.cls-2{clip-path:url(#clip-path);}.cls-3{clip-path:url(#clip-path-2);}.cls-4{clip-path:url(#clip-path-3);}.cls-5{fill:#99d5ea;}.cls-6{fill:#e3e4e3;}.cls-7{fill:#fff;}.cls-8{fill:#ef88b6;}.cls-9{fill:#fbd760;}.cls-10{clip-path:url(#clip-path-4);}.cls-11{fill:#d1d1d1;}.cls-12{clip-path:url(#clip-path-5);}.cls-13{fill:#c54793;}.cls-14{fill:#f7c2d0;}</style><clipPath id="clip-path"><circle class="cls-1" cx="-35" cy="15" r="12.5" transform="translate(-3.88 -6.94) rotate(-11.98)"/></clipPath><clipPath id="clip-path-2"><rect class="cls-1" x="-56.6" y="-6.98" width="40.28" height="40.28"/></clipPath><clipPath id="clip-path-3"><rect class="cls-1" x="-34.92" y="-23.79" width="39.89" height="39.71"/></clipPath><clipPath id="clip-path-4"><rect class="cls-1" x="-34.92" y="15.92" width="39.89" height="39.71"/></clipPath><clipPath id="clip-path-5"><circle class="cls-1" cx="15" cy="15" r="12.5"/></clipPath></defs><g class="cls-2"><g class="cls-3"><g class="cls-4"><path class="cls-5" d="M1.34,11.36a.37.37,0,0,0-.15-.06l-.35.06a.45.45,0,0,0,0,.17.1.1,0,0,0,.11.08l.37-.07A.1.1,0,0,0,1.34,11.36Z"/><path class="cls-6" d="M.05,8.74h0v0A.6.6,0,0,1,.52,8a.6.6,0,0,1,.7.48.86.86,0,0,1,0,.16h0A10,10,0,0,0,.94,9.86a3.64,3.64,0,0,0,.25,1.44l-.35.06S.09,8.86.05,8.74Z"/><path class="cls-7" d="M2.47,6.79a.22.22,0,0,0-.09-.07,2.85,2.85,0,0,1-.57-.47.42.42,0,0,1-.09-.14h0a.59.59,0,0,0-.8-.28.59.59,0,0,0-.29.76.6.6,0,0,0,.8.31h0a.28.28,0,0,1,.13,0,1.92,1.92,0,0,1,.25.12.91.91,0,0,0,.22.11.21.21,0,0,0,.23,0c.06-.06.07-.17.15-.21h0A.08.08,0,0,0,2.47,6.79Z"/><path class="cls-8" d="M1.57,6.37H1.4l0,0,0,0h0v0h0a.06.06,0,0,1-.09,0,.06.06,0,0,0,0,0h.07a.07.07,0,0,1,0,0h0l0,0h0s0,0-.05.07h.08a.09.09,0,0,1-.06.08h.08s0,0,0,0h.2v0Z"/><path class="cls-8" d="M2.29,6.79h.09s0,0,0,0v0s0,0,0,0v0h0v0H2.29Z"/><path class="cls-8" d="M1.17,6.28s0,0,0,0h0a0,0,0,0,0,0,0l0,0h0S1.17,6.29,1.17,6.28Z"/><path class="cls-8" d="M1.12,6.41s0,0-.05,0,0,0,0,0H1a0,0,0,0,0,0,.06.11.11,0,0,0,.07,0h0S1.13,6.43,1.12,6.41Z"/><path class="cls-7" d="M-3,9.12a1,1,0,0,1,.39-1A1,1,0,0,1-1.76,8c1,.12,1.26-.3,1.26-.3L.67,6.05l.62.74a1.15,1.15,0,0,0-.17,1.15,1.19,1.19,0,0,1,.07.89c-.29,1-2.66,1.33-3.51,1.06A1,1,0,0,1-3,9.12Z"/><path class="cls-5" d="M.94,11.83a.5.5,0,0,0-.15-.07l-.36.07a.33.33,0,0,0,0,.17c0,.05.06.08.11.07L.89,12A.1.1,0,0,0,.94,11.83Z"/><path class="cls-7" d="M-.35,9.2h0s0,0,0,0A.6.6,0,1,1,.82,8.93a.92.92,0,0,1,0,.16h0a10.2,10.2,0,0,0-.29,1.24,3.56,3.56,0,0,0,.25,1.43l-.36.07Z"/><path class="cls-9" d="M1.51,6,1.88,5s0-.06,0,0-.53.8-.58.85A.27.27,0,0,0,1.51,6Z"/><path class="cls-5" d="M.07,7.63a1.08,1.08,0,0,1-.23.55.68.68,0,0,1-.52.26A.56.56,0,0,0-.44,8a1.08,1.08,0,0,0-.09-.5,1.47,1.47,0,0,1-.1-.22.71.71,0,0,1,.06-.57.54.54,0,0,1,.5-.24A6.54,6.54,0,0,1,.07,7.63Z"/><path class="cls-8" d="M.27,6.34a.28.28,0,0,0,0,.25.92.92,0,0,0,.13.21,1,1,0,0,1,.13.28,1.22,1.22,0,0,1,.06.26,1,1,0,0,1,0,.38.64.64,0,0,1-.3.35.67.67,0,0,1-.46,0A.65.65,0,0,0,0,7.66a1.24,1.24,0,0,0-.1-.5,3,3,0,0,1-.14-.39.72.72,0,0,1,0-.41A.64.64,0,0,1,0,6,.51.51,0,0,1,.24,6,.3.3,0,0,1,.45,6Z"/><path class="cls-9" d="M1.07,5.93A.4.4,0,0,0,.77,6a.39.39,0,0,0-.1.3,1.56,1.56,0,0,0,.17.5A1.31,1.31,0,0,1,.92,7a.64.64,0,0,1-.06.43.73.73,0,0,1-.54.29A.57.57,0,0,0,.47,7.5a.33.33,0,0,0,0-.17,1.2,1.2,0,0,0-.21-.54,1.64,1.64,0,0,1-.14-.22.64.64,0,0,1,.15-.64.68.68,0,0,1,.5-.25A.29.29,0,0,1,1,5.8Z"/><path class="cls-5" d="M1.19,5.86a.27.27,0,0,1,.12-.26.3.3,0,0,1,.29,0,.41.41,0,0,1,.15.25c0,.1,0,.2.06.29a.85.85,0,0,0,.09.22s.06.09.11.09A.59.59,0,0,1,1.5,6C1.4,5.67,1.19,5.86,1.19,5.86Z"/><path class="cls-7" d="M1.05,6S.79,5.84.92,5.41c0,0,.43.17.3.56Z"/><path class="cls-8" d="M1,6A.46.46,0,0,1,1,5.57s.19,0,.24.37a0,0,0,0,1,0,0h0s0,0,0,0h0a0,0,0,0,1,0,0h0a0,0,0,0,0,0,0h0A0,0,0,0,1,1,6Z"/><path class="cls-8" d="M5.92,10.47c.54.16.87-.41,1-.71a.54.54,0,0,1,.43-.33c.49,0,.75.63.84.88h0l-.1,0c0-.09-.18-.65-.58-.58A.41.41,0,0,0,7.2,10c-.13.24-.44.76-.85.86A1.14,1.14,0,0,1,4.93,10a1,1,0,0,1,.3-.53l.34-.34C5.46,9.49,5.3,10.26,5.92,10.47Z"/><path class="cls-9" d="M6.35,10.85c.41-.1.72-.62.85-.86a.41.41,0,0,1,.31-.23c.4-.07.56.49.58.58h0a.7.7,0,0,0-.12-.28.43.43,0,0,0-.26-.16.39.39,0,0,0-.32.11,1.14,1.14,0,0,0-.21.28,3.11,3.11,0,0,1-.42.68,1.07,1.07,0,0,1-1,.28,1.05,1.05,0,0,1-.75-.76.9.9,0,0,1,0-.49A1.14,1.14,0,0,0,6.35,10.85Z"/><path class="cls-5" d="M4.73,3.08A1.42,1.42,0,0,1,5.43,5l.28.13A1.73,1.73,0,1,0,2.57,3.64l.28.13A1.41,1.41,0,0,1,4.73,3.08Z"/><path class="cls-8" d="M4.73,3.08a1.41,1.41,0,0,0-1.88.69l.28.13A1.11,1.11,0,0,1,4.6,3.36a1.1,1.1,0,0,1,.54,1.47L5.43,5A1.42,1.42,0,0,0,4.73,3.08Z"/><path class="cls-9" d="M4.6,3.36a1.11,1.11,0,0,0-1.47.54L3.42,4a.79.79,0,1,1,1.44.67l.28.13A1.1,1.1,0,0,0,4.6,3.36Z"/><path class="cls-7" d="M2,4a.51.51,0,0,0,.29.25,1.08,1.08,0,0,0,.47.07.26.26,0,0,0,.1.24.74.74,0,0,0,.26.1h.17a.14.14,0,0,0,.1-.13.48.48,0,0,0,.48,0A.46.46,0,0,0,4,4.06a.51.51,0,0,0-.31-.39.65.65,0,0,0-.51,0,.26.26,0,0,0-.12-.3.41.41,0,0,0-.34-.05.33.33,0,0,0-.42-.16.29.29,0,0,0-.1.42S1.82,3.65,2,4Z"/><path class="cls-6" d="M3,4.38l-.1-.09a.34.34,0,0,1-.07-.19s0,0,0,0h0A1.3,1.3,0,0,1,2.38,4,.51.51,0,0,1,2.21,4a.35.35,0,0,1-.15-.31A.22.22,0,0,0,2,4a.51.51,0,0,0,.29.25,1.08,1.08,0,0,0,.47.07.26.26,0,0,0,.1.24.74.74,0,0,0,.26.1h.17a.24.24,0,0,0,.08-.06A1.06,1.06,0,0,1,3,4.38Z"/><path class="cls-7" d="M4.11,5.05a.51.51,0,0,0,.29.25,1.08,1.08,0,0,0,.47.07A.24.24,0,0,0,5,5.6a.46.46,0,0,0,.25.1.37.37,0,0,0,.18,0,.15.15,0,0,0,.1-.13.46.46,0,0,0,.47,0,.45.45,0,0,0,.2-.42.54.54,0,0,0-.31-.39.65.65,0,0,0-.51,0,.26.26,0,0,0-.12-.3.41.41,0,0,0-.34,0,.33.33,0,0,0-.42-.16.29.29,0,0,0-.1.42S4,4.74,4.11,5.05Z"/><path class="cls-6" d="M5.14,5.47l-.09-.09A.34.34,0,0,1,5,5.19s0,0,0,0H5a1.27,1.27,0,0,1-.43,0L4.35,5a.36.36,0,0,1-.15-.31.22.22,0,0,0-.09.32.51.51,0,0,0,.29.25,1.08,1.08,0,0,0,.47.07A.24.24,0,0,0,5,5.6a.46.46,0,0,0,.25.1.37.37,0,0,0,.18,0,.18.18,0,0,0,.08-.07A.91.91,0,0,1,5.14,5.47Z"/><path class="cls-8" d="M3.22,13.74A.23.23,0,0,1,3,14a.23.23,0,0,1-.24-.23.24.24,0,1,1,.47,0Z"/><path class="cls-5" d="M2.52,1.67a.23.23,0,0,1-.23.24.24.24,0,0,1-.24-.24.23.23,0,0,1,.24-.23A.23.23,0,0,1,2.52,1.67Z"/><path class="cls-5" d="M3.81,9.86a.24.24,0,1,1-.48,0,.24.24,0,0,1,.48,0Z"/><path class="cls-9" d="M.6,14.72A.23.23,0,0,1,.37,15a.24.24,0,1,1,0-.48A.23.23,0,0,1,.6,14.72Z"/></g><g class="cls-10"><path class="cls-6" d="M.05,28.59h0a.43.43,0,0,1,0-.05.61.61,0,0,1,.48-.7.6.6,0,0,1,.7.49.76.76,0,0,1,0,.15h0a10.2,10.2,0,0,0-.29,1.24,3.56,3.56,0,0,0,.25,1.43l-.35.07Z"/><path class="cls-7" d="M2.47,26.65a.24.24,0,0,0-.09-.08,2.5,2.5,0,0,1-.57-.46A.42.42,0,0,1,1.72,26h0a.59.59,0,0,0-.8-.28.59.59,0,1,0,.51,1.07h0a.28.28,0,0,1,.13,0,1.15,1.15,0,0,1,.25.12.91.91,0,0,0,.22.11A.23.23,0,0,0,2.28,27c.06-.06.07-.16.15-.2h0A.08.08,0,0,0,2.47,26.65Z"/><path class="cls-8" d="M1.57,26.23H1.38l0,0,0,0h0s0,0,0,0a.08.08,0,0,1-.09,0s0,0,0,0h.07l0,0a.1.1,0,0,1-.07,0h.11a.09.09,0,0,1-.05.07h.07v0a.11.11,0,0,1-.06.09h.08s0,0,0,0h.19v0h0Z"/><path class="cls-8" d="M2.29,26.65h.09s0,0,0,0v0s0,0,0,0,0,0,0,0h0v0H2.29Z"/><path class="cls-8" d="M1.17,26.14s0,0,0,0l0,0h0s0,0,0,0,0,0,0,0h0S1.17,26.15,1.17,26.14Z"/><path class="cls-8" d="M1.12,26.27a0,0,0,0,0-.05,0v0H1s0,0,0,.06l.07,0h0S1.13,26.29,1.12,26.27Z"/><path class="cls-7" d="M-3,29a1,1,0,0,1,.39-1,1,1,0,0,1,.87-.18c1,.12,1.26-.3,1.26-.3L.67,25.9l.62.74a1.17,1.17,0,0,0-.17,1.16,1.17,1.17,0,0,1,.07.88c-.29,1-2.66,1.34-3.51,1.07A1,1,0,0,1-3,29Z"/><path class="cls-7" d="M-.35,29.06h0s0,0,0,0a.6.6,0,0,1,.48-.7.6.6,0,0,1,.7.48.86.86,0,0,1,0,.16h0a10,10,0,0,0-.29,1.23,3.64,3.64,0,0,0,.25,1.44l-.36.06S-.31,29.18-.35,29.06Z"/><path class="cls-9" d="M1.51,25.81l.37-.92a0,0,0,1,0,0,0s-.53.79-.58.84A.26.26,0,0,0,1.51,25.81Z"/><path class="cls-5" d="M.07,27.48A1.12,1.12,0,0,1-.16,28a.71.71,0,0,1-.52.26.56.56,0,0,0,.24-.43,1.08,1.08,0,0,0-.09-.5,2.29,2.29,0,0,1-.1-.23.69.69,0,0,1,.06-.56.57.57,0,0,1,.5-.25A6.68,6.68,0,0,1,.07,27.48Z"/><path class="cls-8" d="M.27,26.2a.26.26,0,0,0,0,.24,1,1,0,0,0,.13.22,1,1,0,0,1,.13.28,1.1,1.1,0,0,1,.06.26.9.9,0,0,1,0,.37.61.61,0,0,1-.3.35A.62.62,0,0,1-.23,28a.67.67,0,0,0,.2-.46A1.25,1.25,0,0,0-.13,27a2.58,2.58,0,0,1-.14-.39.68.68,0,0,1,0-.4A.61.61,0,0,1,0,25.88a.51.51,0,0,1,.21-.06.26.26,0,0,1,.21.08Z"/><path class="cls-9" d="M1.07,25.78a.41.41,0,0,0-.3.08.38.38,0,0,0-.1.29,1.48,1.48,0,0,0,.17.5,1.8,1.8,0,0,1,.08.21.66.66,0,0,1-.06.44.73.73,0,0,1-.54.29.57.57,0,0,0,.15-.23.33.33,0,0,0,0-.17,1.2,1.2,0,0,0-.21-.54,1.64,1.64,0,0,1-.14-.22.66.66,0,0,1,.15-.65.7.7,0,0,1,.5-.24.29.29,0,0,1,.24.12Z"/><path class="cls-5" d="M1.19,25.72a.27.27,0,0,1,.12-.26.26.26,0,0,1,.29,0,.38.38,0,0,1,.15.25c0,.09,0,.19.06.29a1,1,0,0,0,.09.22s.06.08.11.08a.57.57,0,0,1-.51-.4C1.4,25.52,1.19,25.72,1.19,25.72Z"/><path class="cls-7" d="M1.05,25.86s-.26-.16-.13-.59a.46.46,0,0,1,.3.56Z"/><path class="cls-8" d="M1,25.83a.46.46,0,0,1-.05-.4s.19,0,.24.36c0,0,0,0,0,0h0a0,0,0,0,1,0,0h0s0,0,0,0h0A0,0,0,0,1,1,25.83Z"/><path class="cls-8" d="M5.92,30.32c.54.17.87-.4,1-.7a.54.54,0,0,1,.43-.33c.49-.05.75.62.84.88h0l-.1,0c0-.1-.18-.65-.58-.58a.41.41,0,0,0-.31.23c-.13.24-.44.76-.85.86a1.15,1.15,0,0,1-1.42-.84,1.08,1.08,0,0,1,.3-.54L5.57,29C5.46,29.34,5.3,30.12,5.92,30.32Z"/><path class="cls-9" d="M6.35,30.71c.41-.1.72-.62.85-.86a.41.41,0,0,1,.31-.23c.4-.07.56.48.58.58h0a.7.7,0,0,0-.12-.28.38.38,0,0,0-.58-.05,1.14,1.14,0,0,0-.21.28,3.36,3.36,0,0,1-.42.68,1.07,1.07,0,0,1-1,.28,1.08,1.08,0,0,1-.75-.76.91.91,0,0,1,0-.49A1.15,1.15,0,0,0,6.35,30.71Z"/><path class="cls-5" d="M4.73,22.93a1.43,1.43,0,0,1,.7,1.88l.28.13A1.73,1.73,0,1,0,2.57,23.5l.28.13A1.43,1.43,0,0,1,4.73,22.93Z"/><path class="cls-8" d="M4.73,22.93a1.43,1.43,0,0,0-1.88.7l.28.13a1.1,1.1,0,0,1,1.47-.54,1.09,1.09,0,0,1,.54,1.46l.29.13A1.43,1.43,0,0,0,4.73,22.93Z"/><path class="cls-9" d="M4.6,23.22a1.1,1.1,0,0,0-1.47.54l.29.13a.79.79,0,0,1,1.44.66l.28.13A1.09,1.09,0,0,0,4.6,23.22Z"/><path class="cls-7" d="M2,23.82a.46.46,0,0,0,.29.24,1.09,1.09,0,0,0,.47.08.24.24,0,0,0,.1.23.59.59,0,0,0,.26.1.33.33,0,0,0,.17,0,.14.14,0,0,0,.1-.12.51.51,0,0,0,.48,0A.47.47,0,0,0,4,23.91a.55.55,0,0,0-.31-.39.65.65,0,0,0-.51,0,.28.28,0,0,0-.12-.31.45.45,0,0,0-.34,0A.32.32,0,0,0,2.33,23a.29.29,0,0,0-.1.42S1.82,23.5,2,23.82Z"/><path class="cls-6" d="M3,24.24a.47.47,0,0,1-.1-.1A.31.31,0,0,1,2.84,24a0,0,0,0,0,0,0h0a1.61,1.61,0,0,1-.44-.05.53.53,0,0,1-.17-.08.33.33,0,0,1-.15-.3.22.22,0,0,0-.09.32.46.46,0,0,0,.29.24,1.09,1.09,0,0,0,.47.08.24.24,0,0,0,.1.23.59.59,0,0,0,.26.1.33.33,0,0,0,.17,0,.16.16,0,0,0,.08-.06A1.29,1.29,0,0,1,3,24.24Z"/><path class="cls-7" d="M4.11,24.91a.5.5,0,0,0,.29.24,1.09,1.09,0,0,0,.47.08.25.25,0,0,0,.1.23.55.55,0,0,0,.25.1.37.37,0,0,0,.18,0,.15.15,0,0,0,.1-.12.49.49,0,0,0,.47,0,.45.45,0,0,0,.2-.43.55.55,0,0,0-.31-.39.65.65,0,0,0-.51,0,.28.28,0,0,0-.12-.31.45.45,0,0,0-.34,0,.31.31,0,0,0-.42-.16.28.28,0,0,0-.1.41S4,24.59,4.11,24.91Z"/><path class="cls-6" d="M5.14,25.32a.26.26,0,0,1-.09-.09A.31.31,0,0,1,5,25.05a0,0,0,0,0,0,0H5A1.58,1.58,0,0,1,4.52,25a.53.53,0,0,1-.17-.08.34.34,0,0,1-.15-.3.22.22,0,0,0-.09.32.5.5,0,0,0,.29.24,1.09,1.09,0,0,0,.47.08.25.25,0,0,0,.1.23.55.55,0,0,0,.25.1.37.37,0,0,0,.18,0,.16.16,0,0,0,.08-.06A1.11,1.11,0,0,1,5.14,25.32Z"/><path class="cls-9" d="M1.37,18.31l-.22-.18a.11.11,0,0,0-.11,0l-.27.08A.11.11,0,0,1,.63,18l.11-.27a.12.12,0,0,0,0-.1l-.17-.24a.12.12,0,0,1,.11-.18l.28,0a.12.12,0,0,0,.1,0L1.23,17a.12.12,0,0,1,.2,0l.07.28a.1.1,0,0,0,.07.08l.27.1a.11.11,0,0,1,0,.2l-.24.16a.11.11,0,0,0-.05.09l0,.29A.11.11,0,0,1,1.37,18.31Z"/><path class="cls-8" d="M5.36,18.81a.24.24,0,0,1-.24.24.24.24,0,0,1,0-.48A.24.24,0,0,1,5.36,18.81Z"/><path class="cls-5" d="M2.52,21.53a.23.23,0,0,1-.23.24.24.24,0,1,1,0-.48A.23.23,0,0,1,2.52,21.53Z"/><path class="cls-5" d="M3.81,29.72a.24.24,0,1,1-.24-.24A.24.24,0,0,1,3.81,29.72Z"/></g></g></g><path class="cls-11" d="M15,2.5A12.5,12.5,0,1,1,2.5,15,12.5,12.5,0,0,1,15,2.5M15,1A14,14,0,1,0,29,15,14,14,0,0,0,15,1Z"/><g class="cls-12"><path class="cls-13" d="M23.84.27.27,23.84-5.62,18,18-5.62Z"/><path class="cls-14" d="M35.62,12.05,12.05,35.62,6.16,29.73,29.73,6.16Z"/><path d="M29.73,6.16,6.16,29.73.27,23.84,23.84.27Z"/></g></svg>