<?xml version="1.0" encoding="UTF-8"?>
<svg id="Livello_1" data-name="Livello 1" xmlns="http://www.w3.org/2000/svg" xmlns:xlink="http://www.w3.org/1999/xlink" viewBox="0 0 30 30">
  <defs>
    <style>
      .cls-1 {
        fill: none;
      }

      .cls-2 {
        clip-path: url(#clippath);
      }

      .cls-3 {
        fill: #fff;
      }

      .cls-4 {
        fill: #d1d1d1;
      }

      .cls-5 {
        fill: #db3844;
      }
    </style>
    <clipPath id="clippath">
      <circle class="cls-1" cx="15.39" cy="15.39" r="12.5"/>
    </clipPath>
  </defs>
  <path class="cls-4" d="m15.39,2.89c6.9,0,12.5,5.6,12.5,12.5s-5.6,12.5-12.5,12.5S2.89,22.29,2.89,15.39,8.49,2.89,15.39,2.89m0-1.5C7.67,1.39,1.39,7.67,1.39,15.39s6.28,14,14,14,14-6.28,14-14S23.11,1.39,15.39,1.39h0Z"/>
  <g class="cls-2">
    <g>
      <path class="cls-3" d="m24.23.66L.66,24.23l-5.89-5.89L18.34-5.23,24.23.66Z"/>
      <path class="cls-5" d="m36.01,12.44l-23.57,23.57-5.89-5.89L30.12,6.55l5.89,5.89Z"/>
      <path class="cls-3" d="m30.12,6.55L6.55,30.12.66,24.23,24.23.66l5.89,5.89Z"/>
    </g>
  </g>
</svg>